999
DXF generated by OpenJsCad
  0
SECTION
  2
HEADER
  0
ENDSEC
  0
SECTION
  2
TABLES
  0
TABLE
  2
LTYPE
  70
1
  0
LTYPE
  2
CONTINUOUS
  3
Solid Line
  72
65
  73
0
  40
0.0
  0
ENDTAB
  0
TABLE
  2
LAYER
  70
1
  0
LAYER
  2
OpenJsCad
  62
7
  6
continuous
  0
ENDTAB
  0
TABLE
  2
STYLE
  70
0
  0
ENDTAB
  0
TABLE
  2
VIEW
  70
0
  0
ENDTAB
  0
ENDSEC
  0
SECTION
  2
BLOCKS
  0
ENDSEC
  0
SECTION
  2
ENTITIES
  0
LWPOLYLINE
  8
OpenJsCad
  90
1801
  70
1
 10
28.403230834942804
 20
0.7437647749553238
 30
0.0
 10
28.35995156190395
 20
1.9831209995963224
 30
0.0
 10
28.334010367544323
 20
2.229934977112154
 30
0.0
 10
29.90752001199384
 20
2.3537728718353486
 30
0.0
 10
30.04521152429942
 20
2.3818388725685984
 30
0.0
 10
30.180970659114173
 20
2.4181171067112315
 30
0.0
 10
30.314308086044715
 20
2.46247681295125
 30
0.0
 10
30.444743203504554
 20
2.5147581011086357
 30
0.0
 10
30.57180587099505
 20
2.574772528443713
 30
0.0
 10
30.6950381036804
 20
2.6423037788803945
 30
0.0
 10
30.813995723148743
 20
2.7171084426961074
 30
0.0
 10
30.928249958409396
 20
2.798916893868108
 30
0.0
 10
31.037388991355513
 20
2.8874342619138424
 30
0.0
 10
31.141019441121806
 20
2.9823414947224824
 30
0.0
 10
31.238767781987008
 20
3.08329650854675
 30
0.0
 10
31.330281689710443
 20
3.1899354210099937
 30
0.0
 10
31.415231311449975
 20
3.301873862684284
 30
0.0
 10
31.308864732086203
 20
3.3937041613476775
 30
0.0
 10
31.197179146215547
 20
3.478985946430342
 30
0.0
 10
31.080577113501803
 20
3.557411828160682
 30
0.0
 10
30.959478914455865
 20
3.628699128193624
 30
0.0
 10
30.83432103557608
 20
3.692590898496787
 30
0.0
 10
30.70555459607585
 20
3.7488568474942956
 30
0.0
 10
30.5736437218689
 20
3.7972941701300154
 30
0.0
 10
30.43906387267333
 20
3.83772827885835
 30
0.0
 10
30.30230012826397
 20
3.8700134329278058
 30
0.0
 10
30.163845440050263
 20
3.8940332636891375
 30
0.0
 10
30.024198854281593
 20
3.9097011940346498
 30
0.0
 10
29.883863713284367
 20
3.9169607504568345
 30
0.0
 10
29.743345841214317
 20
3.9157857666015476
 30
0.0
 10
28.17847381168531
 20
3.709766455509394
 30
0.0
 10
28.15253261732563
 20
3.956580433025236
 30
0.0
 10
27.937189486219403
 20
5.177852017447209
 30
0.0
 10
29.49764722691864
 20
5.467065764764425
 30
0.0
 10
29.631650754786197
 20
5.509370699195364
 30
0.0
 10
29.762874078790727
 20
5.559640891112243
 30
0.0
 10
29.890844217420945
 20
5.617695146573158
 30
0.0
 10
30.01509991495094
 20
5.68332421474795
 30
0.0
 10
30.135193303990913
 20
5.756291542142142
 30
0.0
 10
30.25069151978092
 20
5.83633412523066
 30
0.0
 10
30.36117826040917
 20
5.923163458428055
 30
0.0
 10
30.466255287331126
 20
6.016466573978392
 30
0.0
 10
30.565543860781045
 20
6.115907170016624
 30
0.0
 10
30.65868610490201
 20
6.221126822735435
 30
0.0
 10
30.745346297674164
 20
6.331746278288479
 30
0.0
 10
30.825212080991516
 20
6.447366819773385
 30
0.0
 10
30.89799558652594
 20
6.567571704367473
 30
0.0
 10
30.78261281441255
 20
6.647780611962493
 30
0.0
 10
30.662624679927735
 20
6.720920891843087
 30
0.0
 10
30.538463668451783
 20
6.78672891709402
 30
0.0
 10
30.41057730608799
 20
6.844967489187717
 30
0.0
 10
30.279426546598952
 20
6.89542669294291
 30
0.0
 10
30.145484109944356
 20
6.937924653143201
 30
0.0
 10
30.009232778408464
 20
6.972308190088295
 30
0.0
 10
29.871163656459135
 20
6.9984533717151205
 30
0.0
 10
29.731774400610238
 20
7.016265960298691
 30
0.0
 10
29.591567425667886
 20
7.025681752122695
 30
0.0
 10
29.45104809382592
 20
7.026666808895439
 30
0.0
 10
29.310722893137775
 20
7.019217580077073
 30
0.0
 10
29.171097611930296
 20
7.003360915677161
 30
0.0
 10
27.6279147023561
 20
6.632875477712945
 30
0.0
 10
27.32790453708102
 20
7.836150528465174
 30
0.0
 10
27.251214708674915
 20
8.07217755081861
 30
0.0
 10
28.76459204604579
 20
8.520460341117678
 30
0.0
 10
28.893439418781966
 20
8.576540707531807
 30
0.0
 10
29.018689221778235
 20
8.640252086480574
 30
0.0
 10
29.139890004489818
 20
8.711364836590924
 30
0.0
 10
29.25660491066566
 20
8.78962263897843
 30
0.0
 10
29.36841325295363
 20
8.874743421123414
 30
0.0
 10
29.474912029226545
 20
8.966420373573467
 30
0.0
 10
29.575717375163535
 20
9.064323055807824
 30
0.0
 10
29.670465947851064
 20
9.168098587277596
 30
0.0
 10
29.758816235416592
 20
9.277372919328846
 30
0.0
 10
29.840449787974375
 20
9.391752183424016
 30
0.0
 10
29.915072365446647
 20
9.510824110802188
 30
0.0
 10
29.982414998122906
 20
9.634159518461091
 30
0.0
 10
30.042234956134664
 20
9.761313856104875
 30
0.0
 10
29.91910014906832
 20
9.82902258705512
 30
0.0
 10
29.792124081079898
 20
9.889220021521684
 30
0.0
 10
29.66176442486584
 20
9.941689183797346
 30
0.0
 10
29.528491048932185
 20
9.98624095396873
 30
0.0
 10
29.39278432399992
 20
10.022714749580347
 30
0.0
 10
29.255133391556193
 20
10.050979104438193
 30
0.0
 10
29.116034400792095
 20
10.070932142466678
 30
0.0
 10
28.97598872028191
 20
10.082501944910858
 30
0.0
 10
28.835501130849632
 20
10.0856468095605
 30
0.0
 10
28.695078006136303
 20
10.08035540106157
 30
0.0
 10
28.55522548742626
 20
10.066646791773406
 30
0.0
 10
28.41644765931086
 20
10.044570393024275
 30
0.0
 10
28.27924473276535
 20
10.014205777013126
 30
0.0
 10
26.79140273493612
 20
9.487333292590602
 30
0.0
 10
26.714712906530256
 20
9.723360314944134
 30
0.0
 10
26.250158899439615
 20
10.87317183059669
 30
0.0
 10
27.716385975338603
 20
11.480502970952696
 30
0.0
 10
27.838665514164646
 20
11.549744341120007
 30
0.0
 10
27.956569533100822
 20
11.626198871900439
 30
0.0
 10
28.069673058755495
 20
11.709590990488712
 30
0.0
 10
28.177568420640952
 20
11.79962011822948
 30
0.0
 10
28.279866720581417
 20
11.895961754023405
 30
0.0
 10
28.376199234458092
 20
11.99826864395931
 30
0.0
 10
28.466218741238862
 20
12.10617203295662
 30
0.0
 10
28.54960077450218
 20
12.219282993906619
 30
0.0
 10
28.626044791944263
 20
12.337193829521809
 30
0.0
 10
28.695275258654124
 20
12.45947954184051
 30
0.0
 10
28.757042640251957
 20
12.58569936409005
 30
0.0
 10
28.811124302311164
 20
12.71539834938705
 30
0.0
 10
28.857325312822148
 20
12.848109010548548
 30
0.0
 10
28.727787561516692
 20
12.90257573382876
 30
0.0
 10
28.595214736396986
 20
12.949170787192156
 30
0.0
 10
28.460084683117806
 20
12.98772622337078
 30
0.0
 10
28.322884464610272
 20
13.0181030731028
 30
0.0
 10
28.184108605511597
 20
13.040191846033482
 30
0.0
 10
28.04425730969991
 20
13.05391292536237
 30
0.0
 10
27.903834657358743
 20
13.059216854814157
 30
0.0
 10
27.763346788069818
 20
13.056084516898979
 30
0.0
 10
27.62330007648289
 20
13.044527201819484
 30
0.0
 10
27.484199307138372
 20
13.024586566776433
 30
0.0
 10
27.346545855021265
 20
12.996334485819435
 30
0.0
 10
27.210835878404573
 20
12.959872790784019
 30
0.0
 10
27.077558530495818
 20
12.915332904248856
 30
0.0
 10
25.645126123832902
 20
12.232097694026702
 30
0.0
 10
25.101496950152608
 20
13.346702677217987
 30
0.0
 10
24.977410201200513
 20
13.56162723094905
 30
0.0
 10
26.364513379858966
 20
14.31476280778825
 30
0.0
 10
26.478885364558863
 20
14.396406558767508
 30
0.0
 10
26.588151818330477
 20
14.484766589541232
 30
0.0
 10
26.691918901032732
 20
14.579524415105254
 30
0.0
 10
26.789812594464433
 20
14.68033849023595
 30
0.0
 10
26.881480050475943
 20
14.786845440556274
 30
0.0
 10
26.96659086277547
 20
14.898661372282803
 30
0.0
 10
27.04483825784594
 20
15.015383255932974
 30
0.0
 10
27.115940200679805
 20
15.13659037900504
 30
0.0
 10
27.179640411346412
 20
15.261845862394743
 30
0.0
 10
27.23570928872767
 20
15.390698235082882
 30
0.0
 10
27.28394473809262
 20
15.522683061418029
 30
0.0
 10
27.324172899527937
 20
15.657324615128953
 30
0.0
 10
27.356248774598804
 20
15.794137594032987
 30
0.0
 10
27.22172732176505
 20
15.834765560825018
 30
0.0
 10
27.085010235128728
 20
15.867247727929954
 30
0.0
 10
26.946590297925937
 20
15.891467016584519
 30
0.0
 10
26.806966431149483
 20
15.907336130754747
 30
0.0
 10
26.666641895237394
 20
15.914797871785895
 30
0.0
 10
26.526122476120428
 20
15.913825344569371
 30
0.0
 10
26.38591466216657
 20
15.904422054483476
 30
0.0
 10
26.246523818593808
 20
15.886621894758619
 30
0.0
 10
26.108452365931047
 20
15.860489024312521
 30
0.0
 10
25.972197969092978
 20
15.82611763649573
 30
0.0
 10
25.838251743596036
 20
15.783631619580989
 30
0.0
 10
25.707096485381008
 20
15.733184110220195
 30
0.0
 10
25.579204930622772
 20
15.674956941478467
 30
0.0
 10
24.23341879925696
 20
14.850258139509712
 30
0.0
 10
24.109332050304868
 20
15.065182693240784
 30
0.0
 10
23.41587040651663
 20
16.093281859481895
 30
0.0
 10
24.72378565866048
 20
16.992187107744993
 30
0.0
 10
24.82899700583598
 20
17.085338733515403
 30
0.0
 10
24.928428748310036
 20
17.18463617329474
 30
0.0
 10
25.021722494187124
 20
17.289721519268284
 30
0.0
 10
25.10854197537426
 20
17.400216001685074
 30
0.0
 10
25.188574259626108
 20
17.515721354096073
 30
0.0
 10
25.26153087847835
 20
17.63582124886624
 30
0.0
 10
25.327148867003807
 20
17.760082797786378
 30
0.0
 10
25.38519171164349
 20
17.888058112375916
 30
0.0
 10
25.43545020269643
 20
18.019285918252713
 30
0.0
 10
25.477743188395326
 20
18.153293217751028
 30
0.0
 10
25.511918227850238
 20
18.289596994794856
 30
0.0
 10
25.537852140506697
 20
18.427705955881684
 30
0.0
 10
25.555451450137866
 20
18.56712230090143
 30
0.0
 10
25.41742014096349
 20
18.593466382699155
 30
0.0
 10
25.27805669382162
 20
18.6114797821255
 30
0.0
 10
25.137863430493443
 20
18.621097571661295
 30
0.0
 10
24.997345663750643
 20
18.622285084934056
 30
0.0
 10
24.857009876005396
 20
18.615038041669465
 30
0.0
 10
24.717361893744567
 20
18.59938256311923
 30
0.0
 10
24.57890506432808
 20
18.575375077909595
 30
0.0
 10
24.442138441723067
 20
18.543102118649927
 30
0.0
 10
24.307554987713146
 20
18.50268001003449
 30
0.0
 10
24.17563979506636
 20
18.454254449561553
 30
0.0
 10
24.046868339066176
 20
18.397999982381158
 30
0.0
 10
23.921704763707815
 20
18.334119372164363
 30
0.0
 10
23.800600208737055
 20
18.26284287026162
 30
0.0
 10
22.541522474729888
 20
17.296718544994523
 30
0.0
 10
21.778033496156407
 20
18.27393987439129
 30
0.0
 10
21.61197301302157
 20
18.458368725179405
 30
0.0
 10
22.81217896800093
 20
19.48344144990551
 30
0.0
 10
22.907076960115496
 20
19.587080361761917
 30
0.0
 10
22.995584596314018
 20
19.696227287017322
 30
0.0
 10
23.077382859563144
 20
19.81048881635937
 30
0.0
 10
23.152176916101684
 20
19.92945310539044
 30
0.0
 10
23.21969717813977
 20
20.052691359080054
 30
0.0
 10
23.27970027556143
 20
20.17975937731424
 30
0.0
 10
23.331969933128143
 20
20.310199155970974
 30
0.0
 10
23.37631775002153
 20
20.443540537750778
 30
0.0
 10
23.412583878915562
 20
20.579302906812313
 30
0.0
 10
23.4406376021304
 20
20.716996921104663
 30
0.0
 10
23.46037780279142
 20
20.856126276152477
 30
0.0
 10
23.47173332929494
 20
20.996189493936395
 30
0.0
 10
23.474663251767193
 20
21.136681730421063
 30
0.0
 10
23.334634386160413
 20
21.14845329595145
 30
0.0
 10
23.194151473603565
 20
21.151800569125545
 30
0.0
 10
23.053720870880355
 20
21.14671148502777
 30
0.0
 10
22.91384874622888
 20
21.133204386759143
 30
0.0
 10
22.775039254908155
 20
21.111327959321358
 30
0.0
 10
22.637792722020336
 20
21.081161054136526
 30
0.0
 10
22.502603839138253
 20
21.042812404834997
 30
0.0
 10
22.36995988123851
 20
20.996420235335723
 30
0.0
 10
22.240338950366972
 20
20.942151761631802
 30
0.0
 10
22.114208252367128
 20
20.880202589076962
 30
0.0
 10
21.992022412882797
 20
20.810796007345346
 30
0.0
 10
21.87422183870489
 20
20.734182185605963
 30
0.0
 10
21.76123113036863
 20
20.65063727081262
 30
0.0
 10
20.616318177205038
 20
19.56415544628748
 30
0.0
 10
20.450257694070213
 20
19.748584297075602
 30
0.0
 10
19.558196015016307
 20
20.6100382469735
 30
0.0
 10
20.65063727081262
 20
21.76123113036863
 30
0.0
 10
20.734182185605963
 20
21.87422183870489
 30
0.0
 10
20.810796007345346
 20
21.992022412882797
 30
0.0
 10
20.880202589076962
 20
22.114208252367128
 30
0.0
 10
20.942151761631802
 20
22.240338950366972
 30
0.0
 10
20.996420235335723
 20
22.36995988123851
 30
0.0
 10
21.042812404834997
 20
22.502603839138253
 30
0.0
 10
21.081161054136526
 20
22.637792722020336
 30
0.0
 10
21.111327959321358
 20
22.775039254908155
 30
0.0
 10
21.133204386759143
 20
22.91384874622888
 30
0.0
 10
21.14671148502777
 20
23.053720870880355
 30
0.0
 10
21.151800569125545
 20
23.19415147360357
 30
0.0
 10
21.14845329595145
 20
23.334634386160413
 30
0.0
 10
21.136681730421063
 20
23.474663251767193
 30
0.0
 10
20.996189493936395
 20
23.47173332929494
 30
0.0
 10
20.856126276152477
 20
23.460377802791424
 30
0.0
 10
20.716996921104663
 20
23.4406376021304
 30
0.0
 10
20.579302906812313
 20
23.412583878915562
 30
0.0
 10
20.443540537750778
 20
23.37631775002153
 30
0.0
 10
20.310199155970974
 20
23.331969933128143
 30
0.0
 10
20.17975937731424
 20
23.27970027556143
 30
0.0
 10
20.052691359080054
 20
23.21969717813977
 30
0.0
 10
19.92945310539044
 20
23.152176916101684
 30
0.0
 10
19.81048881635937
 20
23.077382859563144
 30
0.0
 10
19.696227287017322
 20
22.995584596314018
 30
0.0
 10
19.587080361761917
 20
22.907076960115496
 30
0.0
 10
19.48344144990551
 20
22.81217896800093
 30
0.0
 10
18.45274612725549
 20
21.60538979668193
 30
0.0
 10
17.50276547577908
 20
22.402518210961343
 30
0.0
 10
17.30198889842109
 20
22.548390933039226
 30
0.0
 10
18.26284287026162
 20
23.800600208737055
 30
0.0
 10
18.334119372164363
 20
23.921704763707815
 30
0.0
 10
18.397999982381158
 20
24.046868339066176
 30
0.0
 10
18.454254449561553
 20
24.17563979506636
 30
0.0
 10
18.50268001003449
 20
24.307554987713146
 30
0.0
 10
18.543102118649927
 20
24.442138441723067
 30
0.0
 10
18.575375077909595
 20
24.57890506432808
 30
0.0
 10
18.59938256311923
 20
24.717361893744567
 30
0.0
 10
18.615038041669465
 20
24.857009876005396
 30
0.0
 10
18.622285084934056
 20
24.997345663750643
 30
0.0
 10
18.621097571661295
 20
25.137863430493443
 30
0.0
 10
18.6114797821255
 20
25.27805669382162
 30
0.0
 10
18.593466382699155
 20
25.41742014096349
 30
0.0
 10
18.56712230090143
 20
25.555451450137866
 30
0.0
 10
18.427705955881684
 20
25.537852140506697
 30
0.0
 10
18.289596994794856
 20
25.511918227850238
 30
0.0
 10
18.153293217751028
 20
25.477743188395326
 30
0.0
 10
18.019285918252713
 20
25.43545020269643
 30
0.0
 10
17.888058112375916
 20
25.38519171164349
 30
0.0
 10
17.760082797786378
 20
25.327148867003807
 30
0.0
 10
17.63582124886624
 20
25.26153087847835
 30
0.0
 10
17.515721354096073
 20
25.188574259626108
 30
0.0
 10
17.400216001685074
 20
25.10854197537426
 30
0.0
 10
17.289721519268284
 20
25.021722494187124
 30
0.0
 10
17.18463617329474
 20
24.928428748310036
 30
0.0
 10
17.085338733515403
 20
24.82899700583598
 30
0.0
 10
16.992187107744993
 20
24.72378565866048
 30
0.0
 10
16.098185522738714
 20
23.4230052808289
 30
0.0
 10
15.897408945380759
 20
23.568878002906814
 30
0.0
 10
14.845734607022736
 20
24.2260370651363
 30
0.0
 10
15.674956941478472
 20
25.57920493062277
 30
0.0
 10
15.7331841102202
 20
25.707096485381005
 30
0.0
 10
15.783631619580994
 20
25.838251743596032
 30
0.0
 10
15.826117636495736
 20
25.972197969092974
 30
0.0
 10
15.860489024312526
 20
26.108452365931043
 30
0.0
 10
15.886621894758624
 20
26.246523818593804
 30
0.0
 10
15.904422054483481
 20
26.38591466216657
 30
0.0
 10
15.913825344569377
 20
26.526122476120424
 30
0.0
 10
15.9147978717859
 20
26.66664189523739
 30
0.0
 10
15.907336130754752
 20
26.80696643114948
 30
0.0
 10
15.891467016584524
 20
26.946590297925933
 30
0.0
 10
15.867247727929959
 20
27.085010235128724
 30
0.0
 10
15.834765560825023
 20
27.221727321765048
 30
0.0
 10
15.794137594032993
 20
27.3562487745988
 30
0.0
 10
15.657324615128957
 20
27.324172899527934
 30
0.0
 10
15.522683061418034
 20
27.283944738092618
 30
0.0
 10
15.390698235082887
 20
27.235709288727666
 30
0.0
 10
15.261845862394749
 20
27.17964041134641
 30
0.0
 10
15.136590379005046
 20
27.115940200679802
 30
0.0
 10
15.01538325593298
 20
27.044838257845935
 30
0.0
 10
14.898661372282808
 20
26.96659086277547
 30
0.0
 10
14.786845440556279
 20
26.88148005047594
 30
0.0
 10
14.680338490235956
 20
26.78981259446443
 30
0.0
 10
14.57952441510526
 20
26.69191890103273
 30
0.0
 10
14.484766589541238
 20
26.588151818330473
 30
0.0
 10
14.396406558767513
 20
26.47888536455886
 30
0.0
 10
14.314762807788258
 20
26.364513379858966
 30
0.0
 10
13.557496227920078
 20
24.969801840091623
 30
0.0
 10
12.462542616523173
 20
25.551999002503155
 30
0.0
 10
12.235824844805546
 20
25.652940257941104
 30
0.0
 10
12.915332904248855
 20
27.077558530495818
 30
0.0
 10
12.959872790784019
 20
27.210835878404573
 30
0.0
 10
12.996334485819435
 20
27.346545855021265
 30
0.0
 10
13.024586566776433
 20
27.484199307138372
 30
0.0
 10
13.044527201819484
 20
27.62330007648289
 30
0.0
 10
13.056084516898979
 20
27.763346788069818
 30
0.0
 10
13.059216854814157
 20
27.903834657358743
 30
0.0
 10
13.05391292536237
 20
28.04425730969991
 30
0.0
 10
13.040191846033482
 20
28.184108605511597
 30
0.0
 10
13.0181030731028
 20
28.322884464610272
 30
0.0
 10
12.98772622337078
 20
28.46008468311781
 30
0.0
 10
12.949170787192156
 20
28.595214736396986
 30
0.0
 10
12.90257573382876
 20
28.727787561516692
 30
0.0
 10
12.848109010548548
 20
28.857325312822148
 30
0.0
 10
12.71539834938705
 20
28.811124302311164
 30
0.0
 10
12.58569936409005
 20
28.757042640251957
 30
0.0
 10
12.45947954184051
 20
28.695275258654128
 30
0.0
 10
12.337193829521809
 20
28.626044791944263
 30
0.0
 10
12.219282993906619
 20
28.54960077450218
 30
0.0
 10
12.10617203295662
 20
28.466218741238862
 30
0.0
 10
11.99826864395931
 20
28.376199234458092
 30
0.0
 10
11.895961754023405
 20
28.279866720581417
 30
0.0
 10
11.79962011822948
 20
28.177568420640952
 30
0.0
 10
11.709590990488712
 20
28.069673058755495
 30
0.0
 10
11.626198871900439
 20
27.956569533100822
 30
0.0
 10
11.549744341120007
 20
27.838665514164646
 30
0.0
 10
11.480502970952696
 20
27.716385975338603
 30
0.0
 10
10.876484913264154
 20
26.258157388548664
 30
0.0
 10
10.649767141546498
 20
26.359098643986595
 30
0.0
 10
9.484443358963913
 20
26.783241814129134
 30
0.0
 10
10.014205777013128
 20
28.279244732765353
 30
0.0
 10
10.044570393024276
 20
28.41644765931086
 30
0.0
 10
10.066646791773408
 20
28.55522548742626
 30
0.0
 10
10.080355401061572
 20
28.695078006136303
 30
0.0
 10
10.085646809560501
 20
28.835501130849632
 30
0.0
 10
10.08250194491086
 20
28.97598872028191
 30
0.0
 10
10.07093214246668
 20
29.116034400792095
 30
0.0
 10
10.050979104438195
 20
29.255133391556193
 30
0.0
 10
10.022714749580349
 20
29.39278432399992
 30
0.0
 10
9.986240953968732
 20
29.528491048932185
 30
0.0
 10
9.941689183797347
 20
29.66176442486584
 30
0.0
 10
9.889220021521684
 20
29.792124081079898
 30
0.0
 10
9.829022587055121
 20
29.91910014906832
 30
0.0
 10
9.761313856104877
 20
30.042234956134664
 30
0.0
 10
9.634159518461093
 20
29.982414998122906
 30
0.0
 10
9.510824110802188
 20
29.915072365446647
 30
0.0
 10
9.391752183424018
 20
29.840449787974375
 30
0.0
 10
9.277372919328847
 20
29.758816235416592
 30
0.0
 10
9.168098587277598
 20
29.670465947851064
 30
0.0
 10
9.064323055807826
 20
29.575717375163535
 30
0.0
 10
8.966420373573468
 20
29.474912029226545
 30
0.0
 10
8.874743421123416
 20
29.36841325295363
 30
0.0
 10
8.789622638978432
 20
29.25660491066566
 30
0.0
 10
8.711364836590926
 20
29.139890004489818
 30
0.0
 10
8.640252086480576
 20
29.018689221778235
 30
0.0
 10
8.576540707531809
 20
28.893439418781966
 30
0.0
 10
8.52046034111768
 20
28.76459204604579
 30
0.0
 10
8.069718687339796
 20
27.242913724686442
 30
0.0
 10
6.87764684301082
 20
27.58473482554077
 30
0.0
 10
6.634896531470119
 20
27.636332997106148
 30
0.0
 10
7.003360915677164
 20
29.171097611930293
 30
0.0
 10
7.019217580077076
 20
29.310722893137772
 30
0.0
 10
7.026666808895442
 20
29.451048093825918
 30
0.0
 10
7.025681752122699
 20
29.591567425667883
 30
0.0
 10
7.016265960298694
 20
29.731774400610234
 30
0.0
 10
6.998453371715124
 20
29.87116365645913
 30
0.0
 10
6.972308190088299
 20
30.00923277840846
 30
0.0
 10
6.937924653143202
 20
30.145484109944352
 30
0.0
 10
6.895426692942912
 20
30.279426546598952
 30
0.0
 10
6.844967489187718
 20
30.410577306087987
 30
0.0
 10
6.786728917094024
 20
30.538463668451783
 30
0.0
 10
6.72092089184309
 20
30.66262467992773
 30
0.0
 10
6.647780611962497
 20
30.782612814412545
 30
0.0
 10
6.567571704367476
 20
30.897995586525937
 30
0.0
 10
6.447366819773388
 20
30.825212080991513
 30
0.0
 10
6.331746278288482
 20
30.74534629767416
 30
0.0
 10
6.221126822735439
 20
30.65868610490201
 30
0.0
 10
6.115907170016626
 20
30.56554386078104
 30
0.0
 10
6.016466573978397
 20
30.466255287331126
 30
0.0
 10
5.923163458428059
 20
30.361178260409165
 30
0.0
 10
5.836334125230664
 20
30.250691519780915
 30
0.0
 10
5.7562915421421454
 20
30.13519330399091
 30
0.0
 10
5.683324214747953
 20
30.015099914950937
 30
0.0
 10
5.617695146573162
 20
29.89084421742094
 30
0.0
 10
5.559640891112245
 20
29.762874078790723
 30
0.0
 10
5.509370699195368
 20
29.631650754786193
 30
0.0
 10
5.4670657647644285
 20
29.497647226918637
 30
0.0
 10
5.179429721914767
 20
27.94570201777009
 30
0.0
 10
4.93667941037407
 20
27.99730018933551
 30
0.0
 10
3.7086364247097268
 20
28.16989037559121
 30
0.0
 10
3.9157857666015476
 20
29.743345841214317
 30
0.0
 10
3.916960750456834
 20
29.883863713284367
 30
0.0
 10
3.9097011940346493
 20
30.024198854281593
 30
0.0
 10
3.894033263689137
 20
30.163845440050263
 30
0.0
 10
3.870013432927805
 20
30.30230012826397
 30
0.0
 10
3.8377282788583496
 20
30.43906387267333
 30
0.0
 10
3.797294170130015
 20
30.5736437218689
 30
0.0
 10
3.748856847494295
 20
30.70555459607585
 30
0.0
 10
3.6925908984967863
 20
30.83432103557608
 30
0.0
 10
3.6286991281936225
 20
30.959478914455865
 30
0.0
 10
3.5574118281606815
 20
31.080577113501803
 30
0.0
 10
3.478985946430341
 20
31.197179146215547
 30
0.0
 10
3.393704161347677
 20
31.308864732086203
 30
0.0
 10
3.3018738626842836
 20
31.415231311449975
 30
0.0
 10
3.1899354210099933
 20
31.330281689710443
 30
0.0
 10
3.083296508546749
 20
31.238767781987008
 30
0.0
 10
2.9823414947224816
 20
31.141019441121806
 30
0.0
 10
2.887434261913841
 20
31.037388991355513
 30
0.0
 10
2.7989168938681077
 20
30.928249958409396
 30
0.0
 10
2.717108442696107
 20
30.813995723148743
 30
0.0
 10
2.642303778880394
 20
30.6950381036804
 30
0.0
 10
2.5747725284437126
 20
30.57180587099505
 30
0.0
 10
2.5147581011086357
 20
30.444743203504554
 30
0.0
 10
2.4624768129512495
 20
30.314308086044715
 30
0.0
 10
2.418117106711231
 20
30.180970659114173
 30
0.0
 10
2.381838872568598
 20
30.04521152429942
 30
0.0
 10
2.3537728718353486
 20
29.90752001199384
 30
0.0
 10
2.2292557173162755
 20
28.325379553508593
 30
0.0
 10
0.992164899847753
 20
28.411885370458762
 30
0.0
 10
0.7439914019435643
 20
28.411885370458762
 30
0.0
 10
0.7853084492361966
 20
29.989719749266726
 30
0.0
 10
0.7717888791778594
 20
30.129590668987706
 30
0.0
 10
0.7499000747344461
 20
30.268398209122225
 30
0.0
 10
0.7197209319397554
 20
30.40564205160099
 30
0.0
 10
0.6813602285333898
 20
30.540827514548475
 30
0.0
 10
0.6349562318821375
 20
30.673467335314896
 30
0.0
 10
0.5806762006089016
 20
30.803083426766282
 30
0.0
 10
0.5187157817255162
 20
30.92920860050235
 30
0.0
 10
0.44929830544241234
 20
31.05138825079094
 30
0.0
 10
0.3726739801969331
 20
31.169181993149493
 30
0.0
 10
0.2891189908017328
 20
31.282165251667404
 30
0.0
 10
0.19893450296389462
 20
31.389930789347986
 30
0.0
 10
0.10244557776288647
 20
31.492090175953972
 30
0.0
 10
1.7121794000575066e-15
 20
31.58827518806598
 30
0.0
 10
-0.10244557776288284
 20
31.492090175953972
 30
0.0
 10
-0.198934502963891
 20
31.389930789347986
 30
0.0
 10
-0.28911899080172915
 20
31.282165251667404
 30
0.0
 10
-0.37267398019693
 20
31.169181993149493
 30
0.0
 10
-0.44929830544240856
 20
31.05138825079094
 30
0.0
 10
-0.5187157817255125
 20
30.92920860050235
 30
0.0
 10
-0.5806762006088978
 20
30.803083426766282
 30
0.0
 10
-0.6349562318821337
 20
30.673467335314896
 30
0.0
 10
-0.6813602285333861
 20
30.540827514548475
 30
0.0
 10
-0.7197209319397516
 20
30.40564205160099
 30
0.0
 10
-0.7499000747344423
 20
30.268398209122225
 30
0.0
 10
-0.7717888791778557
 20
30.129590668987706
 30
0.0
 10
-0.7853084492361925
 20
29.989719749266726
 30
0.0
 10
-0.7439914019435605
 20
28.411885370458762
 30
0.0
 10
-0.9921648998477431
 20
28.411885370458762
 30
0.0
 10
-2.229255717316278
 20
28.325379553508597
 30
0.0
 10
-2.353772871835351
 20
29.90752001199384
 30
0.0
 10
-2.3818388725686006
 20
30.04521152429942
 30
0.0
 10
-2.418117106711234
 20
30.180970659114173
 30
0.0
 10
-2.4624768129512526
 20
30.314308086044715
 30
0.0
 10
-2.5147581011086384
 20
30.444743203504554
 30
0.0
 10
-2.5747725284437157
 20
30.57180587099505
 30
0.0
 10
-2.6423037788803967
 20
30.6950381036804
 30
0.0
 10
-2.71710844269611
 20
30.813995723148743
 30
0.0
 10
-2.7989168938681104
 20
30.928249958409396
 30
0.0
 10
-2.887434261913845
 20
31.037388991355513
 30
0.0
 10
-2.982341494722485
 20
31.141019441121806
 30
0.0
 10
-3.0832965085467525
 20
31.238767781987008
 30
0.0
 10
-3.1899354210099964
 20
31.330281689710443
 30
0.0
 10
-3.3018738626842867
 20
31.415231311449975
 30
0.0
 10
-3.39370416134768
 20
31.308864732086203
 30
0.0
 10
-3.4789859464303445
 20
31.197179146215547
 30
0.0
 10
-3.5574118281606846
 20
31.080577113501803
 30
0.0
 10
-3.6286991281936265
 20
30.959478914455865
 30
0.0
 10
-3.692590898496789
 20
30.83432103557608
 30
0.0
 10
-3.7488568474942983
 20
30.70555459607585
 30
0.0
 10
-3.7972941701300176
 20
30.5736437218689
 30
0.0
 10
-3.8377282788583527
 20
30.43906387267333
 30
0.0
 10
-3.8700134329278084
 20
30.30230012826397
 30
0.0
 10
-3.89403326368914
 20
30.163845440050263
 30
0.0
 10
-3.9097011940346524
 20
30.024198854281593
 30
0.0
 10
-3.9169607504568367
 20
29.883863713284367
 30
0.0
 10
-3.9157857666015494
 20
29.74334584121431
 30
0.0
 10
-3.7086364247097285
 20
28.169890375591212
 30
0.0
 10
-4.936679410374067
 20
27.997300189335526
 30
0.0
 10
-5.1794297219147625
 20
27.945702017770103
 30
0.0
 10
-5.467065764764425
 20
29.49764722691864
 30
0.0
 10
-5.509370699195364
 20
29.631650754786197
 30
0.0
 10
-5.559640891112243
 20
29.762874078790727
 30
0.0
 10
-5.617695146573158
 20
29.890844217420945
 30
0.0
 10
-5.68332421474795
 20
30.01509991495094
 30
0.0
 10
-5.756291542142142
 20
30.135193303990913
 30
0.0
 10
-5.83633412523066
 20
30.25069151978092
 30
0.0
 10
-5.923163458428055
 20
30.36117826040917
 30
0.0
 10
-6.016466573978392
 20
30.466255287331126
 30
0.0
 10
-6.115907170016624
 20
30.565543860781045
 30
0.0
 10
-6.221126822735435
 20
30.65868610490201
 30
0.0
 10
-6.331746278288479
 20
30.745346297674164
 30
0.0
 10
-6.447366819773385
 20
30.825212080991516
 30
0.0
 10
-6.567571704367473
 20
30.89799558652594
 30
0.0
 10
-6.647780611962493
 20
30.78261281441255
 30
0.0
 10
-6.720920891843087
 20
30.662624679927735
 30
0.0
 10
-6.78672891709402
 20
30.538463668451783
 30
0.0
 10
-6.844967489187717
 20
30.41057730608799
 30
0.0
 10
-6.89542669294291
 20
30.279426546598952
 30
0.0
 10
-6.937924653143201
 20
30.145484109944356
 30
0.0
 10
-6.972308190088295
 20
30.009232778408464
 30
0.0
 10
-6.9984533717151205
 20
29.871163656459135
 30
0.0
 10
-7.016265960298691
 20
29.731774400610238
 30
0.0
 10
-7.025681752122695
 20
29.591567425667886
 30
0.0
 10
-7.026666808895439
 20
29.45104809382592
 30
0.0
 10
-7.019217580077073
 20
29.310722893137775
 30
0.0
 10
-7.003360915677161
 20
29.171097611930296
 30
0.0
 10
-6.634896531470117
 20
27.636332997106184
 30
0.0
 10
-6.877646843010815
 20
27.584734825540767
 30
0.0
 10
-8.069718687339792
 20
27.242913724686446
 30
0.0
 10
-8.520460341117676
 20
28.764592046045795
 30
0.0
 10
-8.576540707531807
 20
28.893439418781966
 30
0.0
 10
-8.640252086480572
 20
29.01868922177824
 30
0.0
 10
-8.711364836590922
 20
29.13989000448982
 30
0.0
 10
-8.789622638978429
 20
29.25660491066566
 30
0.0
 10
-8.874743421123412
 20
29.368413252953633
 30
0.0
 10
-8.966420373573465
 20
29.474912029226548
 30
0.0
 10
-9.064323055807822
 20
29.57571737516354
 30
0.0
 10
-9.168098587277594
 20
29.670465947851067
 30
0.0
 10
-9.277372919328844
 20
29.758816235416596
 30
0.0
 10
-9.391752183424014
 20
29.84044978797438
 30
0.0
 10
-9.510824110802186
 20
29.91507236544665
 30
0.0
 10
-9.63415951846109
 20
29.98241499812291
 30
0.0
 10
-9.761313856104874
 20
30.042234956134667
 30
0.0
 10
-9.829022587055118
 20
29.919100149068324
 30
0.0
 10
-9.889220021521682
 20
29.7921240810799
 30
0.0
 10
-9.941689183797344
 20
29.661764424865844
 30
0.0
 10
-9.986240953968728
 20
29.52849104893219
 30
0.0
 10
-10.022714749580345
 20
29.392784323999923
 30
0.0
 10
-10.050979104438191
 20
29.255133391556196
 30
0.0
 10
-10.070932142466676
 20
29.1160344007921
 30
0.0
 10
-10.082501944910856
 20
28.975988720281915
 30
0.0
 10
-10.085646809560497
 20
28.835501130849632
 30
0.0
 10
-10.080355401061569
 20
28.695078006136306
 30
0.0
 10
-10.066646791773405
 20
28.555225487426263
 30
0.0
 10
-10.044570393024275
 20
28.41644765931086
 30
0.0
 10
-10.014205777013126
 20
28.27924473276536
 30
0.0
 10
-9.484443358963908
 20
26.783241814129138
 30
0.0
 10
-10.649767141546498
 20
26.359098643986577
 30
0.0
 10
-10.87648491326413
 20
26.258157388548636
 30
0.0
 10
-11.480502970952694
 20
27.716385975338607
 30
0.0
 10
-11.549744341120004
 20
27.83866551416465
 30
0.0
 10
-11.626198871900435
 20
27.956569533100826
 30
0.0
 10
-11.709590990488708
 20
28.069673058755498
 30
0.0
 10
-11.799620118229477
 20
28.177568420640956
 30
0.0
 10
-11.895961754023402
 20
28.27986672058142
 30
0.0
 10
-11.998268643959307
 20
28.376199234458095
 30
0.0
 10
-12.106172032956616
 20
28.466218741238865
 30
0.0
 10
-12.219282993906615
 20
28.549600774502185
 30
0.0
 10
-12.337193829521805
 20
28.626044791944267
 30
0.0
 10
-12.459479541840507
 20
28.695275258654128
 30
0.0
 10
-12.585699364090047
 20
28.75704264025196
 30
0.0
 10
-12.715398349387046
 20
28.811124302311168
 30
0.0
 10
-12.848109010548544
 20
28.85732531282215
 30
0.0
 10
-12.902575733828757
 20
28.727787561516696
 30
0.0
 10
-12.949170787192152
 20
28.59521473639699
 30
0.0
 10
-12.987726223370776
 20
28.46008468311781
 30
0.0
 10
-13.018103073102797
 20
28.322884464610276
 30
0.0
 10
-13.040191846033478
 20
28.1841086055116
 30
0.0
 10
-13.053912925362367
 20
28.044257309699912
 30
0.0
 10
-13.059216854814153
 20
27.903834657358747
 30
0.0
 10
-13.056084516898975
 20
27.76334678806982
 30
0.0
 10
-13.04452720181948
 20
27.623300076482895
 30
0.0
 10
-13.02458656677643
 20
27.484199307138375
 30
0.0
 10
-12.996334485819432
 20
27.34654585502127
 30
0.0
 10
-12.959872790784015
 20
27.210835878404577
 30
0.0
 10
-12.915332904248855
 20
27.077558530495825
 30
0.0
 10
-12.235824844805522
 20
25.652940257941076
 30
0.0
 10
-12.462542616523178
 20
25.551999002503145
 30
0.0
 10
-13.557496227920069
 20
24.969801840091627
 30
0.0
 10
-14.314762807788245
 20
26.364513379858966
 30
0.0
 10
-14.396406558767502
 20
26.478885364558863
 30
0.0
 10
-14.484766589541227
 20
26.588151818330477
 30
0.0
 10
-14.579524415105249
 20
26.691918901032732
 30
0.0
 10
-14.680338490235945
 20
26.789812594464433
 30
0.0
 10
-14.786845440556268
 20
26.881480050475943
 30
0.0
 10
-14.898661372282797
 20
26.96659086277547
 30
0.0
 10
-15.015383255932969
 20
27.04483825784594
 30
0.0
 10
-15.136590379005035
 20
27.115940200679805
 30
0.0
 10
-15.261845862394738
 20
27.179640411346412
 30
0.0
 10
-15.390698235082876
 20
27.23570928872767
 30
0.0
 10
-15.522683061418023
 20
27.28394473809262
 30
0.0
 10
-15.657324615128946
 20
27.324172899527937
 30
0.0
 10
-15.794137594032982
 20
27.356248774598804
 30
0.0
 10
-15.834765560825012
 20
27.22172732176505
 30
0.0
 10
-15.867247727929948
 20
27.085010235128728
 30
0.0
 10
-15.891467016584514
 20
26.946590297925937
 30
0.0
 10
-15.907336130754741
 20
26.806966431149483
 30
0.0
 10
-15.91479787178589
 20
26.666641895237394
 30
0.0
 10
-15.913825344569366
 20
26.526122476120428
 30
0.0
 10
-15.90442205448347
 20
26.38591466216657
 30
0.0
 10
-15.886621894758614
 20
26.246523818593808
 30
0.0
 10
-15.860489024312516
 20
26.108452365931047
 30
0.0
 10
-15.826117636495725
 20
25.972197969092978
 30
0.0
 10
-15.783631619580984
 20
25.838251743596036
 30
0.0
 10
-15.73318411022019
 20
25.707096485381008
 30
0.0
 10
-15.674956941478461
 20
25.579204930622772
 30
0.0
 10
-14.845734607022722
 20
24.2260370651363
 30
0.0
 10
-15.897408945380777
 20
23.568878002906832
 30
0.0
 10
-16.098185522738678
 20
23.423005280828853
 30
0.0
 10
-16.992187107744982
 20
24.72378565866047
 30
0.0
 10
-17.0853387335154
 20
24.82899700583598
 30
0.0
 10
-17.184636173294738
 20
24.928428748310036
 30
0.0
 10
-17.28972151926828
 20
25.021722494187124
 30
0.0
 10
-17.40021600168507
 20
25.10854197537426
 30
0.0
 10
-17.51572135409607
 20
25.188574259626108
 30
0.0
 10
-17.635821248866236
 20
25.26153087847835
 30
0.0
 10
-17.760082797786374
 20
25.327148867003807
 30
0.0
 10
-17.888058112375912
 20
25.38519171164349
 30
0.0
 10
-18.01928591825271
 20
25.43545020269643
 30
0.0
 10
-18.153293217751024
 20
25.477743188395326
 30
0.0
 10
-18.289596994794852
 20
25.511918227850238
 30
0.0
 10
-18.42770595588168
 20
25.537852140506697
 30
0.0
 10
-18.567122300901428
 20
25.555451450137866
 30
0.0
 10
-18.59346638269915
 20
25.41742014096349
 30
0.0
 10
-18.611479782125496
 20
25.27805669382162
 30
0.0
 10
-18.62109757166129
 20
25.137863430493443
 30
0.0
 10
-18.622285084934052
 20
24.997345663750643
 30
0.0
 10
-18.61503804166946
 20
24.857009876005396
 30
0.0
 10
-18.599382563119228
 20
24.717361893744567
 30
0.0
 10
-18.57537507790959
 20
24.57890506432808
 30
0.0
 10
-18.543102118649923
 20
24.442138441723067
 30
0.0
 10
-18.502680010034485
 20
24.307554987713146
 30
0.0
 10
-18.45425444956155
 20
24.17563979506636
 30
0.0
 10
-18.397999982381155
 20
24.046868339066176
 30
0.0
 10
-18.33411937216436
 20
23.921704763707815
 30
0.0
 10
-18.262842870261615
 20
23.80060020873706
 30
0.0
 10
-17.301988898421065
 20
22.548390933039204
 30
0.0
 10
-17.502765475779032
 20
22.402518210961286
 30
0.0
 10
-18.45274612725549
 20
21.60538979668193
 30
0.0
 10
-19.48344144990551
 20
22.81217896800093
 30
0.0
 10
-19.587080361761917
 20
22.907076960115496
 30
0.0
 10
-19.696227287017322
 20
22.995584596314018
 30
0.0
 10
-19.81048881635937
 20
23.077382859563144
 30
0.0
 10
-19.92945310539044
 20
23.152176916101684
 30
0.0
 10
-20.052691359080054
 20
23.21969717813977
 30
0.0
 10
-20.17975937731424
 20
23.27970027556143
 30
0.0
 10
-20.310199155970974
 20
23.331969933128143
 30
0.0
 10
-20.443540537750778
 20
23.37631775002153
 30
0.0
 10
-20.579302906812313
 20
23.412583878915562
 30
0.0
 10
-20.716996921104663
 20
23.4406376021304
 30
0.0
 10
-20.856126276152477
 20
23.46037780279142
 30
0.0
 10
-20.996189493936395
 20
23.47173332929494
 30
0.0
 10
-21.136681730421063
 20
23.474663251767193
 30
0.0
 10
-21.14845329595145
 20
23.334634386160413
 30
0.0
 10
-21.151800569125545
 20
23.194151473603565
 30
0.0
 10
-21.14671148502777
 20
23.053720870880355
 30
0.0
 10
-21.133204386759143
 20
22.91384874622888
 30
0.0
 10
-21.111327959321358
 20
22.775039254908155
 30
0.0
 10
-21.081161054136526
 20
22.637792722020336
 30
0.0
 10
-21.042812404834997
 20
22.502603839138253
 30
0.0
 10
-20.996420235335723
 20
22.36995988123851
 30
0.0
 10
-20.942151761631802
 20
22.240338950366972
 30
0.0
 10
-20.880202589076962
 20
22.114208252367128
 30
0.0
 10
-20.810796007345346
 20
21.992022412882797
 30
0.0
 10
-20.734182185605963
 20
21.87422183870489
 30
0.0
 10
-20.65063727081262
 20
21.76123113036863
 30
0.0
 10
-19.558196015016307
 20
20.610038246973495
 30
0.0
 10
-20.45025769407021
 20
19.748584297075592
 30
0.0
 10
-20.61631817720501
 20
19.564155446287444
 30
0.0
 10
-21.761231130368635
 20
20.650637270812613
 30
0.0
 10
-21.874221838704894
 20
20.734182185605956
 30
0.0
 10
-21.9920224128828
 20
20.810796007345342
 30
0.0
 10
-22.11420825236713
 20
20.88020258907696
 30
0.0
 10
-22.240338950366976
 20
20.9421517616318
 30
0.0
 10
-22.369959881238515
 20
20.996420235335716
 30
0.0
 10
-22.502603839138256
 20
21.04281240483499
 30
0.0
 10
-22.63779272202034
 20
21.08116105413652
 30
0.0
 10
-22.775039254908158
 20
21.11132795932135
 30
0.0
 10
-22.913848746228883
 20
21.133204386759136
 30
0.0
 10
-23.05372087088036
 20
21.14671148502776
 30
0.0
 10
-23.194151473603572
 20
21.151800569125538
 30
0.0
 10
-23.334634386160417
 20
21.148453295951445
 30
0.0
 10
-23.474663251767197
 20
21.136681730421056
 30
0.0
 10
-23.471733329294942
 20
20.996189493936388
 30
0.0
 10
-23.460377802791427
 20
20.85612627615247
 30
0.0
 10
-23.440637602130405
 20
20.716996921104656
 30
0.0
 10
-23.412583878915566
 20
20.579302906812305
 30
0.0
 10
-23.376317750021535
 20
20.44354053775077
 30
0.0
 10
-23.331969933128146
 20
20.310199155970967
 30
0.0
 10
-23.279700275561435
 20
20.179759377314234
 30
0.0
 10
-23.219697178139775
 20
20.052691359080047
 30
0.0
 10
-23.152176916101688
 20
19.929453105390436
 30
0.0
 10
-23.077382859563148
 20
19.810488816359367
 30
0.0
 10
-22.99558459631402
 20
19.69622728701731
 30
0.0
 10
-22.9070769601155
 20
19.58708036176191
 30
0.0
 10
-22.812178968000936
 20
19.483441449905502
 30
0.0
 10
-21.611973013021576
 20
18.458368725179394
 30
0.0
 10
-21.778033496156397
 20
18.273939874391285
 30
0.0
 10
-22.541522474729884
 20
17.29671854499453
 30
0.0
 10
-23.800600208737052
 20
18.262842870261622
 30
0.0
 10
-23.92170476370781
 20
18.334119372164366
 30
0.0
 10
-24.046868339066172
 20
18.39799998238116
 30
0.0
 10
-24.175639795066356
 20
18.454254449561557
 30
0.0
 10
-24.307554987713143
 20
18.502680010034492
 30
0.0
 10
-24.442138441723063
 20
18.54310211864993
 30
0.0
 10
-24.578905064328076
 20
18.575375077909598
 30
0.0
 10
-24.717361893744563
 20
18.599382563119235
 30
0.0
 10
-24.857009876005392
 20
18.615038041669465
 30
0.0
 10
-24.99734566375064
 20
18.62228508493406
 30
0.0
 10
-25.13786343049344
 20
18.6210975716613
 30
0.0
 10
-25.278056693821615
 20
18.611479782125503
 30
0.0
 10
-25.417420140963486
 20
18.59346638269916
 30
0.0
 10
-25.555451450137863
 20
18.567122300901435
 30
0.0
 10
-25.537852140506693
 20
18.427705955881688
 30
0.0
 10
-25.511918227850234
 20
18.28959699479486
 30
0.0
 10
-25.477743188395323
 20
18.15329321775103
 30
0.0
 10
-25.435450202696426
 20
18.019285918252717
 30
0.0
 10
-25.385191711643486
 20
17.888058112375916
 30
0.0
 10
-25.327148867003803
 20
17.76008279778638
 30
0.0
 10
-25.261530878478347
 20
17.635821248866243
 30
0.0
 10
-25.188574259626105
 20
17.515721354096076
 30
0.0
 10
-25.108541975374255
 20
17.400216001685077
 30
0.0
 10
-25.02172249418712
 20
17.289721519268287
 30
0.0
 10
-24.928428748310033
 20
17.184636173294745
 30
0.0
 10
-24.828997005835976
 20
17.085338733515407
 30
0.0
 10
-24.723785658660468
 20
16.99218710774499
 30
0.0
 10
-23.415870406516625
 20
16.0932818594819
 30
0.0
 10
-24.109332050304857
 20
15.065182693240773
 30
0.0
 10
-24.23341879925695
 20
14.850258139509707
 30
0.0
 10
-25.579204930622772
 20
15.674956941478468
 30
0.0
 10
-25.707096485381008
 20
15.733184110220195
 30
0.0
 10
-25.838251743596036
 20
15.783631619580989
 30
0.0
 10
-25.972197969092978
 20
15.82611763649573
 30
0.0
 10
-26.108452365931047
 20
15.860489024312521
 30
0.0
 10
-26.246523818593808
 20
15.886621894758619
 30
0.0
 10
-26.38591466216657
 20
15.904422054483476
 30
0.0
 10
-26.526122476120428
 20
15.913825344569371
 30
0.0
 10
-26.666641895237394
 20
15.914797871785895
 30
0.0
 10
-26.806966431149483
 20
15.907336130754747
 30
0.0
 10
-26.946590297925937
 20
15.891467016584519
 30
0.0
 10
-27.085010235128728
 20
15.867247727929954
 30
0.0
 10
-27.22172732176505
 20
15.834765560825016
 30
0.0
 10
-27.356248774598804
 20
15.794137594032987
 30
0.0
 10
-27.324172899527937
 20
15.657324615128951
 30
0.0
 10
-27.28394473809262
 20
15.522683061418029
 30
0.0
 10
-27.23570928872767
 20
15.390698235082882
 30
0.0
 10
-27.179640411346412
 20
15.261845862394743
 30
0.0
 10
-27.115940200679805
 20
15.13659037900504
 30
0.0
 10
-27.04483825784594
 20
15.015383255932974
 30
0.0
 10
-26.96659086277547
 20
14.898661372282803
 30
0.0
 10
-26.881480050475943
 20
14.786845440556274
 30
0.0
 10
-26.789812594464433
 20
14.68033849023595
 30
0.0
 10
-26.691918901032732
 20
14.579524415105254
 30
0.0
 10
-26.588151818330477
 20
14.484766589541232
 30
0.0
 10
-26.478885364558863
 20
14.396406558767508
 30
0.0
 10
-26.364513379858966
 20
14.314762807788249
 30
0.0
 10
-24.97741020120051
 20
13.561627230949048
 30
0.0
 10
-25.101496950152598
 20
13.346702677217985
 30
0.0
 10
-25.645126123832895
 20
12.232097694026708
 30
0.0
 10
-27.077558530495814
 20
12.915332904248862
 30
0.0
 10
-27.21083587840457
 20
12.959872790784026
 30
0.0
 10
-27.34654585502126
 20
12.996334485819443
 30
0.0
 10
-27.48419930713837
 20
13.02458656677644
 30
0.0
 10
-27.623300076482888
 20
13.044527201819488
 30
0.0
 10
-27.763346788069814
 20
13.056084516898984
 30
0.0
 10
-27.90383465735874
 20
13.059216854814164
 30
0.0
 10
-28.044257309699905
 20
13.053912925362376
 30
0.0
 10
-28.184108605511593
 20
13.040191846033489
 30
0.0
 10
-28.32288446461027
 20
13.018103073102807
 30
0.0
 10
-28.460084683117802
 20
12.987726223370787
 30
0.0
 10
-28.595214736396983
 20
12.949170787192163
 30
0.0
 10
-28.72778756151669
 20
12.902575733828767
 30
0.0
 10
-28.857325312822145
 20
12.848109010548555
 30
0.0
 10
-28.81112430231116
 20
12.715398349387057
 30
0.0
 10
-28.757042640251953
 20
12.585699364090058
 30
0.0
 10
-28.695275258654124
 20
12.459479541840517
 30
0.0
 10
-28.626044791944263
 20
12.337193829521816
 30
0.0
 10
-28.549600774502178
 20
12.219282993906626
 30
0.0
 10
-28.46621874123886
 20
12.106172032956625
 30
0.0
 10
-28.37619923445809
 20
11.998268643959317
 30
0.0
 10
-28.279866720581413
 20
11.89596175402341
 30
0.0
 10
-28.17756842064095
 20
11.799620118229488
 30
0.0
 10
-28.06967305875549
 20
11.709590990488719
 30
0.0
 10
-27.95656953310082
 20
11.626198871900446
 30
0.0
 10
-27.838665514164642
 20
11.549744341120014
 30
0.0
 10
-27.716385975338596
 20
11.480502970952701
 30
0.0
 10
-26.25015889943961
 20
10.873171830596695
 30
0.0
 10
-26.714712906530472
 20
9.723360314944241
 30
0.0
 10
-26.79140273493627
 20
9.487333292590677
 30
0.0
 10
-28.279244732765353
 20
10.01420577701313
 30
0.0
 10
-28.41644765931086
 20
10.044570393024278
 30
0.0
 10
-28.55522548742626
 20
10.06664679177341
 30
0.0
 10
-28.695078006136303
 20
10.080355401061574
 30
0.0
 10
-28.835501130849632
 20
10.085646809560503
 30
0.0
 10
-28.97598872028191
 20
10.082501944910861
 30
0.0
 10
-29.116034400792095
 20
10.070932142466681
 30
0.0
 10
-29.255133391556193
 20
10.050979104438197
 30
0.0
 10
-29.39278432399992
 20
10.02271474958035
 30
0.0
 10
-29.528491048932185
 20
9.986240953968734
 30
0.0
 10
-29.66176442486584
 20
9.94168918379735
 30
0.0
 10
-29.792124081079898
 20
9.889220021521686
 30
0.0
 10
-29.91910014906832
 20
9.829022587055123
 30
0.0
 10
-30.042234956134664
 20
9.761313856104879
 30
0.0
 10
-29.982414998122906
 20
9.634159518461095
 30
0.0
 10
-29.915072365446647
 20
9.51082411080219
 30
0.0
 10
-29.840449787974375
 20
9.39175218342402
 30
0.0
 10
-29.758816235416592
 20
9.27737291932885
 30
0.0
 10
-29.670465947851064
 20
9.1680985872776
 30
0.0
 10
-29.575717375163535
 20
9.064323055807828
 30
0.0
 10
-29.474912029226545
 20
8.96642037357347
 30
0.0
 10
-29.36841325295363
 20
8.874743421123418
 30
0.0
 10
-29.25660491066566
 20
8.789622638978434
 30
0.0
 10
-29.139890004489818
 20
8.711364836590928
 30
0.0
 10
-29.018689221778235
 20
8.640252086480578
 30
0.0
 10
-28.893439418781966
 20
8.57654070753181
 30
0.0
 10
-28.76459204604579
 20
8.520460341117682
 30
0.0
 10
-27.251214708675075
 20
8.072177550818694
 30
0.0
 10
-27.327904537080943
 20
7.836150528465157
 30
0.0
 10
-27.627914702356104
 20
6.632875477712946
 30
0.0
 10
-29.171097611930296
 20
7.0033609156771615
 30
0.0
 10
-29.310722893137775
 20
7.019217580077072
 30
0.0
 10
-29.45104809382592
 20
7.026666808895438
 30
0.0
 10
-29.591567425667886
 20
7.025681752122694
 30
0.0
 10
-29.731774400610238
 20
7.016265960298691
 30
0.0
 10
-29.871163656459135
 20
6.998453371715119
 30
0.0
 10
-30.009232778408464
 20
6.972308190088294
 30
0.0
 10
-30.145484109944356
 20
6.9379246531432
 30
0.0
 10
-30.279426546598952
 20
6.895426692942909
 30
0.0
 10
-30.41057730608799
 20
6.844967489187715
 30
0.0
 10
-30.538463668451783
 20
6.7867289170940195
 30
0.0
 10
-30.662624679927735
 20
6.720920891843085
 30
0.0
 10
-30.78261281441255
 20
6.647780611962492
 30
0.0
 10
-30.89799558652594
 20
6.567571704367472
 30
0.0
 10
-30.825212080991516
 20
6.447366819773384
 30
0.0
 10
-30.745346297674164
 20
6.3317462782884775
 30
0.0
 10
-30.65868610490201
 20
6.221126822735434
 30
0.0
 10
-30.565543860781045
 20
6.115907170016622
 30
0.0
 10
-30.466255287331126
 20
6.016466573978391
 30
0.0
 10
-30.36117826040917
 20
5.923163458428054
 30
0.0
 10
-30.25069151978092
 20
5.8363341252306595
 30
0.0
 10
-30.135193303990913
 20
5.756291542142142
 30
0.0
 10
-30.01509991495094
 20
5.683324214747948
 30
0.0
 10
-29.890844217420945
 20
5.6176951465731575
 30
0.0
 10
-29.762874078790727
 20
5.559640891112242
 30
0.0
 10
-29.631650754786197
 20
5.5093706991953635
 30
0.0
 10
-29.49764722691864
 20
5.467065764764425
 30
0.0
 10
-27.937189486219406
 20
5.177852017447208
 30
0.0
 10
-28.152532617325573
 20
3.9565804330252456
 30
0.0
 10
-28.178473811685137
 20
3.7097664555093917
 30
0.0
 10
-29.743345841214314
 20
3.915785766601556
 30
0.0
 10
-29.883863713284367
 20
3.916960750456842
 30
0.0
 10
-30.024198854281593
 20
3.9097011940346578
 30
0.0
 10
-30.163845440050263
 20
3.8940332636891455
 30
0.0
 10
-30.30230012826397
 20
3.8700134329278137
 30
0.0
 10
-30.43906387267333
 20
3.8377282788583584
 30
0.0
 10
-30.5736437218689
 20
3.7972941701300233
 30
0.0
 10
-30.70555459607585
 20
3.748856847494304
 30
0.0
 10
-30.83432103557608
 20
3.692590898496795
 30
0.0
 10
-30.959478914455865
 20
3.6286991281936314
 30
0.0
 10
-31.080577113501803
 20
3.5574118281606903
 30
0.0
 10
-31.197179146215547
 20
3.47898594643035
 30
0.0
 10
-31.308864732086203
 20
3.393704161347686
 30
0.0
 10
-31.415231311449975
 20
3.3018738626842925
 30
0.0
 10
-31.330281689710443
 20
3.189935421010002
 30
0.0
 10
-31.238767781987008
 20
3.083296508546758
 30
0.0
 10
-31.141019441121806
 20
2.9823414947224904
 30
0.0
 10
-31.037388991355513
 20
2.88743426191385
 30
0.0
 10
-30.928249958409396
 20
2.798916893868116
 30
0.0
 10
-30.813995723148743
 20
2.717108442696116
 30
0.0
 10
-30.6950381036804
 20
2.6423037788804025
 30
0.0
 10
-30.57180587099505
 20
2.5747725284437215
 30
0.0
 10
-30.444743203504554
 20
2.5147581011086437
 30
0.0
 10
-30.314308086044715
 20
2.462476812951258
 30
0.0
 10
-30.180970659114173
 20
2.4181171067112395
 30
0.0
 10
-30.04521152429942
 20
2.381838872568606
 30
0.0
 10
-29.90752001199384
 20
2.353772871835357
 30
0.0
 10
-28.334010367544167
 20
2.229934977112163
 30
0.0
 10
-28.359951561903852
 20
1.9831209995963146
 30
0.0
 10
-28.403230834942807
 20
0.7437647749553274
 30
0.0
 10
-29.989719749266726
 20
0.7853084492361984
 30
0.0
 10
-30.129590668987706
 20
0.7717888791778612
 30
0.0
 10
-30.268398209122225
 20
0.7499000747344479
 30
0.0
 10
-30.40564205160099
 20
0.7197209319397573
 30
0.0
 10
-30.540827514548475
 20
0.6813602285333917
 30
0.0
 10
-30.673467335314896
 20
0.6349562318821393
 30
0.0
 10
-30.803083426766282
 20
0.5806762006089035
 30
0.0
 10
-30.92920860050235
 20
0.5187157817255181
 30
0.0
 10
-31.05138825079094
 20
0.4492983054424143
 30
0.0
 10
-31.169181993149493
 20
0.37267398019693504
 30
0.0
 10
-31.282165251667404
 20
0.2891189908017347
 30
0.0
 10
-31.389930789347986
 20
0.19893450296389656
 30
0.0
 10
-31.492090175953972
 20
0.1024455777628884
 30
0.0
 10
-31.58827518806598
 20
3.6464034050400446e-15
 30
0.0
 10
-31.492090175953972
 20
-0.10244557776288091
 30
0.0
 10
-31.389930789347986
 20
-0.19893450296388906
 30
0.0
 10
-31.282165251667404
 20
-0.28911899080172726
 30
0.0
 10
-31.169181993149493
 20
-0.37267398019692805
 30
0.0
 10
-31.05138825079094
 20
-0.4492983054424066
 30
0.0
 10
-30.92920860050235
 20
-0.5187157817255106
 30
0.0
 10
-30.803083426766282
 20
-0.5806762006088959
 30
0.0
 10
-30.673467335314896
 20
-0.6349562318821318
 30
0.0
 10
-30.540827514548475
 20
-0.6813602285333842
 30
0.0
 10
-30.40564205160099
 20
-0.7197209319397497
 30
0.0
 10
-30.268398209122225
 20
-0.7499000747344405
 30
0.0
 10
-30.129590668987706
 20
-0.7717888791778539
 30
0.0
 10
-29.989719749266726
 20
-0.7853084492361907
 30
0.0
 10
-28.403230834942807
 20
-0.7437647749553202
 30
0.0
 10
-28.359951561903955
 20
-1.9831209995963088
 30
0.0
 10
-28.33401036754427
 20
-2.229934977112145
 30
0.0
 10
-29.907520011993842
 20
-2.353772871835336
 30
0.0
 10
-30.04521152429942
 20
-2.3818388725685855
 30
0.0
 10
-30.180970659114177
 20
-2.418117106711219
 30
0.0
 10
-30.31430808604472
 20
-2.462476812951237
 30
0.0
 10
-30.444743203504558
 20
-2.514758101108623
 30
0.0
 10
-30.571805870995053
 20
-2.5747725284437006
 30
0.0
 10
-30.695038103680403
 20
-2.6423037788803816
 30
0.0
 10
-30.813995723148746
 20
-2.7171084426960945
 30
0.0
 10
-30.9282499584094
 20
-2.798916893868095
 30
0.0
 10
-31.037388991355517
 20
-2.8874342619138296
 30
0.0
 10
-31.14101944112181
 20
-2.982341494722469
 30
0.0
 10
-31.23876778198701
 20
-3.083296508546737
 30
0.0
 10
-31.330281689710446
 20
-3.1899354210099804
 30
0.0
 10
-31.41523131144998
 20
-3.301873862684271
 30
0.0
 10
-31.308864732086207
 20
-3.393704161347664
 30
0.0
 10
-31.19717914621555
 20
-3.478985946430329
 30
0.0
 10
-31.080577113501807
 20
-3.557411828160669
 30
0.0
 10
-30.959478914455868
 20
-3.628699128193611
 30
0.0
 10
-30.834321035576085
 20
-3.6925908984967735
 30
0.0
 10
-30.705554596075853
 20
-3.7488568474942827
 30
0.0
 10
-30.573643721868905
 20
-3.7972941701300025
 30
0.0
 10
-30.439063872673334
 20
-3.8377282788583376
 30
0.0
 10
-30.302300128263973
 20
-3.870013432927793
 30
0.0
 10
-30.163845440050267
 20
-3.8940332636891246
 30
0.0
 10
-30.024198854281597
 20
-3.9097011940346373
 30
0.0
 10
-29.883863713284374
 20
-3.9169607504568216
 30
0.0
 10
-29.743345841214317
 20
-3.915785766601535
 30
0.0
 10
-28.178473811685247
 20
-3.709766455509378
 30
0.0
 10
-28.152532617325562
 20
-3.956580433025239
 30
0.0
 10
-27.937189486219403
 20
-5.177852017447214
 30
0.0
 10
-29.497647226918637
 20
-5.46706576476443
 30
0.0
 10
-29.631650754786193
 20
-5.50937069919537
 30
0.0
 10
-29.762874078790723
 20
-5.559640891112247
 30
0.0
 10
-29.89084421742094
 20
-5.617695146573163
 30
0.0
 10
-30.015099914950937
 20
-5.683324214747954
 30
0.0
 10
-30.13519330399091
 20
-5.756291542142147
 30
0.0
 10
-30.250691519780915
 20
-5.836334125230666
 30
0.0
 10
-30.361178260409165
 20
-5.923163458428061
 30
0.0
 10
-30.466255287331126
 20
-6.0164665739783985
 30
0.0
 10
-30.56554386078104
 20
-6.115907170016628
 30
0.0
 10
-30.65868610490201
 20
-6.221126822735441
 30
0.0
 10
-30.74534629767416
 20
-6.331746278288485
 30
0.0
 10
-30.825212080991513
 20
-6.44736681977339
 30
0.0
 10
-30.897995586525937
 20
-6.567571704367478
 30
0.0
 10
-30.782612814412545
 20
-6.6477806119624985
 30
0.0
 10
-30.66262467992773
 20
-6.720920891843092
 30
0.0
 10
-30.538463668451783
 20
-6.786728917094026
 30
0.0
 10
-30.410577306087987
 20
-6.844967489187721
 30
0.0
 10
-30.279426546598952
 20
-6.895426692942914
 30
0.0
 10
-30.145484109944352
 20
-6.937924653143204
 30
0.0
 10
-30.00923277840846
 20
-6.972308190088301
 30
0.0
 10
-29.87116365645913
 20
-6.998453371715126
 30
0.0
 10
-29.731774400610234
 20
-7.016265960298695
 30
0.0
 10
-29.591567425667883
 20
-7.0256817521227
 30
0.0
 10
-29.451048093825918
 20
-7.026666808895444
 30
0.0
 10
-29.310722893137772
 20
-7.019217580077078
 30
0.0
 10
-29.171097611930296
 20
-7.003360915677167
 30
0.0
 10
-27.6279147023561
 20
-6.6328754777129495
 30
0.0
 10
-27.32790453708102
 20
-7.836150528465169
 30
0.0
 10
-27.251214708675217
 20
-8.072177550818736
 30
0.0
 10
-28.764592046045788
 20
-8.520460341117687
 30
0.0
 10
-28.893439418781966
 20
-8.576540707531818
 30
0.0
 10
-29.018689221778235
 20
-8.640252086480585
 30
0.0
 10
-29.139890004489818
 20
-8.711364836590933
 30
0.0
 10
-29.25660491066566
 20
-8.789622638978441
 30
0.0
 10
-29.36841325295363
 20
-8.874743421123425
 30
0.0
 10
-29.474912029226548
 20
-8.966420373573476
 30
0.0
 10
-29.575717375163535
 20
-9.064323055807835
 30
0.0
 10
-29.670465947851064
 20
-9.168098587277607
 30
0.0
 10
-29.758816235416592
 20
-9.277372919328856
 30
0.0
 10
-29.840449787974375
 20
-9.391752183424027
 30
0.0
 10
-29.915072365446647
 20
-9.510824110802199
 30
0.0
 10
-29.982414998122906
 20
-9.634159518461102
 30
0.0
 10
-30.042234956134664
 20
-9.761313856104886
 30
0.0
 10
-29.91910014906832
 20
-9.82902258705513
 30
0.0
 10
-29.792124081079898
 20
-9.889220021521695
 30
0.0
 10
-29.66176442486584
 20
-9.941689183797356
 30
0.0
 10
-29.528491048932185
 20
-9.986240953968741
 30
0.0
 10
-29.39278432399992
 20
-10.022714749580357
 30
0.0
 10
-29.255133391556193
 20
-10.050979104438204
 30
0.0
 10
-29.116034400792092
 20
-10.070932142466686
 30
0.0
 10
-28.97598872028191
 20
-10.082501944910868
 30
0.0
 10
-28.835501130849632
 20
-10.08564680956051
 30
0.0
 10
-28.695078006136303
 20
-10.08035540106158
 30
0.0
 10
-28.55522548742626
 20
-10.066646791773417
 30
0.0
 10
-28.41644765931086
 20
-10.044570393024285
 30
0.0
 10
-28.27924473276535
 20
-10.014205777013137
 30
0.0
 10
-26.791402734936362
 20
-9.487333292590705
 30
0.0
 10
-26.714712906530487
 20
-9.723360314944236
 30
0.0
 10
-26.250158899439615
 20
-10.873171830596691
 30
0.0
 10
-27.716385975338603
 20
-11.480502970952696
 30
0.0
 10
-27.838665514164646
 20
-11.549744341120007
 30
0.0
 10
-27.956569533100822
 20
-11.626198871900439
 30
0.0
 10
-28.069673058755495
 20
-11.709590990488712
 30
0.0
 10
-28.177568420640952
 20
-11.79962011822948
 30
0.0
 10
-28.279866720581417
 20
-11.895961754023405
 30
0.0
 10
-28.376199234458092
 20
-11.99826864395931
 30
0.0
 10
-28.466218741238862
 20
-12.10617203295662
 30
0.0
 10
-28.54960077450218
 20
-12.219282993906619
 30
0.0
 10
-28.626044791944263
 20
-12.337193829521809
 30
0.0
 10
-28.695275258654124
 20
-12.45947954184051
 30
0.0
 10
-28.757042640251957
 20
-12.58569936409005
 30
0.0
 10
-28.811124302311164
 20
-12.71539834938705
 30
0.0
 10
-28.857325312822148
 20
-12.848109010548548
 30
0.0
 10
-28.727787561516692
 20
-12.90257573382876
 30
0.0
 10
-28.595214736396986
 20
-12.949170787192156
 30
0.0
 10
-28.460084683117806
 20
-12.98772622337078
 30
0.0
 10
-28.322884464610272
 20
-13.0181030731028
 30
0.0
 10
-28.184108605511597
 20
-13.040191846033482
 30
0.0
 10
-28.04425730969991
 20
-13.05391292536237
 30
0.0
 10
-27.903834657358743
 20
-13.059216854814157
 30
0.0
 10
-27.763346788069818
 20
-13.056084516898979
 30
0.0
 10
-27.62330007648289
 20
-13.044527201819484
 30
0.0
 10
-27.484199307138372
 20
-13.024586566776433
 30
0.0
 10
-27.346545855021265
 20
-12.996334485819435
 30
0.0
 10
-27.210835878404573
 20
-12.959872790784019
 30
0.0
 10
-27.077558530495818
 20
-12.915332904248856
 30
0.0
 10
-25.645126123832902
 20
-12.232097694026702
 30
0.0
 10
-25.101496950152608
 20
-13.346702677217989
 30
0.0
 10
-24.97741020120056
 20
-13.561627230949082
 30
0.0
 10
-26.364513379858966
 20
-14.314762807788258
 30
0.0
 10
-26.47888536455886
 20
-14.396406558767513
 30
0.0
 10
-26.588151818330473
 20
-14.484766589541238
 30
0.0
 10
-26.69191890103273
 20
-14.57952441510526
 30
0.0
 10
-26.78981259446443
 20
-14.680338490235956
 30
0.0
 10
-26.88148005047594
 20
-14.786845440556279
 30
0.0
 10
-26.96659086277547
 20
-14.898661372282808
 30
0.0
 10
-27.044838257845935
 20
-15.01538325593298
 30
0.0
 10
-27.115940200679802
 20
-15.136590379005046
 30
0.0
 10
-27.17964041134641
 20
-15.261845862394749
 30
0.0
 10
-27.235709288727666
 20
-15.390698235082887
 30
0.0
 10
-27.283944738092618
 20
-15.522683061418034
 30
0.0
 10
-27.324172899527934
 20
-15.657324615128957
 30
0.0
 10
-27.3562487745988
 20
-15.794137594032993
 30
0.0
 10
-27.221727321765048
 20
-15.834765560825023
 30
0.0
 10
-27.085010235128724
 20
-15.867247727929959
 30
0.0
 10
-26.946590297925933
 20
-15.891467016584524
 30
0.0
 10
-26.80696643114948
 20
-15.907336130754752
 30
0.0
 10
-26.66664189523739
 20
-15.9147978717859
 30
0.0
 10
-26.526122476120424
 20
-15.913825344569377
 30
0.0
 10
-26.38591466216657
 20
-15.904422054483481
 30
0.0
 10
-26.246523818593804
 20
-15.886621894758624
 30
0.0
 10
-26.108452365931043
 20
-15.860489024312526
 30
0.0
 10
-25.972197969092974
 20
-15.826117636495736
 30
0.0
 10
-25.838251743596032
 20
-15.783631619580994
 30
0.0
 10
-25.707096485381005
 20
-15.7331841102202
 30
0.0
 10
-25.57920493062277
 20
-15.674956941478472
 30
0.0
 10
-24.23341879925697
 20
-14.850258139509721
 30
0.0
 10
-24.10933205030488
 20
-15.065182693240779
 30
0.0
 10
-23.415870406516625
 20
-16.09328185948189
 30
0.0
 10
-24.72378565866047
 20
-16.992187107744982
 30
0.0
 10
-24.82899700583598
 20
-17.0853387335154
 30
0.0
 10
-24.928428748310036
 20
-17.184636173294738
 30
0.0
 10
-25.021722494187124
 20
-17.28972151926828
 30
0.0
 10
-25.10854197537426
 20
-17.40021600168507
 30
0.0
 10
-25.188574259626108
 20
-17.51572135409607
 30
0.0
 10
-25.26153087847835
 20
-17.635821248866236
 30
0.0
 10
-25.327148867003807
 20
-17.760082797786374
 30
0.0
 10
-25.38519171164349
 20
-17.888058112375912
 30
0.0
 10
-25.43545020269643
 20
-18.01928591825271
 30
0.0
 10
-25.477743188395326
 20
-18.153293217751024
 30
0.0
 10
-25.511918227850238
 20
-18.289596994794852
 30
0.0
 10
-25.537852140506697
 20
-18.42770595588168
 30
0.0
 10
-25.555451450137866
 20
-18.567122300901428
 30
0.0
 10
-25.41742014096349
 20
-18.59346638269915
 30
0.0
 10
-25.27805669382162
 20
-18.611479782125496
 30
0.0
 10
-25.137863430493443
 20
-18.62109757166129
 30
0.0
 10
-24.997345663750643
 20
-18.622285084934052
 30
0.0
 10
-24.857009876005396
 20
-18.61503804166946
 30
0.0
 10
-24.717361893744567
 20
-18.599382563119228
 30
0.0
 10
-24.57890506432808
 20
-18.57537507790959
 30
0.0
 10
-24.442138441723067
 20
-18.543102118649923
 30
0.0
 10
-24.307554987713146
 20
-18.502680010034485
 30
0.0
 10
-24.17563979506636
 20
-18.45425444956155
 30
0.0
 10
-24.046868339066176
 20
-18.397999982381155
 30
0.0
 10
-23.921704763707815
 20
-18.33411937216436
 30
0.0
 10
-23.80060020873706
 20
-18.262842870261615
 30
0.0
 10
-22.541522474729888
 20
-17.296718544994523
 30
0.0
 10
-21.778033496156407
 20
-18.27393987439129
 30
0.0
 10
-21.611973013021565
 20
-18.458368725179405
 30
0.0
 10
-22.81217896800093
 20
-19.48344144990551
 30
0.0
 10
-22.907076960115496
 20
-19.587080361761917
 30
0.0
 10
-22.995584596314018
 20
-19.696227287017322
 30
0.0
 10
-23.077382859563144
 20
-19.81048881635937
 30
0.0
 10
-23.152176916101684
 20
-19.92945310539044
 30
0.0
 10
-23.21969717813977
 20
-20.052691359080054
 30
0.0
 10
-23.27970027556143
 20
-20.17975937731424
 30
0.0
 10
-23.331969933128143
 20
-20.310199155970974
 30
0.0
 10
-23.37631775002153
 20
-20.443540537750778
 30
0.0
 10
-23.412583878915562
 20
-20.579302906812313
 30
0.0
 10
-23.4406376021304
 20
-20.716996921104663
 30
0.0
 10
-23.46037780279142
 20
-20.856126276152477
 30
0.0
 10
-23.47173332929494
 20
-20.996189493936395
 30
0.0
 10
-23.474663251767193
 20
-21.136681730421063
 30
0.0
 10
-23.334634386160413
 20
-21.14845329595145
 30
0.0
 10
-23.194151473603565
 20
-21.151800569125545
 30
0.0
 10
-23.053720870880355
 20
-21.14671148502777
 30
0.0
 10
-22.91384874622888
 20
-21.133204386759143
 30
0.0
 10
-22.775039254908155
 20
-21.111327959321358
 30
0.0
 10
-22.637792722020336
 20
-21.081161054136526
 30
0.0
 10
-22.502603839138253
 20
-21.042812404834997
 30
0.0
 10
-22.36995988123851
 20
-20.996420235335723
 30
0.0
 10
-22.240338950366972
 20
-20.942151761631802
 30
0.0
 10
-22.114208252367128
 20
-20.880202589076962
 30
0.0
 10
-21.992022412882797
 20
-20.810796007345346
 30
0.0
 10
-21.87422183870489
 20
-20.734182185605963
 30
0.0
 10
-21.76123113036863
 20
-20.65063727081262
 30
0.0
 10
-20.616318177205024
 20
-19.56415544628747
 30
0.0
 10
-20.450257694070196
 20
-19.748584297075592
 30
0.0
 10
-19.55819601501631
 20
-20.610038246973488
 30
0.0
 10
-20.650637270812627
 20
-21.76123113036862
 30
0.0
 10
-20.73418218560597
 20
-21.874221838704887
 30
0.0
 10
-20.810796007345353
 20
-21.99202241288279
 30
0.0
 10
-20.88020258907697
 20
-22.11420825236712
 30
0.0
 10
-20.94215176163181
 20
-22.240338950366965
 30
0.0
 10
-20.99642023533573
 20
-22.369959881238504
 30
0.0
 10
-21.042812404835004
 20
-22.502603839138242
 30
0.0
 10
-21.081161054136533
 20
-22.63779272202033
 30
0.0
 10
-21.111327959321365
 20
-22.775039254908148
 30
0.0
 10
-21.133204386759147
 20
-22.913848746228872
 30
0.0
 10
-21.146711485027776
 20
-23.05372087088035
 30
0.0
 10
-21.15180056912555
 20
-23.19415147360356
 30
0.0
 10
-21.14845329595146
 20
-23.334634386160406
 30
0.0
 10
-21.13668173042107
 20
-23.474663251767186
 30
0.0
 10
-20.996189493936402
 20
-23.47173332929493
 30
0.0
 10
-20.856126276152484
 20
-23.460377802791417
 30
0.0
 10
-20.71699692110467
 20
-23.440637602130398
 30
0.0
 10
-20.579302906812316
 20
-23.412583878915555
 30
0.0
 10
-20.443540537750785
 20
-23.376317750021524
 30
0.0
 10
-20.31019915597098
 20
-23.331969933128136
 30
0.0
 10
-20.179759377314248
 20
-23.279700275561428
 30
0.0
 10
-20.05269135908006
 20
-23.219697178139764
 30
0.0
 10
-19.929453105390447
 20
-23.152176916101677
 30
0.0
 10
-19.810488816359378
 20
-23.077382859563137
 30
0.0
 10
-19.69622728701733
 20
-22.99558459631401
 30
0.0
 10
-19.587080361761924
 20
-22.907076960115493
 30
0.0
 10
-19.483441449905524
 20
-22.81217896800093
 30
0.0
 10
-18.452746127255498
 20
-21.605389796681923
 30
0.0
 10
-17.50276547577907
 20
-22.402518210961343
 30
0.0
 10
-17.30198889842108
 20
-22.548390933039226
 30
0.0
 10
-18.262842870261622
 20
-23.800600208737052
 30
0.0
 10
-18.334119372164366
 20
-23.92170476370781
 30
0.0
 10
-18.39799998238116
 20
-24.046868339066172
 30
0.0
 10
-18.454254449561557
 20
-24.175639795066356
 30
0.0
 10
-18.502680010034492
 20
-24.307554987713143
 30
0.0
 10
-18.54310211864993
 20
-24.442138441723063
 30
0.0
 10
-18.575375077909598
 20
-24.578905064328076
 30
0.0
 10
-18.599382563119235
 20
-24.717361893744563
 30
0.0
 10
-18.615038041669465
 20
-24.857009876005392
 30
0.0
 10
-18.62228508493406
 20
-24.99734566375064
 30
0.0
 10
-18.6210975716613
 20
-25.13786343049344
 30
0.0
 10
-18.611479782125503
 20
-25.278056693821615
 30
0.0
 10
-18.59346638269916
 20
-25.417420140963486
 30
0.0
 10
-18.567122300901435
 20
-25.555451450137863
 30
0.0
 10
-18.427705955881688
 20
-25.537852140506693
 30
0.0
 10
-18.28959699479486
 20
-25.511918227850234
 30
0.0
 10
-18.15329321775103
 20
-25.477743188395323
 30
0.0
 10
-18.019285918252717
 20
-25.435450202696426
 30
0.0
 10
-17.888058112375916
 20
-25.385191711643486
 30
0.0
 10
-17.76008279778638
 20
-25.327148867003803
 30
0.0
 10
-17.635821248866243
 20
-25.261530878478347
 30
0.0
 10
-17.515721354096076
 20
-25.188574259626105
 30
0.0
 10
-17.400216001685077
 20
-25.108541975374255
 30
0.0
 10
-17.289721519268287
 20
-25.02172249418712
 30
0.0
 10
-17.184636173294745
 20
-24.928428748310033
 30
0.0
 10
-17.085338733515407
 20
-24.828997005835976
 30
0.0
 10
-16.99218710774499
 20
-24.723785658660468
 30
0.0
 10
-16.098185522738735
 20
-23.423005280828903
 30
0.0
 10
-15.897408945380777
 20
-23.568878002906825
 30
0.0
 10
-14.845734607022742
 20
-24.22603706513629
 30
0.0
 10
-15.67495694147848
 20
-25.57920493062276
 30
0.0
 10
-15.733184110220211
 20
-25.707096485380998
 30
0.0
 10
-15.783631619581005
 20
-25.83825174359602
 30
0.0
 10
-15.826117636495745
 20
-25.972197969092967
 30
0.0
 10
-15.860489024312535
 20
-26.108452365931036
 30
0.0
 10
-15.886621894758635
 20
-26.246523818593797
 30
0.0
 10
-15.904422054483492
 20
-26.385914662166563
 30
0.0
 10
-15.913825344569387
 20
-26.526122476120413
 30
0.0
 10
-15.914797871785911
 20
-26.666641895237383
 30
0.0
 10
-15.907336130754762
 20
-26.806966431149473
 30
0.0
 10
-15.891467016584535
 20
-26.946590297925926
 30
0.0
 10
-15.86724772792997
 20
-27.085010235128717
 30
0.0
 10
-15.834765560825032
 20
-27.22172732176504
 30
0.0
 10
-15.794137594033003
 20
-27.356248774598797
 30
0.0
 10
-15.657324615128967
 20
-27.324172899527927
 30
0.0
 10
-15.522683061418045
 20
-27.28394473809261
 30
0.0
 10
-15.390698235082898
 20
-27.23570928872766
 30
0.0
 10
-15.26184586239476
 20
-27.1796404113464
 30
0.0
 10
-15.136590379005057
 20
-27.115940200679795
 30
0.0
 10
-15.01538325593299
 20
-27.04483825784593
 30
0.0
 10
-14.898661372282819
 20
-26.966590862775462
 30
0.0
 10
-14.78684544055629
 20
-26.881480050475933
 30
0.0
 10
-14.680338490235968
 20
-26.789812594464422
 30
0.0
 10
-14.579524415105272
 20
-26.69191890103272
 30
0.0
 10
-14.484766589541248
 20
-26.58815181833047
 30
0.0
 10
-14.396406558767524
 20
-26.478885364558852
 30
0.0
 10
-14.314762807788266
 20
-26.36451337985896
 30
0.0
 10
-13.557496227920087
 20
-24.969801840091616
 30
0.0
 10
-12.462542616523182
 20
-25.55199900250315
 30
0.0
 10
-12.23582484480552
 20
-25.652940257941072
 30
0.0
 10
-12.915332904248853
 20
-27.077558530495825
 30
0.0
 10
-12.959872790784015
 20
-27.210835878404577
 30
0.0
 10
-12.996334485819432
 20
-27.34654585502127
 30
0.0
 10
-13.02458656677643
 20
-27.484199307138375
 30
0.0
 10
-13.04452720181948
 20
-27.623300076482895
 30
0.0
 10
-13.056084516898975
 20
-27.76334678806982
 30
0.0
 10
-13.059216854814153
 20
-27.903834657358747
 30
0.0
 10
-13.053912925362367
 20
-28.044257309699912
 30
0.0
 10
-13.040191846033478
 20
-28.1841086055116
 30
0.0
 10
-13.018103073102797
 20
-28.322884464610276
 30
0.0
 10
-12.987726223370776
 20
-28.460084683117813
 30
0.0
 10
-12.949170787192152
 20
-28.59521473639699
 30
0.0
 10
-12.902575733828757
 20
-28.727787561516696
 30
0.0
 10
-12.848109010548544
 20
-28.85732531282215
 30
0.0
 10
-12.715398349387046
 20
-28.811124302311168
 30
0.0
 10
-12.585699364090047
 20
-28.75704264025196
 30
0.0
 10
-12.459479541840507
 20
-28.69527525865413
 30
0.0
 10
-12.337193829521805
 20
-28.626044791944267
 30
0.0
 10
-12.219282993906615
 20
-28.549600774502185
 30
0.0
 10
-12.106172032956616
 20
-28.466218741238865
 30
0.0
 10
-11.998268643959307
 20
-28.376199234458095
 30
0.0
 10
-11.895961754023402
 20
-28.27986672058142
 30
0.0
 10
-11.799620118229477
 20
-28.177568420640956
 30
0.0
 10
-11.709590990488708
 20
-28.069673058755498
 30
0.0
 10
-11.626198871900435
 20
-27.956569533100826
 30
0.0
 10
-11.549744341120004
 20
-27.83866551416465
 30
0.0
 10
-11.480502970952694
 20
-27.716385975338607
 30
0.0
 10
-10.876484913264147
 20
-26.258157388548668
 30
0.0
 10
-10.649767141546507
 20
-26.3590986439866
 30
0.0
 10
-9.484443358963915
 20
-26.783241814129134
 30
0.0
 10
-10.014205777013132
 20
-28.279244732765346
 30
0.0
 10
-10.04457039302428
 20
-28.41644765931086
 30
0.0
 10
-10.066646791773412
 20
-28.55522548742626
 30
0.0
 10
-10.080355401061574
 20
-28.695078006136303
 30
0.0
 10
-10.085646809560505
 20
-28.835501130849632
 30
0.0
 10
-10.082501944910863
 20
-28.97598872028191
 30
0.0
 10
-10.070932142466683
 20
-29.116034400792095
 30
0.0
 10
-10.050979104438198
 20
-29.255133391556193
 30
0.0
 10
-10.022714749580352
 20
-29.39278432399992
 30
0.0
 10
-9.986240953968736
 20
-29.528491048932185
 30
0.0
 10
-9.941689183797351
 20
-29.66176442486584
 30
0.0
 10
-9.889220021521687
 20
-29.792124081079898
 30
0.0
 10
-9.829022587055125
 20
-29.91910014906832
 30
0.0
 10
-9.76131385610488
 20
-30.042234956134664
 30
0.0
 10
-9.634159518461097
 20
-29.982414998122906
 30
0.0
 10
-9.510824110802192
 20
-29.915072365446647
 30
0.0
 10
-9.391752183424021
 20
-29.840449787974375
 30
0.0
 10
-9.277372919328851
 20
-29.758816235416592
 30
0.0
 10
-9.168098587277601
 20
-29.670465947851064
 30
0.0
 10
-9.06432305580783
 20
-29.575717375163535
 30
0.0
 10
-8.966420373573472
 20
-29.474912029226545
 30
0.0
 10
-8.87474342112342
 20
-29.36841325295363
 30
0.0
 10
-8.789622638978436
 20
-29.25660491066566
 30
0.0
 10
-8.711364836590928
 20
-29.139890004489818
 30
0.0
 10
-8.64025208648058
 20
-29.018689221778235
 30
0.0
 10
-8.576540707531812
 20
-28.893439418781966
 30
0.0
 10
-8.520460341117685
 20
-28.764592046045795
 30
0.0
 10
-8.0697186873398
 20
-27.242913724686442
 30
0.0
 10
-6.877646843010816
 20
-27.58473482554077
 30
0.0
 10
-6.634896531470125
 20
-27.63633299710621
 30
0.0
 10
-7.003360915677177
 20
-29.1710976119303
 30
0.0
 10
-7.019217580077086
 20
-29.310722893137772
 30
0.0
 10
-7.0266668088954525
 20
-29.451048093825918
 30
0.0
 10
-7.025681752122709
 20
-29.591567425667883
 30
0.0
 10
-7.016265960298704
 20
-29.731774400610234
 30
0.0
 10
-6.998453371715133
 20
-29.87116365645913
 30
0.0
 10
-6.9723081900883095
 20
-30.00923277840846
 30
0.0
 10
-6.937924653143213
 20
-30.145484109944352
 30
0.0
 10
-6.895426692942923
 20
-30.279426546598952
 30
0.0
 10
-6.844967489187729
 20
-30.410577306087987
 30
0.0
 10
-6.786728917094035
 20
-30.538463668451783
 30
0.0
 10
-6.7209208918431
 20
-30.66262467992773
 30
0.0
 10
-6.6477806119625065
 20
-30.782612814412545
 30
0.0
 10
-6.567571704367486
 20
-30.897995586525937
 30
0.0
 10
-6.447366819773398
 20
-30.825212080991513
 30
0.0
 10
-6.331746278288493
 20
-30.74534629767416
 30
0.0
 10
-6.2211268227354495
 20
-30.65868610490201
 30
0.0
 10
-6.115907170016636
 20
-30.56554386078104
 30
0.0
 10
-6.016466573978406
 20
-30.466255287331126
 30
0.0
 10
-5.9231634584280695
 20
-30.361178260409165
 30
0.0
 10
-5.836334125230675
 20
-30.250691519780915
 30
0.0
 10
-5.756291542142156
 20
-30.13519330399091
 30
0.0
 10
-5.683324214747963
 20
-30.015099914950937
 30
0.0
 10
-5.617695146573172
 20
-29.89084421742094
 30
0.0
 10
-5.559640891112256
 20
-29.762874078790723
 30
0.0
 10
-5.509370699195378
 20
-29.631650754786193
 30
0.0
 10
-5.46706576476444
 20
-29.49764722691864
 30
0.0
 10
-5.179429721914769
 20
-27.94570201777011
 30
0.0
 10
-4.936679410374058
 20
-27.997300189335526
 30
0.0
 10
-3.7086364247097237
 20
-28.169890375591212
 30
0.0
 10
-3.915785766601545
 20
-29.74334584121432
 30
0.0
 10
-3.9169607504568313
 20
-29.88386371328437
 30
0.0
 10
-3.909701194034646
 20
-30.024198854281597
 30
0.0
 10
-3.894033263689134
 20
-30.163845440050267
 30
0.0
 10
-3.870013432927802
 20
-30.302300128263973
 30
0.0
 10
-3.837728278858347
 20
-30.439063872673334
 30
0.0
 10
-3.7972941701300122
 20
-30.573643721868905
 30
0.0
 10
-3.7488568474942925
 20
-30.705554596075853
 30
0.0
 10
-3.6925908984967832
 20
-30.834321035576085
 30
0.0
 10
-3.6286991281936194
 20
-30.959478914455868
 30
0.0
 10
-3.5574118281606784
 20
-31.080577113501807
 30
0.0
 10
-3.478985946430338
 20
-31.19717914621555
 30
0.0
 10
-3.393704161347674
 20
-31.308864732086207
 30
0.0
 10
-3.3018738626842805
 20
-31.41523131144998
 30
0.0
 10
-3.18993542100999
 20
-31.330281689710446
 30
0.0
 10
-3.083296508546746
 20
-31.23876778198701
 30
0.0
 10
-2.9823414947224784
 20
-31.14101944112181
 30
0.0
 10
-2.887434261913838
 20
-31.037388991355517
 30
0.0
 10
-2.7989168938681046
 20
-30.9282499584094
 30
0.0
 10
-2.7171084426961043
 20
-30.813995723148746
 30
0.0
 10
-2.6423037788803905
 20
-30.695038103680403
 30
0.0
 10
-2.57477252844371
 20
-30.571805870995053
 30
0.0
 10
-2.514758101108632
 20
-30.444743203504558
 30
0.0
 10
-2.4624768129512464
 20
-30.31430808604472
 30
0.0
 10
-2.418117106711228
 20
-30.180970659114177
 30
0.0
 10
-2.3818388725685944
 20
-30.045211524299425
 30
0.0
 10
-2.3537728718353454
 20
-29.907520011993842
 30
0.0
 10
-2.2292557173162724
 20
-28.325379553508597
 30
0.0
 10
-0.9921648998477692
 20
-28.41188537045876
 30
0.0
 10
-0.7439914019435678
 20
-28.41188537045874
 30
0.0
 10
-0.7853084492362001
 20
-29.989719749266726
 30
0.0
 10
-0.7717888791778631
 20
-30.129590668987706
 30
0.0
 10
-0.7499000747344498
 20
-30.268398209122225
 30
0.0
 10
-0.7197209319397591
 20
-30.40564205160099
 30
0.0
 10
-0.6813602285333936
 20
-30.540827514548475
 30
0.0
 10
-0.6349562318821412
 20
-30.673467335314896
 30
0.0
 10
-0.5806762006089053
 20
-30.803083426766282
 30
0.0
 10
-0.51871578172552
 20
-30.92920860050235
 30
0.0
 10
-0.44929830544241617
 20
-31.05138825079094
 30
0.0
 10
-0.3726739801969369
 20
-31.169181993149493
 30
0.0
 10
-0.28911899080173664
 20
-31.282165251667404
 30
0.0
 10
-0.19893450296389847
 20
-31.389930789347986
 30
0.0
 10
-0.10244557776289033
 20
-31.492090175953972
 30
0.0
 10
-5.580627410022582e-15
 20
-31.58827518806598
 30
0.0
 10
0.10244557776287898
 20
-31.492090175953972
 30
0.0
 10
0.19893450296388715
 20
-31.389930789347986
 30
0.0
 10
0.2891189908017253
 20
-31.282165251667404
 30
0.0
 10
0.37267398019692616
 20
-31.169181993149493
 30
0.0
 10
0.44929830544240473
 20
-31.05138825079094
 30
0.0
 10
0.5187157817255087
 20
-30.92920860050235
 30
0.0
 10
0.580676200608894
 20
-30.803083426766282
 30
0.0
 10
0.6349562318821299
 20
-30.673467335314896
 30
0.0
 10
0.6813602285333823
 20
-30.540827514548475
 30
0.0
 10
0.719720931939748
 20
-30.40564205160099
 30
0.0
 10
0.7499000747344386
 20
-30.268398209122225
 30
0.0
 10
0.771788879177852
 20
-30.129590668987706
 30
0.0
 10
0.7853084492361887
 20
-29.989719749266726
 30
0.0
 10
0.743991401943557
 20
-28.411885370458762
 30
0.0
 10
0.9921648998477588
 20
-28.411885370458766
 30
0.0
 10
2.229255717316287
 20
-28.325379553508597
 30
0.0
 10
2.3537728718353605
 20
-29.907520011993842
 30
0.0
 10
2.3818388725686104
 20
-30.04521152429942
 30
0.0
 10
2.4181171067112435
 20
-30.180970659114173
 30
0.0
 10
2.462476812951262
 20
-30.314308086044715
 30
0.0
 10
2.514758101108648
 20
-30.444743203504554
 30
0.0
 10
2.5747725284437255
 20
-30.57180587099505
 30
0.0
 10
2.6423037788804065
 20
-30.6950381036804
 30
0.0
 10
2.71710844269612
 20
-30.813995723148743
 30
0.0
 10
2.7989168938681206
 20
-30.928249958409396
 30
0.0
 10
2.8874342619138553
 20
-31.037388991355513
 30
0.0
 10
2.982341494722495
 20
-31.141019441121806
 30
0.0
 10
3.0832965085467623
 20
-31.238767781987008
 30
0.0
 10
3.189935421010006
 20
-31.330281689710443
 30
0.0
 10
3.301873862684297
 20
-31.415231311449975
 30
0.0
 10
3.39370416134769
 20
-31.308864732086203
 30
0.0
 10
3.4789859464303543
 20
-31.197179146215547
 30
0.0
 10
3.557411828160695
 20
-31.080577113501803
 30
0.0
 10
3.6286991281936367
 20
-30.959478914455865
 30
0.0
 10
3.6925908984967992
 20
-30.83432103557608
 30
0.0
 10
3.748856847494308
 20
-30.70555459607585
 30
0.0
 10
3.7972941701300273
 20
-30.5736437218689
 30
0.0
 10
3.8377282788583624
 20
-30.43906387267333
 30
0.0
 10
3.870013432927818
 20
-30.30230012826397
 30
0.0
 10
3.8940332636891495
 20
-30.163845440050263
 30
0.0
 10
3.9097011940346618
 20
-30.024198854281593
 30
0.0
 10
3.9169607504568464
 20
-29.883863713284367
 30
0.0
 10
3.915785766601559
 20
-29.743345841214314
 30
0.0
 10
3.708636424709738
 20
-28.16989037559121
 30
0.0
 10
4.936679410374057
 20
-27.99730018933553
 30
0.0
 10
5.179429721914769
 20
-27.945702017770117
 30
0.0
 10
5.467065764764427
 20
-29.497647226918637
 30
0.0
 10
5.509370699195367
 20
-29.631650754786193
 30
0.0
 10
5.559640891112245
 20
-29.762874078790723
 30
0.0
 10
5.617695146573161
 20
-29.89084421742094
 30
0.0
 10
5.683324214747952
 20
-30.015099914950937
 30
0.0
 10
5.7562915421421454
 20
-30.13519330399091
 30
0.0
 10
5.836334125230663
 20
-30.250691519780915
 30
0.0
 10
5.923163458428057
 20
-30.361178260409165
 30
0.0
 10
6.016466573978395
 20
-30.466255287331126
 30
0.0
 10
6.115907170016626
 20
-30.56554386078104
 30
0.0
 10
6.221126822735438
 20
-30.65868610490201
 30
0.0
 10
6.331746278288482
 20
-30.74534629767416
 30
0.0
 10
6.4473668197733875
 20
-30.825212080991513
 30
0.0
 10
6.5675717043674755
 20
-30.897995586525937
 30
0.0
 10
6.647780611962496
 20
-30.782612814412545
 30
0.0
 10
6.72092089184309
 20
-30.66262467992773
 30
0.0
 10
6.786728917094023
 20
-30.538463668451783
 30
0.0
 10
6.844967489187718
 20
-30.410577306087987
 30
0.0
 10
6.895426692942912
 20
-30.279426546598952
 30
0.0
 10
6.937924653143202
 20
-30.145484109944352
 30
0.0
 10
6.972308190088298
 20
-30.00923277840846
 30
0.0
 10
6.998453371715122
 20
-29.87116365645913
 30
0.0
 10
7.016265960298693
 20
-29.731774400610234
 30
0.0
 10
7.025681752122698
 20
-29.591567425667883
 30
0.0
 10
7.026666808895442
 20
-29.451048093825918
 30
0.0
 10
7.0192175800770755
 20
-29.310722893137772
 30
0.0
 10
7.003360915677165
 20
-29.1710976119303
 30
0.0
 10
6.634896531470121
 20
-27.636332997106184
 30
0.0
 10
6.8776468430108055
 20
-27.584734825540767
 30
0.0
 10
8.069718687339789
 20
-27.242913724686446
 30
0.0
 10
8.520460341117674
 20
-28.7645920460458
 30
0.0
 10
8.576540707531803
 20
-28.893439418781966
 30
0.0
 10
8.640252086480569
 20
-29.01868922177824
 30
0.0
 10
8.711364836590919
 20
-29.13989000448982
 30
0.0
 10
8.789622638978425
 20
-29.25660491066566
 30
0.0
 10
8.874743421123409
 20
-29.368413252953633
 30
0.0
 10
8.966420373573461
 20
-29.474912029226548
 30
0.0
 10
9.064323055807819
 20
-29.57571737516354
 30
0.0
 10
9.16809858727759
 20
-29.670465947851067
 30
0.0
 10
9.27737291932884
 20
-29.758816235416596
 30
0.0
 10
9.39175218342401
 20
-29.84044978797438
 30
0.0
 10
9.510824110802183
 20
-29.91507236544665
 30
0.0
 10
9.634159518461086
 20
-29.98241499812291
 30
0.0
 10
9.76131385610487
 20
-30.042234956134667
 30
0.0
 10
9.829022587055114
 20
-29.919100149068324
 30
0.0
 10
9.889220021521679
 20
-29.7921240810799
 30
0.0
 10
9.94168918379734
 20
-29.661764424865844
 30
0.0
 10
9.986240953968725
 20
-29.52849104893219
 30
0.0
 10
10.022714749580341
 20
-29.392784323999923
 30
0.0
 10
10.050979104438188
 20
-29.255133391556196
 30
0.0
 10
10.070932142466672
 20
-29.1160344007921
 30
0.0
 10
10.082501944910852
 20
-28.975988720281915
 30
0.0
 10
10.085646809560494
 20
-28.835501130849632
 30
0.0
 10
10.080355401061565
 20
-28.695078006136306
 30
0.0
 10
10.066646791773401
 20
-28.555225487426263
 30
0.0
 10
10.044570393024271
 20
-28.41644765931086
 30
0.0
 10
10.014205777013123
 20
-28.279244732765356
 30
0.0
 10
9.484443358963906
 20
-26.783241814129138
 30
0.0
 10
10.649767141546494
 20
-26.359098643986577
 30
0.0
 10
10.876484913264154
 20
-26.258157388548643
 30
0.0
 10
11.480502970952703
 20
-27.716385975338596
 30
0.0
 10
11.549744341120018
 20
-27.838665514164642
 30
0.0
 10
11.626198871900447
 20
-27.95656953310082
 30
0.0
 10
11.709590990488723
 20
-28.06967305875549
 30
0.0
 10
11.799620118229491
 20
-28.17756842064095
 30
0.0
 10
11.895961754023414
 20
-28.279866720581413
 30
0.0
 10
11.998268643959321
 20
-28.37619923445809
 30
0.0
 10
12.106172032956628
 20
-28.46621874123886
 30
0.0
 10
12.21928299390663
 20
-28.549600774502178
 30
0.0
 10
12.33719382952182
 20
-28.62604479194426
 30
0.0
 10
12.45947954184052
 20
-28.695275258654124
 30
0.0
 10
12.585699364090061
 20
-28.757042640251953
 30
0.0
 10
12.71539834938706
 20
-28.81112430231116
 30
0.0
 10
12.848109010548558
 20
-28.857325312822145
 30
0.0
 10
12.90257573382877
 20
-28.72778756151669
 30
0.0
 10
12.949170787192166
 20
-28.595214736396983
 30
0.0
 10
12.98772622337079
 20
-28.460084683117802
 30
0.0
 10
13.018103073102811
 20
-28.322884464610265
 30
0.0
 10
13.040191846033492
 20
-28.184108605511593
 30
0.0
 10
13.05391292536238
 20
-28.044257309699905
 30
0.0
 10
13.059216854814167
 20
-27.90383465735874
 30
0.0
 10
13.056084516898988
 20
-27.763346788069814
 30
0.0
 10
13.044527201819491
 20
-27.623300076482888
 30
0.0
 10
13.024586566776444
 20
-27.48419930713837
 30
0.0
 10
12.996334485819444
 20
-27.34654585502126
 30
0.0
 10
12.95987279078403
 20
-27.21083587840457
 30
0.0
 10
12.915332904248864
 20
-27.077558530495814
 30
0.0
 10
12.235824844805537
 20
-25.652940257941076
 30
0.0
 10
12.462542616523173
 20
-25.551999002503152
 30
0.0
 10
13.557496227920078
 20
-24.969801840091623
 30
0.0
 10
14.314762807788258
 20
-26.364513379858966
 30
0.0
 10
14.396406558767513
 20
-26.47888536455886
 30
0.0
 10
14.484766589541238
 20
-26.588151818330473
 30
0.0
 10
14.57952441510526
 20
-26.69191890103273
 30
0.0
 10
14.680338490235956
 20
-26.78981259446443
 30
0.0
 10
14.786845440556279
 20
-26.88148005047594
 30
0.0
 10
14.898661372282808
 20
-26.96659086277547
 30
0.0
 10
15.01538325593298
 20
-27.044838257845935
 30
0.0
 10
15.136590379005046
 20
-27.115940200679802
 30
0.0
 10
15.261845862394749
 20
-27.17964041134641
 30
0.0
 10
15.390698235082887
 20
-27.235709288727666
 30
0.0
 10
15.522683061418034
 20
-27.283944738092618
 30
0.0
 10
15.657324615128957
 20
-27.324172899527934
 30
0.0
 10
15.794137594032993
 20
-27.3562487745988
 30
0.0
 10
15.834765560825023
 20
-27.221727321765048
 30
0.0
 10
15.867247727929959
 20
-27.085010235128724
 30
0.0
 10
15.891467016584524
 20
-26.946590297925933
 30
0.0
 10
15.907336130754752
 20
-26.80696643114948
 30
0.0
 10
15.9147978717859
 20
-26.66664189523739
 30
0.0
 10
15.913825344569377
 20
-26.526122476120424
 30
0.0
 10
15.904422054483481
 20
-26.38591466216657
 30
0.0
 10
15.886621894758624
 20
-26.246523818593804
 30
0.0
 10
15.860489024312526
 20
-26.108452365931043
 30
0.0
 10
15.826117636495736
 20
-25.972197969092974
 30
0.0
 10
15.783631619580994
 20
-25.838251743596032
 30
0.0
 10
15.7331841102202
 20
-25.707096485381005
 30
0.0
 10
15.674956941478472
 20
-25.57920493062277
 30
0.0
 10
14.845734607022733
 20
-24.226037065136296
 30
0.0
 10
15.897408945380764
 20
-23.568878002906843
 30
0.0
 10
16.09818552273874
 20
-23.423005280828924
 30
0.0
 10
16.99218710774498
 20
-24.723785658660475
 30
0.0
 10
17.085338733515396
 20
-24.828997005835983
 30
0.0
 10
17.184636173294734
 20
-24.928428748310036
 30
0.0
 10
17.289721519268276
 20
-25.021722494187127
 30
0.0
 10
17.400216001685067
 20
-25.108541975374262
 30
0.0
 10
17.515721354096065
 20
-25.188574259626108
 30
0.0
 10
17.635821248866232
 20
-25.261530878478354
 30
0.0
 10
17.76008279778637
 20
-25.32714886700381
 30
0.0
 10
17.88805811237591
 20
-25.385191711643493
 30
0.0
 10
18.019285918252706
 20
-25.435450202696433
 30
0.0
 10
18.15329321775102
 20
-25.47774318839533
 30
0.0
 10
18.28959699479485
 20
-25.51191822785024
 30
0.0
 10
18.427705955881677
 20
-25.5378521405067
 30
0.0
 10
18.567122300901424
 20
-25.55545145013787
 30
0.0
 10
18.593466382699148
 20
-25.417420140963493
 30
0.0
 10
18.611479782125492
 20
-25.278056693821622
 30
0.0
 10
18.621097571661288
 20
-25.137863430493447
 30
0.0
 10
18.62228508493405
 20
-24.997345663750647
 30
0.0
 10
18.615038041669457
 20
-24.8570098760054
 30
0.0
 10
18.599382563119224
 20
-24.71736189374457
 30
0.0
 10
18.575375077909587
 20
-24.578905064328083
 30
0.0
 10
18.54310211864992
 20
-24.442138441723067
 30
0.0
 10
18.50268001003448
 20
-24.30755498771315
 30
0.0
 10
18.454254449561546
 20
-24.175639795066363
 30
0.0
 10
18.39799998238115
 20
-24.046868339066176
 30
0.0
 10
18.334119372164356
 20
-23.92170476370782
 30
0.0
 10
18.262842870261615
 20
-23.800600208737063
 30
0.0
 10
17.301988898421104
 20
-22.54839093303926
 30
0.0
 10
17.50276547577908
 20
-22.402518210961333
 30
0.0
 10
18.45274612725548
 20
-21.60538979668194
 30
0.0
 10
19.483441449905506
 20
-22.812178968000946
 30
0.0
 10
19.587080361761906
 20
-22.907076960115507
 30
0.0
 10
19.696227287017305
 20
-22.99558459631403
 30
0.0
 10
19.81048881635936
 20
-23.077382859563155
 30
0.0
 10
19.92945310539043
 20
-23.15217691610169
 30
0.0
 10
20.05269135908004
 20
-23.219697178139782
 30
0.0
 10
20.179759377314227
 20
-23.279700275561442
 30
0.0
 10
20.31019915597096
 20
-23.331969933128153
 30
0.0
 10
20.443540537750764
 20
-23.376317750021542
 30
0.0
 10
20.5793029068123
 20
-23.412583878915573
 30
0.0
 10
20.71699692110465
 20
-23.440637602130412
 30
0.0
 10
20.856126276152462
 20
-23.46037780279143
 30
0.0
 10
20.99618949393638
 20
-23.47173332929495
 30
0.0
 10
21.13668173042105
 20
-23.474663251767204
 30
0.0
 10
21.148453295951438
 20
-23.334634386160424
 30
0.0
 10
21.15180056912553
 20
-23.194151473603576
 30
0.0
 10
21.146711485027755
 20
-23.053720870880365
 30
0.0
 10
21.13320438675913
 20
-22.91384874622889
 30
0.0
 10
21.111327959321343
 20
-22.775039254908165
 30
0.0
 10
21.081161054136512
 20
-22.637792722020347
 30
0.0
 10
21.042812404834983
 20
-22.502603839138263
 30
0.0
 10
20.99642023533571
 20
-22.369959881238522
 30
0.0
 10
20.94215176163179
 20
-22.24033895036698
 30
0.0
 10
20.88020258907695
 20
-22.11420825236714
 30
0.0
 10
20.810796007345335
 20
-21.992022412882807
 30
0.0
 10
20.734182185605952
 20
-21.8742218387049
 30
0.0
 10
20.65063727081261
 20
-21.76123113036864
 30
0.0
 10
19.558196015016296
 20
-20.610038246973506
 30
0.0
 10
20.450257694070196
 20
-19.748584297075606
 30
0.0
 10
20.616318177205038
 20
-19.564155446287476
 30
0.0
 10
21.761231130368632
 20
-20.650637270812616
 30
0.0
 10
21.87422183870489
 20
-20.73418218560596
 30
0.0
 10
21.992022412882797
 20
-20.810796007345346
 30
0.0
 10
22.114208252367128
 20
-20.88020258907696
 30
0.0
 10
22.240338950366972
 20
-20.9421517616318
 30
0.0
 10
22.36995988123851
 20
-20.99642023533572
 30
0.0
 10
22.502603839138253
 20
-21.042812404834994
 30
0.0
 10
22.637792722020336
 20
-21.081161054136523
 30
0.0
 10
22.775039254908155
 20
-21.111327959321354
 30
0.0
 10
22.91384874622888
 20
-21.13320438675914
 30
0.0
 10
23.053720870880355
 20
-21.146711485027765
 30
0.0
 10
23.19415147360357
 20
-21.15180056912554
 30
0.0
 10
23.334634386160413
 20
-21.148453295951448
 30
0.0
 10
23.474663251767193
 20
-21.13668173042106
 30
0.0
 10
23.47173332929494
 20
-20.99618949393639
 30
0.0
 10
23.460377802791424
 20
-20.856126276152473
 30
0.0
 10
23.4406376021304
 20
-20.71699692110466
 30
0.0
 10
23.412583878915562
 20
-20.57930290681231
 30
0.0
 10
23.37631775002153
 20
-20.443540537750774
 30
0.0
 10
23.331969933128143
 20
-20.31019915597097
 30
0.0
 10
23.27970027556143
 20
-20.179759377314237
 30
0.0
 10
23.21969717813977
 20
-20.05269135908005
 30
0.0
 10
23.152176916101684
 20
-19.929453105390436
 30
0.0
 10
23.077382859563144
 20
-19.810488816359367
 30
0.0
 10
22.995584596314018
 20
-19.696227287017315
 30
0.0
 10
22.907076960115496
 20
-19.587080361761913
 30
0.0
 10
22.81217896800093
 20
-19.483441449905506
 30
0.0
 10
21.61197301302158
 20
-18.458368725179408
 30
0.0
 10
21.778033496156397
 20
-18.273939874391296
 30
0.0
 10
22.541522474729884
 20
-17.29671854499453
 30
0.0
 10
23.800600208737052
 20
-18.262842870261625
 30
0.0
 10
23.92170476370781
 20
-18.33411937216437
 30
0.0
 10
24.046868339066172
 20
-18.397999982381165
 30
0.0
 10
24.175639795066356
 20
-18.45425444956156
 30
0.0
 10
24.307554987713143
 20
-18.502680010034496
 30
0.0
 10
24.442138441723063
 20
-18.543102118649934
 30
0.0
 10
24.578905064328076
 20
-18.5753750779096
 30
0.0
 10
24.717361893744563
 20
-18.59938256311924
 30
0.0
 10
24.857009876005392
 20
-18.615038041669468
 30
0.0
 10
24.99734566375064
 20
-18.622285084934063
 30
0.0
 10
25.13786343049344
 20
-18.621097571661302
 30
0.0
 10
25.278056693821615
 20
-18.611479782125507
 30
0.0
 10
25.417420140963486
 20
-18.593466382699162
 30
0.0
 10
25.555451450137863
 20
-18.56712230090144
 30
0.0
 10
25.537852140506697
 20
-18.42770595588169
 30
0.0
 10
25.511918227850234
 20
-18.289596994794863
 30
0.0
 10
25.477743188395323
 20
-18.153293217751035
 30
0.0
 10
25.435450202696426
 20
-18.01928591825272
 30
0.0
 10
25.385191711643486
 20
-17.88805811237592
 30
0.0
 10
25.327148867003803
 20
-17.760082797786385
 30
0.0
 10
25.261530878478347
 20
-17.635821248866247
 30
0.0
 10
25.188574259626105
 20
-17.51572135409608
 30
0.0
 10
25.108541975374255
 20
-17.40021600168508
 30
0.0
 10
25.02172249418712
 20
-17.28972151926829
 30
0.0
 10
24.928428748310033
 20
-17.18463617329475
 30
0.0
 10
24.828997005835976
 20
-17.08533873351541
 30
0.0
 10
24.723785658660475
 20
-16.992187107745
 30
0.0
 10
23.415870406516625
 20
-16.093281859481902
 30
0.0
 10
24.109332050304843
 20
-15.065182693240798
 30
0.0
 10
24.233418799256945
 20
-14.850258139509716
 30
0.0
 10
25.57920493062276
 20
-15.67495694147848
 30
0.0
 10
25.707096485380998
 20
-15.733184110220211
 30
0.0
 10
25.83825174359602
 20
-15.783631619581005
 30
0.0
 10
25.972197969092967
 20
-15.826117636495745
 30
0.0
 10
26.108452365931036
 20
-15.860489024312535
 30
0.0
 10
26.246523818593797
 20
-15.886621894758635
 30
0.0
 10
26.385914662166563
 20
-15.904422054483492
 30
0.0
 10
26.526122476120413
 20
-15.913825344569387
 30
0.0
 10
26.666641895237383
 20
-15.914797871785911
 30
0.0
 10
26.806966431149473
 20
-15.907336130754762
 30
0.0
 10
26.946590297925926
 20
-15.891467016584535
 30
0.0
 10
27.085010235128717
 20
-15.86724772792997
 30
0.0
 10
27.22172732176504
 20
-15.834765560825032
 30
0.0
 10
27.356248774598797
 20
-15.794137594033003
 30
0.0
 10
27.324172899527927
 20
-15.657324615128967
 30
0.0
 10
27.28394473809261
 20
-15.522683061418045
 30
0.0
 10
27.23570928872766
 20
-15.390698235082898
 30
0.0
 10
27.1796404113464
 20
-15.26184586239476
 30
0.0
 10
27.115940200679795
 20
-15.136590379005057
 30
0.0
 10
27.04483825784593
 20
-15.01538325593299
 30
0.0
 10
26.966590862775462
 20
-14.898661372282819
 30
0.0
 10
26.881480050475933
 20
-14.78684544055629
 30
0.0
 10
26.789812594464422
 20
-14.680338490235968
 30
0.0
 10
26.69191890103272
 20
-14.579524415105272
 30
0.0
 10
26.58815181833047
 20
-14.484766589541248
 30
0.0
 10
26.478885364558852
 20
-14.396406558767524
 30
0.0
 10
26.36451337985896
 20
-14.314762807788266
 30
0.0
 10
24.97741020120051
 20
-13.561627230949055
 30
0.0
 10
25.101496950152605
 20
-13.34670267721798
 30
0.0
 10
25.645126123832906
 20
-12.232097694026699
 30
0.0
 10
27.07755853049583
 20
-12.915332904248855
 30
0.0
 10
27.210835878404577
 20
-12.959872790784017
 30
0.0
 10
27.34654585502127
 20
-12.996334485819434
 30
0.0
 10
27.484199307138375
 20
-13.024586566776431
 30
0.0
 10
27.623300076482895
 20
-13.044527201819482
 30
0.0
 10
27.76334678806982
 20
-13.056084516898977
 30
0.0
 10
27.903834657358747
 20
-13.059216854814157
 30
0.0
 10
28.044257309699912
 20
-13.053912925362368
 30
0.0
 10
28.1841086055116
 20
-13.04019184603348
 30
0.0
 10
28.322884464610276
 20
-13.018103073102798
 30
0.0
 10
28.460084683117813
 20
-12.987726223370778
 30
0.0
 10
28.59521473639699
 20
-12.949170787192154
 30
0.0
 10
28.727787561516696
 20
-12.902575733828758
 30
0.0
 10
28.85732531282215
 20
-12.848109010548546
 30
0.0
 10
28.811124302311168
 20
-12.715398349387048
 30
0.0
 10
28.75704264025196
 20
-12.585699364090049
 30
0.0
 10
28.69527525865413
 20
-12.459479541840508
 30
0.0
 10
28.626044791944267
 20
-12.337193829521807
 30
0.0
 10
28.549600774502185
 20
-12.219282993906617
 30
0.0
 10
28.466218741238865
 20
-12.106172032956618
 30
0.0
 10
28.376199234458095
 20
-11.998268643959307
 30
0.0
 10
28.27986672058142
 20
-11.895961754023404
 30
0.0
 10
28.177568420640956
 20
-11.799620118229479
 30
0.0
 10
28.069673058755498
 20
-11.70959099048871
 30
0.0
 10
27.956569533100826
 20
-11.626198871900437
 30
0.0
 10
27.83866551416465
 20
-11.549744341120006
 30
0.0
 10
27.716385975338603
 20
-11.480502970952692
 30
0.0
 10
26.250158899439615
 20
-10.873171830596688
 30
0.0
 10
26.714712906530476
 20
-9.723360314944234
 30
0.0
 10
26.79140273493636
 20
-9.487333292590707
 30
0.0
 10
28.27924473276535
 20
-10.014205777013135
 30
0.0
 10
28.41644765931086
 20
-10.044570393024284
 30
0.0
 10
28.55522548742626
 20
-10.066646791773415
 30
0.0
 10
28.695078006136303
 20
-10.080355401061578
 30
0.0
 10
28.835501130849632
 20
-10.085646809560508
 30
0.0
 10
28.97598872028191
 20
-10.082501944910867
 30
0.0
 10
29.116034400792092
 20
-10.070932142466685
 30
0.0
 10
29.255133391556193
 20
-10.050979104438202
 30
0.0
 10
29.39278432399992
 20
-10.022714749580356
 30
0.0
 10
29.528491048932185
 20
-9.98624095396874
 30
0.0
 10
29.66176442486584
 20
-9.941689183797354
 30
0.0
 10
29.792124081079898
 20
-9.889220021521691
 30
0.0
 10
29.91910014906832
 20
-9.829022587055128
 30
0.0
 10
30.042234956134664
 20
-9.761313856104884
 30
0.0
 10
29.982414998122906
 20
-9.6341595184611
 30
0.0
 10
29.915072365446647
 20
-9.510824110802195
 30
0.0
 10
29.840449787974375
 20
-9.391752183424025
 30
0.0
 10
29.758816235416592
 20
-9.277372919328855
 30
0.0
 10
29.670465947851064
 20
-9.168098587277605
 30
0.0
 10
29.575717375163535
 20
-9.064323055807833
 30
0.0
 10
29.474912029226548
 20
-8.966420373573474
 30
0.0
 10
29.36841325295363
 20
-8.874743421123423
 30
0.0
 10
29.25660491066566
 20
-8.78962263897844
 30
0.0
 10
29.139890004489818
 20
-8.711364836590931
 30
0.0
 10
29.018689221778235
 20
-8.640252086480583
 30
0.0
 10
28.893439418781966
 20
-8.576540707531816
 30
0.0
 10
28.764592046045795
 20
-8.520460341117689
 30
0.0
 10
27.251214708675153
 20
-8.072177550818722
 30
0.0
 10
27.327904537081018
 20
-7.836150528465191
 30
0.0
 10
27.627914702356097
 20
-6.63287547771296
 30
0.0
 10
29.171097611930293
 20
-7.003360915677177
 30
0.0
 10
29.310722893137772
 20
-7.019217580077089
 30
0.0
 10
29.451048093825918
 20
-7.026666808895455
 30
0.0
 10
29.591567425667883
 20
-7.025681752122711
 30
0.0
 10
29.731774400610234
 20
-7.016265960298707
 30
0.0
 10
29.87116365645913
 20
-6.9984533717151365
 30
0.0
 10
30.00923277840846
 20
-6.972308190088312
 30
0.0
 10
30.145484109944352
 20
-6.937924653143217
 30
0.0
 10
30.279426546598952
 20
-6.895426692942925
 30
0.0
 10
30.410577306087987
 20
-6.844967489187732
 30
0.0
 10
30.538463668451783
 20
-6.786728917094037
 30
0.0
 10
30.66262467992773
 20
-6.720920891843103
 30
0.0
 10
30.782612814412545
 20
-6.647780611962509
 30
0.0
 10
30.897995586525937
 20
-6.567571704367489
 30
0.0
 10
30.825212080991513
 20
-6.447366819773401
 30
0.0
 10
30.74534629767416
 20
-6.331746278288495
 30
0.0
 10
30.65868610490201
 20
-6.221126822735452
 30
0.0
 10
30.56554386078104
 20
-6.115907170016639
 30
0.0
 10
30.466255287331126
 20
-6.016466573978409
 30
0.0
 10
30.361178260409165
 20
-5.923163458428071
 30
0.0
 10
30.250691519780915
 20
-5.836334125230677
 30
0.0
 10
30.13519330399091
 20
-5.756291542142158
 30
0.0
 10
30.015099914950937
 20
-5.683324214747966
 30
0.0
 10
29.89084421742094
 20
-5.617695146573174
 30
0.0
 10
29.762874078790723
 20
-5.559640891112259
 30
0.0
 10
29.631650754786193
 20
-5.50937069919538
 30
0.0
 10
29.49764722691864
 20
-5.467065764764443
 30
0.0
 10
27.937189486219403
 20
-5.177852017447224
 30
0.0
 10
28.152532617325573
 20
-3.9565804330252496
 30
0.0
 10
28.178473811685258
 20
-3.7097664555093637
 30
0.0
 10
29.74334584121432
 20
-3.9157857666015192
 30
0.0
 10
29.883863713284374
 20
-3.9169607504568065
 30
0.0
 10
30.024198854281597
 20
-3.9097011940346214
 30
0.0
 10
30.163845440050267
 20
-3.8940332636891086
 30
0.0
 10
30.302300128263973
 20
-3.870013432927777
 30
0.0
 10
30.439063872673334
 20
-3.837728278858321
 30
0.0
 10
30.57364372186891
 20
-3.7972941701299865
 30
0.0
 10
30.705554596075853
 20
-3.7488568474942667
 30
0.0
 10
30.834321035576085
 20
-3.6925908984967575
 30
0.0
 10
30.959478914455868
 20
-3.6286991281935936
 30
0.0
 10
31.080577113501807
 20
-3.5574118281606526
 30
0.0
 10
31.19717914621555
 20
-3.4789859464303117
 30
0.0
 10
31.308864732086207
 20
-3.3937041613476477
 30
0.0
 10
31.41523131144998
 20
-3.3018738626842543
 30
0.0
 10
31.330281689710446
 20
-3.189935421009964
 30
0.0
 10
31.23876778198701
 20
-3.0832965085467197
 30
0.0
 10
31.14101944112181
 20
-2.9823414947224527
 30
0.0
 10
31.037388991355517
 20
-2.8874342619138123
 30
0.0
 10
30.9282499584094
 20
-2.798916893868079
 30
0.0
 10
30.813995723148746
 20
-2.7171084426960785
 30
0.0
 10
30.6950381036804
 20
-2.6423037788803647
 30
0.0
 10
30.571805870995053
 20
-2.574772528443684
 30
0.0
 10
30.444743203504558
 20
-2.514758101108607
 30
0.0
 10
30.31430808604472
 20
-2.462476812951221
 30
0.0
 10
30.180970659114177
 20
-2.418117106711203
 30
0.0
 10
30.04521152429942
 20
-2.3818388725685695
 30
0.0
 10
29.907520011993846
 20
-2.353772871835321
 30
0.0
 10
28.334010367544273
 20
-2.2299349771121433
 30
0.0
 10
28.359951561903955
 20
-1.983120999596307
 30
0.0
 10
28.403230834942804
 20
-0.743764774955324
 30
0.0
 10
29.989719749266726
 20
-0.7853084492361947
 30
0.0
 10
30.129590668987706
 20
-0.7717888791778575
 30
0.0
 10
30.268398209122225
 20
-0.7499000747344442
 30
0.0
 10
30.40564205160099
 20
-0.7197209319397535
 30
0.0
 10
30.540827514548475
 20
-0.681360228533388
 30
0.0
 10
30.673467335314896
 20
-0.6349562318821356
 30
0.0
 10
30.803083426766282
 20
-0.5806762006088997
 30
0.0
 10
30.92920860050235
 20
-0.5187157817255144
 30
0.0
 10
31.05138825079094
 20
-0.44929830544241045
 30
0.0
 10
31.169181993149493
 20
-0.3726739801969312
 30
0.0
 10
31.282165251667404
 20
-0.28911899080173087
 30
0.0
 10
31.389930789347986
 20
-0.1989345029638927
 30
0.0
 10
31.492090175953972
 20
-0.10244557776288454
 30
0.0
 10
31.58827518806598
 20
2.220446049250313e-16
 30
0.0
 10
31.492090175953972
 20
0.10244557776288477
 30
0.0
 10
31.389930789347986
 20
0.19893450296389292
 30
0.0
 10
31.282165251667404
 20
0.2891189908017311
 30
0.0
 10
31.169181993149493
 20
0.3726739801969319
 30
0.0
 10
31.05138825079094
 20
0.44929830544241045
 30
0.0
 10
30.92920860050235
 20
0.5187157817255144
 30
0.0
 10
30.803083426766282
 20
0.5806762006088997
 30
0.0
 10
30.673467335314896
 20
0.6349562318821356
 30
0.0
 10
30.540827514548475
 20
0.681360228533388
 30
0.0
 10
30.40564205160099
 20
0.7197209319397535
 30
0.0
 10
30.268398209122225
 20
0.7499000747344442
 30
0.0
 10
30.129590668987706
 20
0.7717888791778575
 30
0.0
 10
29.98971974926672
 20
0.7853084492361941
 30
0.0
 10
28.403230834942804
 20
0.7437647749553238
 30
0.0
  0
ENDSEC
  0
EOF
