999
DXF generated by OpenJsCad
  0
SECTION
  2
HEADER
  0
ENDSEC
  0
SECTION
  2
TABLES
  0
TABLE
  2
LTYPE
  70
1
  0
LTYPE
  2
CONTINUOUS
  3
Solid Line
  72
65
  73
0
  40
0.0
  0
ENDTAB
  0
TABLE
  2
LAYER
  70
1
  0
LAYER
  2
OpenJsCad
  62
7
  6
continuous
  0
ENDTAB
  0
TABLE
  2
STYLE
  70
0
  0
ENDTAB
  0
TABLE
  2
VIEW
  70
0
  0
ENDTAB
  0
ENDSEC
  0
SECTION
  2
BLOCKS
  0
ENDSEC
  0
SECTION
  2
ENTITIES
  0
LWPOLYLINE
  8
OpenJsCad
  90
1201
  70
1
 10
18.40395269976964
 20
0.7230932709380397
 30
0.0
 10
18.38431105930571
 20
1.2855562621550694
 30
0.0
 10
18.291879208861907
 20
2.1649865744556043
 30
0.0
 10
19.86136913909852
 20
2.350747949156752
 30
0.0
 10
19.995291697811272
 20
2.386092532488422
 30
0.0
 10
20.12683251953512
 20
2.4294688338899135
 30
0.0
 10
20.255510398480954
 20
2.480718173135034
 30
0.0
 10
20.380854602145575
 20
2.5396530686617065
 30
0.0
 10
20.502406593356685
 20
2.606057923421523
 30
0.0
 10
20.619721707704535
 20
2.6796898135820397
 30
0.0
 10
20.732370780223928
 20
2.760279377196559
 30
0.0
 10
20.83994171537582
 20
2.8475317995904748
 30
0.0
 10
20.942040994585074
 20
2.941127891859379
 30
0.0
 10
21.03829511581957
 20
3.0407252585335702
 30
0.0
 10
21.12835195994429
 20
3.1459595501373725
 30
0.0
 10
21.21188207885199
 20
3.2564457960611284
 30
0.0
 10
21.28857990065815
 20
3.3717798128699132
 30
0.0
 10
21.179995766220316
 20
3.457768050736759
 30
0.0
 10
21.06641177469111
 20
3.5370344885988962
 30
0.0
 10
20.948243441752734
 20
3.6092891520720825
 30
0.0
 10
20.82592305363508
 20
3.6742677174133234
 30
0.0
 10
20.699898085715905
 20
3.7317324784763355
 30
0.0
 10
20.570629565555638
 20
3.781473216293867
 30
0.0
 10
20.438590386355312
 20
3.823307968105769
 30
0.0
 10
20.30426357700733
 20
3.8570836930195322
 30
0.0
 10
20.16814053506757
 20
3.8826768318681415
 30
0.0
 10
20.03071922911305
 20
3.8999937592171943
 30
0.0
 10
19.892502377061348
 20
3.908971125867703
 30
0.0
 10
19.753995607115872
 20
3.909576090601661
 30
0.0
 10
19.615705608064605
 20
3.9018064403225647
 30
0.0
 10
18.0683806200439
 20
3.5940243638496656
 30
0.0
 10
18.02648135638021
 20
3.8316468961209336
 30
0.0
 10
17.734750155017018
 20
5.0017168362659294
 30
0.0
 10
19.249104729072947
 20
5.428808997301484
 30
0.0
 10
19.37584936787063
 20
5.484668533990414
 30
0.0
 10
19.498985155294413
 20
5.548088319220131
 30
0.0
 10
19.618061633053248
 20
5.6188363492111435
 30
0.0
 10
19.73264319272006
 20
5.6966538118232
 30
0.0
 10
19.84231066928497
 20
5.78125603334807
 30
0.0
 10
19.946662874554768
 20
5.872333519909732
 30
0.0
 10
20.045318064789164
 20
5.969553089662293
 30
0.0
 10
20.137915337204948
 20
6.072559091643809
 30
0.0
 10
20.224115950239153
 20
6.180974706827166
 30
0.0
 10
20.303604562741604
 20
6.294403326608478
 30
0.0
 10
20.376090387563455
 20
6.412430003690205
 30
0.0
 10
20.44130825532173
 20
6.5346229700512986
 30
0.0
 10
20.49901958444829
 20
6.660535216451336
 30
0.0
 10
20.378320776899976
 20
6.728478495438102
 30
0.0
 10
20.253735189985715
 20
6.789000580963039
 30
0.0
 10
20.125718585687828
 20
6.841880069681219
 30
0.0
 10
19.994739277418713
 20
6.886923516578664
 30
0.0
 10
19.861276416825508
 20
6.923966142637538
 30
0.0
 10
19.725818240946033
 20
6.952872437634699
 30
0.0
 10
19.588860286128334
 20
6.973536655868453
 30
0.0
 10
19.450903575247757
 20
6.9858832030000135
 30
0.0
 10
19.31245278485303
 20
6.989866912594522
 30
0.0
 10
19.1740143989464
 20
6.985473211349989
 30
0.0
 10
19.036094856151735
 20
6.972718172409691
 30
0.0
 10
18.899198697048565
 20
6.951648456563021
 30
0.0
 10
18.763826718449682
 20
6.922341141549858
 30
0.0
 10
17.28764965890258
 20
6.377750672620219
 30
0.0
 10
16.835915303626855
 20
7.495832436599649
 30
0.0
 10
16.730141499901137
 20
7.712700872716946
 30
0.0
 10
18.162863476501627
 20
8.37319475074856
 30
0.0
 10
18.279309321735717
 20
8.448193793614298
 30
0.0
 10
18.391008063108814
 20
8.530095457081684
 30
0.0
 10
18.49755108160605
 20
8.618600126520958
 30
0.0
 10
18.598548619001665
 20
8.713384032027538
 30
0.0
 10
18.69363120368186
 20
8.814100432844842
 30
0.0
 10
18.782451002254746
 20
8.920380885819656
 30
0.0
 10
18.86468309200277
 20
9.031836593249697
 30
0.0
 10
18.94002664952284
 20
9.148059825192707
 30
0.0
 10
19.00820605120566
 20
9.268625411033904
 30
0.0
 10
19.068971881528675
 20
9.393092294855316
 30
0.0
 10
19.122101845473885
 20
9.52100514891713
 30
0.0
 10
19.16740158173283
 20
9.651896039348546
 30
0.0
 10
19.204705373723783
 20
9.785286137954682
 30
0.0
 10
19.0748638982832
 20
9.833511469041898
 30
0.0
 10
18.942344426609573
 20
9.873798947622724
 30
0.0
 10
18.807631744612735
 20
9.906001193076696
 30
0.0
 10
18.671218661457143
 20
9.9300004023771
 30
0.0
 10
18.53360420675556
 20
9.945708781040839
 30
0.0
 10
18.395291805006934
 20
9.953068864300306
 30
0.0
 10
18.25678743395687
 20
9.952053727322387
 30
0.0
 10
18.11859777361765
 20
9.942667083705526
 30
0.0
 10
17.981228352719302
 20
9.924943271894541
 30
0.0
 10
17.84518169937225
 20
9.898947129562922
 30
0.0
 10
17.710955502706938
 20
9.864773756422077
 30
0.0
 10
17.57904079221551
 20
9.822548166325303
 30
0.0
 10
17.449920141455944
 20
9.7724248299391
 30
0.0
 10
16.070988318899257
 20
9.000185904356155
 30
0.0
 10
15.628851088740598
 20
9.765990050908725
 30
0.0
 10
15.31413405847564
 20
10.232577236105797
 30
0.0
 10
16.629392246050905
 20
11.111404660392044
 30
0.0
 10
16.73267201455013
 20
11.20369648409168
 30
0.0
 10
16.83018331615306
 20
11.30206333502613
 30
0.0
 10
16.921569432677305
 20
11.406145365221917
 30
0.0
 10
17.00649605323943
 20
11.515561819299702
 30
0.0
 10
17.084652497239073
 20
11.629912427362749
 30
0.0
 10
17.15575285089817
 20
11.748778869273872
 30
0.0
 10
17.219537013197574
 20
11.871726304964177
 30
0.0
 10
17.27577164738485
 20
11.998304965175452
 30
0.0
 10
17.324251034572395
 20
12.128051796816841
 30
0.0
 10
17.364797826303192
 20
12.260492156916765
 30
0.0
 10
17.397263693331187
 20
12.395141548973243
 30
0.0
 10
17.421529868242907
 20
12.5315073953506
 30
0.0
 10
17.43750757993524
 20
12.669090839238791
 30
0.0
 10
17.301720564646892
 20
12.696410754724395
 30
0.0
 10
17.16453027741341
 20
12.715471614931975
 30
0.0
 10
17.026438591034147
 20
12.726203690965534
 30
0.0
 10
16.887950675828435
 20
12.728567722487112
 30
0.0
 10
16.74957315160941
 20
12.722555061339895
 30
0.0
 10
16.61181223435524
 20
12.708187703185107
 30
0.0
 10
16.475171884357707
 20
12.685518207036958
 30
0.0
 10
16.34015196262259
 20
12.654629502990005
 30
0.0
 10
16.207246402266108
 20
12.615634588842275
 30
0.0
 10
16.076941401596994
 20
12.56867611672402
 30
0.0
 10
15.94971364549414
 20
12.513925871244279
 30
0.0
 10
15.82602856158657
 20
12.45158414106428
 30
0.0
 10
15.706338617614898
 20
12.381878986196678
 30
0.0
 10
14.464086937097028
 20
11.402566725519883
 30
0.0
 10
14.117589064966626
 20
11.846063777525897
 30
0.0
 10
13.525893959146849
 20
12.503207767012526
 30
0.0
 10
14.68645018871371
 20
13.576014910658834
 30
0.0
 10
14.774020789811722
 20
13.683326984193883
 30
0.0
 10
14.85494359977757
 20
13.79573690426453
 30
0.0
 10
14.928922584846854
 20
13.912833450204955
 30
0.0
 10
14.995687113321953
 20
14.034188256622155
 30
0.0
 10
15.054992945603413
 20
14.159357380452523
 30
0.0
 10
15.106623127673092
 20
14.287882925005
 30
0.0
 10
15.150388784760557
 20
14.419294715049732
 30
0.0
 10
15.186129812289305
 20
14.553112016824382
 30
0.0
 10
15.213715461575157
 20
14.688845296665905
 30
0.0
 10
15.233044818134234
 20
14.825998011834324
 30
0.0
 10
15.244047170850749
 20
14.964068426977324
 30
0.0
 10
15.246682270654095
 20
15.102551449590514
 30
0.0
 10
15.240940477758963
 20
15.240940477758963
 30
0.0
 10
15.102551449590514
 20
15.246682270654095
 30
0.0
 10
14.964068426977324
 20
15.244047170850749
 30
0.0
 10
14.825998011834324
 20
15.233044818134234
 30
0.0
 10
14.688845296665901
 20
15.213715461575154
 30
0.0
 10
14.553112016824382
 20
15.186129812289305
 30
0.0
 10
14.419294715049732
 20
15.150388784760557
 30
0.0
 10
14.287882925004997
 20
15.106623127673089
 30
0.0
 10
14.159357380452523
 20
15.054992945603413
 30
0.0
 10
14.034188256622155
 20
14.995687113321953
 30
0.0
 10
13.912833450204955
 20
14.928922584846854
 30
0.0
 10
13.79573690426453
 20
14.85494359977757
 30
0.0
 10
13.683326984193881
 20
14.774020789811724
 30
0.0
 10
13.576014910658834
 20
14.68645018871371
 30
0.0
 10
12.505112464999794
 20
13.527954449820927
 30
0.0
 10
12.331544228562628
 20
13.695567347411357
 30
0.0
 10
11.407778873902421
 20
14.470698515801088
 30
0.0
 10
12.381878986196678
 20
15.706338617614898
 30
0.0
 10
12.45158414106428
 20
15.82602856158657
 30
0.0
 10
12.513925871244279
 20
15.94971364549414
 30
0.0
 10
12.56867611672402
 20
16.076941401596994
 30
0.0
 10
12.615634588842273
 20
16.207246402266108
 30
0.0
 10
12.654629502990003
 20
16.34015196262259
 30
0.0
 10
12.685518207036958
 20
16.47517188435771
 30
0.0
 10
12.708187703185107
 20
16.61181223435524
 30
0.0
 10
12.722555061339895
 20
16.74957315160941
 30
0.0
 10
12.728567722487114
 20
16.88795067582844
 30
0.0
 10
12.726203690965534
 20
17.026438591034147
 30
0.0
 10
12.715471614931975
 20
17.16453027741341
 30
0.0
 10
12.696410754724395
 20
17.301720564646892
 30
0.0
 10
12.669090839238791
 20
17.43750757993524
 30
0.0
 10
12.5315073953506
 20
17.421529868242907
 30
0.0
 10
12.395141548973243
 20
17.397263693331187
 30
0.0
 10
12.260492156916765
 20
17.364797826303192
 30
0.0
 10
12.12805179681684
 20
17.3242510345724
 30
0.0
 10
11.998304965175452
 20
17.27577164738485
 30
0.0
 10
11.871726304964177
 20
17.219537013197574
 30
0.0
 10
11.748778869273869
 20
17.155752850898168
 30
0.0
 10
11.629912427362747
 20
17.084652497239073
 30
0.0
 10
11.5155618192997
 20
17.00649605323943
 30
0.0
 10
11.406145365221917
 20
16.921569432677305
 30
0.0
 10
11.30206333502613
 20
16.83018331615306
 30
0.0
 10
11.20369648409168
 20
16.732672014550133
 30
0.0
 10
11.111404660392042
 20
16.629392246050905
 30
0.0
 10
10.237254578687882
 20
15.321134196337951
 30
0.0
 10
9.214601836602553
 20
15.960158552513107
 30
0.0
 10
9.001556963391286
 20
16.073436520966663
 30
0.0
 10
9.7724248299391
 20
17.449920141455937
 30
0.0
 10
9.822548166325303
 20
17.579040792215505
 30
0.0
 10
9.864773756422078
 20
17.710955502706934
 30
0.0
 10
9.898947129562925
 20
17.84518169937225
 30
0.0
 10
9.924943271894545
 20
17.981228352719302
 30
0.0
 10
9.942667083705526
 20
18.118597773617648
 30
0.0
 10
9.952053727322392
 20
18.25678743395687
 30
0.0
 10
9.953068864300308
 20
18.395291805006934
 30
0.0
 10
9.94570878104084
 20
18.533604206755555
 30
0.0
 10
9.930000402377104
 20
18.671218661457146
 30
0.0
 10
9.906001193076698
 20
18.80763174461273
 30
0.0
 10
9.873798947622728
 20
18.94234442660957
 30
0.0
 10
9.8335114690419
 20
19.0748638982832
 30
0.0
 10
9.785286137954683
 20
19.20470537372378
 30
0.0
 10
9.651896039348548
 20
19.16740158173283
 30
0.0
 10
9.521005148917133
 20
19.122101845473882
 30
0.0
 10
9.393092294855318
 20
19.06897188152867
 30
0.0
 10
9.268625411033904
 20
19.008206051205658
 30
0.0
 10
9.148059825192709
 20
18.940026649522835
 30
0.0
 10
9.031836593249698
 20
18.86468309200277
 30
0.0
 10
8.920380885819657
 20
18.78245100225474
 30
0.0
 10
8.814100432844844
 20
18.693631203681857
 30
0.0
 10
8.713384032027541
 20
18.598548619001665
 30
0.0
 10
8.618600126520962
 20
18.49755108160605
 30
0.0
 10
8.530095457081686
 20
18.39100806310881
 30
0.0
 10
8.448193793614298
 20
18.279309321735713
 30
0.0
 10
8.373194750748564
 20
18.162863476501627
 30
0.0
 10
7.711526123919624
 20
16.727593272771575
 30
0.0
 10
6.903701207387375
 20
17.087260098318705
 30
0.0
 10
6.374836715116315
 20
17.27975103146568
 30
0.0
 10
6.922341141549861
 20
18.763826718449682
 30
0.0
 10
6.9516484565630225
 20
18.89919869704857
 30
0.0
 10
6.972718172409692
 20
19.036094856151735
 30
0.0
 10
6.98547321134999
 20
19.1740143989464
 30
0.0
 10
6.989866912594523
 20
19.31245278485303
 30
0.0
 10
6.9858832030000135
 20
19.450903575247757
 30
0.0
 10
6.973536655868455
 20
19.588860286128337
 30
0.0
 10
6.9528724376347
 20
19.725818240946033
 30
0.0
 10
6.923966142637539
 20
19.861276416825508
 30
0.0
 10
6.886923516578666
 20
19.994739277418716
 30
0.0
 10
6.8418800696812205
 20
20.125718585687828
 30
0.0
 10
6.78900058096304
 20
20.253735189985715
 30
0.0
 10
6.728478495438103
 20
20.378320776899976
 30
0.0
 10
6.660535216451338
 20
20.49901958444829
 30
0.0
 10
6.534622970051299
 20
20.44130825532173
 30
0.0
 10
6.412430003690206
 20
20.376090387563455
 30
0.0
 10
6.29440332660848
 20
20.303604562741604
 30
0.0
 10
6.1809747068271665
 20
20.22411595023915
 30
0.0
 10
6.07255909164381
 20
20.137915337204948
 30
0.0
 10
5.969553089662294
 20
20.045318064789164
 30
0.0
 10
5.872333519909732
 20
19.946662874554764
 30
0.0
 10
5.78125603334807
 20
19.84231066928497
 30
0.0
 10
5.696653811823201
 20
19.73264319272006
 30
0.0
 10
5.618836349211144
 20
19.618061633053248
 30
0.0
 10
5.548088319220132
 20
19.498985155294413
 30
0.0
 10
5.4846685339904155
 20
19.375849367870632
 30
0.0
 10
5.428808997301487
 20
19.249104729072943
 30
0.0
 10
4.999431580686716
 20
17.726647249941724
 30
0.0
 10
4.458427887014141
 20
17.881777562780805
 30
0.0
 10
3.593476945264575
 20
18.06562856097234
 30
0.0
 10
3.9018064403225665
 20
19.615705608064605
 30
0.0
 10
3.909576090601661
 20
19.753995607115872
 30
0.0
 10
3.908971125867704
 20
19.892502377061348
 30
0.0
 10
3.899993759217195
 20
20.03071922911305
 30
0.0
 10
3.8826768318681424
 20
20.16814053506757
 30
0.0
 10
3.8570836930195327
 20
20.30426357700733
 30
0.0
 10
3.8233079681057704
 20
20.438590386355315
 30
0.0
 10
3.7814732162938673
 20
20.570629565555638
 30
0.0
 10
3.7317324784763364
 20
20.699898085715905
 30
0.0
 10
3.674267717413325
 20
20.825923053635083
 30
0.0
 10
3.6092891520720833
 20
20.948243441752734
 30
0.0
 10
3.537034488598897
 20
21.06641177469111
 30
0.0
 10
3.4577680507367594
 20
21.17999576622032
 30
0.0
 10
3.3717798128699146
 20
21.28857990065815
 30
0.0
 10
3.256445796061129
 20
21.211882078851993
 30
0.0
 10
3.1459595501373734
 20
21.12835195994429
 30
0.0
 10
3.040725258533571
 20
21.03829511581957
 30
0.0
 10
2.94112789185938
 20
20.94204099458507
 30
0.0
 10
2.8475317995904756
 20
20.83994171537582
 30
0.0
 10
2.7602793771965595
 20
20.732370780223928
 30
0.0
 10
2.6796898135820397
 20
20.61972170770453
 30
0.0
 10
2.6060579234215235
 20
20.502406593356685
 30
0.0
 10
2.5396530686617074
 20
20.380854602145575
 30
0.0
 10
2.4807181731350347
 20
20.255510398480954
 30
0.0
 10
2.4294688338899144
 20
20.12683251953512
 30
0.0
 10
2.386092532488422
 20
19.995291697811272
 30
0.0
 10
2.3507479491567542
 20
19.861369139098525
 30
0.0
 10
2.1653163814657477
 20
18.294665734220974
 30
0.0
 10
1.9263763392067237
 20
18.32824656720388
 30
0.0
 10
0.7234237991001002
 20
18.41236520325289
 30
0.0
 10
0.7851963151813736
 20
19.98458072481446
 30
0.0
 10
0.7712369861505383
 20
20.122383585583265
 30
0.0
 10
0.7489722370754667
 20
20.25909047001738
 30
0.0
 10
0.7184835173952592
 20
20.394201273713165
 30
0.0
 10
0.6798823616755413
 20
20.527221731087813
 30
0.0
 10
0.6333099815900415
 20
20.657665223513575
 30
0.0
 10
0.5789367493366574
 20
20.785054559477693
 30
0.0
 10
0.516961574377796
 20
20.908923720255817
 30
0.0
 10
0.4476111757850065
 20
21.02881956471291
 30
0.0
 10
0.3711392528498358
 20
21.144303486995003
 30
0.0
 10
0.2878255569949943
 20
21.254953021047637
 30
0.0
 10
0.1979748683809923
 20
21.360363386091347
 30
0.0
 10
0.10191588095204439
 20
21.460148967400393
 30
0.0
 10
1.0977538660189732e-15
 20
21.553944726967803
 30
0.0
 10
-0.1019158809520422
 20
21.460148967400393
 30
0.0
 10
-0.19797486838099013
 20
21.360363386091347
 30
0.0
 10
-0.2878255569949922
 20
21.254953021047637
 30
0.0
 10
-0.37113925284983346
 20
21.144303486995
 30
0.0
 10
-0.44761117578500437
 20
21.02881956471291
 30
0.0
 10
-0.5169615743777936
 20
20.908923720255817
 30
0.0
 10
-0.5789367493366552
 20
20.78505455947769
 30
0.0
 10
-0.6333099815900397
 20
20.657665223513575
 30
0.0
 10
-0.6798823616755391
 20
20.527221731087813
 30
0.0
 10
-0.718483517395257
 20
20.394201273713165
 30
0.0
 10
-0.7489722370754645
 20
20.25909047001738
 30
0.0
 10
-0.7712369861505365
 20
20.122383585583265
 30
0.0
 10
-0.785196315181371
 20
19.98458072481446
 30
0.0
 10
-0.7234237991000982
 20
18.41236520325289
 30
0.0
 10
-1.9263763392067212
 20
18.328246567203884
 30
0.0
 10
-2.1653163814657495
 20
18.294665734220974
 30
0.0
 10
-2.350747949156756
 20
19.861369139098525
 30
0.0
 10
-2.386092532488425
 20
19.995291697811272
 30
0.0
 10
-2.429468833889917
 20
20.12683251953512
 30
0.0
 10
-2.480718173135037
 20
20.25551039848095
 30
0.0
 10
-2.53965306866171
 20
20.380854602145572
 30
0.0
 10
-2.606057923421527
 20
20.502406593356685
 30
0.0
 10
-2.6796898135820424
 20
20.61972170770453
 30
0.0
 10
-2.7602793771965626
 20
20.732370780223924
 30
0.0
 10
-2.8475317995904783
 20
20.83994171537582
 30
0.0
 10
-2.9411278918593826
 20
20.942040994585074
 30
0.0
 10
-3.040725258533574
 20
21.038295115819565
 30
0.0
 10
-3.145959550137376
 20
21.128351959944286
 30
0.0
 10
-3.256445796061132
 20
21.211882078851986
 30
0.0
 10
-3.371779812869917
 20
21.288579900658146
 30
0.0
 10
-3.4577680507367625
 20
21.179995766220312
 30
0.0
 10
-3.5370344885989
 20
21.066411774691108
 30
0.0
 10
-3.609289152072086
 20
20.94824344175273
 30
0.0
 10
-3.674267717413327
 20
20.82592305363508
 30
0.0
 10
-3.731732478476339
 20
20.699898085715905
 30
0.0
 10
-3.7814732162938705
 20
20.570629565555635
 30
0.0
 10
-3.8233079681057727
 20
20.43859038635531
 30
0.0
 10
-3.857083693019536
 20
20.30426357700733
 30
0.0
 10
-3.882676831868145
 20
20.168140535067568
 30
0.0
 10
-3.8999937592171974
 20
20.030719229113046
 30
0.0
 10
-3.9089711258677062
 20
19.892502377061348
 30
0.0
 10
-3.909576090601664
 20
19.753995607115872
 30
0.0
 10
-3.9018064403225683
 20
19.615705608064605
 30
0.0
 10
-3.593476945264576
 20
18.06562856097234
 30
0.0
 10
-4.458427887014139
 20
17.881777562780805
 30
0.0
 10
-4.999431580686712
 20
17.726647249941724
 30
0.0
 10
-5.428808997301483
 20
19.249104729072947
 30
0.0
 10
-5.484668533990413
 20
19.375849367870632
 30
0.0
 10
-5.548088319220129
 20
19.498985155294417
 30
0.0
 10
-5.618836349211143
 20
19.61806163305325
 30
0.0
 10
-5.696653811823198
 20
19.732643192720065
 30
0.0
 10
-5.781256033348068
 20
19.842310669284974
 30
0.0
 10
-5.8723335199097315
 20
19.946662874554768
 30
0.0
 10
-5.969553089662292
 20
20.045318064789168
 30
0.0
 10
-6.072559091643807
 20
20.13791533720495
 30
0.0
 10
-6.180974706827165
 20
20.224115950239156
 30
0.0
 10
-6.294403326608477
 20
20.303604562741604
 30
0.0
 10
-6.412430003690204
 20
20.37609038756346
 30
0.0
 10
-6.534622970051298
 20
20.441308255321733
 30
0.0
 10
-6.660535216451335
 20
20.499019584448295
 30
0.0
 10
-6.728478495438101
 20
20.37832077689998
 30
0.0
 10
-6.789000580963038
 20
20.25373518998572
 30
0.0
 10
-6.841880069681218
 20
20.125718585687828
 30
0.0
 10
-6.886923516578664
 20
19.994739277418716
 30
0.0
 10
-6.923966142637537
 20
19.86127641682551
 30
0.0
 10
-6.952872437634699
 20
19.725818240946037
 30
0.0
 10
-6.973536655868451
 20
19.588860286128334
 30
0.0
 10
-6.985883203000012
 20
19.45090357524776
 30
0.0
 10
-6.98986691259452
 20
19.312452784853033
 30
0.0
 10
-6.985473211349988
 20
19.174014398946404
 30
0.0
 10
-6.9727181724096905
 20
19.03609485615174
 30
0.0
 10
-6.951648456563021
 20
18.89919869704857
 30
0.0
 10
-6.922341141549858
 20
18.763826718449682
 30
0.0
 10
-6.374836715116311
 20
17.27975103146568
 30
0.0
 10
-6.9037012073873765
 20
17.087260098318705
 30
0.0
 10
-7.711526123919621
 20
16.72759327277157
 30
0.0
 10
-8.373194750748558
 20
18.162863476501627
 30
0.0
 10
-8.448193793614296
 20
18.279309321735717
 30
0.0
 10
-8.530095457081682
 20
18.391008063108814
 30
0.0
 10
-8.618600126520958
 20
18.49755108160605
 30
0.0
 10
-8.713384032027538
 20
18.598548619001665
 30
0.0
 10
-8.814100432844842
 20
18.69363120368186
 30
0.0
 10
-8.920380885819656
 20
18.782451002254746
 30
0.0
 10
-9.031836593249695
 20
18.86468309200277
 30
0.0
 10
-9.148059825192705
 20
18.94002664952284
 30
0.0
 10
-9.268625411033902
 20
19.00820605120566
 30
0.0
 10
-9.393092294855315
 20
19.068971881528675
 30
0.0
 10
-9.52100514891713
 20
19.122101845473885
 30
0.0
 10
-9.651896039348545
 20
19.16740158173283
 30
0.0
 10
-9.78528613795468
 20
19.204705373723783
 30
0.0
 10
-9.833511469041897
 20
19.0748638982832
 30
0.0
 10
-9.873798947622724
 20
18.942344426609573
 30
0.0
 10
-9.906001193076694
 20
18.807631744612735
 30
0.0
 10
-9.930000402377098
 20
18.671218661457143
 30
0.0
 10
-9.945708781040837
 20
18.53360420675556
 30
0.0
 10
-9.953068864300304
 20
18.395291805006934
 30
0.0
 10
-9.952053727322387
 20
18.25678743395687
 30
0.0
 10
-9.942667083705524
 20
18.11859777361765
 30
0.0
 10
-9.924943271894541
 20
17.981228352719302
 30
0.0
 10
-9.898947129562922
 20
17.84518169937225
 30
0.0
 10
-9.864773756422075
 20
17.710955502706938
 30
0.0
 10
-9.822548166325301
 20
17.57904079221551
 30
0.0
 10
-9.772424829939098
 20
17.449920141455944
 30
0.0
 10
-9.001556963391282
 20
16.073436520966663
 30
0.0
 10
-9.214601836602547
 20
15.960158552513109
 30
0.0
 10
-10.237254578687883
 20
15.32113419633795
 30
0.0
 10
-11.111404660392044
 20
16.629392246050905
 30
0.0
 10
-11.203696484091676
 20
16.73267201455013
 30
0.0
 10
-11.302063335026126
 20
16.83018331615306
 30
0.0
 10
-11.406145365221915
 20
16.921569432677305
 30
0.0
 10
-11.515561819299698
 20
17.00649605323943
 30
0.0
 10
-11.629912427362745
 20
17.084652497239073
 30
0.0
 10
-11.74877886927387
 20
17.15575285089817
 30
0.0
 10
-11.871726304964174
 20
17.219537013197574
 30
0.0
 10
-11.99830496517545
 20
17.27577164738485
 30
0.0
 10
-12.12805179681684
 20
17.324251034572395
 30
0.0
 10
-12.260492156916763
 20
17.364797826303192
 30
0.0
 10
-12.395141548973239
 20
17.397263693331187
 30
0.0
 10
-12.531507395350596
 20
17.421529868242907
 30
0.0
 10
-12.66909083923879
 20
17.43750757993524
 30
0.0
 10
-12.696410754724392
 20
17.301720564646892
 30
0.0
 10
-12.715471614931971
 20
17.16453027741341
 30
0.0
 10
-12.726203690965532
 20
17.026438591034147
 30
0.0
 10
-12.72856772248711
 20
16.887950675828435
 30
0.0
 10
-12.722555061339893
 20
16.74957315160941
 30
0.0
 10
-12.708187703185104
 20
16.61181223435524
 30
0.0
 10
-12.685518207036955
 20
16.475171884357707
 30
0.0
 10
-12.654629502990002
 20
16.34015196262259
 30
0.0
 10
-12.615634588842273
 20
16.207246402266108
 30
0.0
 10
-12.568676116724019
 20
16.076941401596994
 30
0.0
 10
-12.513925871244275
 20
15.94971364549414
 30
0.0
 10
-12.451584141064277
 20
15.82602856158657
 30
0.0
 10
-12.381878986196678
 20
15.7063386176149
 30
0.0
 10
-11.407778873902418
 20
14.47069851580109
 30
0.0
 10
-12.331544228562628
 20
13.695567347411359
 30
0.0
 10
-12.505112464999794
 20
13.527954449820927
 30
0.0
 10
-13.576014910658834
 20
14.68645018871371
 30
0.0
 10
-13.683326984193881
 20
14.774020789811722
 30
0.0
 10
-13.795736904264528
 20
14.85494359977757
 30
0.0
 10
-13.912833450204953
 20
14.928922584846854
 30
0.0
 10
-14.034188256622153
 20
14.995687113321953
 30
0.0
 10
-14.15935738045252
 20
15.054992945603413
 30
0.0
 10
-14.287882925004999
 20
15.106623127673092
 30
0.0
 10
-14.41929471504973
 20
15.150388784760557
 30
0.0
 10
-14.553112016824379
 20
15.186129812289305
 30
0.0
 10
-14.688845296665901
 20
15.213715461575157
 30
0.0
 10
-14.825998011834322
 20
15.233044818134234
 30
0.0
 10
-14.964068426977322
 20
15.244047170850749
 30
0.0
 10
-15.102551449590512
 20
15.246682270654095
 30
0.0
 10
-15.240940477758961
 20
15.240940477758963
 30
0.0
 10
-15.246682270654093
 20
15.102551449590514
 30
0.0
 10
-15.244047170850747
 20
14.964068426977324
 30
0.0
 10
-15.233044818134232
 20
14.825998011834324
 30
0.0
 10
-15.213715461575152
 20
14.688845296665901
 30
0.0
 10
-15.186129812289302
 20
14.553112016824382
 30
0.0
 10
-15.150388784760555
 20
14.419294715049732
 30
0.0
 10
-15.106623127673087
 20
14.287882925004997
 30
0.0
 10
-15.05499294560341
 20
14.159357380452523
 30
0.0
 10
-14.995687113321951
 20
14.034188256622155
 30
0.0
 10
-14.928922584846852
 20
13.912833450204955
 30
0.0
 10
-14.854943599777569
 20
13.79573690426453
 30
0.0
 10
-14.774020789811722
 20
13.683326984193881
 30
0.0
 10
-14.68645018871371
 20
13.576014910658836
 30
0.0
 10
-13.525893959146847
 20
12.50320776701253
 30
0.0
 10
-14.117589064966625
 20
11.8460637775259
 30
0.0
 10
-14.464086937097028
 20
11.402566725519884
 30
0.0
 10
-15.706338617614893
 20
12.38187898619668
 30
0.0
 10
-15.82602856158657
 20
12.451584141064282
 30
0.0
 10
-15.94971364549414
 20
12.513925871244279
 30
0.0
 10
-16.07694140159699
 20
12.568676116724024
 30
0.0
 10
-16.207246402266104
 20
12.615634588842276
 30
0.0
 10
-16.340151962622585
 20
12.654629502990005
 30
0.0
 10
-16.475171884357707
 20
12.68551820703696
 30
0.0
 10
-16.611812234355238
 20
12.708187703185109
 30
0.0
 10
-16.749573151609408
 20
12.722555061339898
 30
0.0
 10
-16.887950675828435
 20
12.728567722487115
 30
0.0
 10
-17.026438591034143
 20
12.726203690965535
 30
0.0
 10
-17.164530277413405
 20
12.715471614931975
 30
0.0
 10
-17.30172056464689
 20
12.696410754724397
 30
0.0
 10
-17.437507579935236
 20
12.669090839238793
 30
0.0
 10
-17.421529868242903
 20
12.531507395350602
 30
0.0
 10
-17.397263693331183
 20
12.395141548973244
 30
0.0
 10
-17.36479782630319
 20
12.260492156916767
 30
0.0
 10
-17.324251034572395
 20
12.128051796816841
 30
0.0
 10
-17.275771647384847
 20
11.998304965175455
 30
0.0
 10
-17.21953701319757
 20
11.871726304964179
 30
0.0
 10
-17.155752850898168
 20
11.74877886927387
 30
0.0
 10
-17.08465249723907
 20
11.62991242736275
 30
0.0
 10
-17.006496053239427
 20
11.515561819299702
 30
0.0
 10
-16.921569432677302
 20
11.40614536522192
 30
0.0
 10
-16.83018331615306
 20
11.302063335026132
 30
0.0
 10
-16.732672014550133
 20
11.203696484091681
 30
0.0
 10
-16.629392246050905
 20
11.111404660392045
 30
0.0
 10
-15.314134058475638
 20
10.232577236105799
 30
0.0
 10
-15.628851088740598
 20
9.765990050908725
 30
0.0
 10
-16.070988318899257
 20
9.000185904356156
 30
0.0
 10
-17.449920141455937
 20
9.7724248299391
 30
0.0
 10
-17.579040792215505
 20
9.822548166325303
 30
0.0
 10
-17.710955502706934
 20
9.864773756422078
 30
0.0
 10
-17.84518169937225
 20
9.898947129562925
 30
0.0
 10
-17.981228352719302
 20
9.924943271894545
 30
0.0
 10
-18.118597773617648
 20
9.942667083705526
 30
0.0
 10
-18.25678743395687
 20
9.952053727322392
 30
0.0
 10
-18.395291805006934
 20
9.953068864300308
 30
0.0
 10
-18.533604206755555
 20
9.94570878104084
 30
0.0
 10
-18.671218661457146
 20
9.930000402377104
 30
0.0
 10
-18.80763174461273
 20
9.906001193076698
 30
0.0
 10
-18.94234442660957
 20
9.873798947622728
 30
0.0
 10
-19.0748638982832
 20
9.8335114690419
 30
0.0
 10
-19.20470537372378
 20
9.785286137954683
 30
0.0
 10
-19.16740158173283
 20
9.651896039348548
 30
0.0
 10
-19.122101845473882
 20
9.521005148917133
 30
0.0
 10
-19.06897188152867
 20
9.393092294855318
 30
0.0
 10
-19.008206051205658
 20
9.268625411033904
 30
0.0
 10
-18.940026649522835
 20
9.148059825192709
 30
0.0
 10
-18.86468309200277
 20
9.031836593249698
 30
0.0
 10
-18.78245100225474
 20
8.920380885819657
 30
0.0
 10
-18.693631203681857
 20
8.814100432844844
 30
0.0
 10
-18.598548619001665
 20
8.713384032027541
 30
0.0
 10
-18.49755108160605
 20
8.618600126520962
 30
0.0
 10
-18.39100806310881
 20
8.530095457081686
 30
0.0
 10
-18.279309321735713
 20
8.448193793614298
 30
0.0
 10
-18.162863476501627
 20
8.373194750748564
 30
0.0
 10
-16.730141499901137
 20
7.712700872716948
 30
0.0
 10
-16.835915303626855
 20
7.495832436599653
 30
0.0
 10
-17.28764965890258
 20
6.377750672620222
 30
0.0
 10
-18.763826718449682
 20
6.922341141549863
 30
0.0
 10
-18.899198697048565
 20
6.951648456563023
 30
0.0
 10
-19.036094856151735
 20
6.972718172409693
 30
0.0
 10
-19.1740143989464
 20
6.985473211349991
 30
0.0
 10
-19.31245278485303
 20
6.989866912594524
 30
0.0
 10
-19.450903575247757
 20
6.985883203000014
 30
0.0
 10
-19.588860286128337
 20
6.973536655868456
 30
0.0
 10
-19.725818240946033
 20
6.952872437634702
 30
0.0
 10
-19.861276416825508
 20
6.923966142637541
 30
0.0
 10
-19.994739277418716
 20
6.886923516578667
 30
0.0
 10
-20.125718585687828
 20
6.841880069681221
 30
0.0
 10
-20.253735189985715
 20
6.789000580963041
 30
0.0
 10
-20.378320776899976
 20
6.728478495438105
 30
0.0
 10
-20.49901958444829
 20
6.660535216451339
 30
0.0
 10
-20.44130825532173
 20
6.534622970051301
 30
0.0
 10
-20.376090387563455
 20
6.412430003690207
 30
0.0
 10
-20.303604562741604
 20
6.294403326608481
 30
0.0
 10
-20.22411595023915
 20
6.1809747068271665
 30
0.0
 10
-20.137915337204948
 20
6.072559091643811
 30
0.0
 10
-20.045318064789164
 20
5.969553089662296
 30
0.0
 10
-19.946662874554764
 20
5.872333519909733
 30
0.0
 10
-19.84231066928497
 20
5.781256033348071
 30
0.0
 10
-19.73264319272006
 20
5.696653811823202
 30
0.0
 10
-19.618061633053248
 20
5.618836349211145
 30
0.0
 10
-19.498985155294417
 20
5.548088319220133
 30
0.0
 10
-19.375849367870632
 20
5.4846685339904155
 30
0.0
 10
-19.249104729072943
 20
5.428808997301487
 30
0.0
 10
-17.734750155017014
 20
5.001716836265931
 30
0.0
 10
-18.02648135638021
 20
3.8316468961209336
 30
0.0
 10
-18.0683806200439
 20
3.594024363849668
 30
0.0
 10
-19.615705608064605
 20
3.901806440322567
 30
0.0
 10
-19.753995607115872
 20
3.909576090601662
 30
0.0
 10
-19.892502377061348
 20
3.908971125867705
 30
0.0
 10
-20.030719229113046
 20
3.8999937592171965
 30
0.0
 10
-20.168140535067568
 20
3.8826768318681433
 30
0.0
 10
-20.30426357700733
 20
3.8570836930195336
 30
0.0
 10
-20.438590386355312
 20
3.8233079681057722
 30
0.0
 10
-20.570629565555635
 20
3.7814732162938687
 30
0.0
 10
-20.699898085715905
 20
3.7317324784763373
 30
0.0
 10
-20.825923053635083
 20
3.674267717413326
 30
0.0
 10
-20.94824344175273
 20
3.6092891520720842
 30
0.0
 10
-21.066411774691108
 20
3.5370344885988985
 30
0.0
 10
-21.179995766220316
 20
3.4577680507367607
 30
0.0
 10
-21.288579900658146
 20
3.3717798128699155
 30
0.0
 10
-21.21188207885199
 20
3.25644579606113
 30
0.0
 10
-21.128351959944286
 20
3.1459595501373747
 30
0.0
 10
-21.038295115819565
 20
3.040725258533572
 30
0.0
 10
-20.94204099458507
 20
2.941127891859381
 30
0.0
 10
-20.83994171537582
 20
2.8475317995904765
 30
0.0
 10
-20.732370780223924
 20
2.760279377196561
 30
0.0
 10
-20.619721707704528
 20
2.6796898135820406
 30
0.0
 10
-20.502406593356685
 20
2.606057923421525
 30
0.0
 10
-20.380854602145572
 20
2.5396530686617083
 30
0.0
 10
-20.25551039848095
 20
2.480718173135036
 30
0.0
 10
-20.12683251953512
 20
2.4294688338899157
 30
0.0
 10
-19.995291697811272
 20
2.3860925324884232
 30
0.0
 10
-19.861369139098525
 20
2.3507479491567547
 30
0.0
 10
-18.291879208861907
 20
2.1649865744556065
 30
0.0
 10
-18.38431105930571
 20
1.2855562621550733
 30
0.0
 10
-18.40395269976964
 20
0.7230932709380421
 30
0.0
 10
-19.984580724814453
 20
0.7851963151813747
 30
0.0
 10
-20.122383585583265
 20
0.7712369861505395
 30
0.0
 10
-20.25909047001738
 20
0.7489722370754679
 30
0.0
 10
-20.394201273713165
 20
0.7184835173952604
 30
0.0
 10
-20.527221731087813
 20
0.6798823616755426
 30
0.0
 10
-20.657665223513575
 20
0.6333099815900428
 30
0.0
 10
-20.785054559477693
 20
0.5789367493366587
 30
0.0
 10
-20.908923720255817
 20
0.5169615743777972
 30
0.0
 10
-21.02881956471291
 20
0.44761117578500775
 30
0.0
 10
-21.144303486995003
 20
0.3711392528498371
 30
0.0
 10
-21.254953021047637
 20
0.2878255569949956
 30
0.0
 10
-21.360363386091347
 20
0.1979748683809936
 30
0.0
 10
-21.460148967400393
 20
0.10191588095204569
 30
0.0
 10
-21.553944726967803
 20
2.4175523369629778e-15
 30
0.0
 10
-21.460148967400393
 20
-0.10191588095204089
 30
0.0
 10
-21.360363386091347
 20
-0.19797486838098882
 30
0.0
 10
-21.254953021047637
 20
-0.28782555699499085
 30
0.0
 10
-21.144303486995
 20
-0.3711392528498321
 30
0.0
 10
-21.02881956471291
 20
-0.4476111757850031
 30
0.0
 10
-20.908923720255817
 20
-0.5169615743777923
 30
0.0
 10
-20.78505455947769
 20
-0.5789367493366538
 30
0.0
 10
-20.657665223513575
 20
-0.6333099815900384
 30
0.0
 10
-20.527221731087813
 20
-0.6798823616755377
 30
0.0
 10
-20.394201273713165
 20
-0.7184835173952557
 30
0.0
 10
-20.25909047001738
 20
-0.7489722370754632
 30
0.0
 10
-20.122383585583265
 20
-0.7712369861505353
 30
0.0
 10
-19.98458072481446
 20
-0.7851963151813699
 30
0.0
 10
-18.40395269976964
 20
-0.7230932709380375
 30
0.0
 10
-18.384311059305713
 20
-1.2855562621550605
 30
0.0
 10
-18.291879208861907
 20
-2.1649865744556105
 30
0.0
 10
-19.861369139098525
 20
-2.350747949156759
 30
0.0
 10
-19.995291697811272
 20
-2.3860925324884277
 30
0.0
 10
-20.12683251953512
 20
-2.42946883388992
 30
0.0
 10
-20.25551039848095
 20
-2.48071817313504
 30
0.0
 10
-20.380854602145572
 20
-2.5396530686617127
 30
0.0
 10
-20.502406593356685
 20
-2.6060579234215298
 30
0.0
 10
-20.61972170770453
 20
-2.679689813582046
 30
0.0
 10
-20.732370780223924
 20
-2.7602793771965652
 30
0.0
 10
-20.83994171537582
 20
-2.847531799590481
 30
0.0
 10
-20.942040994585074
 20
-2.9411278918593857
 30
0.0
 10
-21.038295115819565
 20
-3.0407252585335764
 30
0.0
 10
-21.128351959944286
 20
-3.145959550137379
 30
0.0
 10
-21.211882078851986
 20
-3.256445796061135
 30
0.0
 10
-21.288579900658146
 20
-3.37177981286992
 30
0.0
 10
-21.179995766220312
 20
-3.4577680507367656
 30
0.0
 10
-21.066411774691108
 20
-3.537034488598903
 30
0.0
 10
-20.94824344175273
 20
-3.6092891520720887
 30
0.0
 10
-20.82592305363508
 20
-3.6742677174133296
 30
0.0
 10
-20.699898085715905
 20
-3.7317324784763417
 30
0.0
 10
-20.570629565555635
 20
-3.781473216293873
 30
0.0
 10
-20.43859038635531
 20
-3.823307968105776
 30
0.0
 10
-20.30426357700733
 20
-3.8570836930195385
 30
0.0
 10
-20.168140535067568
 20
-3.8826768318681477
 30
0.0
 10
-20.030719229113046
 20
-3.8999937592172005
 30
0.0
 10
-19.892502377061348
 20
-3.9089711258677093
 30
0.0
 10
-19.753995607115872
 20
-3.9095760906016666
 30
0.0
 10
-19.61570560806461
 20
-3.901806440322572
 30
0.0
 10
-18.0683806200439
 20
-3.594024363849671
 30
0.0
 10
-18.02648135638021
 20
-3.8316468961209287
 30
0.0
 10
-17.734750155017014
 20
-5.001716836265936
 30
0.0
 10
-19.249104729072947
 20
-5.428808997301492
 30
0.0
 10
-19.375849367870632
 20
-5.484668533990421
 30
0.0
 10
-19.498985155294417
 20
-5.548088319220138
 30
0.0
 10
-19.618061633053248
 20
-5.618836349211151
 30
0.0
 10
-19.73264319272006
 20
-5.696653811823206
 30
0.0
 10
-19.84231066928497
 20
-5.781256033348076
 30
0.0
 10
-19.946662874554768
 20
-5.8723335199097395
 30
0.0
 10
-20.045318064789164
 20
-5.9695530896623
 30
0.0
 10
-20.137915337204948
 20
-6.072559091643816
 30
0.0
 10
-20.224115950239153
 20
-6.180974706827173
 30
0.0
 10
-20.303604562741604
 20
-6.294403326608485
 30
0.0
 10
-20.376090387563455
 20
-6.412430003690212
 30
0.0
 10
-20.44130825532173
 20
-6.534622970051306
 30
0.0
 10
-20.49901958444829
 20
-6.660535216451343
 30
0.0
 10
-20.378320776899976
 20
-6.728478495438109
 30
0.0
 10
-20.253735189985715
 20
-6.789000580963046
 30
0.0
 10
-20.125718585687828
 20
-6.841880069681226
 30
0.0
 10
-19.994739277418713
 20
-6.886923516578671
 30
0.0
 10
-19.861276416825508
 20
-6.923966142637545
 30
0.0
 10
-19.725818240946033
 20
-6.952872437634706
 30
0.0
 10
-19.588860286128334
 20
-6.973536655868459
 30
0.0
 10
-19.450903575247757
 20
-6.98588320300002
 30
0.0
 10
-19.31245278485303
 20
-6.989866912594528
 30
0.0
 10
-19.1740143989464
 20
-6.985473211349996
 30
0.0
 10
-19.03609485615173
 20
-6.9727181724096985
 30
0.0
 10
-18.899198697048565
 20
-6.951648456563028
 30
0.0
 10
-18.763826718449682
 20
-6.922341141549864
 30
0.0
 10
-17.287649658902577
 20
-6.377750672620224
 30
0.0
 10
-16.83591530362686
 20
-7.495832436599643
 30
0.0
 10
-16.730141499901137
 20
-7.712700872716944
 30
0.0
 10
-18.162863476501627
 20
-8.373194750748558
 30
0.0
 10
-18.279309321735717
 20
-8.448193793614294
 30
0.0
 10
-18.391008063108814
 20
-8.53009545708168
 30
0.0
 10
-18.49755108160605
 20
-8.618600126520956
 30
0.0
 10
-18.598548619001665
 20
-8.713384032027536
 30
0.0
 10
-18.69363120368186
 20
-8.814100432844839
 30
0.0
 10
-18.782451002254746
 20
-8.920380885819654
 30
0.0
 10
-18.86468309200277
 20
-9.031836593249695
 30
0.0
 10
-18.94002664952284
 20
-9.148059825192705
 30
0.0
 10
-19.00820605120566
 20
-9.2686254110339
 30
0.0
 10
-19.068971881528675
 20
-9.393092294855313
 30
0.0
 10
-19.122101845473885
 20
-9.521005148917128
 30
0.0
 10
-19.16740158173283
 20
-9.651896039348545
 30
0.0
 10
-19.204705373723783
 20
-9.785286137954678
 30
0.0
 10
-19.0748638982832
 20
-9.833511469041897
 30
0.0
 10
-18.942344426609573
 20
-9.873798947622722
 30
0.0
 10
-18.807631744612735
 20
-9.906001193076692
 30
0.0
 10
-18.671218661457143
 20
-9.930000402377097
 30
0.0
 10
-18.53360420675556
 20
-9.945708781040837
 30
0.0
 10
-18.395291805006934
 20
-9.953068864300304
 30
0.0
 10
-18.25678743395687
 20
-9.952053727322385
 30
0.0
 10
-18.11859777361765
 20
-9.942667083705523
 30
0.0
 10
-17.981228352719302
 20
-9.92494327189454
 30
0.0
 10
-17.84518169937225
 20
-9.89894712956292
 30
0.0
 10
-17.710955502706938
 20
-9.864773756422073
 30
0.0
 10
-17.57904079221551
 20
-9.8225481663253
 30
0.0
 10
-17.449920141455944
 20
-9.772424829939098
 30
0.0
 10
-16.070988318899257
 20
-9.000185904356153
 30
0.0
 10
-15.6288510887406
 20
-9.765990050908723
 30
0.0
 10
-15.31413405847564
 20
-10.232577236105795
 30
0.0
 10
-16.629392246050905
 20
-11.111404660392044
 30
0.0
 10
-16.73267201455013
 20
-11.203696484091676
 30
0.0
 10
-16.83018331615306
 20
-11.302063335026126
 30
0.0
 10
-16.921569432677305
 20
-11.406145365221915
 30
0.0
 10
-17.00649605323943
 20
-11.515561819299698
 30
0.0
 10
-17.084652497239073
 20
-11.629912427362745
 30
0.0
 10
-17.15575285089817
 20
-11.74877886927387
 30
0.0
 10
-17.219537013197574
 20
-11.871726304964174
 30
0.0
 10
-17.27577164738485
 20
-11.99830496517545
 30
0.0
 10
-17.324251034572395
 20
-12.12805179681684
 30
0.0
 10
-17.364797826303192
 20
-12.260492156916763
 30
0.0
 10
-17.397263693331187
 20
-12.395141548973239
 30
0.0
 10
-17.421529868242907
 20
-12.531507395350596
 30
0.0
 10
-17.43750757993524
 20
-12.66909083923879
 30
0.0
 10
-17.301720564646892
 20
-12.696410754724392
 30
0.0
 10
-17.16453027741341
 20
-12.715471614931971
 30
0.0
 10
-17.026438591034147
 20
-12.726203690965532
 30
0.0
 10
-16.887950675828435
 20
-12.72856772248711
 30
0.0
 10
-16.74957315160941
 20
-12.722555061339893
 30
0.0
 10
-16.61181223435524
 20
-12.708187703185104
 30
0.0
 10
-16.475171884357707
 20
-12.685518207036955
 30
0.0
 10
-16.34015196262259
 20
-12.654629502990002
 30
0.0
 10
-16.207246402266108
 20
-12.615634588842273
 30
0.0
 10
-16.076941401596994
 20
-12.568676116724019
 30
0.0
 10
-15.94971364549414
 20
-12.513925871244275
 30
0.0
 10
-15.82602856158657
 20
-12.451584141064277
 30
0.0
 10
-15.7063386176149
 20
-12.381878986196678
 30
0.0
 10
-14.46408693709703
 20
-11.40256672551988
 30
0.0
 10
-14.117589064966626
 20
-11.846063777525897
 30
0.0
 10
-13.525893959146849
 20
-12.503207767012526
 30
0.0
 10
-14.68645018871371
 20
-13.576014910658834
 30
0.0
 10
-14.774020789811724
 20
-13.683326984193881
 30
0.0
 10
-14.854943599777574
 20
-13.795736904264528
 30
0.0
 10
-14.928922584846855
 20
-13.912833450204953
 30
0.0
 10
-14.995687113321956
 20
-14.034188256622153
 30
0.0
 10
-15.054992945603415
 20
-14.15935738045252
 30
0.0
 10
-15.106623127673094
 20
-14.287882925004999
 30
0.0
 10
-15.150388784760558
 20
-14.41929471504973
 30
0.0
 10
-15.186129812289307
 20
-14.553112016824379
 30
0.0
 10
-15.213715461575159
 20
-14.688845296665901
 30
0.0
 10
-15.233044818134237
 20
-14.825998011834322
 30
0.0
 10
-15.24404717085075
 20
-14.964068426977322
 30
0.0
 10
-15.246682270654096
 20
-15.102551449590512
 30
0.0
 10
-15.240940477758965
 20
-15.240940477758961
 30
0.0
 10
-15.102551449590516
 20
-15.246682270654093
 30
0.0
 10
-14.964068426977326
 20
-15.244047170850747
 30
0.0
 10
-14.825998011834328
 20
-15.233044818134232
 30
0.0
 10
-14.688845296665905
 20
-15.213715461575152
 30
0.0
 10
-14.553112016824384
 20
-15.186129812289302
 30
0.0
 10
-14.419294715049734
 20
-15.150388784760555
 30
0.0
 10
-14.287882925005
 20
-15.106623127673087
 30
0.0
 10
-14.159357380452525
 20
-15.05499294560341
 30
0.0
 10
-14.034188256622159
 20
-14.995687113321951
 30
0.0
 10
-13.912833450204957
 20
-14.928922584846852
 30
0.0
 10
-13.795736904264533
 20
-14.854943599777569
 30
0.0
 10
-13.683326984193883
 20
-14.774020789811722
 30
0.0
 10
-13.576014910658838
 20
-14.68645018871371
 30
0.0
 10
-12.505112464999796
 20
-13.527954449820923
 30
0.0
 10
-12.331544228562631
 20
-13.695567347411354
 30
0.0
 10
-11.407778873902421
 20
-14.470698515801086
 30
0.0
 10
-12.38187898619668
 20
-15.706338617614893
 30
0.0
 10
-12.451584141064282
 20
-15.82602856158657
 30
0.0
 10
-12.513925871244279
 20
-15.94971364549414
 30
0.0
 10
-12.568676116724024
 20
-16.07694140159699
 30
0.0
 10
-12.615634588842276
 20
-16.207246402266104
 30
0.0
 10
-12.654629502990005
 20
-16.340151962622585
 30
0.0
 10
-12.68551820703696
 20
-16.475171884357707
 30
0.0
 10
-12.708187703185109
 20
-16.611812234355238
 30
0.0
 10
-12.722555061339898
 20
-16.749573151609408
 30
0.0
 10
-12.728567722487115
 20
-16.887950675828435
 30
0.0
 10
-12.726203690965535
 20
-17.026438591034143
 30
0.0
 10
-12.715471614931975
 20
-17.164530277413405
 30
0.0
 10
-12.696410754724397
 20
-17.30172056464689
 30
0.0
 10
-12.669090839238793
 20
-17.437507579935236
 30
0.0
 10
-12.531507395350602
 20
-17.421529868242903
 30
0.0
 10
-12.395141548973244
 20
-17.397263693331183
 30
0.0
 10
-12.260492156916767
 20
-17.36479782630319
 30
0.0
 10
-12.128051796816841
 20
-17.324251034572395
 30
0.0
 10
-11.998304965175455
 20
-17.275771647384847
 30
0.0
 10
-11.871726304964179
 20
-17.21953701319757
 30
0.0
 10
-11.74877886927387
 20
-17.155752850898168
 30
0.0
 10
-11.62991242736275
 20
-17.08465249723907
 30
0.0
 10
-11.515561819299702
 20
-17.006496053239427
 30
0.0
 10
-11.40614536522192
 20
-16.921569432677302
 30
0.0
 10
-11.302063335026132
 20
-16.83018331615306
 30
0.0
 10
-11.203696484091681
 20
-16.732672014550133
 30
0.0
 10
-11.111404660392045
 20
-16.629392246050905
 30
0.0
 10
-10.237254578687883
 20
-15.32113419633795
 30
0.0
 10
-9.21460183660256
 20
-15.960158552513104
 30
0.0
 10
-9.001556963391288
 20
-16.073436520966663
 30
0.0
 10
-9.772424829939103
 20
-17.44992014145594
 30
0.0
 10
-9.822548166325305
 20
-17.579040792215505
 30
0.0
 10
-9.864773756422078
 20
-17.710955502706934
 30
0.0
 10
-9.898947129562925
 20
-17.84518169937225
 30
0.0
 10
-9.924943271894545
 20
-17.981228352719302
 30
0.0
 10
-9.94266708370553
 20
-18.118597773617648
 30
0.0
 10
-9.952053727322392
 20
-18.25678743395687
 30
0.0
 10
-9.95306886430031
 20
-18.395291805006934
 30
0.0
 10
-9.945708781040842
 20
-18.533604206755555
 30
0.0
 10
-9.930000402377106
 20
-18.671218661457146
 30
0.0
 10
-9.9060011930767
 20
-18.80763174461273
 30
0.0
 10
-9.873798947622728
 20
-18.94234442660957
 30
0.0
 10
-9.833511469041902
 20
-19.0748638982832
 30
0.0
 10
-9.785286137954685
 20
-19.20470537372378
 30
0.0
 10
-9.65189603934855
 20
-19.16740158173283
 30
0.0
 10
-9.521005148917133
 20
-19.122101845473882
 30
0.0
 10
-9.39309229485532
 20
-19.06897188152867
 30
0.0
 10
-9.268625411033906
 20
-19.008206051205658
 30
0.0
 10
-9.14805982519271
 20
-18.940026649522835
 30
0.0
 10
-9.0318365932497
 20
-18.86468309200277
 30
0.0
 10
-8.920380885819657
 20
-18.78245100225474
 30
0.0
 10
-8.814100432844846
 20
-18.693631203681857
 30
0.0
 10
-8.713384032027541
 20
-18.598548619001665
 30
0.0
 10
-8.618600126520962
 20
-18.49755108160605
 30
0.0
 10
-8.530095457081686
 20
-18.39100806310881
 30
0.0
 10
-8.4481937936143
 20
-18.279309321735713
 30
0.0
 10
-8.373194750748565
 20
-18.162863476501627
 30
0.0
 10
-7.711526123919626
 20
-16.72759327277157
 30
0.0
 10
-6.903701207387381
 20
-17.0872600983187
 30
0.0
 10
-6.374836715116316
 20
-17.27975103146568
 30
0.0
 10
-6.922341141549864
 20
-18.763826718449685
 30
0.0
 10
-6.951648456563024
 20
-18.899198697048565
 30
0.0
 10
-6.972718172409694
 20
-19.036094856151735
 30
0.0
 10
-6.985473211349992
 20
-19.1740143989464
 30
0.0
 10
-6.989866912594525
 20
-19.31245278485303
 30
0.0
 10
-6.985883203000015
 20
-19.450903575247757
 30
0.0
 10
-6.9735366558684575
 20
-19.588860286128337
 30
0.0
 10
-6.952872437634703
 20
-19.725818240946033
 30
0.0
 10
-6.923966142637541
 20
-19.861276416825508
 30
0.0
 10
-6.886923516578668
 20
-19.994739277418716
 30
0.0
 10
-6.841880069681222
 20
-20.125718585687828
 30
0.0
 10
-6.789000580963042
 20
-20.253735189985715
 30
0.0
 10
-6.728478495438106
 20
-20.378320776899976
 30
0.0
 10
-6.66053521645134
 20
-20.49901958444829
 30
0.0
 10
-6.534622970051302
 20
-20.44130825532173
 30
0.0
 10
-6.412430003690208
 20
-20.376090387563455
 30
0.0
 10
-6.294403326608482
 20
-20.303604562741604
 30
0.0
 10
-6.180974706827168
 20
-20.22411595023915
 30
0.0
 10
-6.072559091643812
 20
-20.137915337204948
 30
0.0
 10
-5.969553089662297
 20
-20.045318064789164
 30
0.0
 10
-5.872333519909735
 20
-19.946662874554764
 30
0.0
 10
-5.781256033348072
 20
-19.84231066928497
 30
0.0
 10
-5.696653811823204
 20
-19.73264319272006
 30
0.0
 10
-5.618836349211147
 20
-19.618061633053248
 30
0.0
 10
-5.548088319220134
 20
-19.498985155294417
 30
0.0
 10
-5.484668533990417
 20
-19.375849367870632
 30
0.0
 10
-5.428808997301488
 20
-19.249104729072943
 30
0.0
 10
-4.999431580686716
 20
-17.72664724994172
 30
0.0
 10
-4.458427887014139
 20
-17.881777562780805
 30
0.0
 10
-3.5934769452645754
 20
-18.06562856097234
 30
0.0
 10
-3.9018064403225683
 20
-19.615705608064605
 30
0.0
 10
-3.909576090601663
 20
-19.753995607115872
 30
0.0
 10
-3.908971125867706
 20
-19.892502377061348
 30
0.0
 10
-3.8999937592171974
 20
-20.030719229113046
 30
0.0
 10
-3.8826768318681446
 20
-20.168140535067568
 30
0.0
 10
-3.857083693019535
 20
-20.30426357700733
 30
0.0
 10
-3.823307968105773
 20
-20.438590386355312
 30
0.0
 10
-3.78147321629387
 20
-20.570629565555635
 30
0.0
 10
-3.7317324784763386
 20
-20.699898085715905
 30
0.0
 10
-3.6742677174133274
 20
-20.825923053635083
 30
0.0
 10
-3.6092891520720856
 20
-20.94824344175273
 30
0.0
 10
-3.5370344885988994
 20
-21.066411774691108
 30
0.0
 10
-3.457768050736762
 20
-21.179995766220316
 30
0.0
 10
-3.371779812869917
 20
-21.288579900658146
 30
0.0
 10
-3.2564457960611315
 20
-21.21188207885199
 30
0.0
 10
-3.1459595501373756
 20
-21.128351959944286
 30
0.0
 10
-3.0407252585335733
 20
-21.038295115819565
 30
0.0
 10
-2.941127891859382
 20
-20.94204099458507
 30
0.0
 10
-2.847531799590478
 20
-20.83994171537582
 30
0.0
 10
-2.760279377196562
 20
-20.732370780223924
 30
0.0
 10
-2.679689813582042
 20
-20.619721707704528
 30
0.0
 10
-2.606057923421526
 20
-20.502406593356685
 30
0.0
 10
-2.5396530686617096
 20
-20.380854602145572
 30
0.0
 10
-2.480718173135037
 20
-20.25551039848095
 30
0.0
 10
-2.4294688338899166
 20
-20.12683251953512
 30
0.0
 10
-2.386092532488424
 20
-19.995291697811272
 30
0.0
 10
-2.350747949156756
 20
-19.861369139098525
 30
0.0
 10
-2.1653163814657503
 20
-18.294665734220974
 30
0.0
 10
-1.926376339206722
 20
-18.328246567203884
 30
0.0
 10
-0.7234237991001025
 20
-18.412365203252886
 30
0.0
 10
-0.7851963151813759
 20
-19.984580724814453
 30
0.0
 10
-0.7712369861505407
 20
-20.122383585583265
 30
0.0
 10
-0.7489722370754692
 20
-20.25909047001738
 30
0.0
 10
-0.7184835173952617
 20
-20.394201273713165
 30
0.0
 10
-0.6798823616755438
 20
-20.527221731087813
 30
0.0
 10
-0.633309981590044
 20
-20.657665223513575
 30
0.0
 10
-0.57893674933666
 20
-20.785054559477693
 30
0.0
 10
-0.5169615743777985
 20
-20.908923720255817
 30
0.0
 10
-0.4476111757850091
 20
-21.02881956471291
 30
0.0
 10
-0.3711392528498384
 20
-21.144303486995003
 30
0.0
 10
-0.2878255569949969
 20
-21.254953021047637
 30
0.0
 10
-0.1979748683809949
 20
-21.360363386091347
 30
0.0
 10
-0.10191588095204701
 20
-21.460148967400393
 30
0.0
 10
-3.737350807906982e-15
 20
-21.553944726967803
 30
0.0
 10
0.10191588095203957
 20
-21.460148967400393
 30
0.0
 10
0.19797486838098752
 20
-21.360363386091347
 30
0.0
 10
0.2878255569949896
 20
-21.254953021047637
 30
0.0
 10
0.37113925284983085
 20
-21.144303486995
 30
0.0
 10
0.44761117578500176
 20
-21.02881956471291
 30
0.0
 10
0.516961574377791
 20
-20.908923720255817
 30
0.0
 10
0.5789367493366526
 20
-20.78505455947769
 30
0.0
 10
0.6333099815900372
 20
-20.657665223513575
 30
0.0
 10
0.6798823616755365
 20
-20.527221731087813
 30
0.0
 10
0.7184835173952544
 20
-20.394201273713165
 30
0.0
 10
0.7489722370754619
 20
-20.25909047001738
 30
0.0
 10
0.771236986150534
 20
-20.122383585583265
 30
0.0
 10
0.7851963151813686
 20
-19.98458072481446
 30
0.0
 10
0.7234237991000956
 20
-18.41236520325289
 30
0.0
 10
1.926376339206715
 20
-18.328246567203884
 30
0.0
 10
2.1653163814657437
 20
-18.294665734220974
 30
0.0
 10
2.35074794915675
 20
-19.861369139098528
 30
0.0
 10
2.3860925324884175
 20
-19.995291697811272
 30
0.0
 10
2.42946883388991
 20
-20.12683251953512
 30
0.0
 10
2.48071817313503
 20
-20.255510398480954
 30
0.0
 10
2.5396530686617025
 20
-20.380854602145575
 30
0.0
 10
2.6060579234215195
 20
-20.502406593356685
 30
0.0
 10
2.6796898135820353
 20
-20.619721707704535
 30
0.0
 10
2.7602793771965546
 20
-20.732370780223928
 30
0.0
 10
2.8475317995904708
 20
-20.83994171537582
 30
0.0
 10
2.941127891859375
 20
-20.942040994585074
 30
0.0
 10
3.0407252585335662
 20
-21.03829511581957
 30
0.0
 10
3.1459595501373685
 20
-21.12835195994429
 30
0.0
 10
3.256445796061124
 20
-21.21188207885199
 30
0.0
 10
3.3717798128699092
 20
-21.28857990065815
 30
0.0
 10
3.4577680507367545
 20
-21.179995766220316
 30
0.0
 10
3.5370344885988922
 20
-21.06641177469111
 30
0.0
 10
3.6092891520720785
 20
-20.948243441752734
 30
0.0
 10
3.6742677174133194
 20
-20.82592305363508
 30
0.0
 10
3.7317324784763315
 20
-20.699898085715905
 30
0.0
 10
3.781473216293863
 20
-20.570629565555638
 30
0.0
 10
3.823307968105765
 20
-20.438590386355312
 30
0.0
 10
3.8570836930195282
 20
-20.30426357700733
 30
0.0
 10
3.8826768318681375
 20
-20.16814053506757
 30
0.0
 10
3.8999937592171903
 20
-20.03071922911305
 30
0.0
 10
3.908971125867699
 20
-19.892502377061348
 30
0.0
 10
3.909576090601657
 20
-19.753995607115872
 30
0.0
 10
3.9018064403225616
 20
-19.61570560806461
 30
0.0
 10
3.59347694526457
 20
-18.065628560972343
 30
0.0
 10
4.458427887014132
 20
-17.881777562780808
 30
0.0
 10
4.999431580686711
 20
-17.726647249941724
 30
0.0
 10
5.428808997301481
 20
-19.249104729072943
 30
0.0
 10
5.48466853399041
 20
-19.375849367870632
 30
0.0
 10
5.548088319220128
 20
-19.498985155294417
 30
0.0
 10
5.61883634921114
 20
-19.61806163305325
 30
0.0
 10
5.696653811823197
 20
-19.732643192720065
 30
0.0
 10
5.7812560333480665
 20
-19.842310669284974
 30
0.0
 10
5.872333519909729
 20
-19.946662874554768
 30
0.0
 10
5.9695530896622895
 20
-20.045318064789168
 30
0.0
 10
6.072559091643805
 20
-20.13791533720495
 30
0.0
 10
6.180974706827162
 20
-20.224115950239156
 30
0.0
 10
6.2944033266084745
 20
-20.303604562741604
 30
0.0
 10
6.4124300036902016
 20
-20.37609038756346
 30
0.0
 10
6.534622970051295
 20
-20.441308255321733
 30
0.0
 10
6.660535216451333
 20
-20.499019584448295
 30
0.0
 10
6.7284784954380985
 20
-20.37832077689998
 30
0.0
 10
6.789000580963036
 20
-20.25373518998572
 30
0.0
 10
6.841880069681215
 20
-20.125718585687828
 30
0.0
 10
6.886923516578661
 20
-19.994739277418716
 30
0.0
 10
6.923966142637535
 20
-19.86127641682551
 30
0.0
 10
6.952872437634696
 20
-19.725818240946037
 30
0.0
 10
6.9735366558684495
 20
-19.588860286128334
 30
0.0
 10
6.98588320300001
 20
-19.45090357524776
 30
0.0
 10
6.989866912594518
 20
-19.312452784853033
 30
0.0
 10
6.985473211349985
 20
-19.174014398946404
 30
0.0
 10
6.972718172409689
 20
-19.03609485615174
 30
0.0
 10
6.951648456563018
 20
-18.89919869704857
 30
0.0
 10
6.922341141549856
 20
-18.763826718449682
 30
0.0
 10
6.37483671511631
 20
-17.27975103146568
 30
0.0
 10
6.903701207387375
 20
-17.087260098318705
 30
0.0
 10
7.7115261239196204
 20
-16.727593272771575
 30
0.0
 10
8.373194750748558
 20
-18.162863476501627
 30
0.0
 10
8.448193793614294
 20
-18.27930932173572
 30
0.0
 10
8.53009545708168
 20
-18.391008063108814
 30
0.0
 10
8.618600126520956
 20
-18.497551081606055
 30
0.0
 10
8.713384032027536
 20
-18.59854861900167
 30
0.0
 10
8.814100432844839
 20
-18.69363120368186
 30
0.0
 10
8.920380885819654
 20
-18.782451002254746
 30
0.0
 10
9.031836593249695
 20
-18.864683092002775
 30
0.0
 10
9.148059825192705
 20
-18.940026649522842
 30
0.0
 10
9.2686254110339
 20
-19.008206051205665
 30
0.0
 10
9.393092294855313
 20
-19.06897188152868
 30
0.0
 10
9.521005148917128
 20
-19.122101845473885
 30
0.0
 10
9.651896039348545
 20
-19.167401581732832
 30
0.0
 10
9.785286137954678
 20
-19.204705373723783
 30
0.0
 10
9.833511469041897
 20
-19.074863898283205
 30
0.0
 10
9.873798947622722
 20
-18.942344426609573
 30
0.0
 10
9.906001193076692
 20
-18.80763174461274
 30
0.0
 10
9.930000402377097
 20
-18.671218661457146
 30
0.0
 10
9.945708781040837
 20
-18.533604206755562
 30
0.0
 10
9.953068864300304
 20
-18.395291805006938
 30
0.0
 10
9.952053727322385
 20
-18.25678743395687
 30
0.0
 10
9.942667083705523
 20
-18.11859777361765
 30
0.0
 10
9.92494327189454
 20
-17.981228352719306
 30
0.0
 10
9.89894712956292
 20
-17.845181699372255
 30
0.0
 10
9.864773756422073
 20
-17.710955502706938
 30
0.0
 10
9.8225481663253
 20
-17.579040792215512
 30
0.0
 10
9.772424829939098
 20
-17.449920141455944
 30
0.0
 10
9.001556963391282
 20
-16.073436520966663
 30
0.0
 10
9.214601836602553
 20
-15.960158552513107
 30
0.0
 10
10.237254578687876
 20
-15.321134196337953
 30
0.0
 10
11.11140466039204
 20
-16.62939224605091
 30
0.0
 10
11.203696484091674
 20
-16.732672014550133
 30
0.0
 10
11.302063335026125
 20
-16.830183316153065
 30
0.0
 10
11.406145365221914
 20
-16.92156943267731
 30
0.0
 10
11.515561819299696
 20
-17.006496053239427
 30
0.0
 10
11.629912427362743
 20
-17.084652497239073
 30
0.0
 10
11.748778869273865
 20
-17.155752850898175
 30
0.0
 10
11.871726304964172
 20
-17.219537013197574
 30
0.0
 10
11.998304965175448
 20
-17.275771647384854
 30
0.0
 10
12.128051796816836
 20
-17.3242510345724
 30
0.0
 10
12.26049215691676
 20
-17.364797826303192
 30
0.0
 10
12.395141548973237
 20
-17.397263693331187
 30
0.0
 10
12.531507395350594
 20
-17.421529868242907
 30
0.0
 10
12.669090839238786
 20
-17.437507579935243
 30
0.0
 10
12.69641075472439
 20
-17.301720564646892
 30
0.0
 10
12.71547161493197
 20
-17.16453027741341
 30
0.0
 10
12.726203690965528
 20
-17.026438591034147
 30
0.0
 10
12.728567722487107
 20
-16.887950675828435
 30
0.0
 10
12.722555061339891
 20
-16.749573151609415
 30
0.0
 10
12.708187703185102
 20
-16.61181223435524
 30
0.0
 10
12.685518207036953
 20
-16.47517188435771
 30
0.0
 10
12.65462950299
 20
-16.34015196262259
 30
0.0
 10
12.615634588842271
 20
-16.207246402266108
 30
0.0
 10
12.568676116724017
 20
-16.076941401596997
 30
0.0
 10
12.513925871244274
 20
-15.949713645494144
 30
0.0
 10
12.451584141064275
 20
-15.826028561586574
 30
0.0
 10
12.381878986196677
 20
-15.706338617614904
 30
0.0
 10
11.407778873902418
 20
-14.470698515801091
 30
0.0
 10
12.331544228562619
 20
-13.695567347411364
 30
0.0
 10
12.505112464999803
 20
-13.527954449820916
 30
0.0
 10
13.576014910658845
 20
-14.686450188713703
 30
0.0
 10
13.683326984193892
 20
-14.774020789811713
 30
0.0
 10
13.79573690426454
 20
-14.85494359977756
 30
0.0
 10
13.912833450204964
 20
-14.928922584846843
 30
0.0
 10
14.034188256622166
 20
-14.995687113321942
 30
0.0
 10
14.159357380452532
 20
-15.0549929456034
 30
0.0
 10
14.28788292500501
 20
-15.10662312767308
 30
0.0
 10
14.419294715049741
 20
-15.150388784760546
 30
0.0
 10
14.553112016824391
 20
-15.186129812289293
 30
0.0
 10
14.688845296665914
 20
-15.213715461575145
 30
0.0
 10
14.825998011834335
 20
-15.233044818134223
 30
0.0
 10
14.964068426977333
 20
-15.244047170850736
 30
0.0
 10
15.102551449590523
 20
-15.246682270654082
 30
0.0
 10
15.240940477758972
 20
-15.24094047775895
 30
0.0
 10
15.246682270654103
 20
-15.102551449590502
 30
0.0
 10
15.244047170850758
 20
-14.96406842697731
 30
0.0
 10
15.233044818134244
 20
-14.825998011834313
 30
0.0
 10
15.213715461575164
 20
-14.68884529666589
 30
0.0
 10
15.186129812289314
 20
-14.55311201682437
 30
0.0
 10
15.150388784760565
 20
-14.419294715049721
 30
0.0
 10
15.1066231276731
 20
-14.287882925004986
 30
0.0
 10
15.054992945603422
 20
-14.15935738045251
 30
0.0
 10
14.995687113321964
 20
-14.034188256622144
 30
0.0
 10
14.928922584846863
 20
-13.912833450204943
 30
0.0
 10
14.854943599777581
 20
-13.795736904264519
 30
0.0
 10
14.77402078981173
 20
-13.68332698419387
 30
0.0
 10
14.68645018871372
 20
-13.576014910658824
 30
0.0
 10
13.525893959146856
 20
-12.503207767012517
 30
0.0
 10
14.117589064966623
 20
-11.846063777525902
 30
0.0
 10
14.464086937097026
 20
-11.402566725519886
 30
0.0
 10
15.706338617614895
 20
-12.381878986196684
 30
0.0
 10
15.82602856158657
 20
-12.451584141064284
 30
0.0
 10
15.94971364549414
 20
-12.513925871244282
 30
0.0
 10
16.07694140159699
 20
-12.568676116724026
 30
0.0
 10
16.207246402266104
 20
-12.61563458884228
 30
0.0
 10
16.340151962622585
 20
-12.654629502990007
 30
0.0
 10
16.475171884357707
 20
-12.685518207036962
 30
0.0
 10
16.611812234355238
 20
-12.70818770318511
 30
0.0
 10
16.749573151609408
 20
-12.7225550613399
 30
0.0
 10
16.887950675828435
 20
-12.728567722487119
 30
0.0
 10
17.026438591034143
 20
-12.726203690965539
 30
0.0
 10
17.164530277413405
 20
-12.715471614931978
 30
0.0
 10
17.30172056464689
 20
-12.696410754724399
 30
0.0
 10
17.437507579935236
 20
-12.669090839238796
 30
0.0
 10
17.421529868242903
 20
-12.531507395350603
 30
0.0
 10
17.397263693331183
 20
-12.395141548973246
 30
0.0
 10
17.36479782630319
 20
-12.26049215691677
 30
0.0
 10
17.324251034572395
 20
-12.128051796816845
 30
0.0
 10
17.275771647384847
 20
-11.998304965175457
 30
0.0
 10
17.21953701319757
 20
-11.87172630496418
 30
0.0
 10
17.155752850898168
 20
-11.748778869273872
 30
0.0
 10
17.08465249723907
 20
-11.62991242736275
 30
0.0
 10
17.006496053239427
 20
-11.515561819299705
 30
0.0
 10
16.921569432677302
 20
-11.406145365221922
 30
0.0
 10
16.83018331615306
 20
-11.302063335026133
 30
0.0
 10
16.732672014550133
 20
-11.203696484091683
 30
0.0
 10
16.6293922460509
 20
-11.111404660392047
 30
0.0
 10
15.314134058475636
 20
-10.232577236105802
 30
0.0
 10
15.62885108874059
 20
-9.76599005090874
 30
0.0
 10
16.070988318899257
 20
-9.000185904356158
 30
0.0
 10
17.44992014145594
 20
-9.772424829939103
 30
0.0
 10
17.579040792215505
 20
-9.822548166325305
 30
0.0
 10
17.710955502706934
 20
-9.86477375642208
 30
0.0
 10
17.84518169937225
 20
-9.898947129562927
 30
0.0
 10
17.981228352719302
 20
-9.924943271894547
 30
0.0
 10
18.118597773617648
 20
-9.94266708370553
 30
0.0
 10
18.25678743395687
 20
-9.952053727322394
 30
0.0
 10
18.395291805006934
 20
-9.953068864300311
 30
0.0
 10
18.533604206755555
 20
-9.945708781040842
 30
0.0
 10
18.671218661457146
 20
-9.930000402377106
 30
0.0
 10
18.80763174461273
 20
-9.9060011930767
 30
0.0
 10
18.94234442660957
 20
-9.87379894762273
 30
0.0
 10
19.0748638982832
 20
-9.833511469041904
 30
0.0
 10
19.20470537372378
 20
-9.785286137954687
 30
0.0
 10
19.16740158173283
 20
-9.651896039348552
 30
0.0
 10
19.122101845473882
 20
-9.521005148917135
 30
0.0
 10
19.06897188152867
 20
-9.39309229485532
 30
0.0
 10
19.008206051205658
 20
-9.268625411033906
 30
0.0
 10
18.940026649522835
 20
-9.14805982519271
 30
0.0
 10
18.86468309200277
 20
-9.031836593249702
 30
0.0
 10
18.78245100225474
 20
-8.92038088581966
 30
0.0
 10
18.693631203681857
 20
-8.814100432844846
 30
0.0
 10
18.598548619001665
 20
-8.713384032027543
 30
0.0
 10
18.49755108160605
 20
-8.618600126520963
 30
0.0
 10
18.39100806310881
 20
-8.530095457081687
 30
0.0
 10
18.279309321735713
 20
-8.4481937936143
 30
0.0
 10
18.162863476501627
 20
-8.373194750748565
 30
0.0
 10
16.730141499901137
 20
-7.71270087271695
 30
0.0
 10
16.83591530362686
 20
-7.495832436599649
 30
0.0
 10
17.287649658902577
 20
-6.377750672620224
 30
0.0
 10
18.763826718449682
 20
-6.922341141549865
 30
0.0
 10
18.899198697048565
 20
-6.951648456563027
 30
0.0
 10
19.03609485615173
 20
-6.972718172409697
 30
0.0
 10
19.1740143989464
 20
-6.985473211349994
 30
0.0
 10
19.31245278485303
 20
-6.989866912594527
 30
0.0
 10
19.450903575247757
 20
-6.985883203000018
 30
0.0
 10
19.588860286128337
 20
-6.973536655868459
 30
0.0
 10
19.725818240946033
 20
-6.952872437634705
 30
0.0
 10
19.861276416825508
 20
-6.9239661426375445
 30
0.0
 10
19.994739277418716
 20
-6.886923516578671
 30
0.0
 10
20.125718585687828
 20
-6.841880069681225
 30
0.0
 10
20.253735189985715
 20
-6.7890005809630445
 30
0.0
 10
20.378320776899976
 20
-6.728478495438108
 30
0.0
 10
20.49901958444829
 20
-6.6605352164513425
 30
0.0
 10
20.44130825532173
 20
-6.534622970051305
 30
0.0
 10
20.376090387563455
 20
-6.41243000369021
 30
0.0
 10
20.303604562741604
 20
-6.294403326608484
 30
0.0
 10
20.22411595023915
 20
-6.18097470682717
 30
0.0
 10
20.137915337204948
 20
-6.072559091643814
 30
0.0
 10
20.045318064789164
 20
-5.969553089662298
 30
0.0
 10
19.946662874554764
 20
-5.872333519909737
 30
0.0
 10
19.84231066928497
 20
-5.7812560333480745
 30
0.0
 10
19.73264319272006
 20
-5.6966538118232055
 30
0.0
 10
19.618061633053248
 20
-5.618836349211149
 30
0.0
 10
19.498985155294417
 20
-5.5480883192201365
 30
0.0
 10
19.375849367870632
 20
-5.484668533990419
 30
0.0
 10
19.249104729072947
 20
-5.428808997301491
 30
0.0
 10
17.734750155017014
 20
-5.001716836265935
 30
0.0
 10
18.026481356380206
 20
-3.831646896120944
 30
0.0
 10
18.0683806200439
 20
-3.5940243638496696
 30
0.0
 10
19.61570560806461
 20
-3.90180644032257
 30
0.0
 10
19.753995607115872
 20
-3.9095760906016643
 30
0.0
 10
19.892502377061348
 20
-3.908971125867707
 30
0.0
 10
20.030719229113046
 20
-3.8999937592171987
 30
0.0
 10
20.168140535067568
 20
-3.882676831868146
 30
0.0
 10
20.30426357700733
 20
-3.857083693019536
 30
0.0
 10
20.438590386355312
 20
-3.823307968105774
 30
0.0
 10
20.570629565555635
 20
-3.781473216293871
 30
0.0
 10
20.699898085715905
 20
-3.7317324784763395
 30
0.0
 10
20.825923053635083
 20
-3.6742677174133287
 30
0.0
 10
20.94824344175273
 20
-3.6092891520720864
 30
0.0
 10
21.066411774691108
 20
-3.5370344885989007
 30
0.0
 10
21.179995766220316
 20
-3.457768050736763
 30
0.0
 10
21.288579900658146
 20
-3.371779812869918
 30
0.0
 10
21.21188207885199
 20
-3.2564457960611324
 30
0.0
 10
21.128351959944286
 20
-3.145959550137377
 30
0.0
 10
21.038295115819565
 20
-3.0407252585335742
 30
0.0
 10
20.94204099458507
 20
-2.941127891859383
 30
0.0
 10
20.83994171537582
 20
-2.8475317995904788
 30
0.0
 10
20.732370780223924
 20
-2.760279377196563
 30
0.0
 10
20.619721707704528
 20
-2.6796898135820433
 30
0.0
 10
20.502406593356685
 20
-2.606057923421527
 30
0.0
 10
20.380854602145572
 20
-2.539653068661711
 30
0.0
 10
20.25551039848095
 20
-2.4807181731350383
 30
0.0
 10
20.12683251953512
 20
-2.429468833889918
 30
0.0
 10
19.995291697811272
 20
-2.3860925324884255
 30
0.0
 10
19.861369139098525
 20
-2.350747949156757
 30
0.0
 10
18.29187920886191
 20
-2.1649865744556083
 30
0.0
 10
18.384311059305713
 20
-1.2855562621550594
 30
0.0
 10
18.40395269976964
 20
-0.7230932709380399
 30
0.0
 10
19.98458072481446
 20
-0.7851963151813723
 30
0.0
 10
20.122383585583265
 20
-0.771236986150537
 30
0.0
 10
20.25909047001738
 20
-0.7489722370754655
 30
0.0
 10
20.394201273713165
 20
-0.718483517395258
 30
0.0
 10
20.527221731087813
 20
-0.6798823616755401
 30
0.0
 10
20.657665223513575
 20
-0.6333099815900403
 30
0.0
 10
20.785054559477693
 20
-0.5789367493366562
 30
0.0
 10
20.908923720255817
 20
-0.5169615743777947
 30
0.0
 10
21.02881956471291
 20
-0.4476111757850052
 30
0.0
 10
21.144303486995003
 20
-0.3711392528498345
 30
0.0
 10
21.254953021047637
 20
-0.287825556994993
 30
0.0
 10
21.360363386091347
 20
-0.197974868380991
 30
0.0
 10
21.460148967400393
 20
-0.10191588095204307
 30
0.0
 10
21.553944726967803
 20
2.220446049250313e-16
 30
0.0
 10
21.460148967400393
 20
0.10191588095204351
 30
0.0
 10
21.360363386091347
 20
0.19797486838099143
 30
0.0
 10
21.254953021047637
 20
0.28782555699499346
 30
0.0
 10
21.144303486995
 20
0.37113925284983473
 30
0.0
 10
21.02881956471291
 20
0.44761117578500564
 30
0.0
 10
20.908923720255817
 20
0.5169615743777949
 30
0.0
 10
20.78505455947769
 20
0.5789367493366564
 30
0.0
 10
20.657665223513575
 20
0.6333099815900409
 30
0.0
 10
20.527221731087813
 20
0.6798823616755403
 30
0.0
 10
20.394201273713165
 20
0.7184835173952582
 30
0.0
 10
20.25909047001738
 20
0.7489722370754657
 30
0.0
 10
20.122383585583265
 20
0.7712369861505377
 30
0.0
 10
19.984580724814457
 20
0.7851963151813721
 30
0.0
 10
18.40395269976964
 20
0.7230932709380397
 30
0.0
  0
ENDSEC
  0
EOF
