999
DXF generated by OpenJsCad
  0
SECTION
  2
HEADER
  0
ENDSEC
  0
SECTION
  2
TABLES
  0
TABLE
  2
LTYPE
  70
1
  0
LTYPE
  2
CONTINUOUS
  3
Solid Line
  72
65
  73
0
  40
0.0
  0
ENDTAB
  0
TABLE
  2
LAYER
  70
1
  0
LAYER
  2
OpenJsCad
  62
7
  6
continuous
  0
ENDTAB
  0
TABLE
  2
STYLE
  70
0
  0
ENDTAB
  0
TABLE
  2
VIEW
  70
0
  0
ENDTAB
  0
ENDSEC
  0
SECTION
  2
BLOCKS
  0
ENDSEC
  0
SECTION
  2
ENTITIES
  0
LWPOLYLINE
  8
OpenJsCad
  90
591
  70
1
 10
22.219332189048913
 20
-1.2389669313867313
 30
0.0
 10
22.262223655900478
 20
-1.3353027432220408
 30
0.0
 10
22.362038752222574
 20
-1.5230276365160986
 30
0.0
 10
22.474705730576904
 20
-1.7033324922592525
 30
0.0
 10
22.59967568877017
 20
-1.8753388833185032
 30
0.0
 10
22.736339785727992
 20
-2.038208811846631
 30
0.0
 10
22.88403220770742
 20
-2.1911487919234762
 30
0.0
 10
22.96239881713517
 20
-2.2617104039901323
 30
0.0
 10
21.65330578693498
 20
-3.71478637935442
 30
0.0
 10
21.63273032752682
 20
-3.741945632301401
 30
0.0
 10
21.61395993863036
 20
-3.770382352421181
 30
0.0
 10
21.59707368398732
 20
-3.799976759910188
 30
0.0
 10
21.582142691078488
 20
-3.830604198609036
 30
0.0
 10
21.569229851523943
 20
-3.8621356610732738
 30
0.0
 10
21.558389556173918
 20
-3.894438331972431
 30
0.0
 10
21.54966746600627
 20
-3.9273761475284528
 30
0.0
 10
21.543100319795464
 20
-3.9608103686370852
 30
0.0
 10
21.538715779363244
 20
-3.994600165258156
 30
0.0
 10
21.536532313062843
 20
-4.028603209613185
 30
0.0
 10
21.536559117987434
 20
-4.062676275691704
 30
0.0
 10
21.538796081230583
 20
-4.09667584254106
 30
0.0
 10
21.54323378036183
 20
-4.13045869879857
 30
0.0
 10
21.549853523115406
 20
-4.163882545919624
 30
0.0
 10
21.55862742612489
 20
-4.196806597560867
 30
0.0
 10
21.56951853237223
 20
-4.229092172593757
 30
0.0
 10
21.58248096685631
 20
-4.260603279250632
 30
0.0
 10
21.597460129825485
 20
-4.291207187942788
 30
0.0
 10
21.61439292676005
 20
-4.320774990337757
 30
0.0
 10
21.633208034135976
 20
-4.349182142340862
 30
0.0
 10
21.65382619985048
 20
-4.376308988693953
 30
0.0
 10
21.676160577043987
 20
-4.402041266981607
 30
0.0
 10
21.700117089912325
 20
-4.426270588921855
 30
0.0
 10
21.725594829968394
 20
-4.448894896914155
 30
0.0
 10
21.752486481084087
 20
-4.469818893921586
 30
0.0
 10
21.780696361986493
 20
-4.488928503283553
 30
0.0
 10
21.810086412184834
 20
-4.506167978328758
 30
0.0
 10
21.840532836303797
 20
-4.521464703758184
 30
0.0
 10
21.871907389359965
 20
-4.53475424743059
 30
0.0
 10
21.90407791694923
 20
-4.545980631760521
 30
0.0
 10
21.93690891190132
 20
-4.555096569504435
 30
0.0
 10
21.970262085056664
 20
-4.5620636629417906
 30
0.0
 10
22.00399694776143
 20
-4.566852565612098
 30
0.0
 10
22.037971403627175
 20
-4.5694431059266964
 30
0.0
 10
22.07204234706251
 20
-4.569824372134558
 30
0.0
 10
22.10606626605568
 20
-4.5679947582842475
 30
0.0
 10
22.139899846669056
 20
-4.563961970988435
 30
0.0
 10
22.173400576699304
 20
-4.557742996962471
 30
0.0
 10
22.20642734596052
 20
-4.549364031473742
 30
0.0
 10
22.23884104066188
 20
-4.538860368003219
 30
0.0
 10
22.27050512937614
 20
-4.526276249583923
 30
0.0
 10
22.301286238130817
 20
-4.511664682442519
 30
0.0
 10
22.33105471219975
 20
-4.495087212729009
 30
0.0
 10
22.35968516222856
 20
-4.476613667274956
 30
0.0
 10
22.387056992393738
 20
-4.45632185947221
 30
0.0
 10
22.413054908370675
 20
-4.434297261511039
 30
0.0
 10
22.437569402970926
 20
-4.410632644358223
 30
0.0
 10
22.460497217403198
 20
-4.385427686991579
 30
0.0
 10
22.48174177621514
 20
-4.358788556536909
 30
0.0
 10
22.501213594083882
 20
-4.330827461075865
 30
0.0
 10
23.47863897557637
 20
-2.6367808337618883
 30
0.0
 10
23.56996367063737
 20
-2.6895071710390193
 30
0.0
 10
23.761057703623546
 20
-2.782709958406855
 30
0.0
 10
23.95818773893962
 20
-2.8623556625743602
 30
0.0
 10
24.160393378868978
 20
-2.928056257676788
 30
0.0
 10
24.366689497859525
 20
-2.9794916570189995
 30
0.0
 10
24.57607104195635
 20
-3.0164112725056693
 30
0.0
 10
24.68094603572571
 20
-3.02743407852429
 30
0.0
 10
24.47596415585559
 20
-4.972462813742488
 30
0.0
 10
24.47528206787283
 20
-5.006529062530383
 30
0.0
 10
24.47681118897454
 20
-5.0405678101447045
 30
0.0
 10
24.48054507826935
 20
-5.074435680187403
 30
0.0
 10
24.486468008045893
 20
-5.10799001602284
 30
0.0
 10
24.494555030020322
 20
-5.141089481669285
 30
0.0
 10
24.50477208042229
 20
-5.1735946571276425
 30
0.0
 10
24.51707612347675
 20
-5.20536862563976
 30
0.0
 10
24.531415332677202
 20
-5.236277550402696
 30
0.0
 10
24.54772930908684
 20
-5.266191238309752
 30
0.0
 10
24.565949335748105
 20
-5.294983688343709
 30
0.0
 10
24.58599866712897
 20
-5.32253362231233
 30
0.0
 10
24.607792852386854
 20
-5.348724995690602
 30
0.0
 10
24.631240091088436
 20
-5.373447486417994
 30
0.0
 10
24.656241619887105
 20
-5.396596959591798
 30
0.0
 10
24.68269212852921
 20
-5.418075906099222
 30
0.0
 10
24.710480203436965
 20
-5.437793853340662
 30
0.0
 10
24.739488796999385
 20
-5.455667746314084
 30
0.0
 10
24.769595720594715
 20
-5.4716222974553705
 30
0.0
 10
24.80067415926754
 20
-5.48559030376102
 30
0.0
 10
24.832593205892707
 20
-5.497512929857457
 30
0.0
 10
24.865218412576134
 20
-5.507339955824597
 30
0.0
 10
24.89841235696983
 20
-5.515029988729814
 30
0.0
 10
24.9320352211158
 20
-5.52055063698129
 30
0.0
 10
24.965945380380624
 20
-5.523878646766335
 30
0.0
 10
25
 20
-5.525
 30
0.0
 10
25.03405461961938
 20
-5.523878646766335
 30
0.0
 10
25.067964778884203
 20
-5.52055063698129
 30
0.0
 10
25.101587643030175
 20
-5.515029988729814
 30
0.0
 10
25.13478158742387
 20
-5.507339955824596
 30
0.0
 10
25.167406794107297
 20
-5.497512929857457
 30
0.0
 10
25.199325840732463
 20
-5.48559030376102
 30
0.0
 10
25.230404279405285
 20
-5.4716222974553705
 30
0.0
 10
25.26051120300062
 20
-5.455667746314084
 30
0.0
 10
25.289519796563038
 20
-5.437793853340662
 30
0.0
 10
25.317307871470792
 20
-5.418075906099221
 30
0.0
 10
25.3437583801129
 20
-5.396596959591796
 30
0.0
 10
25.368759908911564
 20
-5.373447486417994
 30
0.0
 10
25.39220714761315
 20
-5.348724995690602
 30
0.0
 10
25.41400133287103
 20
-5.322533622312328
 30
0.0
 10
25.4340506642519
 20
-5.29498368834371
 30
0.0
 10
25.452270690913164
 20
-5.266191238309752
 30
0.0
 10
25.4685846673228
 20
-5.236277550402695
 30
0.0
 10
25.48292387652325
 20
-5.20536862563976
 30
0.0
 10
25.495227919577715
 20
-5.1735946571276425
 30
0.0
 10
25.50544496997968
 20
-5.141089481669284
 30
0.0
 10
25.51353199195411
 20
-5.107990016022839
 30
0.0
 10
25.519454921730652
 20
-5.074435680187402
 30
0.0
 10
25.523188811025463
 20
-5.040567810144703
 30
0.0
 10
25.52471793212717
 20
-5.006529062530382
 30
0.0
 10
25.524035844144414
 20
-4.972462813742486
 30
0.0
 10
25.319053964274293
 20
-3.02743407852429
 30
0.0
 10
25.42392895804365
 20
-3.016411272505669
 30
0.0
 10
25.633310502140475
 20
-2.979491657018999
 30
0.0
 10
25.839606621131022
 20
-2.9280562576767872
 30
0.0
 10
26.04181226106038
 20
-2.8623556625743594
 30
0.0
 10
26.238942296376457
 20
-2.782709958406855
 30
0.0
 10
26.43003632936263
 20
-2.689507171039018
 30
0.0
 10
26.521361024423634
 20
-2.6367808337618874
 30
0.0
 10
27.498786405916118
 20
-4.330827461075863
 30
0.0
 10
27.51825822378486
 20
-4.358788556536908
 30
0.0
 10
27.539502782596806
 20
-4.385427686991577
 30
0.0
 10
27.562430597029078
 20
-4.4106326443582216
 30
0.0
 10
27.586945091629325
 20
-4.434297261511039
 30
0.0
 10
27.612943007606265
 20
-4.456321859472209
 30
0.0
 10
27.640314837771445
 20
-4.476613667274954
 30
0.0
 10
27.668945287800252
 20
-4.4950872127290085
 30
0.0
 10
27.698713761869186
 20
-4.511664682442518
 30
0.0
 10
27.729494870623864
 20
-4.526276249583922
 30
0.0
 10
27.76115895933812
 20
-4.538860368003219
 30
0.0
 10
27.79357265403948
 20
-4.549364031473741
 30
0.0
 10
27.8265994233007
 20
-4.557742996962469
 30
0.0
 10
27.860100153330947
 20
-4.5639619709884345
 30
0.0
 10
27.893933733944323
 20
-4.567994758284247
 30
0.0
 10
27.92795765293749
 20
-4.5698243721345575
 30
0.0
 10
27.962028596372825
 20
-4.569443105926696
 30
0.0
 10
27.996003052238574
 20
-4.5668525656120975
 30
0.0
 10
28.02973791494334
 20
-4.56206366294179
 30
0.0
 10
28.06309108809868
 20
-4.5550965695044345
 30
0.0
 10
28.09592208305077
 20
-4.5459806317605205
 30
0.0
 10
28.12809261064004
 20
-4.534754247430588
 30
0.0
 10
28.159467163696206
 20
-4.521464703758182
 30
0.0
 10
28.18991358781517
 20
-4.506167978328756
 30
0.0
 10
28.219303638013507
 20
-4.488928503283551
 30
0.0
 10
28.247513518915916
 20
-4.469818893921585
 30
0.0
 10
28.274405170031606
 20
-4.448894896914153
 30
0.0
 10
28.299882910087675
 20
-4.426270588921852
 30
0.0
 10
28.323839422956016
 20
-4.402041266981605
 30
0.0
 10
28.346173800149522
 20
-4.376308988693952
 30
0.0
 10
28.366791965864028
 20
-4.34918214234086
 30
0.0
 10
28.385607073239953
 20
-4.320774990337756
 30
0.0
 10
28.402539870174518
 20
-4.2912071879427875
 30
0.0
 10
28.417519033143694
 20
-4.260603279250629
 30
0.0
 10
28.430481467627775
 20
-4.229092172593755
 30
0.0
 10
28.441372573875114
 20
-4.196806597560865
 30
0.0
 10
28.450146476884598
 20
-4.163882545919623
 30
0.0
 10
28.45676621963817
 20
-4.130458698798568
 30
0.0
 10
28.461203918769417
 20
-4.0966758425410585
 30
0.0
 10
28.46344088201257
 20
-4.062676275691703
 30
0.0
 10
28.463467686937157
 20
-4.028603209613183
 30
0.0
 10
28.461284220636756
 20
-3.9946001652581553
 30
0.0
 10
28.45689968020454
 20
-3.9608103686370844
 30
0.0
 10
28.45033253399373
 20
-3.9273761475284514
 30
0.0
 10
28.441610443826082
 20
-3.894438331972429
 30
0.0
 10
28.430770148476057
 20
-3.8621356610732724
 30
0.0
 10
28.417857308921512
 20
-3.8306041986090347
 30
0.0
 10
28.402926316012685
 20
-3.7999767599101864
 30
0.0
 10
28.386040061369645
 20
-3.7703823524211795
 30
0.0
 10
28.367269672473185
 20
-3.741945632301399
 30
0.0
 10
28.34669421306502
 20
-3.7147863793544187
 30
0.0
 10
27.03760118286483
 20
-2.261710403990131
 30
0.0
 10
27.115967792292583
 20
-2.191148791923474
 30
0.0
 10
27.263660214272008
 20
-2.0382088118466304
 30
0.0
 10
27.40032431122983
 20
-1.8753388833185023
 30
0.0
 10
27.525294269423096
 20
-1.7033324922592512
 30
0.0
 10
27.637961247777426
 20
-1.523027636516097
 30
0.0
 10
27.737776344099522
 20
-1.3353027432220386
 30
0.0
 10
27.780667810951087
 20
-1.23896693138673
 30
0.0
 10
29.567157179542882
 20
-2.034963217689672
 30
0.0
 10
29.59934533066001
 20
-2.046138971720426
 30
0.0
 10
29.63219062779202
 20
-2.0552032426125044
 30
0.0
 10
29.66555472153638
 20
-2.062117850274027
 30
0.0
 10
29.699297077240068
 20
-2.066853669322602
 30
0.0
 10
29.73327556695299
 20
-2.069390751765882
 30
0.0
 10
29.767347068092572
 20
-2.0697184110255455
 30
0.0
 10
29.80136806629793
 20
-2.0678352669508038
 30
0.0
 10
29.83519525993423
 20
-2.0637492516317995
 30
0.0
 10
29.86868616370107
 20
-2.0574775759884343
 30
0.0
 10
29.901699708802262
 20
-2.049046657275353
 30
0.0
 10
29.93409683714916
 20
-2.03849200780843
 30
0.0
 10
29.96574108709453
 20
-2.025858085381482
 30
0.0
 10
29.996499168229818
 20
-2.0111981060032535
 30
0.0
 10
30.026241522824705
 20
-1.994573819743474
 30
0.0
 10
30.054842871544018
 20
-1.9760552506321403
 30
0.0
 10
30.082182741143413
 20
-1.9557204017076177
 30
0.0
 10
30.108145971921054
 20
-1.9336549264559473
 30
0.0
 10
30.132623202787844
 20
-1.909951768025288
 30
0.0
 10
30.155511331913026
 20
-1.8847107677352024
 30
0.0
 10
30.176713951004814
 20
-1.8580382445297847
 30
0.0
 10
30.196141751396837
 20
-1.830046547146047
 30
0.0
 10
30.213712900229858
 20
-1.8008535808838988
 30
0.0
 10
30.229353385144265
 20
-1.7705823109710368
 30
0.0
 10
30.242997326031418
 20
-1.7393602446146448
 30
0.0
 10
30.254587252530726
 20
-1.707318893921584
 30
0.0
 10
30.26404423843014
 20
-1.6745845088167233
 30
0.0
 10
30.27135792853257
 20
-1.6413056192982811
 30
0.0
 10
30.276497516459496
 20
-1.6076224011260745
 30
0.0
 10
30.279441353482454
 20
-1.5736767331538966
 30
0.0
 10
30.28017703971078
 20
-1.5396115997141389
 30
0.0
 10
30.278701476321835
 20
-1.5055704883459666
 30
0.0
 10
30.275020878613738
 20
-1.4716967854039174
 30
0.0
 10
30.269150749825556
 20
-1.4381331720926944
 30
0.0
 10
30.261115815835325
 20
-1.4050210234721703
 30
0.0
 10
30.25094992101085
 20
-1.3724998129640613
 30
0.0
 10
30.23869588565208
 20
-1.340706524868598
 30
0.0
 10
30.22440532562548
 20
-1.3097750773657544
 30
0.0
 10
30.2081384349501
 20
-1.2798357584314435
 30
0.0
 10
30.189963732251215
 20
-1.251014677044683
 30
0.0
 10
30.169957772149402
 20
-1.2234332319973387
 30
0.0
 10
30.1482048228008
 20
-1.197207600543888
 30
0.0
 10
30.124796510946787
 20
-1.172448249045106
 30
0.0
 10
30.099831435968156
 20
-1.1492594676668946
 30
0.0
 10
30.073414754569498
 20
-1.1277389310941945
 30
0.0
 10
30.045657737843104
 20
-1.1079772871103142
 30
0.0
 10
30.016677302578145
 20
-1.0900577747746305
 30
0.0
 10
29.98659551878934
 20
-1.0740558738069776
 30
0.0
 10
29.955539095539404
 20
-1.0600389866555482
 30
0.0
 10
29.923638847221163
 20
-1.0480661545874974
 30
0.0
 10
29.89102914254737
 20
-1.0381878089981216
 30
0.0
 10
27.977854005117994
 20
-0.632090227840998
 30
0.0
 10
27.999778848985827
 20
-0.528941947234785
 30
0.0
 10
28.0293686635325
 20
-0.31839947671838775
 30
0.0
 10
28.044199698461522
 20
-0.10630579595682255
 30
0.0
 10
28.044199698461522
 20
0.1063057959568221
 30
0.0
 10
28.0293686635325
 20
0.3183994767183891
 30
0.0
 10
27.999778848985823
 20
0.5289419472347847
 30
0.0
 10
27.977854005117994
 20
0.6320902278409992
 30
0.0
 10
29.89102914254737
 20
1.0381878089981234
 30
0.0
 10
29.923638847221163
 20
1.0480661545874987
 30
0.0
 10
29.955539095539404
 20
1.0600389866555497
 30
0.0
 10
29.986595518789336
 20
1.0740558738069794
 30
0.0
 10
30.016677302578145
 20
1.0900577747746325
 30
0.0
 10
30.0456577378431
 20
1.1079772871103157
 30
0.0
 10
30.073414754569498
 20
1.1277389310941963
 30
0.0
 10
30.099831435968156
 20
1.1492594676668961
 30
0.0
 10
30.124796510946783
 20
1.1724482490451078
 30
0.0
 10
30.1482048228008
 20
1.1972076005438903
 30
0.0
 10
30.169957772149402
 20
1.2234332319973402
 30
0.0
 10
30.189963732251215
 20
1.251014677044685
 30
0.0
 10
30.2081384349501
 20
1.2798357584314455
 30
0.0
 10
30.224405325625476
 20
1.3097750773657564
 30
0.0
 10
30.23869588565208
 20
1.3407065248685994
 30
0.0
 10
30.25094992101085
 20
1.3724998129640626
 30
0.0
 10
30.261115815835325
 20
1.405021023472172
 30
0.0
 10
30.269150749825556
 20
1.4381331720926962
 30
0.0
 10
30.275020878613738
 20
1.471696785403919
 30
0.0
 10
30.278701476321835
 20
1.5055704883459686
 30
0.0
 10
30.28017703971078
 20
1.5396115997141404
 30
0.0
 10
30.279441353482454
 20
1.5736767331538986
 30
0.0
 10
30.276497516459496
 20
1.6076224011260762
 30
0.0
 10
30.27135792853257
 20
1.6413056192982827
 30
0.0
 10
30.264044238430138
 20
1.674584508816725
 30
0.0
 10
30.254587252530722
 20
1.7073188939215858
 30
0.0
 10
30.242997326031414
 20
1.7393602446146468
 30
0.0
 10
30.229353385144265
 20
1.7705823109710386
 30
0.0
 10
30.213712900229858
 20
1.8008535808839004
 30
0.0
 10
30.196141751396837
 20
1.8300465471460488
 30
0.0
 10
30.176713951004814
 20
1.8580382445297865
 30
0.0
 10
30.155511331913026
 20
1.8847107677352042
 30
0.0
 10
30.13262320278784
 20
1.9099517680252895
 30
0.0
 10
30.10814597192105
 20
1.9336549264559486
 30
0.0
 10
30.082182741143413
 20
1.9557204017076197
 30
0.0
 10
30.054842871544018
 20
1.9760552506321418
 30
0.0
 10
30.026241522824705
 20
1.994573819743476
 30
0.0
 10
29.996499168229818
 20
2.0111981060032553
 30
0.0
 10
29.96574108709453
 20
2.025858085381483
 30
0.0
 10
29.93409683714916
 20
2.038492007808432
 30
0.0
 10
29.901699708802262
 20
2.0490466572753547
 30
0.0
 10
29.868686163701067
 20
2.057477575988436
 30
0.0
 10
29.83519525993423
 20
2.0637492516318003
 30
0.0
 10
29.80136806629793
 20
2.067835266950805
 30
0.0
 10
29.767347068092572
 20
2.069718411025547
 30
0.0
 10
29.73327556695299
 20
2.069390751765883
 30
0.0
 10
29.699297077240068
 20
2.066853669322604
 30
0.0
 10
29.66555472153638
 20
2.0621178502740287
 30
0.0
 10
29.63219062779202
 20
2.0552032426125058
 30
0.0
 10
29.59934533066001
 20
2.0461389717204272
 30
0.0
 10
29.567157179542882
 20
2.0349632176896737
 30
0.0
 10
27.780667810951087
 20
1.238966931386731
 30
0.0
 10
27.73777634409952
 20
1.335302743222041
 30
0.0
 10
27.637961247777426
 20
1.523027636516098
 30
0.0
 10
27.525294269423096
 20
1.703332492259252
 30
0.0
 10
27.40032431122983
 20
1.875338883318503
 30
0.0
 10
27.263660214272008
 20
2.03820881184663
 30
0.0
 10
27.11596779229258
 20
2.1911487919234762
 30
0.0
 10
27.03760118286483
 20
2.261710403990132
 30
0.0
 10
28.346694213065017
 20
3.714786379354419
 30
0.0
 10
28.36726967247318
 20
3.741945632301401
 30
0.0
 10
28.38604006136964
 20
3.770382352421181
 30
0.0
 10
28.40292631601268
 20
3.7999767599101872
 30
0.0
 10
28.417857308921512
 20
3.8306041986090356
 30
0.0
 10
28.430770148476057
 20
3.8621356610732733
 30
0.0
 10
28.441610443826082
 20
3.894438331972431
 30
0.0
 10
28.45033253399373
 20
3.9273761475284523
 30
0.0
 10
28.456899680204536
 20
3.960810368637085
 30
0.0
 10
28.461284220636756
 20
3.9946001652581558
 30
0.0
 10
28.463467686937157
 20
4.028603209613185
 30
0.0
 10
28.463440882012566
 20
4.062676275691704
 30
0.0
 10
28.461203918769417
 20
4.09667584254106
 30
0.0
 10
28.45676621963817
 20
4.13045869879857
 30
0.0
 10
28.450146476884594
 20
4.163882545919624
 30
0.0
 10
28.44137257387511
 20
4.196806597560867
 30
0.0
 10
28.43048146762777
 20
4.229092172593756
 30
0.0
 10
28.41751903314369
 20
4.260603279250631
 30
0.0
 10
28.402539870174515
 20
4.291207187942788
 30
0.0
 10
28.38560707323995
 20
4.320774990337757
 30
0.0
 10
28.366791965864024
 20
4.349182142340862
 30
0.0
 10
28.34617380014952
 20
4.376308988693953
 30
0.0
 10
28.323839422956013
 20
4.402041266981607
 30
0.0
 10
28.299882910087675
 20
4.426270588921854
 30
0.0
 10
28.274405170031606
 20
4.448894896914154
 30
0.0
 10
28.247513518915913
 20
4.469818893921586
 30
0.0
 10
28.219303638013507
 20
4.488928503283553
 30
0.0
 10
28.189913587815166
 20
4.506167978328757
 30
0.0
 10
28.159467163696203
 20
4.521464703758182
 30
0.0
 10
28.128092610640035
 20
4.534754247430589
 30
0.0
 10
28.09592208305077
 20
4.545980631760521
 30
0.0
 10
28.06309108809868
 20
4.555096569504435
 30
0.0
 10
28.029737914943336
 20
4.56206366294179
 30
0.0
 10
27.99600305223857
 20
4.5668525656120975
 30
0.0
 10
27.962028596372825
 20
4.5694431059266964
 30
0.0
 10
27.92795765293749
 20
4.569824372134558
 30
0.0
 10
27.89393373394432
 20
4.567994758284247
 30
0.0
 10
27.860100153330944
 20
4.563961970988435
 30
0.0
 10
27.826599423300696
 20
4.55774299696247
 30
0.0
 10
27.79357265403948
 20
4.549364031473742
 30
0.0
 10
27.76115895933812
 20
4.538860368003219
 30
0.0
 10
27.72949487062386
 20
4.526276249583923
 30
0.0
 10
27.698713761869183
 20
4.511664682442518
 30
0.0
 10
27.668945287800252
 20
4.495087212729009
 30
0.0
 10
27.64031483777144
 20
4.476613667274956
 30
0.0
 10
27.612943007606262
 20
4.456321859472209
 30
0.0
 10
27.586945091629325
 20
4.434297261511039
 30
0.0
 10
27.562430597029074
 20
4.4106326443582216
 30
0.0
 10
27.539502782596802
 20
4.385427686991579
 30
0.0
 10
27.51825822378486
 20
4.358788556536908
 30
0.0
 10
27.498786405916118
 20
4.330827461075865
 30
0.0
 10
26.52136102442363
 20
2.636780833761888
 30
0.0
 10
26.43003632936263
 20
2.6895071710390193
 30
0.0
 10
26.238942296376457
 20
2.782709958406855
 30
0.0
 10
26.04181226106038
 20
2.8623556625743602
 30
0.0
 10
25.839606621131022
 20
2.9280562576767872
 30
0.0
 10
25.633310502140475
 20
2.979491657018999
 30
0.0
 10
25.42392895804365
 20
3.0164112725056684
 30
0.0
 10
25.319053964274293
 20
3.02743407852429
 30
0.0
 10
25.52403584414441
 20
4.972462813742489
 30
0.0
 10
25.52471793212717
 20
5.006529062530383
 30
0.0
 10
25.52318881102546
 20
5.040567810144704
 30
0.0
 10
25.51945492173065
 20
5.074435680187403
 30
0.0
 10
25.513531991954107
 20
5.10799001602284
 30
0.0
 10
25.50544496997968
 20
5.141089481669284
 30
0.0
 10
25.49522791957771
 20
5.1735946571276425
 30
0.0
 10
25.48292387652325
 20
5.205368625639761
 30
0.0
 10
25.4685846673228
 20
5.236277550402696
 30
0.0
 10
25.45227069091316
 20
5.266191238309752
 30
0.0
 10
25.434050664251895
 20
5.294983688343709
 30
0.0
 10
25.41400133287103
 20
5.32253362231233
 30
0.0
 10
25.392207147613146
 20
5.348724995690602
 30
0.0
 10
25.368759908911564
 20
5.373447486417994
 30
0.0
 10
25.3437583801129
 20
5.396596959591798
 30
0.0
 10
25.31730787147079
 20
5.418075906099221
 30
0.0
 10
25.289519796563035
 20
5.437793853340662
 30
0.0
 10
25.260511203000615
 20
5.455667746314084
 30
0.0
 10
25.230404279405285
 20
5.4716222974553705
 30
0.0
 10
25.19932584073246
 20
5.48559030376102
 30
0.0
 10
25.167406794107293
 20
5.497512929857457
 30
0.0
 10
25.134781587423866
 20
5.507339955824598
 30
0.0
 10
25.10158764303017
 20
5.515029988729814
 30
0.0
 10
25.0679647788842
 20
5.52055063698129
 30
0.0
 10
25.034054619619376
 20
5.523878646766335
 30
0.0
 10
25
 20
5.525
 30
0.0
 10
24.965945380380624
 20
5.523878646766335
 30
0.0
 10
24.9320352211158
 20
5.52055063698129
 30
0.0
 10
24.898412356969825
 20
5.515029988729815
 30
0.0
 10
24.86521841257613
 20
5.507339955824596
 30
0.0
 10
24.832593205892707
 20
5.497512929857457
 30
0.0
 10
24.800674159267537
 20
5.48559030376102
 30
0.0
 10
24.769595720594715
 20
5.471622297455371
 30
0.0
 10
24.73948879699938
 20
5.455667746314085
 30
0.0
 10
24.710480203436962
 20
5.437793853340662
 30
0.0
 10
24.682692128529208
 20
5.418075906099222
 30
0.0
 10
24.6562416198871
 20
5.396596959591797
 30
0.0
 10
24.631240091088436
 20
5.373447486417994
 30
0.0
 10
24.60779285238685
 20
5.348724995690602
 30
0.0
 10
24.58599866712897
 20
5.322533622312328
 30
0.0
 10
24.5659493357481
 20
5.29498368834371
 30
0.0
 10
24.54772930908684
 20
5.266191238309753
 30
0.0
 10
24.5314153326772
 20
5.236277550402695
 30
0.0
 10
24.51707612347675
 20
5.20536862563976
 30
0.0
 10
24.504772080422285
 20
5.1735946571276425
 30
0.0
 10
24.49455503002032
 20
5.141089481669285
 30
0.0
 10
24.48646800804589
 20
5.107990016022839
 30
0.0
 10
24.480545078269348
 20
5.074435680187402
 30
0.0
 10
24.476811188974537
 20
5.040567810144704
 30
0.0
 10
24.47528206787283
 20
5.006529062530383
 30
0.0
 10
24.475964155855586
 20
4.972462813742486
 30
0.0
 10
24.680946035725707
 20
3.02743407852429
 30
0.0
 10
24.57607104195635
 20
3.016411272505669
 30
0.0
 10
24.366689497859525
 20
2.9794916570189995
 30
0.0
 10
24.160393378868978
 20
2.9280562576767877
 30
0.0
 10
23.958187738939618
 20
2.862355662574359
 30
0.0
 10
23.761057703623546
 20
2.7827099584068553
 30
0.0
 10
23.56996367063737
 20
2.6895071710390184
 30
0.0
 10
23.478638975576366
 20
2.636780833761888
 30
0.0
 10
22.501213594083882
 20
4.330827461075864
 30
0.0
 10
22.48174177621514
 20
4.358788556536908
 30
0.0
 10
22.460497217403198
 20
4.385427686991577
 30
0.0
 10
22.437569402970922
 20
4.4106326443582216
 30
0.0
 10
22.413054908370675
 20
4.434297261511039
 30
0.0
 10
22.387056992393738
 20
4.456321859472209
 30
0.0
 10
22.359685162228555
 20
4.476613667274954
 30
0.0
 10
22.331054712199748
 20
4.495087212729009
 30
0.0
 10
22.301286238130814
 20
4.511664682442518
 30
0.0
 10
22.270505129376136
 20
4.526276249583922
 30
0.0
 10
22.23884104066188
 20
4.53886036800322
 30
0.0
 10
22.20642734596052
 20
4.549364031473741
 30
0.0
 10
22.1734005766993
 20
4.557742996962469
 30
0.0
 10
22.139899846669056
 20
4.5639619709884345
 30
0.0
 10
22.10606626605568
 20
4.567994758284247
 30
0.0
 10
22.07204234706251
 20
4.5698243721345575
 30
0.0
 10
22.037971403627175
 20
4.5694431059266964
 30
0.0
 10
22.00399694776143
 20
4.5668525656120975
 30
0.0
 10
21.97026208505666
 20
4.56206366294179
 30
0.0
 10
21.93690891190132
 20
4.5550965695044345
 30
0.0
 10
21.90407791694923
 20
4.5459806317605205
 30
0.0
 10
21.871907389359965
 20
4.534754247430588
 30
0.0
 10
21.840532836303797
 20
4.521464703758182
 30
0.0
 10
21.81008641218483
 20
4.506167978328756
 30
0.0
 10
21.780696361986493
 20
4.488928503283552
 30
0.0
 10
21.752486481084084
 20
4.469818893921585
 30
0.0
 10
21.725594829968394
 20
4.448894896914153
 30
0.0
 10
21.700117089912325
 20
4.426270588921853
 30
0.0
 10
21.676160577043984
 20
4.402041266981606
 30
0.0
 10
21.653826199850478
 20
4.376308988693952
 30
0.0
 10
21.633208034135972
 20
4.349182142340861
 30
0.0
 10
21.614392926760047
 20
4.320774990337756
 30
0.0
 10
21.597460129825485
 20
4.2912071879427875
 30
0.0
 10
21.582480966856306
 20
4.260603279250629
 30
0.0
 10
21.569518532372225
 20
4.229092172593755
 30
0.0
 10
21.558627426124886
 20
4.196806597560866
 30
0.0
 10
21.549853523115402
 20
4.163882545919623
 30
0.0
 10
21.54323378036183
 20
4.130458698798568
 30
0.0
 10
21.538796081230583
 20
4.0966758425410585
 30
0.0
 10
21.536559117987434
 20
4.062676275691703
 30
0.0
 10
21.536532313062843
 20
4.028603209613184
 30
0.0
 10
21.538715779363244
 20
3.9946001652581553
 30
0.0
 10
21.54310031979546
 20
3.9608103686370844
 30
0.0
 10
21.54966746600627
 20
3.9273761475284514
 30
0.0
 10
21.558389556173918
 20
3.894438331972429
 30
0.0
 10
21.569229851523943
 20
3.862135661073273
 30
0.0
 10
21.582142691078488
 20
3.830604198609035
 30
0.0
 10
21.597073683987315
 20
3.799976759910187
 30
0.0
 10
21.613959938630355
 20
3.77038235242118
 30
0.0
 10
21.63273032752682
 20
3.7419456323013995
 30
0.0
 10
21.65330578693498
 20
3.7147863793544187
 30
0.0
 10
22.96239881713517
 20
2.2617104039901315
 30
0.0
 10
22.884032207707417
 20
2.1911487919234744
 30
0.0
 10
22.736339785727992
 20
2.03820881184663
 30
0.0
 10
22.59967568877017
 20
1.8753388833185036
 30
0.0
 10
22.474705730576904
 20
1.7033324922592503
 30
0.0
 10
22.362038752222574
 20
1.5230276365160984
 30
0.0
 10
22.262223655900478
 20
1.33530274322204
 30
0.0
 10
22.219332189048913
 20
1.23896693138673
 30
0.0
 10
20.432842820457118
 20
2.034963217689672
 30
0.0
 10
20.40065466933999
 20
2.046138971720426
 30
0.0
 10
20.367809372207976
 20
2.055203242612505
 30
0.0
 10
20.33444527846362
 20
2.0621178502740274
 30
0.0
 10
20.300702922759932
 20
2.0668536693226027
 30
0.0
 10
20.26672443304701
 20
2.069390751765882
 30
0.0
 10
20.232652931907428
 20
2.0697184110255464
 30
0.0
 10
20.19863193370207
 20
2.067835266950804
 30
0.0
 10
20.16480474006577
 20
2.0637492516317995
 30
0.0
 10
20.13131383629893
 20
2.057477575988435
 30
0.0
 10
20.098300291197738
 20
2.0490466572753534
 30
0.0
 10
20.06590316285084
 20
2.038492007808431
 30
0.0
 10
20.03425891290547
 20
2.0258580853814823
 30
0.0
 10
20.003500831770182
 20
2.011198106003254
 30
0.0
 10
19.973758477175295
 20
1.9945738197434744
 30
0.0
 10
19.945157128455982
 20
1.9760552506321403
 30
0.0
 10
19.917817258856587
 20
1.9557204017076182
 30
0.0
 10
19.891854028078946
 20
1.9336549264559477
 30
0.0
 10
19.867376797212156
 20
1.9099517680252884
 30
0.0
 10
19.844488668086974
 20
1.8847107677352029
 30
0.0
 10
19.823286048995186
 20
1.8580382445297852
 30
0.0
 10
19.803858248603163
 20
1.8300465471460474
 30
0.0
 10
19.786287099770142
 20
1.8008535808838992
 30
0.0
 10
19.770646614855735
 20
1.7705823109710377
 30
0.0
 10
19.757002673968582
 20
1.7393602446146452
 30
0.0
 10
19.745412747469274
 20
1.7073188939215849
 30
0.0
 10
19.73595576156986
 20
1.6745845088167237
 30
0.0
 10
19.72864207146743
 20
1.6413056192982816
 30
0.0
 10
19.723502483540504
 20
1.607622401126075
 30
0.0
 10
19.720558646517546
 20
1.573676733153897
 30
0.0
 10
19.71982296028922
 20
1.5396115997141393
 30
0.0
 10
19.721298523678165
 20
1.505570488345967
 30
0.0
 10
19.724979121386262
 20
1.4716967854039178
 30
0.0
 10
19.730849250174444
 20
1.4381331720926949
 30
0.0
 10
19.738884184164675
 20
1.4050210234721707
 30
0.0
 10
19.74905007898915
 20
1.3724998129640618
 30
0.0
 10
19.76130411434792
 20
1.3407065248685985
 30
0.0
 10
19.77559467437452
 20
1.3097750773657548
 30
0.0
 10
19.7918615650499
 20
1.279835758431444
 30
0.0
 10
19.810036267748785
 20
1.251014677044684
 30
0.0
 10
19.830042227850598
 20
1.223433231997339
 30
0.0
 10
19.8517951771992
 20
1.197207600543889
 30
0.0
 10
19.875203489053213
 20
1.1724482490451065
 30
0.0
 10
19.900168564031844
 20
1.1492594676668946
 30
0.0
 10
19.926585245430502
 20
1.1277389310941954
 30
0.0
 10
19.954342262156896
 20
1.1079772871103146
 30
0.0
 10
19.983322697421855
 20
1.0900577747746314
 30
0.0
 10
20.01340448121066
 20
1.074055873806978
 30
0.0
 10
20.044460904460596
 20
1.0600389866555482
 30
0.0
 10
20.076361152778837
 20
1.0480661545874979
 30
0.0
 10
20.108970857452626
 20
1.038187808998122
 30
0.0
 10
22.022145994882006
 20
0.6320902278409987
 30
0.0
 10
22.000221151014173
 20
0.5289419472347838
 30
0.0
 10
21.9706313364675
 20
0.318399476718387
 30
0.0
 10
21.955800301538478
 20
0.10630579595682144
 30
0.0
 10
21.955800301538478
 20
-0.10630579595682177
 30
0.0
 10
21.9706313364675
 20
-0.3183994767183874
 30
0.0
 10
22.000221151014177
 20
-0.5289419472347844
 30
0.0
 10
22.022145994882006
 20
-0.6320902278409997
 30
0.0
 10
20.10897085745263
 20
-1.0381878089981238
 30
0.0
 10
20.076361152778837
 20
-1.0480661545874994
 30
0.0
 10
20.044460904460596
 20
-1.0600389866555502
 30
0.0
 10
20.013404481210664
 20
-1.07405587380698
 30
0.0
 10
19.983322697421855
 20
-1.0900577747746332
 30
0.0
 10
19.9543422621569
 20
-1.1079772871103164
 30
0.0
 10
19.926585245430502
 20
-1.1277389310941968
 30
0.0
 10
19.900168564031844
 20
-1.1492594676668966
 30
0.0
 10
19.875203489053217
 20
-1.1724482490451085
 30
0.0
 10
19.8517951771992
 20
-1.197207600543891
 30
0.0
 10
19.830042227850598
 20
-1.2234332319973409
 30
0.0
 10
19.810036267748785
 20
-1.2510146770446857
 30
0.0
 10
19.7918615650499
 20
-1.2798357584314461
 30
0.0
 10
19.775594674374524
 20
-1.309775077365757
 30
0.0
 10
19.76130411434792
 20
-1.3407065248686
 30
0.0
 10
19.74905007898915
 20
-1.3724998129640633
 30
0.0
 10
19.738884184164675
 20
-1.4050210234721727
 30
0.0
 10
19.730849250174444
 20
-1.4381331720926969
 30
0.0
 10
19.724979121386262
 20
-1.4716967854039196
 30
0.0
 10
19.721298523678165
 20
-1.505570488345969
 30
0.0
 10
19.71982296028922
 20
-1.539611599714141
 30
0.0
 10
19.720558646517546
 20
-1.5736767331538992
 30
0.0
 10
19.723502483540504
 20
-1.607622401126077
 30
0.0
 10
19.72864207146743
 20
-1.6413056192982833
 30
0.0
 10
19.735955761569862
 20
-1.6745845088167257
 30
0.0
 10
19.745412747469278
 20
-1.7073188939215864
 30
0.0
 10
19.757002673968586
 20
-1.7393602446146474
 30
0.0
 10
19.770646614855735
 20
-1.7705823109710392
 30
0.0
 10
19.786287099770142
 20
-1.800853580883901
 30
0.0
 10
19.803858248603163
 20
-1.8300465471460492
 30
0.0
 10
19.823286048995186
 20
-1.8580382445297872
 30
0.0
 10
19.844488668086974
 20
-1.8847107677352049
 30
0.0
 10
19.86737679721216
 20
-1.9099517680252902
 30
0.0
 10
19.89185402807895
 20
-1.9336549264559493
 30
0.0
 10
19.917817258856587
 20
-1.9557204017076204
 30
0.0
 10
19.945157128455982
 20
-1.9760552506321425
 30
0.0
 10
19.9737584771753
 20
-1.9945738197434766
 30
0.0
 10
20.003500831770182
 20
-2.0111981060032558
 30
0.0
 10
20.03425891290547
 20
-2.025858085381484
 30
0.0
 10
20.06590316285084
 20
-2.0384920078084323
 30
0.0
 10
20.098300291197738
 20
-2.049046657275355
 30
0.0
 10
20.131313836298933
 20
-2.057477575988437
 30
0.0
 10
20.16480474006577
 20
-2.0637492516318012
 30
0.0
 10
20.19863193370207
 20
-2.067835266950806
 30
0.0
 10
20.232652931907428
 20
-2.0697184110255478
 30
0.0
 10
20.26672443304701
 20
-2.0693907517658836
 30
0.0
 10
20.300702922759932
 20
-2.0668536693226045
 30
0.0
 10
20.33444527846362
 20
-2.062117850274029
 30
0.0
 10
20.36780937220798
 20
-2.0552032426125066
 30
0.0
 10
20.40065466933999
 20
-2.0461389717204277
 30
0.0
 10
20.432842820457118
 20
-2.0349632176896737
 30
0.0
 10
22.219332189048913
 20
-1.2389669313867313
 30
0.0
  0
ENDSEC
  0
EOF
