999
DXF generated by OpenJsCad
  0
SECTION
  2
HEADER
  0
ENDSEC
  0
SECTION
  2
TABLES
  0
TABLE
  2
LTYPE
  70
1
  0
LTYPE
  2
CONTINUOUS
  3
Solid Line
  72
65
  73
0
  40
0.0
  0
ENDTAB
  0
TABLE
  2
LAYER
  70
1
  0
LAYER
  2
OpenJsCad
  62
7
  6
continuous
  0
ENDTAB
  0
TABLE
  2
STYLE
  70
0
  0
ENDTAB
  0
TABLE
  2
VIEW
  70
0
  0
ENDTAB
  0
ENDSEC
  0
SECTION
  2
BLOCKS
  0
ENDSEC
  0
SECTION
  2
ENTITIES
  0
LWPOLYLINE
  8
OpenJsCad
  90
931
  70
1
 10
13.404671516039368
 20
0.7025090661742606
 30
0.0
 10
13.396490808006591
 20
0.9367738934344428
 30
0.0
 10
13.29851158620202
 20
1.8689839186242554
 30
0.0
 10
13.25780712980179
 20
2.099830362184303
 30
0.0
 10
14.815325108927066
 20
2.346516975603463
 30
0.0
 10
14.945346218615217
 20
2.388795823009557
 30
0.0
 10
15.072551420264597
 20
2.4389139492301872
 30
0.0
 10
15.196468560477376
 20
2.4966853285110506
 30
0.0
 10
15.316637690304589
 20
2.561895528166447
 30
0.0
 10
15.43261277245982
 20
2.6343025044989377
 30
0.0
 10
15.543963336896296
 20
2.7136375012040754
 30
0.0
 10
15.650276078602376
 20
2.799606046925535
 30
0.0
 10
15.75115639168476
 20
2.8918890482579944
 30
0.0
 10
15.846229834045337
 20
2.9901439741408047
 30
0.0
 10
15.935143517215145
 20
3.0940061272462804
 30
0.0
 10
16.017567416186733
 20
3.2030899976435467
 30
0.0
 10
16.093195594383157
 20
3.3169906937134823
 30
0.0
 10
16.161747339216856
 20
3.4352854450035637
 30
0.0
 10
16.05100739407734
 20
3.515470571136932
 30
0.0
 10
15.935590028652731
 20
3.5887632833323995
 30
0.0
 10
15.815923642886943
 20
3.6548915376589735
 30
0.0
 10
15.692452408008146
 20
3.713609882833468
 30
0.0
 10
15.565634617877958
 20
3.764700371273318
 30
0.0
 10
15.43594098792106
 20
3.807973368062648
 30
0.0
 10
15.303852907949084
 20
3.8432682548289114
 30
0.0
 10
15.169860655363923
 20
3.8704540259174927
 30
0.0
 10
15.03446157537254
 20
3.889429774651417
 30
0.0
 10
14.898158234967886
 20
3.9001250678713104
 30
0.0
 10
14.761456557527884
 20
3.9025002073653923
 30
0.0
 10
14.624863944956353
 20
3.8965463772191584
 30
0.0
 10
14.488887394336027
 20
3.882285676537812
 30
0.0
 10
12.9656874342756
 20
3.474145477328502
 30
0.0
 10
12.90897909800624
 20
3.701590191210187
 30
0.0
 10
12.619323594741852
 20
4.593058165059206
 30
0.0
 10
12.531512953974957
 20
4.8103971276114095
 30
0.0
 10
14.003706397458025
 20
5.375519243179504
 30
0.0
 10
14.122095967294209
 20
5.44390710508883
 30
0.0
 10
14.236101285725262
 20
5.51937747856055
 30
0.0
 10
14.345299193967028
 20
5.601650236738149
 30
0.0
 10
14.449284377120868
 20
5.690420004040923
 30
0.0
 10
14.547670868599623
 20
5.785357289640561
 30
0.0
 10
14.640093482737532
 20
5.886109710447416
 30
0.0
 10
14.726209170266673
 20
5.992303299067018
 30
0.0
 10
14.805698291628714
 20
6.103543891872061
 30
0.0
 10
14.878265803395747
 20
6.219418592037663
 30
0.0
 10
14.943642353396568
 20
6.3394973021095
 30
0.0
 10
15.001585280483514
 20
6.463334320416319
 30
0.0
 10
15.051879515228993
 20
6.590469995401322
 30
0.0
 10
15.094338378208604
 20
6.720432431731999
 30
0.0
 10
14.969346941412171
 20
6.775841191238869
 30
0.0
 10
14.841213310621892
 20
6.823535662228977
 30
0.0
 10
14.710413085328737
 20
6.863338814940615
 30
0.0
 10
14.577431762745151
 20
6.895102910181098
 30
0.0
 10
14.44276293576271
 20
6.918710047697116
 30
0.0
 10
14.30690646086069
 20
6.934072603790529
 30
0.0
 10
14.170366602765773
 20
6.941133556555277
 30
0.0
 10
14.033650162749469
 20
6.939866697528211
 30
0.0
 10
13.897264597510528
 20
6.930276728968248
 30
0.0
 10
13.761716135624573
 20
6.912399246402791
 30
0.0
 10
13.627507898552206
 20
6.886300606506161
 30
0.0
 10
13.495138033179947
 20
6.852077680800483
 30
0.0
 10
13.365097862825518
 20
6.809857496093201
 30
0.0
 10
11.960040595362889
 20
6.0939450603238905
 30
0.0
 10
11.857283057268706
 20
6.304629235429625
 30
0.0
 10
11.388610607958471
 20
7.116393729742701
 30
0.0
 10
11.257531529188627
 20
7.310726455715478
 30
0.0
 10
12.580058519181359
 20
8.169585525225406
 30
0.0
 10
12.681642356867552
 20
8.261093523911157
 30
0.0
 10
12.777465212606627
 20
8.358617727166221
 30
0.0
 10
12.867171416297513
 20
8.4617961499197
 30
0.0
 10
12.95042800129789
 20
8.570245820074115
 30
0.0
 10
13.026925940311783
 20
8.683564200000555
 30
0.0
 10
13.096381292420388
 20
8.801330680656115
 30
0.0
 10
13.158536256998653
 20
8.92310814277781
 30
0.0
 10
13.213160130605704
 20
9.048444579358268
 30
0.0
 10
13.26005016329742
 20
9.176874773380922
 30
0.0
 10
13.299032311182726
 20
9.307922024587402
 30
0.0
 10
13.329961882430315
 20
9.441099918867822
 30
0.0
 10
13.35272407432796
 20
9.575914133706394
 30
0.0
 10
13.367234399401044
 20
9.711864272981057
 30
0.0
 10
13.233454196511154
 20
9.74007503719025
 30
0.0
 10
13.09820435487412
 20
9.760086789729266
 30
0.0
 10
12.961986887548024
 20
9.771825252055752
 30
0.0
 10
12.825307399171736
 20
9.775246853979178
 30
0.0
 10
12.688673209288904
 20
9.770338895382299
 30
0.0
 10
12.552591469306675
 20
9.757119593360791
 30
0.0
 10
12.417567280078496
 20
9.735638014605993
 30
0.0
 10
12.284101817098025
 20
9.705973893281824
 30
0.0
 10
12.152690470263021
 20
9.66823733507182
 30
0.0
 10
12.023821005113867
 20
9.622568408494804
 30
0.0
 10
11.897971752371769
 20
9.569136625006111
 30
0.0
 10
11.775609832496635
 20
9.508140309814145
 30
0.0
 10
11.657189421854564
 20
9.43980586574756
 30
0.0
 10
10.431682591790652
 20
8.44741000219038
 30
0.0
 10
10.287366849371738
 20
8.632125729093202
 30
0.0
 10
9.660160688990441
 20
9.328708740190637
 30
0.0
 10
9.491541956947097
 20
9.491541956947096
 30
0.0
 10
10.606601717798213
 20
10.606601717798211
 30
0.0
 10
10.686940122174189
 20
10.717230514613727
 30
0.0
 10
10.760392596616413
 20
10.83254627199684
 30
0.0
 10
10.826686504197005
 20
10.952120967146866
 30
0.0
 10
10.885575778769981
 20
11.075510769167922
 30
0.0
 10
10.936841838306265
 20
11.202257686456466
 30
0.0
 10
10.980294396214665
 20
11.331891266649805
 30
0.0
 10
11.015772167637374
 20
11.463930342825778
 30
0.0
 10
11.04314346809838
 20
11.597884819472137
 30
0.0
 10
11.06230670228281
 20
11.733257491596607
 30
0.0
 10
11.073190741132912
 20
11.869545890225528
 30
0.0
 10
11.075755185861075
 20
12.006244147441057
 30
0.0
 10
11.069990517899843
 20
12.142844874034376
 30
0.0
 10
11.055918134232444
 20
12.278841042805572
 30
0.0
 10
10.919196002064023
 20
12.278620865950883
 30
0.0
 10
10.782741016660518
 20
12.27007529042581
 30
0.0
 10
10.647059664267559
 20
12.253236035236085
 30
0.0
 10
10.512655559601564
 20
12.228165603419729
 30
0.0
 10
10.380027576559806
 20
12.194957050051636
 30
0.0
 10
10.249667996527231
 20
12.153733636846797
 30
0.0
 10
10.122060681153004
 20
12.104648374644086
 30
0.0
 10
9.99767927637896
 20
12.04788345546893
 30
0.0
 10
9.876985454386189
 20
11.98364957628276
 30
0.0
 10
9.760427199985154
 20
11.91218515692942
 30
0.0
 10
9.648437147809872
 20
11.833755455181269
 30
0.0
 10
9.54143097648804
 20
11.748651582169698
 30
0.0
 10
9.439805865747566
 20
11.657189421854564
 30
0.0
 10
8.44741000219038
 20
10.431682591790652
 30
0.0
 10
8.267843345894203
 20
10.582356906860513
 30
0.0
 10
7.50951539331958
 20
11.133314414581209
 30
0.0
 10
7.310726455715479
 20
11.257531529188627
 30
0.0
 10
8.169585525225408
 20
12.580058519181357
 30
0.0
 10
8.225167322513505
 20
12.70497310484993
 30
0.0
 10
8.273039190061672
 20
12.833040564417056
 30
0.0
 10
8.313023439657236
 20
12.96378554400253
 30
0.0
 10
8.344971659921882
 20
13.096722751451942
 30
0.0
 10
8.368765267176974
 20
13.23135875761789
 30
0.0
 10
8.384315945596066
 20
13.36719382784363
 30
0.0
 10
8.391565975010808
 20
13.503723776851208
 30
0.0
 10
8.390488445153554
 20
13.640441840149125
 30
0.0
 10
8.381087355541437
 20
13.77684055501342
 30
0.0
 10
8.363397600631174
 20
13.912413644060404
 30
0.0
 10
8.33748484029972
 20
14.046657894419706
 30
0.0
 10
8.303445256131463
 20
14.179075025532633
 30
0.0
 10
8.261405194416634
 20
14.309173538643044
 30
0.0
 10
8.127716546211019
 20
14.280532043509545
 30
0.0
 10
7.996020154686842
 20
14.243802622577054
 30
0.0
 10
7.8668048433979605
 20
14.199121606126617
 30
0.0
 10
7.740550226758613
 20
14.146654838742135
 30
0.0
 10
7.617724929836523
 20
14.086597063737335
 30
0.0
 10
7.498784848935691
 20
14.019171200318093
 30
0.0
 10
7.384171459425107
 20
13.944627516162955
 30
0.0
 10
7.274310177094318
 20
13.863242698493067
 30
0.0
 10
7.169608779118075
 20
13.775318827079513
 30
0.0
 10
7.070455890491044
 20
13.681182252999925
 30
0.0
 10
6.97721954155053
 20
13.58118238730617
 30
0.0
 10
6.8902458019413455
 20
13.475690404099293
 30
0.0
 10
6.809857496093206
 20
13.36509786282552
 30
0.0
 10
6.093945060323894
 20
11.960040595362887
 30
0.0
 10
5.886975414687012
 20
12.070088308015652
 30
0.0
 10
5.030668240307816
 20
12.451340825484769
 30
0.0
 10
4.8103971276114095
 20
12.531512953974957
 30
0.0
 10
5.375519243179504
 20
14.003706397458025
 30
0.0
 10
5.4039152421271766
 20
14.137447405179254
 30
0.0
 10
5.424114272454727
 20
14.272669404411454
 30
0.0
 10
5.436041360492221
 20
14.408870485440469
 30
0.0
 10
5.4396522359184
 20
14.545545104449204
 30
0.0
 10
5.434933496080858
 20
14.682185959967867
 30
0.0
 10
5.421902655743293
 20
14.818285875848161
 30
0.0
 10
5.400608082075145
 20
14.95333968377233
 30
0.0
 10
5.371128815124954
 20
15.086846098309632
 30
0.0
 10
5.333574274443772
 20
15.218309577560532
 30
0.0
 10
5.288083852947585
 20
15.347242162482365
 30
0.0
 10
5.234826399526217
 20
15.473165288069357
 30
0.0
 10
5.173999592319136
 20
15.595611559664365
 30
0.0
 10
5.105829204984412
 20
15.714126487809136
 30
0.0
 10
4.981016876177499
 20
15.658315445171306
 30
0.0
 10
4.859834842791657
 20
15.595007430773453
 30
0.0
 10
4.742732901754032
 20
15.524437427884502
 30
0.0
 10
4.6301457057253375
 20
15.446867374430074
 30
0.0
 10
4.522491149779579
 20
15.362585190745452
 30
0.0
 10
4.420168820283687
 20
15.271903710888425
 30
0.0
 10
4.3235585117344195
 20
15.175159521478715
 30
0.0
 10
4.233018817057659
 20
15.072711712373955
 30
0.0
 10
4.148885796602558
 20
14.964940543819338
 30
0.0
 10
4.07147173077088
 20
14.852246035018178
 30
0.0
 10
4.001063960911473
 20
14.73504647936223
 30
0.0
 10
3.937923822782164
 20
14.613776891832883
 30
0.0
 10
3.882285676537812
 20
14.488887394336023
 30
0.0
 10
3.4741454773285025
 20
12.965687434275598
 30
0.0
 10
3.2488184090158017
 20
13.030298931400825
 30
0.0
 10
2.3319567453701144
 20
13.225183894152408
 30
0.0
 10
2.099830362184303
 20
13.25780712980179
 30
0.0
 10
2.3465169756034623
 20
14.815325108927064
 30
0.0
 10
2.3464861347975763
 20
14.952047414902976
 30
0.0
 10
2.3381295333534937
 20
15.088514103566661
 30
0.0
 10
2.3214781888531615
 20
15.22421864523295
 30
0.0
 10
2.296593906857847
 20
15.358657339112742
 30
0.0
 10
2.263569051501599
 20
15.491331182922384
 30
0.0
 10
2.2225262026590373
 20
15.621747725053407
 30
0.0
 10
2.1736177009599986
 20
15.749422892427807
 30
0.0
 10
2.1170250823398105
 20
15.87388278725436
 30
0.0
 10
2.0529584042240123
 20
15.994665446016839
 30
0.0
 10
1.9816554658485452
 20
16.111322554165252
 30
0.0
 10
1.9033809256093934
 20
16.223421110145587
 30
0.0
 10
1.8184253187178396
 20
16.33054503259157
 30
0.0
 10
1.7271039788075608
 20
16.432296704713053
 30
0.0
 10
1.616622867084213
 20
16.351755324945263
 30
0.0
 10
1.51125142819158
 20
16.264635581096798
 30
0.0
 10
1.4113807741460118
 20
16.171260839528014
 30
0.0
 10
1.3173815994477316
 20
16.071977683562018
 30
0.0
 10
1.2296028051570072
 20
15.967154627055383
 30
0.0
 10
1.1483702038620378
 20
15.857180746568337
 30
0.0
 10
1.0739853103453854
 20
15.74246423721139
 30
0.0
 10
1.006724222437687
 20
15.623430897528767
 30
0.0
 10
0.9468365962126382
 20
15.500522549042362
 30
0.0
 10
0.8945447193270597
 20
15.37419539632249
 30
0.0
 10
0.8500426859455801
 20
15.244918333672382
 30
0.0
 10
0.8134956763123945
 20
15.113171204711639
 30
0.0
 10
0.7850393436441573
 20
14.979443021318609
 30
0.0
 10
0.7025090661742605
 20
13.40467151603937
 30
0.0
 10
0.4686724493102369
 20
13.421022965172327
 30
0.0
 10
-0.4686724493102322
 20
13.421022965172327
 30
0.0
 10
-0.7025090661742617
 20
13.40467151603937
 30
0.0
 10
-0.7850393436441587
 20
14.979443021318609
 30
0.0
 10
-0.8134956763123958
 20
15.113171204711639
 30
0.0
 10
-0.8500426859455816
 20
15.244918333672382
 30
0.0
 10
-0.8945447193270613
 20
15.37419539632249
 30
0.0
 10
-0.9468365962126397
 20
15.500522549042362
 30
0.0
 10
-1.0067242224376887
 20
15.623430897528767
 30
0.0
 10
-1.0739853103453871
 20
15.74246423721139
 30
0.0
 10
-1.1483702038620394
 20
15.857180746568337
 30
0.0
 10
-1.2296028051570087
 20
15.967154627055383
 30
0.0
 10
-1.3173815994477331
 20
16.071977683562018
 30
0.0
 10
-1.4113807741460134
 20
16.171260839528014
 30
0.0
 10
-1.5112514281915816
 20
16.264635581096798
 30
0.0
 10
-1.6166228670842149
 20
16.351755324945263
 30
0.0
 10
-1.7271039788075624
 20
16.432296704713053
 30
0.0
 10
-1.8184253187178414
 20
16.33054503259157
 30
0.0
 10
-1.903380925609395
 20
16.223421110145587
 30
0.0
 10
-1.9816554658485468
 20
16.111322554165252
 30
0.0
 10
-2.0529584042240137
 20
15.994665446016839
 30
0.0
 10
-2.1170250823398122
 20
15.87388278725436
 30
0.0
 10
-2.1736177009600004
 20
15.749422892427807
 30
0.0
 10
-2.2225262026590387
 20
15.621747725053407
 30
0.0
 10
-2.2635690515016007
 20
15.491331182922384
 30
0.0
 10
-2.296593906857849
 20
15.358657339112742
 30
0.0
 10
-2.321478188853163
 20
15.22421864523295
 30
0.0
 10
-2.338129533353495
 20
15.088514103566661
 30
0.0
 10
-2.3464861347975776
 20
14.952047414902976
 30
0.0
 10
-2.346516975603464
 20
14.815325108927066
 30
0.0
 10
-2.099830362184304
 20
13.25780712980179
 30
0.0
 10
-2.3319567453701127
 20
13.225183894152408
 30
0.0
 10
-3.2488184090158003
 20
13.030298931400825
 30
0.0
 10
-3.4741454773285008
 20
12.9656874342756
 30
0.0
 10
-3.88228567653781
 20
14.488887394336025
 30
0.0
 10
-3.937923822782162
 20
14.613776891832885
 30
0.0
 10
-4.0010639609114715
 20
14.735046479362232
 30
0.0
 10
-4.071471730770878
 20
14.85224603501818
 30
0.0
 10
-4.148885796602556
 20
14.96494054381934
 30
0.0
 10
-4.233018817057658
 20
15.072711712373957
 30
0.0
 10
-4.323558511734418
 20
15.175159521478717
 30
0.0
 10
-4.420168820283685
 20
15.271903710888427
 30
0.0
 10
-4.522491149779577
 20
15.362585190745454
 30
0.0
 10
-4.630145705725336
 20
15.446867374430076
 30
0.0
 10
-4.74273290175403
 20
15.524437427884504
 30
0.0
 10
-4.859834842791655
 20
15.595007430773455
 30
0.0
 10
-4.981016876177497
 20
15.658315445171308
 30
0.0
 10
-5.10582920498441
 20
15.714126487809137
 30
0.0
 10
-5.173999592319134
 20
15.595611559664366
 30
0.0
 10
-5.234826399526216
 20
15.473165288069358
 30
0.0
 10
-5.288083852947583
 20
15.347242162482367
 30
0.0
 10
-5.33357427444377
 20
15.218309577560534
 30
0.0
 10
-5.371128815124952
 20
15.086846098309634
 30
0.0
 10
-5.400608082075143
 20
14.953339683772331
 30
0.0
 10
-5.421902655743291
 20
14.818285875848163
 30
0.0
 10
-5.434933496080857
 20
14.68218595996787
 30
0.0
 10
-5.439652235918398
 20
14.545545104449205
 30
0.0
 10
-5.4360413604922195
 20
14.40887048544047
 30
0.0
 10
-5.424114272454725
 20
14.272669404411456
 30
0.0
 10
-5.403915242127175
 20
14.137447405179255
 30
0.0
 10
-5.375519243179502
 20
14.003706397458028
 30
0.0
 10
-4.810397127611407
 20
12.531512953974959
 30
0.0
 10
-5.030668240307817
 20
12.451340825484769
 30
0.0
 10
-5.886975414687013
 20
12.07008830801565
 30
0.0
 10
-6.093945060323889
 20
11.960040595362889
 30
0.0
 10
-6.809857496093198
 20
13.365097862825518
 30
0.0
 10
-6.89024580194134
 20
13.475690404099293
 30
0.0
 10
-6.977219541550524
 20
13.581182387306171
 30
0.0
 10
-7.070455890491039
 20
13.681182252999927
 30
0.0
 10
-7.16960877911807
 20
13.775318827079515
 30
0.0
 10
-7.274310177094312
 20
13.86324269849307
 30
0.0
 10
-7.384171459425102
 20
13.944627516162956
 30
0.0
 10
-7.498784848935686
 20
14.019171200318095
 30
0.0
 10
-7.617724929836518
 20
14.086597063737337
 30
0.0
 10
-7.740550226758607
 20
14.146654838742135
 30
0.0
 10
-7.866804843397955
 20
14.199121606126619
 30
0.0
 10
-7.996020154686836
 20
14.243802622577055
 30
0.0
 10
-8.127716546211015
 20
14.280532043509549
 30
0.0
 10
-8.261405194416628
 20
14.309173538643046
 30
0.0
 10
-8.30344525613146
 20
14.179075025532637
 30
0.0
 10
-8.337484840299714
 20
14.046657894419708
 30
0.0
 10
-8.363397600631169
 20
13.912413644060406
 30
0.0
 10
-8.381087355541432
 20
13.776840555013424
 30
0.0
 10
-8.390488445153549
 20
13.640441840149126
 30
0.0
 10
-8.391565975010803
 20
13.50372377685121
 30
0.0
 10
-8.384315945596061
 20
13.367193827843632
 30
0.0
 10
-8.368765267176968
 20
13.231358757617892
 30
0.0
 10
-8.344971659921876
 20
13.096722751451944
 30
0.0
 10
-8.313023439657233
 20
12.963785544002532
 30
0.0
 10
-8.273039190061667
 20
12.833040564417058
 30
0.0
 10
-8.2251673225135
 20
12.704973104849934
 30
0.0
 10
-8.169585525225402
 20
12.58005851918136
 30
0.0
 10
-7.310726455715475
 20
11.257531529188629
 30
0.0
 10
-7.509515393319578
 20
11.133314414581209
 30
0.0
 10
-8.267843345894203
 20
10.582356906860513
 30
0.0
 10
-8.447410002190383
 20
10.431682591790652
 30
0.0
 10
-9.439805865747566
 20
11.657189421854564
 30
0.0
 10
-9.54143097648804
 20
11.748651582169698
 30
0.0
 10
-9.648437147809872
 20
11.833755455181269
 30
0.0
 10
-9.760427199985154
 20
11.91218515692942
 30
0.0
 10
-9.876985454386189
 20
11.98364957628276
 30
0.0
 10
-9.99767927637896
 20
12.04788345546893
 30
0.0
 10
-10.122060681153004
 20
12.104648374644086
 30
0.0
 10
-10.249667996527231
 20
12.153733636846797
 30
0.0
 10
-10.380027576559806
 20
12.194957050051636
 30
0.0
 10
-10.512655559601564
 20
12.228165603419729
 30
0.0
 10
-10.647059664267559
 20
12.253236035236085
 30
0.0
 10
-10.782741016660518
 20
12.27007529042581
 30
0.0
 10
-10.919196002064023
 20
12.278620865950883
 30
0.0
 10
-11.055918134232444
 20
12.278841042805572
 30
0.0
 10
-11.069990517899843
 20
12.142844874034376
 30
0.0
 10
-11.075755185861075
 20
12.006244147441057
 30
0.0
 10
-11.073190741132912
 20
11.869545890225528
 30
0.0
 10
-11.06230670228281
 20
11.733257491596607
 30
0.0
 10
-11.04314346809838
 20
11.597884819472137
 30
0.0
 10
-11.015772167637374
 20
11.463930342825778
 30
0.0
 10
-10.980294396214665
 20
11.331891266649805
 30
0.0
 10
-10.936841838306265
 20
11.202257686456466
 30
0.0
 10
-10.885575778769981
 20
11.075510769167922
 30
0.0
 10
-10.826686504197005
 20
10.952120967146866
 30
0.0
 10
-10.760392596616413
 20
10.83254627199684
 30
0.0
 10
-10.686940122174189
 20
10.717230514613727
 30
0.0
 10
-10.606601717798213
 20
10.606601717798211
 30
0.0
 10
-9.491541956947097
 20
9.491541956947096
 30
0.0
 10
-9.660160688990441
 20
9.328708740190637
 30
0.0
 10
-10.287366849371736
 20
8.632125729093204
 30
0.0
 10
-10.431682591790652
 20
8.44741000219038
 30
0.0
 10
-11.657189421854564
 20
9.439805865747566
 30
0.0
 10
-11.775609832496633
 20
9.508140309814147
 30
0.0
 10
-11.897971752371767
 20
9.569136625006113
 30
0.0
 10
-12.023821005113865
 20
9.622568408494804
 30
0.0
 10
-12.15269047026302
 20
9.668237335071822
 30
0.0
 10
-12.284101817098023
 20
9.705973893281826
 30
0.0
 10
-12.417567280078494
 20
9.735638014605994
 30
0.0
 10
-12.552591469306673
 20
9.757119593360793
 30
0.0
 10
-12.688673209288902
 20
9.7703388953823
 30
0.0
 10
-12.825307399171734
 20
9.77524685397918
 30
0.0
 10
-12.961986887548022
 20
9.771825252055754
 30
0.0
 10
-13.098204354874118
 20
9.760086789729268
 30
0.0
 10
-13.233454196511152
 20
9.740075037190252
 30
0.0
 10
-13.367234399401042
 20
9.711864272981058
 30
0.0
 10
-13.352724074327957
 20
9.575914133706396
 30
0.0
 10
-13.329961882430313
 20
9.441099918867824
 30
0.0
 10
-13.299032311182724
 20
9.307922024587404
 30
0.0
 10
-13.260050163297418
 20
9.176874773380924
 30
0.0
 10
-13.213160130605702
 20
9.04844457935827
 30
0.0
 10
-13.158536256998651
 20
8.923108142777812
 30
0.0
 10
-13.096381292420386
 20
8.801330680656116
 30
0.0
 10
-13.02692594031178
 20
8.683564200000557
 30
0.0
 10
-12.950428001297889
 20
8.570245820074117
 30
0.0
 10
-12.867171416297511
 20
8.461796149919703
 30
0.0
 10
-12.777465212606625
 20
8.358617727166223
 30
0.0
 10
-12.68164235686755
 20
8.261093523911159
 30
0.0
 10
-12.580058519181357
 20
8.169585525225408
 30
0.0
 10
-11.257531529188627
 20
7.310726455715479
 30
0.0
 10
-11.388610607958471
 20
7.116393729742701
 30
0.0
 10
-11.857283057268704
 20
6.304629235429629
 30
0.0
 10
-11.960040595362887
 20
6.093945060323895
 30
0.0
 10
-13.365097862825516
 20
6.809857496093206
 30
0.0
 10
-13.495138033179943
 20
6.852077680800487
 30
0.0
 10
-13.627507898552205
 20
6.886300606506165
 30
0.0
 10
-13.761716135624571
 20
6.912399246402795
 30
0.0
 10
-13.897264597510526
 20
6.930276728968251
 30
0.0
 10
-14.033650162749467
 20
6.939866697528213
 30
0.0
 10
-14.170366602765771
 20
6.941133556555281
 30
0.0
 10
-14.306906460860688
 20
6.934072603790533
 30
0.0
 10
-14.442762935762708
 20
6.91871004769712
 30
0.0
 10
-14.57743176274515
 20
6.895102910181102
 30
0.0
 10
-14.710413085328735
 20
6.863338814940619
 30
0.0
 10
-14.84121331062189
 20
6.823535662228981
 30
0.0
 10
-14.969346941412171
 20
6.7758411912388725
 30
0.0
 10
-15.094338378208603
 20
6.720432431732003
 30
0.0
 10
-15.051879515228993
 20
6.5904699954013255
 30
0.0
 10
-15.001585280483512
 20
6.4633343204163225
 30
0.0
 10
-14.943642353396566
 20
6.339497302109503
 30
0.0
 10
-14.878265803395745
 20
6.219418592037666
 30
0.0
 10
-14.805698291628712
 20
6.103543891872064
 30
0.0
 10
-14.72620917026667
 20
5.9923032990670215
 30
0.0
 10
-14.64009348273753
 20
5.886109710447419
 30
0.0
 10
-14.54767086859962
 20
5.785357289640565
 30
0.0
 10
-14.449284377120867
 20
5.690420004040926
 30
0.0
 10
-14.345299193967026
 20
5.601650236738153
 30
0.0
 10
-14.23610128572526
 20
5.519377478560553
 30
0.0
 10
-14.122095967294209
 20
5.443907105088834
 30
0.0
 10
-14.003706397458023
 20
5.3755192431795065
 30
0.0
 10
-12.531512953974955
 20
4.810397127611412
 30
0.0
 10
-12.61932359474185
 20
4.593058165059208
 30
0.0
 10
-12.908979098006236
 20
3.701590191210194
 30
0.0
 10
-12.965687434275598
 20
3.4741454773285008
 30
0.0
 10
-14.488887394336027
 20
3.8822856765378115
 30
0.0
 10
-14.624863944956353
 20
3.896546377219158
 30
0.0
 10
-14.761456557527884
 20
3.9025002073653923
 30
0.0
 10
-14.898158234967886
 20
3.90012506787131
 30
0.0
 10
-15.03446157537254
 20
3.8894297746514166
 30
0.0
 10
-15.169860655363923
 20
3.8704540259174918
 30
0.0
 10
-15.303852907949084
 20
3.843268254828911
 30
0.0
 10
-15.43594098792106
 20
3.8079733680626475
 30
0.0
 10
-15.565634617877958
 20
3.7647003712733174
 30
0.0
 10
-15.692452408008146
 20
3.7136098828334676
 30
0.0
 10
-15.815923642886943
 20
3.6548915376589735
 30
0.0
 10
-15.935590028652731
 20
3.588763283332399
 30
0.0
 10
-16.05100739407734
 20
3.515470571136931
 30
0.0
 10
-16.161747339216856
 20
3.4352854450035633
 30
0.0
 10
-16.093195594383157
 20
3.3169906937134814
 30
0.0
 10
-16.017567416186733
 20
3.2030899976435463
 30
0.0
 10
-15.935143517215145
 20
3.0940061272462795
 30
0.0
 10
-15.846229834045337
 20
2.9901439741408042
 30
0.0
 10
-15.75115639168476
 20
2.891889048257994
 30
0.0
 10
-15.650276078602376
 20
2.7996060469255344
 30
0.0
 10
-15.543963336896296
 20
2.713637501204075
 30
0.0
 10
-15.43261277245982
 20
2.6343025044989377
 30
0.0
 10
-15.316637690304589
 20
2.5618955281664464
 30
0.0
 10
-15.196468560477376
 20
2.49668532851105
 30
0.0
 10
-15.072551420264597
 20
2.4389139492301863
 30
0.0
 10
-14.945346218615217
 20
2.3887958230095565
 30
0.0
 10
-14.815325108927066
 20
2.3465169756034623
 30
0.0
 10
-13.25780712980179
 20
2.0998303621843024
 30
0.0
 10
-13.29851158620202
 20
1.8689839186242596
 30
0.0
 10
-13.396490808006591
 20
0.9367738934344458
 30
0.0
 10
-13.404671516039368
 20
0.7025090661742622
 30
0.0
 10
-14.979443021318609
 20
0.7850393436441594
 30
0.0
 10
-15.115413124454847
 20
0.7707172992493626
 30
0.0
 10
-15.250258731612197
 20
0.748141822889116
 30
0.0
 10
-15.383479330148278
 20
0.7173967089973968
 30
0.0
 10
-15.514580439039953
 20
0.6785960756275734
 30
0.0
 10
-15.643075444271288
 20
0.6318839408751799
 30
0.0
 10
-15.768487405021169
 20
0.5774336883193248
 30
0.0
 10
-15.890350823946497
 20
0.515447423466888
 30
0.0
 10
-16.008213374990074
 20
0.4461552235882113
 30
0.0
 10
-16.121637582300046
 20
0.3698142837287153
 30
0.0
 10
-16.230202444029132
 20
0.2867079620662165
 30
0.0
 10
-16.33350499498656
 20
0.19714472815734796
 30
0.0
 10
-16.43116180234248
 20
0.10145701797691566
 30
0.0
 10
-16.522810388833264
 20
2.0234606855603293e-15
 30
0.0
 10
-16.43116180234248
 20
-0.10145701797691185
 30
0.0
 10
-16.33350499498656
 20
-0.19714472815734396
 30
0.0
 10
-16.230202444029132
 20
-0.2867079620662125
 30
0.0
 10
-16.121637582300046
 20
-0.3698142837287113
 30
0.0
 10
-16.008213374990074
 20
-0.4461552235882074
 30
0.0
 10
-15.890350823946497
 20
-0.515447423466884
 30
0.0
 10
-15.768487405021169
 20
-0.5774336883193211
 30
0.0
 10
-15.643075444271288
 20
-0.6318839408751761
 30
0.0
 10
-15.514580439039953
 20
-0.6785960756275696
 30
0.0
 10
-15.383479330148278
 20
-0.717396708997393
 30
0.0
 10
-15.250258731612197
 20
-0.7481418228891122
 30
0.0
 10
-15.115413124454847
 20
-0.7707172992493588
 30
0.0
 10
-14.979443021318609
 20
-0.7850393436441556
 30
0.0
 10
-13.40467151603937
 20
-0.7025090661742589
 30
0.0
 10
-13.396490808006593
 20
-0.9367738934344365
 30
0.0
 10
-13.29851158620202
 20
-1.8689839186242565
 30
0.0
 10
-13.257807129801789
 20
-2.099830362184306
 30
0.0
 10
-14.815325108927066
 20
-2.346516975603466
 30
0.0
 10
-14.945346218615216
 20
-2.3887958230095596
 30
0.0
 10
-15.072551420264595
 20
-2.43891394923019
 30
0.0
 10
-15.196468560477374
 20
-2.496685328511053
 30
0.0
 10
-15.316637690304587
 20
-2.561895528166449
 30
0.0
 10
-15.432612772459818
 20
-2.6343025044989408
 30
0.0
 10
-15.543963336896294
 20
-2.713637501204078
 30
0.0
 10
-15.650276078602374
 20
-2.7996060469255375
 30
0.0
 10
-15.751156391684757
 20
-2.891889048257997
 30
0.0
 10
-15.846229834045335
 20
-2.9901439741408073
 30
0.0
 10
-15.935143517215144
 20
-3.094006127246283
 30
0.0
 10
-16.017567416186733
 20
-3.2030899976435494
 30
0.0
 10
-16.093195594383157
 20
-3.316990693713485
 30
0.0
 10
-16.161747339216856
 20
-3.4352854450035664
 30
0.0
 10
-16.05100739407734
 20
-3.5154705711369347
 30
0.0
 10
-15.93559002865273
 20
-3.588763283332402
 30
0.0
 10
-15.815923642886942
 20
-3.654891537658976
 30
0.0
 10
-15.692452408008144
 20
-3.7136098828334707
 30
0.0
 10
-15.565634617877956
 20
-3.7647003712733205
 30
0.0
 10
-15.435940987921057
 20
-3.8079733680626506
 30
0.0
 10
-15.303852907949082
 20
-3.843268254828914
 30
0.0
 10
-15.169860655363921
 20
-3.870454025917495
 30
0.0
 10
-15.034461575372537
 20
-3.8894297746514193
 30
0.0
 10
-14.898158234967884
 20
-3.9001250678713126
 30
0.0
 10
-14.761456557527882
 20
-3.902500207365395
 30
0.0
 10
-14.624863944956351
 20
-3.896546377219161
 30
0.0
 10
-14.488887394336023
 20
-3.8822856765378138
 30
0.0
 10
-12.965687434275598
 20
-3.474145477328504
 30
0.0
 10
-12.90897909800624
 20
-3.701590191210185
 30
0.0
 10
-12.619323594741852
 20
-4.5930581650592055
 30
0.0
 10
-12.531512953974957
 20
-4.8103971276114095
 30
0.0
 10
-14.003706397458025
 20
-5.375519243179504
 30
0.0
 10
-14.122095967294209
 20
-5.44390710508883
 30
0.0
 10
-14.236101285725262
 20
-5.51937747856055
 30
0.0
 10
-14.345299193967028
 20
-5.601650236738149
 30
0.0
 10
-14.449284377120868
 20
-5.690420004040923
 30
0.0
 10
-14.547670868599623
 20
-5.785357289640561
 30
0.0
 10
-14.640093482737532
 20
-5.886109710447416
 30
0.0
 10
-14.726209170266673
 20
-5.992303299067018
 30
0.0
 10
-14.805698291628714
 20
-6.103543891872061
 30
0.0
 10
-14.878265803395747
 20
-6.219418592037663
 30
0.0
 10
-14.943642353396568
 20
-6.3394973021095
 30
0.0
 10
-15.001585280483514
 20
-6.463334320416319
 30
0.0
 10
-15.051879515228993
 20
-6.590469995401322
 30
0.0
 10
-15.094338378208604
 20
-6.720432431731999
 30
0.0
 10
-14.969346941412171
 20
-6.775841191238869
 30
0.0
 10
-14.841213310621892
 20
-6.823535662228977
 30
0.0
 10
-14.710413085328737
 20
-6.863338814940615
 30
0.0
 10
-14.577431762745151
 20
-6.895102910181098
 30
0.0
 10
-14.44276293576271
 20
-6.918710047697116
 30
0.0
 10
-14.30690646086069
 20
-6.934072603790529
 30
0.0
 10
-14.170366602765773
 20
-6.941133556555277
 30
0.0
 10
-14.033650162749469
 20
-6.939866697528211
 30
0.0
 10
-13.897264597510528
 20
-6.930276728968248
 30
0.0
 10
-13.761716135624573
 20
-6.912399246402791
 30
0.0
 10
-13.627507898552206
 20
-6.886300606506161
 30
0.0
 10
-13.495138033179947
 20
-6.852077680800483
 30
0.0
 10
-13.365097862825518
 20
-6.809857496093201
 30
0.0
 10
-11.960040595362887
 20
-6.0939450603238905
 30
0.0
 10
-11.857283057268704
 20
-6.304629235429626
 30
0.0
 10
-11.388610607958471
 20
-7.1163937297427
 30
0.0
 10
-11.257531529188627
 20
-7.310726455715477
 30
0.0
 10
-12.580058519181359
 20
-8.169585525225402
 30
0.0
 10
-12.681642356867552
 20
-8.261093523911155
 30
0.0
 10
-12.777465212606627
 20
-8.35861772716622
 30
0.0
 10
-12.867171416297513
 20
-8.461796149919698
 30
0.0
 10
-12.95042800129789
 20
-8.570245820074113
 30
0.0
 10
-13.026925940311783
 20
-8.683564200000554
 30
0.0
 10
-13.096381292420388
 20
-8.801330680656113
 30
0.0
 10
-13.158536256998653
 20
-8.923108142777808
 30
0.0
 10
-13.213160130605704
 20
-9.048444579358266
 30
0.0
 10
-13.26005016329742
 20
-9.17687477338092
 30
0.0
 10
-13.299032311182726
 20
-9.3079220245874
 30
0.0
 10
-13.329961882430315
 20
-9.44109991886782
 30
0.0
 10
-13.35272407432796
 20
-9.575914133706393
 30
0.0
 10
-13.367234399401044
 20
-9.711864272981055
 30
0.0
 10
-13.233454196511154
 20
-9.740075037190248
 30
0.0
 10
-13.09820435487412
 20
-9.760086789729264
 30
0.0
 10
-12.961986887548024
 20
-9.77182525205575
 30
0.0
 10
-12.825307399171736
 20
-9.775246853979176
 30
0.0
 10
-12.688673209288904
 20
-9.770338895382297
 30
0.0
 10
-12.552591469306675
 20
-9.75711959336079
 30
0.0
 10
-12.417567280078496
 20
-9.73563801460599
 30
0.0
 10
-12.284101817098025
 20
-9.705973893281822
 30
0.0
 10
-12.152690470263021
 20
-9.668237335071819
 30
0.0
 10
-12.023821005113867
 20
-9.622568408494802
 30
0.0
 10
-11.897971752371769
 20
-9.56913662500611
 30
0.0
 10
-11.775609832496635
 20
-9.508140309814143
 30
0.0
 10
-11.657189421854564
 20
-9.43980586574756
 30
0.0
 10
-10.431682591790654
 20
-8.447410002190379
 30
0.0
 10
-10.287366849371738
 20
-8.632125729093202
 30
0.0
 10
-9.66016068899044
 20
-9.328708740190637
 30
0.0
 10
-9.4915419569471
 20
-9.491541956947092
 30
0.0
 10
-10.606601717798215
 20
-10.606601717798208
 30
0.0
 10
-10.686940122174192
 20
-10.717230514613723
 30
0.0
 10
-10.760392596616416
 20
-10.832546271996836
 30
0.0
 10
-10.826686504197008
 20
-10.952120967146863
 30
0.0
 10
-10.885575778769985
 20
-11.075510769167918
 30
0.0
 10
-10.936841838306268
 20
-11.202257686456463
 30
0.0
 10
-10.980294396214669
 20
-11.331891266649802
 30
0.0
 10
-11.015772167637378
 20
-11.463930342825774
 30
0.0
 10
-11.043143468098384
 20
-11.597884819472132
 30
0.0
 10
-11.062306702282813
 20
-11.733257491596603
 30
0.0
 10
-11.073190741132915
 20
-11.869545890225524
 30
0.0
 10
-11.075755185861079
 20
-12.006244147441052
 30
0.0
 10
-11.069990517899846
 20
-12.142844874034372
 30
0.0
 10
-11.055918134232448
 20
-12.278841042805569
 30
0.0
 10
-10.919196002064027
 20
-12.278620865950879
 30
0.0
 10
-10.782741016660522
 20
-12.270075290425808
 30
0.0
 10
-10.647059664267562
 20
-12.253236035236082
 30
0.0
 10
-10.512655559601567
 20
-12.228165603419725
 30
0.0
 10
-10.38002757655981
 20
-12.194957050051634
 30
0.0
 10
-10.249667996527235
 20
-12.153733636846793
 30
0.0
 10
-10.122060681153007
 20
-12.104648374644082
 30
0.0
 10
-9.997679276378964
 20
-12.047883455468927
 30
0.0
 10
-9.876985454386192
 20
-11.983649576282756
 30
0.0
 10
-9.760427199985157
 20
-11.912185156929416
 30
0.0
 10
-9.648437147809876
 20
-11.833755455181265
 30
0.0
 10
-9.541430976488044
 20
-11.748651582169694
 30
0.0
 10
-9.439805865747566
 20
-11.65718942185456
 30
0.0
 10
-8.447410002190384
 20
-10.43168259179065
 30
0.0
 10
-8.267843345894201
 20
-10.582356906860515
 30
0.0
 10
-7.509515393319585
 20
-11.133314414581205
 30
0.0
 10
-7.310726455715484
 20
-11.257531529188624
 30
0.0
 10
-8.169585525225411
 20
-12.580058519181353
 30
0.0
 10
-8.22516732251351
 20
-12.704973104849927
 30
0.0
 10
-8.273039190061677
 20
-12.833040564417054
 30
0.0
 10
-8.313023439657242
 20
-12.963785544002526
 30
0.0
 10
-8.344971659921887
 20
-13.096722751451939
 30
0.0
 10
-8.368765267176979
 20
-13.231358757617887
 30
0.0
 10
-8.384315945596072
 20
-13.367193827843627
 30
0.0
 10
-8.391565975010813
 20
-13.503723776851203
 30
0.0
 10
-8.39048844515356
 20
-13.640441840149121
 30
0.0
 10
-8.381087355541442
 20
-13.776840555013417
 30
0.0
 10
-8.36339760063118
 20
-13.9124136440604
 30
0.0
 10
-8.337484840299725
 20
-14.046657894419702
 30
0.0
 10
-8.303445256131468
 20
-14.17907502553263
 30
0.0
 10
-8.26140519441664
 20
-14.30917353864304
 30
0.0
 10
-8.127716546211024
 20
-14.280532043509542
 30
0.0
 10
-7.996020154686848
 20
-14.24380262257705
 30
0.0
 10
-7.866804843397966
 20
-14.199121606126614
 30
0.0
 10
-7.740550226758619
 20
-14.146654838742132
 30
0.0
 10
-7.617724929836529
 20
-14.086597063737331
 30
0.0
 10
-7.498784848935697
 20
-14.019171200318091
 30
0.0
 10
-7.384171459425112
 20
-13.944627516162951
 30
0.0
 10
-7.274310177094323
 20
-13.863242698493064
 30
0.0
 10
-7.1696087791180805
 20
-13.77531882707951
 30
0.0
 10
-7.07045589049105
 20
-13.681182252999921
 30
0.0
 10
-6.977219541550535
 20
-13.581182387306168
 30
0.0
 10
-6.890245801941351
 20
-13.47569040409929
 30
0.0
 10
-6.809857496093209
 20
-13.365097862825515
 30
0.0
 10
-6.093945060323898
 20
-11.960040595362884
 30
0.0
 10
-5.886975414687016
 20
-12.070088308015649
 30
0.0
 10
-5.03066824030782
 20
-12.451340825484767
 30
0.0
 10
-4.810397127611411
 20
-12.531512953974955
 30
0.0
 10
-5.3755192431795065
 20
-14.003706397458027
 30
0.0
 10
-5.403915242127178
 20
-14.137447405179254
 30
0.0
 10
-5.4241142724547275
 20
-14.272669404411454
 30
0.0
 10
-5.436041360492223
 20
-14.408870485440469
 30
0.0
 10
-5.439652235918402
 20
-14.545545104449204
 30
0.0
 10
-5.43493349608086
 20
-14.682185959967867
 30
0.0
 10
-5.4219026557432946
 20
-14.818285875848161
 30
0.0
 10
-5.400608082075147
 20
-14.95333968377233
 30
0.0
 10
-5.371128815124956
 20
-15.08684609830963
 30
0.0
 10
-5.333574274443774
 20
-15.218309577560532
 30
0.0
 10
-5.288083852947587
 20
-15.347242162482365
 30
0.0
 10
-5.234826399526219
 20
-15.473165288069357
 30
0.0
 10
-5.173999592319138
 20
-15.595611559664365
 30
0.0
 10
-5.105829204984414
 20
-15.714126487809136
 30
0.0
 10
-4.981016876177501
 20
-15.658315445171306
 30
0.0
 10
-4.859834842791659
 20
-15.595007430773453
 30
0.0
 10
-4.742732901754033
 20
-15.524437427884502
 30
0.0
 10
-4.630145705725339
 20
-15.446867374430074
 30
0.0
 10
-4.52249114977958
 20
-15.362585190745454
 30
0.0
 10
-4.420168820283688
 20
-15.271903710888425
 30
0.0
 10
-4.323558511734421
 20
-15.175159521478715
 30
0.0
 10
-4.233018817057661
 20
-15.072711712373955
 30
0.0
 10
-4.14888579660256
 20
-14.964940543819338
 30
0.0
 10
-4.071471730770882
 20
-14.852246035018178
 30
0.0
 10
-4.001063960911474
 20
-14.73504647936223
 30
0.0
 10
-3.9379238227821656
 20
-14.613776891832883
 30
0.0
 10
-3.8822856765378133
 20
-14.488887394336022
 30
0.0
 10
-3.474145477328504
 20
-12.965687434275598
 30
0.0
 10
-3.2488184090158003
 20
-13.030298931400825
 30
0.0
 10
-2.331956745370113
 20
-13.225183894152408
 30
0.0
 10
-2.099830362184302
 20
-13.25780712980179
 30
0.0
 10
-2.3465169756034614
 20
-14.815325108927066
 30
0.0
 10
-2.346486134797575
 20
-14.952047414902978
 30
0.0
 10
-2.3381295333534924
 20
-15.088514103566663
 30
0.0
 10
-2.3214781888531597
 20
-15.224218645232952
 30
0.0
 10
-2.296593906857846
 20
-15.358657339112744
 30
0.0
 10
-2.2635690515015976
 20
-15.491331182922385
 30
0.0
 10
-2.222526202659036
 20
-15.621747725053408
 30
0.0
 10
-2.1736177009599973
 20
-15.749422892427809
 30
0.0
 10
-2.117025082339809
 20
-15.873882787254361
 30
0.0
 10
-2.052958404224011
 20
-15.994665446016842
 30
0.0
 10
-1.9816554658485437
 20
-16.111322554165255
 30
0.0
 10
-1.9033809256093919
 20
-16.223421110145587
 30
0.0
 10
-1.818425318717838
 20
-16.330545032591573
 30
0.0
 10
-1.727103978807559
 20
-16.432296704713057
 30
0.0
 10
-1.6166228670842115
 20
-16.351755324945266
 30
0.0
 10
-1.5112514281915785
 20
-16.264635581096798
 30
0.0
 10
-1.4113807741460103
 20
-16.171260839528017
 30
0.0
 10
-1.31738159944773
 20
-16.07197768356202
 30
0.0
 10
-1.2296028051570054
 20
-15.967154627055384
 30
0.0
 10
-1.148370203862036
 20
-15.85718074656834
 30
0.0
 10
-1.073985310345384
 20
-15.742464237211392
 30
0.0
 10
-1.0067242224376853
 20
-15.623430897528769
 30
0.0
 10
-0.9468365962126365
 20
-15.500522549042364
 30
0.0
 10
-0.894544719327058
 20
-15.374195396322492
 30
0.0
 10
-0.8500426859455786
 20
-15.244918333672384
 30
0.0
 10
-0.813495676312393
 20
-15.11317120471164
 30
0.0
 10
-0.7850393436441558
 20
-14.97944302131861
 30
0.0
 10
-0.7025090661742589
 20
-13.404671516039368
 30
0.0
 10
-0.46867244931024454
 20
-13.421022965172325
 30
0.0
 10
0.4686724493102396
 20
-13.421022965172327
 30
0.0
 10
0.7025090661742659
 20
-13.40467151603937
 30
0.0
 10
0.7850393436441637
 20
-14.979443021318609
 30
0.0
 10
0.8134956763124007
 20
-15.113171204711639
 30
0.0
 10
0.8500426859455865
 20
-15.244918333672382
 30
0.0
 10
0.8945447193270661
 20
-15.37419539632249
 30
0.0
 10
0.9468365962126446
 20
-15.500522549042362
 30
0.0
 10
1.0067242224376938
 20
-15.623430897528767
 30
0.0
 10
1.073985310345392
 20
-15.74246423721139
 30
0.0
 10
1.1483702038620445
 20
-15.857180746568337
 30
0.0
 10
1.2296028051570138
 20
-15.967154627055383
 30
0.0
 10
1.3173815994477382
 20
-16.071977683562018
 30
0.0
 10
1.4113807741460185
 20
-16.171260839528014
 30
0.0
 10
1.511251428191587
 20
-16.264635581096798
 30
0.0
 10
1.6166228670842202
 20
-16.351755324945263
 30
0.0
 10
1.7271039788075677
 20
-16.432296704713053
 30
0.0
 10
1.8184253187178467
 20
-16.33054503259157
 30
0.0
 10
1.9033809256094003
 20
-16.223421110145587
 30
0.0
 10
1.981655465848552
 20
-16.111322554165252
 30
0.0
 10
2.052958404224019
 20
-15.994665446016837
 30
0.0
 10
2.117025082339817
 20
-15.87388278725436
 30
0.0
 10
2.1736177009600053
 20
-15.749422892427807
 30
0.0
 10
2.222526202659044
 20
-15.621747725053407
 30
0.0
 10
2.2635690515016056
 20
-15.491331182922384
 30
0.0
 10
2.2965939068578534
 20
-15.358657339112742
 30
0.0
 10
2.3214781888531677
 20
-15.22421864523295
 30
0.0
 10
2.3381295333535004
 20
-15.088514103566661
 30
0.0
 10
2.3464861347975825
 20
-14.952047414902976
 30
0.0
 10
2.3465169756034694
 20
-14.815325108927066
 30
0.0
 10
2.0998303621843086
 20
-13.25780712980179
 30
0.0
 10
2.331956745370108
 20
-13.22518389415241
 30
0.0
 10
3.2488184090157954
 20
-13.030298931400827
 30
0.0
 10
3.4741454773284994
 20
-12.9656874342756
 30
0.0
 10
3.882285676537808
 20
-14.488887394336023
 30
0.0
 10
3.9379238227821602
 20
-14.613776891832885
 30
0.0
 10
4.00106396091147
 20
-14.735046479362232
 30
0.0
 10
4.0714717307708765
 20
-14.852246035018178
 30
0.0
 10
4.1488857966025545
 20
-14.96494054381934
 30
0.0
 10
4.233018817057657
 20
-15.072711712373957
 30
0.0
 10
4.323558511734416
 20
-15.175159521478717
 30
0.0
 10
4.420168820283683
 20
-15.271903710888427
 30
0.0
 10
4.522491149779575
 20
-15.362585190745454
 30
0.0
 10
4.630145705725334
 20
-15.446867374430076
 30
0.0
 10
4.742732901754028
 20
-15.524437427884504
 30
0.0
 10
4.859834842791654
 20
-15.595007430773455
 30
0.0
 10
4.981016876177495
 20
-15.658315445171308
 30
0.0
 10
5.105829204984408
 20
-15.714126487809137
 30
0.0
 10
5.173999592319133
 20
-15.595611559664366
 30
0.0
 10
5.234826399526214
 20
-15.473165288069358
 30
0.0
 10
5.288083852947581
 20
-15.347242162482367
 30
0.0
 10
5.333574274443769
 20
-15.218309577560534
 30
0.0
 10
5.37112881512495
 20
-15.086846098309634
 30
0.0
 10
5.400608082075141
 20
-14.953339683772331
 30
0.0
 10
5.421902655743289
 20
-14.818285875848163
 30
0.0
 10
5.4349334960808555
 20
-14.68218595996787
 30
0.0
 10
5.4396522359183965
 20
-14.545545104449205
 30
0.0
 10
5.436041360492218
 20
-14.408870485440472
 30
0.0
 10
5.424114272454723
 20
-14.272669404411456
 30
0.0
 10
5.403915242127173
 20
-14.137447405179255
 30
0.0
 10
5.3755192431795
 20
-14.003706397458028
 30
0.0
 10
4.810397127611407
 20
-12.531512953974957
 30
0.0
 10
5.030668240307816
 20
-12.451340825484769
 30
0.0
 10
5.8869754146870115
 20
-12.070088308015652
 30
0.0
 10
6.093945060323893
 20
-11.960040595362889
 30
0.0
 10
6.809857496093205
 20
-13.36509786282552
 30
0.0
 10
6.8902458019413455
 20
-13.475690404099293
 30
0.0
 10
6.97721954155053
 20
-13.58118238730617
 30
0.0
 10
7.070455890491044
 20
-13.681182252999925
 30
0.0
 10
7.169608779118075
 20
-13.775318827079513
 30
0.0
 10
7.274310177094318
 20
-13.863242698493067
 30
0.0
 10
7.384171459425107
 20
-13.944627516162955
 30
0.0
 10
7.498784848935691
 20
-14.019171200318093
 30
0.0
 10
7.617724929836523
 20
-14.086597063737335
 30
0.0
 10
7.740550226758613
 20
-14.146654838742135
 30
0.0
 10
7.8668048433979605
 20
-14.199121606126617
 30
0.0
 10
7.996020154686842
 20
-14.243802622577054
 30
0.0
 10
8.12771654621102
 20
-14.280532043509545
 30
0.0
 10
8.261405194416634
 20
-14.309173538643044
 30
0.0
 10
8.303445256131464
 20
-14.179075025532633
 30
0.0
 10
8.33748484029972
 20
-14.046657894419706
 30
0.0
 10
8.363397600631174
 20
-13.912413644060404
 30
0.0
 10
8.381087355541437
 20
-13.77684055501342
 30
0.0
 10
8.390488445153554
 20
-13.640441840149125
 30
0.0
 10
8.391565975010808
 20
-13.503723776851208
 30
0.0
 10
8.384315945596066
 20
-13.36719382784363
 30
0.0
 10
8.368765267176974
 20
-13.23135875761789
 30
0.0
 10
8.344971659921882
 20
-13.096722751451942
 30
0.0
 10
8.313023439657236
 20
-12.96378554400253
 30
0.0
 10
8.273039190061672
 20
-12.833040564417056
 30
0.0
 10
8.225167322513505
 20
-12.70497310484993
 30
0.0
 10
8.169585525225408
 20
-12.580058519181357
 30
0.0
 10
7.31072645571548
 20
-11.257531529188627
 30
0.0
 10
7.509515393319572
 20
-11.133314414581214
 30
0.0
 10
8.267843345894207
 20
-10.58235690686051
 30
0.0
 10
8.447410002190374
 20
-10.431682591790658
 30
0.0
 10
9.439805865747555
 20
-11.657189421854568
 30
0.0
 10
9.541430976488034
 20
-11.748651582169702
 30
0.0
 10
9.648437147809865
 20
-11.833755455181274
 30
0.0
 10
9.760427199985145
 20
-11.912185156929425
 30
0.0
 10
9.876985454386181
 20
-11.983649576282765
 30
0.0
 10
9.997679276378953
 20
-12.047883455468934
 30
0.0
 10
10.122060681152997
 20
-12.104648374644091
 30
0.0
 10
10.249667996527224
 20
-12.1537336368468
 30
0.0
 10
10.3800275765598
 20
-12.194957050051642
 30
0.0
 10
10.512655559601557
 20
-12.228165603419734
 30
0.0
 10
10.647059664267552
 20
-12.25323603523609
 30
0.0
 10
10.782741016660509
 20
-12.270075290425815
 30
0.0
 10
10.919196002064016
 20
-12.278620865950888
 30
0.0
 10
11.055918134232437
 20
-12.278841042805578
 30
0.0
 10
11.069990517899836
 20
-12.142844874034381
 30
0.0
 10
11.075755185861066
 20
-12.006244147441063
 30
0.0
 10
11.073190741132905
 20
-11.869545890225533
 30
0.0
 10
11.062306702282802
 20
-11.733257491596612
 30
0.0
 10
11.043143468098373
 20
-11.597884819472142
 30
0.0
 10
11.015772167637367
 20
-11.463930342825785
 30
0.0
 10
10.980294396214658
 20
-11.33189126664981
 30
0.0
 10
10.936841838306258
 20
-11.20225768645647
 30
0.0
 10
10.885575778769974
 20
-11.075510769167927
 30
0.0
 10
10.826686504197
 20
-10.952120967146872
 30
0.0
 10
10.760392596616406
 20
-10.832546271996845
 30
0.0
 10
10.686940122174185
 20
-10.71723051461373
 30
0.0
 10
10.606601717798206
 20
-10.606601717798217
 30
0.0
 10
9.491541956947092
 20
-9.491541956947101
 30
0.0
 10
9.660160688990436
 20
-9.328708740190642
 30
0.0
 10
10.287366849371734
 20
-8.632125729093206
 30
0.0
 10
10.43168259179065
 20
-8.44741000219038
 30
0.0
 10
11.657189421854566
 20
-9.439805865747566
 30
0.0
 10
11.775609832496633
 20
-9.508140309814149
 30
0.0
 10
11.897971752371767
 20
-9.569136625006115
 30
0.0
 10
12.023821005113865
 20
-9.622568408494807
 30
0.0
 10
12.15269047026302
 20
-9.668237335071824
 30
0.0
 10
12.284101817098023
 20
-9.705973893281826
 30
0.0
 10
12.417567280078494
 20
-9.735638014605996
 30
0.0
 10
12.552591469306673
 20
-9.757119593360795
 30
0.0
 10
12.688673209288902
 20
-9.770338895382302
 30
0.0
 10
12.825307399171734
 20
-9.775246853979182
 30
0.0
 10
12.961986887548022
 20
-9.771825252055756
 30
0.0
 10
13.098204354874118
 20
-9.76008678972927
 30
0.0
 10
13.233454196511152
 20
-9.740075037190254
 30
0.0
 10
13.367234399401042
 20
-9.71186427298106
 30
0.0
 10
13.352724074327957
 20
-9.575914133706398
 30
0.0
 10
13.329961882430313
 20
-9.441099918867826
 30
0.0
 10
13.299032311182724
 20
-9.307922024587405
 30
0.0
 10
13.260050163297418
 20
-9.176874773380925
 30
0.0
 10
13.213160130605702
 20
-9.048444579358272
 30
0.0
 10
13.158536256998651
 20
-8.923108142777814
 30
0.0
 10
13.096381292420386
 20
-8.801330680656118
 30
0.0
 10
13.02692594031178
 20
-8.68356420000056
 30
0.0
 10
12.950428001297889
 20
-8.570245820074119
 30
0.0
 10
12.867171416297511
 20
-8.461796149919703
 30
0.0
 10
12.777465212606625
 20
-8.358617727166225
 30
0.0
 10
12.68164235686755
 20
-8.26109352391116
 30
0.0
 10
12.580058519181359
 20
-8.16958552522541
 30
0.0
 10
11.257531529188626
 20
-7.31072645571548
 30
0.0
 10
11.388610607958462
 20
-7.116393729742713
 30
0.0
 10
11.857283057268706
 20
-6.304629235429625
 30
0.0
 10
11.960040595362889
 20
-6.09394506032389
 30
0.0
 10
13.365097862825518
 20
-6.8098574960931995
 30
0.0
 10
13.495138033179948
 20
-6.852077680800482
 30
0.0
 10
13.627507898552208
 20
-6.88630060650616
 30
0.0
 10
13.761716135624575
 20
-6.91239924640279
 30
0.0
 10
13.89726459751053
 20
-6.930276728968247
 30
0.0
 10
14.03365016274947
 20
-6.93986669752821
 30
0.0
 10
14.170366602765775
 20
-6.941133556555276
 30
0.0
 10
14.306906460860692
 20
-6.934072603790528
 30
0.0
 10
14.442762935762712
 20
-6.9187100476971155
 30
0.0
 10
14.577431762745153
 20
-6.895102910181097
 30
0.0
 10
14.710413085328739
 20
-6.863338814940614
 30
0.0
 10
14.841213310621894
 20
-6.823535662228976
 30
0.0
 10
14.969346941412175
 20
-6.775841191238868
 30
0.0
 10
15.094338378208606
 20
-6.720432431731998
 30
0.0
 10
15.051879515228997
 20
-6.590469995401321
 30
0.0
 10
15.001585280483516
 20
-6.463334320416318
 30
0.0
 10
14.94364235339657
 20
-6.339497302109499
 30
0.0
 10
14.878265803395749
 20
-6.219418592037662
 30
0.0
 10
14.805698291628715
 20
-6.10354389187206
 30
0.0
 10
14.726209170266674
 20
-5.992303299067017
 30
0.0
 10
14.640093482737534
 20
-5.886109710447415
 30
0.0
 10
14.547670868599624
 20
-5.78535728964056
 30
0.0
 10
14.44928437712087
 20
-5.690420004040922
 30
0.0
 10
14.34529919396703
 20
-5.601650236738148
 30
0.0
 10
14.236101285725264
 20
-5.519377478560549
 30
0.0
 10
14.12209596729421
 20
-5.4439071050888295
 30
0.0
 10
14.003706397458027
 20
-5.375519243179502
 30
0.0
 10
12.531512953974957
 20
-4.810397127611409
 30
0.0
 10
12.619323594741852
 20
-4.593058165059205
 30
0.0
 10
12.908979098006236
 20
-3.7015901912101956
 30
0.0
 10
12.965687434275596
 20
-3.4741454773285088
 30
0.0
 10
14.488887394336025
 20
-3.88228567653782
 30
0.0
 10
14.624863944956351
 20
-3.8965463772191664
 30
0.0
 10
14.761456557527882
 20
-3.9025002073654003
 30
0.0
 10
14.898158234967884
 20
-3.9001250678713184
 30
0.0
 10
15.034461575372537
 20
-3.889429774651425
 30
0.0
 10
15.169860655363921
 20
-3.8704540259175007
 30
0.0
 10
15.303852907949082
 20
-3.84326825482892
 30
0.0
 10
15.435940987921057
 20
-3.8079733680626564
 30
0.0
 10
15.565634617877956
 20
-3.7647003712733262
 30
0.0
 10
15.692452408008144
 20
-3.7136098828334765
 30
0.0
 10
15.815923642886942
 20
-3.654891537658982
 30
0.0
 10
15.93559002865273
 20
-3.5887632833324083
 30
0.0
 10
16.05100739407734
 20
-3.5154705711369405
 30
0.0
 10
16.161747339216856
 20
-3.435285445003572
 30
0.0
 10
16.093195594383157
 20
-3.3169906937134908
 30
0.0
 10
16.017567416186733
 20
-3.2030899976435556
 30
0.0
 10
15.935143517215144
 20
-3.094006127246289
 30
0.0
 10
15.846229834045335
 20
-2.990143974140813
 30
0.0
 10
15.751156391684757
 20
-2.891889048258003
 30
0.0
 10
15.650276078602374
 20
-2.7996060469255433
 30
0.0
 10
15.543963336896294
 20
-2.713637501204084
 30
0.0
 10
15.432612772459818
 20
-2.6343025044989465
 30
0.0
 10
15.316637690304587
 20
-2.561895528166455
 30
0.0
 10
15.196468560477374
 20
-2.4966853285110586
 30
0.0
 10
15.072551420264595
 20
-2.438913949230195
 30
0.0
 10
14.945346218615216
 20
-2.388795823009565
 30
0.0
 10
14.815325108927064
 20
-2.3465169756034707
 30
0.0
 10
13.257807129801789
 20
-2.0998303621843104
 30
0.0
 10
13.29851158620202
 20
-1.8689839186242614
 30
0.0
 10
13.396490808006593
 20
-0.9367738934344356
 30
0.0
 10
13.40467151603937
 20
-0.7025090661742606
 30
0.0
 10
14.979443021318609
 20
-0.7850393436441575
 30
0.0
 10
15.115413124454847
 20
-0.7707172992493607
 30
0.0
 10
15.250258731612197
 20
-0.7481418228891141
 30
0.0
 10
15.383479330148278
 20
-0.7173967089973949
 30
0.0
 10
15.514580439039953
 20
-0.6785960756275715
 30
0.0
 10
15.643075444271288
 20
-0.631883940875178
 30
0.0
 10
15.768487405021169
 20
-0.577433688319323
 30
0.0
 10
15.890350823946497
 20
-0.515447423466886
 30
0.0
 10
16.008213374990074
 20
-0.44615522358820936
 30
0.0
 10
16.121637582300046
 20
-0.3698142837287133
 30
0.0
 10
16.230202444029132
 20
-0.2867079620662145
 30
0.0
 10
16.33350499498656
 20
-0.19714472815734596
 30
0.0
 10
16.43116180234248
 20
-0.10145701797691364
 30
0.0
 10
16.522810388833264
 20
0
 30
0.0
 10
16.43116180234248
 20
0.10145701797691387
 30
0.0
 10
16.33350499498656
 20
0.19714472815734596
 30
0.0
 10
16.230202444029132
 20
0.2867079620662145
 30
0.0
 10
16.121637582300046
 20
0.3698142837287133
 30
0.0
 10
16.008213374990074
 20
0.44615522358820936
 30
0.0
 10
15.890350823946497
 20
0.515447423466886
 30
0.0
 10
15.768487405021169
 20
0.577433688319323
 30
0.0
 10
15.643075444271288
 20
0.631883940875178
 30
0.0
 10
15.514580439039953
 20
0.6785960756275715
 30
0.0
 10
15.383479330148278
 20
0.7173967089973949
 30
0.0
 10
15.250258731612197
 20
0.7481418228891141
 30
0.0
 10
15.115413124454847
 20
0.7707172992493607
 30
0.0
 10
14.979443021318607
 20
0.7850393436441574
 30
0.0
 10
13.404671516039368
 20
0.7025090661742606
 30
0.0
  0
ENDSEC
  0
EOF
