999
DXF generated by OpenJsCad
  0
SECTION
  2
HEADER
  0
ENDSEC
  0
SECTION
  2
TABLES
  0
TABLE
  2
LTYPE
  70
1
  0
LTYPE
  2
CONTINUOUS
  3
Solid Line
  72
65
  73
0
  40
0.0
  0
ENDTAB
  0
TABLE
  2
LAYER
  70
1
  0
LAYER
  2
OpenJsCad
  62
7
  6
continuous
  0
ENDTAB
  0
TABLE
  2
STYLE
  70
0
  0
ENDTAB
  0
TABLE
  2
VIEW
  70
0
  0
ENDTAB
  0
ENDSEC
  0
SECTION
  2
BLOCKS
  0
ENDSEC
  0
SECTION
  2
ENTITIES
  0
LWPOLYLINE
  8
OpenJsCad
  90
2361
  70
1
 10
38.402868681939026
 20
0.754135480098687
 30
0.0
 10
38.35022577273907
 20
2.261631161498123
 30
0.0
 10
39.930624407388635
 20
2.3548321460475616
 30
0.0
 10
40.06115930331635
 20
2.3809969131088344
 30
0.0
 10
40.18986083343773
 20
2.415053780766468
 30
0.0
 10
40.31625230938864
 20
2.456876608231653
 30
0.0
 10
40.43986559884889
 20
2.5063104909341924
 30
0.0
 10
40.560242859423916
 20
2.5631723342624313
 30
0.0
 10
40.676938234414365
 20
2.627251531714248
 30
0.0
 10
40.78951950419279
 20
2.6983107449473698
 30
0.0
 10
40.89756968707085
 20
2.776086782839833
 30
0.0
 10
41.00068858372793
 20
2.8602915763046957
 30
0.0
 10
41.09849425948064
 20
2.950613245248463
 30
0.0
 10
41.19062445890334
 20
3.046717253721391
 30
0.0
 10
41.27673794756001
 20
3.148247648981192
 30
0.0
 10
41.35651577587794
 20
3.254828379880853
 30
0.0
 10
41.261047245388426
 20
3.3476169232275694
 30
0.0
 10
41.16011110360648
 20
3.434426193310936
 30
0.0
 10
41.05408120066628
 20
3.5149346635033627
 30
0.0
 10
40.943350253118545
 20
3.588844144257942
 30
0.0
 10
40.82832838937582
 20
3.6558808875513202
 30
0.0
 10
40.70944163066734
 20
3.7157966007993637
 30
0.0
 10
40.587130313129485
 20
3.7683693664902442
 30
0.0
 10
40.46184745687645
 20
3.813404464128796
 30
0.0
 10
40.33405708809147
 20
3.8507350914477834
 30
0.0
 10
40.20423252035353
 20
3.880222982214852
 30
0.0
 10
40.072854601565226
 20
3.901758918346911
 30
0.0
 10
39.94040993297462
 20
3.915263134435152
 30
0.0
 10
39.807389066887886
 20
3.920685613182425
 30
0.0
 10
38.22167789163341
 20
3.764506694212475
 30
0.0
 10
38.06398160828299
 20
5.264886607084802
 30
0.0
 10
39.6227736177431
 20
5.480493667278722
 30
0.0
 10
39.75085325418692
 20
5.516819426990611
 30
0.0
 10
39.876485969403156
 20
5.560869114363274
 30
0.0
 10
39.99920644139104
 20
5.6124795769198625
 30
0.0
 10
40.11856013459857
 20
5.671459658370751
 30
0.0
 10
40.234104983444176
 20
5.737590906623601
 30
0.0
 10
40.3454130296516
 20
5.810628382892397
 30
0.0
 10
40.452072007333996
 20
5.890301568908642
 30
0.0
 10
40.55368686995584
 20
5.976315368874565
 30
0.0
 10
40.649881253517506
 20
6.068351202447272
 30
0.0
 10
40.74029887054291
 20
6.166068184705628
 30
0.0
 10
40.824604829707084
 20
6.269104388729456
 30
0.0
 10
40.902486876216166
 20
6.377078186114699
 30
0.0
 10
40.9736565483455
 20
6.489589660459473
 30
0.0
 10
40.871202210269594
 20
6.57460179312099
 30
0.0
 10
40.76376624409549
 20
6.653224100785349
 30
0.0
 10
40.65174657419064
 20
6.725165379927718
 30
0.0
 10
40.53555810217388
 20
6.79015917240549
 30
0.0
 10
40.41563117019113
 20
6.847964752373491
 30
0.0
 10
40.292409967001966
 20
6.898368017891166
 30
0.0
 10
40.16635088278073
 20
6.941182283919394
 30
0.0
 10
40.037920818725745
 20
6.976248973769816
 30
0.0
 10
39.90759545773745
 20
7.003438206445648
 30
0.0
 10
39.77585750257059
 20
7.022649277698592
 30
0.0
 10
39.643194887986155
 20
7.033811033020074
 30
0.0
 10
39.510098973524855
 20
7.036882131185326
 30
0.0
 10
39.377062723595664
 20
7.031851197374179
 30
0.0
 10
37.80777360422929
 20
6.751611717591187
 30
0.0
 10
37.58943337105632
 20
7.989880712476119
 30
0.0
 10
37.52856148067509
 20
8.23402452980551
 30
0.0
 10
39.07063525283489
 20
8.572366122602029
 30
0.0
 10
39.19546997624537
 20
8.618628914576371
 30
0.0
 10
39.31725930909003
 20
8.672399840693403
 30
0.0
 10
39.43555216459637
 20
8.733479742677515
 30
0.0
 10
39.54991040634344
 20
8.801642391061737
 30
0.0
 10
39.65991047104392
 20
8.87663532310285
 30
0.0
 10
39.76514493734979
 20
8.95818077786
 30
0.0
 10
39.86522403487103
 20
9.04597672497356
 30
0.0
 10
39.95977708781821
 20
9.13969798333366
 30
0.0
 10
40.04845388792194
 20
9.238997425495214
 30
0.0
 10
40.13092599154416
 20
9.343507263378342
 30
0.0
 10
40.20688793617698
 20
9.45284041049225
 30
0.0
 10
40.27605837182335
 20
9.566591915637122
 30
0.0
 10
40.33818110306909
 20
9.684340462773813
 30
0.0
 10
40.22937262247055
 20
9.761052056682868
 30
0.0
 10
40.11609921036184
 20
9.8310026692569
 30
0.0
 10
39.998780412007605
 20
9.893933215440395
 30
0.0
 10
39.87785075608841
 20
9.949610611298104
 30
0.0
 10
39.753758145281054
 20
9.99782863731792
 30
0.0
 10
39.62696219730408
 20
10.038408702212523
 30
0.0
 10
39.49793254257258
 20
10.071200504390848
 30
0.0
 10
39.36714708476787
 20
10.096082588649354
 30
0.0
 10
39.235090230764335
 20
10.112962796021247
 30
0.0
 10
39.102251096469466
 20
10.12177860511746
 30
0.0
 10
38.96912169522263
 20
10.12249736369515
 30
0.0
 10
38.83619511546216
 20
10.11511640959598
 30
0.0
 10
38.7039636944104
 20
10.09966308060632
 30
0.0
 10
37.16362211776045
 20
9.69771636848026
 30
0.0
 10
36.94052149646422
 20
10.592524086635166
 30
0.0
 10
36.75913873440742
 20
11.150762827344693
 30
0.0
 10
38.277613429288365
 20
11.611387090178498
 30
0.0
 10
38.398433592083876
 20
11.667301688918826
 30
0.0
 10
38.51562867082094
 20
11.73046233814007
 30
0.0
 10
38.62876459505517
 20
11.800635101644842
 30
0.0
 10
38.737422328753425
 20
11.877560071568732
 30
0.0
 10
38.84119942233118
 20
11.96095233103439
 30
0.0
 10
38.93971150325669
 20
12.050503009434708
 30
0.0
 10
39.03259369970088
 20
12.145880426436506
 30
0.0
 10
39.1195019919599
 20
12.24673132046751
 30
0.0
 10
39.20011448664502
 20
12.352682157136574
 30
0.0
 10
39.274132608920475
 20
12.463340512740874
 30
0.0
 10
39.34128220837338
 20
12.578296527735944
 30
0.0
 10
39.401314574419764
 20
12.697124424785015
 30
0.0
 10
39.45400735748587
 20
12.81938408576516
 30
0.0
 10
39.33951557483007
 20
12.88732218843611
 30
0.0
 10
39.22110308503964
 20
12.948169837132356
 30
0.0
 10
39.09920846764035
 20
13.001701662613225
 30
0.0
 10
38.97428319936064
 20
13.047719392190798
 30
0.0
 10
38.8467899819393
 20
13.086052584097894
 30
0.0
 10
38.717201028357714
 20
13.116559258775114
 30
0.0
 10
38.58599631384408
 20
13.139126424738722
 30
0.0
 10
38.453661798127605
 20
13.153670497081723
 30
0.0
 10
38.32068762552711
 20
13.160137607057994
 30
0.0
 10
38.18756630954065
 20
13.158503801602846
 30
0.0
 10
38.054790908660124
 20
13.148775132051096
 30
0.0
 10
37.922853200167275
 20
13.130987631723945
 30
0.0
 10
37.79224185867512
 20
13.105207182467742
 30
0.0
 10
36.29302187644634
 20
12.585323007491398
 30
0.0
 10
36.11163911438956
 20
13.143561748200925
 30
0.0
 10
35.76617652810485
 20
13.998611653861321
 30
0.0
 10
37.248597390352145
 20
14.578819995165988
 30
0.0
 10
37.36465809605232
 20
14.644041668577584
 30
0.0
 10
37.47653637405001
 20
14.716202634497542
 30
0.0
 10
37.58381784641774
 20
14.795035621101158
 30
0.0
 10
37.686105161006566
 20
14.880248644544986
 30
0.0
 10
37.78301946317029
 20
14.971526090424845
 30
0.0
 10
37.87420179897794
 20
15.068529882757366
 30
0.0
 10
37.95931444471755
 20
15.170900736155378
 30
0.0
 10
38.0380421577667
 20
15.278259486559266
 30
0.0
 10
38.1100933441971
 20
15.390208495595541
 30
0.0
 10
38.17520113878843
 20
15.506333123361077
 30
0.0
 10
38.233124393451284
 20
15.62620326417811
 30
0.0
 10
38.28364857039822
 20
15.749374939631789
 30
0.0
 10
38.32658653675497
 20
15.87539194298998
 30
0.0
 10
38.20711733195437
 20
15.934137693428148
 30
0.0
 10
38.08429581685792
 20
15.9855072322585
 30
0.0
 10
37.9585769012639
 20
16.029310295531516
 30
0.0
 10
37.8304262264445
 20
16.065384644223656
 30
0.0
 10
37.70031844049036
 20
16.093596665142847
 30
0.0
 10
37.568735440295704
 20
16.113841865808794
 30
0.0
 10
37.436164586694915
 20
16.12604526147518
 30
0.0
 10
37.30309689936175
 20
16.13016165286029
 30
0.0
 10
37.17002523815679
 20
16.126175793557397
 30
0.0
 10
37.03744247765913
 20
16.114102446504816
 30
0.0
 10
36.90583968164363
 20
16.093986329306528
 30
0.0
 10
36.775704284265004
 20
16.065901948605852
 30
0.0
 10
36.64751828468544
 20
16.029953324125643
 30
0.0
 10
35.2010821979453
 20
15.39726920137933
 30
0.0
 10
35.106824456478854
 20
15.630565298115638
 30
0.0
 10
34.5556291621072
 20
16.76068312762632
 30
0.0
 10
35.98993136208886
 20
17.456369626933682
 30
0.0
 10
36.10051705784893
 20
17.530496261711555
 30
0.0
 10
36.20638876832012
 20
17.61121264797937
 30
0.0
 10
36.30715436286947
 20
17.698219826104793
 30
0.0
 10
36.40244062304045
 20
17.791195536442824
 30
0.0
 10
36.49189462489004
 20
17.8897954129302
 30
0.0
 10
36.57518504615838
 20
17.993654258558163
 30
0.0
 10
36.65200339342958
 20
18.102387397999426
 30
0.0
 10
36.72206514473829
 20
18.21559210237955
 30
0.0
 10
36.785110803390175
 20
18.332849080915505
 30
0.0
 10
36.840906859093195
 20
18.453724033896748
 30
0.0
 10
36.88924665283955
 20
18.577769261256737
 30
0.0
 10
36.929951142335184
 20
18.704525320777112
 30
0.0
 10
36.96286956514165
 20
18.833522729782743
 30
0.0
 10
36.839159505571395
 20
18.882713940901734
 30
0.0
 10
36.71268620065178
 20
18.924288659577197
 30
0.0
 10
36.58391808578348
 20
18.958092900191282
 30
0.0
 10
36.45333209594906
 20
18.984001457642368
 30
0.0
 10
36.32141189922776
 20
19.00191837108324
 30
0.0
 10
36.18864610537202
 20
19.011777279343594
 30
0.0
 10
36.055526456080806
 20
19.013541666720432
 30
0.0
 10
35.92254600367285
 20
19.007204998225923
 30
0.0
 10
35.79019728490557
 20
18.992790743791904
 30
0.0
 10
35.65897049670341
 20
18.97035229134126
 30
0.0
 10
35.52935168055275
 20
18.939972749048245
 30
0.0
 10
35.4018209222876
 20
18.901764637520078
 30
0.0
 10
35.27685057393421
 20
18.855869473039913
 30
0.0
 10
33.88903069731298
 20
18.11406429429201
 30
0.0
 10
33.13470848487103
 20
19.420588691519242
 30
0.0
 10
34.50937543911168
 20
20.226294935119387
 30
0.0
 10
34.61380432734381
 20
20.30886951591052
 30
0.0
 10
34.71301673598752
 20
20.397643679163934
 30
0.0
 10
34.806645199320144
 20
20.492288620625196
 30
0.0
 10
34.894342933593414
 20
20.592453791685628
 30
0.0
 10
34.97578512146099
 20
20.697768197754197
 30
0.0
 10
35.05067011504603
 20
20.80784177235773
 30
0.0
 10
35.118720553193214
 20
20.922266821880154
 30
0.0
 10
35.17968438876675
 20
21.04061953558962
 30
0.0
 10
35.23333582218973
 20
21.162461555360686
 30
0.0
 10
35.279476137766956
 20
21.2873415992775
 30
0.0
 10
35.317934439693765
 20
21.414797133104553
 30
0.0
 10
35.348568285024726
 20
21.54435608343401
 30
0.0
 10
35.37126421125784
 20
21.675538586164567
 30
0.0
 10
35.244076010572925
 20
21.714871977790096
 30
0.0
 10
35.11473066581164
 20
21.74639555434504
 30
0.0
 10
34.98370724991694
 20
21.76999255791576
 30
0.0
 10
34.85149105111908
 20
21.785575589253632
 30
0.0
 10
34.718571775511336
 20
21.793086931486837
 30
0.0
 10
34.58544173326273
 20
21.792498763893764
 30
0.0
 10
34.452594015185745
 20
21.783813264946158
 30
0.0
 10
34.32052066641259
 20
21.76706260424045
 30
0.0
 10
34.1897108639446
 20
21.74230882334712
 30
0.0
 10
34.060649104824556
 20
21.709643606019316
 30
0.0
 10
33.93381341164293
 20
21.669187938612037
 30
0.0
 10
33.809673562024244
 20
21.621091661969423
 30
0.0
 10
33.68868934865147
 20
21.565532916440013
 30
0.0
 10
32.355337831115705
 20
20.711999086642805
 30
0.0
 10
31.51184310987062
 20
21.9625314375073
 30
0.0
 10
32.81605774102054
 20
22.871518409104496
 30
0.0
 10
32.91368598290265
 20
22.96203183615948
 30
0.0
 10
33.00562741222813
 20
23.058316454161634
 30
0.0
 10
33.09154149373295
 20
23.16001564142198
 30
0.0
 10
33.17111001641428
 20
23.266752721616935
 30
0.0
 10
33.24403827212935
 20
23.37813235893269
 30
0.0
 10
33.310056147143854
 20
23.493742022321186
 30
0.0
 10
33.36891912258677
 20
23.613153513444274
 30
0.0
 10
33.420409180106304
 20
23.735924552646797
 30
0.0
 10
33.46433560937241
 20
23.861600417084492
 30
0.0
 10
33.500535714435095
 20
23.989715624939304
 30
0.0
 10
33.52887541632229
 20
24.11979565948411
 30
0.0
 10
33.54924974964532
 20
24.25135872661115
 30
0.0
 10
33.56158325137269
 20
24.38391753931469
 30
0.0
 10
33.43170106712473
 20
24.413150608007705
 30
0.0
 10
33.3002811395839
 20
24.434428689110014
 30
0.0
 10
33.1678102255915
 20
24.447672972263554
 30
0.0
 10
33.034778974662146
 20
24.452834402918135
 30
0.0
 10
32.90168011170222
 20
24.44989386402104
 30
0.0
 10
32.76900661204145
 20
24.438862246823327
 30
0.0
 10
32.63724987553698
 20
24.419780410540508
 30
0.0
 10
32.506897906512656
 20
24.392719031017016
 30
0.0
 10
32.378433506274845
 20
24.357778338955043
 30
0.0
 10
32.25233248489928
 20
24.315087748677197
 30
0.0
 10
32.1290618989123
 20
24.26480537879809
 30
0.0
 10
32.009078321393666
 20
24.207117466580172
 30
0.0
 10
31.89282615090829
 20
24.142237678142866
 30
0.0
 10
30.625303683005598
 20
23.182748276429194
 30
0.0
 10
29.696630945408316
 20
24.37139517596267
 30
0.0
 10
30.92041813450948
 20
25.37573136654582
 30
0.0
 10
31.01064381946568
 20
25.473625594488098
 30
0.0
 10
31.094747419987495
 20
25.57682704055112
 30
0.0
 10
31.17241743078271
 20
25.68495346430269
 30
0.0
 10
31.243366175470534
 20
25.797604384039076
 30
0.0
 10
31.307330872085526
 20
25.914362560100475
 30
0.0
 10
31.364074606376843
 20
26.03479554025503
 30
0.0
 10
31.413387209297966
 20
26.158457261427657
 30
0.0
 10
31.45508603543671
 20
26.284889701841042
 30
0.0
 10
31.489016639502495
 20
26.413624577449646
 30
0.0
 10
31.515053348365175
 20
26.544185076383407
 30
0.0
 10
31.533099726526718
 20
26.67608762497699
 30
0.0
 10
31.543088933301735
 20
26.808843678843616
 30
0.0
 10
31.544983970383896
 20
26.941961532359546
 30
0.0
 10
31.413208569428978
 20
26.96091404653057
 30
0.0
 10
31.28052430666347
 20
26.971815445734567
 30
0.0
 10
31.147422621809188
 20
26.97462535306112
 30
0.0
 10
31.014396500647692
 20
26.96933336109607
 30
0.0
 10
30.881938649085583
 20
26.955959070468797
 30
0.0
 10
30.750539668256476
 20
26.93455201725486
 30
0.0
 10
30.620686237418642
 20
26.90519148950286
 30
0.0
 10
30.49285931137861
 20
26.867986233565173
 30
0.0
 10
30.367532339117187
 20
26.823074051320084
 30
0.0
 10
30.245169510215725
 20
26.77062128977731
 30
0.0
 10
30.126224035577632
 20
26.71082222495727
 30
0.0
 10
30.01113646881304
 20
26.64389834232605
 30
0.0
 10
29.900333074503873
 20
26.57009751645127
 30
0.0
 10
28.70926545084226
 20
25.511688473631533
 30
0.0
 10
27.699785292039778
 20
26.632829771469336
 30
0.0
 10
28.834143868116755
 20
27.723494501825435
 30
0.0
 10
28.91641072479621
 20
27.8281659801866
 30
0.0
 10
28.992157969849867
 20
27.93764798307755
 30
0.0
 10
29.061105048491015
 20
28.05153500796223
 30
0.0
 10
29.122996592581487
 20
28.169405236859646
 30
0.0
 10
29.177603366471345
 20
28.29082209868524
 30
0.0
 10
29.22472311604837
 20
28.415335886235173
 30
0.0
 10
29.264181317852582
 20
28.542485421824615
 30
0.0
 10
29.295831825481123
 20
28.671799765410654
 30
0.0
 10
29.319557410889452
 20
28.80279995887335
 30
0.0
 10
29.3352701985839
 20
28.935000799994356
 30
0.0
 10
29.342911991097395
 20
29.067912639562593
 30
0.0
 10
29.34245448454288
 20
29.201043194950845
 30
0.0
 10
29.333899373446062
 20
29.333899373446062
 30
0.0
 10
29.201043194950845
 20
29.34245448454288
 30
0.0
 10
29.067912639562593
 20
29.342911991097395
 30
0.0
 10
28.935000799994356
 20
29.3352701985839
 30
0.0
 10
28.802799958873354
 20
29.31955741088945
 30
0.0
 10
28.671799765410658
 20
29.29583182548112
 30
0.0
 10
28.54248542182462
 20
29.264181317852586
 30
0.0
 10
28.415335886235177
 20
29.224723116048374
 30
0.0
 10
28.29082209868524
 20
29.177603366471345
 30
0.0
 10
28.169405236859653
 20
29.122996592581494
 30
0.0
 10
28.051535007962237
 20
29.061105048491022
 30
0.0
 10
27.93764798307756
 20
28.99215796984987
 30
0.0
 10
27.828165980186608
 20
28.91641072479622
 30
0.0
 10
27.723494501825435
 20
28.834143868116755
 30
0.0
 10
26.618633568496897
 20
27.685020365530917
 30
0.0
 10
25.714156355739792
 20
28.55846385695924
 30
0.0
 10
25.521405826677025
 20
28.720200754805028
 30
0.0
 10
26.570097516451266
 20
29.900333074503873
 30
0.0
 10
26.643898342326047
 20
30.011136468813035
 30
0.0
 10
26.710822224957266
 20
30.126224035577632
 30
0.0
 10
26.770621289777306
 20
30.245169510215725
 30
0.0
 10
26.823074051320077
 20
30.367532339117187
 30
0.0
 10
26.867986233565173
 20
30.49285931137861
 30
0.0
 10
26.905191489502858
 20
30.62068623741864
 30
0.0
 10
26.934552017254852
 20
30.750539668256476
 30
0.0
 10
26.955959070468797
 20
30.881938649085583
 30
0.0
 10
26.96933336109607
 20
31.014396500647695
 30
0.0
 10
26.97462535306112
 20
31.14742262180919
 30
0.0
 10
26.971815445734567
 20
31.280524306663473
 30
0.0
 10
26.96091404653057
 20
31.41320856942898
 30
0.0
 10
26.941961532359546
 20
31.5449839703839
 30
0.0
 10
26.808843678843616
 20
31.54308893330174
 30
0.0
 10
26.67608762497699
 20
31.53309972652672
 30
0.0
 10
26.544185076383407
 20
31.51505334836518
 30
0.0
 10
26.413624577449646
 20
31.4890166395025
 30
0.0
 10
26.284889701841042
 20
31.45508603543671
 30
0.0
 10
26.158457261427664
 20
31.413387209297976
 30
0.0
 10
26.03479554025504
 20
31.364074606376853
 30
0.0
 10
25.914362560100475
 20
31.307330872085526
 30
0.0
 10
25.797604384039083
 20
31.243366175470545
 30
0.0
 10
25.684953464302694
 20
31.17241743078272
 30
0.0
 10
25.576827040551123
 20
31.094747419987506
 30
0.0
 10
25.4736255944881
 20
31.01064381946569
 30
0.0
 10
25.37573136654582
 20
30.92041813450948
 30
0.0
 10
24.36582720348885
 20
29.689846351318586
 30
0.0
 10
23.659380229035662
 20
30.282625747028565
 30
0.0
 10
23.184513992997754
 20
30.62763626262405
 30
0.0
 10
24.142237678142862
 20
31.892826150908295
 30
0.0
 10
24.20711746658017
 20
32.00907832139366
 30
0.0
 10
24.264805378798087
 20
32.12906189891229
 30
0.0
 10
24.31508774867719
 20
32.25233248489927
 30
0.0
 10
24.35777833895504
 20
32.37843350627484
 30
0.0
 10
24.392719031017016
 20
32.506897906512656
 30
0.0
 10
24.419780410540504
 20
32.63724987553698
 30
0.0
 10
24.438862246823327
 20
32.769006612041444
 30
0.0
 10
24.44989386402104
 20
32.90168011170222
 30
0.0
 10
24.45283440291814
 20
33.034778974662146
 30
0.0
 10
24.447672972263558
 20
33.1678102255915
 30
0.0
 10
24.434428689110014
 20
33.3002811395839
 30
0.0
 10
24.413150608007705
 20
33.43170106712473
 30
0.0
 10
24.38391753931469
 20
33.56158325137269
 30
0.0
 10
24.25135872661115
 20
33.54924974964532
 30
0.0
 10
24.11979565948411
 20
33.52887541632229
 30
0.0
 10
23.989715624939308
 20
33.500535714435095
 30
0.0
 10
23.861600417084496
 20
33.46433560937241
 30
0.0
 10
23.735924552646797
 20
33.420409180106304
 30
0.0
 10
23.61315351344428
 20
33.368919122586775
 30
0.0
 10
23.49374202232119
 20
33.310056147143854
 30
0.0
 10
23.37813235893269
 20
33.24403827212935
 30
0.0
 10
23.26675272161694
 20
33.171110016414275
 30
0.0
 10
23.16001564142199
 20
33.091541493732954
 30
0.0
 10
23.058316454161638
 20
33.00562741222814
 30
0.0
 10
22.962031836159483
 20
32.913685982902656
 30
0.0
 10
22.87151840910449
 20
32.81605774102055
 30
0.0
 10
21.964204216126287
 20
31.514243212861892
 30
0.0
 10
21.489337980088308
 20
31.85925372845731
 30
0.0
 10
20.707267152341956
 20
32.347945819738236
 30
0.0
 10
21.565532916440013
 20
33.688689348651465
 30
0.0
 10
21.621091661969423
 20
33.80967356202423
 30
0.0
 10
21.66918793861204
 20
33.933813411642916
 30
0.0
 10
21.709643606019316
 20
34.06064910482454
 30
0.0
 10
21.74230882334712
 20
34.18971086394458
 30
0.0
 10
21.767062604240458
 20
34.320520666412584
 30
0.0
 10
21.783813264946158
 20
34.45259401518573
 30
0.0
 10
21.792498763893768
 20
34.585441733262726
 30
0.0
 10
21.793086931486847
 20
34.71857177551133
 30
0.0
 10
21.785575589253636
 20
34.851491051119076
 30
0.0
 10
21.769992557915764
 20
34.98370724991693
 30
0.0
 10
21.746395554345042
 20
35.114730665811635
 30
0.0
 10
21.7148719777901
 20
35.24407601057292
 30
0.0
 10
21.67553858616457
 20
35.37126421125783
 30
0.0
 10
21.544356083434014
 20
35.34856828502472
 30
0.0
 10
21.414797133104557
 20
35.31793443969376
 30
0.0
 10
21.287341599277504
 20
35.27947613776695
 30
0.0
 10
21.16246155536069
 20
35.23333582218972
 30
0.0
 10
21.04061953558963
 20
35.17968438876675
 30
0.0
 10
20.922266821880164
 20
35.118720553193214
 30
0.0
 10
20.80784177235774
 20
35.05067011504603
 30
0.0
 10
20.697768197754204
 20
34.97578512146098
 30
0.0
 10
20.592453791685635
 20
34.894342933593414
 30
0.0
 10
20.492288620625203
 20
34.806645199320144
 30
0.0
 10
20.397643679163945
 20
34.71301673598752
 30
0.0
 10
20.308869515910526
 20
34.61380432734381
 30
0.0
 10
20.226294935119387
 20
34.50937543911167
 30
0.0
 10
19.42798595637934
 20
33.147329431569275
 30
0.0
 10
19.214601836602586
 20
33.280666628201935
 30
0.0
 10
18.104408882697225
 20
33.87096669275746
 30
0.0
 10
18.85586947303991
 20
35.2768505739342
 30
0.0
 10
18.901764637520078
 20
35.40182092228759
 30
0.0
 10
18.939972749048252
 20
35.52935168055274
 30
0.0
 10
18.970352291341264
 20
35.658970496703404
 30
0.0
 10
18.992790743791907
 20
35.79019728490555
 30
0.0
 10
19.00720499822593
 20
35.92254600367284
 30
0.0
 10
19.013541666720435
 20
36.05552645608079
 30
0.0
 10
19.0117772793436
 20
36.188646105372015
 30
0.0
 10
19.001918371083242
 20
36.321411899227755
 30
0.0
 10
18.984001457642375
 20
36.45333209594905
 30
0.0
 10
18.958092900191286
 20
36.58391808578347
 30
0.0
 10
18.9242886595772
 20
36.712686200651774
 30
0.0
 10
18.882713940901738
 20
36.83915950557138
 30
0.0
 10
18.833522729782747
 20
36.96286956514165
 30
0.0
 10
18.704525320777115
 20
36.92995114233517
 30
0.0
 10
18.57776926125674
 20
36.889246652839546
 30
0.0
 10
18.45372403389675
 20
36.84090685909319
 30
0.0
 10
18.332849080915512
 20
36.78511080339017
 30
0.0
 10
18.215592102379553
 20
36.72206514473828
 30
0.0
 10
18.10238739799944
 20
36.65200339342959
 30
0.0
 10
17.993654258558173
 20
36.57518504615838
 30
0.0
 10
17.88979541293021
 20
36.49189462489003
 30
0.0
 10
17.79119553644283
 20
36.40244062304045
 30
0.0
 10
17.698219826104804
 20
36.307154362869476
 30
0.0
 10
17.611212647979386
 20
36.206388768320124
 30
0.0
 10
17.530496261711562
 20
36.10051705784893
 30
0.0
 10
17.456369626933686
 20
35.98993136208885
 30
0.0
 10
16.769621905757976
 20
34.574058309650155
 30
0.0
 10
15.391406644207436
 20
35.18767927862246
 30
0.0
 10
16.029953324125643
 20
36.64751828468544
 30
0.0
 10
16.065901948605852
 20
36.775704284265
 30
0.0
 10
16.093986329306528
 20
36.90583968164361
 30
0.0
 10
16.114102446504816
 20
37.03744247765912
 30
0.0
 10
16.1261757935574
 20
37.17002523815678
 30
0.0
 10
16.130161652860295
 20
37.30309689936175
 30
0.0
 10
16.12604526147518
 20
37.43616458669491
 30
0.0
 10
16.113841865808798
 20
37.5687354402957
 30
0.0
 10
16.09359666514285
 20
37.70031844049036
 30
0.0
 10
16.06538464422366
 20
37.8304262264445
 30
0.0
 10
16.029310295531516
 20
37.9585769012639
 30
0.0
 10
15.985507232258502
 20
38.08429581685791
 30
0.0
 10
15.93413769342815
 20
38.20711733195437
 30
0.0
 10
15.875391942989982
 20
38.32658653675497
 30
0.0
 10
15.74937493963179
 20
38.28364857039822
 30
0.0
 10
15.626203264178113
 20
38.233124393451284
 30
0.0
 10
15.506333123361081
 20
38.17520113878843
 30
0.0
 10
15.390208495595544
 20
38.1100933441971
 30
0.0
 10
15.27825948655927
 20
38.0380421577667
 30
0.0
 10
15.170900736155385
 20
37.959314444717556
 30
0.0
 10
15.068529882757373
 20
37.87420179897795
 30
0.0
 10
14.97152609042485
 20
37.78301946317029
 30
0.0
 10
14.880248644544992
 20
37.68610516100657
 30
0.0
 10
14.795035621101166
 20
37.583817846417745
 30
0.0
 10
14.716202634497549
 20
37.47653637405001
 30
0.0
 10
14.64404166857759
 20
37.364658096052324
 30
0.0
 10
14.578819995165988
 20
37.24859739035215
 30
0.0
 10
14.00181055549144
 20
35.77434965864297
 30
0.0
 10
12.584364517985827
 20
36.29025782497359
 30
0.0
 10
13.105207182467742
 20
37.79224185867512
 30
0.0
 10
13.130987631723945
 20
37.92285320016727
 30
0.0
 10
13.148775132051096
 20
38.05479090866012
 30
0.0
 10
13.158503801602848
 20
38.18756630954064
 30
0.0
 10
13.160137607057994
 20
38.3206876255271
 30
0.0
 10
13.153670497081729
 20
38.453661798127605
 30
0.0
 10
13.139126424738723
 20
38.58599631384408
 30
0.0
 10
13.116559258775114
 20
38.71720102835771
 30
0.0
 10
13.0860525840979
 20
38.8467899819393
 30
0.0
 10
13.047719392190801
 20
38.97428319936064
 30
0.0
 10
13.001701662613227
 20
39.099208467640345
 30
0.0
 10
12.94816983713236
 20
39.22110308503964
 30
0.0
 10
12.887322188436114
 20
39.33951557483007
 30
0.0
 10
12.819384085765162
 20
39.45400735748587
 30
0.0
 10
12.697124424785018
 20
39.401314574419764
 30
0.0
 10
12.578296527735947
 20
39.34128220837338
 30
0.0
 10
12.463340512740876
 20
39.27413260892047
 30
0.0
 10
12.352682157136577
 20
39.20011448664502
 30
0.0
 10
12.246731320467516
 20
39.1195019919599
 30
0.0
 10
12.14588042643651
 20
39.03259369970089
 30
0.0
 10
12.050503009434713
 20
38.93971150325669
 30
0.0
 10
11.960952331034395
 20
38.84119942233118
 30
0.0
 10
11.877560071568737
 20
38.73742232875343
 30
0.0
 10
11.800635101644847
 20
38.62876459505518
 30
0.0
 10
11.730462338140073
 20
38.515628670820945
 30
0.0
 10
11.66730168891883
 20
38.39843359208388
 30
0.0
 10
11.611387090178496
 20
38.277613429288365
 30
0.0
 10
11.149913592951366
 20
36.7563391837968
 30
0.0
 10
9.69993244829351
 20
37.17211458646471
 30
0.0
 10
10.09966308060632
 20
38.70396369441039
 30
0.0
 10
10.115116409595982
 20
38.836195115462154
 30
0.0
 10
10.122497363695151
 20
38.969121695222626
 30
0.0
 10
10.121778605117463
 20
39.10225109646946
 30
0.0
 10
10.11296279602125
 20
39.23509023076433
 30
0.0
 10
10.096082588649358
 20
39.36714708476787
 30
0.0
 10
10.071200504390852
 20
39.49793254257257
 30
0.0
 10
10.038408702212527
 20
39.626962197304074
 30
0.0
 10
9.997828637317925
 20
39.753758145281054
 30
0.0
 10
9.949610611298109
 20
39.87785075608841
 30
0.0
 10
9.893933215440397
 20
39.998780412007605
 30
0.0
 10
9.831002669256904
 20
40.11609921036184
 30
0.0
 10
9.761052056682871
 20
40.22937262247055
 30
0.0
 10
9.684340462773816
 20
40.33818110306909
 30
0.0
 10
9.566591915637126
 20
40.27605837182335
 30
0.0
 10
9.452840410492254
 20
40.20688793617698
 30
0.0
 10
9.343507263378344
 20
40.13092599154416
 30
0.0
 10
9.238997425495219
 20
40.04845388792194
 30
0.0
 10
9.139697983333665
 20
39.95977708781821
 30
0.0
 10
9.045976724973565
 20
39.865224034871034
 30
0.0
 10
8.958180777860008
 20
39.765144937349795
 30
0.0
 10
8.876635323102853
 20
39.65991047104392
 30
0.0
 10
8.801642391061744
 20
39.54991040634345
 30
0.0
 10
8.73347974267752
 20
39.43555216459638
 30
0.0
 10
8.672399840693409
 20
39.31725930909004
 30
0.0
 10
8.618628914576377
 20
39.19546997624538
 30
0.0
 10
8.572366122602032
 20
39.07063525283489
 30
0.0
 10
8.23088939987244
 20
37.51427236652228
 30
0.0
 10
6.755212475311804
 20
37.827937179742676
 30
0.0
 10
7.0318511973741815
 20
39.377062723595664
 30
0.0
 10
7.036882131185328
 20
39.51009897352484
 30
0.0
 10
7.033811033020076
 20
39.64319488798615
 30
0.0
 10
7.022649277698594
 20
39.775857502570574
 30
0.0
 10
7.00343820644565
 20
39.90759545773744
 30
0.0
 10
6.9762489737698195
 20
40.037920818725745
 30
0.0
 10
6.941182283919397
 20
40.166350882780726
 30
0.0
 10
6.898368017891169
 20
40.29240996700196
 30
0.0
 10
6.847964752373494
 20
40.41563117019113
 30
0.0
 10
6.790159172405493
 20
40.53555810217388
 30
0.0
 10
6.72516537992772
 20
40.65174657419063
 30
0.0
 10
6.653224100785352
 20
40.76376624409549
 30
0.0
 10
6.5746017931209915
 20
40.871202210269594
 30
0.0
 10
6.489589660459475
 20
40.9736565483455
 30
0.0
 10
6.377078186114701
 20
40.902486876216166
 30
0.0
 10
6.26910438872946
 20
40.824604829707084
 30
0.0
 10
6.16606818470563
 20
40.7402988705429
 30
0.0
 10
6.068351202447275
 20
40.649881253517506
 30
0.0
 10
5.976315368874569
 20
40.55368686995584
 30
0.0
 10
5.890301568908647
 20
40.452072007334
 30
0.0
 10
5.810628382892402
 20
40.34541302965161
 30
0.0
 10
5.737590906623605
 20
40.234104983444176
 30
0.0
 10
5.671459658370755
 20
40.118560134598575
 30
0.0
 10
5.612479576919867
 20
39.999206441391046
 30
0.0
 10
5.560869114363278
 20
39.87648596940316
 30
0.0
 10
5.516819426990614
 20
39.75085325418693
 30
0.0
 10
5.480493667278725
 20
39.6227736177431
 30
0.0
 10
5.262080243677596
 20
38.04369221307088
 30
0.0
 10
4.016945604559793
 20
38.21868447456935
 30
0.0
 10
3.7659405875679717
 20
38.23623645518941
 30
0.0
 10
3.9206856131824273
 20
39.807389066887886
 30
0.0
 10
3.915263134435154
 20
39.94040993297461
 30
0.0
 10
3.9017589183469132
 20
40.07285460156522
 30
0.0
 10
3.880222982214855
 20
40.20423252035352
 30
0.0
 10
3.8507350914477856
 20
40.33405708809146
 30
0.0
 10
3.8134044641287996
 20
40.46184745687645
 30
0.0
 10
3.768369366490248
 20
40.58713031312948
 30
0.0
 10
3.715796600799367
 20
40.709441630667335
 30
0.0
 10
3.6558808875513242
 20
40.82832838937582
 30
0.0
 10
3.5888441442579455
 20
40.943350253118545
 30
0.0
 10
3.514934663503366
 20
41.05408120066628
 30
0.0
 10
3.4344261933109395
 20
41.16011110360648
 30
0.0
 10
3.3476169232275717
 20
41.261047245388426
 30
0.0
 10
3.254828379880855
 20
41.35651577587794
 30
0.0
 10
3.148247648981194
 20
41.27673794756001
 30
0.0
 10
3.0467172537213947
 20
41.19062445890334
 30
0.0
 10
2.950613245248466
 20
41.09849425948064
 30
0.0
 10
2.860291576304699
 20
41.00068858372793
 30
0.0
 10
2.776086782839837
 20
40.89756968707085
 30
0.0
 10
2.698310744947374
 20
40.789519504192796
 30
0.0
 10
2.627251531714252
 20
40.67693823441437
 30
0.0
 10
2.5631723342624353
 20
40.560242859423916
 30
0.0
 10
2.5063104909341964
 20
40.4398655988489
 30
0.0
 10
2.4568766082316564
 20
40.316252309388645
 30
0.0
 10
2.4150537807664714
 20
40.189860833437734
 30
0.0
 10
2.380996913108837
 20
40.06115930331636
 30
0.0
 10
2.3548321460475634
 20
39.930624407388635
 30
0.0
 10
2.2611144614913243
 20
38.34146414871527
 30
0.0
 10
1.3411598668727638
 20
38.40579364064973
 30
0.0
 10
0.7541929189103523
 20
38.40579364064972
 30
0.0
 10
0.7853476984251346
 20
39.9922896192826
 30
0.0
 10
0.769505238504079
 20
40.12447498365354
 30
0.0
 10
0.7456511624756417
 20
40.255451840949256
 30
0.0
 10
0.7138738217406855
 20
40.38473507538453
 30
0.0
 10
0.6742909141117888
 20
40.511845844062385
 30
0.0
 10
0.6270490478807618
 20
40.63631335052589
 30
0.0
 10
0.572323198806711
 20
40.757676588507394
 30
0.0
 10
0.510316062035881
 20
40.875486049416594
 30
0.0
 10
0.44125730135364055
 20
40.98930538724311
 30
0.0
 10
0.36540269854926827
 20
41.09871303470718
 30
0.0
 10
0.2830332060441297
 20
41.2033037646725
 30
0.0
 10
0.1944539062921636
 20
41.30269019103789
 30
0.0
 10
0.09999288180686482
 20
41.39650420354892
 30
0.0
 10
2.7622313864688472e-15
 20
41.484398331215054
 30
0.0
 10
-0.09999288180685952
 20
41.39650420354892
 30
0.0
 10
-0.19445390629215767
 20
41.30269019103789
 30
0.0
 10
-0.2830332060441238
 20
41.2033037646725
 30
0.0
 10
-0.36540269854926194
 20
41.09871303470718
 30
0.0
 10
-0.4412573013536342
 20
40.98930538724311
 30
0.0
 10
-0.5103160620358743
 20
40.8754860494166
 30
0.0
 10
-0.5723231988067046
 20
40.7576765885074
 30
0.0
 10
-0.6270490478807553
 20
40.63631335052589
 30
0.0
 10
-0.6742909141117828
 20
40.51184584406239
 30
0.0
 10
-0.7138738217406795
 20
40.38473507538454
 30
0.0
 10
-0.7456511624756361
 20
40.25545184094926
 30
0.0
 10
-0.7695052385040739
 20
40.12447498365355
 30
0.0
 10
-0.7853476984251302
 20
39.9922896192826
 30
0.0
 10
-0.7541929189103478
 20
38.40579364064972
 30
0.0
 10
-1.3411598668727505
 20
38.40579364064972
 30
0.0
 10
-2.26111446149128
 20
38.34146414871483
 30
0.0
 10
-2.3548321460475683
 20
39.930624407388635
 30
0.0
 10
-2.3809969131088407
 20
40.06115930331635
 30
0.0
 10
-2.415053780766474
 20
40.18986083343773
 30
0.0
 10
-2.456876608231659
 20
40.31625230938864
 30
0.0
 10
-2.5063104909341987
 20
40.43986559884889
 30
0.0
 10
-2.5631723342624375
 20
40.560242859423916
 30
0.0
 10
-2.627251531714254
 20
40.676938234414365
 30
0.0
 10
-2.698310744947376
 20
40.78951950419279
 30
0.0
 10
-2.7760867828398395
 20
40.89756968707085
 30
0.0
 10
-2.860291576304702
 20
41.00068858372793
 30
0.0
 10
-2.9506132452484692
 20
41.09849425948064
 30
0.0
 10
-3.046717253721398
 20
41.19062445890334
 30
0.0
 10
-3.148247648981198
 20
41.27673794756001
 30
0.0
 10
-3.2548283798808595
 20
41.35651577587794
 30
0.0
 10
-3.3476169232275756
 20
41.261047245388426
 30
0.0
 10
-3.4344261933109426
 20
41.16011110360648
 30
0.0
 10
-3.514934663503369
 20
41.05408120066628
 30
0.0
 10
-3.588844144257948
 20
40.943350253118545
 30
0.0
 10
-3.655880887551327
 20
40.82832838937582
 30
0.0
 10
-3.71579660079937
 20
40.70944163066734
 30
0.0
 10
-3.7683693664902504
 20
40.587130313129485
 30
0.0
 10
-3.8134044641288023
 20
40.46184745687645
 30
0.0
 10
-3.850735091447789
 20
40.33405708809147
 30
0.0
 10
-3.880222982214858
 20
40.20423252035353
 30
0.0
 10
-3.9017589183469172
 20
40.072854601565226
 30
0.0
 10
-3.915263134435158
 20
39.94040993297462
 30
0.0
 10
-3.9206856131824317
 20
39.807389066887886
 30
0.0
 10
-3.76594058756793
 20
38.236236455188994
 30
0.0
 10
-4.016945604559742
 20
38.21868447456893
 30
0.0
 10
-5.262080243677603
 20
38.04369221307088
 30
0.0
 10
-5.480493667278728
 20
39.622773617743086
 30
0.0
 10
-5.516819426990618
 20
39.75085325418692
 30
0.0
 10
-5.560869114363281
 20
39.876485969403156
 30
0.0
 10
-5.61247957691987
 20
39.99920644139103
 30
0.0
 10
-5.6714596583707575
 20
40.11856013459857
 30
0.0
 10
-5.737590906623607
 20
40.23410498344417
 30
0.0
 10
-5.810628382892404
 20
40.345413029651596
 30
0.0
 10
-5.89030156890865
 20
40.452072007333996
 30
0.0
 10
-5.976315368874572
 20
40.55368686995583
 30
0.0
 10
-6.068351202447278
 20
40.649881253517506
 30
0.0
 10
-6.166068184705633
 20
40.74029887054291
 30
0.0
 10
-6.269104388729463
 20
40.82460482970708
 30
0.0
 10
-6.377078186114706
 20
40.90248687621616
 30
0.0
 10
-6.4895896604594805
 20
40.973656548345495
 30
0.0
 10
-6.574601793120997
 20
40.87120221026959
 30
0.0
 10
-6.653224100785356
 20
40.763766244095486
 30
0.0
 10
-6.725165379927724
 20
40.65174657419064
 30
0.0
 10
-6.790159172405496
 20
40.53555810217388
 30
0.0
 10
-6.847964752373498
 20
40.415631170191126
 30
0.0
 10
-6.8983680178911735
 20
40.292409967001966
 30
0.0
 10
-6.941182283919401
 20
40.166350882780726
 30
0.0
 10
-6.976248973769822
 20
40.03792081872574
 30
0.0
 10
-7.003438206445655
 20
39.90759545773744
 30
0.0
 10
-7.022649277698598
 20
39.775857502570574
 30
0.0
 10
-7.03381103302008
 20
39.643194887986155
 30
0.0
 10
-7.036882131185333
 20
39.51009897352484
 30
0.0
 10
-7.031851197374186
 20
39.377062723595664
 30
0.0
 10
-6.755212475311808
 20
37.827937179742676
 30
0.0
 10
-8.230889399872433
 20
37.51427236652228
 30
0.0
 10
-8.572366122602027
 20
39.0706352528349
 30
0.0
 10
-8.618628914576368
 20
39.19546997624537
 30
0.0
 10
-8.672399840693402
 20
39.31725930909004
 30
0.0
 10
-8.733479742677511
 20
39.43555216459637
 30
0.0
 10
-8.801642391061735
 20
39.54991040634345
 30
0.0
 10
-8.876635323102846
 20
39.65991047104393
 30
0.0
 10
-8.95818077786
 20
39.765144937349795
 30
0.0
 10
-9.045976724973556
 20
39.865224034871034
 30
0.0
 10
-9.139697983333656
 20
39.95977708781822
 30
0.0
 10
-9.238997425495212
 20
40.048453887921944
 30
0.0
 10
-9.343507263378338
 20
40.13092599154417
 30
0.0
 10
-9.452840410492247
 20
40.20688793617698
 30
0.0
 10
-9.56659191563712
 20
40.27605837182335
 30
0.0
 10
-9.684340462773811
 20
40.33818110306909
 30
0.0
 10
-9.761052056682866
 20
40.22937262247055
 30
0.0
 10
-9.831002669256897
 20
40.11609921036184
 30
0.0
 10
-9.893933215440391
 20
39.99878041200761
 30
0.0
 10
-9.949610611298102
 20
39.877850756088414
 30
0.0
 10
-9.997828637317916
 20
39.75375814528106
 30
0.0
 10
-10.038408702212521
 20
39.62696219730409
 30
0.0
 10
-10.071200504390847
 20
39.497932542572585
 30
0.0
 10
-10.09608258864935
 20
39.36714708476788
 30
0.0
 10
-10.112962796021245
 20
39.23509023076434
 30
0.0
 10
-10.12177860511746
 20
39.102251096469466
 30
0.0
 10
-10.122497363695148
 20
38.96912169522264
 30
0.0
 10
-10.115116409595977
 20
38.83619511546216
 30
0.0
 10
-10.099663080606318
 20
38.703963694410405
 30
0.0
 10
-9.699932448293504
 20
37.17211458646471
 30
0.0
 10
-11.149913592951364
 20
36.75633918379679
 30
0.0
 10
-11.611387090178495
 20
38.277613429288365
 30
0.0
 10
-11.667301688918823
 20
38.39843359208388
 30
0.0
 10
-11.730462338140068
 20
38.51562867082094
 30
0.0
 10
-11.800635101644838
 20
38.62876459505518
 30
0.0
 10
-11.87756007156873
 20
38.73742232875343
 30
0.0
 10
-11.960952331034388
 20
38.84119942233118
 30
0.0
 10
-12.050503009434706
 20
38.93971150325669
 30
0.0
 10
-12.145880426436502
 20
39.03259369970089
 30
0.0
 10
-12.246731320467509
 20
39.1195019919599
 30
0.0
 10
-12.35268215713657
 20
39.20011448664502
 30
0.0
 10
-12.463340512740873
 20
39.27413260892048
 30
0.0
 10
-12.57829652773594
 20
39.34128220837338
 30
0.0
 10
-12.697124424785013
 20
39.40131457441977
 30
0.0
 10
-12.819384085765158
 20
39.45400735748588
 30
0.0
 10
-12.887322188436109
 20
39.339515574830074
 30
0.0
 10
-12.948169837132353
 20
39.22110308503964
 30
0.0
 10
-13.001701662613224
 20
39.09920846764036
 30
0.0
 10
-13.047719392190794
 20
38.97428319936064
 30
0.0
 10
-13.086052584097892
 20
38.8467899819393
 30
0.0
 10
-13.116559258775112
 20
38.717201028357714
 30
0.0
 10
-13.13912642473872
 20
38.585996313844085
 30
0.0
 10
-13.153670497081722
 20
38.453661798127605
 30
0.0
 10
-13.16013760705799
 20
38.320687625527114
 30
0.0
 10
-13.158503801602844
 20
38.18756630954066
 30
0.0
 10
-13.148775132051094
 20
38.054790908660124
 30
0.0
 10
-13.130987631723944
 20
37.92285320016728
 30
0.0
 10
-13.10520718246774
 20
37.79224185867512
 30
0.0
 10
-12.584364517985826
 20
36.29025782497359
 30
0.0
 10
-14.001810555491444
 20
35.77434965864297
 30
0.0
 10
-14.578819995165986
 20
37.24859739035214
 30
0.0
 10
-14.644041668577582
 20
37.36465809605232
 30
0.0
 10
-14.71620263449754
 20
37.47653637405001
 30
0.0
 10
-14.795035621101157
 20
37.58381784641774
 30
0.0
 10
-14.880248644544984
 20
37.686105161006566
 30
0.0
 10
-14.971526090424844
 20
37.78301946317029
 30
0.0
 10
-15.068529882757364
 20
37.87420179897794
 30
0.0
 10
-15.170900736155376
 20
37.95931444471755
 30
0.0
 10
-15.278259486559264
 20
38.0380421577667
 30
0.0
 10
-15.390208495595537
 20
38.1100933441971
 30
0.0
 10
-15.506333123361076
 20
38.17520113878843
 30
0.0
 10
-15.626203264178109
 20
38.233124393451284
 30
0.0
 10
-15.749374939631787
 20
38.28364857039822
 30
0.0
 10
-15.875391942989978
 20
38.32658653675497
 30
0.0
 10
-15.934137693428147
 20
38.20711733195437
 30
0.0
 10
-15.985507232258499
 20
38.08429581685792
 30
0.0
 10
-16.029310295531513
 20
37.9585769012639
 30
0.0
 10
-16.065384644223652
 20
37.8304262264445
 30
0.0
 10
-16.093596665142847
 20
37.70031844049036
 30
0.0
 10
-16.113841865808794
 20
37.568735440295704
 30
0.0
 10
-16.126045261475177
 20
37.436164586694915
 30
0.0
 10
-16.130161652860288
 20
37.30309689936175
 30
0.0
 10
-16.126175793557397
 20
37.17002523815679
 30
0.0
 10
-16.114102446504813
 20
37.03744247765913
 30
0.0
 10
-16.093986329306524
 20
36.90583968164363
 30
0.0
 10
-16.06590194860585
 20
36.775704284265004
 30
0.0
 10
-16.02995332412564
 20
36.64751828468544
 30
0.0
 10
-15.391406644207436
 20
35.18767927862246
 30
0.0
 10
-16.769621905757965
 20
34.574058309650155
 30
0.0
 10
-17.45636962693368
 20
35.98993136208886
 30
0.0
 10
-17.53049626171155
 20
36.10051705784893
 30
0.0
 10
-17.61121264797937
 20
36.20638876832012
 30
0.0
 10
-17.69821982610479
 20
36.30715436286947
 30
0.0
 10
-17.79119553644282
 20
36.40244062304045
 30
0.0
 10
-17.889795412930198
 20
36.49189462489004
 30
0.0
 10
-17.99365425855816
 20
36.57518504615838
 30
0.0
 10
-18.102387397999426
 20
36.65200339342958
 30
0.0
 10
-18.215592102379546
 20
36.72206514473829
 30
0.0
 10
-18.332849080915505
 20
36.785110803390175
 30
0.0
 10
-18.453724033896744
 20
36.840906859093195
 30
0.0
 10
-18.577769261256734
 20
36.88924665283955
 30
0.0
 10
-18.70452532077711
 20
36.929951142335184
 30
0.0
 10
-18.83352272978274
 20
36.96286956514165
 30
0.0
 10
-18.88271394090173
 20
36.839159505571395
 30
0.0
 10
-18.924288659577194
 20
36.71268620065178
 30
0.0
 10
-18.95809290019128
 20
36.58391808578348
 30
0.0
 10
-18.984001457642368
 20
36.45333209594906
 30
0.0
 10
-19.001918371083235
 20
36.32141189922776
 30
0.0
 10
-19.011777279343594
 20
36.18864610537202
 30
0.0
 10
-19.01354166672043
 20
36.055526456080806
 30
0.0
 10
-19.00720499822592
 20
35.92254600367285
 30
0.0
 10
-18.992790743791904
 20
35.79019728490557
 30
0.0
 10
-18.970352291341257
 20
35.65897049670341
 30
0.0
 10
-18.939972749048245
 20
35.52935168055275
 30
0.0
 10
-18.901764637520074
 20
35.4018209222876
 30
0.0
 10
-18.855869473039903
 20
35.276850573934205
 30
0.0
 10
-18.104408882697218
 20
33.87096669275746
 30
0.0
 10
-19.214601836602544
 20
33.280666628201885
 30
0.0
 10
-19.427985956379295
 20
33.147329431569226
 30
0.0
 10
-20.226294935119387
 20
34.50937543911168
 30
0.0
 10
-20.30886951591052
 20
34.61380432734381
 30
0.0
 10
-20.397643679163934
 20
34.71301673598752
 30
0.0
 10
-20.492288620625196
 20
34.806645199320144
 30
0.0
 10
-20.592453791685628
 20
34.894342933593414
 30
0.0
 10
-20.697768197754197
 20
34.97578512146099
 30
0.0
 10
-20.80784177235773
 20
35.05067011504603
 30
0.0
 10
-20.922266821880154
 20
35.118720553193214
 30
0.0
 10
-21.04061953558962
 20
35.17968438876675
 30
0.0
 10
-21.162461555360686
 20
35.23333582218973
 30
0.0
 10
-21.2873415992775
 20
35.279476137766956
 30
0.0
 10
-21.414797133104553
 20
35.317934439693765
 30
0.0
 10
-21.54435608343401
 20
35.348568285024726
 30
0.0
 10
-21.675538586164567
 20
35.37126421125784
 30
0.0
 10
-21.714871977790096
 20
35.244076010572925
 30
0.0
 10
-21.74639555434504
 20
35.11473066581164
 30
0.0
 10
-21.76999255791576
 20
34.98370724991694
 30
0.0
 10
-21.785575589253632
 20
34.85149105111908
 30
0.0
 10
-21.793086931486837
 20
34.718571775511336
 30
0.0
 10
-21.792498763893764
 20
34.58544173326273
 30
0.0
 10
-21.783813264946158
 20
34.452594015185745
 30
0.0
 10
-21.76706260424045
 20
34.32052066641259
 30
0.0
 10
-21.74230882334712
 20
34.1897108639446
 30
0.0
 10
-21.709643606019316
 20
34.060649104824556
 30
0.0
 10
-21.669187938612037
 20
33.93381341164293
 30
0.0
 10
-21.621091661969423
 20
33.809673562024244
 30
0.0
 10
-21.565532916440013
 20
33.68868934865147
 30
0.0
 10
-20.707267152341963
 20
32.34794581973825
 30
0.0
 10
-21.48933798008824
 20
31.859253728457247
 30
0.0
 10
-21.964204216126138
 20
31.514243212861707
 30
0.0
 10
-22.87151840910449
 20
32.81605774102055
 30
0.0
 10
-22.962031836159476
 20
32.91368598290265
 30
0.0
 10
-23.05831645416163
 20
33.00562741222813
 30
0.0
 10
-23.160015641421978
 20
33.09154149373295
 30
0.0
 10
-23.266752721616932
 20
33.17111001641428
 30
0.0
 10
-23.378132358932685
 20
33.24403827212935
 30
0.0
 10
-23.493742022321182
 20
33.310056147143854
 30
0.0
 10
-23.613153513444267
 20
33.36891912258677
 30
0.0
 10
-23.735924552646793
 20
33.420409180106304
 30
0.0
 10
-23.861600417084485
 20
33.46433560937241
 30
0.0
 10
-23.9897156249393
 20
33.500535714435095
 30
0.0
 10
-24.119795659484105
 20
33.52887541632229
 30
0.0
 10
-24.251358726611148
 20
33.54924974964532
 30
0.0
 10
-24.383917539314687
 20
33.56158325137269
 30
0.0
 10
-24.4131506080077
 20
33.43170106712473
 30
0.0
 10
-24.434428689110007
 20
33.3002811395839
 30
0.0
 10
-24.44767297226355
 20
33.1678102255915
 30
0.0
 10
-24.45283440291813
 20
33.034778974662146
 30
0.0
 10
-24.449893864021035
 20
32.90168011170222
 30
0.0
 10
-24.43886224682332
 20
32.76900661204145
 30
0.0
 10
-24.419780410540504
 20
32.63724987553698
 30
0.0
 10
-24.392719031017013
 20
32.506897906512656
 30
0.0
 10
-24.35777833895504
 20
32.378433506274845
 30
0.0
 10
-24.31508774867719
 20
32.25233248489928
 30
0.0
 10
-24.264805378798087
 20
32.1290618989123
 30
0.0
 10
-24.20711746658017
 20
32.009078321393666
 30
0.0
 10
-24.142237678142852
 20
31.892826150908288
 30
0.0
 10
-23.184513992997577
 20
30.627636262623895
 30
0.0
 10
-23.659380229035566
 20
30.282625747028472
 30
0.0
 10
-24.36582720348887
 20
29.689846351318618
 30
0.0
 10
-25.37573136654582
 20
30.920418134509482
 30
0.0
 10
-25.47362559448809
 20
31.01064381946568
 30
0.0
 10
-25.576827040551116
 20
31.094747419987495
 30
0.0
 10
-25.684953464302684
 20
31.17241743078271
 30
0.0
 10
-25.797604384039072
 20
31.243366175470534
 30
0.0
 10
-25.91436256010047
 20
31.307330872085526
 30
0.0
 10
-26.034795540255026
 20
31.364074606376843
 30
0.0
 10
-26.158457261427653
 20
31.413387209297966
 30
0.0
 10
-26.284889701841035
 20
31.45508603543671
 30
0.0
 10
-26.413624577449642
 20
31.489016639502495
 30
0.0
 10
-26.5441850763834
 20
31.515053348365175
 30
0.0
 10
-26.676087624976986
 20
31.533099726526718
 30
0.0
 10
-26.80884367884361
 20
31.543088933301735
 30
0.0
 10
-26.94196153235954
 20
31.544983970383896
 30
0.0
 10
-26.96091404653056
 20
31.413208569428978
 30
0.0
 10
-26.971815445734563
 20
31.28052430666347
 30
0.0
 10
-26.974625353061114
 20
31.147422621809188
 30
0.0
 10
-26.969333361096066
 20
31.014396500647692
 30
0.0
 10
-26.95595907046879
 20
30.881938649085583
 30
0.0
 10
-26.934552017254855
 20
30.750539668256476
 30
0.0
 10
-26.905191489502855
 20
30.620686237418642
 30
0.0
 10
-26.86798623356517
 20
30.49285931137861
 30
0.0
 10
-26.823074051320077
 20
30.367532339117187
 30
0.0
 10
-26.770621289777306
 20
30.245169510215725
 30
0.0
 10
-26.710822224957266
 20
30.126224035577632
 30
0.0
 10
-26.643898342326047
 20
30.01113646881304
 30
0.0
 10
-26.570097516451266
 20
29.900333074503877
 30
0.0
 10
-25.521405826677032
 20
28.720200754805035
 30
0.0
 10
-25.71415635573979
 20
28.558463856959243
 30
0.0
 10
-26.618633568496893
 20
27.685020365530917
 30
0.0
 10
-27.723494501825435
 20
28.834143868116758
 30
0.0
 10
-27.828165980186597
 20
28.91641072479621
 30
0.0
 10
-27.937647983077547
 20
28.992157969849863
 30
0.0
 10
-28.051535007962226
 20
29.061105048491015
 30
0.0
 10
-28.169405236859642
 20
29.122996592581487
 30
0.0
 10
-28.290822098685233
 20
29.177603366471345
 30
0.0
 10
-28.415335886235166
 20
29.22472311604837
 30
0.0
 10
-28.54248542182461
 20
29.264181317852582
 30
0.0
 10
-28.671799765410647
 20
29.295831825481123
 30
0.0
 10
-28.802799958873347
 20
29.319557410889452
 30
0.0
 10
-28.935000799994352
 20
29.3352701985839
 30
0.0
 10
-29.06791263956259
 20
29.342911991097395
 30
0.0
 10
-29.20104319495084
 20
29.34245448454288
 30
0.0
 10
-29.33389937344606
 20
29.333899373446062
 30
0.0
 10
-29.342454484542877
 20
29.201043194950845
 30
0.0
 10
-29.34291199109739
 20
29.067912639562593
 30
0.0
 10
-29.335270198583896
 20
28.935000799994356
 30
0.0
 10
-29.319557410889445
 20
28.802799958873354
 30
0.0
 10
-29.295831825481113
 20
28.671799765410658
 30
0.0
 10
-29.264181317852582
 20
28.54248542182462
 30
0.0
 10
-29.22472311604837
 20
28.415335886235177
 30
0.0
 10
-29.177603366471338
 20
28.29082209868524
 30
0.0
 10
-29.12299659258149
 20
28.169405236859653
 30
0.0
 10
-29.06110504849102
 20
28.051535007962237
 30
0.0
 10
-28.992157969849863
 20
27.93764798307756
 30
0.0
 10
-28.91641072479621
 20
27.828165980186608
 30
0.0
 10
-28.83414386811675
 20
27.72349450182544
 30
0.0
 10
-27.699785292039774
 20
26.632829771469336
 30
0.0
 10
-28.709265450842256
 20
25.511688473631537
 30
0.0
 10
-29.90033307450387
 20
26.57009751645127
 30
0.0
 10
-30.01113646881303
 20
26.64389834232605
 30
0.0
 10
-30.126224035577625
 20
26.71082222495727
 30
0.0
 10
-30.245169510215717
 20
26.77062128977731
 30
0.0
 10
-30.367532339117183
 20
26.823074051320084
 30
0.0
 10
-30.492859311378606
 20
26.86798623356518
 30
0.0
 10
-30.620686237418635
 20
26.905191489502865
 30
0.0
 10
-30.750539668256472
 20
26.93455201725486
 30
0.0
 10
-30.88193864908558
 20
26.9559590704688
 30
0.0
 10
-31.014396500647692
 20
26.969333361096076
 30
0.0
 10
-31.147422621809188
 20
26.974625353061125
 30
0.0
 10
-31.28052430666347
 20
26.97181544573457
 30
0.0
 10
-31.413208569428978
 20
26.960914046530572
 30
0.0
 10
-31.544983970383896
 20
26.94196153235955
 30
0.0
 10
-31.543088933301735
 20
26.80884367884362
 30
0.0
 10
-31.533099726526718
 20
26.676087624976994
 30
0.0
 10
-31.515053348365175
 20
26.54418507638341
 30
0.0
 10
-31.489016639502495
 20
26.413624577449653
 30
0.0
 10
-31.455086035436707
 20
26.284889701841045
 30
0.0
 10
-31.41338720929797
 20
26.158457261427667
 30
0.0
 10
-31.36407460637685
 20
26.034795540255043
 30
0.0
 10
-31.307330872085522
 20
25.914362560100482
 30
0.0
 10
-31.243366175470538
 20
25.797604384039087
 30
0.0
 10
-31.172417430782716
 20
25.684953464302698
 30
0.0
 10
-31.094747419987502
 20
25.57682704055113
 30
0.0
 10
-31.010643819465688
 20
25.473625594488105
 30
0.0
 10
-30.920418134509486
 20
25.37573136654583
 30
0.0
 10
-29.696630945408312
 20
24.371395175962675
 30
0.0
 10
-30.625303683005594
 20
23.182748276429198
 30
0.0
 10
-31.89282615090829
 20
24.14223767814287
 30
0.0
 10
-32.00907832139366
 20
24.207117466580172
 30
0.0
 10
-32.12906189891229
 20
24.26480537879809
 30
0.0
 10
-32.25233248489927
 20
24.315087748677197
 30
0.0
 10
-32.37843350627483
 20
24.357778338955047
 30
0.0
 10
-32.506897906512656
 20
24.392719031017023
 30
0.0
 10
-32.63724987553697
 20
24.419780410540508
 30
0.0
 10
-32.769006612041444
 20
24.43886224682333
 30
0.0
 10
-32.90168011170221
 20
24.449893864021043
 30
0.0
 10
-33.03477897466214
 20
24.452834402918143
 30
0.0
 10
-33.1678102255915
 20
24.447672972263565
 30
0.0
 10
-33.300281139583895
 20
24.434428689110018
 30
0.0
 10
-33.43170106712473
 20
24.413150608007708
 30
0.0
 10
-33.56158325137268
 20
24.383917539314698
 30
0.0
 10
-33.54924974964532
 20
24.251358726611155
 30
0.0
 10
-33.528875416322286
 20
24.119795659484115
 30
0.0
 10
-33.500535714435095
 20
23.989715624939315
 30
0.0
 10
-33.464335609372405
 20
23.8616004170845
 30
0.0
 10
-33.4204091801063
 20
23.7359245526468
 30
0.0
 10
-33.36891912258677
 20
23.613153513444285
 30
0.0
 10
-33.310056147143854
 20
23.493742022321193
 30
0.0
 10
-33.24403827212935
 20
23.378132358932696
 30
0.0
 10
-33.171110016414275
 20
23.266752721616946
 30
0.0
 10
-33.091541493732954
 20
23.160015641421992
 30
0.0
 10
-33.00562741222813
 20
23.05831645416164
 30
0.0
 10
-32.913685982902656
 20
22.96203183615949
 30
0.0
 10
-32.81605774102054
 20
22.871518409104496
 30
0.0
 10
-31.51184310987062
 20
21.962531437507298
 30
0.0
 10
-32.355337831115705
 20
20.71199908664281
 30
0.0
 10
-33.688689348651465
 20
21.565532916440013
 30
0.0
 10
-33.80967356202423
 20
21.621091661969423
 30
0.0
 10
-33.933813411642916
 20
21.66918793861204
 30
0.0
 10
-34.06064910482454
 20
21.709643606019316
 30
0.0
 10
-34.18971086394458
 20
21.74230882334712
 30
0.0
 10
-34.320520666412584
 20
21.767062604240458
 30
0.0
 10
-34.45259401518573
 20
21.783813264946158
 30
0.0
 10
-34.585441733262726
 20
21.792498763893768
 30
0.0
 10
-34.71857177551133
 20
21.793086931486847
 30
0.0
 10
-34.851491051119076
 20
21.785575589253636
 30
0.0
 10
-34.98370724991693
 20
21.769992557915764
 30
0.0
 10
-35.114730665811635
 20
21.746395554345042
 30
0.0
 10
-35.24407601057292
 20
21.7148719777901
 30
0.0
 10
-35.37126421125783
 20
21.67553858616457
 30
0.0
 10
-35.34856828502472
 20
21.544356083434014
 30
0.0
 10
-35.31793443969376
 20
21.414797133104557
 30
0.0
 10
-35.27947613776695
 20
21.287341599277504
 30
0.0
 10
-35.23333582218972
 20
21.16246155536069
 30
0.0
 10
-35.17968438876675
 20
21.04061953558963
 30
0.0
 10
-35.118720553193214
 20
20.922266821880164
 30
0.0
 10
-35.05067011504603
 20
20.80784177235774
 30
0.0
 10
-34.97578512146098
 20
20.697768197754204
 30
0.0
 10
-34.894342933593414
 20
20.592453791685635
 30
0.0
 10
-34.806645199320144
 20
20.492288620625203
 30
0.0
 10
-34.71301673598752
 20
20.397643679163945
 30
0.0
 10
-34.61380432734381
 20
20.308869515910526
 30
0.0
 10
-34.50937543911167
 20
20.226294935119387
 30
0.0
 10
-33.13470848487103
 20
19.420588691519246
 30
0.0
 10
-33.88903069731298
 20
18.114064294292014
 30
0.0
 10
-35.2768505739342
 20
18.85586947303991
 30
0.0
 10
-35.40182092228759
 20
18.901764637520078
 30
0.0
 10
-35.52935168055274
 20
18.939972749048252
 30
0.0
 10
-35.658970496703404
 20
18.970352291341264
 30
0.0
 10
-35.79019728490555
 20
18.992790743791907
 30
0.0
 10
-35.92254600367284
 20
19.00720499822593
 30
0.0
 10
-36.05552645608079
 20
19.013541666720435
 30
0.0
 10
-36.188646105372015
 20
19.0117772793436
 30
0.0
 10
-36.321411899227755
 20
19.001918371083242
 30
0.0
 10
-36.45333209594905
 20
18.984001457642375
 30
0.0
 10
-36.58391808578347
 20
18.958092900191286
 30
0.0
 10
-36.712686200651774
 20
18.9242886595772
 30
0.0
 10
-36.83915950557138
 20
18.882713940901738
 30
0.0
 10
-36.96286956514165
 20
18.833522729782747
 30
0.0
 10
-36.92995114233517
 20
18.704525320777115
 30
0.0
 10
-36.889246652839546
 20
18.57776926125674
 30
0.0
 10
-36.84090685909319
 20
18.45372403389675
 30
0.0
 10
-36.78511080339017
 20
18.332849080915512
 30
0.0
 10
-36.72206514473828
 20
18.215592102379553
 30
0.0
 10
-36.65200339342959
 20
18.10238739799944
 30
0.0
 10
-36.57518504615838
 20
17.993654258558173
 30
0.0
 10
-36.49189462489003
 20
17.88979541293021
 30
0.0
 10
-36.40244062304045
 20
17.79119553644283
 30
0.0
 10
-36.307154362869476
 20
17.698219826104804
 30
0.0
 10
-36.206388768320124
 20
17.611212647979386
 30
0.0
 10
-36.10051705784893
 20
17.530496261711562
 30
0.0
 10
-35.98993136208885
 20
17.456369626933686
 30
0.0
 10
-34.5556291621072
 20
16.760683127626322
 30
0.0
 10
-35.10682445647887
 20
15.630565298115663
 30
0.0
 10
-35.20108219794534
 20
15.397269201379327
 30
0.0
 10
-36.647518284685454
 20
16.02995332412563
 30
0.0
 10
-36.775704284265
 20
16.065901948605838
 30
0.0
 10
-36.90583968164363
 20
16.09398632930651
 30
0.0
 10
-37.03744247765912
 20
16.114102446504802
 30
0.0
 10
-37.17002523815678
 20
16.126175793557383
 30
0.0
 10
-37.30309689936175
 20
16.13016165286028
 30
0.0
 10
-37.436164586694915
 20
16.126045261475166
 30
0.0
 10
-37.568735440295704
 20
16.11384186580878
 30
0.0
 10
-37.70031844049036
 20
16.093596665142833
 30
0.0
 10
-37.8304262264445
 20
16.065384644223645
 30
0.0
 10
-37.95857690126391
 20
16.029310295531502
 30
0.0
 10
-38.08429581685791
 20
15.985507232258486
 30
0.0
 10
-38.20711733195437
 20
15.934137693428134
 30
0.0
 10
-38.326586536754974
 20
15.875391942989966
 30
0.0
 10
-38.28364857039822
 20
15.749374939631775
 30
0.0
 10
-38.23312439345128
 20
15.626203264178097
 30
0.0
 10
-38.17520113878844
 20
15.506333123361065
 30
0.0
 10
-38.1100933441971
 20
15.390208495595529
 30
0.0
 10
-38.0380421577667
 20
15.278259486559254
 30
0.0
 10
-37.95931444471756
 20
15.17090073615537
 30
0.0
 10
-37.87420179897796
 20
15.068529882757357
 30
0.0
 10
-37.78301946317029
 20
14.971526090424835
 30
0.0
 10
-37.68610516100657
 20
14.880248644544976
 30
0.0
 10
-37.583817846417745
 20
14.79503562110115
 30
0.0
 10
-37.47653637405002
 20
14.716202634497531
 30
0.0
 10
-37.364658096052324
 20
14.644041668577573
 30
0.0
 10
-37.248597390352145
 20
14.578819995165976
 30
0.0
 10
-35.76617652810491
 20
13.998611653861301
 30
0.0
 10
-36.111639114389575
 20
13.143561748200927
 30
0.0
 10
-36.29302187644633
 20
12.58532300749139
 30
0.0
 10
-37.79224185867512
 20
13.105207182467744
 30
0.0
 10
-37.92285320016727
 20
13.130987631723947
 30
0.0
 10
-38.05479090866012
 20
13.148775132051098
 30
0.0
 10
-38.18756630954064
 20
13.15850380160285
 30
0.0
 10
-38.3206876255271
 20
13.160137607057997
 30
0.0
 10
-38.453661798127605
 20
13.15367049708173
 30
0.0
 10
-38.58599631384408
 20
13.139126424738725
 30
0.0
 10
-38.71720102835771
 20
13.116559258775116
 30
0.0
 10
-38.8467899819393
 20
13.086052584097901
 30
0.0
 10
-38.97428319936064
 20
13.047719392190803
 30
0.0
 10
-39.099208467640345
 20
13.00170166261323
 30
0.0
 10
-39.22110308503964
 20
12.948169837132362
 30
0.0
 10
-39.33951557483007
 20
12.887322188436116
 30
0.0
 10
-39.45400735748587
 20
12.819384085765163
 30
0.0
 10
-39.401314574419764
 20
12.69712442478502
 30
0.0
 10
-39.34128220837338
 20
12.578296527735949
 30
0.0
 10
-39.27413260892047
 20
12.46334051274088
 30
0.0
 10
-39.20011448664502
 20
12.352682157136579
 30
0.0
 10
-39.1195019919599
 20
12.246731320467518
 30
0.0
 10
-39.03259369970089
 20
12.145880426436511
 30
0.0
 10
-38.93971150325669
 20
12.050503009434717
 30
0.0
 10
-38.84119942233118
 20
11.960952331034397
 30
0.0
 10
-38.73742232875343
 20
11.877560071568741
 30
0.0
 10
-38.62876459505518
 20
11.800635101644849
 30
0.0
 10
-38.515628670820945
 20
11.730462338140077
 30
0.0
 10
-38.39843359208388
 20
11.667301688918831
 30
0.0
 10
-38.277613429288365
 20
11.6113870901785
 30
0.0
 10
-36.759138734407415
 20
11.150762827344678
 30
0.0
 10
-36.940521496464186
 20
10.592524086635168
 30
0.0
 10
-37.16362211776038
 20
9.697716368480254
 30
0.0
 10
-38.70396369441039
 20
10.099663080606323
 30
0.0
 10
-38.836195115462154
 20
10.115116409595984
 30
0.0
 10
-38.969121695222626
 20
10.122497363695153
 30
0.0
 10
-39.10225109646946
 20
10.121778605117466
 30
0.0
 10
-39.23509023076433
 20
10.112962796021252
 30
0.0
 10
-39.36714708476787
 20
10.096082588649361
 30
0.0
 10
-39.49793254257257
 20
10.071200504390855
 30
0.0
 10
-39.626962197304074
 20
10.03840870221253
 30
0.0
 10
-39.753758145281054
 20
9.997828637317927
 30
0.0
 10
-39.87785075608841
 20
9.94961061129811
 30
0.0
 10
-39.998780412007605
 20
9.8939332154404
 30
0.0
 10
-40.11609921036184
 20
9.831002669256906
 30
0.0
 10
-40.22937262247055
 20
9.761052056682873
 30
0.0
 10
-40.33818110306909
 20
9.684340462773818
 30
0.0
 10
-40.27605837182335
 20
9.566591915637128
 30
0.0
 10
-40.20688793617698
 20
9.452840410492255
 30
0.0
 10
-40.13092599154416
 20
9.343507263378347
 30
0.0
 10
-40.04845388792194
 20
9.23899742549522
 30
0.0
 10
-39.95977708781821
 20
9.139697983333667
 30
0.0
 10
-39.865224034871034
 20
9.045976724973569
 30
0.0
 10
-39.765144937349795
 20
8.958180777860012
 30
0.0
 10
-39.65991047104392
 20
8.876635323102857
 30
0.0
 10
-39.54991040634345
 20
8.801642391061746
 30
0.0
 10
-39.43555216459638
 20
8.733479742677524
 30
0.0
 10
-39.31725930909004
 20
8.67239984069341
 30
0.0
 10
-39.19546997624538
 20
8.618628914576378
 30
0.0
 10
-39.07063525283489
 20
8.572366122602034
 30
0.0
 10
-37.52856148067502
 20
8.234024529805518
 30
0.0
 10
-37.58943337105627
 20
7.98988071247612
 30
0.0
 10
-37.80777360422929
 20
6.75161171759119
 30
0.0
 10
-39.377062723595664
 20
7.031851197374184
 30
0.0
 10
-39.51009897352483
 20
7.03688213118533
 30
0.0
 10
-39.64319488798615
 20
7.033811033020077
 30
0.0
 10
-39.77585750257057
 20
7.022649277698596
 30
0.0
 10
-39.907595457737436
 20
7.003438206445653
 30
0.0
 10
-40.03792081872574
 20
6.976248973769822
 30
0.0
 10
-40.16635088278072
 20
6.9411822839193995
 30
0.0
 10
-40.29240996700196
 20
6.898368017891171
 30
0.0
 10
-40.415631170191126
 20
6.847964752373496
 30
0.0
 10
-40.53555810217388
 20
6.790159172405495
 30
0.0
 10
-40.65174657419063
 20
6.725165379927724
 30
0.0
 10
-40.763766244095486
 20
6.653224100785354
 30
0.0
 10
-40.87120221026959
 20
6.574601793120994
 30
0.0
 10
-40.973656548345495
 20
6.489589660459478
 30
0.0
 10
-40.90248687621616
 20
6.377078186114703
 30
0.0
 10
-40.82460482970708
 20
6.2691043887294615
 30
0.0
 10
-40.7402988705429
 20
6.166068184705633
 30
0.0
 10
-40.649881253517506
 20
6.068351202447277
 30
0.0
 10
-40.55368686995583
 20
5.9763153688745705
 30
0.0
 10
-40.452072007334
 20
5.89030156890865
 30
0.0
 10
-40.3454130296516
 20
5.810628382892404
 30
0.0
 10
-40.23410498344417
 20
5.737590906623607
 30
0.0
 10
-40.11856013459857
 20
5.6714596583707575
 30
0.0
 10
-39.99920644139104
 20
5.612479576919869
 30
0.0
 10
-39.87648596940316
 20
5.560869114363281
 30
0.0
 10
-39.75085325418693
 20
5.516819426990616
 30
0.0
 10
-39.622773617743086
 20
5.480493667278726
 30
0.0
 10
-38.06398160828299
 20
5.264886607084806
 30
0.0
 10
-38.22167789163341
 20
3.7645066942124785
 30
0.0
 10
-39.807389066887886
 20
3.92068561318243
 30
0.0
 10
-39.94040993297461
 20
3.9152631344351567
 30
0.0
 10
-40.07285460156522
 20
3.901758918346916
 30
0.0
 10
-40.20423252035352
 20
3.8802229822148577
 30
0.0
 10
-40.33405708809146
 20
3.8507350914477887
 30
0.0
 10
-40.46184745687645
 20
3.8134044641288023
 30
0.0
 10
-40.58713031312948
 20
3.7683693664902504
 30
0.0
 10
-40.709441630667335
 20
3.7157966007993695
 30
0.0
 10
-40.82832838937582
 20
3.655880887551327
 30
0.0
 10
-40.943350253118545
 20
3.5888441442579486
 30
0.0
 10
-41.05408120066628
 20
3.514934663503369
 30
0.0
 10
-41.16011110360648
 20
3.434426193310942
 30
0.0
 10
-41.261047245388426
 20
3.3476169232275743
 30
0.0
 10
-41.35651577587794
 20
3.254828379880858
 30
0.0
 10
-41.27673794756001
 20
3.148247648981197
 30
0.0
 10
-41.19062445890334
 20
3.0467172537213973
 30
0.0
 10
-41.09849425948064
 20
2.9506132452484692
 30
0.0
 10
-41.00068858372793
 20
2.8602915763047023
 30
0.0
 10
-40.89756968707085
 20
2.7760867828398395
 30
0.0
 10
-40.789519504192796
 20
2.698310744947377
 30
0.0
 10
-40.67693823441437
 20
2.6272515317142546
 30
0.0
 10
-40.560242859423916
 20
2.563172334262438
 30
0.0
 10
-40.4398655988489
 20
2.506310490934199
 30
0.0
 10
-40.316252309388645
 20
2.456876608231659
 30
0.0
 10
-40.189860833437734
 20
2.4150537807664745
 30
0.0
 10
-40.06115930331636
 20
2.38099691310884
 30
0.0
 10
-39.930624407388635
 20
2.354832146047566
 30
0.0
 10
-38.35022577273907
 20
2.2616311614981273
 30
0.0
 10
-38.402868681939026
 20
0.7541354800986912
 30
0.0
 10
-39.9922896192826
 20
0.7853476984251372
 30
0.0
 10
-40.12447498365354
 20
0.7695052385040815
 30
0.0
 10
-40.255451840949256
 20
0.7456511624756441
 30
0.0
 10
-40.38473507538453
 20
0.713873821740688
 30
0.0
 10
-40.511845844062385
 20
0.6742909141117913
 30
0.0
 10
-40.63631335052589
 20
0.6270490478807643
 30
0.0
 10
-40.757676588507394
 20
0.5723231988067136
 30
0.0
 10
-40.875486049416594
 20
0.5103160620358834
 30
0.0
 10
-40.98930538724311
 20
0.44125730135364305
 30
0.0
 10
-41.09871303470718
 20
0.3654026985492708
 30
0.0
 10
-41.2033037646725
 20
0.28303320604413224
 30
0.0
 10
-41.30269019103789
 20
0.19445390629216613
 30
0.0
 10
-41.39650420354892
 20
0.09999288180686734
 30
0.0
 10
-41.484398331215054
 20
5.302418168012663e-15
 30
0.0
 10
-41.39650420354892
 20
-0.09999288180685699
 30
0.0
 10
-41.30269019103789
 20
-0.19445390629215514
 30
0.0
 10
-41.2033037646725
 20
-0.28303320604412124
 30
0.0
 10
-41.09871303470718
 20
-0.3654026985492594
 30
0.0
 10
-40.98930538724311
 20
-0.4412573013536317
 30
0.0
 10
-40.8754860494166
 20
-0.5103160620358719
 30
0.0
 10
-40.7576765885074
 20
-0.572323198806702
 30
0.0
 10
-40.63631335052589
 20
-0.6270490478807528
 30
0.0
 10
-40.51184584406239
 20
-0.6742909141117802
 30
0.0
 10
-40.38473507538454
 20
-0.7138738217406769
 30
0.0
 10
-40.25545184094926
 20
-0.7456511624756337
 30
0.0
 10
-40.12447498365355
 20
-0.7695052385040715
 30
0.0
 10
-39.9922896192826
 20
-0.7853476984251277
 30
0.0
 10
-38.402868681939026
 20
-0.7541354800986824
 30
0.0
 10
-38.35022577273907
 20
-2.2616311614981353
 30
0.0
 10
-39.93062440738864
 20
-2.354832146047575
 30
0.0
 10
-40.06115930331635
 20
-2.380996913108847
 30
0.0
 10
-40.18986083343773
 20
-2.415053780766481
 30
0.0
 10
-40.31625230938864
 20
-2.4568766082316653
 30
0.0
 10
-40.43986559884889
 20
-2.5063104909342053
 30
0.0
 10
-40.560242859423916
 20
-2.563172334262444
 30
0.0
 10
-40.676938234414365
 20
-2.6272515317142604
 30
0.0
 10
-40.78951950419279
 20
-2.698310744947383
 30
0.0
 10
-40.89756968707085
 20
-2.776086782839846
 30
0.0
 10
-41.00068858372793
 20
-2.860291576304709
 30
0.0
 10
-41.09849425948064
 20
-2.9506132452484763
 30
0.0
 10
-41.19062445890334
 20
-3.0467172537214045
 30
0.0
 10
-41.27673794756001
 20
-3.148247648981205
 30
0.0
 10
-41.35651577587794
 20
-3.254828379880866
 30
0.0
 10
-41.261047245388426
 20
-3.3476169232275823
 30
0.0
 10
-41.16011110360648
 20
-3.4344261933109492
 30
0.0
 10
-41.05408120066628
 20
-3.514934663503376
 30
0.0
 10
-40.943350253118545
 20
-3.5888441442579553
 30
0.0
 10
-40.82832838937582
 20
-3.6558808875513336
 30
0.0
 10
-40.70944163066734
 20
-3.7157966007993766
 30
0.0
 10
-40.587130313129485
 20
-3.768369366490257
 30
0.0
 10
-40.46184745687645
 20
-3.8134044641288085
 30
0.0
 10
-40.33405708809147
 20
-3.8507350914477962
 30
0.0
 10
-40.20423252035353
 20
-3.880222982214865
 30
0.0
 10
-40.072854601565226
 20
-3.901758918346924
 30
0.0
 10
-39.94040993297462
 20
-3.9152631344351647
 30
0.0
 10
-39.807389066887886
 20
-3.9206856131824375
 30
0.0
 10
-38.22167789163341
 20
-3.7645066942124856
 30
0.0
 10
-38.06398160828298
 20
-5.264886607084814
 30
0.0
 10
-39.62277361774309
 20
-5.480493667278735
 30
0.0
 10
-39.75085325418692
 20
-5.516819426990623
 30
0.0
 10
-39.876485969403156
 20
-5.560869114363286
 30
0.0
 10
-39.99920644139103
 20
-5.612479576919875
 30
0.0
 10
-40.11856013459857
 20
-5.671459658370764
 30
0.0
 10
-40.23410498344417
 20
-5.7375909066236135
 30
0.0
 10
-40.345413029651596
 20
-5.81062838289241
 30
0.0
 10
-40.452072007333996
 20
-5.890301568908655
 30
0.0
 10
-40.55368686995583
 20
-5.976315368874578
 30
0.0
 10
-40.649881253517506
 20
-6.0683512024472845
 30
0.0
 10
-40.74029887054291
 20
-6.16606818470564
 30
0.0
 10
-40.82460482970708
 20
-6.269104388729469
 30
0.0
 10
-40.90248687621616
 20
-6.377078186114711
 30
0.0
 10
-40.973656548345495
 20
-6.489589660459486
 30
0.0
 10
-40.87120221026959
 20
-6.574601793121002
 30
0.0
 10
-40.763766244095486
 20
-6.653224100785361
 30
0.0
 10
-40.65174657419064
 20
-6.725165379927731
 30
0.0
 10
-40.53555810217388
 20
-6.790159172405502
 30
0.0
 10
-40.415631170191126
 20
-6.847964752373503
 30
0.0
 10
-40.292409967001966
 20
-6.898368017891179
 30
0.0
 10
-40.166350882780726
 20
-6.941182283919407
 30
0.0
 10
-40.03792081872574
 20
-6.976248973769828
 30
0.0
 10
-39.90759545773744
 20
-7.003438206445661
 30
0.0
 10
-39.775857502570574
 20
-7.022649277698603
 30
0.0
 10
-39.643194887986155
 20
-7.033811033020086
 30
0.0
 10
-39.51009897352484
 20
-7.0368821311853385
 30
0.0
 10
-39.377062723595664
 20
-7.031851197374192
 30
0.0
 10
-37.80777360422928
 20
-6.751611717591198
 30
0.0
 10
-37.58943337105632
 20
-7.98988071247611
 30
0.0
 10
-37.52856148067507
 20
-8.23402452980551
 30
0.0
 10
-39.0706352528349
 20
-8.572366122602045
 30
0.0
 10
-39.19546997624537
 20
-8.618628914576384
 30
0.0
 10
-39.31725930909003
 20
-8.672399840693418
 30
0.0
 10
-39.43555216459637
 20
-8.733479742677527
 30
0.0
 10
-39.54991040634344
 20
-8.801642391061751
 30
0.0
 10
-39.65991047104392
 20
-8.876635323102862
 30
0.0
 10
-39.76514493734979
 20
-8.958180777860015
 30
0.0
 10
-39.86522403487103
 20
-9.045976724973572
 30
0.0
 10
-39.95977708781821
 20
-9.139697983333672
 30
0.0
 10
-40.04845388792194
 20
-9.238997425495228
 30
0.0
 10
-40.13092599154416
 20
-9.343507263378354
 30
0.0
 10
-40.20688793617698
 20
-9.452840410492263
 30
0.0
 10
-40.27605837182335
 20
-9.566591915637137
 30
0.0
 10
-40.33818110306909
 20
-9.684340462773827
 30
0.0
 10
-40.22937262247055
 20
-9.761052056682882
 30
0.0
 10
-40.11609921036184
 20
-9.831002669256913
 30
0.0
 10
-39.998780412007605
 20
-9.893933215440407
 30
0.0
 10
-39.87785075608841
 20
-9.949610611298118
 30
0.0
 10
-39.753758145281054
 20
-9.997828637317932
 30
0.0
 10
-39.62696219730408
 20
-10.038408702212537
 30
0.0
 10
-39.49793254257258
 20
-10.071200504390863
 30
0.0
 10
-39.36714708476787
 20
-10.096082588649367
 30
0.0
 10
-39.235090230764335
 20
-10.112962796021261
 30
0.0
 10
-39.102251096469466
 20
-10.121778605117473
 30
0.0
 10
-38.96912169522263
 20
-10.122497363695162
 30
0.0
 10
-38.83619511546216
 20
-10.115116409595993
 30
0.0
 10
-38.7039636944104
 20
-10.099663080606334
 30
0.0
 10
-37.163622117760426
 20
-9.69771636848027
 30
0.0
 10
-36.9405214964642
 20
-10.592524086635157
 30
0.0
 10
-36.75913873440744
 20
-11.150762827344714
 30
0.0
 10
-38.27761342928836
 20
-11.611387090178507
 30
0.0
 10
-38.398433592083876
 20
-11.667301688918839
 30
0.0
 10
-38.51562867082094
 20
-11.730462338140084
 30
0.0
 10
-38.62876459505517
 20
-11.800635101644854
 30
0.0
 10
-38.737422328753425
 20
-11.877560071568746
 30
0.0
 10
-38.84119942233118
 20
-11.960952331034404
 30
0.0
 10
-38.93971150325669
 20
-12.05050300943472
 30
0.0
 10
-39.03259369970088
 20
-12.145880426436518
 30
0.0
 10
-39.1195019919599
 20
-12.246731320467525
 30
0.0
 10
-39.20011448664502
 20
-12.352682157136586
 30
0.0
 10
-39.274132608920475
 20
-12.463340512740888
 30
0.0
 10
-39.34128220837338
 20
-12.578296527735958
 30
0.0
 10
-39.401314574419764
 20
-12.697124424785029
 30
0.0
 10
-39.45400735748587
 20
-12.819384085765174
 30
0.0
 10
-39.33951557483007
 20
-12.887322188436125
 30
0.0
 10
-39.22110308503964
 20
-12.94816983713237
 30
0.0
 10
-39.09920846764035
 20
-13.00170166261324
 30
0.0
 10
-38.97428319936064
 20
-13.04771939219081
 30
0.0
 10
-38.8467899819393
 20
-13.086052584097908
 30
0.0
 10
-38.717201028357714
 20
-13.116559258775128
 30
0.0
 10
-38.58599631384408
 20
-13.139126424738736
 30
0.0
 10
-38.453661798127605
 20
-13.153670497081738
 30
0.0
 10
-38.32068762552711
 20
-13.160137607058008
 30
0.0
 10
-38.18756630954065
 20
-13.158503801602858
 30
0.0
 10
-38.054790908660124
 20
-13.14877513205111
 30
0.0
 10
-37.922853200167275
 20
-13.130987631723958
 30
0.0
 10
-37.792241858675126
 20
-13.105207182467755
 30
0.0
 10
-36.293021876446346
 20
-12.58532300749141
 30
0.0
 10
-36.11163911438957
 20
-13.143561748200923
 30
0.0
 10
-35.76617652810488
 20
-13.998611653861309
 30
0.0
 10
-37.24859739035215
 20
-14.578819995165981
 30
0.0
 10
-37.36465809605232
 20
-14.644041668577577
 30
0.0
 10
-37.47653637405001
 20
-14.716202634497536
 30
0.0
 10
-37.58381784641774
 20
-14.795035621101151
 30
0.0
 10
-37.686105161006566
 20
-14.880248644544979
 30
0.0
 10
-37.78301946317029
 20
-14.971526090424838
 30
0.0
 10
-37.87420179897795
 20
-15.068529882757359
 30
0.0
 10
-37.959314444717556
 20
-15.170900736155371
 30
0.0
 10
-38.0380421577667
 20
-15.278259486559259
 30
0.0
 10
-38.1100933441971
 20
-15.390208495595534
 30
0.0
 10
-38.17520113878844
 20
-15.50633312336107
 30
0.0
 10
-38.233124393451284
 20
-15.626203264178104
 30
0.0
 10
-38.28364857039822
 20
-15.749374939631782
 30
0.0
 10
-38.326586536754974
 20
-15.875391942989973
 30
0.0
 10
-38.20711733195437
 20
-15.934137693428141
 30
0.0
 10
-38.08429581685792
 20
-15.985507232258493
 30
0.0
 10
-37.95857690126391
 20
-16.02931029553151
 30
0.0
 10
-37.8304262264445
 20
-16.06538464422365
 30
0.0
 10
-37.70031844049036
 20
-16.09359666514284
 30
0.0
 10
-37.56873544029571
 20
-16.11384186580879
 30
0.0
 10
-37.43616458669492
 20
-16.126045261475173
 30
0.0
 10
-37.30309689936175
 20
-16.130161652860284
 30
0.0
 10
-37.17002523815679
 20
-16.12617579355739
 30
0.0
 10
-37.03744247765913
 20
-16.11410244650481
 30
0.0
 10
-36.905839681643634
 20
-16.09398632930652
 30
0.0
 10
-36.775704284265004
 20
-16.065901948605845
 30
0.0
 10
-36.64751828468545
 20
-16.029953324125636
 30
0.0
 10
-35.20108219794532
 20
-15.397269201379334
 30
0.0
 10
-35.106824456478876
 20
-15.63056529811564
 30
0.0
 10
-34.55562916210721
 20
-16.76068312762631
 30
0.0
 10
-35.98993136208887
 20
-17.456369626933675
 30
0.0
 10
-36.10051705784893
 20
-17.530496261711548
 30
0.0
 10
-36.20638876832012
 20
-17.611212647979368
 30
0.0
 10
-36.30715436286947
 20
-17.69821982610479
 30
0.0
 10
-36.40244062304045
 20
-17.791195536442817
 30
0.0
 10
-36.49189462489004
 20
-17.889795412930198
 30
0.0
 10
-36.57518504615838
 20
-17.99365425855816
 30
0.0
 10
-36.65200339342958
 20
-18.102387397999422
 30
0.0
 10
-36.72206514473829
 20
-18.215592102379546
 30
0.0
 10
-36.785110803390175
 20
-18.3328490809155
 30
0.0
 10
-36.840906859093195
 20
-18.453724033896744
 30
0.0
 10
-36.88924665283955
 20
-18.577769261256734
 30
0.0
 10
-36.929951142335184
 20
-18.70452532077711
 30
0.0
 10
-36.96286956514165
 20
-18.833522729782736
 30
0.0
 10
-36.839159505571395
 20
-18.88271394090173
 30
0.0
 10
-36.71268620065178
 20
-18.924288659577194
 30
0.0
 10
-36.58391808578348
 20
-18.95809290019128
 30
0.0
 10
-36.45333209594906
 20
-18.984001457642364
 30
0.0
 10
-36.32141189922776
 20
-19.001918371083235
 30
0.0
 10
-36.18864610537202
 20
-19.01177727934359
 30
0.0
 10
-36.055526456080806
 20
-19.013541666720425
 30
0.0
 10
-35.92254600367285
 20
-19.00720499822592
 30
0.0
 10
-35.79019728490557
 20
-18.9927907437919
 30
0.0
 10
-35.65897049670341
 20
-18.970352291341253
 30
0.0
 10
-35.52935168055275
 20
-18.93997274904824
 30
0.0
 10
-35.4018209222876
 20
-18.90176463752007
 30
0.0
 10
-35.276850573934205
 20
-18.8558694730399
 30
0.0
 10
-33.88903069731299
 20
-18.114064294292003
 30
0.0
 10
-33.13470848487103
 20
-19.420588691519242
 30
0.0
 10
-34.509375439111686
 20
-20.226294935119387
 30
0.0
 10
-34.61380432734381
 20
-20.308869515910516
 30
0.0
 10
-34.71301673598752
 20
-20.39764367916393
 30
0.0
 10
-34.806645199320144
 20
-20.49228862062519
 30
0.0
 10
-34.894342933593414
 20
-20.592453791685625
 30
0.0
 10
-34.97578512146099
 20
-20.697768197754193
 30
0.0
 10
-35.05067011504603
 20
-20.807841772357726
 30
0.0
 10
-35.118720553193214
 20
-20.92226682188015
 30
0.0
 10
-35.17968438876675
 20
-21.040619535589617
 30
0.0
 10
-35.23333582218973
 20
-21.162461555360682
 30
0.0
 10
-35.279476137766956
 20
-21.287341599277497
 30
0.0
 10
-35.317934439693765
 20
-21.414797133104546
 30
0.0
 10
-35.348568285024726
 20
-21.544356083434007
 30
0.0
 10
-35.37126421125784
 20
-21.675538586164564
 30
0.0
 10
-35.244076010572925
 20
-21.714871977790093
 30
0.0
 10
-35.11473066581164
 20
-21.746395554345032
 30
0.0
 10
-34.98370724991694
 20
-21.769992557915756
 30
0.0
 10
-34.85149105111908
 20
-21.78557558925363
 30
0.0
 10
-34.718571775511336
 20
-21.793086931486833
 30
0.0
 10
-34.58544173326273
 20
-21.79249876389376
 30
0.0
 10
-34.452594015185745
 20
-21.78381326494615
 30
0.0
 10
-34.32052066641259
 20
-21.767062604240447
 30
0.0
 10
-34.1897108639446
 20
-21.742308823347116
 30
0.0
 10
-34.060649104824556
 20
-21.70964360601931
 30
0.0
 10
-33.93381341164293
 20
-21.669187938612033
 30
0.0
 10
-33.809673562024244
 20
-21.62109166196942
 30
0.0
 10
-33.688689348651465
 20
-21.565532916440002
 30
0.0
 10
-32.355337831115705
 20
-20.711999086642802
 30
0.0
 10
-31.51184310987062
 20
-21.962531437507295
 30
0.0
 10
-32.81605774102055
 20
-22.87151840910449
 30
0.0
 10
-32.91368598290265
 20
-22.962031836159476
 30
0.0
 10
-33.00562741222813
 20
-23.05831645416163
 30
0.0
 10
-33.09154149373295
 20
-23.160015641421978
 30
0.0
 10
-33.17111001641428
 20
-23.266752721616932
 30
0.0
 10
-33.24403827212935
 20
-23.378132358932685
 30
0.0
 10
-33.310056147143854
 20
-23.493742022321182
 30
0.0
 10
-33.36891912258677
 20
-23.613153513444267
 30
0.0
 10
-33.420409180106304
 20
-23.735924552646793
 30
0.0
 10
-33.46433560937241
 20
-23.861600417084485
 30
0.0
 10
-33.500535714435095
 20
-23.9897156249393
 30
0.0
 10
-33.52887541632229
 20
-24.119795659484105
 30
0.0
 10
-33.54924974964532
 20
-24.251358726611148
 30
0.0
 10
-33.56158325137269
 20
-24.383917539314687
 30
0.0
 10
-33.43170106712473
 20
-24.4131506080077
 30
0.0
 10
-33.3002811395839
 20
-24.434428689110007
 30
0.0
 10
-33.1678102255915
 20
-24.44767297226355
 30
0.0
 10
-33.034778974662146
 20
-24.45283440291813
 30
0.0
 10
-32.90168011170222
 20
-24.449893864021035
 30
0.0
 10
-32.76900661204145
 20
-24.43886224682332
 30
0.0
 10
-32.63724987553698
 20
-24.419780410540504
 30
0.0
 10
-32.506897906512656
 20
-24.392719031017013
 30
0.0
 10
-32.378433506274845
 20
-24.35777833895504
 30
0.0
 10
-32.25233248489928
 20
-24.31508774867719
 30
0.0
 10
-32.1290618989123
 20
-24.264805378798087
 30
0.0
 10
-32.009078321393666
 20
-24.20711746658017
 30
0.0
 10
-31.892826150908288
 20
-24.142237678142852
 30
0.0
 10
-30.6253036830056
 20
-23.182748276429187
 30
0.0
 10
-29.69663094540832
 20
-24.371395175962668
 30
0.0
 10
-30.920418134509482
 20
-25.375731366545814
 30
0.0
 10
-31.010643819465685
 20
-25.47362559448809
 30
0.0
 10
-31.094747419987502
 20
-25.576827040551116
 30
0.0
 10
-31.172417430782716
 20
-25.684953464302684
 30
0.0
 10
-31.243366175470538
 20
-25.797604384039072
 30
0.0
 10
-31.30733087208553
 20
-25.91436256010047
 30
0.0
 10
-31.364074606376846
 20
-26.034795540255026
 30
0.0
 10
-31.41338720929797
 20
-26.158457261427653
 30
0.0
 10
-31.455086035436715
 20
-26.284889701841035
 30
0.0
 10
-31.4890166395025
 20
-26.413624577449642
 30
0.0
 10
-31.51505334836518
 20
-26.5441850763834
 30
0.0
 10
-31.53309972652672
 20
-26.676087624976986
 30
0.0
 10
-31.54308893330174
 20
-26.80884367884361
 30
0.0
 10
-31.5449839703839
 20
-26.94196153235954
 30
0.0
 10
-31.41320856942898
 20
-26.96091404653056
 30
0.0
 10
-31.280524306663473
 20
-26.971815445734563
 30
0.0
 10
-31.14742262180919
 20
-26.974625353061114
 30
0.0
 10
-31.014396500647695
 20
-26.969333361096066
 30
0.0
 10
-30.881938649085587
 20
-26.95595907046879
 30
0.0
 10
-30.750539668256483
 20
-26.934552017254855
 30
0.0
 10
-30.620686237418646
 20
-26.905191489502855
 30
0.0
 10
-30.492859311378613
 20
-26.86798623356517
 30
0.0
 10
-30.367532339117194
 20
-26.823074051320077
 30
0.0
 10
-30.245169510215728
 20
-26.770621289777306
 30
0.0
 10
-30.126224035577636
 20
-26.710822224957266
 30
0.0
 10
-30.011136468813042
 20
-26.643898342326047
 30
0.0
 10
-29.900333074503877
 20
-26.570097516451263
 30
0.0
 10
-28.709265450842267
 20
-25.511688473631526
 30
0.0
 10
-27.699785292039778
 20
-26.63282977146933
 30
0.0
 10
-28.834143868116758
 20
-27.723494501825428
 30
0.0
 10
-28.91641072479622
 20
-27.828165980186597
 30
0.0
 10
-28.99215796984987
 20
-27.937647983077547
 30
0.0
 10
-29.061105048491022
 20
-28.051535007962226
 30
0.0
 10
-29.122996592581494
 20
-28.169405236859642
 30
0.0
 10
-29.17760336647135
 20
-28.290822098685233
 30
0.0
 10
-29.224723116048374
 20
-28.415335886235162
 30
0.0
 10
-29.264181317852586
 20
-28.54248542182461
 30
0.0
 10
-29.295831825481127
 20
-28.671799765410647
 30
0.0
 10
-29.319557410889455
 20
-28.802799958873347
 30
0.0
 10
-29.335270198583903
 20
-28.935000799994352
 30
0.0
 10
-29.3429119910974
 20
-29.06791263956259
 30
0.0
 10
-29.342454484542888
 20
-29.20104319495084
 30
0.0
 10
-29.333899373446066
 20
-29.33389937344606
 30
0.0
 10
-29.201043194950852
 20
-29.342454484542877
 30
0.0
 10
-29.067912639562596
 20
-29.34291199109739
 30
0.0
 10
-28.93500079999436
 20
-29.335270198583896
 30
0.0
 10
-28.802799958873358
 20
-29.319557410889445
 30
0.0
 10
-28.67179976541066
 20
-29.295831825481113
 30
0.0
 10
-28.542485421824622
 20
-29.264181317852582
 30
0.0
 10
-28.41533588623518
 20
-29.22472311604837
 30
0.0
 10
-28.290822098685243
 20
-29.177603366471338
 30
0.0
 10
-28.169405236859657
 20
-29.12299659258149
 30
0.0
 10
-28.05153500796224
 20
-29.06110504849102
 30
0.0
 10
-27.937647983077564
 20
-28.992157969849863
 30
0.0
 10
-27.82816598018661
 20
-28.91641072479621
 30
0.0
 10
-27.723494501825446
 20
-28.834143868116755
 30
0.0
 10
-26.6186335684969
 20
-27.68502036553091
 30
0.0
 10
-25.7141563557398
 20
-28.558463856959236
 30
0.0
 10
-25.521405826677018
 20
-28.720200754805045
 30
0.0
 10
-26.570097516451263
 20
-29.900333074503884
 30
0.0
 10
-26.643898342326036
 20
-30.011136468813042
 30
0.0
 10
-26.71082222495726
 20
-30.126224035577636
 30
0.0
 10
-26.770621289777296
 20
-30.245169510215728
 30
0.0
 10
-26.82307405132007
 20
-30.36753233911719
 30
0.0
 10
-26.867986233565166
 20
-30.492859311378616
 30
0.0
 10
-26.90519148950285
 20
-30.620686237418646
 30
0.0
 10
-26.934552017254845
 20
-30.75053966825648
 30
0.0
 10
-26.955959070468786
 20
-30.881938649085587
 30
0.0
 10
-26.969333361096062
 20
-31.0143965006477
 30
0.0
 10
-26.97462535306111
 20
-31.147422621809195
 30
0.0
 10
-26.971815445734556
 20
-31.280524306663477
 30
0.0
 10
-26.960914046530558
 20
-31.41320856942899
 30
0.0
 10
-26.941961532359535
 20
-31.544983970383903
 30
0.0
 10
-26.808843678843605
 20
-31.543088933301746
 30
0.0
 10
-26.67608762497698
 20
-31.533099726526725
 30
0.0
 10
-26.544185076383396
 20
-31.515053348365182
 30
0.0
 10
-26.41362457744964
 20
-31.489016639502502
 30
0.0
 10
-26.28488970184103
 20
-31.455086035436715
 30
0.0
 10
-26.158457261427653
 20
-31.41338720929798
 30
0.0
 10
-26.03479554025503
 20
-31.364074606376857
 30
0.0
 10
-25.914362560100468
 20
-31.307330872085533
 30
0.0
 10
-25.797604384039072
 20
-31.24336617547055
 30
0.0
 10
-25.684953464302687
 20
-31.172417430782723
 30
0.0
 10
-25.576827040551116
 20
-31.09474741998751
 30
0.0
 10
-25.47362559448809
 20
-31.010643819465695
 30
0.0
 10
-25.37573136654582
 20
-30.920418134509493
 30
0.0
 10
-24.365827203488838
 20
-29.689846351318593
 30
0.0
 10
-23.659380229035655
 20
-30.28262574702856
 30
0.0
 10
-23.184513992997676
 20
-30.62763626262399
 30
0.0
 10
-24.14223767814287
 20
-31.89282615090829
 30
0.0
 10
-24.207117466580172
 20
-32.00907832139366
 30
0.0
 10
-24.26480537879809
 20
-32.12906189891229
 30
0.0
 10
-24.315087748677197
 20
-32.25233248489927
 30
0.0
 10
-24.357778338955047
 20
-32.37843350627483
 30
0.0
 10
-24.392719031017023
 20
-32.506897906512656
 30
0.0
 10
-24.419780410540508
 20
-32.63724987553697
 30
0.0
 10
-24.43886224682333
 20
-32.769006612041444
 30
0.0
 10
-24.449893864021043
 20
-32.90168011170221
 30
0.0
 10
-24.452834402918143
 20
-33.03477897466214
 30
0.0
 10
-24.447672972263565
 20
-33.1678102255915
 30
0.0
 10
-24.434428689110018
 20
-33.300281139583895
 30
0.0
 10
-24.413150608007708
 20
-33.43170106712473
 30
0.0
 10
-24.383917539314698
 20
-33.56158325137268
 30
0.0
 10
-24.251358726611155
 20
-33.54924974964532
 30
0.0
 10
-24.119795659484115
 20
-33.528875416322286
 30
0.0
 10
-23.989715624939315
 20
-33.500535714435095
 30
0.0
 10
-23.8616004170845
 20
-33.464335609372405
 30
0.0
 10
-23.7359245526468
 20
-33.4204091801063
 30
0.0
 10
-23.613153513444285
 20
-33.36891912258677
 30
0.0
 10
-23.493742022321193
 20
-33.310056147143854
 30
0.0
 10
-23.378132358932696
 20
-33.24403827212935
 30
0.0
 10
-23.266752721616946
 20
-33.171110016414275
 30
0.0
 10
-23.160015641421992
 20
-33.091541493732954
 30
0.0
 10
-23.05831645416164
 20
-33.00562741222813
 30
0.0
 10
-22.96203183615949
 20
-32.913685982902656
 30
0.0
 10
-22.871518409104496
 20
-32.81605774102054
 30
0.0
 10
-21.964204216126234
 20
-31.514243212861818
 30
0.0
 10
-21.48933798008826
 20
-31.859253728457237
 30
0.0
 10
-20.70726715234196
 20
-32.34794581973828
 30
0.0
 10
-21.565532916440002
 20
-33.68868934865147
 30
0.0
 10
-21.62109166196941
 20
-33.80967356202424
 30
0.0
 10
-21.669187938612026
 20
-33.93381341164292
 30
0.0
 10
-21.709643606019302
 20
-34.06064910482455
 30
0.0
 10
-21.742308823347106
 20
-34.1897108639446
 30
0.0
 10
-21.767062604240444
 20
-34.3205206664126
 30
0.0
 10
-21.783813264946144
 20
-34.45259401518574
 30
0.0
 10
-21.792498763893754
 20
-34.58544173326273
 30
0.0
 10
-21.793086931486833
 20
-34.718571775511336
 30
0.0
 10
-21.78557558925362
 20
-34.85149105111909
 30
0.0
 10
-21.76999255791575
 20
-34.98370724991695
 30
0.0
 10
-21.74639555434503
 20
-35.11473066581164
 30
0.0
 10
-21.714871977790086
 20
-35.24407601057293
 30
0.0
 10
-21.675538586164556
 20
-35.37126421125784
 30
0.0
 10
-21.544356083434
 20
-35.34856828502473
 30
0.0
 10
-21.414797133104543
 20
-35.317934439693765
 30
0.0
 10
-21.28734159927749
 20
-35.27947613776696
 30
0.0
 10
-21.162461555360675
 20
-35.23333582218974
 30
0.0
 10
-21.040619535589617
 20
-35.17968438876675
 30
0.0
 10
-20.92226682188015
 20
-35.11872055319323
 30
0.0
 10
-20.807841772357726
 20
-35.05067011504604
 30
0.0
 10
-20.69776819775419
 20
-34.975785121460994
 30
0.0
 10
-20.59245379168562
 20
-34.89434293359343
 30
0.0
 10
-20.49228862062519
 20
-34.80664519932015
 30
0.0
 10
-20.39764367916393
 20
-34.71301673598753
 30
0.0
 10
-20.308869515910512
 20
-34.613804327343814
 30
0.0
 10
-20.226294935119373
 20
-34.50937543911168
 30
0.0
 10
-19.427985956379274
 20
-33.14732943156924
 30
0.0
 10
-19.214601836602554
 20
-33.28066662820186
 30
0.0
 10
-18.104408882697225
 20
-33.87096669275746
 30
0.0
 10
-18.85586947303991
 20
-35.2768505739342
 30
0.0
 10
-18.90176463752008
 20
-35.40182092228759
 30
0.0
 10
-18.939972749048252
 20
-35.52935168055274
 30
0.0
 10
-18.970352291341268
 20
-35.658970496703404
 30
0.0
 10
-18.992790743791907
 20
-35.79019728490555
 30
0.0
 10
-19.00720499822593
 20
-35.92254600367284
 30
0.0
 10
-19.01354166672044
 20
-36.05552645608079
 30
0.0
 10
-19.0117772793436
 20
-36.188646105372015
 30
0.0
 10
-19.001918371083246
 20
-36.321411899227755
 30
0.0
 10
-18.984001457642375
 20
-36.45333209594905
 30
0.0
 10
-18.95809290019129
 20
-36.58391808578347
 30
0.0
 10
-18.924288659577204
 20
-36.712686200651774
 30
0.0
 10
-18.88271394090174
 20
-36.83915950557138
 30
0.0
 10
-18.83352272978275
 20
-36.96286956514165
 30
0.0
 10
-18.70452532077712
 20
-36.92995114233517
 30
0.0
 10
-18.577769261256744
 20
-36.889246652839546
 30
0.0
 10
-18.453724033896755
 20
-36.84090685909319
 30
0.0
 10
-18.332849080915512
 20
-36.78511080339017
 30
0.0
 10
-18.215592102379556
 20
-36.72206514473828
 30
0.0
 10
-18.10238739799944
 20
-36.65200339342959
 30
0.0
 10
-17.993654258558177
 20
-36.57518504615838
 30
0.0
 10
-17.889795412930212
 20
-36.49189462489003
 30
0.0
 10
-17.79119553644283
 20
-36.40244062304045
 30
0.0
 10
-17.698219826104808
 20
-36.307154362869476
 30
0.0
 10
-17.611212647979386
 20
-36.206388768320124
 30
0.0
 10
-17.530496261711562
 20
-36.10051705784893
 30
0.0
 10
-17.456369626933686
 20
-35.98993136208885
 30
0.0
 10
-16.769621905757973
 20
-34.574058309650155
 30
0.0
 10
-15.391406644207425
 20
-35.18767927862246
 30
0.0
 10
-16.029953324125632
 20
-36.64751828468545
 30
0.0
 10
-16.065901948605838
 20
-36.775704284265
 30
0.0
 10
-16.093986329306514
 20
-36.90583968164363
 30
0.0
 10
-16.114102446504802
 20
-37.03744247765912
 30
0.0
 10
-16.126175793557387
 20
-37.17002523815678
 30
0.0
 10
-16.13016165286028
 20
-37.30309689936175
 30
0.0
 10
-16.126045261475166
 20
-37.436164586694915
 30
0.0
 10
-16.113841865808784
 20
-37.568735440295704
 30
0.0
 10
-16.093596665142837
 20
-37.70031844049036
 30
0.0
 10
-16.065384644223645
 20
-37.8304262264445
 30
0.0
 10
-16.029310295531506
 20
-37.95857690126391
 30
0.0
 10
-15.985507232258488
 20
-38.08429581685791
 30
0.0
 10
-15.934137693428138
 20
-38.20711733195437
 30
0.0
 10
-15.875391942989967
 20
-38.326586536754974
 30
0.0
 10
-15.749374939631778
 20
-38.28364857039822
 30
0.0
 10
-15.626203264178098
 20
-38.23312439345128
 30
0.0
 10
-15.506333123361069
 20
-38.17520113878844
 30
0.0
 10
-15.39020849559553
 20
-38.1100933441971
 30
0.0
 10
-15.278259486559257
 20
-38.0380421577667
 30
0.0
 10
-15.170900736155371
 20
-37.95931444471756
 30
0.0
 10
-15.068529882757359
 20
-37.87420179897796
 30
0.0
 10
-14.971526090424836
 20
-37.78301946317029
 30
0.0
 10
-14.880248644544977
 20
-37.68610516100657
 30
0.0
 10
-14.795035621101151
 20
-37.583817846417745
 30
0.0
 10
-14.716202634497535
 20
-37.47653637405002
 30
0.0
 10
-14.644041668577575
 20
-37.364658096052324
 30
0.0
 10
-14.578819995165977
 20
-37.248597390352145
 30
0.0
 10
-14.00181055549143
 20
-35.77434965864297
 30
0.0
 10
-12.584364517985833
 20
-36.29025782497358
 30
0.0
 10
-13.105207182467748
 20
-37.79224185867512
 30
0.0
 10
-13.130987631723949
 20
-37.92285320016727
 30
0.0
 10
-13.148775132051101
 20
-38.05479090866012
 30
0.0
 10
-13.158503801602851
 20
-38.18756630954064
 30
0.0
 10
-13.160137607058
 20
-38.3206876255271
 30
0.0
 10
-13.153670497081732
 20
-38.453661798127605
 30
0.0
 10
-13.139126424738729
 20
-38.58599631384408
 30
0.0
 10
-13.11655925877512
 20
-38.71720102835771
 30
0.0
 10
-13.086052584097903
 20
-38.8467899819393
 30
0.0
 10
-13.047719392190807
 20
-38.97428319936064
 30
0.0
 10
-13.001701662613232
 20
-39.099208467640345
 30
0.0
 10
-12.948169837132365
 20
-39.22110308503964
 30
0.0
 10
-12.887322188436118
 20
-39.33951557483007
 30
0.0
 10
-12.819384085765167
 20
-39.45400735748587
 30
0.0
 10
-12.697124424785022
 20
-39.401314574419764
 30
0.0
 10
-12.578296527735953
 20
-39.34128220837338
 30
0.0
 10
-12.463340512740881
 20
-39.27413260892047
 30
0.0
 10
-12.352682157136583
 20
-39.20011448664502
 30
0.0
 10
-12.24673132046752
 20
-39.1195019919599
 30
0.0
 10
-12.145880426436515
 20
-39.03259369970089
 30
0.0
 10
-12.050503009434719
 20
-38.93971150325669
 30
0.0
 10
-11.960952331034399
 20
-38.84119942233118
 30
0.0
 10
-11.877560071568741
 20
-38.73742232875343
 30
0.0
 10
-11.800635101644852
 20
-38.62876459505518
 30
0.0
 10
-11.730462338140079
 20
-38.515628670820945
 30
0.0
 10
-11.667301688918835
 20
-38.39843359208388
 30
0.0
 10
-11.611387090178498
 20
-38.27761342928835
 30
0.0
 10
-11.149913592951371
 20
-36.75633918379679
 30
0.0
 10
-9.699932448293495
 20
-37.172114586464716
 30
0.0
 10
-10.099663080606309
 20
-38.703963694410405
 30
0.0
 10
-10.115116409595968
 20
-38.836195115462154
 30
0.0
 10
-10.122497363695137
 20
-38.96912169522263
 30
0.0
 10
-10.12177860511745
 20
-39.10225109646946
 30
0.0
 10
-10.112962796021238
 20
-39.235090230764335
 30
0.0
 10
-10.096082588649345
 20
-39.36714708476788
 30
0.0
 10
-10.071200504390838
 20
-39.49793254257258
 30
0.0
 10
-10.038408702212514
 20
-39.62696219730408
 30
0.0
 10
-9.99782863731791
 20
-39.75375814528106
 30
0.0
 10
-9.949610611298095
 20
-39.877850756088414
 30
0.0
 10
-9.893933215440384
 20
-39.99878041200761
 30
0.0
 10
-9.83100266925689
 20
-40.11609921036184
 30
0.0
 10
-9.761052056682857
 20
-40.22937262247055
 30
0.0
 10
-9.684340462773802
 20
-40.33818110306909
 30
0.0
 10
-9.566591915637112
 20
-40.27605837182335
 30
0.0
 10
-9.45284041049224
 20
-40.20688793617698
 30
0.0
 10
-9.343507263378331
 20
-40.13092599154417
 30
0.0
 10
-9.238997425495205
 20
-40.048453887921944
 30
0.0
 10
-9.139697983333651
 20
-39.95977708781821
 30
0.0
 10
-9.045976724973553
 20
-39.86522403487104
 30
0.0
 10
-8.958180777859996
 20
-39.7651449373498
 30
0.0
 10
-8.87663532310284
 20
-39.65991047104393
 30
0.0
 10
-8.80164239106173
 20
-39.54991040634346
 30
0.0
 10
-8.733479742677506
 20
-39.43555216459638
 30
0.0
 10
-8.672399840693394
 20
-39.31725930909005
 30
0.0
 10
-8.618628914576362
 20
-39.19546997624538
 30
0.0
 10
-8.572366122602018
 20
-39.07063525283489
 30
0.0
 10
-8.230889399872424
 20
-37.51427236652228
 30
0.0
 10
-6.755212475311809
 20
-37.827937179742676
 30
0.0
 10
-7.031851197374187
 20
-39.377062723595664
 30
0.0
 10
-7.036882131185332
 20
-39.51009897352483
 30
0.0
 10
-7.03381103302008
 20
-39.64319488798615
 30
0.0
 10
-7.022649277698599
 20
-39.77585750257057
 30
0.0
 10
-7.003438206445654
 20
-39.90759545773743
 30
0.0
 10
-6.976248973769824
 20
-40.03792081872574
 30
0.0
 10
-6.941182283919402
 20
-40.16635088278072
 30
0.0
 10
-6.8983680178911735
 20
-40.29240996700196
 30
0.0
 10
-6.847964752373499
 20
-40.415631170191126
 30
0.0
 10
-6.790159172405497
 20
-40.53555810217388
 30
0.0
 10
-6.725165379927725
 20
-40.65174657419063
 30
0.0
 10
-6.653224100785357
 20
-40.763766244095486
 30
0.0
 10
-6.574601793120997
 20
-40.87120221026959
 30
0.0
 10
-6.4895896604594805
 20
-40.973656548345495
 30
0.0
 10
-6.377078186114706
 20
-40.90248687621616
 30
0.0
 10
-6.269104388729464
 20
-40.82460482970708
 30
0.0
 10
-6.166068184705635
 20
-40.7402988705429
 30
0.0
 10
-6.068351202447279
 20
-40.649881253517506
 30
0.0
 10
-5.976315368874573
 20
-40.55368686995583
 30
0.0
 10
-5.890301568908652
 20
-40.452072007334
 30
0.0
 10
-5.810628382892407
 20
-40.3454130296516
 30
0.0
 10
-5.737590906623609
 20
-40.23410498344417
 30
0.0
 10
-5.67145965837076
 20
-40.11856013459857
 30
0.0
 10
-5.612479576919872
 20
-39.99920644139104
 30
0.0
 10
-5.560869114363283
 20
-39.87648596940316
 30
0.0
 10
-5.516819426990619
 20
-39.75085325418693
 30
0.0
 10
-5.480493667278728
 20
-39.622773617743086
 30
0.0
 10
-5.262080243677602
 20
-38.04369221307087
 30
0.0
 10
-4.016945604559789
 20
-38.21868447456935
 30
0.0
 10
-3.765940587568001
 20
-38.236236455189406
 30
0.0
 10
-3.9206856131824486
 20
-39.80738906688788
 30
0.0
 10
-3.9152631344351763
 20
-39.94040993297461
 30
0.0
 10
-3.9017589183469363
 20
-40.07285460156522
 30
0.0
 10
-3.8802229822148773
 20
-40.20423252035352
 30
0.0
 10
-3.8507350914478087
 20
-40.33405708809146
 30
0.0
 10
-3.8134044641288227
 20
-40.46184745687645
 30
0.0
 10
-3.768369366490271
 20
-40.58713031312948
 30
0.0
 10
-3.71579660079939
 20
-40.709441630667335
 30
0.0
 10
-3.6558808875513473
 20
-40.82832838937582
 30
0.0
 10
-3.588844144257969
 20
-40.943350253118545
 30
0.0
 10
-3.5149346635033893
 20
-41.05408120066628
 30
0.0
 10
-3.4344261933109625
 20
-41.16011110360648
 30
0.0
 10
-3.347616923227595
 20
-41.261047245388426
 30
0.0
 10
-3.254828379880879
 20
-41.35651577587794
 30
0.0
 10
-3.1482476489812177
 20
-41.27673794756001
 30
0.0
 10
-3.0467172537214178
 20
-41.19062445890334
 30
0.0
 10
-2.9506132452484897
 20
-41.09849425948064
 30
0.0
 10
-2.8602915763047227
 20
-41.00068858372793
 30
0.0
 10
-2.77608678283986
 20
-40.89756968707085
 30
0.0
 10
-2.6983107449473973
 20
-40.789519504192796
 30
0.0
 10
-2.627251531714275
 20
-40.67693823441437
 30
0.0
 10
-2.5631723342624584
 20
-40.560242859423916
 30
0.0
 10
-2.5063104909342195
 20
-40.4398655988489
 30
0.0
 10
-2.4568766082316795
 20
-40.316252309388645
 30
0.0
 10
-2.4150537807664945
 20
-40.189860833437734
 30
0.0
 10
-2.38099691310886
 20
-40.06115930331636
 30
0.0
 10
-2.354832146047586
 20
-39.93062440738864
 30
0.0
 10
-2.261114461491345
 20
-38.34146414871525
 30
0.0
 10
-1.3411598668727889
 20
-38.405793640649705
 30
0.0
 10
-0.7541929189103568
 20
-38.40579364064972
 30
0.0
 10
-0.7853476984251395
 20
-39.9922896192826
 30
0.0
 10
-0.7695052385040839
 20
-40.12447498365354
 30
0.0
 10
-0.7456511624756467
 20
-40.255451840949256
 30
0.0
 10
-0.7138738217406905
 20
-40.38473507538453
 30
0.0
 10
-0.6742909141117938
 20
-40.511845844062385
 30
0.0
 10
-0.6270490478807668
 20
-40.63631335052589
 30
0.0
 10
-0.572323198806716
 20
-40.757676588507394
 30
0.0
 10
-0.510316062035886
 20
-40.875486049416594
 30
0.0
 10
-0.4412573013536456
 20
-40.98930538724311
 30
0.0
 10
-0.3654026985492733
 20
-41.09871303470718
 30
0.0
 10
-0.28303320604413473
 20
-41.2033037646725
 30
0.0
 10
-0.19445390629216866
 20
-41.30269019103789
 30
0.0
 10
-0.09999288180686988
 20
-41.39650420354892
 30
0.0
 10
-7.842604949556478e-15
 20
-41.484398331215054
 30
0.0
 10
0.09999288180685445
 20
-41.39650420354892
 30
0.0
 10
0.19445390629215262
 20
-41.30269019103789
 30
0.0
 10
0.28303320604411875
 20
-41.2033037646725
 30
0.0
 10
0.3654026985492569
 20
-41.09871303470718
 30
0.0
 10
0.44125730135362917
 20
-40.98930538724311
 30
0.0
 10
0.5103160620358693
 20
-40.8754860494166
 30
0.0
 10
0.5723231988066996
 20
-40.7576765885074
 30
0.0
 10
0.6270490478807503
 20
-40.63631335052589
 30
0.0
 10
0.6742909141117778
 20
-40.51184584406239
 30
0.0
 10
0.7138738217406745
 20
-40.38473507538454
 30
0.0
 10
0.7456511624756311
 20
-40.25545184094926
 30
0.0
 10
0.769505238504069
 20
-40.12447498365355
 30
0.0
 10
0.7853476984251253
 20
-39.9922896192826
 30
0.0
 10
0.7541929189103433
 20
-38.40579364064976
 30
0.0
 10
1.3411598668727716
 20
-38.405793640649776
 30
0.0
 10
2.2611144614913203
 20
-38.341464148715104
 30
0.0
 10
2.3548321460475727
 20
-39.930624407388635
 30
0.0
 10
2.380996913108845
 20
-40.06115930331635
 30
0.0
 10
2.4150537807664785
 20
-40.18986083343773
 30
0.0
 10
2.4568766082316635
 20
-40.31625230938864
 30
0.0
 10
2.506310490934203
 20
-40.43986559884889
 30
0.0
 10
2.563172334262442
 20
-40.560242859423916
 30
0.0
 10
2.6272515317142586
 20
-40.676938234414365
 30
0.0
 10
2.6983107449473804
 20
-40.78951950419279
 30
0.0
 10
2.776086782839844
 20
-40.89756968707085
 30
0.0
 10
2.8602915763047063
 20
-41.00068858372793
 30
0.0
 10
2.950613245248474
 20
-41.09849425948064
 30
0.0
 10
3.0467172537214022
 20
-41.19062445890334
 30
0.0
 10
3.1482476489812026
 20
-41.27673794756001
 30
0.0
 10
3.254828379880864
 20
-41.35651577587794
 30
0.0
 10
3.34761692322758
 20
-41.261047245388426
 30
0.0
 10
3.434426193310947
 20
-41.16011110360648
 30
0.0
 10
3.514934663503374
 20
-41.05408120066628
 30
0.0
 10
3.5888441442579526
 20
-40.943350253118545
 30
0.0
 10
3.6558808875513313
 20
-40.82832838937582
 30
0.0
 10
3.7157966007993743
 20
-40.70944163066734
 30
0.0
 10
3.768369366490255
 20
-40.587130313129485
 30
0.0
 10
3.8134044641288067
 20
-40.46184745687645
 30
0.0
 10
3.850735091447794
 20
-40.33405708809147
 30
0.0
 10
3.8802229822148626
 20
-40.20423252035353
 30
0.0
 10
3.9017589183469217
 20
-40.072854601565226
 30
0.0
 10
3.9152631344351625
 20
-39.94040993297462
 30
0.0
 10
3.920685613182436
 20
-39.807389066887886
 30
0.0
 10
3.76594058756798
 20
-38.2362364551893
 30
0.0
 10
4.016945604559771
 20
-38.218684474569244
 30
0.0
 10
5.262080243677588
 20
-38.04369221307088
 30
0.0
 10
5.480493667278715
 20
-39.6227736177431
 30
0.0
 10
5.516819426990603
 20
-39.75085325418692
 30
0.0
 10
5.560869114363267
 20
-39.876485969403156
 30
0.0
 10
5.6124795769198546
 20
-39.99920644139104
 30
0.0
 10
5.671459658370743
 20
-40.11856013459857
 30
0.0
 10
5.737590906623593
 20
-40.234104983444176
 30
0.0
 10
5.810628382892389
 20
-40.3454130296516
 30
0.0
 10
5.890301568908635
 20
-40.452072007333996
 30
0.0
 10
5.976315368874557
 20
-40.55368686995584
 30
0.0
 10
6.068351202447264
 20
-40.649881253517506
 30
0.0
 10
6.166068184705619
 20
-40.7402988705429
 30
0.0
 10
6.269104388729448
 20
-40.824604829707084
 30
0.0
 10
6.377078186114691
 20
-40.902486876216166
 30
0.0
 10
6.489589660459465
 20
-40.9736565483455
 30
0.0
 10
6.574601793120982
 20
-40.871202210269594
 30
0.0
 10
6.653224100785341
 20
-40.76376624409549
 30
0.0
 10
6.72516537992771
 20
-40.65174657419064
 30
0.0
 10
6.790159172405482
 20
-40.53555810217388
 30
0.0
 10
6.847964752373483
 20
-40.41563117019113
 30
0.0
 10
6.898368017891158
 20
-40.292409967001966
 30
0.0
 10
6.941182283919387
 20
-40.16635088278073
 30
0.0
 10
6.976248973769808
 20
-40.037920818725745
 30
0.0
 10
7.00343820644564
 20
-39.90759545773745
 30
0.0
 10
7.022649277698584
 20
-39.77585750257059
 30
0.0
 10
7.033811033020066
 20
-39.643194887986155
 30
0.0
 10
7.036882131185319
 20
-39.510098973524855
 30
0.0
 10
7.031851197374174
 20
-39.37706272359568
 30
0.0
 10
6.7552124753117955
 20
-37.827937179742676
 30
0.0
 10
8.230889399872446
 20
-37.51427236652227
 30
0.0
 10
8.572366122602041
 20
-39.0706352528349
 30
0.0
 10
8.618628914576382
 20
-39.19546997624537
 30
0.0
 10
8.672399840693414
 20
-39.31725930909003
 30
0.0
 10
8.733479742677526
 20
-39.43555216459637
 30
0.0
 10
8.80164239106175
 20
-39.54991040634344
 30
0.0
 10
8.87663532310286
 20
-39.65991047104392
 30
0.0
 10
8.958180777860015
 20
-39.76514493734979
 30
0.0
 10
9.04597672497357
 20
-39.86522403487103
 30
0.0
 10
9.13969798333367
 20
-39.95977708781821
 30
0.0
 10
9.238997425495224
 20
-40.04845388792194
 30
0.0
 10
9.343507263378353
 20
-40.13092599154416
 30
0.0
 10
9.45284041049226
 20
-40.20688793617698
 30
0.0
 10
9.566591915637135
 20
-40.27605837182335
 30
0.0
 10
9.684340462773823
 20
-40.33818110306909
 30
0.0
 10
9.76105205668288
 20
-40.22937262247055
 30
0.0
 10
9.831002669256911
 20
-40.11609921036184
 30
0.0
 10
9.893933215440406
 20
-39.998780412007605
 30
0.0
 10
9.949610611298114
 20
-39.87785075608841
 30
0.0
 10
9.99782863731793
 20
-39.753758145281054
 30
0.0
 10
10.038408702212536
 20
-39.62696219730408
 30
0.0
 10
10.07120050439086
 20
-39.49793254257258
 30
0.0
 10
10.096082588649365
 20
-39.36714708476787
 30
0.0
 10
10.112962796021257
 20
-39.235090230764335
 30
0.0
 10
10.121778605117473
 20
-39.102251096469466
 30
0.0
 10
10.12249736369516
 20
-38.96912169522263
 30
0.0
 10
10.115116409595991
 20
-38.83619511546216
 30
0.0
 10
10.099663080606332
 20
-38.7039636944104
 30
0.0
 10
9.699932448293517
 20
-37.1721145864647
 30
0.0
 10
11.149913592951359
 20
-36.75633918379679
 30
0.0
 10
11.611387090178486
 20
-38.27761342928836
 30
0.0
 10
11.667301688918819
 20
-38.39843359208388
 30
0.0
 10
11.730462338140061
 20
-38.51562867082094
 30
0.0
 10
11.800635101644835
 20
-38.62876459505518
 30
0.0
 10
11.877560071568725
 20
-38.73742232875343
 30
0.0
 10
11.960952331034385
 20
-38.84119942233118
 30
0.0
 10
12.050503009434701
 20
-38.93971150325669
 30
0.0
 10
12.145880426436499
 20
-39.03259369970089
 30
0.0
 10
12.246731320467505
 20
-39.1195019919599
 30
0.0
 10
12.352682157136567
 20
-39.20011448664502
 30
0.0
 10
12.463340512740867
 20
-39.27413260892048
 30
0.0
 10
12.578296527735937
 20
-39.34128220837338
 30
0.0
 10
12.69712442478501
 20
-39.40131457441977
 30
0.0
 10
12.819384085765153
 20
-39.45400735748588
 30
0.0
 10
12.887322188436105
 20
-39.339515574830074
 30
0.0
 10
12.94816983713235
 20
-39.22110308503964
 30
0.0
 10
13.001701662613218
 20
-39.09920846764036
 30
0.0
 10
13.04771939219079
 20
-38.97428319936064
 30
0.0
 10
13.086052584097889
 20
-38.8467899819393
 30
0.0
 10
13.116559258775107
 20
-38.717201028357714
 30
0.0
 10
13.139126424738715
 20
-38.585996313844085
 30
0.0
 10
13.153670497081718
 20
-38.453661798127605
 30
0.0
 10
13.160137607057987
 20
-38.320687625527114
 30
0.0
 10
13.158503801602839
 20
-38.18756630954066
 30
0.0
 10
13.148775132051089
 20
-38.054790908660124
 30
0.0
 10
13.130987631723938
 20
-37.92285320016728
 30
0.0
 10
13.105207182467733
 20
-37.79224185867511
 30
0.0
 10
12.584364517985822
 20
-36.29025782497359
 30
0.0
 10
14.00181055549145
 20
-35.77434965864296
 30
0.0
 10
14.578819995165995
 20
-37.24859739035214
 30
0.0
 10
14.644041668577593
 20
-37.36465809605231
 30
0.0
 10
14.71620263449755
 20
-37.47653637405001
 30
0.0
 10
14.795035621101167
 20
-37.58381784641773
 30
0.0
 10
14.880248644544995
 20
-37.68610516100656
 30
0.0
 10
14.971526090424854
 20
-37.783019463170284
 30
0.0
 10
15.068529882757375
 20
-37.87420179897794
 30
0.0
 10
15.170900736155387
 20
-37.95931444471755
 30
0.0
 10
15.278259486559275
 20
-38.03804215776669
 30
0.0
 10
15.390208495595552
 20
-38.11009334419709
 30
0.0
 10
15.506333123361086
 20
-38.17520113878843
 30
0.0
 10
15.62620326417812
 20
-38.23312439345128
 30
0.0
 10
15.749374939631798
 20
-38.28364857039821
 30
0.0
 10
15.875391942989989
 20
-38.32658653675497
 30
0.0
 10
15.934137693428157
 20
-38.207117331954365
 30
0.0
 10
15.98550723225851
 20
-38.0842958168579
 30
0.0
 10
16.029310295531523
 20
-37.9585769012639
 30
0.0
 10
16.065384644223666
 20
-37.830426226444494
 30
0.0
 10
16.093596665142858
 20
-37.700318440490356
 30
0.0
 10
16.113841865808805
 20
-37.568735440295704
 30
0.0
 10
16.126045261475188
 20
-37.436164586694915
 30
0.0
 10
16.1301616528603
 20
-37.30309689936174
 30
0.0
 10
16.126175793557408
 20
-37.17002523815678
 30
0.0
 10
16.114102446504823
 20
-37.03744247765912
 30
0.0
 10
16.093986329306535
 20
-36.90583968164362
 30
0.0
 10
16.065901948605863
 20
-36.775704284265
 30
0.0
 10
16.029953324125646
 20
-36.647518284685425
 30
0.0
 10
15.391406644207446
 20
-35.187679278622454
 30
0.0
 10
16.769621905757962
 20
-34.574058309650155
 30
0.0
 10
17.456369626933675
 20
-35.98993136208887
 30
0.0
 10
17.530496261711548
 20
-36.10051705784893
 30
0.0
 10
17.611212647979368
 20
-36.206388768320124
 30
0.0
 10
17.69821982610479
 20
-36.307154362869476
 30
0.0
 10
17.791195536442817
 20
-36.402440623040455
 30
0.0
 10
17.889795412930198
 20
-36.491894624890044
 30
0.0
 10
17.99365425855816
 20
-36.57518504615839
 30
0.0
 10
18.102387397999422
 20
-36.65200339342959
 30
0.0
 10
18.215592102379546
 20
-36.722065144738295
 30
0.0
 10
18.3328490809155
 20
-36.785110803390175
 30
0.0
 10
18.453724033896744
 20
-36.840906859093195
 30
0.0
 10
18.577769261256734
 20
-36.88924665283956
 30
0.0
 10
18.70452532077711
 20
-36.92995114233519
 30
0.0
 10
18.833522729782736
 20
-36.96286956514166
 30
0.0
 10
18.88271394090173
 20
-36.8391595055714
 30
0.0
 10
18.924288659577194
 20
-36.71268620065179
 30
0.0
 10
18.95809290019128
 20
-36.58391808578348
 30
0.0
 10
18.984001457642364
 20
-36.45333209594906
 30
0.0
 10
19.001918371083235
 20
-36.32141189922777
 30
0.0
 10
19.01177727934359
 20
-36.18864610537203
 30
0.0
 10
19.013541666720425
 20
-36.055526456080806
 30
0.0
 10
19.00720499822592
 20
-35.922546003672856
 30
0.0
 10
18.9927907437919
 20
-35.79019728490557
 30
0.0
 10
18.970352291341253
 20
-35.65897049670342
 30
0.0
 10
18.939972749048245
 20
-35.52935168055276
 30
0.0
 10
18.90176463752007
 20
-35.401820922287605
 30
0.0
 10
18.8558694730399
 20
-35.276850573934205
 30
0.0
 10
18.104408882697214
 20
-33.87096669275746
 30
0.0
 10
19.214601836602554
 20
-33.28066662820188
 30
0.0
 10
19.427985956379324
 20
-33.14732943156923
 30
0.0
 10
20.226294935119395
 20
-34.50937543911168
 30
0.0
 10
20.308869515910526
 20
-34.6138043273438
 30
0.0
 10
20.397643679163945
 20
-34.713016735987516
 30
0.0
 10
20.492288620625203
 20
-34.80664519932013
 30
0.0
 10
20.592453791685635
 20
-34.89434293359341
 30
0.0
 10
20.697768197754204
 20
-34.97578512146098
 30
0.0
 10
20.80784177235774
 20
-35.050670115046024
 30
0.0
 10
20.92226682188016
 20
-35.11872055319321
 30
0.0
 10
21.04061953558963
 20
-35.179684388766745
 30
0.0
 10
21.162461555360693
 20
-35.23333582218972
 30
0.0
 10
21.28734159927751
 20
-35.27947613776695
 30
0.0
 10
21.41479713310456
 20
-35.31793443969375
 30
0.0
 10
21.544356083434018
 20
-35.34856828502472
 30
0.0
 10
21.675538586164578
 20
-35.371264211257824
 30
0.0
 10
21.714871977790104
 20
-35.24407601057292
 30
0.0
 10
21.746395554345046
 20
-35.11473066581163
 30
0.0
 10
21.76999255791577
 20
-34.98370724991693
 30
0.0
 10
21.78557558925364
 20
-34.851491051119076
 30
0.0
 10
21.793086931486847
 20
-34.71857177551132
 30
0.0
 10
21.79249876389377
 20
-34.585441733262726
 30
0.0
 10
21.783813264946165
 20
-34.45259401518573
 30
0.0
 10
21.767062604240458
 20
-34.320520666412584
 30
0.0
 10
21.742308823347127
 20
-34.18971086394459
 30
0.0
 10
21.709643606019323
 20
-34.06064910482454
 30
0.0
 10
21.669187938612048
 20
-33.933813411642916
 30
0.0
 10
21.62109166196943
 20
-33.80967356202423
 30
0.0
 10
21.565532916440016
 20
-33.68868934865146
 30
0.0
 10
20.707267152341984
 20
-32.34794581973824
 30
0.0
 10
21.489337980088226
 20
-31.859253728457244
 30
0.0
 10
21.96420421612623
 20
-31.51424321286184
 30
0.0
 10
22.871518409104482
 20
-32.81605774102054
 30
0.0
 10
22.962031836159472
 20
-32.913685982902656
 30
0.0
 10
23.058316454161623
 20
-33.00562741222814
 30
0.0
 10
23.160015641421975
 20
-33.091541493732954
 30
0.0
 10
23.26675272161693
 20
-33.17111001641428
 30
0.0
 10
23.37813235893268
 20
-33.24403827212936
 30
0.0
 10
23.493742022321175
 20
-33.310056147143854
 30
0.0
 10
23.613153513444264
 20
-33.368919122586775
 30
0.0
 10
23.735924552646786
 20
-33.420409180106304
 30
0.0
 10
23.86160041708448
 20
-33.46433560937242
 30
0.0
 10
23.989715624939297
 20
-33.5005357144351
 30
0.0
 10
24.1197956594841
 20
-33.5288754163223
 30
0.0
 10
24.25135872661114
 20
-33.54924974964533
 30
0.0
 10
24.383917539314684
 20
-33.561583251372696
 30
0.0
 10
24.413150608007694
 20
-33.431701067124735
 30
0.0
 10
24.434428689110003
 20
-33.30028113958391
 30
0.0
 10
24.447672972263547
 20
-33.16781022559151
 30
0.0
 10
24.452834402918125
 20
-33.03477897466215
 30
0.0
 10
24.44989386402103
 20
-32.90168011170222
 30
0.0
 10
24.43886224682332
 20
-32.76900661204146
 30
0.0
 10
24.419780410540497
 20
-32.63724987553699
 30
0.0
 10
24.39271903101701
 20
-32.50689790651266
 30
0.0
 10
24.357778338955036
 20
-32.37843350627485
 30
0.0
 10
24.315087748677186
 20
-32.252332484899284
 30
0.0
 10
24.264805378798084
 20
-32.129061898912305
 30
0.0
 10
24.207117466580165
 20
-32.00907832139367
 30
0.0
 10
24.142237678142852
 20
-31.89282615090829
 30
0.0
 10
23.184513992997672
 20
-30.627636262624016
 30
0.0
 10
23.659380229035676
 20
-30.28262574702858
 30
0.0
 10
24.365827203488866
 20
-29.68984635131857
 30
0.0
 10
25.37573136654583
 20
-30.92041813450947
 30
0.0
 10
25.473625594488105
 20
-31.010643819465677
 30
0.0
 10
25.57682704055113
 20
-31.094747419987492
 30
0.0
 10
25.684953464302698
 20
-31.172417430782705
 30
0.0
 10
25.797604384039087
 20
-31.24336617547053
 30
0.0
 10
25.914362560100486
 20
-31.307330872085522
 30
0.0
 10
26.03479554025504
 20
-31.36407460637684
 30
0.0
 10
26.158457261427667
 20
-31.413387209297962
 30
0.0
 10
26.28488970184105
 20
-31.455086035436704
 30
0.0
 10
26.413624577449657
 20
-31.489016639502488
 30
0.0
 10
26.544185076383414
 20
-31.515053348365168
 30
0.0
 10
26.676087624976997
 20
-31.53309972652671
 30
0.0
 10
26.808843678843623
 20
-31.543088933301732
 30
0.0
 10
26.941961532359553
 20
-31.54498397038389
 30
0.0
 10
26.960914046530576
 20
-31.413208569428974
 30
0.0
 10
26.971815445734574
 20
-31.280524306663462
 30
0.0
 10
26.97462535306113
 20
-31.14742262180918
 30
0.0
 10
26.96933336109608
 20
-31.014396500647685
 30
0.0
 10
26.955959070468804
 20
-30.881938649085576
 30
0.0
 10
26.934552017254866
 20
-30.750539668256472
 30
0.0
 10
26.90519148950287
 20
-30.620686237418635
 30
0.0
 10
26.867986233565183
 20
-30.492859311378606
 30
0.0
 10
26.82307405132009
 20
-30.367532339117183
 30
0.0
 10
26.77062128977732
 20
-30.24516951021572
 30
0.0
 10
26.71082222495728
 20
-30.12622403557763
 30
0.0
 10
26.643898342326057
 20
-30.01113646881303
 30
0.0
 10
26.570097516451273
 20
-29.900333074503866
 30
0.0
 10
25.521405826677025
 20
-28.720200754805
 30
0.0
 10
25.714156355739757
 20
-28.55846385695923
 30
0.0
 10
26.61863356849691
 20
-27.6850203655309
 30
0.0
 10
27.723494501825453
 20
-28.834143868116733
 30
0.0
 10
27.82816598018662
 20
-28.91641072479619
 30
0.0
 10
27.93764798307757
 20
-28.992157969849846
 30
0.0
 10
28.05153500796225
 20
-29.061105048490994
 30
0.0
 10
28.169405236859664
 20
-29.122996592581465
 30
0.0
 10
28.290822098685258
 20
-29.17760336647132
 30
0.0
 10
28.41533588623519
 20
-29.22472311604835
 30
0.0
 10
28.542485421824633
 20
-29.264181317852557
 30
0.0
 10
28.67179976541067
 20
-29.2958318254811
 30
0.0
 10
28.80279995887337
 20
-29.31955741088943
 30
0.0
 10
28.935000799994373
 20
-29.335270198583878
 30
0.0
 10
29.06791263956261
 20
-29.34291199109737
 30
0.0
 10
29.201043194950866
 20
-29.34245448454286
 30
0.0
 10
29.33389937344608
 20
-29.33389937344604
 30
0.0
 10
29.342454484542902
 20
-29.201043194950824
 30
0.0
 10
29.342911991097413
 20
-29.067912639562568
 30
0.0
 10
29.335270198583917
 20
-28.935000799994334
 30
0.0
 10
29.319557410889466
 20
-28.80279995887333
 30
0.0
 10
29.295831825481137
 20
-28.671799765410633
 30
0.0
 10
29.264181317852604
 20
-28.542485421824598
 30
0.0
 10
29.22472311604839
 20
-28.415335886235155
 30
0.0
 10
29.177603366471363
 20
-28.290822098685215
 30
0.0
 10
29.12299659258151
 20
-28.16940523685963
 30
0.0
 10
29.06110504849104
 20
-28.051535007962215
 30
0.0
 10
28.992157969849888
 20
-27.937647983077532
 30
0.0
 10
28.916410724796236
 20
-27.828165980186583
 30
0.0
 10
28.834143868116776
 20
-27.723494501825417
 30
0.0
 10
27.699785292039795
 20
-26.632829771469314
 30
0.0
 10
28.709265450842246
 20
-25.51168847363155
 30
0.0
 10
29.900333074503855
 20
-26.570097516451288
 30
0.0
 10
30.011136468813014
 20
-26.643898342326064
 30
0.0
 10
30.126224035577607
 20
-26.710822224957283
 30
0.0
 10
30.2451695102157
 20
-26.770621289777324
 30
0.0
 10
30.367532339117165
 20
-26.8230740513201
 30
0.0
 10
30.492859311378588
 20
-26.86798623356519
 30
0.0
 10
30.620686237418617
 20
-26.905191489502876
 30
0.0
 10
30.750539668256454
 20
-26.934552017254873
 30
0.0
 10
30.881938649085562
 20
-26.955959070468815
 30
0.0
 10
31.01439650064767
 20
-26.969333361096087
 30
0.0
 10
31.14742262180917
 20
-26.97462535306114
 30
0.0
 10
31.280524306663448
 20
-26.971815445734585
 30
0.0
 10
31.41320856942896
 20
-26.960914046530586
 30
0.0
 10
31.54498397038388
 20
-26.941961532359564
 30
0.0
 10
31.543088933301718
 20
-26.808843678843633
 30
0.0
 10
31.533099726526697
 20
-26.676087624977008
 30
0.0
 10
31.515053348365157
 20
-26.544185076383425
 30
0.0
 10
31.489016639502474
 20
-26.413624577449664
 30
0.0
 10
31.45508603543669
 20
-26.28488970184106
 30
0.0
 10
31.41338720929795
 20
-26.15845726142768
 30
0.0
 10
31.364074606376832
 20
-26.034795540255057
 30
0.0
 10
31.307330872085508
 20
-25.914362560100493
 30
0.0
 10
31.24336617547052
 20
-25.7976043840391
 30
0.0
 10
31.172417430782698
 20
-25.684953464302712
 30
0.0
 10
31.094747419987485
 20
-25.57682704055114
 30
0.0
 10
31.01064381946567
 20
-25.47362559448812
 30
0.0
 10
30.92041813450946
 20
-25.375731366545835
 30
0.0
 10
29.6966309454083
 20
-24.37139517596269
 30
0.0
 10
30.62530368300559
 20
-23.182748276429205
 30
0.0
 10
31.89282615090828
 20
-24.142237678142866
 30
0.0
 10
32.00907832139366
 20
-24.20711746658018
 30
0.0
 10
32.12906189891229
 20
-24.264805378798098
 30
0.0
 10
32.25233248489927
 20
-24.3150877486772
 30
0.0
 10
32.37843350627483
 20
-24.35777833895505
 30
0.0
 10
32.506897906512656
 20
-24.392719031017027
 30
0.0
 10
32.63724987553697
 20
-24.41978041054051
 30
0.0
 10
32.769006612041444
 20
-24.438862246823334
 30
0.0
 10
32.90168011170221
 20
-24.44989386402105
 30
0.0
 10
33.03477897466214
 20
-24.452834402918146
 30
0.0
 10
33.1678102255915
 20
-24.447672972263568
 30
0.0
 10
33.300281139583895
 20
-24.43442868911002
 30
0.0
 10
33.43170106712473
 20
-24.413150608007715
 30
0.0
 10
33.56158325137268
 20
-24.3839175393147
 30
0.0
 10
33.54924974964532
 20
-24.251358726611162
 30
0.0
 10
33.528875416322286
 20
-24.11979565948412
 30
0.0
 10
33.500535714435095
 20
-23.98971562493932
 30
0.0
 10
33.464335609372405
 20
-23.861600417084503
 30
0.0
 10
33.4204091801063
 20
-23.735924552646807
 30
0.0
 10
33.36891912258677
 20
-23.61315351344429
 30
0.0
 10
33.310056147143854
 20
-23.4937420223212
 30
0.0
 10
33.24403827212935
 20
-23.3781323589327
 30
0.0
 10
33.171110016414275
 20
-23.26675272161695
 30
0.0
 10
33.091541493732954
 20
-23.160015641421996
 30
0.0
 10
33.00562741222813
 20
-23.05831645416165
 30
0.0
 10
32.913685982902656
 20
-22.962031836159493
 30
0.0
 10
32.81605774102055
 20
-22.871518409104503
 30
0.0
 10
31.511843109870618
 20
-21.962531437507305
 30
0.0
 10
32.355337831115705
 20
-20.711999086642802
 30
0.0
 10
33.688689348651465
 20
-21.565532916440002
 30
0.0
 10
33.80967356202424
 20
-21.621091661969416
 30
0.0
 10
33.933813411642916
 20
-21.66918793861203
 30
0.0
 10
34.06064910482455
 20
-21.709643606019306
 30
0.0
 10
34.18971086394459
 20
-21.742308823347113
 30
0.0
 10
34.32052066641259
 20
-21.76706260424045
 30
0.0
 10
34.45259401518574
 20
-21.783813264946147
 30
0.0
 10
34.585441733262726
 20
-21.79249876389376
 30
0.0
 10
34.71857177551133
 20
-21.793086931486837
 30
0.0
 10
34.85149105111908
 20
-21.78557558925363
 30
0.0
 10
34.98370724991694
 20
-21.769992557915756
 30
0.0
 10
35.11473066581164
 20
-21.746395554345032
 30
0.0
 10
35.244076010572925
 20
-21.714871977790093
 30
0.0
 10
35.37126421125784
 20
-21.675538586164564
 30
0.0
 10
35.348568285024726
 20
-21.544356083434007
 30
0.0
 10
35.317934439693765
 20
-21.414797133104546
 30
0.0
 10
35.279476137766956
 20
-21.287341599277497
 30
0.0
 10
35.23333582218973
 20
-21.162461555360682
 30
0.0
 10
35.179684388766745
 20
-21.04061953558962
 30
0.0
 10
35.11872055319322
 20
-20.922266821880157
 30
0.0
 10
35.05067011504604
 20
-20.80784177235773
 30
0.0
 10
34.97578512146099
 20
-20.697768197754197
 30
0.0
 10
34.89434293359342
 20
-20.592453791685628
 30
0.0
 10
34.80664519932015
 20
-20.492288620625192
 30
0.0
 10
34.71301673598752
 20
-20.397643679163934
 30
0.0
 10
34.613804327343814
 20
-20.30886951591052
 30
0.0
 10
34.50937543911168
 20
-20.226294935119373
 30
0.0
 10
33.13470848487103
 20
-19.420588691519235
 30
0.0
 10
33.88903069731298
 20
-18.114064294292017
 30
0.0
 10
35.2768505739342
 20
-18.855869473039913
 30
0.0
 10
35.40182092228759
 20
-18.90176463752008
 30
0.0
 10
35.52935168055274
 20
-18.939972749048255
 30
0.0
 10
35.658970496703404
 20
-18.970352291341268
 30
0.0
 10
35.79019728490555
 20
-18.99279074379191
 30
0.0
 10
35.92254600367284
 20
-19.00720499822593
 30
0.0
 10
36.05552645608079
 20
-19.01354166672044
 30
0.0
 10
36.188646105372015
 20
-19.011777279343605
 30
0.0
 10
36.321411899227755
 20
-19.00191837108325
 30
0.0
 10
36.45333209594905
 20
-18.98400145764238
 30
0.0
 10
36.58391808578347
 20
-18.958092900191293
 30
0.0
 10
36.712686200651774
 20
-18.924288659577208
 30
0.0
 10
36.83915950557138
 20
-18.882713940901745
 30
0.0
 10
36.96286956514165
 20
-18.83352272978275
 30
0.0
 10
36.92995114233517
 20
-18.704525320777122
 30
0.0
 10
36.889246652839546
 20
-18.577769261256748
 30
0.0
 10
36.84090685909319
 20
-18.45372403389676
 30
0.0
 10
36.78511080339017
 20
-18.332849080915516
 30
0.0
 10
36.72206514473828
 20
-18.21559210237956
 30
0.0
 10
36.65200339342959
 20
-18.102387397999443
 30
0.0
 10
36.57518504615838
 20
-17.993654258558177
 30
0.0
 10
36.49189462489003
 20
-17.889795412930212
 30
0.0
 10
36.40244062304045
 20
-17.791195536442835
 30
0.0
 10
36.307154362869476
 20
-17.698219826104808
 30
0.0
 10
36.206388768320124
 20
-17.61121264797939
 30
0.0
 10
36.10051705784893
 20
-17.530496261711566
 30
0.0
 10
35.98993136208885
 20
-17.456369626933693
 30
0.0
 10
34.5556291621072
 20
-16.760683127626326
 30
0.0
 10
35.106824456478876
 20
-15.630565298115652
 30
0.0
 10
35.201082197945325
 20
-15.397269201379334
 30
0.0
 10
36.64751828468545
 20
-16.029953324125632
 30
0.0
 10
36.775704284265
 20
-16.06590194860584
 30
0.0
 10
36.90583968164363
 20
-16.093986329306514
 30
0.0
 10
37.03744247765912
 20
-16.114102446504805
 30
0.0
 10
37.17002523815678
 20
-16.126175793557387
 30
0.0
 10
37.30309689936175
 20
-16.130161652860284
 30
0.0
 10
37.436164586694915
 20
-16.12604526147517
 30
0.0
 10
37.568735440295704
 20
-16.113841865808787
 30
0.0
 10
37.70031844049036
 20
-16.09359666514284
 30
0.0
 10
37.8304262264445
 20
-16.06538464422365
 30
0.0
 10
37.95857690126391
 20
-16.029310295531506
 30
0.0
 10
38.08429581685791
 20
-15.985507232258492
 30
0.0
 10
38.20711733195437
 20
-15.93413769342814
 30
0.0
 10
38.326586536754974
 20
-15.875391942989971
 30
0.0
 10
38.28364857039822
 20
-15.74937493963178
 30
0.0
 10
38.23312439345128
 20
-15.626203264178102
 30
0.0
 10
38.17520113878844
 20
-15.50633312336107
 30
0.0
 10
38.1100933441971
 20
-15.390208495595532
 30
0.0
 10
38.0380421577667
 20
-15.278259486559259
 30
0.0
 10
37.95931444471756
 20
-15.170900736155373
 30
0.0
 10
37.87420179897796
 20
-15.068529882757362
 30
0.0
 10
37.78301946317029
 20
-14.971526090424838
 30
0.0
 10
37.68610516100657
 20
-14.88024864454498
 30
0.0
 10
37.583817846417745
 20
-14.795035621101153
 30
0.0
 10
37.47653637405002
 20
-14.716202634497538
 30
0.0
 10
37.364658096052324
 20
-14.644041668577579
 30
0.0
 10
37.248597390352145
 20
-14.57881999516598
 30
0.0
 10
35.766176528104886
 20
-13.998611653861312
 30
0.0
 10
36.11163911438956
 20
-13.143561748200916
 30
0.0
 10
36.293021876446325
 20
-12.585323007491404
 30
0.0
 10
37.79224185867512
 20
-13.105207182467748
 30
0.0
 10
37.92285320016727
 20
-13.130987631723954
 30
0.0
 10
38.05479090866012
 20
-13.148775132051105
 30
0.0
 10
38.18756630954064
 20
-13.158503801602857
 30
0.0
 10
38.3206876255271
 20
-13.160137607058003
 30
0.0
 10
38.453661798127605
 20
-13.153670497081738
 30
0.0
 10
38.58599631384408
 20
-13.139126424738732
 30
0.0
 10
38.71720102835771
 20
-13.116559258775123
 30
0.0
 10
38.8467899819393
 20
-13.086052584097908
 30
0.0
 10
38.97428319936064
 20
-13.04771939219081
 30
0.0
 10
39.099208467640345
 20
-13.001701662613238
 30
0.0
 10
39.22110308503964
 20
-12.948169837132369
 30
0.0
 10
39.33951557483007
 20
-12.887322188436123
 30
0.0
 10
39.45400735748587
 20
-12.81938408576517
 30
0.0
 10
39.401314574419764
 20
-12.697124424785027
 30
0.0
 10
39.34128220837338
 20
-12.578296527735956
 30
0.0
 10
39.27413260892047
 20
-12.463340512740887
 30
0.0
 10
39.20011448664502
 20
-12.352682157136586
 30
0.0
 10
39.1195019919599
 20
-12.246731320467525
 30
0.0
 10
39.03259369970089
 20
-12.145880426436518
 30
0.0
 10
38.93971150325669
 20
-12.050503009434722
 30
0.0
 10
38.84119942233118
 20
-11.960952331034404
 30
0.0
 10
38.73742232875343
 20
-11.877560071568748
 30
0.0
 10
38.62876459505518
 20
-11.800635101644856
 30
0.0
 10
38.515628670820945
 20
-11.730462338140084
 30
0.0
 10
38.39843359208388
 20
-11.667301688918839
 30
0.0
 10
38.27761342928836
 20
-11.611387090178503
 30
0.0
 10
36.75913873440742
 20
-11.150762827344707
 30
0.0
 10
36.9405214964642
 20
-10.592524086635194
 30
0.0
 10
37.163622117760404
 20
-9.697716368480284
 30
0.0
 10
38.70396369441039
 20
-10.09966308060635
 30
0.0
 10
38.83619511546215
 20
-10.115116409596006
 30
0.0
 10
38.96912169522262
 20
-10.122497363695176
 30
0.0
 10
39.10225109646945
 20
-10.121778605117488
 30
0.0
 10
39.23509023076432
 20
-10.112962796021275
 30
0.0
 10
39.36714708476787
 20
-10.096082588649383
 30
0.0
 10
39.49793254257256
 20
-10.071200504390875
 30
0.0
 10
39.626962197304074
 20
-10.038408702212552
 30
0.0
 10
39.753758145281054
 20
-9.99782863731795
 30
0.0
 10
39.87785075608841
 20
-9.949610611298134
 30
0.0
 10
39.9987804120076
 20
-9.893933215440423
 30
0.0
 10
40.11609921036183
 20
-9.831002669256929
 30
0.0
 10
40.22937262247054
 20
-9.761052056682896
 30
0.0
 10
40.33818110306908
 20
-9.684340462773841
 30
0.0
 10
40.276058371823346
 20
-9.56659191563715
 30
0.0
 10
40.206887936176976
 20
-9.452840410492279
 30
0.0
 10
40.13092599154415
 20
-9.34350726337837
 30
0.0
 10
40.04845388792194
 20
-9.238997425495244
 30
0.0
 10
39.95977708781821
 20
-9.13969798333369
 30
0.0
 10
39.865224034871034
 20
-9.04597672497359
 30
0.0
 10
39.76514493734979
 20
-8.958180777860033
 30
0.0
 10
39.65991047104392
 20
-8.876635323102878
 30
0.0
 10
39.54991040634344
 20
-8.801642391061769
 30
0.0
 10
39.43555216459637
 20
-8.733479742677545
 30
0.0
 10
39.31725930909003
 20
-8.672399840693434
 30
0.0
 10
39.19546997624537
 20
-8.6186289145764
 30
0.0
 10
39.0706352528349
 20
-8.572366122602057
 30
0.0
 10
37.52856148067505
 20
-8.23402452980553
 30
0.0
 10
37.5894333710563
 20
-7.989880712476136
 30
0.0
 10
37.80777360422928
 20
-6.751611717591194
 30
0.0
 10
39.377062723595664
 20
-7.031851197374188
 30
0.0
 10
39.51009897352483
 20
-7.036882131185334
 30
0.0
 10
39.64319488798615
 20
-7.033811033020082
 30
0.0
 10
39.77585750257057
 20
-7.0226492776986005
 30
0.0
 10
39.90759545773743
 20
-7.003438206445657
 30
0.0
 10
40.03792081872574
 20
-6.9762489737698266
 30
0.0
 10
40.16635088278072
 20
-6.941182283919404
 30
0.0
 10
40.29240996700196
 20
-6.898368017891175
 30
0.0
 10
40.415631170191126
 20
-6.8479647523735006
 30
0.0
 10
40.53555810217388
 20
-6.7901591724055
 30
0.0
 10
40.65174657419063
 20
-6.725165379927727
 30
0.0
 10
40.763766244095486
 20
-6.653224100785359
 30
0.0
 10
40.87120221026959
 20
-6.574601793120999
 30
0.0
 10
40.973656548345495
 20
-6.489589660459482
 30
0.0
 10
40.90248687621616
 20
-6.377078186114708
 30
0.0
 10
40.82460482970708
 20
-6.269104388729467
 30
0.0
 10
40.7402988705429
 20
-6.166068184705637
 30
0.0
 10
40.649881253517506
 20
-6.068351202447282
 30
0.0
 10
40.55368686995583
 20
-5.976315368874575
 30
0.0
 10
40.452072007334
 20
-5.890301568908654
 30
0.0
 10
40.3454130296516
 20
-5.810628382892409
 30
0.0
 10
40.23410498344417
 20
-5.737590906623612
 30
0.0
 10
40.11856013459857
 20
-5.671459658370762
 30
0.0
 10
39.99920644139104
 20
-5.612479576919874
 30
0.0
 10
39.87648596940316
 20
-5.560869114363285
 30
0.0
 10
39.75085325418693
 20
-5.516819426990621
 30
0.0
 10
39.62277361774309
 20
-5.480493667278732
 30
0.0
 10
38.06398160828299
 20
-5.2648866070848115
 30
0.0
 10
38.22167789163341
 20
-3.7645066942125
 30
0.0
 10
39.80738906688788
 20
-3.9206856131824517
 30
0.0
 10
39.94040993297461
 20
-3.915263134435179
 30
0.0
 10
40.07285460156522
 20
-3.901758918346939
 30
0.0
 10
40.20423252035352
 20
-3.88022298221488
 30
0.0
 10
40.33405708809146
 20
-3.850735091447811
 30
0.0
 10
40.46184745687645
 20
-3.813404464128825
 30
0.0
 10
40.58713031312948
 20
-3.7683693664902727
 30
0.0
 10
40.709441630667335
 20
-3.7157966007993926
 30
0.0
 10
40.82832838937582
 20
-3.6558808875513495
 30
0.0
 10
40.943350253118545
 20
-3.5888441442579713
 30
0.0
 10
41.05408120066628
 20
-3.5149346635033916
 30
0.0
 10
41.16011110360648
 20
-3.434426193310965
 30
0.0
 10
41.261047245388426
 20
-3.3476169232275974
 30
0.0
 10
41.35651577587794
 20
-3.2548283798808813
 30
0.0
 10
41.27673794756001
 20
-3.14824764898122
 30
0.0
 10
41.19062445890334
 20
-3.0467172537214204
 30
0.0
 10
41.09849425948064
 20
-2.950613245248492
 30
0.0
 10
41.00068858372793
 20
-2.860291576304725
 30
0.0
 10
40.89756968707085
 20
-2.776086782839862
 30
0.0
 10
40.789519504192796
 20
-2.6983107449473995
 30
0.0
 10
40.67693823441437
 20
-2.6272515317142773
 30
0.0
 10
40.560242859423916
 20
-2.56317233426246
 30
0.0
 10
40.4398655988489
 20
-2.5063104909342218
 30
0.0
 10
40.316252309388645
 20
-2.4568766082316817
 30
0.0
 10
40.189860833437734
 20
-2.4150537807664967
 30
0.0
 10
40.06115930331636
 20
-2.3809969131088624
 30
0.0
 10
39.93062440738864
 20
-2.3548321460475887
 30
0.0
 10
38.35022577273907
 20
-2.261631161498149
 30
0.0
 10
38.402868681939026
 20
-0.7541354800986867
 30
0.0
 10
39.9922896192826
 20
-0.7853476984251323
 30
0.0
 10
40.12447498365354
 20
-0.7695052385040766
 30
0.0
 10
40.255451840949256
 20
-0.7456511624756392
 30
0.0
 10
40.38473507538453
 20
-0.713873821740683
 30
0.0
 10
40.511845844062385
 20
-0.6742909141117863
 30
0.0
 10
40.63631335052589
 20
-0.6270490478807593
 30
0.0
 10
40.757676588507394
 20
-0.5723231988067086
 30
0.0
 10
40.875486049416594
 20
-0.5103160620358784
 30
0.0
 10
40.98930538724311
 20
-0.44125730135363805
 30
0.0
 10
41.09871303470718
 20
-0.36540269854926577
 30
0.0
 10
41.2033037646725
 20
-0.2830332060441272
 30
0.0
 10
41.30269019103789
 20
-0.19445390629216108
 30
0.0
 10
41.39650420354892
 20
-0.09999288180686228
 30
0.0
 10
41.484398331215054
 20
-2.220446049250313e-16
 30
0.0
 10
41.39650420354892
 20
0.09999288180686206
 30
0.0
 10
41.30269019103789
 20
0.1944539062921602
 30
0.0
 10
41.2033037646725
 20
0.2830332060441263
 30
0.0
 10
41.09871303470718
 20
0.36540269854926444
 30
0.0
 10
40.98930538724311
 20
0.4412573013536367
 30
0.0
 10
40.8754860494166
 20
0.5103160620358769
 30
0.0
 10
40.7576765885074
 20
0.572323198806707
 30
0.0
 10
40.63631335052589
 20
0.6270490478807578
 30
0.0
 10
40.51184584406239
 20
0.6742909141117852
 30
0.0
 10
40.38473507538454
 20
0.7138738217406819
 30
0.0
 10
40.25545184094926
 20
0.7456511624756386
 30
0.0
 10
40.12447498365355
 20
0.7695052385040764
 30
0.0
 10
39.992289619282595
 20
0.7853476984251324
 30
0.0
 10
38.402868681939026
 20
0.754135480098687
 30
0.0
  0
ENDSEC
  0
EOF
