999
DXF generated by OpenJsCad
  0
SECTION
  2
HEADER
  0
ENDSEC
  0
SECTION
  2
TABLES
  0
TABLE
  2
LTYPE
  70
1
  0
LTYPE
  2
CONTINUOUS
  3
Solid Line
  72
65
  73
0
  40
0.0
  0
ENDTAB
  0
TABLE
  2
LAYER
  70
1
  0
LAYER
  2
OpenJsCad
  62
7
  6
continuous
  0
ENDTAB
  0
TABLE
  2
STYLE
  70
0
  0
ENDTAB
  0
TABLE
  2
VIEW
  70
0
  0
ENDTAB
  0
ENDSEC
  0
SECTION
  2
BLOCKS
  0
ENDSEC
  0
SECTION
  2
ENTITIES
  0
LWPOLYLINE
  8
OpenJsCad
  90
1441
  70
1
 10
22.403592163861557
 20
0.7334176685194609
 30
0.0
 10
22.374567260345007
 20
1.5645821571315706
 30
0.0
 10
22.30808125646458
 20
2.1971542291548483
 30
0.0
 10
23.88443344013273
 20
2.352411367909455
 30
0.0
 10
24.011983495334214
 20
2.3854263508475135
 30
0.0
 10
24.137271712525088
 20
2.426192369949632
 30
0.0
 10
24.259827552123856
 20
2.4745563220270324
 30
0.0
 10
24.37919073642228
 20
2.530336568660073
 30
0.0
 10
24.49491297823067
 20
2.5933236183698596
 30
0.0
 10
24.606559664490813
 20
2.6632809133964144
 30
0.0
 10
24.71371148853359
 20
2.739945718128494
 30
0.0
 10
24.815966024851065
 20
2.823030105848458
 30
0.0
 10
24.912939240468667
 20
2.912222040086286
 30
0.0
 10
25.004266937241376
 20
3.0071865465215604
 30
0.0
 10
25.08960611965706
 20
3.1075669710321465
 30
0.0
 10
25.168636283010006
 20
3.212986319164779
 30
0.0
 10
25.241060617106697
 20
3.3230486719969514
 30
0.0
 10
25.142617849289156
 20
3.4106159441065955
 30
0.0
 10
25.03899603843168
 20
3.4919887036451573
 30
0.0
 10
24.930584352523162
 20
3.5668613424311353
 30
0.0
 10
24.817789948680698
 20
3.6349526645076367
 30
0.0
 10
24.701036444007073
 20
3.696006942217962
 30
0.0
 10
24.580762324630207
 20
3.7497948766310003
 30
0.0
 10
24.457419298899577
 20
3.7961144587093787
 30
0.0
 10
24.331470600924586
 20
3.834791727986141
 30
0.0
 10
24.203389250826078
 20
3.8656814259006076
 30
0.0
 10
24.07365627823498
 20
3.8886675413397196
 30
0.0
 10
23.942758915709934
 20
3.903663746335998
 30
0.0
 10
23.811188768858912
 20
3.910613720285787
 30
0.0
 10
23.679439970037098
 20
3.9094913614701294
 30
0.0
 10
22.117459357213104
 20
3.6516073185896323
 30
0.0
 10
21.939071759315432
 20
4.663293659391971
 30
0.0
 10
21.832524652572
 20
5.090630763641936
 30
0.0
 10
23.373047502656004
 20
5.449830312824955
 30
0.0
 10
23.495197029444356
 20
5.499211471030147
 30
0.0
 10
23.614092355323567
 20
5.5559821251075725
 30
0.0
 10
23.729286950219738
 20
5.619929063947599
 30
0.0
 10
23.84034818273552
 20
5.6908121247758245
 30
0.0
 10
23.946858944965314
 20
5.768365095122108
 30
0.0
 10
24.048419219009514
 20
5.852296712623319
 30
0.0
 10
24.14464757930459
 20
5.9422917589049025
 30
0.0
 10
24.235182625126683
 20
6.0380122434329975
 30
0.0
 10
24.319684337888848
 20
6.139098672890983
 30
0.0
 10
24.397835358134202
 20
6.245171401313104
 30
0.0
 10
24.469342177429272
 20
6.355832055904538
 30
0.0
 10
24.533936240681015
 20
6.4706650331930025
 30
0.0
 10
24.591374954737635
 20
6.5892390598928845
 30
0.0
 10
24.48234455585395
 20
6.663207822215687
 30
0.0
 10
24.36898796750005
 20
6.730359066113828
 30
0.0
 10
24.251730918150976
 20
6.790440594541889
 30
0.0
 10
24.13101378507577
 20
6.843226761881498
 30
0.0
 10
24.00728994043145
 20
6.8885193213888956
 30
0.0
 10
23.881024048552675
 20
6.926148169741731
 30
0.0
 10
23.752690320831828
 20
6.955971985888803
 30
0.0
 10
23.62277073474364
 20
6.977878761803472
 30
0.0
 10
23.491753223703054
 20
6.991786223147397
 30
0.0
 10
23.360129844554656
 20
6.997642138264745
 30
0.0
 10
23.228394929575902
 20
6.995424514346372
 30
0.0
 10
23.097043229934563
 20
6.985141680027276
 30
0.0
 10
22.966568057573017
 20
6.966832254107097
 30
0.0
 10
21.454470317335705
 20
6.508142419315951
 30
0.0
 10
21.076557181815026
 20
7.671239454990224
 30
0.0
 10
20.98487960733108
 20
7.898149414348527
 30
0.0
 10
22.461742242175816
 20
8.454001150109605
 30
0.0
 10
22.576401228281423
 20
8.518903558273992
 30
0.0
 10
22.686869330859164
 20
8.590707485695662
 30
0.0
 10
22.792731669596098
 20
8.669143261445319
 30
0.0
 10
22.8935906618489
 20
8.753916307645463
 30
0.0
 10
22.989067515827983
 20
8.84470824580387
 30
0.0
 10
23.07880365320952
 20
8.941178092534052
 30
0.0
 10
23.16246205583269
 20
9.042963540171922
 30
0.0
 10
23.23972853142434
 20
9.149682317479138
 30
0.0
 10
23.310312893597402
 20
9.260933625322801
 30
0.0
 10
23.37395005169145
 20
9.376299641939553
 30
0.0
 10
23.430401006362338
 20
9.495347092130846
 30
0.0
 10
23.479453747181772
 20
9.61762887449602
 30
0.0
 10
23.520924048875795
 20
9.742685740591845
 30
0.0
 10
23.403171559279805
 20
9.801790367096448
 30
0.0
 10
23.2820197560846
 20
9.85357111895323
 30
0.0
 10
23.15792364391913
 20
9.897833525414221
 30
0.0
 10
23.031349285227204
 20
9.934411352058666
 30
0.0
 10
22.902772049896782
 20
9.963167225112494
 30
0.0
 10
22.77267482993367
 20
9.983993147377124
 30
0.0
 10
22.641546225884746
 20
9.99681090382989
 30
0.0
 10
22.509878711821834
 20
10.001572355372858
 30
0.0
 10
22.37816678577799
 20
9.99825961962677
 30
0.0
 10
22.24690511258243
 20
9.98688513809113
 30
0.0
 10
22.116586666069065
 20
9.967491629418191
 30
0.0
 10
21.98770087763584
 20
9.940151928976347
 30
0.0
 10
21.860731798108223
 20
9.904968715305474
 30
0.0
 10
20.42571934725248
 20
9.25477303278811
 30
0.0
 10
19.803811392999048
 20
10.529873300502642
 30
0.0
 10
19.779331839954807
 20
10.572273130121896
 30
0.0
 10
21.166110344360522
 20
11.313521683823941
 30
0.0
 10
21.27131694274165
 20
11.392834843749487
 30
0.0
 10
21.37146768215527
 20
11.478443459409405
 30
0.0
 10
21.466186430766587
 20
11.570026014199113
 30
0.0
 10
21.55511745743557
 20
11.66723855544716
 30
0.0
 10
21.637926767721172
 20
11.76971598618352
 30
0.0
 10
21.71430335824989
 20
11.877073436318627
 30
0.0
 10
21.78396038473779
 20
11.98890770808344
 30
0.0
 10
21.846636239279306
 20
12.104798790302018
 30
0.0
 10
21.9020955328568
 20
12.224311435809465
 30
0.0
 10
21.950129979380996
 20
12.346996796091029
 30
0.0
 10
21.990559177942117
 20
12.472394107003218
 30
0.0
 10
22.023231290333843
 20
12.600032419245919
 30
0.0
 10
22.048023611305542
 20
12.729432367086476
 30
0.0
 10
21.923563808741388
 20
12.772661561226487
 30
0.0
 10
21.796689731647177
 20
12.808185838021302
 30
0.0
 10
21.667877875550403
 20
12.83587178046882
 30
0.0
 10
21.537612013612023
 20
12.855615409662924
 30
0.0
 10
21.406381379740345
 20
12.8673425753026
 30
0.0
 10
21.274678831196226
 20
12.871009234175036
 30
0.0
 10
21.142998997590215
 20
12.866601615566834
 30
0.0
 10
21.011836423223333
 20
12.854136272982078
 30
0.0
 10
20.881683709748287
 20
12.83366002197306
 30
0.0
 10
20.75302966612654
 20
12.805249764317109
 30
0.0
 10
20.62635747282952
 20
12.769012199199892
 30
0.0
 10
20.5021428671784
 20
12.72508342248986
 30
0.0
 10
20.380852356637895
 20
12.67362841560883
 30
0.0
 10
19.045523026410585
 20
11.843267278222301
 30
0.0
 10
19.021043473366316
 20
11.885667107841552
 30
0.0
 10
18.227728226279897
 20
13.06180532889789
 30
0.0
 10
19.508320430198765
 20
13.979464724827253
 30
0.0
 10
19.602274526788328
 20
14.071831566357865
 30
0.0
 10
19.690394296119432
 20
14.169780083106899
 30
0.0
 10
19.772348790555395
 20
14.272942414032725
 30
0.0
 10
19.847830217117917
 20
14.380931116795512
 30
0.0
 10
19.916555093451976
 20
14.493340622857815
 30
0.0
 10
19.97826531248833
 20
14.609748760660926
 30
0.0
 10
20.032729111805175
 20
14.72971834115647
 30
0.0
 10
20.079741944048326
 20
14.85279879973857
 30
0.0
 10
20.11912724514092
 20
14.978527888410001
 30
0.0
 10
20.15073709739757
 20
15.106433411827153
 30
0.0
 10
20.174452785052456
 20
15.23603500070383
 30
0.0
 10
20.190185240115024
 20
15.36684591591356
 30
0.0
 10
20.197875376878844
 20
15.498374876514852
 30
0.0
 10
20.06883780307518
 20
15.524988974793137
 30
0.0
 10
19.93841230271718
 20
15.543648946300838
 30
0.0
 10
19.80708870926031
 20
15.55428471058361
 30
0.0
 10
19.675360229089765
 20
15.556856323357897
 30
0.0
 10
19.54372158920638
 20
15.551354126527938
 30
0.0
 10
19.41266717920169
 20
15.537798784458285
 30
0.0
 10
19.28268919450014
 20
15.516241206365526
 30
0.0
 10
19.15427578784184
 20
15.486762355120717
 30
0.0
 10
19.027909235948293
 20
15.44947294318062
 30
0.0
 10
18.904064128256376
 20
15.404513016789663
 30
0.0
 10
18.783205584523166
 20
15.352051430014276
 30
0.0
 10
18.66578750799564
 20
15.292285210584922
 30
0.0
 10
18.55225088070569
 20
15.225438819927492
 30
0.0
 10
17.332437839376553
 20
14.224364128132466
 30
0.0
 10
17.181766837442538
 20
14.417214216272054
 30
0.0
 10
16.36345182524258
 20
15.32604510989393
 30
0.0
 10
17.516737744748056
 20
16.40621524854891
 30
0.0
 10
17.597831758904416
 20
16.510055349417076
 30
0.0
 10
17.67241280446833
 20
16.618667840977196
 30
0.0
 10
17.74020078060706
 20
16.731644811954993
 30
0.0
 10
17.800941098927225
 20
16.848561959588125
 30
0.0
 10
17.85440563962153
 20
16.968980183161843
 30
0.0
 10
17.900393608208514
 20
17.092447233120712
 30
0.0
 10
17.93873228964777
 20
17.218499409562856
 30
0.0
 10
17.96927769699845
 20
17.346663303737788
 30
0.0
 10
17.991915112184785
 20
17.47645757600735
 30
0.0
 10
18.006559516837875
 20
17.60739476359231
 30
0.0
 10
18.013155911595515
 20
17.738983111315445
 30
0.0
 10
18.01167952266095
 20
17.870728418465326
 30
0.0
 10
18.00213589484475
 20
18.00213589484475
 30
0.0
 10
17.870728418465326
 20
18.01167952266095
 30
0.0
 10
17.738983111315445
 20
18.013155911595515
 30
0.0
 10
17.60739476359231
 20
18.006559516837875
 30
0.0
 10
17.47645757600735
 20
17.991915112184785
 30
0.0
 10
17.346663303737788
 20
17.96927769699845
 30
0.0
 10
17.218499409562856
 20
17.93873228964777
 30
0.0
 10
17.092447233120712
 20
17.900393608208514
 30
0.0
 10
16.968980183161843
 20
17.85440563962153
 30
0.0
 10
16.848561959588125
 20
17.800941098927225
 30
0.0
 10
16.731644811954993
 20
17.74020078060706
 30
0.0
 10
16.618667840977196
 20
17.67241280446833
 30
0.0
 10
16.510055349417076
 20
17.597831758904416
 30
0.0
 10
16.40621524854891
 20
17.516737744748056
 30
0.0
 10
15.324877888886494
 20
16.362205596056405
 30
0.0
 10
15.00806665399806
 20
16.66814664932093
 30
0.0
 10
14.221114381150349
 20
17.32847801122157
 30
0.0
 10
15.225438819927493
 20
18.55225088070569
 30
0.0
 10
15.292285210584922
 20
18.66578750799564
 30
0.0
 10
15.352051430014276
 20
18.78320558452317
 30
0.0
 10
15.404513016789663
 20
18.904064128256376
 30
0.0
 10
15.44947294318062
 20
19.027909235948293
 30
0.0
 10
15.486762355120717
 20
19.15427578784184
 30
0.0
 10
15.516241206365526
 20
19.28268919450014
 30
0.0
 10
15.537798784458285
 20
19.41266717920169
 30
0.0
 10
15.551354126527938
 20
19.54372158920638
 30
0.0
 10
15.556856323357897
 20
19.675360229089765
 30
0.0
 10
15.55428471058361
 20
19.80708870926031
 30
0.0
 10
15.543648946300838
 20
19.93841230271718
 30
0.0
 10
15.524988974793137
 20
20.06883780307518
 30
0.0
 10
15.498374876514852
 20
20.197875376878844
 30
0.0
 10
15.36684591591356
 20
20.190185240115024
 30
0.0
 10
15.23603500070383
 20
20.174452785052456
 30
0.0
 10
15.106433411827153
 20
20.15073709739757
 30
0.0
 10
14.978527888410001
 20
20.11912724514092
 30
0.0
 10
14.85279879973857
 20
20.079741944048326
 30
0.0
 10
14.72971834115647
 20
20.032729111805175
 30
0.0
 10
14.609748760660926
 20
19.97826531248833
 30
0.0
 10
14.493340622857815
 20
19.916555093451976
 30
0.0
 10
14.380931116795512
 20
19.847830217117917
 30
0.0
 10
14.272942414032725
 20
19.772348790555395
 30
0.0
 10
14.169780083106899
 20
19.690394296119436
 30
0.0
 10
14.071831566357865
 20
19.602274526788328
 30
0.0
 10
13.979464724827253
 20
19.508320430198765
 30
0.0
 10
13.056832006712805
 20
18.22078796320838
 30
0.0
 10
12.542251524556299
 20
18.594652567576585
 30
0.0
 10
11.83695441445299
 20
19.035371115670358
 30
0.0
 10
12.673628415608839
 20
20.380852356637895
 30
0.0
 10
12.725083422489865
 20
20.502142867178396
 30
0.0
 10
12.769012199199897
 20
20.626357472829515
 30
0.0
 10
12.805249764317114
 20
20.753029666126537
 30
0.0
 10
12.833660021973065
 20
20.881683709748284
 30
0.0
 10
12.854136272982084
 20
21.011836423223333
 30
0.0
 10
12.86660161556684
 20
21.14299899759021
 30
0.0
 10
12.871009234175041
 20
21.274678831196223
 30
0.0
 10
12.867342575302605
 20
21.406381379740342
 30
0.0
 10
12.85561540966293
 20
21.537612013612023
 30
0.0
 10
12.835871780468825
 20
21.6678778755504
 30
0.0
 10
12.808185838021307
 20
21.796689731647174
 30
0.0
 10
12.772661561226492
 20
21.923563808741385
 30
0.0
 10
12.729432367086481
 20
22.04802361130554
 30
0.0
 10
12.600032419245924
 20
22.02323129033384
 30
0.0
 10
12.472394107003224
 20
21.990559177942114
 30
0.0
 10
12.346996796091034
 20
21.950129979380993
 30
0.0
 10
12.22431143580947
 20
21.9020955328568
 30
0.0
 10
12.104798790302024
 20
21.846636239279302
 30
0.0
 10
11.988907708083445
 20
21.783960384737785
 30
0.0
 10
11.877073436318632
 20
21.714303358249886
 30
0.0
 10
11.769715986183526
 20
21.637926767721172
 30
0.0
 10
11.667238555447165
 20
21.555117457435568
 30
0.0
 10
11.570026014199119
 20
21.466186430766584
 30
0.0
 10
11.47844345940941
 20
21.371467682155266
 30
0.0
 10
11.392834843749492
 20
21.271316942741645
 30
0.0
 10
11.313521683823945
 20
21.166110344360526
 30
0.0
 10
10.56663774940857
 20
19.768788784189823
 30
0.0
 10
9.83231573578871
 20
20.159234724708153
 30
0.0
 10
9.251249249751776
 20
20.417942192363228
 30
0.0
 10
9.904968715305476
 20
21.86073179810822
 30
0.0
 10
9.940151928976348
 20
21.98770087763584
 30
0.0
 10
9.967491629418191
 20
22.116586666069065
 30
0.0
 10
9.986885138091132
 20
22.24690511258243
 30
0.0
 10
9.998259619626772
 20
22.37816678577799
 30
0.0
 10
10.001572355372858
 20
22.509878711821834
 30
0.0
 10
9.996810903829891
 20
22.641546225884746
 30
0.0
 10
9.983993147377126
 20
22.77267482993367
 30
0.0
 10
9.963167225112496
 20
22.902772049896782
 30
0.0
 10
9.934411352058667
 20
23.031349285227204
 30
0.0
 10
9.897833525414223
 20
23.15792364391913
 30
0.0
 10
9.853571118953232
 20
23.2820197560846
 30
0.0
 10
9.80179036709645
 20
23.403171559279805
 30
0.0
 10
9.742685740591847
 20
23.520924048875795
 30
0.0
 10
9.617628874496022
 20
23.479453747181772
 30
0.0
 10
9.495347092130848
 20
23.430401006362338
 30
0.0
 10
9.376299641939555
 20
23.37395005169145
 30
0.0
 10
9.260933625322803
 20
23.310312893597402
 30
0.0
 10
9.14968231747914
 20
23.23972853142434
 30
0.0
 10
9.042963540171923
 20
23.16246205583269
 30
0.0
 10
8.941178092534054
 20
23.07880365320952
 30
0.0
 10
8.844708245803872
 20
22.989067515827983
 30
0.0
 10
8.753916307645465
 20
22.8935906618489
 30
0.0
 10
8.66914326144532
 20
22.792731669596098
 30
0.0
 10
8.590707485695663
 20
22.686869330859164
 30
0.0
 10
8.518903558273994
 20
22.576401228281423
 30
0.0
 10
8.454001150109606
 20
22.461742242175816
 30
0.0
 10
7.896344976062756
 20
20.980085329811203
 30
0.0
 10
6.931005105317372
 20
21.331440308712907
 30
0.0
 10
6.5076467636855035
 20
21.452836359698345
 30
0.0
 10
6.966832254107097
 20
22.966568057573017
 30
0.0
 10
6.985141680027276
 20
23.097043229934563
 30
0.0
 10
6.995424514346372
 20
23.228394929575902
 30
0.0
 10
6.997642138264745
 20
23.360129844554656
 30
0.0
 10
6.991786223147397
 20
23.491753223703054
 30
0.0
 10
6.977878761803471
 20
23.62277073474364
 30
0.0
 10
6.955971985888803
 20
23.752690320831828
 30
0.0
 10
6.926148169741731
 20
23.881024048552675
 30
0.0
 10
6.8885193213888956
 20
24.00728994043145
 30
0.0
 10
6.843226761881498
 20
24.13101378507577
 30
0.0
 10
6.790440594541889
 20
24.251730918150976
 30
0.0
 10
6.730359066113828
 20
24.36898796750005
 30
0.0
 10
6.663207822215687
 20
24.48234455585395
 30
0.0
 10
6.5892390598928845
 20
24.591374954737635
 30
0.0
 10
6.4706650331930025
 20
24.533936240681015
 30
0.0
 10
6.355832055904538
 20
24.469342177429272
 30
0.0
 10
6.245171401313104
 20
24.397835358134202
 30
0.0
 10
6.139098672890983
 20
24.319684337888848
 30
0.0
 10
6.0380122434329975
 20
24.235182625126683
 30
0.0
 10
5.9422917589049025
 20
24.14464757930459
 30
0.0
 10
5.852296712623319
 20
24.048419219009514
 30
0.0
 10
5.768365095122107
 20
23.946858944965314
 30
0.0
 10
5.6908121247758245
 20
23.84034818273552
 30
0.0
 10
5.619929063947599
 20
23.729286950219738
 30
0.0
 10
5.5559821251075725
 20
23.614092355323567
 30
0.0
 10
5.499211471030147
 20
23.495197029444356
 30
0.0
 10
5.449830312824956
 20
23.373047502656004
 30
0.0
 10
5.09101849209312
 20
21.83418752920988
 30
0.0
 10
3.894790344372488
 20
22.08845367126228
 30
0.0
 10
3.6524417679545307
 20
22.122513542480995
 30
0.0
 10
3.909491361470133
 20
23.679439970037098
 30
0.0
 10
3.9106137202857907
 20
23.811188768858912
 30
0.0
 10
3.903663746336001
 20
23.942758915709934
 30
0.0
 10
3.888667541339723
 20
24.07365627823498
 30
0.0
 10
3.865681425900611
 20
24.203389250826078
 30
0.0
 10
3.8347917279861448
 20
24.331470600924586
 30
0.0
 10
3.7961144587093822
 20
24.457419298899577
 30
0.0
 10
3.7497948766310034
 20
24.580762324630207
 30
0.0
 10
3.6960069422179656
 20
24.701036444007073
 30
0.0
 10
3.6349526645076393
 20
24.817789948680698
 30
0.0
 10
3.566861342431139
 20
24.930584352523162
 30
0.0
 10
3.491988703645161
 20
25.03899603843168
 30
0.0
 10
3.410615944106599
 20
25.142617849289156
 30
0.0
 10
3.323048671996955
 20
25.241060617106697
 30
0.0
 10
3.2129863191647825
 20
25.168636283010006
 30
0.0
 10
3.10756697103215
 20
25.08960611965706
 30
0.0
 10
3.007186546521564
 20
25.004266937241376
 30
0.0
 10
2.9122220400862897
 20
24.912939240468667
 30
0.0
 10
2.8230301058484617
 20
24.815966024851065
 30
0.0
 10
2.739945718128497
 20
24.71371148853359
 30
0.0
 10
2.663280913396418
 20
24.606559664490813
 30
0.0
 10
2.593323618369863
 20
24.49491297823067
 30
0.0
 10
2.5303365686600756
 20
24.37919073642228
 30
0.0
 10
2.474556322027036
 20
24.259827552123856
 30
0.0
 10
2.426192369949635
 20
24.137271712525088
 30
0.0
 10
2.385426350847517
 20
24.011983495334214
 30
0.0
 10
2.3524113679094576
 20
23.884433440132725
 30
0.0
 10
2.197991120972583
 20
22.316578361686002
 30
0.0
 10
0.7827679196327466
 20
22.41554040834419
 30
0.0
 10
0.7338088135442096
 20
22.41554040834419
 30
0.0
 10
0.7852579877226291
 20
23.98715009943278
 30
0.0
 10
0.7691740755632529
 20
24.11791826623935
 30
0.0
 10
0.7451102093257552
 20
24.2474556586093
 30
0.0
 10
0.7131567646400455
 20
24.375275778516226
 30
0.0
 10
0.6734337476872883
 20
24.500898577420223
 30
0.0
 10
0.6260903444978401
 20
24.623852259165602
 30
0.0
 10
0.5713043606596739
 20
24.743675051885464
 30
0.0
 10
0.509281553541564
 20
24.85991694225848
 30
0.0
 10
0.44025485953896304
 20
24.97214136560462
 30
0.0
 10
0.36448351924477707
 20
25.079926845472393
 30
0.0
 10
0.2822521038305934
 20
25.18286857655985
 30
0.0
 10
0.19386944629494263
 20
25.280579945024524
 30
0.0
 10
0.09966748159245631
 20
25.37269398047241
 30
0.0
 10
1.558905860331517e-15
 20
25.458864734172955
 30
0.0
 10
-0.0996674815924532
 20
25.37269398047241
 30
0.0
 10
-0.19386944629493952
 20
25.280579945024524
 30
0.0
 10
-0.2822521038305903
 20
25.18286857655985
 30
0.0
 10
-0.36448351924477396
 20
25.079926845472393
 30
0.0
 10
-0.44025485953895993
 20
24.97214136560462
 30
0.0
 10
-0.5092815535415609
 20
24.85991694225848
 30
0.0
 10
-0.5713043606596708
 20
24.743675051885464
 30
0.0
 10
-0.6260903444978372
 20
24.623852259165602
 30
0.0
 10
-0.6734337476872851
 20
24.500898577420223
 30
0.0
 10
-0.7131567646400426
 20
24.375275778516226
 30
0.0
 10
-0.7451102093257528
 20
24.2474556586093
 30
0.0
 10
-0.76917407556325
 20
24.11791826623935
 30
0.0
 10
-0.7852579877226259
 20
23.98715009943278
 30
0.0
 10
-0.7338088135442065
 20
22.41554040834419
 30
0.0
 10
-0.7827679196327387
 20
22.41554040834419
 30
0.0
 10
-2.19799112097258
 20
22.316578361686005
 30
0.0
 10
-2.3524113679094554
 20
23.88443344013273
 30
0.0
 10
-2.3854263508475144
 20
24.011983495334214
 30
0.0
 10
-2.426192369949633
 20
24.137271712525088
 30
0.0
 10
-2.4745563220270332
 20
24.259827552123856
 30
0.0
 10
-2.530336568660073
 20
24.37919073642228
 30
0.0
 10
-2.5933236183698605
 20
24.49491297823067
 30
0.0
 10
-2.6632809133964153
 20
24.606559664490813
 30
0.0
 10
-2.7399457181284945
 20
24.71371148853359
 30
0.0
 10
-2.8230301058484586
 20
24.815966024851065
 30
0.0
 10
-2.912222040086287
 20
24.912939240468667
 30
0.0
 10
-3.007186546521561
 20
25.004266937241376
 30
0.0
 10
-3.107566971032147
 20
25.08960611965706
 30
0.0
 10
-3.2129863191647794
 20
25.168636283010006
 30
0.0
 10
-3.3230486719969523
 20
25.241060617106697
 30
0.0
 10
-3.410615944106596
 20
25.142617849289156
 30
0.0
 10
-3.491988703645158
 20
25.03899603843168
 30
0.0
 10
-3.5668613424311357
 20
24.930584352523162
 30
0.0
 10
-3.6349526645076367
 20
24.817789948680698
 30
0.0
 10
-3.6960069422179624
 20
24.701036444007073
 30
0.0
 10
-3.7497948766310008
 20
24.580762324630207
 30
0.0
 10
-3.7961144587093796
 20
24.457419298899577
 30
0.0
 10
-3.834791727986142
 20
24.331470600924586
 30
0.0
 10
-3.8656814259006085
 20
24.203389250826078
 30
0.0
 10
-3.8886675413397205
 20
24.07365627823498
 30
0.0
 10
-3.903663746335999
 20
23.942758915709934
 30
0.0
 10
-3.910613720285788
 20
23.811188768858912
 30
0.0
 10
-3.90949136147013
 20
23.679439970037098
 30
0.0
 10
-3.652441767954528
 20
22.122513542480995
 30
0.0
 10
-3.894790344372485
 20
22.08845367126228
 30
0.0
 10
-5.091018492093123
 20
21.83418752920988
 30
0.0
 10
-5.449830312824959
 20
23.373047502656007
 30
0.0
 10
-5.499211471030151
 20
23.495197029444356
 30
0.0
 10
-5.555982125107575
 20
23.614092355323567
 30
0.0
 10
-5.619929063947602
 20
23.729286950219738
 30
0.0
 10
-5.690812124775827
 20
23.84034818273552
 30
0.0
 10
-5.76836509512211
 20
23.946858944965314
 30
0.0
 10
-5.852296712623322
 20
24.048419219009514
 30
0.0
 10
-5.942291758904905
 20
24.14464757930459
 30
0.0
 10
-6.038012243433
 20
24.235182625126683
 30
0.0
 10
-6.139098672890985
 20
24.319684337888848
 30
0.0
 10
-6.245171401313106
 20
24.397835358134202
 30
0.0
 10
-6.355832055904542
 20
24.469342177429272
 30
0.0
 10
-6.470665033193005
 20
24.533936240681015
 30
0.0
 10
-6.589239059892888
 20
24.591374954737635
 30
0.0
 10
-6.66320782221569
 20
24.48234455585395
 30
0.0
 10
-6.730359066113832
 20
24.36898796750005
 30
0.0
 10
-6.7904405945418915
 20
24.251730918150976
 30
0.0
 10
-6.843226761881501
 20
24.13101378507577
 30
0.0
 10
-6.888519321388898
 20
24.00728994043145
 30
0.0
 10
-6.926148169741734
 20
23.881024048552675
 30
0.0
 10
-6.955971985888806
 20
23.752690320831828
 30
0.0
 10
-6.977878761803474
 20
23.62277073474364
 30
0.0
 10
-6.9917862231473995
 20
23.491753223703054
 30
0.0
 10
-6.997642138264748
 20
23.360129844554656
 30
0.0
 10
-6.995424514346374
 20
23.228394929575902
 30
0.0
 10
-6.985141680027278
 20
23.097043229934563
 30
0.0
 10
-6.9668322541071
 20
22.966568057573017
 30
0.0
 10
-6.507646763685505
 20
21.452836359698345
 30
0.0
 10
-6.931005105317369
 20
21.331440308712907
 30
0.0
 10
-7.896344976062753
 20
20.980085329811203
 30
0.0
 10
-8.454001150109605
 20
22.461742242175816
 30
0.0
 10
-8.51890355827399
 20
22.576401228281423
 30
0.0
 10
-8.59070748569566
 20
22.686869330859164
 30
0.0
 10
-8.669143261445319
 20
22.792731669596098
 30
0.0
 10
-8.753916307645461
 20
22.8935906618489
 30
0.0
 10
-8.844708245803869
 20
22.989067515827983
 30
0.0
 10
-8.94117809253405
 20
23.07880365320952
 30
0.0
 10
-9.04296354017192
 20
23.16246205583269
 30
0.0
 10
-9.149682317479137
 20
23.23972853142434
 30
0.0
 10
-9.260933625322801
 20
23.310312893597402
 30
0.0
 10
-9.376299641939552
 20
23.37395005169145
 30
0.0
 10
-9.495347092130844
 20
23.430401006362338
 30
0.0
 10
-9.617628874496019
 20
23.479453747181772
 30
0.0
 10
-9.742685740591844
 20
23.520924048875795
 30
0.0
 10
-9.801790367096446
 20
23.403171559279805
 30
0.0
 10
-9.853571118953228
 20
23.2820197560846
 30
0.0
 10
-9.89783352541422
 20
23.15792364391913
 30
0.0
 10
-9.934411352058666
 20
23.031349285227204
 30
0.0
 10
-9.963167225112493
 20
22.902772049896782
 30
0.0
 10
-9.983993147377122
 20
22.77267482993367
 30
0.0
 10
-9.996810903829887
 20
22.641546225884746
 30
0.0
 10
-10.001572355372854
 20
22.509878711821834
 30
0.0
 10
-9.998259619626769
 20
22.37816678577799
 30
0.0
 10
-9.98688513809113
 20
22.24690511258243
 30
0.0
 10
-9.967491629418188
 20
22.116586666069065
 30
0.0
 10
-9.940151928976345
 20
21.98770087763584
 30
0.0
 10
-9.904968715305474
 20
21.860731798108223
 30
0.0
 10
-9.251249249751773
 20
20.417942192363228
 30
0.0
 10
-9.83231573578871
 20
20.159234724708153
 30
0.0
 10
-10.566637749408565
 20
19.768788784189823
 30
0.0
 10
-11.31352168382394
 20
21.166110344360526
 30
0.0
 10
-11.392834843749483
 20
21.27131694274165
 30
0.0
 10
-11.478443459409402
 20
21.37146768215527
 30
0.0
 10
-11.57002601419911
 20
21.466186430766587
 30
0.0
 10
-11.667238555447156
 20
21.55511745743557
 30
0.0
 10
-11.769715986183517
 20
21.637926767721172
 30
0.0
 10
-11.877073436318623
 20
21.71430335824989
 30
0.0
 10
-11.988907708083437
 20
21.78396038473779
 30
0.0
 10
-12.104798790302015
 20
21.846636239279306
 30
0.0
 10
-12.224311435809462
 20
21.9020955328568
 30
0.0
 10
-12.346996796091025
 20
21.950129979380996
 30
0.0
 10
-12.472394107003215
 20
21.990559177942117
 30
0.0
 10
-12.600032419245915
 20
22.023231290333843
 30
0.0
 10
-12.729432367086472
 20
22.048023611305542
 30
0.0
 10
-12.772661561226483
 20
21.923563808741388
 30
0.0
 10
-12.808185838021299
 20
21.796689731647177
 30
0.0
 10
-12.835871780468816
 20
21.667877875550403
 30
0.0
 10
-12.85561540966292
 20
21.537612013612023
 30
0.0
 10
-12.867342575302596
 20
21.406381379740345
 30
0.0
 10
-12.871009234175032
 20
21.274678831196226
 30
0.0
 10
-12.86660161556683
 20
21.142998997590215
 30
0.0
 10
-12.854136272982075
 20
21.011836423223333
 30
0.0
 10
-12.833660021973056
 20
20.881683709748287
 30
0.0
 10
-12.805249764317105
 20
20.75302966612654
 30
0.0
 10
-12.769012199199889
 20
20.62635747282952
 30
0.0
 10
-12.725083422489856
 20
20.5021428671784
 30
0.0
 10
-12.673628415608825
 20
20.38085235663789
 30
0.0
 10
-11.836954414452983
 20
19.03537111567036
 30
0.0
 10
-12.542251524556297
 20
18.594652567576585
 30
0.0
 10
-13.056832006712803
 20
18.22078796320838
 30
0.0
 10
-13.979464724827253
 20
19.508320430198765
 30
0.0
 10
-14.071831566357865
 20
19.602274526788328
 30
0.0
 10
-14.169780083106899
 20
19.690394296119432
 30
0.0
 10
-14.272942414032725
 20
19.772348790555395
 30
0.0
 10
-14.380931116795512
 20
19.847830217117917
 30
0.0
 10
-14.493340622857815
 20
19.916555093451976
 30
0.0
 10
-14.609748760660926
 20
19.97826531248833
 30
0.0
 10
-14.72971834115647
 20
20.032729111805175
 30
0.0
 10
-14.85279879973857
 20
20.079741944048326
 30
0.0
 10
-14.978527888410001
 20
20.11912724514092
 30
0.0
 10
-15.106433411827153
 20
20.15073709739757
 30
0.0
 10
-15.23603500070383
 20
20.174452785052456
 30
0.0
 10
-15.36684591591356
 20
20.190185240115024
 30
0.0
 10
-15.498374876514852
 20
20.197875376878844
 30
0.0
 10
-15.524988974793137
 20
20.06883780307518
 30
0.0
 10
-15.543648946300838
 20
19.93841230271718
 30
0.0
 10
-15.55428471058361
 20
19.80708870926031
 30
0.0
 10
-15.556856323357897
 20
19.675360229089765
 30
0.0
 10
-15.551354126527938
 20
19.54372158920638
 30
0.0
 10
-15.537798784458285
 20
19.41266717920169
 30
0.0
 10
-15.516241206365526
 20
19.28268919450014
 30
0.0
 10
-15.486762355120717
 20
19.15427578784184
 30
0.0
 10
-15.44947294318062
 20
19.027909235948293
 30
0.0
 10
-15.404513016789663
 20
18.904064128256376
 30
0.0
 10
-15.352051430014276
 20
18.783205584523166
 30
0.0
 10
-15.292285210584922
 20
18.66578750799564
 30
0.0
 10
-15.225438819927492
 20
18.55225088070569
 30
0.0
 10
-14.221114381150347
 20
17.328478011221573
 30
0.0
 10
-15.00806665399806
 20
16.668146649320935
 30
0.0
 10
-15.32487788888649
 20
16.36220559605641
 30
0.0
 10
-16.40621524854891
 20
17.51673774474806
 30
0.0
 10
-16.510055349417073
 20
17.597831758904416
 30
0.0
 10
-16.618667840977192
 20
17.67241280446833
 30
0.0
 10
-16.73164481195499
 20
17.74020078060706
 30
0.0
 10
-16.848561959588125
 20
17.800941098927225
 30
0.0
 10
-16.96898018316184
 20
17.85440563962153
 30
0.0
 10
-17.09244723312071
 20
17.900393608208514
 30
0.0
 10
-17.218499409562853
 20
17.93873228964777
 30
0.0
 10
-17.346663303737785
 20
17.96927769699845
 30
0.0
 10
-17.47645757600735
 20
17.991915112184785
 30
0.0
 10
-17.607394763592307
 20
18.006559516837875
 30
0.0
 10
-17.73898311131544
 20
18.013155911595515
 30
0.0
 10
-17.870728418465323
 20
18.01167952266095
 30
0.0
 10
-18.002135894844745
 20
18.00213589484475
 30
0.0
 10
-18.011679522660945
 20
17.870728418465326
 30
0.0
 10
-18.01315591159551
 20
17.738983111315445
 30
0.0
 10
-18.00655951683787
 20
17.60739476359231
 30
0.0
 10
-17.991915112184785
 20
17.47645757600735
 30
0.0
 10
-17.969277696998446
 20
17.346663303737788
 30
0.0
 10
-17.938732289647767
 20
17.218499409562856
 30
0.0
 10
-17.90039360820851
 20
17.092447233120712
 30
0.0
 10
-17.854405639621525
 20
16.968980183161843
 30
0.0
 10
-17.800941098927225
 20
16.848561959588125
 30
0.0
 10
-17.740200780607058
 20
16.731644811954993
 30
0.0
 10
-17.67241280446833
 20
16.618667840977196
 30
0.0
 10
-17.597831758904412
 20
16.510055349417076
 30
0.0
 10
-17.516737744748056
 20
16.40621524854891
 30
0.0
 10
-16.36345182524258
 20
15.326045109893931
 30
0.0
 10
-17.181766837442535
 20
14.417214216272058
 30
0.0
 10
-17.332437839376553
 20
14.224364128132462
 30
0.0
 10
-18.552250880705692
 20
15.22543881992749
 30
0.0
 10
-18.665787507995642
 20
15.292285210584916
 30
0.0
 10
-18.783205584523174
 20
15.35205143001427
 30
0.0
 10
-18.90406412825638
 20
15.404513016789657
 30
0.0
 10
-19.027909235948297
 20
15.449472943180615
 30
0.0
 10
-19.154275787841843
 20
15.486762355120712
 30
0.0
 10
-19.282689194500144
 20
15.516241206365521
 30
0.0
 10
-19.412667179201694
 20
15.53779878445828
 30
0.0
 10
-19.543721589206385
 20
15.551354126527933
 30
0.0
 10
-19.67536022908977
 20
15.556856323357891
 30
0.0
 10
-19.807088709260313
 20
15.554284710583605
 30
0.0
 10
-19.938412302717182
 20
15.543648946300832
 30
0.0
 10
-20.068837803075184
 20
15.524988974793132
 30
0.0
 10
-20.197875376878844
 20
15.498374876514847
 30
0.0
 10
-20.190185240115028
 20
15.366845915913554
 30
0.0
 10
-20.17445278505246
 20
15.236035000703824
 30
0.0
 10
-20.150737097397574
 20
15.106433411827147
 30
0.0
 10
-20.119127245140923
 20
14.978527888409996
 30
0.0
 10
-20.07974194404833
 20
14.852798799738565
 30
0.0
 10
-20.03272911180518
 20
14.729718341156465
 30
0.0
 10
-19.978265312488332
 20
14.60974876066092
 30
0.0
 10
-19.91655509345198
 20
14.49334062285781
 30
0.0
 10
-19.84783021711792
 20
14.380931116795507
 30
0.0
 10
-19.772348790555398
 20
14.27294241403272
 30
0.0
 10
-19.690394296119436
 20
14.169780083106893
 30
0.0
 10
-19.60227452678833
 20
14.07183156635786
 30
0.0
 10
-19.50832043019877
 20
13.979464724827244
 30
0.0
 10
-18.2277282262799
 20
13.061805328897885
 30
0.0
 10
-19.0210434733663
 20
11.885667107841543
 30
0.0
 10
-19.045523026410528
 20
11.843267278222276
 30
0.0
 10
-20.380852356637895
 20
12.673628415608832
 30
0.0
 10
-20.5021428671784
 20
12.72508342248986
 30
0.0
 10
-20.62635747282952
 20
12.769012199199892
 30
0.0
 10
-20.75302966612654
 20
12.805249764317109
 30
0.0
 10
-20.881683709748287
 20
12.83366002197306
 30
0.0
 10
-21.011836423223333
 20
12.854136272982078
 30
0.0
 10
-21.142998997590215
 20
12.866601615566834
 30
0.0
 10
-21.274678831196226
 20
12.871009234175036
 30
0.0
 10
-21.406381379740345
 20
12.8673425753026
 30
0.0
 10
-21.537612013612023
 20
12.855615409662924
 30
0.0
 10
-21.667877875550403
 20
12.83587178046882
 30
0.0
 10
-21.796689731647177
 20
12.808185838021302
 30
0.0
 10
-21.923563808741388
 20
12.772661561226487
 30
0.0
 10
-22.048023611305542
 20
12.729432367086476
 30
0.0
 10
-22.023231290333843
 20
12.600032419245919
 30
0.0
 10
-21.990559177942117
 20
12.472394107003218
 30
0.0
 10
-21.950129979380996
 20
12.346996796091029
 30
0.0
 10
-21.9020955328568
 20
12.224311435809465
 30
0.0
 10
-21.846636239279306
 20
12.104798790302018
 30
0.0
 10
-21.78396038473779
 20
11.98890770808344
 30
0.0
 10
-21.71430335824989
 20
11.877073436318627
 30
0.0
 10
-21.637926767721172
 20
11.76971598618352
 30
0.0
 10
-21.55511745743557
 20
11.66723855544716
 30
0.0
 10
-21.466186430766587
 20
11.570026014199113
 30
0.0
 10
-21.37146768215527
 20
11.478443459409405
 30
0.0
 10
-21.27131694274165
 20
11.392834843749487
 30
0.0
 10
-21.166110344360522
 20
11.313521683823941
 30
0.0
 10
-19.779331839954786
 20
10.572273130121893
 30
0.0
 10
-19.80381139299905
 20
10.52987330050265
 30
0.0
 10
-20.42571934725248
 20
9.254773032788105
 30
0.0
 10
-21.860731798108226
 20
9.90496871530547
 30
0.0
 10
-21.987700877635845
 20
9.94015192897634
 30
0.0
 10
-22.116586666069068
 20
9.967491629418182
 30
0.0
 10
-22.24690511258243
 20
9.986885138091123
 30
0.0
 10
-22.378166785777992
 20
9.998259619626761
 30
0.0
 10
-22.509878711821838
 20
10.001572355372847
 30
0.0
 10
-22.64154622588475
 20
9.99681090382988
 30
0.0
 10
-22.772674829933674
 20
9.983993147377115
 30
0.0
 10
-22.902772049896786
 20
9.963167225112487
 30
0.0
 10
-23.031349285227208
 20
9.934411352058659
 30
0.0
 10
-23.157923643919133
 20
9.897833525414212
 30
0.0
 10
-23.2820197560846
 20
9.853571118953221
 30
0.0
 10
-23.40317155927981
 20
9.801790367096439
 30
0.0
 10
-23.5209240488758
 20
9.742685740591837
 30
0.0
 10
-23.479453747181775
 20
9.617628874496011
 30
0.0
 10
-23.430401006362338
 20
9.495347092130837
 30
0.0
 10
-23.373950051691452
 20
9.376299641939545
 30
0.0
 10
-23.310312893597406
 20
9.260933625322794
 30
0.0
 10
-23.239728531424344
 20
9.149682317479131
 30
0.0
 10
-23.162462055832695
 20
9.042963540171913
 30
0.0
 10
-23.078803653209523
 20
8.941178092534043
 30
0.0
 10
-22.989067515827987
 20
8.84470824580386
 30
0.0
 10
-22.893590661848904
 20
8.753916307645454
 30
0.0
 10
-22.792731669596098
 20
8.669143261445312
 30
0.0
 10
-22.686869330859167
 20
8.590707485695653
 30
0.0
 10
-22.576401228281426
 20
8.518903558273985
 30
0.0
 10
-22.461742242175823
 20
8.454001150109598
 30
0.0
 10
-20.98487960733108
 20
7.898149414348523
 30
0.0
 10
-21.076557181815023
 20
7.671239454990228
 30
0.0
 10
-21.4544703173357
 20
6.508142419315957
 30
0.0
 10
-22.966568057573014
 20
6.9668322541071035
 30
0.0
 10
-23.09704322993456
 20
6.985141680027281
 30
0.0
 10
-23.2283949295759
 20
6.995424514346379
 30
0.0
 10
-23.360129844554656
 20
6.9976421382647525
 30
0.0
 10
-23.49175322370305
 20
6.991786223147404
 30
0.0
 10
-23.622770734743632
 20
6.977878761803478
 30
0.0
 10
-23.752690320831828
 20
6.9559719858888105
 30
0.0
 10
-23.88102404855267
 20
6.926148169741738
 30
0.0
 10
-24.007289940431445
 20
6.888519321388902
 30
0.0
 10
-24.131013785075766
 20
6.843226761881504
 30
0.0
 10
-24.251730918150972
 20
6.790440594541896
 30
0.0
 10
-24.368987967500047
 20
6.730359066113835
 30
0.0
 10
-24.482344555853945
 20
6.6632078222156945
 30
0.0
 10
-24.59137495473763
 20
6.589239059892892
 30
0.0
 10
-24.53393624068101
 20
6.47066503319301
 30
0.0
 10
-24.46934217742927
 20
6.355832055904545
 30
0.0
 10
-24.3978353581342
 20
6.245171401313111
 30
0.0
 10
-24.319684337888845
 20
6.139098672890989
 30
0.0
 10
-24.23518262512668
 20
6.038012243433004
 30
0.0
 10
-24.144647579304586
 20
5.94229175890491
 30
0.0
 10
-24.048419219009514
 20
5.8522967126233265
 30
0.0
 10
-23.946858944965314
 20
5.768365095122114
 30
0.0
 10
-23.840348182735518
 20
5.690812124775832
 30
0.0
 10
-23.729286950219738
 20
5.619929063947606
 30
0.0
 10
-23.614092355323564
 20
5.55598212510758
 30
0.0
 10
-23.495197029444352
 20
5.499211471030154
 30
0.0
 10
-23.373047502656004
 20
5.449830312824964
 30
0.0
 10
-21.832524652571998
 20
5.090630763641945
 30
0.0
 10
-21.939071759315432
 20
4.663293659391971
 30
0.0
 10
-22.117459357213104
 20
3.6516073185896323
 30
0.0
 10
-23.679439970037098
 20
3.9094913614701303
 30
0.0
 10
-23.811188768858912
 20
3.910613720285787
 30
0.0
 10
-23.942758915709934
 20
3.9036637463359973
 30
0.0
 10
-24.07365627823498
 20
3.8886675413397196
 30
0.0
 10
-24.203389250826078
 20
3.8656814259006076
 30
0.0
 10
-24.331470600924586
 20
3.834791727986141
 30
0.0
 10
-24.457419298899577
 20
3.7961144587093787
 30
0.0
 10
-24.580762324630207
 20
3.7497948766310003
 30
0.0
 10
-24.701036444007073
 20
3.696006942217962
 30
0.0
 10
-24.817789948680698
 20
3.6349526645076367
 30
0.0
 10
-24.930584352523162
 20
3.5668613424311353
 30
0.0
 10
-25.03899603843168
 20
3.4919887036451573
 30
0.0
 10
-25.142617849289156
 20
3.4106159441065955
 30
0.0
 10
-25.241060617106697
 20
3.3230486719969514
 30
0.0
 10
-25.168636283010006
 20
3.212986319164779
 30
0.0
 10
-25.08960611965706
 20
3.1075669710321465
 30
0.0
 10
-25.004266937241376
 20
3.0071865465215604
 30
0.0
 10
-24.912939240468667
 20
2.912222040086286
 30
0.0
 10
-24.815966024851065
 20
2.823030105848458
 30
0.0
 10
-24.71371148853359
 20
2.739945718128494
 30
0.0
 10
-24.606559664490813
 20
2.6632809133964144
 30
0.0
 10
-24.49491297823067
 20
2.5933236183698596
 30
0.0
 10
-24.37919073642228
 20
2.530336568660073
 30
0.0
 10
-24.259827552123856
 20
2.4745563220270324
 30
0.0
 10
-24.137271712525088
 20
2.4261923699496313
 30
0.0
 10
-24.011983495334214
 20
2.3854263508475135
 30
0.0
 10
-23.88443344013273
 20
2.3524113679094554
 30
0.0
 10
-22.308081256464575
 20
2.1971542291548483
 30
0.0
 10
-22.374567260345007
 20
1.5645821571315754
 30
0.0
 10
-22.403592163861557
 20
0.7334176685194639
 30
0.0
 10
-23.98715009943278
 20
0.7852579877226304
 30
0.0
 10
-24.11791826623935
 20
0.7691740755632545
 30
0.0
 10
-24.2474556586093
 20
0.7451102093257568
 30
0.0
 10
-24.375275778516226
 20
0.7131567646400471
 30
0.0
 10
-24.500898577420223
 20
0.6734337476872897
 30
0.0
 10
-24.623852259165602
 20
0.6260903444978415
 30
0.0
 10
-24.743675051885464
 20
0.5713043606596754
 30
0.0
 10
-24.85991694225848
 20
0.5092815535415655
 30
0.0
 10
-24.97214136560462
 20
0.44025485953896454
 30
0.0
 10
-25.079926845472393
 20
0.36448351924477856
 30
0.0
 10
-25.18286857655985
 20
0.28225210383059496
 30
0.0
 10
-25.280579945024524
 20
0.19386944629494418
 30
0.0
 10
-25.37269398047241
 20
0.09966748159245786
 30
0.0
 10
-25.458864734172955
 20
3.117811720663034e-15
 30
0.0
 10
-25.37269398047241
 20
-0.09966748159245165
 30
0.0
 10
-25.280579945024524
 20
-0.19386944629493796
 30
0.0
 10
-25.18286857655985
 20
-0.28225210383058874
 30
0.0
 10
-25.079926845472393
 20
-0.36448351924477246
 30
0.0
 10
-24.97214136560462
 20
-0.44025485953895843
 30
0.0
 10
-24.85991694225848
 20
-0.5092815535415595
 30
0.0
 10
-24.743675051885464
 20
-0.5713043606596694
 30
0.0
 10
-24.623852259165602
 20
-0.6260903444978357
 30
0.0
 10
-24.500898577420223
 20
-0.6734337476872837
 30
0.0
 10
-24.375275778516226
 20
-0.7131567646400411
 30
0.0
 10
-24.2474556586093
 20
-0.7451102093257512
 30
0.0
 10
-24.11791826623935
 20
-0.7691740755632485
 30
0.0
 10
-23.98715009943278
 20
-0.7852579877226245
 30
0.0
 10
-22.40359216386156
 20
-0.7334176685194584
 30
0.0
 10
-22.37456726034501
 20
-1.56458215713156
 30
0.0
 10
-22.30808125646458
 20
-2.197154229154852
 30
0.0
 10
-23.884433440132725
 20
-2.352411367909459
 30
0.0
 10
-24.011983495334214
 20
-2.385426350847519
 30
0.0
 10
-24.137271712525088
 20
-2.4261923699496366
 30
0.0
 10
-24.259827552123856
 20
-2.4745563220270372
 30
0.0
 10
-24.37919073642228
 20
-2.5303365686600774
 30
0.0
 10
-24.49491297823067
 20
-2.5933236183698645
 30
0.0
 10
-24.606559664490813
 20
-2.6632809133964193
 30
0.0
 10
-24.71371148853359
 20
-2.739945718128499
 30
0.0
 10
-24.815966024851065
 20
-2.823030105848463
 30
0.0
 10
-24.912939240468667
 20
-2.9122220400862915
 30
0.0
 10
-25.004266937241376
 20
-3.0071865465215653
 30
0.0
 10
-25.08960611965706
 20
-3.1075669710321514
 30
0.0
 10
-25.168636283010006
 20
-3.212986319164784
 30
0.0
 10
-25.241060617106697
 20
-3.3230486719969563
 30
0.0
 10
-25.142617849289156
 20
-3.4106159441066004
 30
0.0
 10
-25.03899603843168
 20
-3.4919887036451622
 30
0.0
 10
-24.930584352523162
 20
-3.56686134243114
 30
0.0
 10
-24.817789948680698
 20
-3.634952664507641
 30
0.0
 10
-24.701036444007073
 20
-3.696006942217967
 30
0.0
 10
-24.580762324630207
 20
-3.749794876631005
 30
0.0
 10
-24.457419298899577
 20
-3.7961144587093836
 30
0.0
 10
-24.331470600924586
 20
-3.834791727986146
 30
0.0
 10
-24.203389250826078
 20
-3.865681425900613
 30
0.0
 10
-24.07365627823498
 20
-3.8886675413397245
 30
0.0
 10
-23.942758915709934
 20
-3.9036637463360027
 30
0.0
 10
-23.811188768858912
 20
-3.9106137202857916
 30
0.0
 10
-23.679439970037098
 20
-3.9094913614701343
 30
0.0
 10
-22.1174593572131
 20
-3.651607318589636
 30
0.0
 10
-21.939071759315432
 20
-4.663293659391965
 30
0.0
 10
-21.832524652571998
 20
-5.090630763641938
 30
0.0
 10
-23.373047502656004
 20
-5.449830312824957
 30
0.0
 10
-23.495197029444356
 20
-5.499211471030149
 30
0.0
 10
-23.614092355323567
 20
-5.555982125107574
 30
0.0
 10
-23.729286950219738
 20
-5.619929063947601
 30
0.0
 10
-23.84034818273552
 20
-5.690812124775826
 30
0.0
 10
-23.946858944965314
 20
-5.768365095122109
 30
0.0
 10
-24.048419219009514
 20
-5.85229671262332
 30
0.0
 10
-24.14464757930459
 20
-5.942291758904904
 30
0.0
 10
-24.235182625126683
 20
-6.038012243432998
 30
0.0
 10
-24.319684337888848
 20
-6.1390986728909835
 30
0.0
 10
-24.397835358134202
 20
-6.245171401313105
 30
0.0
 10
-24.469342177429272
 20
-6.35583205590454
 30
0.0
 10
-24.533936240681015
 20
-6.470665033193004
 30
0.0
 10
-24.591374954737635
 20
-6.589239059892886
 30
0.0
 10
-24.48234455585395
 20
-6.663207822215689
 30
0.0
 10
-24.36898796750005
 20
-6.73035906611383
 30
0.0
 10
-24.251730918150976
 20
-6.790440594541891
 30
0.0
 10
-24.13101378507577
 20
-6.843226761881499
 30
0.0
 10
-24.00728994043145
 20
-6.888519321388896
 30
0.0
 10
-23.881024048552675
 20
-6.926148169741733
 30
0.0
 10
-23.752690320831828
 20
-6.955971985888804
 30
0.0
 10
-23.62277073474364
 20
-6.977878761803472
 30
0.0
 10
-23.491753223703054
 20
-6.991786223147399
 30
0.0
 10
-23.360129844554656
 20
-6.997642138264747
 30
0.0
 10
-23.228394929575902
 20
-6.995424514346373
 30
0.0
 10
-23.097043229934563
 20
-6.985141680027276
 30
0.0
 10
-22.966568057573017
 20
-6.966832254107099
 30
0.0
 10
-21.4544703173357
 20
-6.508142419315954
 30
0.0
 10
-21.076557181815026
 20
-7.671239454990223
 30
0.0
 10
-20.984879607331084
 20
-7.8981494143485245
 30
0.0
 10
-22.461742242175823
 20
-8.454001150109601
 30
0.0
 10
-22.576401228281426
 20
-8.518903558273989
 30
0.0
 10
-22.686869330859167
 20
-8.590707485695658
 30
0.0
 10
-22.792731669596098
 20
-8.669143261445315
 30
0.0
 10
-22.893590661848904
 20
-8.753916307645458
 30
0.0
 10
-22.989067515827987
 20
-8.844708245803867
 30
0.0
 10
-23.078803653209523
 20
-8.941178092534049
 30
0.0
 10
-23.162462055832695
 20
-9.042963540171916
 30
0.0
 10
-23.239728531424344
 20
-9.149682317479135
 30
0.0
 10
-23.310312893597406
 20
-9.260933625322798
 30
0.0
 10
-23.373950051691452
 20
-9.376299641939548
 30
0.0
 10
-23.430401006362338
 20
-9.49534709213084
 30
0.0
 10
-23.479453747181775
 20
-9.617628874496015
 30
0.0
 10
-23.5209240488758
 20
-9.742685740591842
 30
0.0
 10
-23.40317155927981
 20
-9.801790367096443
 30
0.0
 10
-23.2820197560846
 20
-9.853571118953225
 30
0.0
 10
-23.157923643919133
 20
-9.897833525414216
 30
0.0
 10
-23.031349285227208
 20
-9.934411352058662
 30
0.0
 10
-22.902772049896786
 20
-9.96316722511249
 30
0.0
 10
-22.772674829933674
 20
-9.983993147377118
 30
0.0
 10
-22.64154622588475
 20
-9.996810903829886
 30
0.0
 10
-22.509878711821838
 20
-10.001572355372854
 30
0.0
 10
-22.378166785777992
 20
-9.998259619626765
 30
0.0
 10
-22.24690511258243
 20
-9.986885138091127
 30
0.0
 10
-22.116586666069068
 20
-9.967491629418188
 30
0.0
 10
-21.987700877635845
 20
-9.940151928976343
 30
0.0
 10
-21.860731798108226
 20
-9.90496871530547
 30
0.0
 10
-20.42571934725248
 20
-9.254773032788107
 30
0.0
 10
-19.803811392999044
 20
-10.529873300502643
 30
0.0
 10
-19.779331839954786
 20
-10.572273130121896
 30
0.0
 10
-21.166110344360526
 20
-11.313521683823947
 30
0.0
 10
-21.271316942741645
 20
-11.392834843749492
 30
0.0
 10
-21.371467682155266
 20
-11.47844345940941
 30
0.0
 10
-21.466186430766584
 20
-11.570026014199119
 30
0.0
 10
-21.555117457435568
 20
-11.667238555447165
 30
0.0
 10
-21.637926767721172
 20
-11.769715986183526
 30
0.0
 10
-21.714303358249886
 20
-11.877073436318632
 30
0.0
 10
-21.783960384737785
 20
-11.988907708083445
 30
0.0
 10
-21.846636239279302
 20
-12.104798790302024
 30
0.0
 10
-21.9020955328568
 20
-12.22431143580947
 30
0.0
 10
-21.950129979380993
 20
-12.346996796091034
 30
0.0
 10
-21.990559177942114
 20
-12.472394107003224
 30
0.0
 10
-22.02323129033384
 20
-12.600032419245924
 30
0.0
 10
-22.04802361130554
 20
-12.729432367086481
 30
0.0
 10
-21.923563808741385
 20
-12.772661561226492
 30
0.0
 10
-21.796689731647174
 20
-12.808185838021307
 30
0.0
 10
-21.6678778755504
 20
-12.835871780468825
 30
0.0
 10
-21.537612013612023
 20
-12.85561540966293
 30
0.0
 10
-21.406381379740342
 20
-12.867342575302605
 30
0.0
 10
-21.274678831196223
 20
-12.871009234175041
 30
0.0
 10
-21.14299899759021
 20
-12.86660161556684
 30
0.0
 10
-21.011836423223333
 20
-12.854136272982084
 30
0.0
 10
-20.881683709748284
 20
-12.833660021973065
 30
0.0
 10
-20.753029666126537
 20
-12.805249764317114
 30
0.0
 10
-20.626357472829515
 20
-12.769012199199897
 30
0.0
 10
-20.502142867178396
 20
-12.725083422489865
 30
0.0
 10
-20.380852356637895
 20
-12.673628415608837
 30
0.0
 10
-19.045523026410574
 20
-11.843267278222303
 30
0.0
 10
-19.02104347336631
 20
-11.885667107841549
 30
0.0
 10
-18.227728226279897
 20
-13.06180532889789
 30
0.0
 10
-19.508320430198765
 20
-13.979464724827253
 30
0.0
 10
-19.602274526788328
 20
-14.071831566357865
 30
0.0
 10
-19.690394296119432
 20
-14.169780083106899
 30
0.0
 10
-19.772348790555395
 20
-14.272942414032725
 30
0.0
 10
-19.847830217117917
 20
-14.380931116795512
 30
0.0
 10
-19.916555093451976
 20
-14.493340622857815
 30
0.0
 10
-19.97826531248833
 20
-14.609748760660926
 30
0.0
 10
-20.032729111805175
 20
-14.72971834115647
 30
0.0
 10
-20.079741944048326
 20
-14.85279879973857
 30
0.0
 10
-20.11912724514092
 20
-14.978527888410001
 30
0.0
 10
-20.15073709739757
 20
-15.106433411827153
 30
0.0
 10
-20.174452785052456
 20
-15.23603500070383
 30
0.0
 10
-20.190185240115024
 20
-15.36684591591356
 30
0.0
 10
-20.197875376878844
 20
-15.498374876514852
 30
0.0
 10
-20.06883780307518
 20
-15.524988974793137
 30
0.0
 10
-19.93841230271718
 20
-15.543648946300838
 30
0.0
 10
-19.80708870926031
 20
-15.55428471058361
 30
0.0
 10
-19.675360229089765
 20
-15.556856323357897
 30
0.0
 10
-19.54372158920638
 20
-15.551354126527938
 30
0.0
 10
-19.41266717920169
 20
-15.537798784458285
 30
0.0
 10
-19.28268919450014
 20
-15.516241206365526
 30
0.0
 10
-19.15427578784184
 20
-15.486762355120717
 30
0.0
 10
-19.027909235948293
 20
-15.44947294318062
 30
0.0
 10
-18.904064128256376
 20
-15.404513016789663
 30
0.0
 10
-18.783205584523166
 20
-15.352051430014276
 30
0.0
 10
-18.66578750799564
 20
-15.292285210584922
 30
0.0
 10
-18.55225088070569
 20
-15.225438819927492
 30
0.0
 10
-17.332437839376553
 20
-14.224364128132466
 30
0.0
 10
-17.181766837442538
 20
-14.417214216272054
 30
0.0
 10
-16.363451825242585
 20
-15.326045109893926
 30
0.0
 10
-17.51673774474806
 20
-16.406215248548907
 30
0.0
 10
-17.59783175890442
 20
-16.510055349417073
 30
0.0
 10
-17.67241280446833
 20
-16.618667840977192
 30
0.0
 10
-17.74020078060706
 20
-16.73164481195499
 30
0.0
 10
-17.80094109892723
 20
-16.848561959588125
 30
0.0
 10
-17.854405639621532
 20
-16.96898018316184
 30
0.0
 10
-17.900393608208514
 20
-17.09244723312071
 30
0.0
 10
-17.938732289647774
 20
-17.218499409562853
 30
0.0
 10
-17.969277696998454
 20
-17.346663303737785
 30
0.0
 10
-17.99191511218479
 20
-17.47645757600735
 30
0.0
 10
-18.006559516837875
 20
-17.607394763592307
 30
0.0
 10
-18.013155911595515
 20
-17.73898311131544
 30
0.0
 10
-18.011679522660952
 20
-17.870728418465323
 30
0.0
 10
-18.002135894844752
 20
-18.002135894844745
 30
0.0
 10
-17.87072841846533
 20
-18.011679522660945
 30
0.0
 10
-17.738983111315445
 20
-18.01315591159551
 30
0.0
 10
-17.60739476359231
 20
-18.00655951683787
 30
0.0
 10
-17.476457576007352
 20
-17.991915112184785
 30
0.0
 10
-17.34666330373779
 20
-17.969277696998446
 30
0.0
 10
-17.21849940956286
 20
-17.938732289647767
 30
0.0
 10
-17.092447233120712
 20
-17.90039360820851
 30
0.0
 10
-16.968980183161847
 20
-17.854405639621525
 30
0.0
 10
-16.848561959588128
 20
-17.800941098927225
 30
0.0
 10
-16.731644811954993
 20
-17.740200780607058
 30
0.0
 10
-16.618667840977196
 20
-17.67241280446833
 30
0.0
 10
-16.51005534941708
 20
-17.597831758904412
 30
0.0
 10
-16.406215248548914
 20
-17.516737744748053
 30
0.0
 10
-15.3248778888865
 20
-16.362205596056402
 30
0.0
 10
-15.008066653998066
 20
-16.66814664932093
 30
0.0
 10
-14.221114381150354
 20
-17.32847801122157
 30
0.0
 10
-15.225438819927497
 20
-18.55225088070568
 30
0.0
 10
-15.292285210584927
 20
-18.66578750799563
 30
0.0
 10
-15.352051430014281
 20
-18.78320558452316
 30
0.0
 10
-15.404513016789668
 20
-18.904064128256373
 30
0.0
 10
-15.449472943180625
 20
-19.02790923594829
 30
0.0
 10
-15.486762355120721
 20
-19.154275787841833
 30
0.0
 10
-15.516241206365532
 20
-19.282689194500136
 30
0.0
 10
-15.53779878445829
 20
-19.412667179201687
 30
0.0
 10
-15.551354126527944
 20
-19.543721589206374
 30
0.0
 10
-15.556856323357902
 20
-19.675360229089762
 30
0.0
 10
-15.554284710583616
 20
-19.807088709260306
 30
0.0
 10
-15.543648946300843
 20
-19.938412302717172
 30
0.0
 10
-15.524988974793143
 20
-20.068837803075173
 30
0.0
 10
-15.498374876514857
 20
-20.197875376878837
 30
0.0
 10
-15.366845915913565
 20
-20.190185240115017
 30
0.0
 10
-15.236035000703835
 20
-20.17445278505245
 30
0.0
 10
-15.106433411827158
 20
-20.150737097397567
 30
0.0
 10
-14.978527888410007
 20
-20.119127245140916
 30
0.0
 10
-14.852798799738576
 20
-20.07974194404832
 30
0.0
 10
-14.729718341156476
 20
-20.03272911180517
 30
0.0
 10
-14.609748760660931
 20
-19.978265312488325
 30
0.0
 10
-14.49334062285782
 20
-19.91655509345197
 30
0.0
 10
-14.380931116795518
 20
-19.847830217117913
 30
0.0
 10
-14.27294241403273
 20
-19.77234879055539
 30
0.0
 10
-14.169780083106904
 20
-19.69039429611943
 30
0.0
 10
-14.07183156635787
 20
-19.602274526788328
 30
0.0
 10
-13.979464724827256
 20
-19.50832043019876
 30
0.0
 10
-13.05683200671281
 20
-18.220787963208373
 30
0.0
 10
-12.54225152455631
 20
-18.594652567576574
 30
0.0
 10
-11.836954414452999
 20
-19.035371115670355
 30
0.0
 10
-12.673628415608846
 20
-20.380852356637888
 30
0.0
 10
-12.725083422489872
 20
-20.50214286717839
 30
0.0
 10
-12.769012199199905
 20
-20.626357472829508
 30
0.0
 10
-12.805249764317121
 20
-20.753029666126533
 30
0.0
 10
-12.833660021973072
 20
-20.881683709748277
 30
0.0
 10
-12.85413627298209
 20
-21.011836423223325
 30
0.0
 10
-12.866601615566847
 20
-21.142998997590208
 30
0.0
 10
-12.871009234175048
 20
-21.27467883119622
 30
0.0
 10
-12.867342575302612
 20
-21.40638137974034
 30
0.0
 10
-12.855615409662937
 20
-21.537612013612016
 30
0.0
 10
-12.835871780468832
 20
-21.667877875550392
 30
0.0
 10
-12.808185838021314
 20
-21.796689731647167
 30
0.0
 10
-12.7726615612265
 20
-21.92356380874138
 30
0.0
 10
-12.729432367086488
 20
-22.04802361130553
 30
0.0
 10
-12.600032419245931
 20
-22.023231290333836
 30
0.0
 10
-12.47239410700323
 20
-21.990559177942107
 30
0.0
 10
-12.346996796091041
 20
-21.950129979380986
 30
0.0
 10
-12.224311435809478
 20
-21.902095532856794
 30
0.0
 10
-12.10479879030203
 20
-21.8466362392793
 30
0.0
 10
-11.988907708083453
 20
-21.78396038473778
 30
0.0
 10
-11.87707343631864
 20
-21.714303358249882
 30
0.0
 10
-11.769715986183533
 20
-21.637926767721165
 30
0.0
 10
-11.667238555447172
 20
-21.55511745743556
 30
0.0
 10
-11.570026014199126
 20
-21.46618643076658
 30
0.0
 10
-11.478443459409418
 20
-21.37146768215526
 30
0.0
 10
-11.3928348437495
 20
-21.271316942741638
 30
0.0
 10
-11.313521683823954
 20
-21.166110344360515
 30
0.0
 10
-10.56663774940858
 20
-19.768788784189816
 30
0.0
 10
-9.832315735788715
 20
-20.15923472470815
 30
0.0
 10
-9.251249249751769
 20
-20.41794219236323
 30
0.0
 10
-9.90496871530547
 20
-21.860731798108226
 30
0.0
 10
-9.94015192897634
 20
-21.987700877635845
 30
0.0
 10
-9.967491629418182
 20
-22.116586666069068
 30
0.0
 10
-9.986885138091125
 20
-22.24690511258243
 30
0.0
 10
-9.998259619626763
 20
-22.378166785777992
 30
0.0
 10
-10.001572355372849
 20
-22.509878711821838
 30
0.0
 10
-9.996810903829882
 20
-22.64154622588475
 30
0.0
 10
-9.983993147377117
 20
-22.772674829933674
 30
0.0
 10
-9.963167225112487
 20
-22.902772049896786
 30
0.0
 10
-9.934411352058659
 20
-23.031349285227208
 30
0.0
 10
-9.897833525414214
 20
-23.157923643919133
 30
0.0
 10
-9.853571118953223
 20
-23.2820197560846
 30
0.0
 10
-9.80179036709644
 20
-23.40317155927981
 30
0.0
 10
-9.742685740591838
 20
-23.5209240488758
 30
0.0
 10
-9.617628874496013
 20
-23.479453747181775
 30
0.0
 10
-9.495347092130839
 20
-23.430401006362338
 30
0.0
 10
-9.376299641939546
 20
-23.373950051691452
 30
0.0
 10
-9.260933625322794
 20
-23.310312893597406
 30
0.0
 10
-9.149682317479131
 20
-23.239728531424344
 30
0.0
 10
-9.042963540171915
 20
-23.162462055832695
 30
0.0
 10
-8.941178092534045
 20
-23.078803653209523
 30
0.0
 10
-8.844708245803862
 20
-22.989067515827987
 30
0.0
 10
-8.753916307645456
 20
-22.893590661848904
 30
0.0
 10
-8.669143261445313
 20
-22.792731669596098
 30
0.0
 10
-8.590707485695653
 20
-22.686869330859167
 30
0.0
 10
-8.518903558273985
 20
-22.576401228281426
 30
0.0
 10
-8.454001150109598
 20
-22.461742242175823
 30
0.0
 10
-7.896344976062748
 20
-20.980085329811207
 30
0.0
 10
-6.931005105317374
 20
-21.331440308712907
 30
0.0
 10
-6.507646763685502
 20
-21.452836359698345
 30
0.0
 10
-6.966832254107093
 20
-22.966568057573014
 30
0.0
 10
-6.985141680027272
 20
-23.097043229934563
 30
0.0
 10
-6.995424514346369
 20
-23.228394929575902
 30
0.0
 10
-6.997642138264743
 20
-23.360129844554656
 30
0.0
 10
-6.991786223147394
 20
-23.491753223703054
 30
0.0
 10
-6.977878761803468
 20
-23.62277073474364
 30
0.0
 10
-6.955971985888801
 20
-23.752690320831828
 30
0.0
 10
-6.926148169741729
 20
-23.881024048552675
 30
0.0
 10
-6.888519321388893
 20
-24.00728994043145
 30
0.0
 10
-6.843226761881494
 20
-24.13101378507577
 30
0.0
 10
-6.790440594541886
 20
-24.251730918150976
 30
0.0
 10
-6.7303590661138255
 20
-24.36898796750005
 30
0.0
 10
-6.663207822215685
 20
-24.48234455585395
 30
0.0
 10
-6.589239059892882
 20
-24.591374954737635
 30
0.0
 10
-6.470665033193
 20
-24.533936240681015
 30
0.0
 10
-6.355832055904536
 20
-24.469342177429272
 30
0.0
 10
-6.245171401313101
 20
-24.397835358134202
 30
0.0
 10
-6.139098672890979
 20
-24.319684337888848
 30
0.0
 10
-6.038012243432995
 20
-24.235182625126683
 30
0.0
 10
-5.9422917589049
 20
-24.14464757930459
 30
0.0
 10
-5.852296712623317
 20
-24.048419219009514
 30
0.0
 10
-5.768365095122103
 20
-23.946858944965314
 30
0.0
 10
-5.690812124775822
 20
-23.84034818273552
 30
0.0
 10
-5.6199290639475965
 20
-23.729286950219738
 30
0.0
 10
-5.55598212510757
 20
-23.614092355323567
 30
0.0
 10
-5.499211471030145
 20
-23.495197029444356
 30
0.0
 10
-5.449830312824955
 20
-23.37304750265601
 30
0.0
 10
-5.091018492093118
 20
-21.83418752920988
 30
0.0
 10
-3.894790344372486
 20
-22.08845367126228
 30
0.0
 10
-3.65244176795453
 20
-22.122513542480995
 30
0.0
 10
-3.9094913614701317
 20
-23.679439970037098
 30
0.0
 10
-3.910613720285788
 20
-23.811188768858912
 30
0.0
 10
-3.903663746335999
 20
-23.942758915709934
 30
0.0
 10
-3.888667541339721
 20
-24.07365627823498
 30
0.0
 10
-3.8656814259006094
 20
-24.203389250826078
 30
0.0
 10
-3.8347917279861425
 20
-24.331470600924586
 30
0.0
 10
-3.7961144587093805
 20
-24.457419298899577
 30
0.0
 10
-3.7497948766310016
 20
-24.580762324630207
 30
0.0
 10
-3.6960069422179633
 20
-24.701036444007073
 30
0.0
 10
-3.6349526645076375
 20
-24.817789948680698
 30
0.0
 10
-3.5668613424311366
 20
-24.930584352523162
 30
0.0
 10
-3.4919887036451587
 20
-25.03899603843168
 30
0.0
 10
-3.410615944106597
 20
-25.142617849289156
 30
0.0
 10
-3.3230486719969528
 20
-25.241060617106697
 30
0.0
 10
-3.2129863191647803
 20
-25.168636283010006
 30
0.0
 10
-3.107566971032148
 20
-25.08960611965706
 30
0.0
 10
-3.0071865465215617
 20
-25.004266937241376
 30
0.0
 10
-2.912222040086288
 20
-24.912939240468667
 30
0.0
 10
-2.8230301058484595
 20
-24.815966024851065
 30
0.0
 10
-2.7399457181284954
 20
-24.71371148853359
 30
0.0
 10
-2.663280913396416
 20
-24.606559664490813
 30
0.0
 10
-2.593323618369861
 20
-24.49491297823067
 30
0.0
 10
-2.530336568660074
 20
-24.37919073642228
 30
0.0
 10
-2.4745563220270337
 20
-24.259827552123856
 30
0.0
 10
-2.426192369949633
 20
-24.137271712525088
 30
0.0
 10
-2.3854263508475153
 20
-24.011983495334214
 30
0.0
 10
-2.3524113679094563
 20
-23.884433440132725
 30
0.0
 10
-2.1979911209725813
 20
-22.316578361686005
 30
0.0
 10
-0.7827679196327593
 20
-22.415540408344185
 30
0.0
 10
-0.7338088135442122
 20
-22.415540408344082
 30
0.0
 10
-0.7852579877226321
 20
-23.98715009943278
 30
0.0
 10
-0.7691740755632559
 20
-24.11791826623935
 30
0.0
 10
-0.7451102093257582
 20
-24.2474556586093
 30
0.0
 10
-0.7131567646400485
 20
-24.375275778516226
 30
0.0
 10
-0.6734337476872913
 20
-24.500898577420223
 30
0.0
 10
-0.6260903444978431
 20
-24.623852259165602
 30
0.0
 10
-0.5713043606596769
 20
-24.743675051885464
 30
0.0
 10
-0.509281553541567
 20
-24.85991694225848
 30
0.0
 10
-0.4402548595389661
 20
-24.97214136560462
 30
0.0
 10
-0.3644835192447801
 20
-25.079926845472393
 30
0.0
 10
-0.28225210383059646
 20
-25.18286857655985
 30
0.0
 10
-0.1938694462949457
 20
-25.280579945024524
 30
0.0
 10
-0.09966748159245942
 20
-25.37269398047241
 30
0.0
 10
-4.6767175809945505e-15
 20
-25.458864734172955
 30
0.0
 10
0.09966748159245009
 20
-25.37269398047241
 30
0.0
 10
0.19386944629493644
 20
-25.280579945024524
 30
0.0
 10
0.28225210383058724
 20
-25.18286857655985
 30
0.0
 10
0.3644835192447709
 20
-25.079926845472393
 30
0.0
 10
0.4402548595389569
 20
-24.97214136560462
 30
0.0
 10
0.5092815535415579
 20
-24.85991694225848
 30
0.0
 10
0.5713043606596678
 20
-24.743675051885464
 30
0.0
 10
0.6260903444978342
 20
-24.623852259165602
 30
0.0
 10
0.6734337476872821
 20
-24.500898577420223
 30
0.0
 10
0.7131567646400396
 20
-24.375275778516226
 30
0.0
 10
0.7451102093257498
 20
-24.2474556586093
 30
0.0
 10
0.769174075563247
 20
-24.11791826623935
 30
0.0
 10
0.7852579877226229
 20
-23.98715009943278
 30
0.0
 10
0.7338088135442038
 20
-22.41554040834419
 30
0.0
 10
0.782767919632751
 20
-22.415540408344192
 30
0.0
 10
2.197991120972592
 20
-22.316578361686002
 30
0.0
 10
2.3524113679094674
 20
-23.884433440132725
 30
0.0
 10
2.385426350847527
 20
-24.011983495334214
 30
0.0
 10
2.4261923699496455
 20
-24.137271712525088
 30
0.0
 10
2.474556322027046
 20
-24.259827552123856
 30
0.0
 10
2.5303365686600863
 20
-24.37919073642228
 30
0.0
 10
2.5933236183698734
 20
-24.494912978230673
 30
0.0
 10
2.663280913396428
 20
-24.606559664490813
 30
0.0
 10
2.739945718128508
 20
-24.71371148853359
 30
0.0
 10
2.823030105848472
 20
-24.815966024851065
 30
0.0
 10
2.9122220400863004
 20
-24.912939240468667
 30
0.0
 10
3.007186546521574
 20
-25.004266937241376
 30
0.0
 10
3.1075669710321603
 20
-25.08960611965706
 30
0.0
 10
3.2129863191647927
 20
-25.168636283010006
 30
0.0
 10
3.3230486719969656
 20
-25.241060617106697
 30
0.0
 10
3.4106159441066093
 20
-25.142617849289156
 30
0.0
 10
3.491988703645171
 20
-25.03899603843168
 30
0.0
 10
3.566861342431149
 20
-24.930584352523162
 30
0.0
 10
3.63495266450765
 20
-24.817789948680698
 30
0.0
 10
3.6960069422179758
 20
-24.701036444007073
 30
0.0
 10
3.749794876631014
 20
-24.580762324630207
 30
0.0
 10
3.7961144587093925
 20
-24.457419298899577
 30
0.0
 10
3.834791727986155
 20
-24.331470600924582
 30
0.0
 10
3.865681425900621
 20
-24.203389250826078
 30
0.0
 10
3.8886675413397334
 20
-24.07365627823498
 30
0.0
 10
3.9036637463360115
 20
-23.942758915709934
 30
0.0
 10
3.9106137202858005
 20
-23.811188768858912
 30
0.0
 10
3.9094913614701428
 20
-23.679439970037095
 30
0.0
 10
3.6524417679545405
 20
-22.122513542480995
 30
0.0
 10
3.8947903443724776
 20
-22.088453671262283
 30
0.0
 10
5.091018492093131
 20
-21.83418752920988
 30
0.0
 10
5.449830312824967
 20
-23.373047502656007
 30
0.0
 10
5.499211471030156
 20
-23.495197029444352
 30
0.0
 10
5.555982125107582
 20
-23.614092355323564
 30
0.0
 10
5.619929063947609
 20
-23.729286950219738
 30
0.0
 10
5.690812124775834
 20
-23.840348182735518
 30
0.0
 10
5.768365095122117
 20
-23.946858944965314
 30
0.0
 10
5.852296712623329
 20
-24.048419219009514
 30
0.0
 10
5.942291758904912
 20
-24.144647579304586
 30
0.0
 10
6.038012243433007
 20
-24.23518262512668
 30
0.0
 10
6.139098672890992
 20
-24.319684337888845
 30
0.0
 10
6.245171401313113
 20
-24.3978353581342
 30
0.0
 10
6.355832055904548
 20
-24.46934217742927
 30
0.0
 10
6.470665033193012
 20
-24.53393624068101
 30
0.0
 10
6.589239059892895
 20
-24.59137495473763
 30
0.0
 10
6.663207822215697
 20
-24.482344555853945
 30
0.0
 10
6.730359066113838
 20
-24.368987967500047
 30
0.0
 10
6.790440594541899
 20
-24.251730918150972
 30
0.0
 10
6.843226761881508
 20
-24.131013785075766
 30
0.0
 10
6.888519321388905
 20
-24.007289940431445
 30
0.0
 10
6.926148169741741
 20
-23.88102404855267
 30
0.0
 10
6.955971985888813
 20
-23.752690320831828
 30
0.0
 10
6.97787876180348
 20
-23.622770734743632
 30
0.0
 10
6.991786223147407
 20
-23.49175322370305
 30
0.0
 10
6.997642138264755
 20
-23.360129844554656
 30
0.0
 10
6.995424514346381
 20
-23.2283949295759
 30
0.0
 10
6.985141680027285
 20
-23.09704322993456
 30
0.0
 10
6.966832254107107
 20
-22.966568057573014
 30
0.0
 10
6.507646763685512
 20
-21.452836359698342
 30
0.0
 10
6.931005105317366
 20
-21.331440308712907
 30
0.0
 10
7.896344976062759
 20
-20.980085329811203
 30
0.0
 10
8.454001150109608
 20
-22.461742242175816
 30
0.0
 10
8.518903558273998
 20
-22.576401228281423
 30
0.0
 10
8.590707485695667
 20
-22.686869330859164
 30
0.0
 10
8.669143261445324
 20
-22.792731669596094
 30
0.0
 10
8.753916307645468
 20
-22.8935906618489
 30
0.0
 10
8.844708245803876
 20
-22.98906751582798
 30
0.0
 10
8.941178092534058
 20
-23.078803653209516
 30
0.0
 10
9.042963540171927
 20
-23.162462055832687
 30
0.0
 10
9.149682317479144
 20
-23.23972853142434
 30
0.0
 10
9.260933625322807
 20
-23.310312893597402
 30
0.0
 10
9.376299641939559
 20
-23.373950051691445
 30
0.0
 10
9.495347092130851
 20
-23.430401006362334
 30
0.0
 10
9.617628874496026
 20
-23.47945374718177
 30
0.0
 10
9.74268574059185
 20
-23.52092404887579
 30
0.0
 10
9.801790367096453
 20
-23.4031715592798
 30
0.0
 10
9.853571118953235
 20
-23.282019756084598
 30
0.0
 10
9.897833525414226
 20
-23.157923643919126
 30
0.0
 10
9.934411352058671
 20
-23.031349285227204
 30
0.0
 10
9.9631672251125
 20
-22.902772049896782
 30
0.0
 10
9.983993147377129
 20
-22.772674829933667
 30
0.0
 10
9.996810903829894
 20
-22.641546225884742
 30
0.0
 10
10.001572355372861
 20
-22.50987871182183
 30
0.0
 10
9.998259619626776
 20
-22.37816678577799
 30
0.0
 10
9.986885138091136
 20
-22.246905112582425
 30
0.0
 10
9.967491629418195
 20
-22.116586666069065
 30
0.0
 10
9.940151928976352
 20
-21.98770087763584
 30
0.0
 10
9.904968715305479
 20
-21.86073179810822
 30
0.0
 10
9.25124924975178
 20
-20.417942192363224
 30
0.0
 10
9.832315735788708
 20
-20.159234724708153
 30
0.0
 10
10.56663774940857
 20
-19.768788784189823
 30
0.0
 10
11.313521683823947
 20
-21.166110344360526
 30
0.0
 10
11.392834843749492
 20
-21.271316942741645
 30
0.0
 10
11.47844345940941
 20
-21.371467682155266
 30
0.0
 10
11.570026014199119
 20
-21.466186430766584
 30
0.0
 10
11.667238555447165
 20
-21.555117457435568
 30
0.0
 10
11.769715986183526
 20
-21.637926767721172
 30
0.0
 10
11.877073436318632
 20
-21.714303358249886
 30
0.0
 10
11.988907708083445
 20
-21.783960384737785
 30
0.0
 10
12.104798790302024
 20
-21.846636239279302
 30
0.0
 10
12.22431143580947
 20
-21.9020955328568
 30
0.0
 10
12.346996796091034
 20
-21.950129979380993
 30
0.0
 10
12.472394107003224
 20
-21.990559177942114
 30
0.0
 10
12.600032419245924
 20
-22.02323129033384
 30
0.0
 10
12.729432367086481
 20
-22.04802361130554
 30
0.0
 10
12.772661561226492
 20
-21.923563808741385
 30
0.0
 10
12.808185838021307
 20
-21.796689731647174
 30
0.0
 10
12.835871780468825
 20
-21.6678778755504
 30
0.0
 10
12.85561540966293
 20
-21.537612013612023
 30
0.0
 10
12.867342575302605
 20
-21.406381379740342
 30
0.0
 10
12.871009234175041
 20
-21.274678831196223
 30
0.0
 10
12.86660161556684
 20
-21.14299899759021
 30
0.0
 10
12.854136272982084
 20
-21.011836423223333
 30
0.0
 10
12.833660021973065
 20
-20.881683709748284
 30
0.0
 10
12.805249764317114
 20
-20.753029666126537
 30
0.0
 10
12.769012199199897
 20
-20.626357472829515
 30
0.0
 10
12.725083422489865
 20
-20.502142867178396
 30
0.0
 10
12.673628415608837
 20
-20.380852356637895
 30
0.0
 10
11.83695441445299
 20
-19.03537111567036
 30
0.0
 10
12.542251524556287
 20
-18.594652567576592
 30
0.0
 10
13.056832006712803
 20
-18.22078796320838
 30
0.0
 10
13.979464724827253
 20
-19.508320430198765
 30
0.0
 10
14.071831566357865
 20
-19.602274526788328
 30
0.0
 10
14.169780083106899
 20
-19.690394296119432
 30
0.0
 10
14.272942414032725
 20
-19.772348790555395
 30
0.0
 10
14.380931116795512
 20
-19.847830217117917
 30
0.0
 10
14.493340622857815
 20
-19.916555093451976
 30
0.0
 10
14.609748760660926
 20
-19.97826531248833
 30
0.0
 10
14.72971834115647
 20
-20.032729111805175
 30
0.0
 10
14.85279879973857
 20
-20.079741944048326
 30
0.0
 10
14.978527888410001
 20
-20.11912724514092
 30
0.0
 10
15.106433411827153
 20
-20.15073709739757
 30
0.0
 10
15.23603500070383
 20
-20.174452785052456
 30
0.0
 10
15.36684591591356
 20
-20.190185240115024
 30
0.0
 10
15.498374876514852
 20
-20.197875376878844
 30
0.0
 10
15.524988974793137
 20
-20.06883780307518
 30
0.0
 10
15.543648946300838
 20
-19.93841230271718
 30
0.0
 10
15.55428471058361
 20
-19.80708870926031
 30
0.0
 10
15.556856323357897
 20
-19.675360229089765
 30
0.0
 10
15.551354126527938
 20
-19.54372158920638
 30
0.0
 10
15.537798784458285
 20
-19.41266717920169
 30
0.0
 10
15.516241206365526
 20
-19.28268919450014
 30
0.0
 10
15.486762355120717
 20
-19.15427578784184
 30
0.0
 10
15.44947294318062
 20
-19.027909235948293
 30
0.0
 10
15.404513016789663
 20
-18.904064128256376
 30
0.0
 10
15.352051430014276
 20
-18.783205584523166
 30
0.0
 10
15.292285210584922
 20
-18.66578750799564
 30
0.0
 10
15.225438819927492
 20
-18.55225088070569
 30
0.0
 10
14.221114381150349
 20
-17.32847801122157
 30
0.0
 10
15.00806665399805
 20
-16.668146649320942
 30
0.0
 10
15.324877888886503
 20
-16.362205596056395
 30
0.0
 10
16.40621524854892
 20
-17.516737744748042
 30
0.0
 10
16.510055349417087
 20
-17.5978317589044
 30
0.0
 10
16.618667840977206
 20
-17.672412804468316
 30
0.0
 10
16.731644811955004
 20
-17.740200780607047
 30
0.0
 10
16.848561959588135
 20
-17.800941098927215
 30
0.0
 10
16.968980183161854
 20
-17.854405639621515
 30
0.0
 10
17.092447233120726
 20
-17.9003936082085
 30
0.0
 10
17.218499409562867
 20
-17.938732289647756
 30
0.0
 10
17.3466633037378
 20
-17.969277696998436
 30
0.0
 10
17.47645757600736
 20
-17.99191511218477
 30
0.0
 10
17.60739476359232
 20
-18.00655951683786
 30
0.0
 10
17.738983111315456
 20
-18.0131559115955
 30
0.0
 10
17.870728418465337
 20
-18.011679522660934
 30
0.0
 10
18.00213589484476
 20
-18.002135894844734
 30
0.0
 10
18.01167952266096
 20
-17.870728418465312
 30
0.0
 10
18.013155911595526
 20
-17.73898311131543
 30
0.0
 10
18.006559516837886
 20
-17.607394763592296
 30
0.0
 10
17.991915112184795
 20
-17.476457576007334
 30
0.0
 10
17.96927769699846
 20
-17.346663303737774
 30
0.0
 10
17.93873228964778
 20
-17.218499409562842
 30
0.0
 10
17.90039360820852
 20
-17.092447233120698
 30
0.0
 10
17.85440563962154
 20
-16.96898018316183
 30
0.0
 10
17.800941098927236
 20
-16.848561959588114
 30
0.0
 10
17.740200780607072
 20
-16.73164481195498
 30
0.0
 10
17.67241280446834
 20
-16.618667840977178
 30
0.0
 10
17.597831758904427
 20
-16.510055349417062
 30
0.0
 10
17.51673774474807
 20
-16.4062152485489
 30
0.0
 10
16.363451825242592
 20
-15.326045109893917
 30
0.0
 10
17.181766837442535
 20
-14.417214216272061
 30
0.0
 10
17.33243783937656
 20
-14.224364128132459
 30
0.0
 10
18.552250880705696
 20
-15.225438819927483
 30
0.0
 10
18.665787507995645
 20
-15.292285210584911
 30
0.0
 10
18.783205584523177
 20
-15.352051430014265
 30
0.0
 10
18.904064128256383
 20
-15.404513016789652
 30
0.0
 10
19.027909235948304
 20
-15.44947294318061
 30
0.0
 10
19.154275787841847
 20
-15.486762355120707
 30
0.0
 10
19.282689194500147
 20
-15.516241206365514
 30
0.0
 10
19.4126671792017
 20
-15.537798784458273
 30
0.0
 10
19.54372158920639
 20
-15.551354126527928
 30
0.0
 10
19.675360229089776
 20
-15.556856323357886
 30
0.0
 10
19.80708870926032
 20
-15.5542847105836
 30
0.0
 10
19.938412302717186
 20
-15.543648946300827
 30
0.0
 10
20.068837803075187
 20
-15.524988974793127
 30
0.0
 10
20.19787537687885
 20
-15.49837487651484
 30
0.0
 10
20.19018524011503
 20
-15.366845915913549
 30
0.0
 10
20.174452785052463
 20
-15.236035000703819
 30
0.0
 10
20.15073709739758
 20
-15.106433411827142
 30
0.0
 10
20.11912724514093
 20
-14.97852788840999
 30
0.0
 10
20.079741944048333
 20
-14.85279879973856
 30
0.0
 10
20.032729111805185
 20
-14.729718341156458
 30
0.0
 10
19.978265312488336
 20
-14.609748760660914
 30
0.0
 10
19.916555093451983
 20
-14.493340622857804
 30
0.0
 10
19.847830217117927
 20
-14.380931116795502
 30
0.0
 10
19.7723487905554
 20
-14.272942414032714
 30
0.0
 10
19.69039429611944
 20
-14.169780083106888
 30
0.0
 10
19.602274526788335
 20
-14.071831566357854
 30
0.0
 10
19.508320430198772
 20
-13.979464724827242
 30
0.0
 10
18.227728226279904
 20
-13.061805328897881
 30
0.0
 10
19.02104347336629
 20
-11.885667107841565
 30
0.0
 10
19.045523026410642
 20
-11.843267278222356
 30
0.0
 10
20.380852356637888
 20
-12.673628415608846
 30
0.0
 10
20.50214286717839
 20
-12.725083422489872
 30
0.0
 10
20.626357472829508
 20
-12.769012199199905
 30
0.0
 10
20.753029666126533
 20
-12.805249764317121
 30
0.0
 10
20.881683709748277
 20
-12.833660021973072
 30
0.0
 10
21.011836423223325
 20
-12.85413627298209
 30
0.0
 10
21.142998997590208
 20
-12.866601615566847
 30
0.0
 10
21.27467883119622
 20
-12.871009234175048
 30
0.0
 10
21.40638137974034
 20
-12.867342575302612
 30
0.0
 10
21.537612013612016
 20
-12.855615409662937
 30
0.0
 10
21.667877875550392
 20
-12.835871780468832
 30
0.0
 10
21.796689731647167
 20
-12.808185838021314
 30
0.0
 10
21.92356380874138
 20
-12.7726615612265
 30
0.0
 10
22.04802361130553
 20
-12.729432367086488
 30
0.0
 10
22.023231290333836
 20
-12.600032419245931
 30
0.0
 10
21.990559177942107
 20
-12.47239410700323
 30
0.0
 10
21.950129979380986
 20
-12.346996796091041
 30
0.0
 10
21.902095532856794
 20
-12.224311435809478
 30
0.0
 10
21.8466362392793
 20
-12.10479879030203
 30
0.0
 10
21.78396038473778
 20
-11.988907708083453
 30
0.0
 10
21.714303358249882
 20
-11.87707343631864
 30
0.0
 10
21.637926767721165
 20
-11.769715986183533
 30
0.0
 10
21.55511745743556
 20
-11.667238555447172
 30
0.0
 10
21.46618643076658
 20
-11.570026014199126
 30
0.0
 10
21.37146768215526
 20
-11.478443459409418
 30
0.0
 10
21.271316942741638
 20
-11.3928348437495
 30
0.0
 10
21.166110344360515
 20
-11.313521683823954
 30
0.0
 10
19.77933183995477
 20
-10.5722731301219
 30
0.0
 10
19.803811392999037
 20
-10.529873300502642
 30
0.0
 10
20.42571934725248
 20
-9.254773032788108
 30
0.0
 10
21.860731798108226
 20
-9.90496871530547
 30
0.0
 10
21.987700877635845
 20
-9.940151928976341
 30
0.0
 10
22.116586666069068
 20
-9.967491629418184
 30
0.0
 10
22.24690511258243
 20
-9.986885138091125
 30
0.0
 10
22.378166785777992
 20
-9.998259619626765
 30
0.0
 10
22.509878711821838
 20
-10.00157235537285
 30
0.0
 10
22.64154622588475
 20
-9.996810903829884
 30
0.0
 10
22.772674829933674
 20
-9.983993147377118
 30
0.0
 10
22.902772049896786
 20
-9.963167225112489
 30
0.0
 10
23.031349285227208
 20
-9.93441135205866
 30
0.0
 10
23.157923643919133
 20
-9.897833525414216
 30
0.0
 10
23.2820197560846
 20
-9.853571118953225
 30
0.0
 10
23.40317155927981
 20
-9.801790367096443
 30
0.0
 10
23.5209240488758
 20
-9.74268574059184
 30
0.0
 10
23.479453747181775
 20
-9.617628874496015
 30
0.0
 10
23.430401006362338
 20
-9.49534709213084
 30
0.0
 10
23.373950051691452
 20
-9.376299641939548
 30
0.0
 10
23.310312893597406
 20
-9.260933625322796
 30
0.0
 10
23.239728531424344
 20
-9.149682317479133
 30
0.0
 10
23.162462055832695
 20
-9.042963540171916
 30
0.0
 10
23.078803653209523
 20
-8.941178092534047
 30
0.0
 10
22.989067515827987
 20
-8.844708245803863
 30
0.0
 10
22.893590661848904
 20
-8.753916307645458
 30
0.0
 10
22.792731669596098
 20
-8.669143261445313
 30
0.0
 10
22.686869330859167
 20
-8.590707485695654
 30
0.0
 10
22.576401228281426
 20
-8.518903558273987
 30
0.0
 10
22.461742242175823
 20
-8.454001150109598
 30
0.0
 10
20.984879607331084
 20
-7.898149414348523
 30
0.0
 10
21.076557181815026
 20
-7.671239454990221
 30
0.0
 10
21.4544703173357
 20
-6.508142419315949
 30
0.0
 10
22.966568057573014
 20
-6.966832254107095
 30
0.0
 10
23.097043229934563
 20
-6.985141680027274
 30
0.0
 10
23.228394929575902
 20
-6.995424514346371
 30
0.0
 10
23.360129844554656
 20
-6.9976421382647445
 30
0.0
 10
23.491753223703054
 20
-6.991786223147396
 30
0.0
 10
23.62277073474364
 20
-6.97787876180347
 30
0.0
 10
23.752690320831828
 20
-6.955971985888802
 30
0.0
 10
23.881024048552675
 20
-6.9261481697417295
 30
0.0
 10
24.00728994043145
 20
-6.888519321388894
 30
0.0
 10
24.13101378507577
 20
-6.843226761881496
 30
0.0
 10
24.251730918150976
 20
-6.790440594541888
 30
0.0
 10
24.36898796750005
 20
-6.730359066113827
 30
0.0
 10
24.48234455585395
 20
-6.663207822215686
 30
0.0
 10
24.591374954737635
 20
-6.589239059892884
 30
0.0
 10
24.533936240681015
 20
-6.470665033193001
 30
0.0
 10
24.469342177429272
 20
-6.355832055904537
 30
0.0
 10
24.397835358134202
 20
-6.245171401313103
 30
0.0
 10
24.319684337888848
 20
-6.139098672890981
 30
0.0
 10
24.235182625126683
 20
-6.038012243432996
 30
0.0
 10
24.14464757930459
 20
-5.942291758904901
 30
0.0
 10
24.048419219009514
 20
-5.852296712623318
 30
0.0
 10
23.946858944965314
 20
-5.768365095122105
 30
0.0
 10
23.84034818273552
 20
-5.690812124775824
 30
0.0
 10
23.729286950219738
 20
-5.619929063947598
 30
0.0
 10
23.614092355323567
 20
-5.555982125107572
 30
0.0
 10
23.495197029444356
 20
-5.499211471030145
 30
0.0
 10
23.373047502656004
 20
-5.449830312824955
 30
0.0
 10
21.832524652571998
 20
-5.090630763641936
 30
0.0
 10
21.93907175931543
 20
-4.663293659391983
 30
0.0
 10
22.117459357213104
 20
-3.651607318589635
 30
0.0
 10
23.679439970037098
 20
-3.909491361470133
 30
0.0
 10
23.811188768858912
 20
-3.91061372028579
 30
0.0
 10
23.942758915709934
 20
-3.903663746336
 30
0.0
 10
24.07365627823498
 20
-3.8886675413397227
 30
0.0
 10
24.203389250826078
 20
-3.8656814259006103
 30
0.0
 10
24.331470600924586
 20
-3.8347917279861443
 30
0.0
 10
24.457419298899577
 20
-3.796114458709382
 30
0.0
 10
24.580762324630207
 20
-3.749794876631003
 30
0.0
 10
24.701036444007073
 20
-3.6960069422179647
 30
0.0
 10
24.817789948680698
 20
-3.6349526645076393
 30
0.0
 10
24.930584352523162
 20
-3.566861342431138
 30
0.0
 10
25.03899603843168
 20
-3.49198870364516
 30
0.0
 10
25.142617849289156
 20
-3.410615944106598
 30
0.0
 10
25.241060617106697
 20
-3.323048671996954
 30
0.0
 10
25.168636283010006
 20
-3.2129863191647816
 30
0.0
 10
25.08960611965706
 20
-3.107566971032149
 30
0.0
 10
25.004266937241376
 20
-3.007186546521563
 30
0.0
 10
24.912939240468667
 20
-2.912222040086289
 30
0.0
 10
24.815966024851065
 20
-2.823030105848461
 30
0.0
 10
24.71371148853359
 20
-2.7399457181284967
 30
0.0
 10
24.606559664490813
 20
-2.6632809133964175
 30
0.0
 10
24.49491297823067
 20
-2.5933236183698627
 30
0.0
 10
24.37919073642228
 20
-2.5303365686600756
 30
0.0
 10
24.259827552123856
 20
-2.4745563220270355
 30
0.0
 10
24.137271712525088
 20
-2.426192369949634
 30
0.0
 10
24.011983495334214
 20
-2.385426350847516
 30
0.0
 10
23.884433440132725
 20
-2.3524113679094576
 30
0.0
 10
22.30808125646458
 20
-2.197154229154851
 30
0.0
 10
22.37456726034501
 20
-1.5645821571315583
 30
0.0
 10
22.40359216386156
 20
-0.7334176685194613
 30
0.0
 10
23.98715009943278
 20
-0.7852579877226276
 30
0.0
 10
24.11791826623935
 20
-0.7691740755632515
 30
0.0
 10
24.2474556586093
 20
-0.7451102093257538
 30
0.0
 10
24.375275778516226
 20
-0.7131567646400441
 30
0.0
 10
24.500898577420223
 20
-0.6734337476872867
 30
0.0
 10
24.623852259165602
 20
-0.6260903444978385
 30
0.0
 10
24.743675051885464
 20
-0.5713043606596724
 30
0.0
 10
24.85991694225848
 20
-0.5092815535415625
 30
0.0
 10
24.97214136560462
 20
-0.4402548595389615
 30
0.0
 10
25.079926845472393
 20
-0.3644835192447755
 30
0.0
 10
25.18286857655985
 20
-0.28225210383059185
 30
0.0
 10
25.280579945024524
 20
-0.19386944629494107
 30
0.0
 10
25.37269398047241
 20
-0.09966748159245475
 30
0.0
 10
25.458864734172955
 20
0
 30
0.0
 10
25.37269398047241
 20
0.09966748159245475
 30
0.0
 10
25.280579945024524
 20
0.19386944629494107
 30
0.0
 10
25.18286857655985
 20
0.28225210383059185
 30
0.0
 10
25.079926845472393
 20
0.3644835192447755
 30
0.0
 10
24.97214136560462
 20
0.4402548595389615
 30
0.0
 10
24.85991694225848
 20
0.5092815535415625
 30
0.0
 10
24.743675051885464
 20
0.5713043606596724
 30
0.0
 10
24.623852259165602
 20
0.6260903444978387
 30
0.0
 10
24.500898577420223
 20
0.6734337476872867
 30
0.0
 10
24.375275778516226
 20
0.7131567646400441
 30
0.0
 10
24.2474556586093
 20
0.7451102093257542
 30
0.0
 10
24.11791826623935
 20
0.7691740755632515
 30
0.0
 10
23.987150099432775
 20
0.7852579877226271
 30
0.0
 10
22.403592163861557
 20
0.7334176685194609
 30
0.0
  0
ENDSEC
  0
EOF
