999
DXF generated by OpenJsCad
  0
SECTION
  2
HEADER
  0
ENDSEC
  0
SECTION
  2
TABLES
  0
TABLE
  2
LTYPE
  70
1
  0
LTYPE
  2
CONTINUOUS
  3
Solid Line
  72
65
  73
0
  40
0.0
  0
ENDTAB
  0
TABLE
  2
LAYER
  70
1
  0
LAYER
  2
OpenJsCad
  62
7
  6
continuous
  0
ENDTAB
  0
TABLE
  2
STYLE
  70
0
  0
ENDTAB
  0
TABLE
  2
VIEW
  70
0
  0
ENDTAB
  0
ENDSEC
  0
SECTION
  2
BLOCKS
  0
ENDSEC
  0
SECTION
  2
ENTITIES
  0
LWPOLYLINE
  8
OpenJsCad
  90
421
  70
1
 10
26.146574722199105
 20
-1.0709414464588998
 30
0.0
 10
26.155135418513698
 20
-1.0867082876952907
 30
0.0
 10
26.23543435404977
 20
-1.2127523686641484
 30
0.0
 10
26.32433007603939
 20
-1.3328880419983165
 30
0.0
 10
26.421389493460797
 20
-1.4465300187733057
 30
0.0
 10
26.52613974258869
 20
-1.5531246467015203
 30
0.0
 10
26.638070490738777
 20
-1.6521526074705493
 30
0.0
 10
26.756636422557307
 20
-1.7431314468097807
 30
0.0
 10
26.881259896742666
 20
-1.8256179249591151
 30
0.0
 10
26.929391320597116
 20
-1.8528493743513805
 30
0.0
 10
25.998786626810904
 20
-3.463400790403722
 30
0.0
 10
25.981247552145227
 20
-3.505017271906182
 30
0.0
 10
25.966428521932517
 20
-3.5476781089388476
 30
0.0
 10
25.95439121813817
 20
-3.591205732238718
 30
0.0
 10
25.945185744213305
 20
-3.6354189646764343
 30
0.0
 10
25.938850416546778
 20
-3.680133775378601
 30
0.0
 10
25.935411604979006
 20
-3.7251640457283797
 30
0.0
 10
25.934883623041507
 20
-3.7703223440560016
 30
0.0
 10
25.937268668379012
 20
-3.8154207057946596
 30
0.0
 10
25.94255681360209
 20
-3.8602714158545073
 30
0.0
 10
25.950726047608388
 20
-3.9046877899582437
 30
0.0
 10
25.961742367200543
 20
-3.9484849516861042
 30
0.0
 10
25.975559918619293
 20
-3.9914806019959093
 30
0.0
 10
25.99212118840282
 20
-4.033495778015177
 30
0.0
 10
26.011357242777795
 20
-4.074355597946936
 30
0.0
 10
26.03318801458577
 20
-4.1138899889886735
 30
0.0
 10
26.057522636550566
 20
-4.151934395234578
 30
0.0
 10
26.084259819499522
 20
-4.18833046261454
 30
0.0
 10
26.113288273964336
 20
-4.222926698018947
 30
0.0
 10
26.14448717340657
 20
-4.255579099865766
 30
0.0
 10
26.1777266571398
 20
-4.286151757485297
 30
0.0
 10
26.21286837085503
 20
-4.31451741682771
 30
0.0
 10
26.25777486499943
 20
-4.319308810824417
 30
0.0
 10
26.302896862872004
 20
-4.321194541653661
 30
0.0
 10
26.34804655100108
 20
-4.320166760246908
 30
0.0
 10
26.393036000658494
 20
-4.316229744588361
 30
0.0
 10
26.437677950084424
 20
-4.309399881908499
 30
0.0
 10
26.481786583936035
 20
-4.299705600474721
 30
0.0
 10
26.525178306715684
 20
-4.287187251262982
 30
0.0
 10
26.567672506959312
 20
-4.271896940002993
 30
0.0
 10
26.60909230900427
 20
-4.253898310296013
 30
0.0
 10
26.649265309207454
 20
-4.233266278708017
 30
0.0
 10
26.688024293549276
 20
-4.210086722940854
 30
0.0
 10
26.725207933636703
 20
-4.184456124379339
 30
0.0
 10
26.76066145820819
 20
-4.156481166502124
 30
0.0
 10
26.794237297345585
 20
-4.126278290827903
 30
0.0
 10
26.825795696711545
 20
-4.093973212245247
 30
0.0
 10
26.85520529925574
 20
-4.05970039574346
 30
0.0
 10
26.882343691968675
 20
-4.023602496722444
 30
0.0
 10
26.907097915407252
 20
-3.985829767211251
 30
0.0
 10
26.929364933871337
 20
-3.946539430466793
 30
0.0
 10
26.949052064274216
 20
-3.9058950265558865
 30
0.0
 10
26.966077361921894
 20
-3.8640657316445344
 30
0.0
 10
27.446710527528893
 20
-2.0678016047983747
 30
0.0
 10
27.573126284744244
 20
-2.0981513429188094
 30
0.0
 10
27.720525766723526
 20
-2.1228175568104724
 30
0.0
 10
27.86928681907468
 20
-2.1371416169502293
 30
0.0
 10
28.01868469290406
 20
-2.1410537379569288
 30
0.0
 10
28.167991536787788
 20
-2.1345348603702705
 30
0.0
 10
28.31647994279074
 20
-2.117616743506584
 30
0.0
 10
28.463426490324863
 20
-2.090381810730622
 30
0.0
 10
28.553124318022608
 20
-2.0671843752094605
 30
0.0
 10
29.033922638078106
 20
-3.864065731644535
 30
0.0
 10
29.05094793572578
 20
-3.9058950265558865
 30
0.0
 10
29.07063506612866
 20
-3.9465394304667933
 30
0.0
 10
29.092902084592744
 20
-3.9858297672112513
 30
0.0
 10
29.117656308031325
 20
-4.023602496722445
 30
0.0
 10
29.144794700744256
 20
-4.05970039574346
 30
0.0
 10
29.174204303288455
 20
-4.093973212245247
 30
0.0
 10
29.20576270265441
 20
-4.126278290827903
 30
0.0
 10
29.23933854179181
 20
-4.156481166502124
 30
0.0
 10
29.274792066363293
 20
-4.18445612437934
 30
0.0
 10
29.31197570645072
 20
-4.210086722940854
 30
0.0
 10
29.350734690792546
 20
-4.233266278708017
 30
0.0
 10
29.390907690995725
 20
-4.253898310296014
 30
0.0
 10
29.432327493040688
 20
-4.271896940002994
 30
0.0
 10
29.474821693284316
 20
-4.287187251262983
 30
0.0
 10
29.518213416063965
 20
-4.299705600474721
 30
0.0
 10
29.562322049915576
 20
-4.3093998819085
 30
0.0
 10
29.606963999341502
 20
-4.316229744588361
 30
0.0
 10
29.651953448998917
 20
-4.320166760246908
 30
0.0
 10
29.697103137127993
 20
-4.32119454165366
 30
0.0
 10
29.742225135000567
 20
-4.319308810824416
 30
0.0
 10
29.78713162914497
 20
-4.3145174168277105
 30
0.0
 10
29.822273342860196
 20
-4.286151757485298
 30
0.0
 10
29.85551282659343
 20
-4.255579099865768
 30
0.0
 10
29.886711726035664
 20
-4.222926698018948
 30
0.0
 10
29.915740180500478
 20
-4.188330462614542
 30
0.0
 10
29.942477363449434
 20
-4.151934395234579
 30
0.0
 10
29.96681198541423
 20
-4.113889988988675
 30
0.0
 10
29.988642757222202
 20
-4.074355597946937
 30
0.0
 10
30.00787881159718
 20
-4.033495778015178
 30
0.0
 10
30.024440081380703
 20
-3.99148060199591
 30
0.0
 10
30.038257632799457
 20
-3.9484849516861047
 30
0.0
 10
30.04927395239161
 20
-3.904687789958244
 30
0.0
 10
30.05744318639791
 20
-3.8602714158545077
 30
0.0
 10
30.062731331620988
 20
-3.81542070579466
 30
0.0
 10
30.065116376958493
 20
-3.770322344056002
 30
0.0
 10
30.064588395020994
 20
-3.7251640457283797
 30
0.0
 10
30.06114958345322
 20
-3.680133775378601
 30
0.0
 10
30.05481425578669
 20
-3.6354189646764348
 30
0.0
 10
30.04560878186183
 20
-3.5912057322387185
 30
0.0
 10
30.03357147806748
 20
-3.547678108938849
 30
0.0
 10
30.018752447854773
 20
-3.5050172719061825
 30
0.0
 10
30.001213373189096
 20
-3.463400790403723
 30
0.0
 10
29.070602133560516
 20
-1.8528380457864562
 30
0.0
 10
29.150431139746445
 20
-1.8058151675268297
 30
0.0
 10
29.273596045630818
 20
-1.7211662729445407
 30
0.0
 10
29.390556119602305
 20
-1.6281320292914945
 30
0.0
 10
29.500741543937302
 20
-1.527165690050999
 30
0.0
 10
29.603615506324246
 20
-1.4187591530787331
 30
0.0
 10
29.69867681515925
 20
-1.30344056412584
 30
0.0
 10
29.78546234130119
 20
-1.1817717437659128
 30
0.0
 10
29.853391274844803
 20
-1.0709217989579107
 30
0.0
 10
31.46340079040372
 20
-2.001213373189095
 30
0.0
 10
31.50501727190618
 20
-2.0187524478547734
 30
0.0
 10
31.547678108938847
 20
-2.0335714780674814
 30
0.0
 10
31.591205732238716
 20
-2.04560878186183
 30
0.0
 10
31.635418964676433
 20
-2.0548142557866935
 30
0.0
 10
31.6801337753786
 20
-2.0611495834532216
 30
0.0
 10
31.725164045728377
 20
-2.064588395020996
 30
0.0
 10
31.770322344056
 20
-2.0651163769584935
 30
0.0
 10
31.815420705794658
 20
-2.0627313316209883
 30
0.0
 10
31.860271415854506
 20
-2.0574431863979132
 30
0.0
 10
31.904687789958246
 20
-2.0492739523916117
 30
0.0
 10
31.948484951686105
 20
-2.038257632799457
 30
0.0
 10
31.99148060199591
 20
-2.024440081380707
 30
0.0
 10
32.03349577801518
 20
-2.0078788115971804
 30
0.0
 10
32.07435559794693
 20
-1.9886427572222038
 30
0.0
 10
32.113889988988674
 20
-1.9668119854142294
 30
0.0
 10
32.151934395234576
 20
-1.9424773634494361
 30
0.0
 10
32.18833046261454
 20
-1.9157401805004786
 30
0.0
 10
32.222926698018945
 20
-1.8867117260356652
 30
0.0
 10
32.25557909986576
 20
-1.8555128265934306
 30
0.0
 10
32.2861517574853
 20
-1.8222733428601987
 30
0.0
 10
32.31451741682771
 20
-1.7871316291449704
 30
0.0
 10
32.31930881082442
 20
-1.7422251350005695
 30
0.0
 10
32.32119454165366
 20
-1.6971031371279972
 30
0.0
 10
32.320166760246906
 20
-1.6519534489989212
 30
0.0
 10
32.31622974458836
 20
-1.6069639993415048
 30
0.0
 10
32.3093998819085
 20
-1.5623220499155768
 30
0.0
 10
32.299705600474724
 20
-1.5182134160639662
 30
0.0
 10
32.287187251262985
 20
-1.4748216932843174
 30
0.0
 10
32.27189694000299
 20
-1.4323274930406902
 30
0.0
 10
32.253898310296016
 20
-1.3909076909957285
 30
0.0
 10
32.233266278708015
 20
-1.3507346907925475
 30
0.0
 10
32.21008672294085
 20
-1.3119757064507225
 30
0.0
 10
32.18445612437934
 20
-1.2747920663632961
 30
0.0
 10
32.156481166502125
 20
-1.239338541791811
 30
0.0
 10
32.126278290827905
 20
-1.2057627026544142
 30
0.0
 10
32.093973212245245
 20
-1.174204303288456
 30
0.0
 10
32.05970039574346
 20
-1.1447947007442598
 30
0.0
 10
32.02360249672245
 20
-1.117656308031326
 30
0.0
 10
31.98582976721125
 20
-1.0929020845927466
 30
0.0
 10
31.946539430466792
 20
-1.0706350661286617
 30
0.0
 10
31.905895026555886
 20
-1.050947935725783
 30
0.0
 10
31.864065731644533
 20
-1.0339226380781077
 30
0.0
 10
30.067197014324066
 20
-0.5531276999181609
 30
0.0
 10
30.081975527992903
 20
-0.49983810119570604
 30
0.0
 10
30.111770883628807
 20
-0.35338924944861994
 30
0.0
 10
30.13127790379414
 20
-0.2052187208007843
 30
0.0
 10
30.140401552247493
 20
-0.05604838717371974
 30
0.0
 10
30.139097379490707
 20
0.09339500856169092
 30
0.0
 10
30.12737173932236
 20
0.24238339320342128
 30
0.0
 10
30.105281757882697
 20
0.39019091031776026
 30
0.0
 10
30.072935055340807
 20
0.5360974565388823
 30
0.0
 10
30.067839541400392
 20
0.5532996233107537
 30
0.0
 10
31.864065731644533
 20
1.033922638078106
 30
0.0
 10
31.905895026555886
 20
1.0509479357257816
 30
0.0
 10
31.946539430466792
 20
1.0706350661286599
 30
0.0
 10
31.98582976721125
 20
1.0929020845927446
 30
0.0
 10
32.02360249672245
 20
1.1176563080313238
 30
0.0
 10
32.05970039574346
 20
1.144794700744258
 30
0.0
 10
32.093973212245245
 20
1.174204303288454
 30
0.0
 10
32.126278290827905
 20
1.2057627026544122
 30
0.0
 10
32.156481166502125
 20
1.2393385417918088
 30
0.0
 10
32.18445612437934
 20
1.2747920663632941
 30
0.0
 10
32.21008672294086
 20
1.311975706450721
 30
0.0
 10
32.233266278708015
 20
1.350734690792545
 30
0.0
 10
32.253898310296016
 20
1.3909076909957259
 30
0.0
 10
32.271896940002996
 20
1.4323274930406882
 30
0.0
 10
32.287187251262985
 20
1.4748216932843157
 30
0.0
 10
32.299705600474724
 20
1.518213416063963
 30
0.0
 10
32.3093998819085
 20
1.5623220499155748
 30
0.0
 10
32.31622974458836
 20
1.6069639993415021
 30
0.0
 10
32.320166760246906
 20
1.6519534489989183
 30
0.0
 10
32.32119454165366
 20
1.6971031371279937
 30
0.0
 10
32.31930881082442
 20
1.7422251350005666
 30
0.0
 10
32.31451741682771
 20
1.7871316291449681
 30
0.0
 10
32.2861517574853
 20
1.8222733428601963
 30
0.0
 10
32.25557909986577
 20
1.8555128265934282
 30
0.0
 10
32.222926698018945
 20
1.8867117260356623
 30
0.0
 10
32.188330462614545
 20
1.9157401805004761
 30
0.0
 10
32.151934395234576
 20
1.9424773634494343
 30
0.0
 10
32.113889988988674
 20
1.9668119854142274
 30
0.0
 10
32.07435559794694
 20
1.9886427572222019
 30
0.0
 10
32.03349577801518
 20
2.0078788115971786
 30
0.0
 10
31.99148060199591
 20
2.0244400813807046
 30
0.0
 10
31.948484951686105
 20
2.038257632799455
 30
0.0
 10
31.904687789958246
 20
2.0492739523916095
 30
0.0
 10
31.86027141585451
 20
2.0574431863979115
 30
0.0
 10
31.81542070579466
 20
2.0627313316209857
 30
0.0
 10
31.770322344056
 20
2.0651163769584917
 30
0.0
 10
31.72516404572838
 20
2.064588395020994
 30
0.0
 10
31.6801337753786
 20
2.06114958345322
 30
0.0
 10
31.635418964676436
 20
2.054814255786692
 30
0.0
 10
31.59120573223872
 20
2.0456087818618283
 30
0.0
 10
31.54767810893885
 20
2.0335714780674796
 30
0.0
 10
31.505017271906183
 20
2.018752447854772
 30
0.0
 10
31.463400790403725
 20
2.0012133731890933
 30
0.0
 10
29.853425277800895
 20
1.0709414464588995
 30
0.0
 10
29.844864581486302
 20
1.086708287695291
 30
0.0
 10
29.76456564595023
 20
1.212752368664148
 30
0.0
 10
29.67566992396061
 20
1.332888041998316
 30
0.0
 10
29.578610506539203
 20
1.4465300187733057
 30
0.0
 10
29.47386025741131
 20
1.5531246467015198
 30
0.0
 10
29.361929509261223
 20
1.6521526074705495
 30
0.0
 10
29.243363577442693
 20
1.7431314468097805
 30
0.0
 10
29.118740103257334
 20
1.825617924959115
 30
0.0
 10
29.070608679402884
 20
1.8528493743513805
 30
0.0
 10
30.001213373189096
 20
3.463400790403721
 30
0.0
 10
30.018752447854773
 20
3.505017271906181
 30
0.0
 10
30.033571478067483
 20
3.5476781089388476
 30
0.0
 10
30.04560878186183
 20
3.591205732238718
 30
0.0
 10
30.054814255786695
 20
3.6354189646764343
 30
0.0
 10
30.061149583453222
 20
3.6801337753786005
 30
0.0
 10
30.064588395020998
 20
3.725164045728379
 30
0.0
 10
30.065116376958493
 20
3.7703223440560008
 30
0.0
 10
30.062731331620988
 20
3.815420705794659
 30
0.0
 10
30.057443186397915
 20
3.860271415854507
 30
0.0
 10
30.049273952391612
 20
3.9046877899582437
 30
0.0
 10
30.038257632799457
 20
3.948484951686104
 30
0.0
 10
30.024440081380707
 20
3.9914806019959093
 30
0.0
 10
30.00787881159718
 20
4.033495778015177
 30
0.0
 10
29.988642757222205
 20
4.074355597946936
 30
0.0
 10
29.96681198541423
 20
4.113889988988673
 30
0.0
 10
29.942477363449438
 20
4.151934395234578
 30
0.0
 10
29.915740180500478
 20
4.188330462614541
 30
0.0
 10
29.886711726035664
 20
4.222926698018947
 30
0.0
 10
29.855512826593433
 20
4.255579099865766
 30
0.0
 10
29.8222733428602
 20
4.286151757485297
 30
0.0
 10
29.78713162914497
 20
4.31451741682771
 30
0.0
 10
29.74222513500057
 20
4.319308810824417
 30
0.0
 10
29.697103137127996
 20
4.32119454165366
 30
0.0
 10
29.65195344899892
 20
4.320166760246907
 30
0.0
 10
29.606963999341506
 20
4.31622974458836
 30
0.0
 10
29.56232204991558
 20
4.309399881908499
 30
0.0
 10
29.518213416063965
 20
4.29970560047472
 30
0.0
 10
29.47482169328432
 20
4.287187251262982
 30
0.0
 10
29.43232749304069
 20
4.271896940002993
 30
0.0
 10
29.39090769099573
 20
4.253898310296014
 30
0.0
 10
29.35073469079255
 20
4.233266278708017
 30
0.0
 10
29.311975706450724
 20
4.210086722940853
 30
0.0
 10
29.274792066363297
 20
4.184456124379339
 30
0.0
 10
29.23933854179181
 20
4.1564811665021235
 30
0.0
 10
29.205762702654415
 20
4.126278290827903
 30
0.0
 10
29.174204303288455
 20
4.093973212245247
 30
0.0
 10
29.14479470074426
 20
4.05970039574346
 30
0.0
 10
29.117656308031325
 20
4.023602496722444
 30
0.0
 10
29.092902084592748
 20
3.9858297672112513
 30
0.0
 10
29.070635066128663
 20
3.9465394304667933
 30
0.0
 10
29.050947935725784
 20
3.9058950265558865
 30
0.0
 10
29.03392263807811
 20
3.8640657316445344
 30
0.0
 10
28.553289472471107
 20
2.067801604798375
 30
0.0
 10
28.426873715255756
 20
2.098151342918809
 30
0.0
 10
28.279474233276474
 20
2.122817556810472
 30
0.0
 10
28.13071318092532
 20
2.137141616950229
 30
0.0
 10
27.98131530709594
 20
2.1410537379569288
 30
0.0
 10
27.832008463212212
 20
2.134534860370271
 30
0.0
 10
27.68352005720926
 20
2.1176167435065834
 30
0.0
 10
27.536573509675137
 20
2.090381810730622
 30
0.0
 10
27.446875681977392
 20
2.067184375209461
 30
0.0
 10
26.966077361921894
 20
3.864065731644535
 30
0.0
 10
26.94905206427422
 20
3.905895026555887
 30
0.0
 10
26.92936493387134
 20
3.9465394304667933
 30
0.0
 10
26.907097915407256
 20
3.9858297672112517
 30
0.0
 10
26.882343691968675
 20
4.023602496722445
 30
0.0
 10
26.855205299255744
 20
4.05970039574346
 30
0.0
 10
26.825795696711545
 20
4.093973212245247
 30
0.0
 10
26.79423729734559
 20
4.126278290827903
 30
0.0
 10
26.76066145820819
 20
4.156481166502124
 30
0.0
 10
26.725207933636707
 20
4.18445612437934
 30
0.0
 10
26.68802429354928
 20
4.210086722940854
 30
0.0
 10
26.649265309207454
 20
4.233266278708018
 30
0.0
 10
26.609092309004275
 20
4.253898310296014
 30
0.0
 10
26.567672506959312
 20
4.271896940002994
 30
0.0
 10
26.525178306715684
 20
4.287187251262983
 30
0.0
 10
26.48178658393604
 20
4.299705600474721
 30
0.0
 10
26.437677950084424
 20
4.3093998819085
 30
0.0
 10
26.393036000658498
 20
4.316229744588361
 30
0.0
 10
26.348046551001083
 20
4.320166760246908
 30
0.0
 10
26.302896862872007
 20
4.321194541653661
 30
0.0
 10
26.257774864999433
 20
4.319308810824416
 30
0.0
 10
26.21286837085503
 20
4.3145174168277105
 30
0.0
 10
26.177726657139804
 20
4.286151757485298
 30
0.0
 10
26.14448717340657
 20
4.255579099865768
 30
0.0
 10
26.113288273964336
 20
4.222926698018948
 30
0.0
 10
26.084259819499525
 20
4.188330462614542
 30
0.0
 10
26.057522636550566
 20
4.151934395234579
 30
0.0
 10
26.03318801458577
 20
4.113889988988675
 30
0.0
 10
26.011357242777798
 20
4.074355597946938
 30
0.0
 10
25.99212118840282
 20
4.033495778015178
 30
0.0
 10
25.975559918619297
 20
3.99148060199591
 30
0.0
 10
25.961742367200547
 20
3.9484849516861047
 30
0.0
 10
25.95072604760839
 20
3.9046877899582446
 30
0.0
 10
25.94255681360209
 20
3.860271415854508
 30
0.0
 10
25.937268668379016
 20
3.81542070579466
 30
0.0
 10
25.934883623041507
 20
3.770322344056002
 30
0.0
 10
25.935411604979006
 20
3.7251640457283797
 30
0.0
 10
25.93885041654678
 20
3.6801337753786014
 30
0.0
 10
25.94518574421331
 20
3.6354189646764348
 30
0.0
 10
25.95439121813817
 20
3.5912057322387185
 30
0.0
 10
25.96642852193252
 20
3.547678108938849
 30
0.0
 10
25.981247552145227
 20
3.5050172719061825
 30
0.0
 10
25.998786626810908
 20
3.4634007904037225
 30
0.0
 10
26.929397866439484
 20
1.8528380457864564
 30
0.0
 10
26.849568860253555
 20
1.8058151675268306
 30
0.0
 10
26.726403954369182
 20
1.721166272944541
 30
0.0
 10
26.6094438803977
 20
1.6281320292914945
 30
0.0
 10
26.499258456062698
 20
1.527165690050999
 30
0.0
 10
26.396384493675754
 20
1.4187591530787336
 30
0.0
 10
26.30132318484075
 20
1.3034405641258395
 30
0.0
 10
26.21453765869881
 20
1.1817717437659137
 30
0.0
 10
26.146608725155197
 20
1.0709217989579094
 30
0.0
 10
24.536599209596275
 20
2.001213373189093
 30
0.0
 10
24.494982728093817
 20
2.0187524478547707
 30
0.0
 10
24.45232189106115
 20
2.033571478067479
 30
0.0
 10
24.40879426776128
 20
2.045608781861828
 30
0.0
 10
24.364581035323564
 20
2.0548142557866917
 30
0.0
 10
24.3198662246214
 20
2.061149583453219
 30
0.0
 10
24.27483595427162
 20
2.064588395020993
 30
0.0
 10
24.229677655944
 20
2.065116376958491
 30
0.0
 10
24.18457929420534
 20
2.0627313316209848
 30
0.0
 10
24.13972858414549
 20
2.0574431863979106
 30
0.0
 10
24.095312210041754
 20
2.0492739523916086
 30
0.0
 10
24.051515048313895
 20
2.038257632799454
 30
0.0
 10
24.00851939800409
 20
2.024440081380704
 30
0.0
 10
23.96650422198482
 20
2.0078788115971777
 30
0.0
 10
23.925644402053063
 20
1.988642757222201
 30
0.0
 10
23.886110011011326
 20
1.9668119854142256
 30
0.0
 10
23.84806560476542
 20
1.9424773634494334
 30
0.0
 10
23.81166953738546
 20
1.9157401805004746
 30
0.0
 10
23.77707330198105
 20
1.8867117260356614
 30
0.0
 10
23.744420900134234
 20
1.8555128265934273
 30
0.0
 10
23.7138482425147
 20
1.8222733428601952
 30
0.0
 10
23.685482583172288
 20
1.7871316291449673
 30
0.0
 10
23.680691189175583
 20
1.7422251350005657
 30
0.0
 10
23.67880545834634
 20
1.6971031371279934
 30
0.0
 10
23.679833239753094
 20
1.651953448998918
 30
0.0
 10
23.683770255411638
 20
1.6069639993415017
 30
0.0
 10
23.6906001180915
 20
1.5623220499155737
 30
0.0
 10
23.700294399525276
 20
1.5182134160639624
 30
0.0
 10
23.712812748737015
 20
1.4748216932843148
 30
0.0
 10
23.728103059997004
 20
1.4323274930406868
 30
0.0
 10
23.746101689703984
 20
1.390907690995725
 30
0.0
 10
23.76673372129198
 20
1.3507346907925435
 30
0.0
 10
23.789913277059146
 20
1.3119757064507198
 30
0.0
 10
23.815543875620662
 20
1.2747920663632932
 30
0.0
 10
23.843518833497875
 20
1.239338541791808
 30
0.0
 10
23.873721709172095
 20
1.2057627026544113
 30
0.0
 10
23.906026787754755
 20
1.174204303288453
 30
0.0
 10
23.94029960425654
 20
1.144794700744257
 30
0.0
 10
23.976397503277553
 20
1.1176563080313227
 30
0.0
 10
24.01417023278875
 20
1.0929020845927437
 30
0.0
 10
24.053460569533208
 20
1.0706350661286588
 30
0.0
 10
24.094104973444114
 20
1.0509479357257805
 30
0.0
 10
24.135934268355467
 20
1.0339226380781046
 30
0.0
 10
25.932802985675934
 20
0.5531276999181594
 30
0.0
 10
25.918024472007097
 20
0.4998381011957065
 30
0.0
 10
25.888229116371193
 20
0.35338924944862193
 30
0.0
 10
25.868722096205857
 20
0.2052187208007834
 30
0.0
 10
25.859598447752507
 20
0.05604838717371896
 30
0.0
 10
25.860902620509293
 20
-0.09339500856169147
 30
0.0
 10
25.872628260677637
 20
-0.24238339320342106
 30
0.0
 10
25.894718242117303
 20
-0.3901909103177592
 30
0.0
 10
25.927064944659193
 20
-0.5360974565388821
 30
0.0
 10
25.932160458599608
 20
-0.5532996233107539
 30
0.0
 10
24.135934268355467
 20
-1.0339226380781064
 30
0.0
 10
24.094104973444114
 20
-1.050947935725782
 30
0.0
 10
24.053460569533208
 20
-1.07063506612866
 30
0.0
 10
24.01417023278875
 20
-1.092902084592745
 30
0.0
 10
23.976397503277553
 20
-1.1176563080313244
 30
0.0
 10
23.94029960425654
 20
-1.1447947007442585
 30
0.0
 10
23.906026787754755
 20
-1.1742043032884544
 30
0.0
 10
23.873721709172095
 20
-1.2057627026544129
 30
0.0
 10
23.843518833497875
 20
-1.2393385417918092
 30
0.0
 10
23.815543875620662
 20
-1.2747920663632948
 30
0.0
 10
23.789913277059146
 20
-1.3119757064507214
 30
0.0
 10
23.766733721291985
 20
-1.3507346907925455
 30
0.0
 10
23.746101689703984
 20
-1.3909076909957265
 30
0.0
 10
23.728103059997007
 20
-1.4323274930406886
 30
0.0
 10
23.712812748737015
 20
-1.4748216932843161
 30
0.0
 10
23.70029439952528
 20
-1.5182134160639635
 30
0.0
 10
23.6906001180915
 20
-1.5623220499155752
 30
0.0
 10
23.68377025541164
 20
-1.6069639993415028
 30
0.0
 10
23.679833239753094
 20
-1.651953448998919
 30
0.0
 10
23.67880545834634
 20
-1.6971031371279943
 30
0.0
 10
23.680691189175583
 20
-1.742225135000567
 30
0.0
 10
23.685482583172288
 20
-1.7871316291449688
 30
0.0
 10
23.7138482425147
 20
-1.8222733428601967
 30
0.0
 10
23.74442090013423
 20
-1.8555128265934289
 30
0.0
 10
23.77707330198105
 20
-1.886711726035663
 30
0.0
 10
23.81166953738546
 20
-1.9157401805004768
 30
0.0
 10
23.84806560476542
 20
-1.9424773634494348
 30
0.0
 10
23.886110011011326
 20
-1.9668119854142279
 30
0.0
 10
23.925644402053063
 20
-1.9886427572222023
 30
0.0
 10
23.966504221984824
 20
-2.007878811597179
 30
0.0
 10
24.00851939800409
 20
-2.024440081380705
 30
0.0
 10
24.051515048313895
 20
-2.0382576327994553
 30
0.0
 10
24.095312210041754
 20
-2.0492739523916104
 30
0.0
 10
24.13972858414549
 20
-2.057443186397912
 30
0.0
 10
24.184579294205342
 20
-2.062731331620986
 30
0.0
 10
24.229677655944
 20
-2.065116376958492
 30
0.0
 10
24.27483595427162
 20
-2.0645883950209942
 30
0.0
 10
24.3198662246214
 20
-2.0611495834532203
 30
0.0
 10
24.364581035323564
 20
-2.0548142557866926
 30
0.0
 10
24.40879426776128
 20
-2.045608781861829
 30
0.0
 10
24.452321891061153
 20
-2.03357147806748
 30
0.0
 10
24.494982728093817
 20
-2.018752447854772
 30
0.0
 10
24.536599209596275
 20
-2.0012133731890938
 30
0.0
 10
26.146574722199105
 20
-1.0709414464588998
 30
0.0
  0
ENDSEC
  0
EOF
