999
DXF generated by OpenJsCad
  0
SECTION
  2
HEADER
  0
ENDSEC
  0
SECTION
  2
TABLES
  0
TABLE
  2
LTYPE
  70
1
  0
LTYPE
  2
CONTINUOUS
  3
Solid Line
  72
65
  73
0
  40
0.0
  0
ENDTAB
  0
TABLE
  2
LAYER
  70
1
  0
LAYER
  2
OpenJsCad
  62
7
  6
continuous
  0
ENDTAB
  0
TABLE
  2
STYLE
  70
0
  0
ENDTAB
  0
TABLE
  2
VIEW
  70
0
  0
ENDTAB
  0
ENDSEC
  0
SECTION
  2
BLOCKS
  0
ENDSEC
  0
SECTION
  2
ENTITIES
  0
LWPOLYLINE
  8
OpenJsCad
  90
421
  70
1
 10
42.16867730252009
 20
-1.0581701901137226
 30
0.0
 10
42.177135910296144
 20
-1.0737490076520397
 30
0.0
 10
42.25647726006189
 20
-1.1982899800483713
 30
0.0
 10
42.344312877358334
 20
-1.316993004113595
 30
0.0
 10
42.44021483588719
 20
-1.4292797706464515
 30
0.0
 10
42.543715910946545
 20
-1.5346032298074181
 30
0.0
 10
42.65431185570261
 20
-1.6324502562905407
 30
0.0
 10
42.77146385782959
 20
-1.7223441492183413
 30
0.0
 10
42.89460116454921
 20
-1.803846954580579
 30
0.0
 10
42.942158608608274
 20
-1.8307536618293878
 30
0.0
 10
41.998786626810904
 20
-3.463400790403722
 30
0.0
 10
41.98124755214523
 20
-3.505017271906182
 30
0.0
 10
41.96642852193252
 20
-3.5476781089388476
 30
0.0
 10
41.95439121813817
 20
-3.591205732238718
 30
0.0
 10
41.945185744213305
 20
-3.6354189646764343
 30
0.0
 10
41.93885041654678
 20
-3.680133775378601
 30
0.0
 10
41.935411604979
 20
-3.7251640457283797
 30
0.0
 10
41.93488362304151
 20
-3.7703223440560016
 30
0.0
 10
41.93726866837901
 20
-3.8154207057946596
 30
0.0
 10
41.94255681360209
 20
-3.8602714158545073
 30
0.0
 10
41.95072604760839
 20
-3.9046877899582437
 30
0.0
 10
41.96174236720054
 20
-3.9484849516861042
 30
0.0
 10
41.9755599186193
 20
-3.9914806019959093
 30
0.0
 10
41.99212118840282
 20
-4.033495778015177
 30
0.0
 10
42.0113572427778
 20
-4.074355597946936
 30
0.0
 10
42.03318801458577
 20
-4.1138899889886735
 30
0.0
 10
42.057522636550566
 20
-4.151934395234578
 30
0.0
 10
42.08425981949952
 20
-4.18833046261454
 30
0.0
 10
42.113288273964336
 20
-4.222926698018947
 30
0.0
 10
42.14448717340657
 20
-4.255579099865766
 30
0.0
 10
42.1777266571398
 20
-4.286151757485297
 30
0.0
 10
42.21286837085503
 20
-4.31451741682771
 30
0.0
 10
42.25777486499943
 20
-4.319308810824417
 30
0.0
 10
42.302896862872004
 20
-4.321194541653661
 30
0.0
 10
42.348046551001076
 20
-4.320166760246908
 30
0.0
 10
42.3930360006585
 20
-4.316229744588361
 30
0.0
 10
42.43767795008442
 20
-4.309399881908499
 30
0.0
 10
42.481786583936035
 20
-4.299705600474721
 30
0.0
 10
42.52517830671568
 20
-4.287187251262982
 30
0.0
 10
42.56767250695931
 20
-4.271896940002993
 30
0.0
 10
42.60909230900427
 20
-4.253898310296013
 30
0.0
 10
42.64926530920745
 20
-4.233266278708017
 30
0.0
 10
42.688024293549276
 20
-4.210086722940854
 30
0.0
 10
42.7252079336367
 20
-4.184456124379339
 30
0.0
 10
42.76066145820819
 20
-4.156481166502124
 30
0.0
 10
42.79423729734559
 20
-4.126278290827903
 30
0.0
 10
42.825795696711545
 20
-4.093973212245247
 30
0.0
 10
42.85520529925574
 20
-4.05970039574346
 30
0.0
 10
42.88234369196867
 20
-4.023602496722444
 30
0.0
 10
42.907097915407256
 20
-3.985829767211251
 30
0.0
 10
42.92936493387134
 20
-3.946539430466793
 30
0.0
 10
42.94905206427422
 20
-3.9058950265558865
 30
0.0
 10
42.96607736192189
 20
-3.8640657316445344
 30
0.0
 10
43.45330864893822
 20
-2.0431425308096247
 30
0.0
 10
43.57821686524477
 20
-2.0731303403794117
 30
0.0
 10
43.723858569919116
 20
-2.097502403230682
 30
0.0
 10
43.870845607883176
 20
-2.111655645213617
 30
0.0
 10
44.01846187306307
 20
-2.115521113155954
 30
0.0
 10
44.16598819385319
 20
-2.1090799748864337
 30
0.0
 10
44.312705836847925
 20
-2.092363610983245
 30
0.0
 10
44.457900008438614
 20
-2.0654534618910003
 30
0.0
 10
44.546528166123196
 20
-2.0425326618447017
 30
0.0
 10
45.0339226380781
 20
-3.864065731644535
 30
0.0
 10
45.05094793572578
 20
-3.9058950265558865
 30
0.0
 10
45.07063506612866
 20
-3.9465394304667933
 30
0.0
 10
45.092902084592744
 20
-3.9858297672112513
 30
0.0
 10
45.11765630803132
 20
-4.023602496722445
 30
0.0
 10
45.14479470074426
 20
-4.05970039574346
 30
0.0
 10
45.174204303288455
 20
-4.093973212245247
 30
0.0
 10
45.20576270265441
 20
-4.126278290827903
 30
0.0
 10
45.23933854179181
 20
-4.156481166502124
 30
0.0
 10
45.2747920663633
 20
-4.18445612437934
 30
0.0
 10
45.311975706450724
 20
-4.210086722940854
 30
0.0
 10
45.35073469079254
 20
-4.233266278708017
 30
0.0
 10
45.390907690995725
 20
-4.253898310296014
 30
0.0
 10
45.43232749304069
 20
-4.271896940002994
 30
0.0
 10
45.47482169328432
 20
-4.287187251262983
 30
0.0
 10
45.518213416063965
 20
-4.299705600474721
 30
0.0
 10
45.56232204991557
 20
-4.3093998819085
 30
0.0
 10
45.6069639993415
 20
-4.316229744588361
 30
0.0
 10
45.65195344899892
 20
-4.320166760246908
 30
0.0
 10
45.697103137127996
 20
-4.32119454165366
 30
0.0
 10
45.74222513500057
 20
-4.319308810824416
 30
0.0
 10
45.787131629144966
 20
-4.3145174168277105
 30
0.0
 10
45.8222733428602
 20
-4.286151757485298
 30
0.0
 10
45.855512826593426
 20
-4.255579099865768
 30
0.0
 10
45.886711726035664
 20
-4.222926698018948
 30
0.0
 10
45.91574018050048
 20
-4.188330462614542
 30
0.0
 10
45.942477363449434
 20
-4.151934395234579
 30
0.0
 10
45.966811985414225
 20
-4.113889988988675
 30
0.0
 10
45.9886427572222
 20
-4.074355597946937
 30
0.0
 10
46.00787881159718
 20
-4.033495778015178
 30
0.0
 10
46.0244400813807
 20
-3.99148060199591
 30
0.0
 10
46.03825763279946
 20
-3.9484849516861047
 30
0.0
 10
46.04927395239161
 20
-3.904687789958244
 30
0.0
 10
46.05744318639791
 20
-3.8602714158545077
 30
0.0
 10
46.06273133162099
 20
-3.81542070579466
 30
0.0
 10
46.06511637695849
 20
-3.770322344056002
 30
0.0
 10
46.06458839502099
 20
-3.7251640457283797
 30
0.0
 10
46.06114958345322
 20
-3.680133775378601
 30
0.0
 10
46.054814255786695
 20
-3.6354189646764348
 30
0.0
 10
46.04560878186183
 20
-3.5912057322387185
 30
0.0
 10
46.03357147806748
 20
-3.547678108938849
 30
0.0
 10
46.01875244785477
 20
-3.5050172719061825
 30
0.0
 10
46.001213373189096
 20
-3.463400790403723
 30
0.0
 10
45.05783492361024
 20
-1.830742468360558
 30
0.0
 10
45.13671194805603
 20
-1.7842803502006805
 30
0.0
 10
45.25840808028244
 20
-1.7006409157860043
 30
0.0
 10
45.37397337483645
 20
-1.6087161297774462
 30
0.0
 10
45.482844809219586
 20
-1.5089538404921914
 30
0.0
 10
45.58449197274724
 20
-1.4018400797755686
 30
0.0
 10
45.67841965065624
 20
-1.2878966951027517
 30
0.0
 10
45.7641702367414
 20
-1.1676788071903172
 30
0.0
 10
45.83128910001795
 20
-1.0581507769143124
 30
0.0
 10
47.463400790403725
 20
-2.001213373189095
 30
0.0
 10
47.50501727190618
 20
-2.0187524478547734
 30
0.0
 10
47.54767810893885
 20
-2.0335714780674814
 30
0.0
 10
47.59120573223872
 20
-2.04560878186183
 30
0.0
 10
47.63541896467643
 20
-2.0548142557866935
 30
0.0
 10
47.6801337753786
 20
-2.0611495834532216
 30
0.0
 10
47.72516404572838
 20
-2.064588395020996
 30
0.0
 10
47.770322344056
 20
-2.0651163769584935
 30
0.0
 10
47.81542070579466
 20
-2.0627313316209883
 30
0.0
 10
47.860271415854506
 20
-2.0574431863979132
 30
0.0
 10
47.904687789958246
 20
-2.0492739523916117
 30
0.0
 10
47.948484951686105
 20
-2.038257632799457
 30
0.0
 10
47.99148060199591
 20
-2.024440081380707
 30
0.0
 10
48.03349577801518
 20
-2.0078788115971804
 30
0.0
 10
48.07435559794693
 20
-1.9886427572222038
 30
0.0
 10
48.113889988988674
 20
-1.9668119854142294
 30
0.0
 10
48.151934395234576
 20
-1.9424773634494361
 30
0.0
 10
48.18833046261454
 20
-1.9157401805004786
 30
0.0
 10
48.222926698018945
 20
-1.8867117260356652
 30
0.0
 10
48.25557909986576
 20
-1.8555128265934306
 30
0.0
 10
48.2861517574853
 20
-1.8222733428601987
 30
0.0
 10
48.31451741682771
 20
-1.7871316291449704
 30
0.0
 10
48.31930881082442
 20
-1.7422251350005695
 30
0.0
 10
48.32119454165366
 20
-1.6971031371279972
 30
0.0
 10
48.320166760246906
 20
-1.6519534489989212
 30
0.0
 10
48.31622974458836
 20
-1.6069639993415048
 30
0.0
 10
48.3093998819085
 20
-1.5623220499155768
 30
0.0
 10
48.299705600474724
 20
-1.5182134160639662
 30
0.0
 10
48.287187251262985
 20
-1.4748216932843174
 30
0.0
 10
48.27189694000299
 20
-1.4323274930406902
 30
0.0
 10
48.253898310296016
 20
-1.3909076909957285
 30
0.0
 10
48.233266278708015
 20
-1.3507346907925475
 30
0.0
 10
48.21008672294085
 20
-1.3119757064507225
 30
0.0
 10
48.18445612437934
 20
-1.2747920663632961
 30
0.0
 10
48.156481166502125
 20
-1.239338541791811
 30
0.0
 10
48.126278290827905
 20
-1.2057627026544142
 30
0.0
 10
48.093973212245245
 20
-1.174204303288456
 30
0.0
 10
48.05970039574346
 20
-1.1447947007442598
 30
0.0
 10
48.02360249672245
 20
-1.117656308031326
 30
0.0
 10
47.98582976721125
 20
-1.0929020845927466
 30
0.0
 10
47.94653943046679
 20
-1.0706350661286617
 30
0.0
 10
47.90589502655589
 20
-1.050947935725783
 30
0.0
 10
47.86406573164454
 20
-1.0339226380781077
 30
0.0
 10
46.04254515023457
 20
-0.5465315076887622
 30
0.0
 10
46.0571474262696
 20
-0.49387740134366076
 30
0.0
 10
46.08658746451072
 20
-0.3491749903878083
 30
0.0
 10
46.10586185836778
 20
-0.2027714339777349
 30
0.0
 10
46.114876704931376
 20
-0.055379995523834324
 30
0.0
 10
46.1135880847752
 20
0.09228124870148058
 30
0.0
 10
46.102002275927134
 20
0.23949290795919975
 30
0.0
 10
46.08017572328328
 20
0.3855377818430864
 30
0.0
 10
46.04821476361412
 20
0.529704354407954
 30
0.0
 10
46.043180015007756
 20
0.5467013808500133
 30
0.0
 10
47.86406573164454
 20
1.033922638078106
 30
0.0
 10
47.90589502655589
 20
1.0509479357257816
 30
0.0
 10
47.94653943046679
 20
1.0706350661286599
 30
0.0
 10
47.98582976721125
 20
1.0929020845927446
 30
0.0
 10
48.02360249672245
 20
1.1176563080313238
 30
0.0
 10
48.05970039574346
 20
1.144794700744258
 30
0.0
 10
48.093973212245245
 20
1.174204303288454
 30
0.0
 10
48.126278290827905
 20
1.2057627026544122
 30
0.0
 10
48.156481166502125
 20
1.2393385417918088
 30
0.0
 10
48.18445612437934
 20
1.2747920663632941
 30
0.0
 10
48.21008672294086
 20
1.311975706450721
 30
0.0
 10
48.233266278708015
 20
1.350734690792545
 30
0.0
 10
48.253898310296016
 20
1.3909076909957259
 30
0.0
 10
48.271896940002996
 20
1.4323274930406882
 30
0.0
 10
48.287187251262985
 20
1.4748216932843157
 30
0.0
 10
48.299705600474724
 20
1.518213416063963
 30
0.0
 10
48.3093998819085
 20
1.5623220499155748
 30
0.0
 10
48.31622974458836
 20
1.6069639993415021
 30
0.0
 10
48.320166760246906
 20
1.6519534489989183
 30
0.0
 10
48.32119454165366
 20
1.6971031371279937
 30
0.0
 10
48.31930881082442
 20
1.7422251350005666
 30
0.0
 10
48.31451741682771
 20
1.7871316291449681
 30
0.0
 10
48.2861517574853
 20
1.8222733428601963
 30
0.0
 10
48.25557909986577
 20
1.8555128265934282
 30
0.0
 10
48.222926698018945
 20
1.8867117260356623
 30
0.0
 10
48.188330462614545
 20
1.9157401805004761
 30
0.0
 10
48.151934395234576
 20
1.9424773634494343
 30
0.0
 10
48.113889988988674
 20
1.9668119854142274
 30
0.0
 10
48.07435559794694
 20
1.9886427572222019
 30
0.0
 10
48.03349577801518
 20
2.0078788115971786
 30
0.0
 10
47.99148060199591
 20
2.0244400813807046
 30
0.0
 10
47.948484951686105
 20
2.038257632799455
 30
0.0
 10
47.904687789958246
 20
2.0492739523916095
 30
0.0
 10
47.860271415854506
 20
2.0574431863979115
 30
0.0
 10
47.81542070579466
 20
2.0627313316209857
 30
0.0
 10
47.770322344056005
 20
2.0651163769584917
 30
0.0
 10
47.72516404572838
 20
2.064588395020994
 30
0.0
 10
47.6801337753786
 20
2.06114958345322
 30
0.0
 10
47.63541896467643
 20
2.054814255786692
 30
0.0
 10
47.59120573223872
 20
2.0456087818618283
 30
0.0
 10
47.54767810893885
 20
2.0335714780674796
 30
0.0
 10
47.50501727190618
 20
2.018752447854772
 30
0.0
 10
47.463400790403725
 20
2.0012133731890933
 30
0.0
 10
45.83132269747991
 20
1.058170190113722
 30
0.0
 10
45.822864089703856
 20
1.0737490076520397
 30
0.0
 10
45.74352273993811
 20
1.1982899800483708
 30
0.0
 10
45.655687122641666
 20
1.3169930041135949
 30
0.0
 10
45.55978516411281
 20
1.4292797706464513
 30
0.0
 10
45.456284089053455
 20
1.5346032298074177
 30
0.0
 10
45.34568814429739
 20
1.6324502562905407
 30
0.0
 10
45.22853614217041
 20
1.7223441492183413
 30
0.0
 10
45.10539883545079
 20
1.8038469545805786
 30
0.0
 10
45.057841391391726
 20
1.8307536618293876
 30
0.0
 10
46.001213373189096
 20
3.463400790403721
 30
0.0
 10
46.01875244785477
 20
3.505017271906181
 30
0.0
 10
46.03357147806748
 20
3.5476781089388476
 30
0.0
 10
46.04560878186183
 20
3.591205732238718
 30
0.0
 10
46.054814255786695
 20
3.6354189646764343
 30
0.0
 10
46.06114958345322
 20
3.6801337753786005
 30
0.0
 10
46.064588395021
 20
3.725164045728379
 30
0.0
 10
46.06511637695849
 20
3.7703223440560008
 30
0.0
 10
46.06273133162099
 20
3.815420705794659
 30
0.0
 10
46.05744318639791
 20
3.860271415854507
 30
0.0
 10
46.049273952391616
 20
3.9046877899582437
 30
0.0
 10
46.03825763279946
 20
3.948484951686104
 30
0.0
 10
46.0244400813807
 20
3.9914806019959093
 30
0.0
 10
46.00787881159718
 20
4.033495778015177
 30
0.0
 10
45.9886427572222
 20
4.074355597946936
 30
0.0
 10
45.96681198541423
 20
4.113889988988673
 30
0.0
 10
45.942477363449434
 20
4.151934395234578
 30
0.0
 10
45.91574018050048
 20
4.188330462614541
 30
0.0
 10
45.886711726035664
 20
4.222926698018947
 30
0.0
 10
45.85551282659343
 20
4.255579099865766
 30
0.0
 10
45.8222733428602
 20
4.286151757485297
 30
0.0
 10
45.78713162914497
 20
4.31451741682771
 30
0.0
 10
45.74222513500057
 20
4.319308810824417
 30
0.0
 10
45.697103137127996
 20
4.32119454165366
 30
0.0
 10
45.651953448998924
 20
4.320166760246907
 30
0.0
 10
45.6069639993415
 20
4.31622974458836
 30
0.0
 10
45.56232204991558
 20
4.309399881908499
 30
0.0
 10
45.518213416063965
 20
4.29970560047472
 30
0.0
 10
45.47482169328432
 20
4.287187251262982
 30
0.0
 10
45.43232749304069
 20
4.271896940002993
 30
0.0
 10
45.39090769099573
 20
4.253898310296014
 30
0.0
 10
45.35073469079255
 20
4.233266278708017
 30
0.0
 10
45.311975706450724
 20
4.210086722940853
 30
0.0
 10
45.2747920663633
 20
4.184456124379339
 30
0.0
 10
45.23933854179181
 20
4.1564811665021235
 30
0.0
 10
45.20576270265441
 20
4.126278290827903
 30
0.0
 10
45.174204303288455
 20
4.093973212245247
 30
0.0
 10
45.144794700744264
 20
4.05970039574346
 30
0.0
 10
45.11765630803133
 20
4.023602496722444
 30
0.0
 10
45.092902084592744
 20
3.9858297672112513
 30
0.0
 10
45.07063506612866
 20
3.9465394304667933
 30
0.0
 10
45.05094793572578
 20
3.9058950265558865
 30
0.0
 10
45.03392263807811
 20
3.8640657316445344
 30
0.0
 10
44.54669135106178
 20
2.0431425308096247
 30
0.0
 10
44.42178313475523
 20
2.0731303403794117
 30
0.0
 10
44.276141430080884
 20
2.0975024032306817
 30
0.0
 10
44.129154392116824
 20
2.1116556452136166
 30
0.0
 10
43.98153812693693
 20
2.115521113155954
 30
0.0
 10
43.83401180614681
 20
2.1090799748864337
 30
0.0
 10
43.687294163152075
 20
2.092363610983245
 30
0.0
 10
43.542099991561386
 20
2.0654534618910003
 30
0.0
 10
43.453471833876804
 20
2.0425326618447017
 30
0.0
 10
42.9660773619219
 20
3.864065731644535
 30
0.0
 10
42.94905206427422
 20
3.905895026555887
 30
0.0
 10
42.92936493387134
 20
3.9465394304667933
 30
0.0
 10
42.907097915407256
 20
3.9858297672112517
 30
0.0
 10
42.88234369196868
 20
4.023602496722445
 30
0.0
 10
42.85520529925574
 20
4.05970039574346
 30
0.0
 10
42.825795696711545
 20
4.093973212245247
 30
0.0
 10
42.79423729734559
 20
4.126278290827903
 30
0.0
 10
42.76066145820819
 20
4.156481166502124
 30
0.0
 10
42.7252079336367
 20
4.18445612437934
 30
0.0
 10
42.688024293549276
 20
4.210086722940854
 30
0.0
 10
42.64926530920746
 20
4.233266278708018
 30
0.0
 10
42.609092309004275
 20
4.253898310296014
 30
0.0
 10
42.56767250695931
 20
4.271896940002994
 30
0.0
 10
42.52517830671569
 20
4.287187251262983
 30
0.0
 10
42.481786583936035
 20
4.299705600474721
 30
0.0
 10
42.43767795008443
 20
4.3093998819085
 30
0.0
 10
42.3930360006585
 20
4.316229744588361
 30
0.0
 10
42.34804655100108
 20
4.320166760246908
 30
0.0
 10
42.302896862872004
 20
4.321194541653661
 30
0.0
 10
42.25777486499943
 20
4.319308810824416
 30
0.0
 10
42.212868370855034
 20
4.3145174168277105
 30
0.0
 10
42.17772665713981
 20
4.286151757485298
 30
0.0
 10
42.144487173406574
 20
4.255579099865768
 30
0.0
 10
42.113288273964336
 20
4.222926698018948
 30
0.0
 10
42.08425981949952
 20
4.188330462614542
 30
0.0
 10
42.057522636550566
 20
4.151934395234579
 30
0.0
 10
42.033188014585775
 20
4.113889988988675
 30
0.0
 10
42.0113572427778
 20
4.074355597946938
 30
0.0
 10
41.99212118840282
 20
4.033495778015178
 30
0.0
 10
41.9755599186193
 20
3.99148060199591
 30
0.0
 10
41.96174236720054
 20
3.9484849516861047
 30
0.0
 10
41.95072604760839
 20
3.9046877899582446
 30
0.0
 10
41.94255681360209
 20
3.860271415854508
 30
0.0
 10
41.93726866837901
 20
3.81542070579466
 30
0.0
 10
41.93488362304151
 20
3.770322344056002
 30
0.0
 10
41.93541160497901
 20
3.7251640457283797
 30
0.0
 10
41.93885041654678
 20
3.6801337753786014
 30
0.0
 10
41.945185744213305
 20
3.6354189646764348
 30
0.0
 10
41.95439121813817
 20
3.5912057322387185
 30
0.0
 10
41.96642852193252
 20
3.547678108938849
 30
0.0
 10
41.98124755214523
 20
3.5050172719061825
 30
0.0
 10
41.998786626810904
 20
3.4634007904037225
 30
0.0
 10
42.94216507638976
 20
1.8307424683605582
 30
0.0
 10
42.86328805194397
 20
1.7842803502006812
 30
0.0
 10
42.74159191971756
 20
1.7006409157860047
 30
0.0
 10
42.62602662516355
 20
1.6087161297774462
 30
0.0
 10
42.517155190780414
 20
1.5089538404921916
 30
0.0
 10
42.41550802725276
 20
1.401840079775569
 30
0.0
 10
42.32158034934376
 20
1.2878966951027513
 30
0.0
 10
42.2358297632586
 20
1.1676788071903181
 30
0.0
 10
42.16871089998205
 20
1.0581507769143106
 30
0.0
 10
40.536599209596275
 20
2.001213373189093
 30
0.0
 10
40.49498272809382
 20
2.0187524478547707
 30
0.0
 10
40.45232189106115
 20
2.033571478067479
 30
0.0
 10
40.40879426776128
 20
2.045608781861828
 30
0.0
 10
40.36458103532357
 20
2.0548142557866917
 30
0.0
 10
40.3198662246214
 20
2.061149583453219
 30
0.0
 10
40.27483595427162
 20
2.064588395020993
 30
0.0
 10
40.229677655943995
 20
2.065116376958491
 30
0.0
 10
40.18457929420534
 20
2.0627313316209848
 30
0.0
 10
40.139728584145494
 20
2.0574431863979106
 30
0.0
 10
40.095312210041754
 20
2.0492739523916086
 30
0.0
 10
40.051515048313895
 20
2.038257632799454
 30
0.0
 10
40.00851939800409
 20
2.024440081380704
 30
0.0
 10
39.96650422198482
 20
2.0078788115971777
 30
0.0
 10
39.92564440205306
 20
1.988642757222201
 30
0.0
 10
39.886110011011326
 20
1.9668119854142256
 30
0.0
 10
39.848065604765424
 20
1.9424773634494334
 30
0.0
 10
39.811669537385455
 20
1.9157401805004746
 30
0.0
 10
39.77707330198105
 20
1.8867117260356614
 30
0.0
 10
39.74442090013423
 20
1.8555128265934273
 30
0.0
 10
39.7138482425147
 20
1.8222733428601952
 30
0.0
 10
39.68548258317229
 20
1.7871316291449673
 30
0.0
 10
39.68069118917558
 20
1.7422251350005657
 30
0.0
 10
39.67880545834634
 20
1.6971031371279934
 30
0.0
 10
39.679833239753094
 20
1.651953448998918
 30
0.0
 10
39.68377025541164
 20
1.6069639993415017
 30
0.0
 10
39.690600118091496
 20
1.5623220499155737
 30
0.0
 10
39.700294399525276
 20
1.5182134160639624
 30
0.0
 10
39.712812748737015
 20
1.4748216932843148
 30
0.0
 10
39.728103059997004
 20
1.4323274930406868
 30
0.0
 10
39.746101689703984
 20
1.390907690995725
 30
0.0
 10
39.766733721291985
 20
1.3507346907925435
 30
0.0
 10
39.78991327705914
 20
1.3119757064507198
 30
0.0
 10
39.81554387562066
 20
1.2747920663632932
 30
0.0
 10
39.843518833497875
 20
1.239338541791808
 30
0.0
 10
39.873721709172095
 20
1.2057627026544113
 30
0.0
 10
39.906026787754755
 20
1.174204303288453
 30
0.0
 10
39.94029960425654
 20
1.144794700744257
 30
0.0
 10
39.97639750327755
 20
1.1176563080313227
 30
0.0
 10
40.01417023278875
 20
1.0929020845927437
 30
0.0
 10
40.05346056953321
 20
1.0706350661286588
 30
0.0
 10
40.09410497344411
 20
1.0509479357257805
 30
0.0
 10
40.13593426835546
 20
1.0339226380781046
 30
0.0
 10
41.95745484976543
 20
0.5465315076887607
 30
0.0
 10
41.9428525737304
 20
0.49387740134366076
 30
0.0
 10
41.91341253548928
 20
0.3491749903878103
 30
0.0
 10
41.89413814163222
 20
0.20277143397773423
 30
0.0
 10
41.885123295068624
 20
0.05537999552383355
 30
0.0
 10
41.8864119152248
 20
-0.09228124870148136
 30
0.0
 10
41.897997724072866
 20
-0.23949290795919953
 30
0.0
 10
41.91982427671672
 20
-0.38553778184308535
 30
0.0
 10
41.95178523638588
 20
-0.5297043544079538
 30
0.0
 10
41.956819984992244
 20
-0.5467013808500134
 30
0.0
 10
40.13593426835546
 20
-1.0339226380781064
 30
0.0
 10
40.09410497344411
 20
-1.050947935725782
 30
0.0
 10
40.05346056953321
 20
-1.07063506612866
 30
0.0
 10
40.01417023278875
 20
-1.092902084592745
 30
0.0
 10
39.97639750327755
 20
-1.1176563080313244
 30
0.0
 10
39.94029960425654
 20
-1.1447947007442585
 30
0.0
 10
39.906026787754755
 20
-1.1742043032884544
 30
0.0
 10
39.873721709172095
 20
-1.2057627026544129
 30
0.0
 10
39.843518833497875
 20
-1.2393385417918092
 30
0.0
 10
39.81554387562066
 20
-1.2747920663632948
 30
0.0
 10
39.78991327705914
 20
-1.3119757064507214
 30
0.0
 10
39.766733721291985
 20
-1.3507346907925455
 30
0.0
 10
39.746101689703984
 20
-1.3909076909957265
 30
0.0
 10
39.728103059997004
 20
-1.4323274930406886
 30
0.0
 10
39.712812748737015
 20
-1.4748216932843161
 30
0.0
 10
39.700294399525276
 20
-1.5182134160639635
 30
0.0
 10
39.6906001180915
 20
-1.5623220499155752
 30
0.0
 10
39.68377025541164
 20
-1.6069639993415028
 30
0.0
 10
39.679833239753094
 20
-1.651953448998919
 30
0.0
 10
39.67880545834634
 20
-1.6971031371279943
 30
0.0
 10
39.68069118917558
 20
-1.742225135000567
 30
0.0
 10
39.68548258317229
 20
-1.7871316291449688
 30
0.0
 10
39.7138482425147
 20
-1.8222733428601967
 30
0.0
 10
39.74442090013423
 20
-1.8555128265934289
 30
0.0
 10
39.777073301981055
 20
-1.886711726035663
 30
0.0
 10
39.811669537385455
 20
-1.9157401805004768
 30
0.0
 10
39.848065604765424
 20
-1.9424773634494348
 30
0.0
 10
39.886110011011326
 20
-1.9668119854142279
 30
0.0
 10
39.92564440205307
 20
-1.9886427572222023
 30
0.0
 10
39.96650422198482
 20
-2.007878811597179
 30
0.0
 10
40.00851939800409
 20
-2.024440081380705
 30
0.0
 10
40.051515048313895
 20
-2.0382576327994553
 30
0.0
 10
40.095312210041754
 20
-2.0492739523916104
 30
0.0
 10
40.139728584145494
 20
-2.057443186397912
 30
0.0
 10
40.18457929420534
 20
-2.062731331620986
 30
0.0
 10
40.229677655944
 20
-2.065116376958492
 30
0.0
 10
40.27483595427162
 20
-2.0645883950209942
 30
0.0
 10
40.3198662246214
 20
-2.0611495834532203
 30
0.0
 10
40.36458103532357
 20
-2.0548142557866926
 30
0.0
 10
40.40879426776128
 20
-2.045608781861829
 30
0.0
 10
40.45232189106115
 20
-2.03357147806748
 30
0.0
 10
40.49498272809382
 20
-2.018752447854772
 30
0.0
 10
40.536599209596275
 20
-2.0012133731890938
 30
0.0
 10
42.16867730252009
 20
-1.0581701901137226
 30
0.0
  0
ENDSEC
  0
EOF
