999
DXF generated by OpenJsCad
  0
SECTION
  2
HEADER
  0
ENDSEC
  0
SECTION
  2
TABLES
  0
TABLE
  2
LTYPE
  70
1
  0
LTYPE
  2
CONTINUOUS
  3
Solid Line
  72
65
  73
0
  40
0.0
  0
ENDTAB
  0
TABLE
  2
LAYER
  70
1
  0
LAYER
  2
OpenJsCad
  62
7
  6
continuous
  0
ENDTAB
  0
TABLE
  2
STYLE
  70
0
  0
ENDTAB
  0
TABLE
  2
VIEW
  70
0
  0
ENDTAB
  0
ENDSEC
  0
SECTION
  2
BLOCKS
  0
ENDSEC
  0
SECTION
  2
ENTITIES
  0
LWPOLYLINE
  8
OpenJsCad
  90
591
  70
1
 10
32.25067160989133
 20
-1.22500319723638
 30
0.0
 10
32.29307966994222
 20
-1.3202532596206358
 30
0.0
 10
32.391769803657226
 20
-1.5058624059670107
 30
0.0
 10
32.50316697271043
 20
-1.6841351420402746
 30
0.0
 10
32.62672846129181
 20
-1.8542029409901906
 30
0.0
 10
32.76185229024936
 20
-2.0152372495954296
 30
0.0
 10
32.907880149870984
 20
-2.1664535248915806
 30
0.0
 10
32.98536353112485
 20
-2.236219874738432
 30
0.0
 10
31.65330578693498
 20
-3.71478637935442
 30
0.0
 10
31.63273032752682
 20
-3.741945632301401
 30
0.0
 10
31.61395993863036
 20
-3.770382352421181
 30
0.0
 10
31.59707368398732
 20
-3.799976759910188
 30
0.0
 10
31.582142691078488
 20
-3.830604198609036
 30
0.0
 10
31.569229851523943
 20
-3.8621356610732738
 30
0.0
 10
31.558389556173918
 20
-3.894438331972431
 30
0.0
 10
31.54966746600627
 20
-3.9273761475284528
 30
0.0
 10
31.543100319795464
 20
-3.9608103686370852
 30
0.0
 10
31.538715779363244
 20
-3.994600165258156
 30
0.0
 10
31.536532313062843
 20
-4.028603209613185
 30
0.0
 10
31.536559117987434
 20
-4.062676275691704
 30
0.0
 10
31.538796081230583
 20
-4.09667584254106
 30
0.0
 10
31.54323378036183
 20
-4.13045869879857
 30
0.0
 10
31.549853523115406
 20
-4.163882545919624
 30
0.0
 10
31.55862742612489
 20
-4.196806597560867
 30
0.0
 10
31.56951853237223
 20
-4.229092172593757
 30
0.0
 10
31.58248096685631
 20
-4.260603279250632
 30
0.0
 10
31.597460129825485
 20
-4.291207187942788
 30
0.0
 10
31.61439292676005
 20
-4.320774990337757
 30
0.0
 10
31.633208034135976
 20
-4.349182142340862
 30
0.0
 10
31.65382619985048
 20
-4.376308988693953
 30
0.0
 10
31.676160577043987
 20
-4.402041266981607
 30
0.0
 10
31.700117089912325
 20
-4.426270588921855
 30
0.0
 10
31.725594829968394
 20
-4.448894896914155
 30
0.0
 10
31.752486481084087
 20
-4.469818893921586
 30
0.0
 10
31.780696361986493
 20
-4.488928503283553
 30
0.0
 10
31.810086412184834
 20
-4.506167978328758
 30
0.0
 10
31.840532836303797
 20
-4.521464703758184
 30
0.0
 10
31.871907389359965
 20
-4.53475424743059
 30
0.0
 10
31.90407791694923
 20
-4.545980631760521
 30
0.0
 10
31.93690891190132
 20
-4.555096569504435
 30
0.0
 10
31.970262085056664
 20
-4.5620636629417906
 30
0.0
 10
32.00399694776143
 20
-4.566852565612098
 30
0.0
 10
32.037971403627175
 20
-4.5694431059266964
 30
0.0
 10
32.072042347062514
 20
-4.569824372134558
 30
0.0
 10
32.10606626605568
 20
-4.5679947582842475
 30
0.0
 10
32.13989984666906
 20
-4.563961970988435
 30
0.0
 10
32.1734005766993
 20
-4.557742996962471
 30
0.0
 10
32.20642734596052
 20
-4.549364031473742
 30
0.0
 10
32.23884104066188
 20
-4.538860368003219
 30
0.0
 10
32.27050512937614
 20
-4.526276249583923
 30
0.0
 10
32.301286238130814
 20
-4.511664682442519
 30
0.0
 10
32.33105471219975
 20
-4.495087212729009
 30
0.0
 10
32.35968516222856
 20
-4.476613667274956
 30
0.0
 10
32.38705699239374
 20
-4.45632185947221
 30
0.0
 10
32.413054908370675
 20
-4.434297261511039
 30
0.0
 10
32.43756940297093
 20
-4.410632644358223
 30
0.0
 10
32.4604972174032
 20
-4.385427686991579
 30
0.0
 10
32.481741776215145
 20
-4.358788556536909
 30
0.0
 10
32.50121359408388
 20
-4.330827461075865
 30
0.0
 10
33.495785422631236
 20
-2.6070630861427624
 30
0.0
 10
33.586080845860295
 20
-2.659195173050648
 30
0.0
 10
33.77502116012586
 20
-2.751347521611841
 30
0.0
 10
33.969929448164855
 20
-2.830095581612227
 30
0.0
 10
34.16985613639006
 20
-2.8950557004192112
 30
0.0
 10
34.373827202073
 20
-2.945911398863734
 30
0.0
 10
34.58084891868477
 20
-2.982414913094972
 30
0.0
 10
34.68454192244704
 20
-2.9933134869578053
 30
0.0
 10
34.475964155855586
 20
-4.972462813742488
 30
0.0
 10
34.47528206787283
 20
-5.006529062530383
 30
0.0
 10
34.47681118897454
 20
-5.0405678101447045
 30
0.0
 10
34.48054507826935
 20
-5.074435680187403
 30
0.0
 10
34.48646800804589
 20
-5.10799001602284
 30
0.0
 10
34.49455503002032
 20
-5.141089481669285
 30
0.0
 10
34.50477208042229
 20
-5.1735946571276425
 30
0.0
 10
34.51707612347675
 20
-5.20536862563976
 30
0.0
 10
34.5314153326772
 20
-5.236277550402696
 30
0.0
 10
34.54772930908684
 20
-5.266191238309752
 30
0.0
 10
34.5659493357481
 20
-5.294983688343709
 30
0.0
 10
34.58599866712897
 20
-5.32253362231233
 30
0.0
 10
34.60779285238685
 20
-5.348724995690602
 30
0.0
 10
34.631240091088436
 20
-5.373447486417994
 30
0.0
 10
34.656241619887105
 20
-5.396596959591798
 30
0.0
 10
34.68269212852921
 20
-5.418075906099222
 30
0.0
 10
34.710480203436965
 20
-5.437793853340662
 30
0.0
 10
34.73948879699938
 20
-5.455667746314084
 30
0.0
 10
34.769595720594715
 20
-5.4716222974553705
 30
0.0
 10
34.80067415926754
 20
-5.48559030376102
 30
0.0
 10
34.83259320589271
 20
-5.497512929857457
 30
0.0
 10
34.865218412576134
 20
-5.507339955824597
 30
0.0
 10
34.89841235696983
 20
-5.515029988729814
 30
0.0
 10
34.932035221115804
 20
-5.52055063698129
 30
0.0
 10
34.965945380380624
 20
-5.523878646766335
 30
0.0
 10
35
 20
-5.525
 30
0.0
 10
35.034054619619376
 20
-5.523878646766335
 30
0.0
 10
35.0679647788842
 20
-5.52055063698129
 30
0.0
 10
35.10158764303017
 20
-5.515029988729814
 30
0.0
 10
35.13478158742387
 20
-5.507339955824596
 30
0.0
 10
35.16740679410729
 20
-5.497512929857457
 30
0.0
 10
35.19932584073246
 20
-5.48559030376102
 30
0.0
 10
35.230404279405285
 20
-5.4716222974553705
 30
0.0
 10
35.26051120300062
 20
-5.455667746314084
 30
0.0
 10
35.28951979656304
 20
-5.437793853340662
 30
0.0
 10
35.31730787147079
 20
-5.418075906099221
 30
0.0
 10
35.3437583801129
 20
-5.396596959591796
 30
0.0
 10
35.368759908911564
 20
-5.373447486417994
 30
0.0
 10
35.39220714761315
 20
-5.348724995690602
 30
0.0
 10
35.41400133287103
 20
-5.322533622312328
 30
0.0
 10
35.4340506642519
 20
-5.29498368834371
 30
0.0
 10
35.45227069091316
 20
-5.266191238309752
 30
0.0
 10
35.4685846673228
 20
-5.236277550402695
 30
0.0
 10
35.48292387652325
 20
-5.20536862563976
 30
0.0
 10
35.495227919577715
 20
-5.1735946571276425
 30
0.0
 10
35.505444969979685
 20
-5.141089481669284
 30
0.0
 10
35.51353199195411
 20
-5.107990016022839
 30
0.0
 10
35.51945492173065
 20
-5.074435680187402
 30
0.0
 10
35.52318881102546
 20
-5.040567810144703
 30
0.0
 10
35.524717932127174
 20
-5.006529062530382
 30
0.0
 10
35.524035844144414
 20
-4.972462813742486
 30
0.0
 10
35.31545807755296
 20
-2.9933134869578053
 30
0.0
 10
35.41915108131523
 20
-2.982414913094971
 30
0.0
 10
35.626172797927
 20
-2.9459113988637338
 30
0.0
 10
35.83014386360994
 20
-2.8950557004192112
 30
0.0
 10
36.030070551835145
 20
-2.830095581612227
 30
0.0
 10
36.22497883987414
 20
-2.751347521611841
 30
0.0
 10
36.413919154139705
 20
-2.659195173050647
 30
0.0
 10
36.504214577368764
 20
-2.607063086142762
 30
0.0
 10
37.49878640591612
 20
-4.330827461075863
 30
0.0
 10
37.51825822378486
 20
-4.358788556536908
 30
0.0
 10
37.539502782596806
 20
-4.385427686991577
 30
0.0
 10
37.56243059702908
 20
-4.4106326443582216
 30
0.0
 10
37.586945091629325
 20
-4.434297261511039
 30
0.0
 10
37.61294300760626
 20
-4.456321859472209
 30
0.0
 10
37.64031483777144
 20
-4.476613667274954
 30
0.0
 10
37.668945287800256
 20
-4.4950872127290085
 30
0.0
 10
37.698713761869186
 20
-4.511664682442518
 30
0.0
 10
37.72949487062387
 20
-4.526276249583922
 30
0.0
 10
37.76115895933812
 20
-4.538860368003219
 30
0.0
 10
37.79357265403948
 20
-4.549364031473741
 30
0.0
 10
37.8265994233007
 20
-4.557742996962469
 30
0.0
 10
37.86010015333095
 20
-4.5639619709884345
 30
0.0
 10
37.89393373394432
 20
-4.567994758284247
 30
0.0
 10
37.92795765293749
 20
-4.5698243721345575
 30
0.0
 10
37.962028596372825
 20
-4.569443105926696
 30
0.0
 10
37.99600305223857
 20
-4.5668525656120975
 30
0.0
 10
38.02973791494334
 20
-4.56206366294179
 30
0.0
 10
38.06309108809868
 20
-4.5550965695044345
 30
0.0
 10
38.09592208305077
 20
-4.5459806317605205
 30
0.0
 10
38.12809261064004
 20
-4.534754247430588
 30
0.0
 10
38.159467163696206
 20
-4.521464703758182
 30
0.0
 10
38.18991358781517
 20
-4.506167978328756
 30
0.0
 10
38.21930363801351
 20
-4.488928503283551
 30
0.0
 10
38.247513518915916
 20
-4.469818893921585
 30
0.0
 10
38.274405170031606
 20
-4.448894896914153
 30
0.0
 10
38.299882910087675
 20
-4.426270588921852
 30
0.0
 10
38.32383942295601
 20
-4.402041266981605
 30
0.0
 10
38.34617380014952
 20
-4.376308988693952
 30
0.0
 10
38.366791965864024
 20
-4.34918214234086
 30
0.0
 10
38.38560707323995
 20
-4.320774990337756
 30
0.0
 10
38.402539870174515
 20
-4.2912071879427875
 30
0.0
 10
38.41751903314369
 20
-4.260603279250629
 30
0.0
 10
38.43048146762778
 20
-4.229092172593755
 30
0.0
 10
38.441372573875114
 20
-4.196806597560865
 30
0.0
 10
38.4501464768846
 20
-4.163882545919623
 30
0.0
 10
38.45676621963817
 20
-4.130458698798568
 30
0.0
 10
38.46120391876942
 20
-4.0966758425410585
 30
0.0
 10
38.46344088201257
 20
-4.062676275691703
 30
0.0
 10
38.46346768693716
 20
-4.028603209613183
 30
0.0
 10
38.461284220636756
 20
-3.9946001652581553
 30
0.0
 10
38.45689968020454
 20
-3.9608103686370844
 30
0.0
 10
38.45033253399373
 20
-3.9273761475284514
 30
0.0
 10
38.44161044382608
 20
-3.894438331972429
 30
0.0
 10
38.43077014847606
 20
-3.8621356610732724
 30
0.0
 10
38.41785730892151
 20
-3.8306041986090347
 30
0.0
 10
38.40292631601269
 20
-3.7999767599101864
 30
0.0
 10
38.38604006136964
 20
-3.7703823524211795
 30
0.0
 10
38.367269672473185
 20
-3.741945632301399
 30
0.0
 10
38.34669421306502
 20
-3.7147863793544187
 30
0.0
 10
37.01463646887515
 20
-2.236219874738431
 30
0.0
 10
37.092119850129016
 20
-2.166453524891579
 30
0.0
 10
37.23814770975065
 20
-2.015237249595429
 30
0.0
 10
37.37327153870819
 20
-1.8542029409901892
 30
0.0
 10
37.49683302728957
 20
-1.684135142040273
 30
0.0
 10
37.608230196342774
 20
-1.5058624059670094
 30
0.0
 10
37.70692033005778
 20
-1.3202532596206336
 30
0.0
 10
37.74932839010867
 20
-1.2250031972363784
 30
0.0
 10
39.56715717954288
 20
-2.034963217689672
 30
0.0
 10
39.599345330660014
 20
-2.046138971720426
 30
0.0
 10
39.63219062779202
 20
-2.0552032426125044
 30
0.0
 10
39.66555472153638
 20
-2.062117850274027
 30
0.0
 10
39.69929707724007
 20
-2.066853669322602
 30
0.0
 10
39.73327556695299
 20
-2.069390751765882
 30
0.0
 10
39.767347068092576
 20
-2.0697184110255455
 30
0.0
 10
39.801368066297925
 20
-2.0678352669508038
 30
0.0
 10
39.83519525993423
 20
-2.0637492516317995
 30
0.0
 10
39.86868616370107
 20
-2.0574775759884343
 30
0.0
 10
39.90169970880226
 20
-2.049046657275353
 30
0.0
 10
39.934096837149156
 20
-2.03849200780843
 30
0.0
 10
39.96574108709453
 20
-2.025858085381482
 30
0.0
 10
39.99649916822982
 20
-2.0111981060032535
 30
0.0
 10
40.026241522824705
 20
-1.994573819743474
 30
0.0
 10
40.05484287154402
 20
-1.9760552506321403
 30
0.0
 10
40.08218274114341
 20
-1.9557204017076177
 30
0.0
 10
40.108145971921054
 20
-1.9336549264559473
 30
0.0
 10
40.13262320278784
 20
-1.909951768025288
 30
0.0
 10
40.155511331913026
 20
-1.8847107677352024
 30
0.0
 10
40.176713951004814
 20
-1.8580382445297847
 30
0.0
 10
40.19614175139684
 20
-1.830046547146047
 30
0.0
 10
40.21371290022986
 20
-1.8008535808838988
 30
0.0
 10
40.229353385144265
 20
-1.7705823109710368
 30
0.0
 10
40.242997326031414
 20
-1.7393602446146448
 30
0.0
 10
40.254587252530726
 20
-1.707318893921584
 30
0.0
 10
40.26404423843014
 20
-1.6745845088167233
 30
0.0
 10
40.271357928532574
 20
-1.6413056192982811
 30
0.0
 10
40.2764975164595
 20
-1.6076224011260745
 30
0.0
 10
40.279441353482454
 20
-1.5736767331538966
 30
0.0
 10
40.28017703971078
 20
-1.5396115997141389
 30
0.0
 10
40.278701476321835
 20
-1.5055704883459666
 30
0.0
 10
40.27502087861374
 20
-1.4716967854039174
 30
0.0
 10
40.269150749825556
 20
-1.4381331720926944
 30
0.0
 10
40.261115815835325
 20
-1.4050210234721703
 30
0.0
 10
40.25094992101085
 20
-1.3724998129640613
 30
0.0
 10
40.23869588565208
 20
-1.340706524868598
 30
0.0
 10
40.22440532562548
 20
-1.3097750773657544
 30
0.0
 10
40.2081384349501
 20
-1.2798357584314435
 30
0.0
 10
40.189963732251215
 20
-1.251014677044683
 30
0.0
 10
40.1699577721494
 20
-1.2234332319973387
 30
0.0
 10
40.1482048228008
 20
-1.197207600543888
 30
0.0
 10
40.12479651094679
 20
-1.172448249045106
 30
0.0
 10
40.099831435968156
 20
-1.1492594676668946
 30
0.0
 10
40.0734147545695
 20
-1.1277389310941945
 30
0.0
 10
40.0456577378431
 20
-1.1079772871103142
 30
0.0
 10
40.016677302578145
 20
-1.0900577747746305
 30
0.0
 10
39.98659551878934
 20
-1.0740558738069776
 30
0.0
 10
39.9555390955394
 20
-1.0600389866555482
 30
0.0
 10
39.92363884722116
 20
-1.0480661545874974
 30
0.0
 10
39.891029142547374
 20
-1.0381878089981216
 30
0.0
 10
37.9442922040621
 20
-0.624966276687009
 30
0.0
 10
37.96596994473186
 20
-0.5229805252266212
 30
0.0
 10
37.99522626829228
 20
-0.3148109663765257
 30
0.0
 10
38.00989015055267
 20
-0.10510768014293137
 30
0.0
 10
38.00989015055267
 20
0.10510768014293104
 30
0.0
 10
37.99522626829228
 20
0.3148109663765267
 30
0.0
 10
37.96596994473186
 20
0.5229805252266211
 30
0.0
 10
37.9442922040621
 20
0.6249662766870102
 30
0.0
 10
39.891029142547374
 20
1.0381878089981234
 30
0.0
 10
39.92363884722116
 20
1.0480661545874987
 30
0.0
 10
39.9555390955394
 20
1.0600389866555497
 30
0.0
 10
39.986595518789336
 20
1.0740558738069794
 30
0.0
 10
40.016677302578145
 20
1.0900577747746325
 30
0.0
 10
40.0456577378431
 20
1.1079772871103157
 30
0.0
 10
40.0734147545695
 20
1.1277389310941963
 30
0.0
 10
40.099831435968156
 20
1.1492594676668961
 30
0.0
 10
40.12479651094679
 20
1.1724482490451078
 30
0.0
 10
40.1482048228008
 20
1.1972076005438903
 30
0.0
 10
40.1699577721494
 20
1.2234332319973402
 30
0.0
 10
40.189963732251215
 20
1.251014677044685
 30
0.0
 10
40.2081384349501
 20
1.2798357584314455
 30
0.0
 10
40.224405325625476
 20
1.3097750773657564
 30
0.0
 10
40.23869588565208
 20
1.3407065248685994
 30
0.0
 10
40.25094992101085
 20
1.3724998129640626
 30
0.0
 10
40.261115815835325
 20
1.405021023472172
 30
0.0
 10
40.269150749825556
 20
1.4381331720926962
 30
0.0
 10
40.27502087861374
 20
1.471696785403919
 30
0.0
 10
40.278701476321835
 20
1.5055704883459686
 30
0.0
 10
40.28017703971078
 20
1.5396115997141404
 30
0.0
 10
40.279441353482454
 20
1.5736767331538986
 30
0.0
 10
40.27649751645949
 20
1.6076224011260762
 30
0.0
 10
40.27135792853257
 20
1.6413056192982827
 30
0.0
 10
40.26404423843014
 20
1.674584508816725
 30
0.0
 10
40.254587252530726
 20
1.7073188939215858
 30
0.0
 10
40.242997326031414
 20
1.7393602446146468
 30
0.0
 10
40.229353385144265
 20
1.7705823109710386
 30
0.0
 10
40.21371290022986
 20
1.8008535808839004
 30
0.0
 10
40.19614175139684
 20
1.8300465471460488
 30
0.0
 10
40.176713951004814
 20
1.8580382445297865
 30
0.0
 10
40.155511331913026
 20
1.8847107677352042
 30
0.0
 10
40.13262320278784
 20
1.9099517680252895
 30
0.0
 10
40.108145971921054
 20
1.9336549264559486
 30
0.0
 10
40.08218274114341
 20
1.9557204017076197
 30
0.0
 10
40.05484287154402
 20
1.9760552506321418
 30
0.0
 10
40.026241522824705
 20
1.994573819743476
 30
0.0
 10
39.99649916822982
 20
2.0111981060032553
 30
0.0
 10
39.96574108709453
 20
2.025858085381483
 30
0.0
 10
39.93409683714916
 20
2.038492007808432
 30
0.0
 10
39.90169970880226
 20
2.0490466572753547
 30
0.0
 10
39.86868616370107
 20
2.057477575988436
 30
0.0
 10
39.83519525993423
 20
2.0637492516318003
 30
0.0
 10
39.801368066297925
 20
2.067835266950805
 30
0.0
 10
39.767347068092576
 20
2.069718411025547
 30
0.0
 10
39.73327556695299
 20
2.069390751765883
 30
0.0
 10
39.69929707724007
 20
2.066853669322604
 30
0.0
 10
39.66555472153638
 20
2.0621178502740287
 30
0.0
 10
39.63219062779202
 20
2.0552032426125058
 30
0.0
 10
39.599345330660014
 20
2.0461389717204272
 30
0.0
 10
39.56715717954288
 20
2.0349632176896737
 30
0.0
 10
37.74932839010867
 20
1.2250031972363797
 30
0.0
 10
37.70692033005778
 20
1.320253259620636
 30
0.0
 10
37.608230196342774
 20
1.50586240596701
 30
0.0
 10
37.49683302728957
 20
1.6841351420402741
 30
0.0
 10
37.37327153870819
 20
1.8542029409901901
 30
0.0
 10
37.23814770975065
 20
2.0152372495954287
 30
0.0
 10
37.092119850129016
 20
2.1664535248915806
 30
0.0
 10
37.01463646887515
 20
2.236219874738432
 30
0.0
 10
38.34669421306502
 20
3.714786379354419
 30
0.0
 10
38.36726967247318
 20
3.741945632301401
 30
0.0
 10
38.38604006136964
 20
3.770382352421181
 30
0.0
 10
38.40292631601268
 20
3.7999767599101872
 30
0.0
 10
38.41785730892151
 20
3.8306041986090356
 30
0.0
 10
38.43077014847606
 20
3.8621356610732733
 30
0.0
 10
38.44161044382608
 20
3.894438331972431
 30
0.0
 10
38.45033253399373
 20
3.9273761475284523
 30
0.0
 10
38.456899680204536
 20
3.960810368637085
 30
0.0
 10
38.461284220636756
 20
3.9946001652581558
 30
0.0
 10
38.46346768693716
 20
4.028603209613185
 30
0.0
 10
38.46344088201256
 20
4.062676275691704
 30
0.0
 10
38.461203918769414
 20
4.09667584254106
 30
0.0
 10
38.45676621963817
 20
4.13045869879857
 30
0.0
 10
38.4501464768846
 20
4.163882545919624
 30
0.0
 10
38.44137257387511
 20
4.196806597560867
 30
0.0
 10
38.43048146762777
 20
4.229092172593756
 30
0.0
 10
38.41751903314369
 20
4.260603279250631
 30
0.0
 10
38.402539870174515
 20
4.291207187942788
 30
0.0
 10
38.38560707323995
 20
4.320774990337757
 30
0.0
 10
38.366791965864024
 20
4.349182142340862
 30
0.0
 10
38.34617380014952
 20
4.376308988693953
 30
0.0
 10
38.32383942295601
 20
4.402041266981607
 30
0.0
 10
38.299882910087675
 20
4.426270588921854
 30
0.0
 10
38.274405170031606
 20
4.448894896914154
 30
0.0
 10
38.247513518915916
 20
4.469818893921586
 30
0.0
 10
38.21930363801351
 20
4.488928503283553
 30
0.0
 10
38.18991358781517
 20
4.506167978328757
 30
0.0
 10
38.1594671636962
 20
4.521464703758182
 30
0.0
 10
38.12809261064003
 20
4.534754247430589
 30
0.0
 10
38.095922083050766
 20
4.545980631760521
 30
0.0
 10
38.06309108809868
 20
4.555096569504435
 30
0.0
 10
38.02973791494334
 20
4.56206366294179
 30
0.0
 10
37.99600305223857
 20
4.5668525656120975
 30
0.0
 10
37.962028596372825
 20
4.5694431059266964
 30
0.0
 10
37.927957652937486
 20
4.569824372134558
 30
0.0
 10
37.89393373394432
 20
4.567994758284247
 30
0.0
 10
37.86010015333094
 20
4.563961970988435
 30
0.0
 10
37.8265994233007
 20
4.55774299696247
 30
0.0
 10
37.79357265403948
 20
4.549364031473742
 30
0.0
 10
37.76115895933812
 20
4.538860368003219
 30
0.0
 10
37.72949487062386
 20
4.526276249583923
 30
0.0
 10
37.698713761869186
 20
4.511664682442518
 30
0.0
 10
37.66894528780025
 20
4.495087212729009
 30
0.0
 10
37.64031483777144
 20
4.476613667274956
 30
0.0
 10
37.61294300760626
 20
4.456321859472209
 30
0.0
 10
37.586945091629325
 20
4.434297261511039
 30
0.0
 10
37.56243059702908
 20
4.4106326443582216
 30
0.0
 10
37.5395027825968
 20
4.385427686991579
 30
0.0
 10
37.518258223784855
 20
4.358788556536908
 30
0.0
 10
37.49878640591612
 20
4.330827461075865
 30
0.0
 10
36.504214577368764
 20
2.6070630861427624
 30
0.0
 10
36.413919154139705
 20
2.659195173050648
 30
0.0
 10
36.22497883987414
 20
2.7513475216118404
 30
0.0
 10
36.030070551835145
 20
2.8300955816122273
 30
0.0
 10
35.83014386360994
 20
2.8950557004192103
 30
0.0
 10
35.626172797927
 20
2.9459113988637338
 30
0.0
 10
35.41915108131523
 20
2.982414913094971
 30
0.0
 10
35.31545807755296
 20
2.9933134869578053
 30
0.0
 10
35.524035844144414
 20
4.972462813742489
 30
0.0
 10
35.52471793212717
 20
5.006529062530383
 30
0.0
 10
35.52318881102546
 20
5.040567810144704
 30
0.0
 10
35.51945492173065
 20
5.074435680187403
 30
0.0
 10
35.51353199195411
 20
5.10799001602284
 30
0.0
 10
35.50544496997968
 20
5.141089481669284
 30
0.0
 10
35.49522791957771
 20
5.1735946571276425
 30
0.0
 10
35.48292387652325
 20
5.205368625639761
 30
0.0
 10
35.4685846673228
 20
5.236277550402696
 30
0.0
 10
35.45227069091316
 20
5.266191238309752
 30
0.0
 10
35.4340506642519
 20
5.294983688343709
 30
0.0
 10
35.41400133287103
 20
5.32253362231233
 30
0.0
 10
35.39220714761315
 20
5.348724995690602
 30
0.0
 10
35.368759908911564
 20
5.373447486417994
 30
0.0
 10
35.343758380112895
 20
5.396596959591798
 30
0.0
 10
35.31730787147079
 20
5.418075906099221
 30
0.0
 10
35.289519796563035
 20
5.437793853340662
 30
0.0
 10
35.26051120300062
 20
5.455667746314084
 30
0.0
 10
35.230404279405285
 20
5.4716222974553705
 30
0.0
 10
35.19932584073246
 20
5.48559030376102
 30
0.0
 10
35.16740679410729
 20
5.497512929857457
 30
0.0
 10
35.134781587423866
 20
5.507339955824598
 30
0.0
 10
35.10158764303017
 20
5.515029988729814
 30
0.0
 10
35.067964778884196
 20
5.52055063698129
 30
0.0
 10
35.034054619619376
 20
5.523878646766335
 30
0.0
 10
35
 20
5.525
 30
0.0
 10
34.965945380380624
 20
5.523878646766335
 30
0.0
 10
34.9320352211158
 20
5.52055063698129
 30
0.0
 10
34.89841235696983
 20
5.515029988729815
 30
0.0
 10
34.865218412576134
 20
5.507339955824596
 30
0.0
 10
34.83259320589271
 20
5.497512929857457
 30
0.0
 10
34.80067415926754
 20
5.48559030376102
 30
0.0
 10
34.769595720594715
 20
5.471622297455371
 30
0.0
 10
34.73948879699938
 20
5.455667746314085
 30
0.0
 10
34.71048020343696
 20
5.437793853340662
 30
0.0
 10
34.68269212852921
 20
5.418075906099222
 30
0.0
 10
34.6562416198871
 20
5.396596959591797
 30
0.0
 10
34.631240091088436
 20
5.373447486417994
 30
0.0
 10
34.60779285238685
 20
5.348724995690602
 30
0.0
 10
34.58599866712897
 20
5.322533622312328
 30
0.0
 10
34.5659493357481
 20
5.29498368834371
 30
0.0
 10
34.54772930908684
 20
5.266191238309753
 30
0.0
 10
34.5314153326772
 20
5.236277550402695
 30
0.0
 10
34.51707612347675
 20
5.20536862563976
 30
0.0
 10
34.504772080422285
 20
5.1735946571276425
 30
0.0
 10
34.494555030020315
 20
5.141089481669285
 30
0.0
 10
34.48646800804589
 20
5.107990016022839
 30
0.0
 10
34.48054507826935
 20
5.074435680187402
 30
0.0
 10
34.47681118897454
 20
5.040567810144704
 30
0.0
 10
34.475282067872826
 20
5.006529062530383
 30
0.0
 10
34.475964155855586
 20
4.972462813742486
 30
0.0
 10
34.68454192244704
 20
2.9933134869578053
 30
0.0
 10
34.58084891868477
 20
2.9824149130949706
 30
0.0
 10
34.373827202072995
 20
2.9459113988637338
 30
0.0
 10
34.16985613639006
 20
2.8950557004192112
 30
0.0
 10
33.969929448164855
 20
2.8300955816122264
 30
0.0
 10
33.77502116012586
 20
2.751347521611841
 30
0.0
 10
33.586080845860295
 20
2.6591951730506476
 30
0.0
 10
33.495785422631236
 20
2.6070630861427624
 30
0.0
 10
32.50121359408388
 20
4.330827461075864
 30
0.0
 10
32.48174177621514
 20
4.358788556536908
 30
0.0
 10
32.460497217403194
 20
4.385427686991577
 30
0.0
 10
32.43756940297092
 20
4.4106326443582216
 30
0.0
 10
32.413054908370675
 20
4.434297261511039
 30
0.0
 10
32.38705699239374
 20
4.456321859472209
 30
0.0
 10
32.35968516222856
 20
4.476613667274954
 30
0.0
 10
32.331054712199744
 20
4.495087212729009
 30
0.0
 10
32.301286238130814
 20
4.511664682442518
 30
0.0
 10
32.27050512937613
 20
4.526276249583922
 30
0.0
 10
32.23884104066188
 20
4.53886036800322
 30
0.0
 10
32.20642734596052
 20
4.549364031473741
 30
0.0
 10
32.1734005766993
 20
4.557742996962469
 30
0.0
 10
32.13989984666905
 20
4.5639619709884345
 30
0.0
 10
32.10606626605568
 20
4.567994758284247
 30
0.0
 10
32.07204234706251
 20
4.5698243721345575
 30
0.0
 10
32.037971403627175
 20
4.5694431059266964
 30
0.0
 10
32.00399694776143
 20
4.5668525656120975
 30
0.0
 10
31.97026208505666
 20
4.56206366294179
 30
0.0
 10
31.93690891190132
 20
4.5550965695044345
 30
0.0
 10
31.90407791694923
 20
4.5459806317605205
 30
0.0
 10
31.871907389359965
 20
4.534754247430588
 30
0.0
 10
31.840532836303797
 20
4.521464703758182
 30
0.0
 10
31.81008641218483
 20
4.506167978328756
 30
0.0
 10
31.780696361986493
 20
4.488928503283552
 30
0.0
 10
31.752486481084084
 20
4.469818893921585
 30
0.0
 10
31.725594829968394
 20
4.448894896914153
 30
0.0
 10
31.700117089912325
 20
4.426270588921853
 30
0.0
 10
31.676160577043984
 20
4.402041266981606
 30
0.0
 10
31.653826199850478
 20
4.376308988693952
 30
0.0
 10
31.633208034135972
 20
4.349182142340861
 30
0.0
 10
31.614392926760047
 20
4.320774990337756
 30
0.0
 10
31.597460129825485
 20
4.2912071879427875
 30
0.0
 10
31.582480966856306
 20
4.260603279250629
 30
0.0
 10
31.569518532372225
 20
4.229092172593755
 30
0.0
 10
31.558627426124886
 20
4.196806597560866
 30
0.0
 10
31.549853523115402
 20
4.163882545919623
 30
0.0
 10
31.54323378036183
 20
4.130458698798568
 30
0.0
 10
31.538796081230583
 20
4.0966758425410585
 30
0.0
 10
31.536559117987434
 20
4.062676275691703
 30
0.0
 10
31.536532313062843
 20
4.028603209613184
 30
0.0
 10
31.538715779363244
 20
3.9946001652581553
 30
0.0
 10
31.54310031979546
 20
3.9608103686370844
 30
0.0
 10
31.54966746600627
 20
3.9273761475284514
 30
0.0
 10
31.558389556173918
 20
3.894438331972429
 30
0.0
 10
31.569229851523943
 20
3.862135661073273
 30
0.0
 10
31.582142691078488
 20
3.830604198609035
 30
0.0
 10
31.597073683987315
 20
3.799976759910187
 30
0.0
 10
31.613959938630355
 20
3.77038235242118
 30
0.0
 10
31.63273032752682
 20
3.7419456323013995
 30
0.0
 10
31.65330578693498
 20
3.7147863793544187
 30
0.0
 10
32.98536353112485
 20
2.2362198747384316
 30
0.0
 10
32.907880149870984
 20
2.1664535248915797
 30
0.0
 10
32.76185229024935
 20
2.0152372495954283
 30
0.0
 10
32.62672846129181
 20
1.8542029409901906
 30
0.0
 10
32.50316697271043
 20
1.684135142040272
 30
0.0
 10
32.391769803657226
 20
1.5058624059670107
 30
0.0
 10
32.29307966994222
 20
1.3202532596206353
 30
0.0
 10
32.25067160989133
 20
1.2250031972363788
 30
0.0
 10
30.432842820457118
 20
2.034963217689672
 30
0.0
 10
30.40065466933999
 20
2.046138971720426
 30
0.0
 10
30.367809372207976
 20
2.055203242612505
 30
0.0
 10
30.33444527846362
 20
2.0621178502740274
 30
0.0
 10
30.300702922759932
 20
2.0668536693226027
 30
0.0
 10
30.26672443304701
 20
2.069390751765882
 30
0.0
 10
30.232652931907428
 20
2.0697184110255464
 30
0.0
 10
30.19863193370207
 20
2.067835266950804
 30
0.0
 10
30.16480474006577
 20
2.0637492516317995
 30
0.0
 10
30.13131383629893
 20
2.057477575988435
 30
0.0
 10
30.098300291197738
 20
2.0490466572753534
 30
0.0
 10
30.06590316285084
 20
2.038492007808431
 30
0.0
 10
30.03425891290547
 20
2.0258580853814823
 30
0.0
 10
30.003500831770182
 20
2.011198106003254
 30
0.0
 10
29.973758477175295
 20
1.9945738197434744
 30
0.0
 10
29.945157128455982
 20
1.9760552506321403
 30
0.0
 10
29.917817258856587
 20
1.9557204017076182
 30
0.0
 10
29.891854028078946
 20
1.9336549264559477
 30
0.0
 10
29.867376797212156
 20
1.9099517680252884
 30
0.0
 10
29.844488668086974
 20
1.8847107677352029
 30
0.0
 10
29.823286048995186
 20
1.8580382445297852
 30
0.0
 10
29.803858248603163
 20
1.8300465471460474
 30
0.0
 10
29.786287099770142
 20
1.8008535808838992
 30
0.0
 10
29.770646614855735
 20
1.7705823109710377
 30
0.0
 10
29.757002673968582
 20
1.7393602446146452
 30
0.0
 10
29.745412747469274
 20
1.7073188939215849
 30
0.0
 10
29.73595576156986
 20
1.6745845088167237
 30
0.0
 10
29.72864207146743
 20
1.6413056192982816
 30
0.0
 10
29.723502483540504
 20
1.607622401126075
 30
0.0
 10
29.720558646517546
 20
1.573676733153897
 30
0.0
 10
29.71982296028922
 20
1.5396115997141393
 30
0.0
 10
29.721298523678165
 20
1.505570488345967
 30
0.0
 10
29.724979121386262
 20
1.4716967854039178
 30
0.0
 10
29.730849250174444
 20
1.4381331720926949
 30
0.0
 10
29.738884184164675
 20
1.4050210234721707
 30
0.0
 10
29.74905007898915
 20
1.3724998129640618
 30
0.0
 10
29.76130411434792
 20
1.3407065248685985
 30
0.0
 10
29.77559467437452
 20
1.3097750773657548
 30
0.0
 10
29.7918615650499
 20
1.279835758431444
 30
0.0
 10
29.810036267748785
 20
1.251014677044684
 30
0.0
 10
29.830042227850598
 20
1.223433231997339
 30
0.0
 10
29.8517951771992
 20
1.197207600543889
 30
0.0
 10
29.875203489053213
 20
1.1724482490451065
 30
0.0
 10
29.900168564031844
 20
1.1492594676668946
 30
0.0
 10
29.926585245430502
 20
1.1277389310941954
 30
0.0
 10
29.954342262156896
 20
1.1079772871103146
 30
0.0
 10
29.983322697421855
 20
1.0900577747746314
 30
0.0
 10
30.01340448121066
 20
1.074055873806978
 30
0.0
 10
30.044460904460596
 20
1.0600389866555482
 30
0.0
 10
30.076361152778837
 20
1.0480661545874979
 30
0.0
 10
30.108970857452626
 20
1.038187808998122
 30
0.0
 10
32.0557077959379
 20
0.6249662766870097
 30
0.0
 10
32.03403005526814
 20
0.5229805252266204
 30
0.0
 10
32.00477373170772
 20
0.3148109663765245
 30
0.0
 10
31.99010984944733
 20
0.10510768014293037
 30
0.0
 10
31.99010984944733
 20
-0.1051076801429307
 30
0.0
 10
32.00477373170772
 20
-0.31481096637652517
 30
0.0
 10
32.03403005526814
 20
-0.5229805252266208
 30
0.0
 10
32.0557077959379
 20
-0.6249662766870105
 30
0.0
 10
30.10897085745263
 20
-1.0381878089981238
 30
0.0
 10
30.076361152778837
 20
-1.0480661545874994
 30
0.0
 10
30.044460904460596
 20
-1.0600389866555502
 30
0.0
 10
30.013404481210664
 20
-1.07405587380698
 30
0.0
 10
29.983322697421855
 20
-1.0900577747746332
 30
0.0
 10
29.9543422621569
 20
-1.1079772871103164
 30
0.0
 10
29.926585245430502
 20
-1.1277389310941968
 30
0.0
 10
29.900168564031844
 20
-1.1492594676668966
 30
0.0
 10
29.875203489053217
 20
-1.1724482490451085
 30
0.0
 10
29.8517951771992
 20
-1.197207600543891
 30
0.0
 10
29.830042227850598
 20
-1.2234332319973409
 30
0.0
 10
29.810036267748785
 20
-1.2510146770446857
 30
0.0
 10
29.7918615650499
 20
-1.2798357584314461
 30
0.0
 10
29.775594674374524
 20
-1.309775077365757
 30
0.0
 10
29.76130411434792
 20
-1.3407065248686
 30
0.0
 10
29.74905007898915
 20
-1.3724998129640633
 30
0.0
 10
29.738884184164675
 20
-1.4050210234721727
 30
0.0
 10
29.730849250174444
 20
-1.4381331720926969
 30
0.0
 10
29.724979121386262
 20
-1.4716967854039196
 30
0.0
 10
29.721298523678165
 20
-1.505570488345969
 30
0.0
 10
29.71982296028922
 20
-1.539611599714141
 30
0.0
 10
29.720558646517546
 20
-1.5736767331538992
 30
0.0
 10
29.723502483540504
 20
-1.607622401126077
 30
0.0
 10
29.72864207146743
 20
-1.6413056192982833
 30
0.0
 10
29.735955761569862
 20
-1.6745845088167257
 30
0.0
 10
29.745412747469278
 20
-1.7073188939215864
 30
0.0
 10
29.757002673968586
 20
-1.7393602446146474
 30
0.0
 10
29.770646614855735
 20
-1.7705823109710392
 30
0.0
 10
29.786287099770142
 20
-1.800853580883901
 30
0.0
 10
29.803858248603163
 20
-1.8300465471460492
 30
0.0
 10
29.823286048995186
 20
-1.8580382445297872
 30
0.0
 10
29.844488668086974
 20
-1.8847107677352049
 30
0.0
 10
29.86737679721216
 20
-1.9099517680252902
 30
0.0
 10
29.89185402807895
 20
-1.9336549264559493
 30
0.0
 10
29.917817258856587
 20
-1.9557204017076204
 30
0.0
 10
29.945157128455982
 20
-1.9760552506321425
 30
0.0
 10
29.9737584771753
 20
-1.9945738197434766
 30
0.0
 10
30.003500831770182
 20
-2.0111981060032558
 30
0.0
 10
30.03425891290547
 20
-2.025858085381484
 30
0.0
 10
30.06590316285084
 20
-2.0384920078084323
 30
0.0
 10
30.098300291197738
 20
-2.049046657275355
 30
0.0
 10
30.131313836298933
 20
-2.057477575988437
 30
0.0
 10
30.16480474006577
 20
-2.0637492516318012
 30
0.0
 10
30.19863193370207
 20
-2.067835266950806
 30
0.0
 10
30.232652931907428
 20
-2.0697184110255478
 30
0.0
 10
30.26672443304701
 20
-2.0693907517658836
 30
0.0
 10
30.300702922759932
 20
-2.0668536693226045
 30
0.0
 10
30.33444527846362
 20
-2.062117850274029
 30
0.0
 10
30.36780937220798
 20
-2.0552032426125066
 30
0.0
 10
30.40065466933999
 20
-2.0461389717204277
 30
0.0
 10
30.432842820457118
 20
-2.0349632176896737
 30
0.0
 10
32.25067160989133
 20
-1.22500319723638
 30
0.0
  0
ENDSEC
  0
EOF
