999
DXF generated by OpenJsCad
  0
SECTION
  2
HEADER
  0
ENDSEC
  0
SECTION
  2
TABLES
  0
TABLE
  2
LTYPE
  70
1
  0
LTYPE
  2
CONTINUOUS
  3
Solid Line
  72
65
  73
0
  40
0.0
  0
ENDTAB
  0
TABLE
  2
LAYER
  70
1
  0
LAYER
  2
OpenJsCad
  62
7
  6
continuous
  0
ENDTAB
  0
TABLE
  2
STYLE
  70
0
  0
ENDTAB
  0
TABLE
  2
VIEW
  70
0
  0
ENDTAB
  0
ENDSEC
  0
SECTION
  2
BLOCKS
  0
ENDSEC
  0
SECTION
  2
ENTITIES
  0
LWPOLYLINE
  8
OpenJsCad
  90
1491
  70
1
 10
23.403519962510604
 20
0.7354852446927379
 30
0.0
 10
23.372131310604832
 20
1.6343386308756958
 30
0.0
 10
23.312293169550145
 20
2.2036605131331664
 30
0.0
 10
24.889049115077004
 20
2.3527078329628583
 30
0.0
 10
25.025248182487065
 20
2.383728205252968
 30
0.0
 10
25.15933324740519
 20
2.4228899828720696
 30
0.0
 10
25.290818121883408
 20
2.4700511665280613
 30
0.0
 10
25.419226046177055
 20
2.525040751350863
 30
0.0
 10
25.544091417459633
 20
2.587659346950338
 30
0.0
 10
25.664961478083043
 20
2.657679900399165
 30
0.0
 10
25.78139795726162
 20
2.7348485195191303
 30
0.0
 10
25.892978660227328
 20
2.818885393485657
 30
0.0
 10
25.999298999093785
 20
2.909485807412462
 30
0.0
 10
26.099973459878406
 20
3.006321247237519
 30
0.0
 10
26.19463700036316
 20
3.109040590904029
 30
0.0
 10
26.282946373725398
 20
3.217271381517215
 30
0.0
 10
26.36458137313934
 20
3.3306211778605346
 30
0.0
 10
26.257322139285474
 20
3.4201080831230772
 30
0.0
 10
26.144871264171627
 20
3.5029769563295936
 30
0.0
 10
26.027636490899205
 20
3.578927317725381
 30
0.0
 10
25.906042908823867
 20
3.6476837738475067
 30
0.0
 10
25.780531412195778
 20
3.7089970160922654
 30
0.0
 10
25.65155710149188
 20
3.7626447246998147
 30
0.0
 10
25.51958763323679
 20
3.8084323748781688
 30
0.0
 10
25.385101524295948
 20
3.8461939421435645
 30
0.0
 10
25.24858641678951
 20
3.8757925043196777
 30
0.0
 10
25.11053730991838
 20
3.897120738012837
 30
0.0
 10
24.9714547651137
 20
3.910101307763053
 30
0.0
 10
24.83184309101789
 20
3.9146871464597974
 30
0.0
 10
24.69220851487845
 20
3.910861626005773
 30
0.0
 10
23.130177415059062
 20
3.6634602044913596
 30
0.0
 10
22.917219360049238
 20
4.87120535020973
 30
0.0
 10
22.857847173195523
 20
5.109334185224938
 30
0.0
 10
24.39791904846869
 20
5.453581034913565
 30
0.0
 10
24.52915626198604
 20
5.501427071829775
 30
0.0
 10
24.657275753896894
 20
5.557085361894163
 30
0.0
 10
24.781812967220894
 20
5.620354090013816
 30
0.0
 10
24.902316334199696
 20
5.6910038459027
 30
0.0
 10
25.018348913666497
 20
5.768778455915658
 30
0.0
 10
25.12948997538005
 20
5.853395911925461
 30
0.0
 10
25.23533652557842
 20
5.944549393874811
 30
0.0
 10
25.33550476822084
 20
6.041908382295584
 30
0.0
 10
25.429631496619276
 20
6.14511985676133
 30
0.0
 10
25.51737541041371
 20
6.253809575927502
 30
0.0
 10
25.598418353115786
 20
6.36758343451802
 30
0.0
 10
25.67246646573356
 20
6.486028892337777
 30
0.0
 10
25.73925125229437
 20
6.608716470129556
 30
0.0
 10
25.621622106338
 20
6.684054597807125
 30
0.0
 10
25.499671716121075
 20
6.752176193401522
 30
0.0
 10
25.37384226966812
 20
6.81283425029202
 30
0.0
 10
25.244590020331483
 20
6.865808824398895
 30
0.0
 10
25.112383632431925
 20
6.910907831693283
 30
0.0
 10
24.977702481897587
 20
6.947967744687421
 30
0.0
 10
24.841034918062892
 20
6.976854185379838
 30
0.0
 10
24.702876492930276
 20
6.997462412505476
 30
0.0
 10
24.56372816431523
 20
7.009717701324008
 30
0.0
 10
24.42409447939007
 20
7.013575614569239
 30
0.0
 10
24.284481745212812
 20
7.009022163577144
 30
0.0
 10
24.14539619287477
 20
6.996073859008287
 30
0.0
 10
24.00734214192358
 20
6.974777650980733
 30
0.0
 10
22.496311187443908
 20
6.535782577351125
 30
0.0
 10
22.041534672546454
 20
7.935440770344947
 30
0.0
 10
23.522019223855636
 20
8.468448006132283
 30
0.0
 10
23.646224894225806
 20
8.532365147090593
 30
0.0
 10
23.766358292207077
 20
8.603642185117302
 30
0.0
 10
23.88198381812782
 20
8.682020672063262
 30
0.0
 10
23.9926822177093
 20
8.767216410163742
 30
0.0
 10
24.098052102267626
 20
8.85892048252998
 30
0.0
 10
24.197711404135646
 20
8.956800373271465
 30
0.0
 10
24.291298762027512
 20
9.060501173187406
 30
0.0
 10
24.378474831322567
 20
9.169646866655588
 30
0.0
 10
24.45892351451756
 20
9.283841695052406
 30
0.0
 10
24.5323531073856
 20
9.40267159176035
 30
0.0
 10
24.598497356685876
 20
9.525705683559694
 30
0.0
 10
24.657116425589006
 20
9.65249785296032
 30
0.0
 10
24.70799776331732
 20
9.782588355808777
 30
0.0
 10
24.581853787158426
 20
9.84258957862308
 30
0.0
 10
24.45232711234177
 20
9.894889578348964
 30
0.0
 10
24.319887398245722
 20
9.939298716941643
 30
0.0
 10
24.18501486683137
 20
9.975655968354127
 30
0.0
 10
24.04819856137379
 20
10.003829502412268
 30
0.0
 10
23.909934573207554
 20
10.023717162826559
 30
0.0
 10
23.77072424291618
 20
10.035246837607398
 30
0.0
 10
23.631072342487972
 20
10.038376720540748
 30
0.0
 10
23.491485245029757
 20
10.033095462776076
 30
0.0
 10
23.35246908867495
 20
10.019422213976897
 30
0.0
 10
23.2145279413437
 20
9.997406552884735
 30
0.0
 10
23.078161973009475
 20
9.96712830754827
 30
0.0
 10
22.943865642099528
 20
9.928697265869515
 30
0.0
 10
21.495578101049524
 20
9.301967281771672
 30
0.0
 10
21.40364259183986
 20
9.529515651978649
 30
0.0
 10
20.866034492250762
 20
10.631775603830325
 30
0.0
 10
22.2751631047092
 20
11.349762493488674
 30
0.0
 10
22.39037843431357
 20
11.428742726993914
 30
0.0
 10
22.50063116291488
 20
11.514514431514423
 30
0.0
 10
22.605521517817248
 20
11.606766601726514
 30
0.0
 10
22.70466917011199
 20
11.705164734355279
 30
0.0
 10
22.797714613737437
 20
11.809352041072222
 30
0.0
 10
22.88432046903589
 20
11.918950742197785
 30
0.0
 10
22.96417270608092
 20
12.033563436517788
 30
0.0
 10
23.036981783339368
 20
12.152774542246911
 30
0.0
 10
23.10248369753922
 20
12.276151803914297
 30
0.0
 10
23.160440940936613
 20
12.40324785970739
 30
0.0
 10
23.21064336251097
 20
12.533601863590883
 30
0.0
 10
23.252908929965518
 20
12.666741156318958
 30
0.0
 10
23.28708438977032
 20
12.80218297928187
 30
0.0
 10
23.154414949267693
 20
12.845901042106135
 30
0.0
 10
23.019354702888656
 20
12.881554643725325
 30
0.0
 10
22.88239337455645
 20
12.909014505375842
 30
0.0
 10
22.744027581453736
 20
12.92818105852039
 30
0.0
 10
22.604759033305296
 20
12.938984805880137
 30
0.0
 10
22.465092713195457
 20
12.941386573429533
 30
0.0
 10
22.325535046516308
 20
12.935377652440005
 30
0.0
 10
22.18659206468626
 20
12.920979831057506
 30
0.0
 10
22.04876757029708
 20
12.898245315299452
 30
0.0
 10
21.91256131034258
 20
12.867256539757426
 30
0.0
 10
21.778467164152797
 20
12.82812586869214
 30
0.0
 10
21.646971352604098
 20
12.780995188604368
 30
0.0
 10
21.518550675098595
 20
12.72603539375929
 30
0.0
 10
20.15532050269601
 20
11.919823317222384
 30
0.0
 10
19.869091569522727
 20
12.415586372074749
 30
0.0
 10
19.366152757973524
 20
13.161223823627784
 30
0.0
 10
20.67701435686405
 20
14.052084446303267
 30
0.0
 10
20.781422331128464
 20
14.144882206892559
 30
0.0
 10
20.88005563895798
 20
14.243795906889046
 30
0.0
 10
20.972556639286708
 20
14.34846688853425
 30
0.0
 10
21.058589926590084
 20
14.45851561835955
 30
0.0
 10
21.13784354705403
 20
14.573543063361793
 30
0.0
 10
21.210030129709022
 20
14.693132137883593
 30
0.0
 10
21.274887928427603
 20
14.816849215951928
 30
0.0
 10
21.33218177100704
 20
14.94424570359138
 30
0.0
 10
21.381703911895872
 20
15.074859665410834
 30
0.0
 10
21.42327478547227
 20
15.208217499565716
 30
0.0
 10
21.456743657143004
 20
15.343835655022406
 30
0.0
 10
21.481989169901986
 20
15.48122238489805
 30
0.0
 10
21.498919784366727
 20
15.61987952951827
 30
0.0
 10
21.36181715584997
 20
15.646624972385853
 30
0.0
 10
21.223353318675024
 20
15.665069897302383
 30
0.0
 10
21.084030338071198
 20
15.675147423588786
 30
0.0
 10
20.944353394493067
 20
15.676821010472764
 30
0.0
 10
20.80482895185307
 20
15.670084589584407
 30
0.0
 10
20.665962921100366
 20
15.65496258695991
 30
0.0
 10
20.528258825804688
 20
15.631509834473574
 30
0.0
 10
20.39221597639678
 20
15.599811371019271
 30
0.0
 10
20.258327659685516
 20
15.559982134162277
 30
0.0
 10
20.127079350216476
 20
15.512166543379504
 30
0.0
 10
19.99894694995753
 20
15.45653797639932
 30
0.0
 10
19.874395062694273
 20
15.393298140539732
 30
0.0
 10
19.753875309392267
 20
15.322676341324415
 30
0.0
 10
18.5015379977553
 20
14.351263947764664
 30
0.0
 10
17.947811280561517
 20
15.060001825958592
 30
0.0
 10
17.564762201338137
 20
15.485420927137877
 30
0.0
 10
18.752776740761494
 20
16.5327966330913
 30
0.0
 10
18.8447307835615
 20
16.637948444645456
 30
0.0
 10
18.93018916443407
 20
16.7484442119808
 30
0.0
 10
19.008842014156553
 20
16.863883281151157
 30
0.0
 10
19.080404140133997
 20
16.98384707396372
 30
0.0
 10
19.144616060497903
 20
17.10790060572951
 30
0.0
 10
19.201244944978793
 20
17.23559406250329
 30
0.0
 10
19.25008545914096
 20
17.366464432093814
 30
0.0
 10
19.29096050891823
 20
17.500037182930548
 30
0.0
 10
19.32372188275113
 20
17.635827984699183
 30
0.0
 10
19.348250788996996
 20
17.773344464507122
 30
0.0
 10
19.364458286664526
 20
17.9120879922111
 30
0.0
 10
19.372285607910797
 20
18.051555488433316
 30
0.0
 10
19.371704371131507
 20
18.191241248710423
 30
0.0
 10
19.232330744953472
 20
18.200592280010348
 30
0.0
 10
19.092646974409153
 20
18.201537640739822
 30
0.0
 10
18.953159548165342
 20
18.19407390305255
 30
0.0
 10
18.814374242950986
 20
18.178228130211046
 30
0.0
 10
18.676794289627722
 20
18.154057778456135
 30
0.0
 10
18.54091854849167
 20
18.12165048867258
 30
0.0
 10
18.407239700422718
 20
18.081123768606144
 30
0.0
 10
18.276242460440166
 20
18.032624566784456
 30
0.0
 10
18.148401820142357
 20
17.97632873968659
 30
0.0
 10
18.024181325403045
 20
17.912440414093357
 30
0.0
 10
17.90403139556961
 20
17.841191246930453
 30
0.0
 10
17.788387690257625
 20
17.7628395852882
 30
0.0
 10
17.67766952966369
 20
17.677669529663692
 30
0.0
 10
16.559378731129982
 20
16.559378731129986
 30
0.0
 10
15.677197260356918
 20
17.411291474798325
 30
0.0
 10
15.489195534831534
 20
17.569043653347368
 30
0.0
 10
16.532796633091305
 20
18.75277674076149
 30
0.0
 10
16.61084657424126
 20
18.868624296397652
 30
0.0
 10
16.681782298440165
 20
18.988959546813994
 30
0.0
 10
16.745346595131345
 20
19.113346160428733
 30
0.0
 10
16.80130898230705
 20
19.24133311555301
 30
0.0
 10
16.849466542228434
 20
19.37245633578042
 30
0.0
 10
16.889644657198506
 20
19.506240372712476
 30
0.0
 10
16.92169764272001
 20
19.642200129918585
 30
0.0
 10
16.94550927574256
 20
19.779842621879414
 30
0.0
 10
16.960993216083484
 20
19.918668761535837
 30
0.0
 10
16.968093319494464
 20
20.058175169961903
 30
0.0
 10
16.96678384123868
 20
20.197856001599906
 30
0.0
 10
16.957069529440368
 20
20.337204778439432
 30
0.0
 10
16.938985607868272
 20
20.475716226489624
 30
0.0
 10
16.799538989371555
 20
20.467525374872256
 30
0.0
 10
16.66083818196239
 20
20.450956262511237
 30
0.0
 10
16.523386110116206
 20
20.426068968452245
 30
0.0
 10
16.38768117043518
 20
20.392953733188772
 30
0.0
 10
16.254215424478843
 20
20.351730631453155
 30
0.0
 10
16.123472814565392
 20
20.302549136829604
 30
0.0
 10
15.995927409013081
 20
20.245587579768
 30
0.0
 10
15.87204168318437
 20
20.181052500963673
 30
0.0
 10
15.752264842565808
 20
20.10917790244777
 30
0.0
 10
15.637031193963985
 20
20.030224399103723
 30
0.0
 10
15.526758570723626
 20
19.944478273686443
 30
0.0
 10
15.421846817677883
 20
19.852250438770636
 30
0.0
 10
15.322676341324417
 20
19.75387530939226
 30
0.0
 10
14.358261450232295
 20
18.510559123578457
 30
0.0
 10
13.167641076945541
 20
19.3755954594809
 30
0.0
 10
14.052084446303265
 20
20.677014356864046
 30
0.0
 10
14.11499939160647
 20
20.80173067142586
 30
0.0
 10
14.170293760386139
 20
20.93000764613935
 30
0.0
 10
14.217767057115726
 20
21.0613801529968
 30
0.0
 10
14.257247145213618
 20
21.19537183969478
 30
0.0
 10
14.288590871204592
 20
21.3314968568716
 30
0.0
 10
14.311684583789521
 20
21.469261619780813
 30
0.0
 10
14.326444545941168
 20
21.60816659801294
 30
0.0
 10
14.332817238531842
 20
21.747708126775997
 30
0.0
 10
14.330779554391961
 20
21.887380233167125
 30
0.0
 10
14.320338882095866
 20
22.026676470813342
 30
0.0
 10
14.301533079171111
 20
22.165091756229156
 30
0.0
 10
14.274430334828324
 20
22.302124200232306
 30
0.0
 10
14.239128922709426
 20
22.437276927777106
 30
0.0
 10
14.101808468369091
 20
22.411673367865426
 30
0.0
 10
13.966278018683767
 20
22.37785108721376
 30
0.0
 10
13.833029002518114
 20
22.3359327242773
 30
0.0
 10
13.702544576335386
 20
22.286070273634053
 30
0.0
 10
13.575297872288274
 20
22.22844453485758
 30
0.0
 10
13.451750282657613
 20
22.163264456943846
 30
0.0
 10
13.332349786859435
 20
22.090766380669127
 30
0.0
 10
13.21752932708663
 20
22.011213181626292
 30
0.0
 10
13.107705238475091
 20
21.924893317046745
 30
0.0
 10
13.003275739486455
 20
21.832119779864154
 30
0.0
 10
12.904619487981337
 20
21.733228963812586
 30
0.0
 10
12.812094208218618
 20
21.628579443674088
 30
0.0
 10
12.726035393759282
 20
21.51855067509859
 30
0.0
 10
11.922728802130536
 20
20.160233409370978
 30
0.0
 10
11.714601836602553
 20
20.2902855714353
 30
0.0
 10
10.631775603830325
 20
20.866034492250765
 30
0.0
 10
11.349762493488674
 20
22.275163104709204
 30
0.0
 10
11.396550236674123
 20
22.40678132741411
 30
0.0
 10
11.435331224807648
 20
22.54097702190456
 30
0.0
 10
11.465964839327043
 20
22.67726359909345
 30
0.0
 10
11.48834000377356
 20
22.81514688842315
 30
0.0
 10
11.502375586551413
 20
22.95412692971136
 30
0.0
 10
11.50802069510822
 20
23.09369978598997
 30
0.0
 10
11.505254860469702
 20
23.233359370763583
 30
0.0
 10
11.494088111459487
 20
23.37259928306221
 30
0.0
 10
11.474560938334939
 20
23.510914643634173
 30
0.0
 10
11.446744145970834
 20
23.647803925621325
 30
0.0
 10
11.41073859712327
 20
23.782770773078663
 30
0.0
 10
11.36667484670469
 20
23.91532580074429
 30
0.0
 10
11.314712668396144
 20
24.04498836853399
 30
0.0
 10
11.181684003808403
 20
24.00237588376263
 30
0.0
 10
11.051461308000421
 20
23.951833832390644
 30
0.0
 10
10.924516764099337
 20
23.89354547820104
 30
0.0
 10
10.801310668763428
 20
23.827722172811043
 30
0.0
 10
10.682289763161862
 20
23.75460258931818
 30
0.0
 10
10.567885613106217
 20
23.674451856879653
 30
0.0
 10
10.45851304420731
 20
23.587560599362916
 30
0.0
 10
10.354568637731447
 20
23.494243881553256
 30
0.0
 10
10.25642929261006
 20
23.394840066739476
 30
0.0
 10
10.16445085881682
 20
23.28970958981994
 30
0.0
 10
10.078966847067573
 20
23.179233650377718
 30
0.0
 10
10.000287219521653
 20
23.06381283046371
 30
0.0
 10
9.928697265869515
 20
22.943865642099528
 30
0.0
 10
9.29970045795962
 20
21.4903397802925
 30
0.0
 10
8.776734174466934
 20
21.72317937115264
 30
0.0
 10
7.9315734312130735
 20
22.030792724867347
 30
0.0
 10
8.468448006132286
 20
23.522019223855636
 30
0.0
 10
8.498370676540306
 20
23.65846365670667
 30
0.0
 10
8.520026684678182
 20
23.796461724707346
 30
0.0
 10
8.53333750658678
 20
23.935513051491753
 30
0.0
 10
8.538254877672326
 20
24.075113441612963
 30
0.0
 10
8.534760967712195
 20
24.214756708738797
 30
0.0
 10
8.522868445506717
 20
24.3539365110665
 30
0.0
 10
8.502620432942512
 20
24.49214818730113
 30
0.0
 10
8.474090348633993
 20
24.62889058654049
 30
0.0
 10
8.437381641709921
 20
24.76366788543147
 30
0.0
 10
8.392627416710335
 20
24.89599138600893
 30
0.0
 10
8.33998995095396
 20
25.0253812876981
 30
0.0
 10
8.279660106126096
 20
25.151368427055388
 30
0.0
 10
8.21185663622053
 20
25.273495978939277
 30
0.0
 10
8.085217702893404
 20
25.21454659364855
 30
0.0
 10
7.962356450666927
 20
25.148081849898734
 30
0.0
 10
7.843718370320724
 20
25.074342746621333
 30
0.0
 10
7.729733639554834
 20
24.993596659331526
 30
0.0
 10
7.620815563179796
 20
24.906136370633465
 30
0.0
 10
7.517359074487269
 20
24.81227900860043
 30
0.0
 10
7.419739303235173
 20
24.712364896879038
 30
0.0
 10
7.328310215439754
 20
24.60675632068712
 30
0.0
 10
7.24340332990669
 20
24.49583621317968
 30
0.0
 10
7.16532651615502
 20
24.380006766946117
 30
0.0
 10
7.094362878092598
 20
24.259687975673383
 30
0.0
 10
7.03076972749081
 20
24.135316111262956
 30
0.0
 10
6.974777650980732
 20
24.00734214192358
 30
0.0
 10
6.532597362005146
 20
22.485347604311492
 30
0.0
 10
5.66803736501248
 20
22.733256194160788
 30
0.0
 10
5.108089076524381
 20
22.852276877074832
 30
0.0
 10
5.453581034913562
 20
24.397919048468687
 30
0.0
 10
5.466166734156879
 20
24.537037881251827
 30
0.0
 10
5.4703562341141
 20
24.67666201079431
 30
0.0
 10
5.466134343798902
 20
24.816285164685606
 30
0.0
 10
5.4535163716439605
 20
24.955401074052883
 30
0.0
 10
5.432548069993082
 20
25.093505309274924
 30
0.0
 10
5.403305469204747
 20
25.230097109027035
 30
0.0
 10
5.36589460196857
 20
25.364681196024804
 30
0.0
 10
5.320451118834337
 20
25.496769572882933
 30
0.0
 10
5.26713979634765
 20
25.625883291577374
 30
0.0
 10
5.206153939575703
 20
25.751554190094804
 30
0.0
 10
5.137714681189597
 20
25.87332658997239
 30
0.0
 10
5.062070179644684
 20
25.9907589485726
 30
0.0
 10
4.97949471936634
 20
26.10342546010201
 30
0.0
 10
4.861242688928828
 20
26.029068841312604
 30
0.0
 10
4.747680475625222
 20
25.947729593898007
 30
0.0
 10
4.639219852231914
 20
25.859702651241104
 30
0.0
 10
4.5362540933314
 20
25.765307196083413
 30
0.0
 10
4.439156549311826
 20
25.66488550317917
 30
0.0
 10
4.3482792926110125
 20
25.55880169821856
 30
0.0
 10
4.263951841113598
 20
25.447440437520157
 30
0.0
 10
4.186479963330246
 20
25.331205513280032
 30
0.0
 10
4.116144569691274
 20
25.210518389434785
 30
0.0
 10
4.0532006939748655
 20
25.085816673447457
 30
0.0
 10
3.9978765685631386
 20
24.95755252955754
 30
0.0
 10
3.9503727968791793
 20
24.8261910392486
 30
0.0
 10
3.9108616260057687
 20
24.692208514878445
 30
0.0
 10
3.6634602044913565
 20
23.130177415059062
 30
0.0
 10
2.449018655544991
 20
23.300856044045247
 30
0.0
 10
2.2041976605550007
 20
23.317975595721737
 30
0.0
 10
2.3527078329628557
 20
24.889049115077
 30
0.0
 10
2.347758077046071
 20
25.028648360693698
 30
0.0
 10
2.3344149979056263
 20
25.167696595847687
 30
0.0
 10
2.3127269770989387
 20
25.30568963630218
 30
0.0
 10
2.282772654662005
 20
25.442127123920983
 30
0.0
 10
2.2446606439632686
 20
25.576514340950308
 30
0.0
 10
2.19852913787519
 20
25.708364003848747
 30
0.0
 10
2.1445454076915254
 20
25.837198030161062
 30
0.0
 10
2.0829051966072263
 20
25.962549272029143
 30
0.0
 10
2.0138320099601805
 20
26.083963210054435
 30
0.0
 10
1.937576304808352
 20
26.20099960137006
 30
0.0
 10
1.854414581780893
 20
26.313234075946685
 30
0.0
 10
1.7646483824961325
 20
26.420259675344003
 30
0.0
 10
1.6686031961817855
 20
26.5216883283284
 30
0.0
 10
1.560602973794228
 20
26.43309712433712
 30
0.0
 10
1.458130743356068
 20
26.33816614177918
 30
0.0
 10
1.3615580657378037
 20
26.237239597213215
 30
0.0
 10
1.2712351102292885
 20
26.130683446904598
 30
0.0
 10
1.18748938483763
 20
26.018884059880286
 30
0.0
 10
1.1106245487541415
 20
25.90224681696772
 30
0.0
 10
1.0409193112963018
 20
25.781194640897514
 30
0.0
 10
0.9786264213171164
 20
25.65616646279982
 30
0.0
 10
0.9239717507462526
 20
25.5276156306548
 30
0.0
 10
0.8771534755860019
 20
25.396008265468023
 30
0.0
 10
0.8383413573317414
 20
25.26182157113135
 30
0.0
 10
0.8076761274224448
 20
25.125542104097622
 30
0.0
 10
0.7852689769532053
 20
24.987664009143295
 30
0.0
 10
0.7358438583892974
 20
23.414931235363284
 30
0.0
 10
-0.7358438583893
 20
23.414931235363284
 30
0.0
 10
-0.7852689769532083
 20
24.987664009143295
 30
0.0
 10
-0.8076761274224474
 20
25.125542104097622
 30
0.0
 10
-0.8383413573317441
 20
25.26182157113135
 30
0.0
 10
-0.8771534755860045
 20
25.396008265468023
 30
0.0
 10
-0.9239717507462553
 20
25.5276156306548
 30
0.0
 10
-0.9786264213171191
 20
25.65616646279982
 30
0.0
 10
-1.0409193112963049
 20
25.781194640897514
 30
0.0
 10
-1.1106245487541444
 20
25.90224681696772
 30
0.0
 10
-1.1874893848376327
 20
26.018884059880286
 30
0.0
 10
-1.2712351102292916
 20
26.130683446904598
 30
0.0
 10
-1.361558065737807
 20
26.237239597213215
 30
0.0
 10
-1.458130743356071
 20
26.33816614177918
 30
0.0
 10
-1.5606029737942309
 20
26.43309712433712
 30
0.0
 10
-1.6686031961817887
 20
26.5216883283284
 30
0.0
 10
-1.7646483824961354
 20
26.420259675344003
 30
0.0
 10
-1.8544145817808961
 20
26.313234075946685
 30
0.0
 10
-1.9375763048083554
 20
26.20099960137006
 30
0.0
 10
-2.0138320099601836
 20
26.083963210054435
 30
0.0
 10
-2.0829051966072294
 20
25.962549272029143
 30
0.0
 10
-2.1445454076915285
 20
25.837198030161062
 30
0.0
 10
-2.198529137875193
 20
25.708364003848747
 30
0.0
 10
-2.2446606439632713
 20
25.576514340950308
 30
0.0
 10
-2.2827726546620077
 20
25.442127123920983
 30
0.0
 10
-2.3127269770989414
 20
25.30568963630218
 30
0.0
 10
-2.334414997905629
 20
25.167696595847687
 30
0.0
 10
-2.3477580770460738
 20
25.028648360693698
 30
0.0
 10
-2.3527078329628592
 20
24.889049115077004
 30
0.0
 10
-2.204197660555004
 20
23.317975595721737
 30
0.0
 10
-2.449018655544988
 20
23.30085604404525
 30
0.0
 10
-3.663460204491353
 20
23.130177415059062
 30
0.0
 10
-3.9108616260057656
 20
24.692208514878445
 30
0.0
 10
-3.9503727968791758
 20
24.8261910392486
 30
0.0
 10
-3.997876568563135
 20
24.95755252955754
 30
0.0
 10
-4.053200693974863
 20
25.085816673447457
 30
0.0
 10
-4.11614456969127
 20
25.210518389434785
 30
0.0
 10
-4.1864799633302425
 20
25.331205513280032
 30
0.0
 10
-4.263951841113594
 20
25.447440437520157
 30
0.0
 10
-4.348279292611009
 20
25.55880169821856
 30
0.0
 10
-4.439156549311822
 20
25.66488550317917
 30
0.0
 10
-4.536254093331396
 20
25.765307196083413
 30
0.0
 10
-4.639219852231911
 20
25.859702651241104
 30
0.0
 10
-4.747680475625219
 20
25.947729593898007
 30
0.0
 10
-4.861242688928825
 20
26.029068841312604
 30
0.0
 10
-4.979494719366336
 20
26.10342546010201
 30
0.0
 10
-5.062070179644682
 20
25.9907589485726
 30
0.0
 10
-5.137714681189594
 20
25.87332658997239
 30
0.0
 10
-5.2061539395756995
 20
25.751554190094804
 30
0.0
 10
-5.267139796347647
 20
25.625883291577374
 30
0.0
 10
-5.320451118834334
 20
25.496769572882933
 30
0.0
 10
-5.3658946019685665
 20
25.364681196024804
 30
0.0
 10
-5.403305469204743
 20
25.230097109027035
 30
0.0
 10
-5.432548069993079
 20
25.093505309274924
 30
0.0
 10
-5.453516371643957
 20
24.955401074052883
 30
0.0
 10
-5.466134343798899
 20
24.816285164685606
 30
0.0
 10
-5.470356234114097
 20
24.67666201079431
 30
0.0
 10
-5.466166734156875
 20
24.537037881251827
 30
0.0
 10
-5.453581034913559
 20
24.397919048468694
 30
0.0
 10
-5.108089076524377
 20
22.852276877074832
 30
0.0
 10
-5.668037365012478
 20
22.733256194160788
 30
0.0
 10
-6.532597362005143
 20
22.485347604311492
 30
0.0
 10
-6.974777650980729
 20
24.007342141923576
 30
0.0
 10
-7.030769727490807
 20
24.13531611126296
 30
0.0
 10
-7.094362878092595
 20
24.259687975673383
 30
0.0
 10
-7.165326516155018
 20
24.38000676694612
 30
0.0
 10
-7.243403329906687
 20
24.495836213179683
 30
0.0
 10
-7.3283102154397515
 20
24.606756320687122
 30
0.0
 10
-7.41973930323517
 20
24.71236489687904
 30
0.0
 10
-7.517359074487267
 20
24.812279008600434
 30
0.0
 10
-7.620815563179792
 20
24.906136370633465
 30
0.0
 10
-7.729733639554832
 20
24.99359665933153
 30
0.0
 10
-7.843718370320722
 20
25.074342746621337
 30
0.0
 10
-7.962356450666925
 20
25.148081849898738
 30
0.0
 10
-8.0852177028934
 20
25.214546593648553
 30
0.0
 10
-8.211856636220528
 20
25.27349597893928
 30
0.0
 10
-8.279660106126093
 20
25.15136842705539
 30
0.0
 10
-8.33998995095396
 20
25.025381287698103
 30
0.0
 10
-8.392627416710331
 20
24.895991386008934
 30
0.0
 10
-8.437381641709917
 20
24.763667885431474
 30
0.0
 10
-8.474090348633991
 20
24.62889058654049
 30
0.0
 10
-8.50262043294251
 20
24.492148187301133
 30
0.0
 10
-8.522868445506715
 20
24.353936511066504
 30
0.0
 10
-8.534760967712193
 20
24.2147567087388
 30
0.0
 10
-8.538254877672323
 20
24.075113441612967
 30
0.0
 10
-8.533337506586777
 20
23.935513051491757
 30
0.0
 10
-8.52002668467818
 20
23.796461724707346
 30
0.0
 10
-8.498370676540302
 20
23.658463656706672
 30
0.0
 10
-8.468448006132284
 20
23.522019223855644
 30
0.0
 10
-7.93157343121307
 20
22.030792724867347
 30
0.0
 10
-8.776734174466936
 20
21.72317937115264
 30
0.0
 10
-9.299700457959624
 20
21.490339780292498
 30
0.0
 10
-9.928697265869516
 20
22.943865642099528
 30
0.0
 10
-10.000287219521656
 20
23.063812830463707
 30
0.0
 10
-10.078966847067573
 20
23.179233650377714
 30
0.0
 10
-10.164450858816823
 20
23.289709589819935
 30
0.0
 10
-10.256429292610061
 20
23.394840066739476
 30
0.0
 10
-10.354568637731449
 20
23.494243881553256
 30
0.0
 10
-10.458513044207312
 20
23.587560599362913
 30
0.0
 10
-10.56788561310622
 20
23.67445185687965
 30
0.0
 10
-10.682289763161863
 20
23.754602589318175
 30
0.0
 10
-10.80131066876343
 20
23.82772217281104
 30
0.0
 10
-10.924516764099339
 20
23.893545478201037
 30
0.0
 10
-11.051461308000425
 20
23.95183383239064
 30
0.0
 10
-11.181684003808405
 20
24.00237588376263
 30
0.0
 10
-11.314712668396146
 20
24.044988368533986
 30
0.0
 10
-11.366674846704692
 20
23.91532580074429
 30
0.0
 10
-11.410738597123274
 20
23.78277077307866
 30
0.0
 10
-11.446744145970834
 20
23.64780392562132
 30
0.0
 10
-11.47456093833494
 20
23.51091464363417
 30
0.0
 10
-11.494088111459488
 20
23.372599283062208
 30
0.0
 10
-11.505254860469703
 20
23.23335937076358
 30
0.0
 10
-11.508020695108222
 20
23.093699785989966
 30
0.0
 10
-11.502375586551414
 20
22.95412692971136
 30
0.0
 10
-11.488340003773562
 20
22.81514688842315
 30
0.0
 10
-11.465964839327045
 20
22.677263599093443
 30
0.0
 10
-11.435331224807648
 20
22.540977021904556
 30
0.0
 10
-11.396550236674125
 20
22.406781327414105
 30
0.0
 10
-11.349762493488674
 20
22.2751631047092
 30
0.0
 10
-10.631775603830325
 20
20.866034492250762
 30
0.0
 10
-11.714601836602546
 20
20.2902855714353
 30
0.0
 10
-11.922728802130537
 20
20.16023340937097
 30
0.0
 10
-12.72603539375929
 20
21.51855067509859
 30
0.0
 10
-12.812094208218626
 20
21.628579443674084
 30
0.0
 10
-12.904619487981346
 20
21.733228963812582
 30
0.0
 10
-13.003275739486464
 20
21.83211977986415
 30
0.0
 10
-13.1077052384751
 20
21.924893317046745
 30
0.0
 10
-13.217529327086641
 20
22.01121318162629
 30
0.0
 10
-13.332349786859444
 20
22.090766380669123
 30
0.0
 10
-13.451750282657622
 20
22.163264456943843
 30
0.0
 10
-13.575297872288283
 20
22.22844453485758
 30
0.0
 10
-13.702544576335395
 20
22.286070273634046
 30
0.0
 10
-13.833029002518124
 20
22.335932724277296
 30
0.0
 10
-13.966278018683775
 20
22.377851087213756
 30
0.0
 10
-14.101808468369102
 20
22.411673367865422
 30
0.0
 10
-14.239128922709435
 20
22.437276927777102
 30
0.0
 10
-14.274430334828335
 20
22.302124200232303
 30
0.0
 10
-14.30153307917112
 20
22.165091756229153
 30
0.0
 10
-14.320338882095877
 20
22.02667647081334
 30
0.0
 10
-14.33077955439197
 20
21.887380233167118
 30
0.0
 10
-14.33281723853185
 20
21.747708126775997
 30
0.0
 10
-14.326444545941177
 20
21.608166598012936
 30
0.0
 10
-14.31168458378953
 20
21.46926161978081
 30
0.0
 10
-14.288590871204601
 20
21.331496856871595
 30
0.0
 10
-14.257247145213627
 20
21.19537183969478
 30
0.0
 10
-14.217767057115735
 20
21.061380152996797
 30
0.0
 10
-14.170293760386146
 20
20.930007646139348
 30
0.0
 10
-14.11499939160648
 20
20.801730671425858
 30
0.0
 10
-14.052084446303272
 20
20.677014356864046
 30
0.0
 10
-13.167641076945545
 20
19.375595459480895
 30
0.0
 10
-14.358261450232293
 20
18.510559123578457
 30
0.0
 10
-15.322676341324417
 20
19.753875309392267
 30
0.0
 10
-15.421846817677883
 20
19.85225043877064
 30
0.0
 10
-15.526758570723622
 20
19.944478273686443
 30
0.0
 10
-15.637031193963981
 20
20.030224399103727
 30
0.0
 10
-15.752264842565808
 20
20.109177902447772
 30
0.0
 10
-15.872041683184367
 20
20.181052500963673
 30
0.0
 10
-15.995927409013078
 20
20.245587579768003
 30
0.0
 10
-16.123472814565392
 20
20.302549136829608
 30
0.0
 10
-16.25421542447884
 20
20.351730631453158
 30
0.0
 10
-16.38768117043518
 20
20.392953733188776
 30
0.0
 10
-16.523386110116203
 20
20.426068968452245
 30
0.0
 10
-16.660838181962387
 20
20.45095626251124
 30
0.0
 10
-16.799538989371552
 20
20.46752537487226
 30
0.0
 10
-16.93898560786827
 20
20.475716226489627
 30
0.0
 10
-16.957069529440364
 20
20.337204778439435
 30
0.0
 10
-16.966783841238676
 20
20.19785600159991
 30
0.0
 10
-16.96809331949446
 20
20.058175169961903
 30
0.0
 10
-16.960993216083484
 20
19.91866876153584
 30
0.0
 10
-16.945509275742555
 20
19.779842621879418
 30
0.0
 10
-16.92169764272001
 20
19.64220012991859
 30
0.0
 10
-16.889644657198502
 20
19.50624037271248
 30
0.0
 10
-16.84946654222843
 20
19.37245633578042
 30
0.0
 10
-16.80130898230705
 20
19.241333115553015
 30
0.0
 10
-16.74534659513134
 20
19.113346160428737
 30
0.0
 10
-16.68178229844016
 20
18.988959546813998
 30
0.0
 10
-16.61084657424126
 20
18.868624296397655
 30
0.0
 10
-16.5327966330913
 20
18.752776740761494
 30
0.0
 10
-15.489195534831534
 20
17.56904365334737
 30
0.0
 10
-15.677197260356918
 20
17.41129147479833
 30
0.0
 10
-16.559378731129986
 20
16.559378731129986
 30
0.0
 10
-17.677669529663692
 20
17.67766952966369
 30
0.0
 10
-17.78838769025763
 20
17.762839585288194
 30
0.0
 10
-17.90403139556961
 20
17.841191246930446
 30
0.0
 10
-18.024181325403045
 20
17.91244041409335
 30
0.0
 10
-18.14840182014236
 20
17.976328739686583
 30
0.0
 10
-18.27624246044017
 20
18.03262456678445
 30
0.0
 10
-18.40723970042272
 20
18.081123768606133
 30
0.0
 10
-18.540918548491675
 20
18.121650488672575
 30
0.0
 10
-18.67679428962773
 20
18.15405777845613
 30
0.0
 10
-18.81437424295099
 20
18.17822813021104
 30
0.0
 10
-18.953159548165345
 20
18.194073903052544
 30
0.0
 10
-19.092646974409156
 20
18.201537640739815
 30
0.0
 10
-19.232330744953476
 20
18.20059228001034
 30
0.0
 10
-19.37170437113151
 20
18.191241248710416
 30
0.0
 10
-19.3722856079108
 20
18.05155548843331
 30
0.0
 10
-19.36445828666453
 20
17.91208799221109
 30
0.0
 10
-19.348250788997
 20
17.773344464507115
 30
0.0
 10
-19.32372188275113
 20
17.635827984699176
 30
0.0
 10
-19.290960508918236
 20
17.500037182930544
 30
0.0
 10
-19.250085459140962
 20
17.36646443209381
 30
0.0
 10
-19.201244944978797
 20
17.235594062503278
 30
0.0
 10
-19.144616060497906
 20
17.107900605729505
 30
0.0
 10
-19.080404140134
 20
16.983847073963712
 30
0.0
 10
-19.008842014156553
 20
16.86388328115115
 30
0.0
 10
-18.93018916443407
 20
16.748444211980793
 30
0.0
 10
-18.844730783561502
 20
16.63794844464545
 30
0.0
 10
-18.752776740761497
 20
16.5327966330913
 30
0.0
 10
-17.56476220133814
 20
15.485420927137875
 30
0.0
 10
-17.947811280561513
 20
15.060001825958597
 30
0.0
 10
-18.5015379977553
 20
14.351263947764672
 30
0.0
 10
-19.75387530939226
 20
15.322676341324417
 30
0.0
 10
-19.87439506269427
 20
15.393298140539736
 30
0.0
 10
-19.998946949957528
 20
15.456537976399323
 30
0.0
 10
-20.127079350216473
 20
15.512166543379504
 30
0.0
 10
-20.258327659685513
 20
15.559982134162281
 30
0.0
 10
-20.392215976396777
 20
15.599811371019275
 30
0.0
 10
-20.528258825804688
 20
15.631509834473576
 30
0.0
 10
-20.665962921100363
 20
15.654962586959911
 30
0.0
 10
-20.80482895185307
 20
15.670084589584409
 30
0.0
 10
-20.944353394493064
 20
15.676821010472766
 30
0.0
 10
-21.084030338071198
 20
15.675147423588788
 30
0.0
 10
-21.223353318675024
 20
15.665069897302384
 30
0.0
 10
-21.36181715584997
 20
15.646624972385853
 30
0.0
 10
-21.498919784366723
 20
15.619879529518274
 30
0.0
 10
-21.481989169901986
 20
15.48122238489805
 30
0.0
 10
-21.456743657143004
 20
15.343835655022408
 30
0.0
 10
-21.42327478547227
 20
15.208217499565718
 30
0.0
 10
-21.38170391189587
 20
15.074859665410836
 30
0.0
 10
-21.33218177100704
 20
14.944245703591381
 30
0.0
 10
-21.2748879284276
 20
14.81684921595193
 30
0.0
 10
-21.210030129709022
 20
14.693132137883595
 30
0.0
 10
-21.137843547054025
 20
14.573543063361797
 30
0.0
 10
-21.05858992659008
 20
14.458515618359554
 30
0.0
 10
-20.972556639286708
 20
14.348466888534253
 30
0.0
 10
-20.880055638957977
 20
14.24379590688905
 30
0.0
 10
-20.78142233112846
 20
14.144882206892563
 30
0.0
 10
-20.677014356864042
 20
14.052084446303265
 30
0.0
 10
-19.366152757973524
 20
13.161223823627786
 30
0.0
 10
-19.869091569522727
 20
12.415586372074749
 30
0.0
 10
-20.155320502696018
 20
11.919823317222372
 30
0.0
 10
-21.518550675098595
 20
12.726035393759272
 30
0.0
 10
-21.646971352604105
 20
12.780995188604358
 30
0.0
 10
-21.778467164152804
 20
12.828125868692126
 30
0.0
 10
-21.912561310342586
 20
12.867256539757413
 30
0.0
 10
-22.048767570297088
 20
12.89824531529944
 30
0.0
 10
-22.18659206468627
 20
12.920979831057494
 30
0.0
 10
-22.32553504651631
 20
12.935377652439993
 30
0.0
 10
-22.46509271319546
 20
12.94138657342952
 30
0.0
 10
-22.604759033305303
 20
12.938984805880125
 30
0.0
 10
-22.744027581453743
 20
12.928181058520375
 30
0.0
 10
-22.882393374556457
 20
12.90901450537583
 30
0.0
 10
-23.01935470288866
 20
12.88155464372531
 30
0.0
 10
-23.1544149492677
 20
12.84590104210612
 30
0.0
 10
-23.287084389770328
 20
12.802182979281856
 30
0.0
 10
-23.252908929965525
 20
12.666741156318944
 30
0.0
 10
-23.210643362510975
 20
12.533601863590869
 30
0.0
 10
-23.16044094093662
 20
12.403247859707378
 30
0.0
 10
-23.102483697539228
 20
12.276151803914281
 30
0.0
 10
-23.036981783339375
 20
12.152774542246899
 30
0.0
 10
-22.964172706080923
 20
12.033563436517776
 30
0.0
 10
-22.884320469035895
 20
11.918950742197772
 30
0.0
 10
-22.797714613737444
 20
11.80935204107221
 30
0.0
 10
-22.704669170112
 20
11.705164734355266
 30
0.0
 10
-22.605521517817255
 20
11.606766601726502
 30
0.0
 10
-22.500631162914882
 20
11.514514431514407
 30
0.0
 10
-22.390378434313575
 20
11.4287427269939
 30
0.0
 10
-22.275163104709208
 20
11.34976249348866
 30
0.0
 10
-20.866034492250765
 20
10.631775603830315
 30
0.0
 10
-21.40364259183986
 20
9.529515651978656
 30
0.0
 10
-21.495578101049528
 20
9.301967281771669
 30
0.0
 10
-22.943865642099535
 20
9.928697265869511
 30
0.0
 10
-23.078161973009475
 20
9.967128307548263
 30
0.0
 10
-23.2145279413437
 20
9.997406552884728
 30
0.0
 10
-23.35246908867495
 20
10.019422213976892
 30
0.0
 10
-23.491485245029757
 20
10.033095462776071
 30
0.0
 10
-23.631072342487972
 20
10.038376720540741
 30
0.0
 10
-23.77072424291618
 20
10.035246837607392
 30
0.0
 10
-23.909934573207554
 20
10.023717162826554
 30
0.0
 10
-24.04819856137379
 20
10.003829502412263
 30
0.0
 10
-24.18501486683137
 20
9.97565596835412
 30
0.0
 10
-24.319887398245722
 20
9.939298716941636
 30
0.0
 10
-24.45232711234177
 20
9.894889578348959
 30
0.0
 10
-24.581853787158426
 20
9.842589578623075
 30
0.0
 10
-24.70799776331732
 20
9.78258835580877
 30
0.0
 10
-24.657116425589006
 20
9.652497852960314
 30
0.0
 10
-24.598497356685876
 20
9.52570568355969
 30
0.0
 10
-24.5323531073856
 20
9.402671591760344
 30
0.0
 10
-24.45892351451756
 20
9.283841695052399
 30
0.0
 10
-24.378474831322567
 20
9.169646866655583
 30
0.0
 10
-24.291298762027512
 20
9.0605011731874
 30
0.0
 10
-24.197711404135646
 20
8.95680037327146
 30
0.0
 10
-24.098052102267626
 20
8.858920482529973
 30
0.0
 10
-23.9926822177093
 20
8.767216410163737
 30
0.0
 10
-23.88198381812782
 20
8.682020672063256
 30
0.0
 10
-23.766358292207077
 20
8.603642185117295
 30
0.0
 10
-23.646224894225806
 20
8.532365147090585
 30
0.0
 10
-23.522019223855644
 20
8.468448006132279
 30
0.0
 10
-22.041534672546454
 20
7.935440770344941
 30
0.0
 10
-22.496311187443904
 20
6.5357825773511244
 30
0.0
 10
-24.00734214192358
 20
6.974777650980731
 30
0.0
 10
-24.14539619287477
 20
6.996073859008288
 30
0.0
 10
-24.284481745212812
 20
7.009022163577144
 30
0.0
 10
-24.42409447939007
 20
7.01357561456924
 30
0.0
 10
-24.56372816431523
 20
7.009717701324009
 30
0.0
 10
-24.702876492930276
 20
6.997462412505476
 30
0.0
 10
-24.841034918062892
 20
6.976854185379839
 30
0.0
 10
-24.977702481897587
 20
6.947967744687421
 30
0.0
 10
-25.112383632431925
 20
6.910907831693283
 30
0.0
 10
-25.244590020331483
 20
6.865808824398896
 30
0.0
 10
-25.37384226966812
 20
6.81283425029202
 30
0.0
 10
-25.499671716121075
 20
6.752176193401522
 30
0.0
 10
-25.621622106338
 20
6.684054597807126
 30
0.0
 10
-25.73925125229437
 20
6.608716470129557
 30
0.0
 10
-25.67246646573356
 20
6.486028892337778
 30
0.0
 10
-25.598418353115786
 20
6.36758343451802
 30
0.0
 10
-25.51737541041371
 20
6.253809575927502
 30
0.0
 10
-25.429631496619276
 20
6.14511985676133
 30
0.0
 10
-25.33550476822084
 20
6.041908382295584
 30
0.0
 10
-25.23533652557842
 20
5.944549393874811
 30
0.0
 10
-25.12948997538005
 20
5.853395911925462
 30
0.0
 10
-25.018348913666497
 20
5.768778455915659
 30
0.0
 10
-24.902316334199696
 20
5.691003845902701
 30
0.0
 10
-24.781812967220894
 20
5.620354090013817
 30
0.0
 10
-24.657275753896894
 20
5.557085361894163
 30
0.0
 10
-24.52915626198604
 20
5.5014270718297755
 30
0.0
 10
-24.39791904846869
 20
5.453581034913565
 30
0.0
 10
-22.857847173195523
 20
5.109334185224937
 30
0.0
 10
-22.917219360049238
 20
4.87120535020973
 30
0.0
 10
-23.130177415059062
 20
3.6634602044913556
 30
0.0
 10
-24.69220851487845
 20
3.9108616260057683
 30
0.0
 10
-24.83184309101789
 20
3.9146871464597925
 30
0.0
 10
-24.9714547651137
 20
3.910101307763049
 30
0.0
 10
-25.11053730991838
 20
3.8971207380128328
 30
0.0
 10
-25.24858641678951
 20
3.875792504319673
 30
0.0
 10
-25.385101524295948
 20
3.84619394214356
 30
0.0
 10
-25.51958763323679
 20
3.808432374878164
 30
0.0
 10
-25.65155710149188
 20
3.7626447246998103
 30
0.0
 10
-25.780531412195778
 20
3.7089970160922605
 30
0.0
 10
-25.906042908823867
 20
3.647683773847502
 30
0.0
 10
-26.027636490899205
 20
3.578927317725376
 30
0.0
 10
-26.144871264171627
 20
3.5029769563295883
 30
0.0
 10
-26.257322139285474
 20
3.4201080831230724
 30
0.0
 10
-26.36458137313934
 20
3.33062117786053
 30
0.0
 10
-26.282946373725398
 20
3.21727138151721
 30
0.0
 10
-26.19463700036316
 20
3.1090405909040237
 30
0.0
 10
-26.099973459878406
 20
3.0063212472375143
 30
0.0
 10
-25.999298999093785
 20
2.909485807412457
 30
0.0
 10
-25.892978660227328
 20
2.818885393485652
 30
0.0
 10
-25.78139795726162
 20
2.734848519519126
 30
0.0
 10
-25.664961478083043
 20
2.65767990039916
 30
0.0
 10
-25.544091417459633
 20
2.5876593469503337
 30
0.0
 10
-25.419226046177055
 20
2.525040751350858
 30
0.0
 10
-25.290818121883408
 20
2.470051166528057
 30
0.0
 10
-25.15933324740519
 20
2.422889982872065
 30
0.0
 10
-25.025248182487065
 20
2.383728205252963
 30
0.0
 10
-24.889049115077007
 20
2.352707832962854
 30
0.0
 10
-23.312293169550145
 20
2.203660513133162
 30
0.0
 10
-23.372131310604832
 20
1.6343386308757009
 30
0.0
 10
-23.403519962510604
 20
0.7354852446927405
 30
0.0
 10
-24.987664009143295
 20
0.7852689769532105
 30
0.0
 10
-25.12667698979162
 20
0.7715634790908901
 30
0.0
 10
-25.26461302614473
 20
0.7495158185442397
 30
0.0
 10
-25.400971966761382
 20
0.7192059393908896
 30
0.0
 10
-25.535259378696587
 20
0.680743744236012
 30
0.0
 10
-25.66698834029886
 20
0.6342686957091592
 30
0.0
 10
-25.79568120677182
 20
0.5799493107774478
 30
0.0
 10
-25.920871342098184
 20
0.5179825497086866
 30
0.0
 10
-26.042104811046325
 20
0.448593101900054
 30
0.0
 10
-26.158942025124187
 20
0.3720325711618796
 30
0.0
 10
-26.270959336512412
 20
0.28857856341066557
 30
0.0
 10
-26.37775057419714
 20
0.1985336800793468
 30
0.0
 10
-26.47892851673246
 20
0.10222442089464315
 30
0.0
 10
-26.574126296292395
 20
3.0323472659641676e-15
 30
0.0
 10
-26.47892851673246
 20
-0.1022244208946371
 30
0.0
 10
-26.37775057419714
 20
-0.1985336800793408
 30
0.0
 10
-26.270959336512412
 20
-0.2885785634106598
 30
0.0
 10
-26.158942025124187
 20
-0.3720325711618738
 30
0.0
 10
-26.042104811046325
 20
-0.44859310190004814
 30
0.0
 10
-25.920871342098184
 20
-0.5179825497086804
 30
0.0
 10
-25.79568120677182
 20
-0.5799493107774418
 30
0.0
 10
-25.66698834029886
 20
-0.6342686957091532
 30
0.0
 10
-25.535259378696587
 20
-0.680743744236006
 30
0.0
 10
-25.400971966761382
 20
-0.7192059393908836
 30
0.0
 10
-25.26461302614473
 20
-0.7495158185442337
 30
0.0
 10
-25.12667698979162
 20
-0.7715634790908841
 30
0.0
 10
-24.987664009143295
 20
-0.7852689769532047
 30
0.0
 10
-23.403519962510607
 20
-0.7354852446927351
 30
0.0
 10
-23.372131310604836
 20
-1.6343386308756847
 30
0.0
 10
-23.31229316955015
 20
-2.203660513133167
 30
0.0
 10
-24.889049115077004
 20
-2.3527078329628592
 30
0.0
 10
-25.025248182487065
 20
-2.383728205252968
 30
0.0
 10
-25.15933324740519
 20
-2.4228899828720705
 30
0.0
 10
-25.290818121883408
 20
-2.4700511665280622
 30
0.0
 10
-25.419226046177055
 20
-2.525040751350864
 30
0.0
 10
-25.544091417459633
 20
-2.587659346950339
 30
0.0
 10
-25.664961478083043
 20
-2.657679900399166
 30
0.0
 10
-25.78139795726162
 20
-2.734848519519131
 30
0.0
 10
-25.892978660227328
 20
-2.8188853934856573
 30
0.0
 10
-25.999298999093785
 20
-2.9094858074124623
 30
0.0
 10
-26.099973459878406
 20
-3.00632124723752
 30
0.0
 10
-26.19463700036316
 20
-3.10904059090403
 30
0.0
 10
-26.282946373725398
 20
-3.217271381517216
 30
0.0
 10
-26.36458137313934
 20
-3.330621177860535
 30
0.0
 10
-26.257322139285474
 20
-3.420108083123078
 30
0.0
 10
-26.144871264171627
 20
-3.5029769563295945
 30
0.0
 10
-26.027636490899205
 20
-3.5789273177253818
 30
0.0
 10
-25.906042908823867
 20
-3.6476837738475076
 30
0.0
 10
-25.780531412195778
 20
-3.708997016092266
 30
0.0
 10
-25.65155710149188
 20
-3.7626447246998156
 30
0.0
 10
-25.51958763323679
 20
-3.8084323748781697
 30
0.0
 10
-25.385101524295948
 20
-3.846193942143565
 30
0.0
 10
-25.24858641678951
 20
-3.8757925043196786
 30
0.0
 10
-25.11053730991838
 20
-3.897120738012838
 30
0.0
 10
-24.9714547651137
 20
-3.9101013077630538
 30
0.0
 10
-24.83184309101789
 20
-3.914687146459798
 30
0.0
 10
-24.69220851487845
 20
-3.9108616260057736
 30
0.0
 10
-23.130177415059062
 20
-3.6634602044913605
 30
0.0
 10
-22.917219360049238
 20
-4.871205350209724
 30
0.0
 10
-22.85784717319552
 20
-5.109334185224942
 30
0.0
 10
-24.39791904846869
 20
-5.453581034913571
 30
0.0
 10
-24.52915626198604
 20
-5.501427071829781
 30
0.0
 10
-24.657275753896894
 20
-5.55708536189417
 30
0.0
 10
-24.781812967220894
 20
-5.620354090013822
 30
0.0
 10
-24.902316334199696
 20
-5.691003845902706
 30
0.0
 10
-25.018348913666497
 20
-5.768778455915665
 30
0.0
 10
-25.12948997538005
 20
-5.853395911925467
 30
0.0
 10
-25.23533652557842
 20
-5.944549393874817
 30
0.0
 10
-25.33550476822084
 20
-6.041908382295589
 30
0.0
 10
-25.429631496619276
 20
-6.145119856761335
 30
0.0
 10
-25.51737541041371
 20
-6.253809575927508
 30
0.0
 10
-25.598418353115786
 20
-6.367583434518026
 30
0.0
 10
-25.67246646573356
 20
-6.486028892337783
 30
0.0
 10
-25.73925125229437
 20
-6.608716470129562
 30
0.0
 10
-25.621622106338
 20
-6.6840545978071315
 30
0.0
 10
-25.499671716121075
 20
-6.752176193401528
 30
0.0
 10
-25.37384226966812
 20
-6.812834250292026
 30
0.0
 10
-25.244590020331483
 20
-6.865808824398901
 30
0.0
 10
-25.112383632431925
 20
-6.910907831693288
 30
0.0
 10
-24.977702481897587
 20
-6.947967744687427
 30
0.0
 10
-24.841034918062892
 20
-6.976854185379843
 30
0.0
 10
-24.702876492930276
 20
-6.997462412505482
 30
0.0
 10
-24.56372816431523
 20
-7.009717701324014
 30
0.0
 10
-24.42409447939007
 20
-7.013575614569246
 30
0.0
 10
-24.284481745212812
 20
-7.00902216357715
 30
0.0
 10
-24.14539619287477
 20
-6.996073859008293
 30
0.0
 10
-24.007342141923584
 20
-6.974777650980738
 30
0.0
 10
-22.496311187443904
 20
-6.53578257735113
 30
0.0
 10
-22.041534672546458
 20
-7.935440770344935
 30
0.0
 10
-23.522019223855644
 20
-8.468448006132274
 30
0.0
 10
-23.64622489422581
 20
-8.53236514709058
 30
0.0
 10
-23.76635829220708
 20
-8.603642185117288
 30
0.0
 10
-23.881983818127818
 20
-8.68202067206325
 30
0.0
 10
-23.9926822177093
 20
-8.76721641016373
 30
0.0
 10
-24.09805210226763
 20
-8.858920482529966
 30
0.0
 10
-24.19771140413565
 20
-8.956800373271452
 30
0.0
 10
-24.291298762027516
 20
-9.060501173187394
 30
0.0
 10
-24.37847483132257
 20
-9.169646866655576
 30
0.0
 10
-24.458923514517565
 20
-9.283841695052393
 30
0.0
 10
-24.5323531073856
 20
-9.402671591760338
 30
0.0
 10
-24.59849735668588
 20
-9.525705683559682
 30
0.0
 10
-24.65711642558901
 20
-9.652497852960307
 30
0.0
 10
-24.70799776331732
 20
-9.782588355808763
 30
0.0
 10
-24.58185378715843
 20
-9.842589578623068
 30
0.0
 10
-24.452327112341774
 20
-9.894889578348952
 30
0.0
 10
-24.319887398245726
 20
-9.93929871694163
 30
0.0
 10
-24.185014866831374
 20
-9.975655968354115
 30
0.0
 10
-24.048198561373795
 20
-10.003829502412255
 30
0.0
 10
-23.909934573207558
 20
-10.023717162826546
 30
0.0
 10
-23.770724242916184
 20
-10.035246837607385
 30
0.0
 10
-23.631072342487975
 20
-10.038376720540734
 30
0.0
 10
-23.491485245029757
 20
-10.033095462776064
 30
0.0
 10
-23.35246908867495
 20
-10.019422213976885
 30
0.0
 10
-23.214527941343704
 20
-9.997406552884723
 30
0.0
 10
-23.07816197300948
 20
-9.967128307548258
 30
0.0
 10
-22.94386564209954
 20
-9.928697265869506
 30
0.0
 10
-21.49557810104953
 20
-9.301967281771665
 30
0.0
 10
-21.403642591839866
 20
-9.529515651978642
 30
0.0
 10
-20.866034492250755
 20
-10.631775603830334
 30
0.0
 10
-22.275163104709197
 20
-11.349762493488686
 30
0.0
 10
-22.39037843431357
 20
-11.428742726993924
 30
0.0
 10
-22.500631162914875
 20
-11.514514431514433
 30
0.0
 10
-22.605521517817245
 20
-11.606766601726525
 30
0.0
 10
-22.704669170111988
 20
-11.70516473435529
 30
0.0
 10
-22.797714613737437
 20
-11.809352041072234
 30
0.0
 10
-22.884320469035885
 20
-11.918950742197797
 30
0.0
 10
-22.964172706080912
 20
-12.0335634365178
 30
0.0
 10
-23.036981783339364
 20
-12.152774542246924
 30
0.0
 10
-23.102483697539213
 20
-12.276151803914308
 30
0.0
 10
-23.160440940936606
 20
-12.403247859707403
 30
0.0
 10
-23.210643362510964
 20
-12.533601863590894
 30
0.0
 10
-23.252908929965514
 20
-12.66674115631897
 30
0.0
 10
-23.287084389770314
 20
-12.80218297928188
 30
0.0
 10
-23.15441494926769
 20
-12.845901042106147
 30
0.0
 10
-23.01935470288865
 20
-12.881554643725336
 30
0.0
 10
-22.882393374556443
 20
-12.909014505375854
 30
0.0
 10
-22.74402758145373
 20
-12.928181058520401
 30
0.0
 10
-22.604759033305292
 20
-12.938984805880148
 30
0.0
 10
-22.46509271319545
 20
-12.941386573429545
 30
0.0
 10
-22.3255350465163
 20
-12.935377652440016
 30
0.0
 10
-22.186592064686256
 20
-12.920979831057519
 30
0.0
 10
-22.048767570297077
 20
-12.898245315299462
 30
0.0
 10
-21.912561310342575
 20
-12.867256539757436
 30
0.0
 10
-21.77846716415279
 20
-12.82812586869215
 30
0.0
 10
-21.64697135260409
 20
-12.780995188604379
 30
0.0
 10
-21.51855067509859
 20
-12.7260353937593
 30
0.0
 10
-20.155320502696007
 20
-11.919823317222393
 30
0.0
 10
-19.86909156952273
 20
-12.415586372074747
 30
0.0
 10
-19.366152757973524
 20
-13.161223823627783
 30
0.0
 10
-20.677014356864053
 20
-14.052084446303267
 30
0.0
 10
-20.781422331128464
 20
-14.144882206892557
 30
0.0
 10
-20.88005563895798
 20
-14.243795906889044
 30
0.0
 10
-20.972556639286708
 20
-14.348466888534247
 30
0.0
 10
-21.058589926590084
 20
-14.458515618359549
 30
0.0
 10
-21.13784354705403
 20
-14.573543063361791
 30
0.0
 10
-21.210030129709022
 20
-14.69313213788359
 30
0.0
 10
-21.274887928427603
 20
-14.816849215951924
 30
0.0
 10
-21.33218177100704
 20
-14.944245703591376
 30
0.0
 10
-21.38170391189587
 20
-15.07485966541083
 30
0.0
 10
-21.42327478547227
 20
-15.208217499565713
 30
0.0
 10
-21.456743657143004
 20
-15.343835655022405
 30
0.0
 10
-21.481989169901986
 20
-15.481222384898047
 30
0.0
 10
-21.498919784366727
 20
-15.619879529518267
 30
0.0
 10
-21.36181715584997
 20
-15.64662497238585
 30
0.0
 10
-21.223353318675027
 20
-15.66506989730238
 30
0.0
 10
-21.084030338071198
 20
-15.675147423588783
 30
0.0
 10
-20.944353394493067
 20
-15.67682101047276
 30
0.0
 10
-20.80482895185307
 20
-15.670084589584404
 30
0.0
 10
-20.665962921100366
 20
-15.654962586959906
 30
0.0
 10
-20.528258825804688
 20
-15.63150983447357
 30
0.0
 10
-20.39221597639678
 20
-15.59981137101927
 30
0.0
 10
-20.258327659685516
 20
-15.559982134162276
 30
0.0
 10
-20.127079350216476
 20
-15.5121665433795
 30
0.0
 10
-19.99894694995753
 20
-15.456537976399318
 30
0.0
 10
-19.874395062694273
 20
-15.39329814053973
 30
0.0
 10
-19.753875309392267
 20
-15.322676341324415
 30
0.0
 10
-18.501537997755303
 20
-14.351263947764663
 30
0.0
 10
-17.947811280561517
 20
-15.060001825958592
 30
0.0
 10
-17.564762201338127
 20
-15.485420927137886
 30
0.0
 10
-18.752776740761483
 20
-16.53279663309131
 30
0.0
 10
-18.84473078356149
 20
-16.637948444645463
 30
0.0
 10
-18.930189164434058
 20
-16.748444211980804
 30
0.0
 10
-19.008842014156542
 20
-16.863883281151164
 30
0.0
 10
-19.08040414013399
 20
-16.983847073963727
 30
0.0
 10
-19.144616060497896
 20
-17.107900605729515
 30
0.0
 10
-19.201244944978786
 20
-17.235594062503296
 30
0.0
 10
-19.25008545914095
 20
-17.36646443209382
 30
0.0
 10
-19.29096050891822
 20
-17.500037182930555
 30
0.0
 10
-19.32372188275112
 20
-17.635827984699187
 30
0.0
 10
-19.34825078899699
 20
-17.773344464507126
 30
0.0
 10
-19.36445828666452
 20
-17.912087992211102
 30
0.0
 10
-19.372285607910786
 20
-18.051555488433323
 30
0.0
 10
-19.371704371131496
 20
-18.19124124871043
 30
0.0
 10
-19.23233074495346
 20
-18.200592280010355
 30
0.0
 10
-19.092646974409146
 20
-18.201537640739826
 30
0.0
 10
-18.953159548165335
 20
-18.194073903052555
 30
0.0
 10
-18.814374242950976
 20
-18.17822813021105
 30
0.0
 10
-18.676794289627715
 20
-18.154057778456142
 30
0.0
 10
-18.540918548491664
 20
-18.121650488672586
 30
0.0
 10
-18.40723970042271
 20
-18.081123768606147
 30
0.0
 10
-18.27624246044016
 20
-18.03262456678446
 30
0.0
 10
-18.14840182014235
 20
-17.976328739686597
 30
0.0
 10
-18.02418132540303
 20
-17.912440414093364
 30
0.0
 10
-17.9040313955696
 20
-17.841191246930457
 30
0.0
 10
-17.78838769025762
 20
-17.76283958528821
 30
0.0
 10
-17.677669529663678
 20
-17.677669529663696
 30
0.0
 10
-16.559378731129975
 20
-16.559378731129993
 30
0.0
 10
-15.677197260356923
 20
-17.411291474798325
 30
0.0
 10
-15.489195534831529
 20
-17.569043653347375
 30
0.0
 10
-16.5327966330913
 20
-18.752776740761497
 30
0.0
 10
-16.610846574241254
 20
-18.86862429639766
 30
0.0
 10
-16.681782298440154
 20
-18.988959546814005
 30
0.0
 10
-16.745346595131338
 20
-19.11334616042874
 30
0.0
 10
-16.80130898230704
 20
-19.24133311555302
 30
0.0
 10
-16.849466542228427
 20
-19.372456335780424
 30
0.0
 10
-16.889644657198495
 20
-19.506240372712483
 30
0.0
 10
-16.92169764272
 20
-19.642200129918592
 30
0.0
 10
-16.94550927574255
 20
-19.779842621879418
 30
0.0
 10
-16.960993216083473
 20
-19.918668761535844
 30
0.0
 10
-16.968093319494457
 20
-20.05817516996191
 30
0.0
 10
-16.966783841238673
 20
-20.197856001599913
 30
0.0
 10
-16.95706952944036
 20
-20.33720477843944
 30
0.0
 10
-16.938985607868265
 20
-20.47571622648963
 30
0.0
 10
-16.79953898937155
 20
-20.467525374872263
 30
0.0
 10
-16.660838181962383
 20
-20.450956262511244
 30
0.0
 10
-16.5233861101162
 20
-20.42606896845225
 30
0.0
 10
-16.38768117043517
 20
-20.39295373318878
 30
0.0
 10
-16.254215424478833
 20
-20.351730631453158
 30
0.0
 10
-16.123472814565385
 20
-20.302549136829608
 30
0.0
 10
-15.99592740901307
 20
-20.245587579768006
 30
0.0
 10
-15.872041683184364
 20
-20.181052500963677
 30
0.0
 10
-15.7522648425658
 20
-20.109177902447776
 30
0.0
 10
-15.637031193963978
 20
-20.030224399103727
 30
0.0
 10
-15.526758570723615
 20
-19.944478273686446
 30
0.0
 10
-15.421846817677876
 20
-19.852250438770643
 30
0.0
 10
-15.322676341324412
 20
-19.753875309392267
 30
0.0
 10
-14.358261450232286
 20
-18.51055912357846
 30
0.0
 10
-13.167641076945534
 20
-19.375595459480902
 30
0.0
 10
-14.052084446303262
 20
-20.677014356864053
 30
0.0
 10
-14.114999391606466
 20
-20.80173067142587
 30
0.0
 10
-14.170293760386132
 20
-20.930007646139355
 30
0.0
 10
-14.21776705711572
 20
-21.061380152996808
 30
0.0
 10
-14.257247145213613
 20
-21.195371839694786
 30
0.0
 10
-14.288590871204587
 20
-21.331496856871606
 30
0.0
 10
-14.311684583789516
 20
-21.469261619780816
 30
0.0
 10
-14.326444545941163
 20
-21.608166598012946
 30
0.0
 10
-14.332817238531836
 20
-21.747708126776004
 30
0.0
 10
-14.330779554391956
 20
-21.88738023316713
 30
0.0
 10
-14.32033888209586
 20
-22.026676470813346
 30
0.0
 10
-14.301533079171106
 20
-22.165091756229163
 30
0.0
 10
-14.274430334828319
 20
-22.302124200232313
 30
0.0
 10
-14.239128922709419
 20
-22.43727692777711
 30
0.0
 10
-14.101808468369086
 20
-22.411673367865433
 30
0.0
 10
-13.966278018683761
 20
-22.377851087213767
 30
0.0
 10
-13.833029002518108
 20
-22.335932724277303
 30
0.0
 10
-13.70254457633538
 20
-22.286070273634056
 30
0.0
 10
-13.57529787228827
 20
-22.228444534857587
 30
0.0
 10
-13.451750282657608
 20
-22.163264456943853
 30
0.0
 10
-13.33234978685943
 20
-22.09076638066913
 30
0.0
 10
-13.217529327086625
 20
-22.0112131816263
 30
0.0
 10
-13.107705238475086
 20
-21.924893317046752
 30
0.0
 10
-13.00327573948645
 20
-21.83211977986416
 30
0.0
 10
-12.90461948798133
 20
-21.73322896381259
 30
0.0
 10
-12.812094208218612
 20
-21.628579443674095
 30
0.0
 10
-12.726035393759277
 20
-21.5185506750986
 30
0.0
 10
-11.922728802130525
 20
-20.16023340937098
 30
0.0
 10
-11.714601836602561
 20
-20.290285571435295
 30
0.0
 10
-10.631775603830313
 20
-20.866034492250765
 30
0.0
 10
-11.34976249348866
 20
-22.275163104709208
 30
0.0
 10
-11.396550236674111
 20
-22.406781327414112
 30
0.0
 10
-11.435331224807634
 20
-22.540977021904567
 30
0.0
 10
-11.46596483932703
 20
-22.677263599093457
 30
0.0
 10
-11.488340003773548
 20
-22.815146888423158
 30
0.0
 10
-11.502375586551398
 20
-22.954126929711368
 30
0.0
 10
-11.508020695108208
 20
-23.093699785989973
 30
0.0
 10
-11.50525486046969
 20
-23.233359370763587
 30
0.0
 10
-11.494088111459474
 20
-23.37259928306222
 30
0.0
 10
-11.474560938334927
 20
-23.510914643634177
 30
0.0
 10
-11.44674414597082
 20
-23.647803925621332
 30
0.0
 10
-11.410738597123258
 20
-23.78277077307867
 30
0.0
 10
-11.366674846704678
 20
-23.9153258007443
 30
0.0
 10
-11.314712668396131
 20
-24.044988368533996
 30
0.0
 10
-11.18168400380839
 20
-24.00237588376264
 30
0.0
 10
-11.051461308000409
 20
-23.95183383239065
 30
0.0
 10
-10.924516764099323
 20
-23.893545478201048
 30
0.0
 10
-10.801310668763415
 20
-23.827722172811047
 30
0.0
 10
-10.68228976316185
 20
-23.754602589318182
 30
0.0
 10
-10.567885613106204
 20
-23.674451856879656
 30
0.0
 10
-10.458513044207297
 20
-23.58756059936292
 30
0.0
 10
-10.354568637731433
 20
-23.494243881553263
 30
0.0
 10
-10.256429292610047
 20
-23.394840066739484
 30
0.0
 10
-10.164450858816808
 20
-23.289709589819942
 30
0.0
 10
-10.078966847067559
 20
-23.179233650377725
 30
0.0
 10
-10.00028721952164
 20
-23.063812830463714
 30
0.0
 10
-9.928697265869506
 20
-22.94386564209954
 30
0.0
 10
-9.299700457959613
 20
-21.490339780292505
 30
0.0
 10
-8.776734174466942
 20
-21.72317937115264
 30
0.0
 10
-7.931573431213076
 20
-22.030792724867347
 30
0.0
 10
-8.468448006132288
 20
-23.522019223855636
 30
0.0
 10
-8.498370676540308
 20
-23.65846365670667
 30
0.0
 10
-8.520026684678184
 20
-23.796461724707346
 30
0.0
 10
-8.533337506586783
 20
-23.935513051491753
 30
0.0
 10
-8.538254877672328
 20
-24.075113441612963
 30
0.0
 10
-8.534760967712199
 20
-24.214756708738797
 30
0.0
 10
-8.52286844550672
 20
-24.3539365110665
 30
0.0
 10
-8.502620432942516
 20
-24.49214818730113
 30
0.0
 10
-8.474090348633995
 20
-24.62889058654049
 30
0.0
 10
-8.437381641709923
 20
-24.76366788543147
 30
0.0
 10
-8.392627416710338
 20
-24.89599138600893
 30
0.0
 10
-8.339989950953964
 20
-25.0253812876981
 30
0.0
 10
-8.2796601061261
 20
-25.151368427055388
 30
0.0
 10
-8.211856636220533
 20
-25.273495978939277
 30
0.0
 10
-8.085217702893408
 20
-25.21454659364855
 30
0.0
 10
-7.96235645066693
 20
-25.148081849898734
 30
0.0
 10
-7.843718370320728
 20
-25.074342746621333
 30
0.0
 10
-7.729733639554836
 20
-24.993596659331526
 30
0.0
 10
-7.620815563179797
 20
-24.906136370633465
 30
0.0
 10
-7.517359074487272
 20
-24.81227900860043
 30
0.0
 10
-7.419739303235176
 20
-24.712364896879038
 30
0.0
 10
-7.328310215439757
 20
-24.60675632068712
 30
0.0
 10
-7.243403329906693
 20
-24.49583621317968
 30
0.0
 10
-7.165326516155023
 20
-24.380006766946117
 30
0.0
 10
-7.094362878092601
 20
-24.259687975673383
 30
0.0
 10
-7.030769727490813
 20
-24.135316111262956
 30
0.0
 10
-6.9747776509807355
 20
-24.00734214192358
 30
0.0
 10
-6.532597362005148
 20
-22.485347604311492
 30
0.0
 10
-5.668037365012478
 20
-22.733256194160788
 30
0.0
 10
-5.108089076524383
 20
-22.852276877074832
 30
0.0
 10
-5.453581034913563
 20
-24.397919048468687
 30
0.0
 10
-5.466166734156881
 20
-24.537037881251827
 30
0.0
 10
-5.470356234114103
 20
-24.67666201079431
 30
0.0
 10
-5.466134343798904
 20
-24.816285164685606
 30
0.0
 10
-5.453516371643964
 20
-24.955401074052883
 30
0.0
 10
-5.432548069993085
 20
-25.093505309274924
 30
0.0
 10
-5.403305469204749
 20
-25.230097109027035
 30
0.0
 10
-5.365894601968573
 20
-25.364681196024804
 30
0.0
 10
-5.32045111883434
 20
-25.496769572882933
 30
0.0
 10
-5.267139796347653
 20
-25.625883291577374
 30
0.0
 10
-5.206153939575707
 20
-25.751554190094804
 30
0.0
 10
-5.1377146811896
 20
-25.87332658997239
 30
0.0
 10
-5.062070179644688
 20
-25.9907589485726
 30
0.0
 10
-4.979494719366342
 20
-26.10342546010201
 30
0.0
 10
-4.861242688928831
 20
-26.029068841312604
 30
0.0
 10
-4.747680475625224
 20
-25.947729593898007
 30
0.0
 10
-4.639219852231918
 20
-25.859702651241104
 30
0.0
 10
-4.536254093331403
 20
-25.765307196083413
 30
0.0
 10
-4.439156549311829
 20
-25.66488550317917
 30
0.0
 10
-4.348279292611014
 20
-25.55880169821856
 30
0.0
 10
-4.263951841113601
 20
-25.447440437520157
 30
0.0
 10
-4.186479963330249
 20
-25.331205513280032
 30
0.0
 10
-4.1161445696912775
 20
-25.210518389434785
 30
0.0
 10
-4.053200693974869
 20
-25.085816673447457
 30
0.0
 10
-3.997876568563141
 20
-24.95755252955754
 30
0.0
 10
-3.950372796879182
 20
-24.8261910392486
 30
0.0
 10
-3.910861626005772
 20
-24.692208514878445
 30
0.0
 10
-3.6634602044913587
 20
-23.130177415059062
 30
0.0
 10
-2.4490186555449887
 20
-23.30085604404525
 30
0.0
 10
-2.204197660554999
 20
-23.317975595721737
 30
0.0
 10
-2.3527078329628544
 20
-24.889049115077007
 30
0.0
 10
-2.3477580770460684
 20
-25.028648360693698
 30
0.0
 10
-2.334414997905624
 20
-25.167696595847687
 30
0.0
 10
-2.312726977098936
 20
-25.30568963630218
 30
0.0
 10
-2.2827726546620024
 20
-25.442127123920983
 30
0.0
 10
-2.244660643963266
 20
-25.576514340950308
 30
0.0
 10
-2.198529137875188
 20
-25.708364003848747
 30
0.0
 10
-2.144545407691523
 20
-25.837198030161062
 30
0.0
 10
-2.0829051966072236
 20
-25.962549272029143
 30
0.0
 10
-2.013832009960178
 20
-26.083963210054435
 30
0.0
 10
-1.9375763048083496
 20
-26.20099960137006
 30
0.0
 10
-1.8544145817808906
 20
-26.313234075946685
 30
0.0
 10
-1.7646483824961299
 20
-26.420259675344003
 30
0.0
 10
-1.668603196181783
 20
-26.5216883283284
 30
0.0
 10
-1.5606029737942253
 20
-26.43309712433712
 30
0.0
 10
-1.4581307433560655
 20
-26.33816614177918
 30
0.0
 10
-1.3615580657378012
 20
-26.237239597213215
 30
0.0
 10
-1.2712351102292858
 20
-26.130683446904598
 30
0.0
 10
-1.1874893848376273
 20
-26.018884059880286
 30
0.0
 10
-1.110624548754139
 20
-25.90224681696772
 30
0.0
 10
-1.0409193112962996
 20
-25.781194640897514
 30
0.0
 10
-0.978626421317114
 20
-25.65616646279982
 30
0.0
 10
-0.9239717507462499
 20
-25.5276156306548
 30
0.0
 10
-0.8771534755859994
 20
-25.396008265468023
 30
0.0
 10
-0.838341357331739
 20
-25.26182157113135
 30
0.0
 10
-0.8076761274224423
 20
-25.125542104097622
 30
0.0
 10
-0.7852689769532029
 20
-24.987664009143295
 30
0.0
 10
-0.7358438583892947
 20
-23.41493123536328
 30
0.0
 10
0.7358438583893074
 20
-23.414931235363284
 30
0.0
 10
0.7852689769532163
 20
-24.987664009143295
 30
0.0
 10
0.8076761274224554
 20
-25.125542104097622
 30
0.0
 10
0.8383413573317521
 20
-25.26182157113135
 30
0.0
 10
0.8771534755860128
 20
-25.396008265468023
 30
0.0
 10
0.9239717507462635
 20
-25.5276156306548
 30
0.0
 10
0.9786264213171273
 20
-25.65616646279982
 30
0.0
 10
1.0409193112963129
 20
-25.781194640897514
 30
0.0
 10
1.1106245487541526
 20
-25.90224681696772
 30
0.0
 10
1.187489384837641
 20
-26.018884059880286
 30
0.0
 10
1.2712351102293
 20
-26.130683446904598
 30
0.0
 10
1.3615580657378155
 20
-26.237239597213215
 30
0.0
 10
1.4581307433560795
 20
-26.33816614177918
 30
0.0
 10
1.5606029737942395
 20
-26.43309712433712
 30
0.0
 10
1.668603196181797
 20
-26.5216883283284
 30
0.0
 10
1.764648382496144
 20
-26.420259675344003
 30
0.0
 10
1.8544145817809046
 20
-26.313234075946685
 30
0.0
 10
1.9375763048083638
 20
-26.20099960137006
 30
0.0
 10
2.013832009960192
 20
-26.083963210054435
 30
0.0
 10
2.0829051966072374
 20
-25.962549272029143
 30
0.0
 10
2.1445454076915365
 20
-25.837198030161062
 30
0.0
 10
2.198529137875201
 20
-25.708364003848747
 30
0.0
 10
2.2446606439632792
 20
-25.576514340950308
 30
0.0
 10
2.2827726546620157
 20
-25.442127123920983
 30
0.0
 10
2.3127269770989494
 20
-25.30568963630218
 30
0.0
 10
2.334414997905637
 20
-25.167696595847687
 30
0.0
 10
2.3477580770460817
 20
-25.028648360693698
 30
0.0
 10
2.3527078329628672
 20
-24.889049115077004
 30
0.0
 10
2.2041976605550113
 20
-23.317975595721737
 30
0.0
 10
2.4490186555449798
 20
-23.30085604404525
 30
0.0
 10
3.6634602044913507
 20
-23.130177415059062
 30
0.0
 10
3.9108616260057634
 20
-24.69220851487845
 30
0.0
 10
3.950372796879173
 20
-24.8261910392486
 30
0.0
 10
3.9978765685631314
 20
-24.95755252955754
 30
0.0
 10
4.05320069397486
 20
-25.085816673447457
 30
0.0
 10
4.116144569691269
 20
-25.210518389434785
 30
0.0
 10
4.18647996333024
 20
-25.331205513280032
 30
0.0
 10
4.263951841113592
 20
-25.447440437520157
 30
0.0
 10
4.348279292611006
 20
-25.55880169821856
 30
0.0
 10
4.439156549311819
 20
-25.66488550317917
 30
0.0
 10
4.536254093331393
 20
-25.765307196083413
 30
0.0
 10
4.639219852231908
 20
-25.859702651241104
 30
0.0
 10
4.7476804756252164
 20
-25.947729593898007
 30
0.0
 10
4.861242688928822
 20
-26.029068841312604
 30
0.0
 10
4.979494719366333
 20
-26.10342546010201
 30
0.0
 10
5.062070179644679
 20
-25.9907589485726
 30
0.0
 10
5.137714681189592
 20
-25.87332658997239
 30
0.0
 10
5.206153939575697
 20
-25.751554190094804
 30
0.0
 10
5.267139796347643
 20
-25.625883291577374
 30
0.0
 10
5.32045111883433
 20
-25.496769572882933
 30
0.0
 10
5.365894601968565
 20
-25.364681196024804
 30
0.0
 10
5.40330546920474
 20
-25.230097109027035
 30
0.0
 10
5.432548069993076
 20
-25.093505309274924
 30
0.0
 10
5.453516371643954
 20
-24.955401074052883
 30
0.0
 10
5.466134343798895
 20
-24.816285164685606
 30
0.0
 10
5.470356234114093
 20
-24.67666201079431
 30
0.0
 10
5.4661667341568725
 20
-24.537037881251827
 30
0.0
 10
5.453581034913555
 20
-24.39791904846869
 30
0.0
 10
5.108089076524376
 20
-22.852276877074832
 30
0.0
 10
5.668037365012469
 20
-22.73325619416079
 30
0.0
 10
6.532597362005141
 20
-22.485347604311492
 30
0.0
 10
6.974777650980728
 20
-24.007342141923584
 30
0.0
 10
7.030769727490805
 20
-24.13531611126296
 30
0.0
 10
7.094362878092593
 20
-24.259687975673383
 30
0.0
 10
7.165326516155014
 20
-24.38000676694612
 30
0.0
 10
7.243403329906684
 20
-24.495836213179683
 30
0.0
 10
7.328310215439748
 20
-24.606756320687122
 30
0.0
 10
7.419739303235168
 20
-24.71236489687904
 30
0.0
 10
7.517359074487263
 20
-24.812279008600434
 30
0.0
 10
7.6208155631797885
 20
-24.906136370633465
 30
0.0
 10
7.729733639554828
 20
-24.99359665933153
 30
0.0
 10
7.84371837032072
 20
-25.074342746621337
 30
0.0
 10
7.962356450666921
 20
-25.148081849898738
 30
0.0
 10
8.085217702893399
 20
-25.214546593648553
 30
0.0
 10
8.211856636220524
 20
-25.27349597893928
 30
0.0
 10
8.27966010612609
 20
-25.15136842705539
 30
0.0
 10
8.339989950953957
 20
-25.025381287698103
 30
0.0
 10
8.39262741671033
 20
-24.895991386008934
 30
0.0
 10
8.437381641709914
 20
-24.763667885431474
 30
0.0
 10
8.474090348633988
 20
-24.62889058654049
 30
0.0
 10
8.502620432942507
 20
-24.492148187301133
 30
0.0
 10
8.522868445506711
 20
-24.353936511066504
 30
0.0
 10
8.53476096771219
 20
-24.2147567087388
 30
0.0
 10
8.538254877672319
 20
-24.075113441612967
 30
0.0
 10
8.533337506586774
 20
-23.935513051491757
 30
0.0
 10
8.520026684678177
 20
-23.796461724707346
 30
0.0
 10
8.4983706765403
 20
-23.658463656706672
 30
0.0
 10
8.468448006132283
 20
-23.522019223855647
 30
0.0
 10
7.931573431213067
 20
-22.030792724867347
 30
0.0
 10
8.776734174466934
 20
-21.72317937115264
 30
0.0
 10
9.29970045795962
 20
-21.4903397802925
 30
0.0
 10
9.928697265869513
 20
-22.943865642099528
 30
0.0
 10
10.00028721952165
 20
-23.06381283046371
 30
0.0
 10
10.078966847067571
 20
-23.179233650377718
 30
0.0
 10
10.164450858816819
 20
-23.289709589819935
 30
0.0
 10
10.256429292610058
 20
-23.394840066739476
 30
0.0
 10
10.354568637731445
 20
-23.494243881553256
 30
0.0
 10
10.458513044207308
 20
-23.587560599362916
 30
0.0
 10
10.567885613106217
 20
-23.674451856879653
 30
0.0
 10
10.682289763161862
 20
-23.75460258931818
 30
0.0
 10
10.801310668763426
 20
-23.827722172811043
 30
0.0
 10
10.924516764099337
 20
-23.89354547820104
 30
0.0
 10
11.051461308000421
 20
-23.951833832390644
 30
0.0
 10
11.181684003808401
 20
-24.00237588376263
 30
0.0
 10
11.314712668396142
 20
-24.04498836853399
 30
0.0
 10
11.366674846704688
 20
-23.91532580074429
 30
0.0
 10
11.41073859712327
 20
-23.782770773078663
 30
0.0
 10
11.446744145970833
 20
-23.647803925621325
 30
0.0
 10
11.474560938334937
 20
-23.510914643634173
 30
0.0
 10
11.494088111459487
 20
-23.37259928306221
 30
0.0
 10
11.5052548604697
 20
-23.233359370763583
 30
0.0
 10
11.508020695108218
 20
-23.09369978598997
 30
0.0
 10
11.50237558655141
 20
-22.95412692971136
 30
0.0
 10
11.488340003773558
 20
-22.81514688842315
 30
0.0
 10
11.465964839327041
 20
-22.677263599093447
 30
0.0
 10
11.435331224807646
 20
-22.54097702190456
 30
0.0
 10
11.396550236674122
 20
-22.40678132741411
 30
0.0
 10
11.34976249348867
 20
-22.2751631047092
 30
0.0
 10
10.631775603830324
 20
-20.866034492250765
 30
0.0
 10
11.714601836602553
 20
-20.2902855714353
 30
0.0
 10
11.922728802130553
 20
-20.160233409370964
 30
0.0
 10
12.72603539375931
 20
-21.518550675098584
 30
0.0
 10
12.81209420821864
 20
-21.628579443674074
 30
0.0
 10
12.90461948798136
 20
-21.73322896381257
 30
0.0
 10
13.003275739486476
 20
-21.83211977986414
 30
0.0
 10
13.107705238475114
 20
-21.92489331704673
 30
0.0
 10
13.217529327086655
 20
-22.011213181626278
 30
0.0
 10
13.332349786859458
 20
-22.090766380669113
 30
0.0
 10
13.451750282657637
 20
-22.163264456943832
 30
0.0
 10
13.575297872288298
 20
-22.228444534857566
 30
0.0
 10
13.70254457633541
 20
-22.28607027363404
 30
0.0
 10
13.833029002518138
 20
-22.33593272427728
 30
0.0
 10
13.96627801868379
 20
-22.377851087213745
 30
0.0
 10
14.101808468369116
 20
-22.41167336786541
 30
0.0
 10
14.23912892270945
 20
-22.43727692777709
 30
0.0
 10
14.274430334828349
 20
-22.302124200232292
 30
0.0
 10
14.301533079171135
 20
-22.165091756229142
 30
0.0
 10
14.320338882095891
 20
-22.026676470813324
 30
0.0
 10
14.330779554391984
 20
-21.887380233167107
 30
0.0
 10
14.332817238531865
 20
-21.747708126775983
 30
0.0
 10
14.326444545941191
 20
-21.608166598012925
 30
0.0
 10
14.311684583789544
 20
-21.4692616197808
 30
0.0
 10
14.288590871204615
 20
-21.331496856871585
 30
0.0
 10
14.257247145213642
 20
-21.195371839694765
 30
0.0
 10
14.217767057115747
 20
-21.061380152996787
 30
0.0
 10
14.170293760386159
 20
-20.930007646139337
 30
0.0
 10
14.114999391606492
 20
-20.801730671425847
 30
0.0
 10
14.052084446303285
 20
-20.67701435686403
 30
0.0
 10
13.167641076945559
 20
-19.375595459480884
 30
0.0
 10
14.358261450232296
 20
-18.510559123578453
 30
0.0
 10
15.322676341324417
 20
-19.753875309392257
 30
0.0
 10
15.421846817677888
 20
-19.852250438770632
 30
0.0
 10
15.526758570723626
 20
-19.94447827368644
 30
0.0
 10
15.637031193963988
 20
-20.03022439910372
 30
0.0
 10
15.752264842565813
 20
-20.109177902447765
 30
0.0
 10
15.872041683184374
 20
-20.18105250096367
 30
0.0
 10
15.995927409013085
 20
-20.245587579767996
 30
0.0
 10
16.123472814565396
 20
-20.3025491368296
 30
0.0
 10
16.254215424478843
 20
-20.35173063145315
 30
0.0
 10
16.387681170435183
 20
-20.39295373318877
 30
0.0
 10
16.52338611011621
 20
-20.426068968452242
 30
0.0
 10
16.660838181962394
 20
-20.450956262511234
 30
0.0
 10
16.79953898937156
 20
-20.467525374872253
 30
0.0
 10
16.938985607868275
 20
-20.47571622648962
 30
0.0
 10
16.95706952944037
 20
-20.33720477843943
 30
0.0
 10
16.966783841238684
 20
-20.197856001599902
 30
0.0
 10
16.968093319494468
 20
-20.0581751699619
 30
0.0
 10
16.960993216083487
 20
-19.918668761535834
 30
0.0
 10
16.94550927574256
 20
-19.77984262187941
 30
0.0
 10
16.921697642720012
 20
-19.64220012991858
 30
0.0
 10
16.88964465719851
 20
-19.506240372712472
 30
0.0
 10
16.849466542228438
 20
-19.372456335780416
 30
0.0
 10
16.801308982307052
 20
-19.241333115553008
 30
0.0
 10
16.74534659513135
 20
-19.11334616042873
 30
0.0
 10
16.681782298440165
 20
-18.98895954681399
 30
0.0
 10
16.610846574241265
 20
-18.86862429639765
 30
0.0
 10
16.532796633091305
 20
-18.752776740761487
 30
0.0
 10
15.489195534831538
 20
-17.569043653347364
 30
0.0
 10
15.677197260356907
 20
-17.411291474798336
 30
0.0
 10
16.559378731129996
 20
-16.559378731129975
 30
0.0
 10
17.677669529663696
 20
-17.677669529663678
 30
0.0
 10
17.788387690257633
 20
-17.76283958528819
 30
0.0
 10
17.904031395569618
 20
-17.84119124693044
 30
0.0
 10
18.024181325403053
 20
-17.912440414093346
 30
0.0
 10
18.148401820142364
 20
-17.97632873968658
 30
0.0
 10
18.27624246044018
 20
-18.032624566784442
 30
0.0
 10
18.407239700422725
 20
-18.081123768606133
 30
0.0
 10
18.540918548491682
 20
-18.121650488672568
 30
0.0
 10
18.676794289627736
 20
-18.154057778456124
 30
0.0
 10
18.814374242950997
 20
-18.178228130211032
 30
0.0
 10
18.953159548165353
 20
-18.19407390305254
 30
0.0
 10
19.092646974409163
 20
-18.201537640739808
 30
0.0
 10
19.23233074495348
 20
-18.200592280010337
 30
0.0
 10
19.371704371131514
 20
-18.191241248710412
 30
0.0
 10
19.372285607910804
 20
-18.051555488433305
 30
0.0
 10
19.364458286664537
 20
-17.912087992211084
 30
0.0
 10
19.348250788997007
 20
-17.77334446450711
 30
0.0
 10
19.323721882751137
 20
-17.63582798469917
 30
0.0
 10
19.29096050891824
 20
-17.500037182930537
 30
0.0
 10
19.25008545914097
 20
-17.366464432093803
 30
0.0
 10
19.2012449449788
 20
-17.235594062503274
 30
0.0
 10
19.144616060497913
 20
-17.107900605729498
 30
0.0
 10
19.080404140134004
 20
-16.98384707396371
 30
0.0
 10
19.00884201415656
 20
-16.863883281151146
 30
0.0
 10
18.930189164434076
 20
-16.748444211980782
 30
0.0
 10
18.844730783561506
 20
-16.637948444645446
 30
0.0
 10
18.752776740761508
 20
-16.53279663309129
 30
0.0
 10
17.564762201338144
 20
-15.485420927137868
 30
0.0
 10
17.94781128056151
 20
-15.0600018259586
 30
0.0
 10
18.501537997755296
 20
-14.351263947764673
 30
0.0
 10
19.753875309392264
 20
-15.322676341324422
 30
0.0
 10
19.87439506269427
 20
-15.393298140539738
 30
0.0
 10
19.998946949957528
 20
-15.456537976399325
 30
0.0
 10
20.127079350216473
 20
-15.512166543379507
 30
0.0
 10
20.258327659685513
 20
-15.559982134162283
 30
0.0
 10
20.392215976396777
 20
-15.599811371019277
 30
0.0
 10
20.528258825804688
 20
-15.63150983447358
 30
0.0
 10
20.665962921100363
 20
-15.654962586959915
 30
0.0
 10
20.80482895185307
 20
-15.670084589584413
 30
0.0
 10
20.944353394493064
 20
-15.67682101047277
 30
0.0
 10
21.084030338071198
 20
-15.675147423588792
 30
0.0
 10
21.223353318675024
 20
-15.665069897302388
 30
0.0
 10
21.36181715584997
 20
-15.646624972385856
 30
0.0
 10
21.498919784366723
 20
-15.619879529518276
 30
0.0
 10
21.481989169901986
 20
-15.481222384898054
 30
0.0
 10
21.456743657143004
 20
-15.343835655022412
 30
0.0
 10
21.42327478547227
 20
-15.208217499565722
 30
0.0
 10
21.38170391189587
 20
-15.07485966541084
 30
0.0
 10
21.33218177100704
 20
-14.944245703591385
 30
0.0
 10
21.2748879284276
 20
-14.816849215951933
 30
0.0
 10
21.210030129709022
 20
-14.693132137883598
 30
0.0
 10
21.137843547054025
 20
-14.573543063361798
 30
0.0
 10
21.05858992659008
 20
-14.458515618359556
 30
0.0
 10
20.972556639286708
 20
-14.348466888534256
 30
0.0
 10
20.880055638957977
 20
-14.243795906889051
 30
0.0
 10
20.78142233112846
 20
-14.144882206892564
 30
0.0
 10
20.677014356864046
 20
-14.052084446303272
 30
0.0
 10
19.366152757973524
 20
-13.16122382362779
 30
0.0
 10
19.869091569522716
 20
-12.41558637207477
 30
0.0
 10
20.155320502696014
 20
-11.919823317222383
 30
0.0
 10
21.518550675098595
 20
-12.726035393759288
 30
0.0
 10
21.646971352604098
 20
-12.780995188604368
 30
0.0
 10
21.7784671641528
 20
-12.828125868692139
 30
0.0
 10
21.91256131034258
 20
-12.867256539757426
 30
0.0
 10
22.04876757029708
 20
-12.898245315299452
 30
0.0
 10
22.186592064686263
 20
-12.920979831057506
 30
0.0
 10
22.325535046516308
 20
-12.935377652440005
 30
0.0
 10
22.465092713195457
 20
-12.941386573429533
 30
0.0
 10
22.604759033305296
 20
-12.938984805880137
 30
0.0
 10
22.744027581453736
 20
-12.928181058520389
 30
0.0
 10
22.882393374556454
 20
-12.909014505375842
 30
0.0
 10
23.019354702888656
 20
-12.881554643725325
 30
0.0
 10
23.154414949267693
 20
-12.845901042106133
 30
0.0
 10
23.28708438977032
 20
-12.80218297928187
 30
0.0
 10
23.252908929965518
 20
-12.666741156318956
 30
0.0
 10
23.21064336251097
 20
-12.533601863590883
 30
0.0
 10
23.160440940936617
 20
-12.40324785970739
 30
0.0
 10
23.10248369753922
 20
-12.276151803914296
 30
0.0
 10
23.036981783339368
 20
-12.152774542246911
 30
0.0
 10
22.96417270608092
 20
-12.033563436517788
 30
0.0
 10
22.88432046903589
 20
-11.918950742197785
 30
0.0
 10
22.79771461373744
 20
-11.809352041072222
 30
0.0
 10
22.70466917011199
 20
-11.705164734355279
 30
0.0
 10
22.605521517817248
 20
-11.606766601726514
 30
0.0
 10
22.500631162914882
 20
-11.51451443151442
 30
0.0
 10
22.39037843431357
 20
-11.428742726993914
 30
0.0
 10
22.2751631047092
 20
-11.349762493488674
 30
0.0
 10
20.866034492250762
 20
-10.631775603830327
 30
0.0
 10
21.403642591839862
 20
-9.529515651978649
 30
0.0
 10
21.495578101049535
 20
-9.301967281771653
 30
0.0
 10
22.943865642099542
 20
-9.928697265869493
 30
0.0
 10
23.078161973009482
 20
-9.967128307548245
 30
0.0
 10
23.21452794134371
 20
-9.99740655288471
 30
0.0
 10
23.35246908867496
 20
-10.019422213976872
 30
0.0
 10
23.491485245029764
 20
-10.033095462776052
 30
0.0
 10
23.63107234248798
 20
-10.038376720540723
 30
0.0
 10
23.770724242916188
 20
-10.035246837607373
 30
0.0
 10
23.909934573207565
 20
-10.023717162826534
 30
0.0
 10
24.0481985613738
 20
-10.003829502412245
 30
0.0
 10
24.18501486683138
 20
-9.9756559683541
 30
0.0
 10
24.319887398245733
 20
-9.939298716941616
 30
0.0
 10
24.45232711234178
 20
-9.89488957834894
 30
0.0
 10
24.581853787158437
 20
-9.842589578623056
 30
0.0
 10
24.707997763317326
 20
-9.782588355808752
 30
0.0
 10
24.657116425589017
 20
-9.652497852960295
 30
0.0
 10
24.598497356685886
 20
-9.52570568355967
 30
0.0
 10
24.532353107385607
 20
-9.402671591760324
 30
0.0
 10
24.458923514517572
 20
-9.283841695052379
 30
0.0
 10
24.378474831322574
 20
-9.169646866655565
 30
0.0
 10
24.291298762027523
 20
-9.060501173187381
 30
0.0
 10
24.197711404135653
 20
-8.95680037327144
 30
0.0
 10
24.098052102267634
 20
-8.858920482529955
 30
0.0
 10
23.99268221770931
 20
-8.767216410163718
 30
0.0
 10
23.881983818127825
 20
-8.682020672063237
 30
0.0
 10
23.766358292207087
 20
-8.603642185117275
 30
0.0
 10
23.646224894225814
 20
-8.532365147090568
 30
0.0
 10
23.52201922385565
 20
-8.468448006132263
 30
0.0
 10
22.04153467254646
 20
-7.9354407703449255
 30
0.0
 10
22.496311187443908
 20
-6.535782577351117
 30
0.0
 10
24.00734214192358
 20
-6.974777650980723
 30
0.0
 10
24.14539619287477
 20
-6.99607385900828
 30
0.0
 10
24.284481745212815
 20
-7.009022163577136
 30
0.0
 10
24.42409447939007
 20
-7.013575614569232
 30
0.0
 10
24.563728164315233
 20
-7.009717701324001
 30
0.0
 10
24.70287649293028
 20
-6.9974624125054685
 30
0.0
 10
24.841034918062896
 20
-6.97685418537983
 30
0.0
 10
24.977702481897587
 20
-6.947967744687412
 30
0.0
 10
25.112383632431932
 20
-6.910907831693274
 30
0.0
 10
25.244590020331486
 20
-6.865808824398887
 30
0.0
 10
25.373842269668124
 20
-6.812834250292011
 30
0.0
 10
25.499671716121078
 20
-6.752176193401513
 30
0.0
 10
25.621622106338002
 20
-6.684054597807117
 30
0.0
 10
25.739251252294373
 20
-6.608716470129548
 30
0.0
 10
25.672466465733564
 20
-6.486028892337769
 30
0.0
 10
25.59841835311579
 20
-6.367583434518011
 30
0.0
 10
25.517375410413713
 20
-6.253809575927493
 30
0.0
 10
25.42963149661928
 20
-6.145119856761321
 30
0.0
 10
25.335504768220844
 20
-6.041908382295575
 30
0.0
 10
25.23533652557842
 20
-5.944549393874802
 30
0.0
 10
25.129489975380054
 20
-5.853395911925453
 30
0.0
 10
25.0183489136665
 20
-5.768778455915651
 30
0.0
 10
24.9023163341997
 20
-5.691003845902693
 30
0.0
 10
24.781812967220894
 20
-5.620354090013809
 30
0.0
 10
24.657275753896897
 20
-5.557085361894155
 30
0.0
 10
24.52915626198604
 20
-5.5014270718297675
 30
0.0
 10
24.397919048468694
 20
-5.453581034913558
 30
0.0
 10
22.857847173195523
 20
-5.10933418522493
 30
0.0
 10
22.917219360049234
 20
-4.871205350209743
 30
0.0
 10
23.130177415059066
 20
-3.6634602044913485
 30
0.0
 10
24.692208514878452
 20
-3.910861626005761
 30
0.0
 10
24.831843091017895
 20
-3.9146871464597854
 30
0.0
 10
24.9714547651137
 20
-3.910101307763041
 30
0.0
 10
25.11053730991838
 20
-3.8971207380128248
 30
0.0
 10
25.24858641678951
 20
-3.8757925043196657
 30
0.0
 10
25.385101524295948
 20
-3.846193942143552
 30
0.0
 10
25.51958763323679
 20
-3.8084323748781563
 30
0.0
 10
25.65155710149188
 20
-3.7626447246998027
 30
0.0
 10
25.780531412195778
 20
-3.7089970160922525
 30
0.0
 10
25.906042908823867
 20
-3.647683773847494
 30
0.0
 10
26.027636490899205
 20
-3.578927317725368
 30
0.0
 10
26.144871264171627
 20
-3.5029769563295803
 30
0.0
 10
26.257322139285474
 20
-3.4201080831230644
 30
0.0
 10
26.36458137313934
 20
-3.3306211778605217
 30
0.0
 10
26.282946373725398
 20
-3.217271381517202
 30
0.0
 10
26.19463700036316
 20
-3.1090405909040157
 30
0.0
 10
26.099973459878406
 20
-3.0063212472375063
 30
0.0
 10
25.999298999093785
 20
-2.909485807412449
 30
0.0
 10
25.892978660227328
 20
-2.818885393485644
 30
0.0
 10
25.78139795726162
 20
-2.7348485195191183
 30
0.0
 10
25.664961478083043
 20
-2.6576799003991525
 30
0.0
 10
25.544091417459633
 20
-2.587659346950326
 30
0.0
 10
25.419226046177055
 20
-2.5250407513508506
 30
0.0
 10
25.290818121883408
 20
-2.470051166528049
 30
0.0
 10
25.15933324740519
 20
-2.4228899828720576
 30
0.0
 10
25.02524818248706
 20
-2.3837282052529556
 30
0.0
 10
24.889049115077007
 20
-2.352707832962847
 30
0.0
 10
23.31229316955015
 20
-2.2036605131331553
 30
0.0
 10
23.372131310604836
 20
-1.634338630875683
 30
0.0
 10
23.403519962510607
 20
-0.7354852446927376
 30
0.0
 10
24.987664009143295
 20
-0.7852689769532074
 30
0.0
 10
25.12667698979162
 20
-0.771563479090887
 30
0.0
 10
25.26461302614473
 20
-0.7495158185442365
 30
0.0
 10
25.400971966761382
 20
-0.7192059393908865
 30
0.0
 10
25.535259378696587
 20
-0.6807437442360089
 30
0.0
 10
25.66698834029886
 20
-0.6342686957091561
 30
0.0
 10
25.79568120677182
 20
-0.5799493107774447
 30
0.0
 10
25.920871342098184
 20
-0.5179825497086834
 30
0.0
 10
26.042104811046325
 20
-0.44859310190005086
 30
0.0
 10
26.158942025124187
 20
-0.3720325711618764
 30
0.0
 10
26.270959336512412
 20
-0.28857856341066235
 30
0.0
 10
26.37775057419714
 20
-0.19853368007934358
 30
0.0
 10
26.47892851673246
 20
-0.1022244208946399
 30
0.0
 10
26.574126296292395
 20
2.220446049250313e-16
 30
0.0
 10
26.47892851673246
 20
0.10222442089464034
 30
0.0
 10
26.37775057419714
 20
0.19853368007934402
 30
0.0
 10
26.270959336512412
 20
0.288578563410663
 30
0.0
 10
26.158942025124187
 20
0.37203257116187705
 30
0.0
 10
26.042104811046325
 20
0.4485931019000513
 30
0.0
 10
25.920871342098184
 20
0.5179825497086836
 30
0.0
 10
25.79568120677182
 20
0.5799493107774449
 30
0.0
 10
25.66698834029886
 20
0.6342686957091563
 30
0.0
 10
25.535259378696587
 20
0.6807437442360091
 30
0.0
 10
25.400971966761382
 20
0.7192059393908867
 30
0.0
 10
25.26461302614473
 20
0.7495158185442368
 30
0.0
 10
25.12667698979162
 20
0.7715634790908872
 30
0.0
 10
24.98766400914329
 20
0.7852689769532077
 30
0.0
 10
23.403519962510604
 20
0.7354852446927379
 30
0.0
  0
ENDSEC
  0
EOF
