  0
SECTION
  2
HEADER
  9
$ACADVER
  1
AC1009
  9
$INSBASE
 10
0.0
 20
0.0
 30
0.0
  9
$EXTMIN
 10
0.0
 20
0.0
 30
0.0
  9
$EXTMAX
 10
0.0
 20
0.0
 30
0.0
  0
ENDSEC
  0
SECTION
  2
TABLES
  0
TABLE
  2
VPORT
 70
1
  0
VPORT
  2
*ACTIVE
 70
0
 10
0.0
 20
0.0
 11
1.0
 21
1.0
 12
-5.0
 22
1.0
 13
0.0
 23
0.0
 14
0.1
 24
0.1
 15
0.1
 25
0.1
 16
0.0
 26
0.0
 36
1.0
 17
0.0
 27
0.0
 37
0.0
 40
10.0
 41
1.0
 42
50.0
 43
0.0
 44
0.0
 50
0.0
 51
0.0
 71
0
 72
100
 73
1
 74
1
 75
0
 76
0
 77
0
 78
0
  0
ENDTAB
  0
TABLE
  2
LTYPE
 70
8
  0
LTYPE
  2
CONTINUOUS
 70
0
  3
Solid line
 72
65
 73
0
 40
0.0
  0
LTYPE
  2
DOT
 70
0
  3
. . . . . . .
 72
65
 73
2
 40
0.25
 49
0.0
 49
-0.25
  0
LTYPE
  2
DASHED
 70
0
  3
__ __ __ __ __
 72
65
 73
2
 40
0.8
 49
0.5
 49
-0.3
  0
LTYPE
  2
DASHDOT
 70
0
  3
__ . __ . __ .
 72
65
 73
4
 40
1.0
 49
0.5
 49
-0.25
 49
0.0
 49
-0.25
  0
LTYPE
  2
DIVIDE
 70
0
  3
____ . . ____ . . 
 72
65
 73
6
 40
1.25
 49
0.5
 49
-0.25
 49
0.0
 49
-0.25
 49
0.0
 49
-0.25
  0
LTYPE
  2
BORDER
 70
0
  3
__ __ . __ __ . 
 72
65
 73
6
 40
1.75
 49
0.5
 49
-0.25
 49
0.5
 49
-0.25
 49
0.0
 49
-0.25
  0
LTYPE
  2
HIDDEN
 70
0
  3
__ __ __ __ __
 72
65
 73
2
 40
0.4
 49
0.25
 49
-0.25
  0
LTYPE
  2
CENTER
 70
0
  3
____ _ ____ _ __
 72
65
 73
4
 40
2.0
 49
1.25
 49
-0.25
 49
0.25
 49
-0.25
  0
ENDTAB
  0
TABLE
  2
LAYER
 70
1
  0
LAYER
  2
PYDXF
 70
64
 62
7
  6
continuous
  0
ENDTAB
  0
TABLE
  2
STYLE
 70
1
  0
STYLE
  2
STANDARD
 70
0
 40
0
 41
1.0
 50
0.0
 71
0
 42
1
 3
ARIAL.TTF
 4

  0
ENDTAB
  0
TABLE
  2
VIEW
 70
1
  0
VIEW
  2
BF_TOPVIEW
 70
0
 40
120.0
 10
0.0
 20
0.0
 41
200.0
 11
0.0
 21
0.0
 31
1.0
 12
0.0
 22
0.0
 32
0.0
 42
50.0
 43
0.0
 44
0.0
 50
0.0
 71
0
  0
ENDTAB
  0
ENDSEC
  0
SECTION
  2
BLOCKS
  0
ENDSEC
  0
SECTION
  2
ENTITIES
  0
LINE
  8
0
 10
0.31199997663497925
 20
0.6532214879989624
 30
0.0
 11
0.3124074339866638
 21
0.6425764560699463
 31
0.0
  0
LINE
  8
0
 10
0.3124074339866638
 20
0.6425764560699463
 30
0.0
 11
0.31362175941467285
 21
0.6322176456451416
 31
0.0
  0
LINE
  8
0
 10
0.31362175941467285
 20
0.6322176456451416
 30
0.0
 11
0.3156309127807617
 21
0.6221675276756287
 31
0.0
  0
LINE
  8
0
 10
0.3156309127807617
 20
0.6221675276756287
 30
0.0
 11
0.3184228539466858
 21
0.6124486923217773
 31
0.0
  0
LINE
  8
0
 10
0.3184228539466858
 20
0.6124486923217773
 30
0.0
 11
0.3219855725765228
 21
0.603083610534668
 31
0.0
  0
LINE
  8
0
 10
0.3219855725765228
 20
0.603083610534668
 30
0.0
 11
0.3263070285320282
 21
0.5940948724746704
 31
0.0
  0
LINE
  8
0
 10
0.3263070285320282
 20
0.5940948724746704
 30
0.0
 11
0.3313751816749573
 21
0.5855050086975098
 31
0.0
  0
LINE
  8
0
 10
0.3313751816749573
 20
0.5855050086975098
 30
0.0
 11
0.33717799186706543
 21
0.5773364901542664
 31
0.0
  0
LINE
  8
0
 10
0.33717799186706543
 20
0.5773364901542664
 30
0.0
 11
0.3437034487724304
 21
0.5696119070053101
 31
0.0
  0
LINE
  8
0
 10
0.3437034487724304
 20
0.5696119070053101
 30
0.0
 11
0.3509395122528076
 21
0.5623537302017212
 31
0.0
  0
LINE
  8
0
 10
0.3509395122528076
 20
0.5623537302017212
 30
0.0
 11
0.3588741421699524
 21
0.5555845499038696
 31
0.0
  0
LINE
  8
0
 10
0.6584421992301941
 20
-0.06008167564868927
 30
0.0
 11
0.6617411971092224
 21
0.005783422850072384
 31
0.0
  0
LINE
  8
0
 10
0.6617411971092224
 20
0.005783422850072384
 30
0.0
 11
0.6586846709251404
 21
0.07053131610155106
 31
0.0
  0
LINE
  8
0
 10
0.6586846709251404
 20
0.07053131610155106
 30
0.0
 11
0.6494079232215881
 21
0.1338367760181427
 31
0.0
  0
LINE
  8
0
 10
0.6494079232215881
 20
0.1338367760181427
 30
0.0
 11
0.634046196937561
 21
0.19537459313869476
 31
0.0
  0
LINE
  8
0
 10
0.634046196937561
 20
0.19537459313869476
 30
0.0
 11
0.6127347350120544
 21
0.2548195421695709
 31
0.0
  0
LINE
  8
0
 10
0.6127347350120544
 20
0.2548195421695709
 30
0.0
 11
0.5856087803840637
 21
0.31184640526771545
 31
0.0
  0
LINE
  8
0
 10
0.5856087803840637
 20
0.31184640526771545
 30
0.0
 11
0.5528035759925842
 21
0.36612996459007263
 31
0.0
  0
LINE
  8
0
 10
0.5528035759925842
 20
0.36612996459007263
 30
0.0
 11
0.5144544243812561
 21
0.4173450171947479
 31
0.0
  0
LINE
  8
0
 10
0.5144544243812561
 20
0.4173450171947479
 30
0.0
 11
0.47069647908210754
 21
0.465166300535202
 31
0.0
  0
LINE
  8
0
 10
0.47069647908210754
 20
0.465166300535202
 30
0.0
 11
0.42166510224342346
 21
0.509268581867218
 31
0.0
  0
LINE
  8
0
 10
0.42166510224342346
 20
0.509268581867218
 30
0.0
 11
0.36749541759490967
 21
0.5493267178535461
 31
0.0
  0
LINE
  8
0
 10
-0.28200003504753113
 20
0.9126719832420349
 30
0.0
 11
-0.26200002431869507
 21
0.9126719832420349
 31
0.0
  0
LINE
  8
0
 10
0.28199997544288635
 20
0.862671971321106
 30
0.0
 11
0.2619999647140503
 21
0.862671971321106
 31
0.0
  0
LINE
  8
0
 10
0.2368069291114807
 20
-1.6903289556503296
 30
0.0
 11
0.2252276986837387
 21
-1.836565375328064
 31
0.0
  0
LINE
  8
0
 10
0.2252276986837387
 20
-1.836565375328064
 30
0.0
 11
0.21860915422439575
 21
-1.9810974597930908
 31
0.0
  0
LINE
  8
0
 10
0.21860915422439575
 20
-1.9810974597930908
 30
0.0
 11
0.21697182953357697
 21
-2.1244242191314697
 31
0.0
  0
LINE
  8
0
 10
0.21697182953357697
 20
-2.1244242191314697
 30
0.0
 11
0.22033634781837463
 21
-2.26704478263855
 31
0.0
  0
LINE
  8
0
 10
0.22033634781837463
 20
-2.26704478263855
 30
0.0
 11
0.22872325778007507
 21
-2.4094583988189697
 31
0.0
  0
LINE
  8
0
 10
0.22872325778007507
 20
-2.4094583988189697
 30
0.0
 11
0.24215315282344818
 21
-2.552164077758789
 31
0.0
  0
LINE
  8
0
 10
0.24215315282344818
 20
-2.552164077758789
 30
0.0
 11
0.26064661145210266
 21
-2.6956608295440674
 31
0.0
  0
LINE
  8
0
 10
0.26064661145210266
 20
-2.6956608295440674
 30
0.0
 11
0.2842242121696472
 21
-2.8404476642608643
 31
0.0
  0
LINE
  8
0
 10
0.2842242121696472
 20
-2.8404476642608643
 30
0.0
 11
0.31290653347969055
 21
-2.9870238304138184
 31
0.0
  0
LINE
  8
0
 10
0.31290653347969055
 20
-2.9870238304138184
 30
0.0
 11
0.34671416878700256
 21
-3.1358890533447266
 31
0.0
  0
LINE
  8
0
 10
-0.2749953269958496
 20
-1.3893200159072876
 30
0.0
 11
-0.27523475885391235
 21
-1.3879265785217285
 31
0.0
  0
LINE
  8
0
 10
-0.27523475885391235
 20
-1.3879265785217285
 30
0.0
 11
-0.2754845917224884
 21
-1.3865606784820557
 31
0.0
  0
LINE
  8
0
 10
-0.2754845917224884
 20
-1.3865606784820557
 30
0.0
 11
-0.27574622631073
 21
-1.3852163553237915
 31
0.0
  0
LINE
  8
0
 10
-0.27574622631073
 20
-1.3852163553237915
 30
0.0
 11
-0.27602097392082214
 21
-1.383887529373169
 31
0.0
  0
LINE
  8
0
 10
-0.27602097392082214
 20
-1.383887529373169
 30
0.0
 11
-0.2763102054595947
 21
-1.382568359375
 31
0.0
  0
LINE
  8
0
 10
-0.2763102054595947
 20
-1.382568359375
 30
0.0
 11
-0.2766152620315552
 21
-1.3812527656555176
 31
0.0
  0
LINE
  8
0
 10
-0.2766152620315552
 20
-1.3812527656555176
 30
0.0
 11
-0.2769375145435333
 21
-1.3799346685409546
 31
0.0
  0
LINE
  8
0
 10
-0.2769375145435333
 20
-1.3799346685409546
 30
0.0
 11
-0.2772783041000366
 21
-1.378608226776123
 31
0.0
  0
LINE
  8
0
 10
-0.2772783041000366
 20
-1.378608226776123
 30
0.0
 11
-0.2776389718055725
 21
-1.3772673606872559
 31
0.0
  0
LINE
  8
0
 10
-0.2776389718055725
 20
-1.3772673606872559
 30
0.0
 11
-0.2780208885669708
 21
-1.375905990600586
 31
0.0
  0
LINE
  8
0
 10
-0.2780208885669708
 20
-1.375905990600586
 30
0.0
 11
-0.278425395488739
 21
-1.3745181560516357
 31
0.0
  0
LINE
  8
0
 10
-0.35887423157691956
 20
0.5555845499038696
 30
0.0
 11
-0.3509396016597748
 21
0.5623537302017212
 31
0.0
  0
LINE
  8
0
 10
-0.3509396016597748
 20
0.5623537302017212
 30
0.0
 11
-0.3437035381793976
 21
0.5696119070053101
 31
0.0
  0
LINE
  8
0
 10
-0.3437035381793976
 20
0.5696119070053101
 30
0.0
 11
-0.3371780812740326
 21
0.5773364901542664
 31
0.0
  0
LINE
  8
0
 10
-0.3371780812740326
 20
0.5773364901542664
 30
0.0
 11
-0.33137524127960205
 21
0.5855050086975098
 31
0.0
  0
LINE
  8
0
 10
-0.33137524127960205
 20
0.5855050086975098
 30
0.0
 11
-0.326307088136673
 21
0.5940948724746704
 31
0.0
  0
LINE
  8
0
 10
-0.326307088136673
 20
0.5940948724746704
 30
0.0
 11
-0.3219856321811676
 21
0.603083610534668
 31
0.0
  0
LINE
  8
0
 10
-0.3219856321811676
 20
0.603083610534668
 30
0.0
 11
-0.31842291355133057
 21
0.6124486923217773
 31
0.0
  0
LINE
  8
0
 10
-0.31842291355133057
 20
0.6124486923217773
 30
0.0
 11
-0.3156309425830841
 21
0.6221675276756287
 31
0.0
  0
LINE
  8
0
 10
-0.3156309425830841
 20
0.6221675276756287
 30
0.0
 11
-0.31362178921699524
 21
0.6322176456451416
 31
0.0
  0
LINE
  8
0
 10
-0.31362178921699524
 20
0.6322176456451416
 30
0.0
 11
-0.3124074637889862
 21
0.6425764560699463
 31
0.0
  0
LINE
  8
0
 10
-0.3124074637889862
 20
0.6425764560699463
 30
0.0
 11
-0.312000036239624
 21
0.6532214879989624
 31
0.0
  0
LINE
  8
0
 10
-0.3674953579902649
 20
0.5493268370628357
 30
0.0
 11
-0.4216650128364563
 21
0.5092687010765076
 31
0.0
  0
LINE
  8
0
 10
-0.4216650128364563
 20
0.5092687010765076
 30
0.0
 11
-0.47069641947746277
 21
0.4651663601398468
 31
0.0
  0
LINE
  8
0
 10
-0.47069641947746277
 20
0.4651663601398468
 30
0.0
 11
-0.5144543051719666
 21
0.4173450767993927
 31
0.0
  0
LINE
  8
0
 10
-0.5144543051719666
 20
0.4173450767993927
 30
0.0
 11
-0.5528035163879395
 21
0.3661300539970398
 31
0.0
  0
LINE
  8
0
 10
-0.5528035163879395
 20
0.3661300539970398
 30
0.0
 11
-0.585608720779419
 21
0.3118464946746826
 31
0.0
  0
LINE
  8
0
 10
-0.585608720779419
 20
0.3118464946746826
 30
0.0
 11
-0.6127346754074097
 21
0.2548196315765381
 31
0.0
  0
LINE
  8
0
 10
-0.6127346754074097
 20
0.2548196315765381
 30
0.0
 11
-0.6340461373329163
 21
0.19537469744682312
 31
0.0
  0
LINE
  8
0
 10
-0.6340461373329163
 20
0.19537469744682312
 30
0.0
 11
-0.6494078636169434
 21
0.13383689522743225
 31
0.0
  0
LINE
  8
0
 10
-0.6494078636169434
 20
0.13383689522743225
 30
0.0
 11
-0.6586846113204956
 21
0.0705314502120018
 31
0.0
  0
LINE
  8
0
 10
-0.6586846113204956
 20
0.0705314502120018
 30
0.0
 11
-0.6617411375045776
 21
0.0057835811749100685
 31
0.0
  0
LINE
  8
0
 10
-0.6617411375045776
 20
0.0057835811749100685
 30
0.0
 11
-0.6584421396255493
 21
-0.060081496834754944
 31
0.0
  0
LINE
  8
0
 10
-0.6584421396255493
 20
-0.060081496834754944
 30
0.0
 11
-0.6486524939537048
 21
-0.12673859298229218
 31
0.0
  0
LINE
  8
0
 10
-0.03391515091061592
 20
0.2477170079946518
 30
0.0
 11
-0.015000010840594769
 21
0.2489902526140213
 31
0.0
  0
LINE
  8
0
 10
0.03391512855887413
 20
0.24771703779697418
 30
0.0
 11
0.06644604355096817
 21
0.24106699228286743
 31
0.0
  0
LINE
  8
0
 10
0.06644604355096817
 20
0.24106699228286743
 30
0.0
 11
0.09729444235563278
 21
0.2303481549024582
 31
0.0
  0
LINE
  8
0
 10
0.09729444235563278
 20
0.2303481549024582
 30
0.0
 11
0.12616203725337982
 21
0.2158588171005249
 31
0.0
  0
LINE
  8
0
 10
0.12616203725337982
 20
0.2158588171005249
 30
0.0
 11
0.15275055170059204
 21
0.19789725542068481
 31
0.0
  0
LINE
  8
0
 10
0.15275055170059204
 20
0.19789725542068481
 30
0.0
 11
0.1767617017030716
 21
0.17676176130771637
 31
0.0
  0
LINE
  8
0
 10
0.1767617017030716
 20
0.17676176130771637
 30
0.0
 11
0.19789722561836243
 21
0.15275061130523682
 31
0.0
  0
LINE
  8
0
 10
0.19789722561836243
 20
0.15275061130523682
 30
0.0
 11
0.21585878729820251
 21
0.1261620819568634
 31
0.0
  0
LINE
  8
0
 10
0.21585878729820251
 20
0.1261620819568634
 30
0.0
 11
0.2303481251001358
 21
0.09729447215795517
 31
0.0
  0
LINE
  8
0
 10
0.2303481251001358
 20
0.09729447215795517
 30
0.0
 11
0.24106696248054504
 21
0.06644606590270996
 31
0.0
  0
LINE
  8
0
 10
0.24106696248054504
 20
0.06644606590270996
 30
0.0
 11
0.2477170079946518
 21
0.03391515091061592
 31
0.0
  0
LINE
  8
0
 10
0.2477170079946518
 20
0.03391515091061592
 30
0.0
 11
0.25
 21
1.0927847071684482e-08
 31
0.0
  0
LINE
  8
0
 10
0.25
 20
1.0927847071684482e-08
 30
0.0
 11
0.24771703779697418
 21
-0.03391512855887413
 31
0.0
  0
LINE
  8
0
 10
0.24771703779697418
 20
-0.03391512855887413
 30
0.0
 11
0.24106699228286743
 21
-0.06644604355096817
 31
0.0
  0
LINE
  8
0
 10
0.24106699228286743
 20
-0.06644604355096817
 30
0.0
 11
0.2303481549024582
 21
-0.09729444235563278
 31
0.0
  0
LINE
  8
0
 10
0.2303481549024582
 20
-0.09729444235563278
 30
0.0
 11
0.2158588171005249
 21
-0.12616203725337982
 31
0.0
  0
LINE
  8
0
 10
0.2158588171005249
 20
-0.12616203725337982
 30
0.0
 11
0.19789725542068481
 21
-0.15275055170059204
 31
0.0
  0
LINE
  8
0
 10
0.19789725542068481
 20
-0.15275055170059204
 30
0.0
 11
0.17676176130771637
 21
-0.1767617017030716
 31
0.0
  0
LINE
  8
0
 10
0.17676176130771637
 20
-0.1767617017030716
 30
0.0
 11
0.15275061130523682
 21
-0.19789722561836243
 31
0.0
  0
LINE
  8
0
 10
0.15275061130523682
 20
-0.19789722561836243
 30
0.0
 11
0.1261620819568634
 21
-0.21585878729820251
 31
0.0
  0
LINE
  8
0
 10
0.1261620819568634
 20
-0.21585878729820251
 30
0.0
 11
0.09729447215795517
 21
-0.2303481251001358
 31
0.0
  0
LINE
  8
0
 10
0.09729447215795517
 20
-0.2303481251001358
 30
0.0
 11
0.06644606590270996
 21
-0.24106696248054504
 31
0.0
  0
LINE
  8
0
 10
0.06644606590270996
 20
-0.24106696248054504
 30
0.0
 11
0.03391515091061592
 21
-0.2477170079946518
 31
0.0
  0
LINE
  8
0
 10
0.03391515091061592
 20
-0.2477170079946518
 30
0.0
 11
0.015000010840594769
 21
-0.25055992603302
 31
0.0
  0
LINE
  8
0
 10
-0.03391512855887413
 20
-0.24771703779697418
 30
0.0
 11
-0.06644604355096817
 21
-0.24106699228286743
 31
0.0
  0
LINE
  8
0
 10
-0.06644604355096817
 20
-0.24106699228286743
 30
0.0
 11
-0.09729444235563278
 21
-0.2303481549024582
 31
0.0
  0
LINE
  8
0
 10
-0.09729444235563278
 20
-0.2303481549024582
 30
0.0
 11
-0.12616203725337982
 21
-0.2158588171005249
 31
0.0
  0
LINE
  8
0
 10
-0.12616203725337982
 20
-0.2158588171005249
 30
0.0
 11
-0.15275055170059204
 21
-0.19789725542068481
 31
0.0
  0
LINE
  8
0
 10
-0.15275055170059204
 20
-0.19789725542068481
 30
0.0
 11
-0.1767617017030716
 21
-0.17676176130771637
 31
0.0
  0
LINE
  8
0
 10
-0.1767617017030716
 20
-0.17676176130771637
 30
0.0
 11
-0.19789722561836243
 21
-0.15275061130523682
 31
0.0
  0
LINE
  8
0
 10
-0.19789722561836243
 20
-0.15275061130523682
 30
0.0
 11
-0.21585878729820251
 21
-0.1261620819568634
 31
0.0
  0
LINE
  8
0
 10
-0.21585878729820251
 20
-0.1261620819568634
 30
0.0
 11
-0.2303481251001358
 21
-0.09729447215795517
 31
0.0
  0
LINE
  8
0
 10
-0.2303481251001358
 20
-0.09729447215795517
 30
0.0
 11
-0.24106696248054504
 21
-0.06644606590270996
 31
0.0
  0
LINE
  8
0
 10
-0.24106696248054504
 20
-0.06644606590270996
 30
0.0
 11
-0.2477170079946518
 21
-0.03391515091061592
 31
0.0
  0
LINE
  8
0
 10
-0.2477170079946518
 20
-0.03391515091061592
 30
0.0
 11
-0.25
 21
-1.0927847071684482e-08
 31
0.0
  0
LINE
  8
0
 10
-0.25
 20
-1.0927847071684482e-08
 30
0.0
 11
-0.24771703779697418
 21
0.03391512855887413
 31
0.0
  0
LINE
  8
0
 10
-0.24771703779697418
 20
0.03391512855887413
 30
0.0
 11
-0.24106699228286743
 21
0.06644604355096817
 31
0.0
  0
LINE
  8
0
 10
-0.24106699228286743
 20
0.06644604355096817
 30
0.0
 11
-0.2303481549024582
 21
0.09729444235563278
 31
0.0
  0
LINE
  8
0
 10
-0.2303481549024582
 20
0.09729444235563278
 30
0.0
 11
-0.2158588171005249
 21
0.12616203725337982
 31
0.0
  0
LINE
  8
0
 10
-0.2158588171005249
 20
0.12616203725337982
 30
0.0
 11
-0.19789725542068481
 21
0.15275055170059204
 31
0.0
  0
LINE
  8
0
 10
-0.19789725542068481
 20
0.15275055170059204
 30
0.0
 11
-0.17676176130771637
 21
0.1767617017030716
 31
0.0
  0
LINE
  8
0
 10
-0.17676176130771637
 20
0.1767617017030716
 30
0.0
 11
-0.15275061130523682
 21
0.19789722561836243
 31
0.0
  0
LINE
  8
0
 10
-0.15275061130523682
 20
0.19789722561836243
 30
0.0
 11
-0.1261620819568634
 21
0.21585878729820251
 31
0.0
  0
LINE
  8
0
 10
-0.1261620819568634
 20
0.21585878729820251
 30
0.0
 11
-0.09729447215795517
 21
0.2303481251001358
 31
0.0
  0
LINE
  8
0
 10
-0.09729447215795517
 20
0.2303481251001358
 30
0.0
 11
-0.06644606590270996
 21
0.24106696248054504
 31
0.0
  0
LINE
  8
0
 10
-0.06644606590270996
 20
0.24106696248054504
 30
0.0
 11
-0.03391515091061592
 21
0.2477170079946518
 31
0.0
  0
LINE
  8
0
 10
-0.01500004529953003
 20
1.0376710891723633
 30
0.0
 11
-0.2820000648498535
 21
1.0376720428466797
 31
0.0
  0
LINE
  8
0
 10
-0.43597152829170227
 20
-3.4403128623962402
 30
0.0
 11
-0.42884284257888794
 21
-3.4105560779571533
 31
0.0
  0
LINE
  8
0
 10
-0.22907030582427979
 20
-3.476668119430542
 30
0.0
 11
-0.22980700433254242
 21
-3.482609510421753
 31
0.0
  0
LINE
  8
0
 10
-0.22980700433254242
 20
-3.482609510421753
 30
0.0
 11
-0.22987301647663116
 21
-3.488495111465454
 31
0.0
  0
LINE
  8
0
 10
-0.22987301647663116
 20
-3.488495111465454
 30
0.0
 11
-0.22928674519062042
 21
-3.494278907775879
 31
0.0
  0
LINE
  8
0
 10
-0.22928674519062042
 20
-3.494278907775879
 30
0.0
 11
-0.2280665785074234
 21
-3.49991512298584
 31
0.0
  0
LINE
  8
0
 10
-0.2280665785074234
 20
-3.49991512298584
 30
0.0
 11
-0.2262309342622757
 21
-3.5053577423095703
 31
0.0
  0
LINE
  8
0
 10
-0.2262309342622757
 20
-3.5053577423095703
 30
0.0
 11
-0.22379818558692932
 21
-3.510560989379883
 31
0.0
  0
LINE
  8
0
 10
-0.22379818558692932
 20
-3.510560989379883
 30
0.0
 11
-0.22078675031661987
 21
-3.5154788494110107
 31
0.0
  0
LINE
  8
0
 10
-0.22078675031661987
 20
-3.5154788494110107
 30
0.0
 11
-0.21721501648426056
 21
-3.5200655460357666
 31
0.0
  0
LINE
  8
0
 10
-0.21721501648426056
 20
-3.5200655460357666
 30
0.0
 11
-0.2131013721227646
 21
-3.524275302886963
 31
0.0
  0
LINE
  8
0
 10
-0.2131013721227646
 20
-3.524275302886963
 30
0.0
 11
-0.20846423506736755
 21
-3.528062105178833
 31
0.0
  0
LINE
  8
0
 10
0.4359719157218933
 20
-3.4403131008148193
 30
0.0
 11
0.4288431406021118
 21
-3.4105560779571533
 31
0.0
  0
LINE
  8
0
 10
4.598606153649598e-07
 20
-3.7024078369140625
 30
0.0
 11
-0.014997064135968685
 21
-3.6847083568573
 31
0.0
  0
LINE
  8
0
 10
-0.014997064135968685
 20
-3.6847083568573
 30
0.0
 11
-0.030145330354571342
 21
-3.667806386947632
 31
0.0
  0
LINE
  8
0
 10
-0.030145330354571342
 20
-3.667806386947632
 30
0.0
 11
-0.045505259186029434
 21
-3.651650905609131
 31
0.0
  0
LINE
  8
0
 10
-0.045505259186029434
 20
-3.651650905609131
 30
0.0
 11
-0.06113777682185173
 21
-3.636190414428711
 31
0.0
  0
LINE
  8
0
 10
-0.06113777682185173
 20
-3.636190414428711
 30
0.0
 11
-0.07710380107164383
 21
-3.6213736534118652
 31
0.0
  0
LINE
  8
0
 10
-0.07710380107164383
 20
-3.6213736534118652
 30
0.0
 11
-0.09346425533294678
 21
-3.607149600982666
 31
0.0
  0
LINE
  8
0
 10
-0.09346425533294678
 20
-3.607149600982666
 30
0.0
 11
-0.11028005927801132
 21
-3.5934667587280273
 31
0.0
  0
LINE
  8
0
 10
-0.11028005927801132
 20
-3.5934667587280273
 30
0.0
 11
-0.1276121288537979
 21
-3.5802741050720215
 31
0.0
  0
LINE
  8
0
 10
-0.1276121288537979
 20
-3.5802741050720215
 30
0.0
 11
-0.14552143216133118
 21
-3.5675203800201416
 31
0.0
  0
LINE
  8
0
 10
-0.14552143216133118
 20
-3.5675203800201416
 30
0.0
 11
-0.16406883299350739
 21
-3.5551540851593018
 31
0.0
  0
LINE
  8
0
 10
-0.16406883299350739
 20
-3.5551540851593018
 30
0.0
 11
-0.18331527709960938
 21
-3.543124198913574
 31
0.0
  0
LINE
  8
0
 10
-0.18331527709960938
 20
-3.543124198913574
 30
0.0
 11
-0.2033216953277588
 21
-3.5313796997070312
 31
0.0
  0
LINE
  8
0
 10
0.2033221423625946
 20
-3.5313796997070312
 30
0.0
 11
0.18331573903560638
 21
-3.5431244373321533
 31
0.0
  0
LINE
  8
0
 10
0.18331573903560638
 20
-3.5431244373321533
 30
0.0
 11
0.1640692949295044
 21
-3.555154323577881
 31
0.0
  0
LINE
  8
0
 10
0.1640692949295044
 20
-3.555154323577881
 30
0.0
 11
0.14552189409732819
 21
-3.5675206184387207
 31
0.0
  0
LINE
  8
0
 10
0.14552189409732819
 20
-3.5675206184387207
 30
0.0
 11
0.1276126354932785
 21
-3.5802743434906006
 31
0.0
  0
LINE
  8
0
 10
0.1276126354932785
 20
-3.5802743434906006
 30
0.0
 11
0.11028055101633072
 21
-3.5934669971466064
 31
0.0
  0
LINE
  8
0
 10
0.11028055101633072
 20
-3.5934669971466064
 30
0.0
 11
0.09346474707126617
 21
-3.607149600982666
 31
0.0
  0
LINE
  8
0
 10
0.09346474707126617
 20
-3.607149600982666
 30
0.0
 11
0.07710430026054382
 21
-3.6213736534118652
 31
0.0
  0
LINE
  8
0
 10
0.07710430026054382
 20
-3.6213736534118652
 30
0.0
 11
0.06113828346133232
 21
-3.636190176010132
 31
0.0
  0
LINE
  8
0
 10
0.06113828346133232
 20
-3.636190176010132
 30
0.0
 11
0.04550577327609062
 21
-3.6516506671905518
 31
0.0
  0
LINE
  8
0
 10
0.04550577327609062
 20
-3.6516506671905518
 30
0.0
 11
0.03014584630727768
 21
-3.6678061485290527
 31
0.0
  0
LINE
  8
0
 10
0.03014584630727768
 20
-3.6678061485290527
 30
0.0
 11
0.014997581019997597
 21
-3.6847081184387207
 31
0.0
  0
LINE
  8
0
 10
0.3329414427280426
 20
-3.6972815990448
 30
0.0
 11
0.3072301745414734
 21
-3.7138710021972656
 31
0.0
  0
LINE
  8
0
 10
-0.35887423157691956
 20
0.5555845499038696
 30
0.0
 11
-0.3674953579902649
 21
0.5493268370628357
 31
0.0
  0
LINE
  8
0
 10
0.20846451818943024
 20
-3.528061866760254
 30
0.0
 11
0.21310165524482727
 21
-3.524275064468384
 31
0.0
  0
LINE
  8
0
 10
0.21310165524482727
 20
-3.524275064468384
 30
0.0
 11
0.21721528470516205
 21
-3.5200653076171875
 31
0.0
  0
LINE
  8
0
 10
0.21721528470516205
 20
-3.5200653076171875
 30
0.0
 11
0.22078701853752136
 21
-3.5154786109924316
 31
0.0
  0
LINE
  8
0
 10
0.22078701853752136
 20
-3.5154786109924316
 30
0.0
 11
0.2237984538078308
 21
-3.5105607509613037
 31
0.0
  0
LINE
  8
0
 10
0.2237984538078308
 20
-3.5105607509613037
 30
0.0
 11
0.226231187582016
 21
-3.505357503890991
 31
0.0
  0
LINE
  8
0
 10
0.226231187582016
 20
-3.505357503890991
 30
0.0
 11
0.2280668318271637
 21
-3.4999148845672607
 31
0.0
  0
LINE
  8
0
 10
0.2280668318271637
 20
-3.4999148845672607
 30
0.0
 11
0.22928699851036072
 21
-3.4942786693573
 31
0.0
  0
LINE
  8
0
 10
0.22928699851036072
 20
-3.4942786693573
 30
0.0
 11
0.22987326979637146
 21
-3.488494873046875
 31
0.0
  0
LINE
  8
0
 10
0.22987326979637146
 20
-3.488494873046875
 30
0.0
 11
0.22980725765228271
 21
-3.482609272003174
 31
0.0
  0
LINE
  8
0
 10
0.22980725765228271
 20
-3.482609272003174
 30
0.0
 11
0.22907057404518127
 21
-3.476667881011963
 31
0.0
  0
LINE
  8
0
 10
0.22907057404518127
 20
-3.476667881011963
 30
0.0
 11
0.22764483094215393
 21
-3.470716714859009
 31
0.0
  0
LINE
  8
0
 10
-0.2749953269958496
 20
-1.3893200159072876
 30
0.0
 11
-0.2747644782066345
 21
-1.390749454498291
 31
0.0
  0
LINE
  8
0
 10
-0.04776336997747421
 20
-2.868671178817749
 30
0.0
 11
-0.041818711906671524
 21
-2.8473942279815674
 31
0.0
  0
LINE
  8
0
 10
-0.041818711906671524
 20
-2.8473942279815674
 30
0.0
 11
-0.03625371679663658
 21
-2.8264236450195312
 31
0.0
  0
LINE
  8
0
 10
-0.03625371679663658
 20
-2.8264236450195312
 30
0.0
 11
-0.031048666685819626
 21
-2.805666923522949
 31
0.0
  0
LINE
  8
0
 10
-0.031048666685819626
 20
-2.805666923522949
 30
0.0
 11
-0.02618384175002575
 21
-2.78503155708313
 31
0.0
  0
LINE
  8
0
 10
-0.02618384175002575
 20
-2.78503155708313
 30
0.0
 11
-0.021639518439769745
 21
-2.7644248008728027
 31
0.0
  0
LINE
  8
0
 10
-0.021639518439769745
 20
-2.7644248008728027
 30
0.0
 11
-0.017395978793501854
 21
-2.7437539100646973
 31
0.0
  0
LINE
  8
0
 10
-0.017395978793501854
 20
-2.7437539100646973
 30
0.0
 11
-0.01343349739909172
 21
-2.722926378250122
 31
0.0
  0
LINE
  8
0
 10
-0.01343349739909172
 20
-2.722926378250122
 30
0.0
 11
-0.00973235722631216
 21
-2.7018496990203857
 31
0.0
  0
LINE
  8
0
 10
-0.00973235722631216
 20
-2.7018496990203857
 30
0.0
 11
-0.006272836588323116
 21
-2.6804308891296387
 31
0.0
  0
LINE
  8
0
 10
-0.006272836588323116
 20
-2.6804308891296387
 30
0.0
 11
-0.0030352140311151743
 21
-2.6585776805877686
 31
0.0
  0
LINE
  8
0
 10
-0.0030352140311151743
 20
-2.6585776805877686
 30
0.0
 11
2.3444113139703404e-07
 21
-2.636197328567505
 31
0.0
  0
LINE
  8
0
 10
0.6584421992301941
 20
-0.06008167564868927
 30
0.0
 11
0.648652970790863
 21
-0.12673896551132202
 31
0.0
  0
LINE
  8
0
 10
0.003035563277080655
 20
-2.6585781574249268
 30
0.0
 11
0.006273175589740276
 21
-2.680431365966797
 31
0.0
  0
LINE
  8
0
 10
0.006273175589740276
 20
-2.680431365966797
 30
0.0
 11
0.009732674807310104
 21
-2.701849937438965
 31
0.0
  0
LINE
  8
0
 10
0.009732674807310104
 20
-2.701849937438965
 30
0.0
 11
0.013433784246444702
 21
-2.722926616668701
 31
0.0
  0
LINE
  8
0
 10
0.013433784246444702
 20
-2.722926616668701
 30
0.0
 11
0.0173962265253067
 21
-2.7437539100646973
 31
0.0
  0
LINE
  8
0
 10
0.0173962265253067
 20
-2.7437539100646973
 30
0.0
 11
0.02163972705602646
 21
-2.7644245624542236
 31
0.0
  0
LINE
  8
0
 10
0.02163972705602646
 20
-2.7644245624542236
 30
0.0
 11
0.02618400566279888
 21
-2.7850310802459717
 31
0.0
  0
LINE
  8
0
 10
0.02618400566279888
 20
-2.7850310802459717
 30
0.0
 11
0.031048789620399475
 21
-2.805666208267212
 31
0.0
  0
LINE
  8
0
 10
0.031048789620399475
 20
-2.805666208267212
 30
0.0
 11
0.03625379875302315
 21
-2.826422691345215
 31
0.0
  0
LINE
  8
0
 10
0.03625379875302315
 20
-2.826422691345215
 30
0.0
 11
0.041818760335445404
 21
-2.847393035888672
 31
0.0
  0
LINE
  8
0
 10
0.041818760335445404
 20
-2.847393035888672
 30
0.0
 11
0.0477633997797966
 21
-2.8686699867248535
 31
0.0
  0
LINE
  8
0
 10
0.0477633997797966
 20
-2.8686699867248535
 30
0.0
 11
0.054107435047626495
 21
-2.8903462886810303
 31
0.0
  0
LINE
  8
0
 10
0.3329414427280426
 20
-3.6972815990448
 30
0.0
 11
0.35612714290618896
 21
-3.6783478260040283
 31
0.0
  0
LINE
  8
0
 10
0.35612714290618896
 20
-3.6783478260040283
 30
0.0
 11
0.37669533491134644
 21
-3.657299280166626
 31
0.0
  0
LINE
  8
0
 10
0.37669533491134644
 20
-3.657299280166626
 30
0.0
 11
0.3945540189743042
 21
-3.6343655586242676
 31
0.0
  0
LINE
  8
0
 10
0.3945540189743042
 20
-3.6343655586242676
 30
0.0
 11
0.40961122512817383
 21
-3.609776020050049
 31
0.0
  0
LINE
  8
0
 10
0.40961122512817383
 20
-3.609776020050049
 30
0.0
 11
0.4217749536037445
 21
-3.5837600231170654
 31
0.0
  0
LINE
  8
0
 10
0.4217749536037445
 20
-3.5837600231170654
 30
0.0
 11
0.4309532046318054
 21
-3.556546926498413
 31
0.0
  0
LINE
  8
0
 10
0.4309532046318054
 20
-3.556546926498413
 30
0.0
 11
0.43705400824546814
 21
-3.5283663272857666
 31
0.0
  0
LINE
  8
0
 10
0.43705400824546814
 20
-3.5283663272857666
 30
0.0
 11
0.43998539447784424
 21
-3.4994475841522217
 31
0.0
  0
LINE
  8
0
 10
0.43998539447784424
 20
-3.4994475841522217
 30
0.0
 11
0.4396553635597229
 21
-3.470020055770874
 31
0.0
  0
LINE
  8
0
 10
0.4396553635597229
 20
-3.470020055770874
 30
0.0
 11
0.4359719157218933
 21
-3.4403131008148193
 31
0.0
  0
LINE
  8
0
 10
-0.43597152829170227
 20
-3.4403128623962402
 30
0.0
 11
-0.43965497612953186
 21
-3.470019817352295
 31
0.0
  0
LINE
  8
0
 10
-0.43965497612953186
 20
-3.470019817352295
 30
0.0
 11
-0.4399850368499756
 21
-3.4994473457336426
 31
0.0
  0
LINE
  8
0
 10
-0.4399850368499756
 20
-3.4994473457336426
 30
0.0
 11
-0.4370536804199219
 21
-3.5283660888671875
 31
0.0
  0
LINE
  8
0
 10
-0.4370536804199219
 20
-3.5283660888671875
 30
0.0
 11
-0.43095287680625916
 21
-3.556546688079834
 31
0.0
  0
LINE
  8
0
 10
-0.43095287680625916
 20
-3.556546688079834
 30
0.0
 11
-0.42177462577819824
 21
-3.5837597846984863
 31
0.0
  0
LINE
  8
0
 10
-0.42177462577819824
 20
-3.5837597846984863
 30
0.0
 11
-0.40961092710494995
 21
-3.6097757816314697
 31
0.0
  0
LINE
  8
0
 10
-0.40961092710494995
 20
-3.6097757816314697
 30
0.0
 11
-0.3945537507534027
 21
-3.6343653202056885
 31
0.0
  0
LINE
  8
0
 10
-0.3945537507534027
 20
-3.6343653202056885
 30
0.0
 11
-0.37669506669044495
 21
-3.657299041748047
 31
0.0
  0
LINE
  8
0
 10
-0.37669506669044495
 20
-3.657299041748047
 30
0.0
 11
-0.3561268746852875
 21
-3.678347587585449
 31
0.0
  0
LINE
  8
0
 10
-0.3561268746852875
 20
-3.678347587585449
 30
0.0
 11
-0.3329411745071411
 21
-3.6972813606262207
 31
0.0
  0
LINE
  8
0
 10
-0.3329411745071411
 20
-3.6972813606262207
 30
0.0
 11
-0.3072299659252167
 21
-3.7138712406158447
 31
0.0
  0
LINE
  8
0
 10
-0.04199981316924095
 20
-4.17009973526001
 30
0.0
 11
-0.04399217665195465
 21
-4.122121334075928
 31
0.0
  0
LINE
  8
0
 10
-0.04399217665195465
 20
-4.122121334075928
 30
0.0
 11
-0.04991452395915985
 21
-4.0754828453063965
 31
0.0
  0
LINE
  8
0
 10
-0.04991452395915985
 20
-4.0754828453063965
 30
0.0
 11
-0.05968477949500084
 21
-4.030325889587402
 31
0.0
  0
LINE
  8
0
 10
-0.05968477949500084
 20
-4.030325889587402
 30
0.0
 11
-0.0732208639383316
 21
-3.9867916107177734
 31
0.0
  0
LINE
  8
0
 10
-0.0732208639383316
 20
-3.9867916107177734
 30
0.0
 11
-0.09044069051742554
 21
-3.945020914077759
 31
0.0
  0
LINE
  8
0
 10
-0.09044069051742554
 20
-3.945020914077759
 30
0.0
 11
-0.11126218736171722
 21
-3.9051551818847656
 31
0.0
  0
LINE
  8
0
 10
-0.11126218736171722
 20
-3.9051551818847656
 30
0.0
 11
-0.13560327887535095
 21
-3.867335557937622
 31
0.0
  0
LINE
  8
0
 10
-0.13560327887535095
 20
-3.867335557937622
 30
0.0
 11
-0.16338187456130981
 21
-3.8317031860351562
 31
0.0
  0
LINE
  8
0
 10
-0.16338187456130981
 20
-3.8317031860351562
 30
0.0
 11
-0.1945158988237381
 21
-3.7983994483947754
 31
0.0
  0
LINE
  8
0
 10
-0.1945158988237381
 20
-3.7983994483947754
 30
0.0
 11
-0.2289232760667801
 21
-3.7675654888153076
 31
0.0
  0
LINE
  8
0
 10
-0.2289232760667801
 20
-3.7675654888153076
 30
0.0
 11
-0.2665219306945801
 21
-3.739342212677002
 31
0.0
  0
LINE
  8
0
 10
0.2368069291114807
 20
-1.6903289556503296
 30
0.0
 11
0.2533262372016907
 21
-1.5418890714645386
 31
0.0
  0
LINE
  8
0
 10
0.3072301745414734
 20
-3.7138710021972656
 30
0.0
 11
0.2665223479270935
 21
-3.739342212677002
 31
0.0
  0
LINE
  8
0
 10
0.2665223479270935
 20
-3.739342212677002
 30
0.0
 11
0.2289237231016159
 21
-3.7675654888153076
 31
0.0
  0
LINE
  8
0
 10
0.2289237231016159
 20
-3.7675654888153076
 30
0.0
 11
0.1945163458585739
 21
-3.7983996868133545
 31
0.0
  0
LINE
  8
0
 10
0.1945163458585739
 20
-3.7983996868133545
 30
0.0
 11
0.16338230669498444
 21
-3.8317034244537354
 31
0.0
  0
LINE
  8
0
 10
0.16338230669498444
 20
-3.8317034244537354
 30
0.0
 11
0.13560369610786438
 21
-3.867335796356201
 31
0.0
  0
LINE
  8
0
 10
0.13560369610786438
 20
-3.867335796356201
 30
0.0
 11
0.11126261204481125
 21
-3.9051554203033447
 31
0.0
  0
LINE
  8
0
 10
0.11126261204481125
 20
-3.9051554203033447
 30
0.0
 11
0.09044110774993896
 21
-3.945021152496338
 31
0.0
  0
LINE
  8
0
 10
0.09044110774993896
 20
-3.945021152496338
 30
0.0
 11
0.07322127372026443
 21
-3.9867918491363525
 31
0.0
  0
LINE
  8
0
 10
0.07322127372026443
 20
-3.9867918491363525
 30
0.0
 11
0.05968519672751427
 21
-4.0303263664245605
 31
0.0
  0
LINE
  8
0
 10
0.05968519672751427
 20
-4.0303263664245605
 30
0.0
 11
0.049914952367544174
 21
-4.075483322143555
 31
0.0
  0
LINE
  8
0
 10
0.049914952367544174
 20
-4.075483322143555
 30
0.0
 11
0.04399261623620987
 21
-4.122121810913086
 31
0.0
  0
LINE
  8
0
 10
-0.3467143476009369
 20
-3.135889768600464
 30
0.0
 11
-0.31290674209594727
 21
-2.987025260925293
 31
0.0
  0
LINE
  8
0
 10
-0.31290674209594727
 20
-2.987025260925293
 30
0.0
 11
-0.28422439098358154
 21
-2.840449094772339
 31
0.0
  0
LINE
  8
0
 10
-0.28422439098358154
 20
-2.840449094772339
 30
0.0
 11
-0.2606467306613922
 21
-2.695662260055542
 31
0.0
  0
LINE
  8
0
 10
-0.2606467306613922
 20
-2.695662260055542
 30
0.0
 11
-0.24215321242809296
 21
-2.5521657466888428
 31
0.0
  0
LINE
  8
0
 10
-0.24215321242809296
 20
-2.5521657466888428
 30
0.0
 11
-0.22872324287891388
 21
-2.4094603061676025
 31
0.0
  0
LINE
  8
0
 10
-0.22872324287891388
 20
-2.4094603061676025
 30
0.0
 11
-0.22033624351024628
 21
-2.2670469284057617
 31
0.0
  0
LINE
  8
0
 10
-0.22033624351024628
 20
-2.2670469284057617
 30
0.0
 11
-0.21697165071964264
 21
-2.1244263648986816
 31
0.0
  0
LINE
  8
0
 10
-0.21697165071964264
 20
-2.1244263648986816
 30
0.0
 11
-0.21860887110233307
 21
-1.9810997247695923
 31
0.0
  0
LINE
  8
0
 10
-0.21860887110233307
 20
-1.9810997247695923
 30
0.0
 11
-0.22522735595703125
 21
-1.8365678787231445
 31
0.0
  0
LINE
  8
0
 10
-0.22522735595703125
 20
-1.8365678787231445
 30
0.0
 11
-0.2368064969778061
 21
-1.6903315782546997
 31
0.0
  0
LINE
  8
0
 10
-0.2368064969778061
 20
-1.6903315782546997
 30
0.0
 11
-0.25332576036453247
 21
-1.5418918132781982
 31
0.0
  0
LINE
  8
0
 10
-0.25332576036453247
 20
-1.5418918132781982
 30
0.0
 11
-0.2747644782066345
 21
-1.390749454498291
 31
0.0
  0
LINE
  8
0
 10
0.01695762202143669
 20
-1.1819367408752441
 30
0.0
 11
0.03322307765483856
 21
-1.1852617263793945
 31
0.0
  0
LINE
  8
0
 10
0.03322307765483856
 20
-1.1852617263793945
 30
0.0
 11
0.04864727705717087
 21
-1.1906211376190186
 31
0.0
  0
LINE
  8
0
 10
0.04864727705717087
 20
-1.1906211376190186
 30
0.0
 11
0.06308107823133469
 21
-1.1978658437728882
 31
0.0
  0
LINE
  8
0
 10
0.06308107823133469
 20
-1.1978658437728882
 30
0.0
 11
0.0763753354549408
 21
-1.2068465948104858
 31
0.0
  0
LINE
  8
0
 10
0.0763753354549408
 20
-1.2068465948104858
 30
0.0
 11
0.08838091045618057
 21
-1.217414379119873
 31
0.0
  0
LINE
  8
0
 10
0.08838091045618057
 20
-1.217414379119873
 30
0.0
 11
0.09894866496324539
 21
-1.2294199466705322
 31
0.0
  0
LINE
  8
0
 10
0.09894866496324539
 20
-1.2294199466705322
 30
0.0
 11
0.10792944580316544
 21
-1.2427141666412354
 31
0.0
  0
LINE
  8
0
 10
0.10792944580316544
 20
-1.2427141666412354
 30
0.0
 11
0.11517411470413208
 21
-1.257148027420044
 31
0.0
  0
LINE
  8
0
 10
0.11517411470413208
 20
-1.257148027420044
 30
0.0
 11
0.1205335333943367
 21
-1.2725722789764404
 31
0.0
  0
LINE
  8
0
 10
0.1205335333943367
 20
-1.2725722789764404
 30
0.0
 11
0.12385856360197067
 21
-1.2888376712799072
 31
0.0
  0
LINE
  8
0
 10
0.12385856360197067
 20
-1.2888376712799072
 30
0.0
 11
0.12500005960464478
 21
-1.3057953119277954
 31
0.0
  0
LINE
  8
0
 10
0.12500005960464478
 20
-1.3057953119277954
 30
0.0
 11
0.12385857850313187
 21
-1.322752833366394
 31
0.0
  0
LINE
  8
0
 10
0.12385857850313187
 20
-1.322752833366394
 30
0.0
 11
0.12053355574607849
 21
-1.3390183448791504
 31
0.0
  0
LINE
  8
0
 10
0.12053355574607849
 20
-1.3390183448791504
 30
0.0
 11
0.11517413705587387
 21
-1.3544425964355469
 31
0.0
  0
LINE
  8
0
 10
0.11517413705587387
 20
-1.3544425964355469
 30
0.0
 11
0.10792946815490723
 21
-1.3688764572143555
 31
0.0
  0
LINE
  8
0
 10
0.10792946815490723
 20
-1.3688764572143555
 30
0.0
 11
0.09894868731498718
 21
-1.3821706771850586
 31
0.0
  0
LINE
  8
0
 10
0.09894868731498718
 20
-1.3821706771850586
 30
0.0
 11
0.08838093280792236
 21
-1.3941762447357178
 31
0.0
  0
LINE
  8
0
 10
0.08838093280792236
 20
-1.3941762447357178
 30
0.0
 11
0.07637535780668259
 21
-1.404744029045105
 31
0.0
  0
LINE
  8
0
 10
0.07637535780668259
 20
-1.404744029045105
 30
0.0
 11
0.06308109313249588
 21
-1.4137247800827026
 31
0.0
  0
LINE
  8
0
 10
0.06308109313249588
 20
-1.4137247800827026
 30
0.0
 11
0.04864729568362236
 21
-1.4209694862365723
 31
0.0
  0
LINE
  8
0
 10
0.04864729568362236
 20
-1.4209694862365723
 30
0.0
 11
0.033223092555999756
 21
-1.4263288974761963
 31
0.0
  0
LINE
  8
0
 10
0.033223092555999756
 20
-1.4263288974761963
 30
0.0
 11
0.016957633197307587
 21
-1.4296538829803467
 31
0.0
  0
LINE
  8
0
 10
0.016957633197307587
 20
-1.4296538829803467
 30
0.0
 11
6.254204976130495e-08
 21
-1.4307953119277954
 31
0.0
  0
LINE
  8
0
 10
6.254204976130495e-08
 20
-1.4307953119277954
 30
0.0
 11
-0.01695750653743744
 21
-1.4296538829803467
 31
0.0
  0
LINE
  8
0
 10
-0.01695750653743744
 20
-1.4296538829803467
 30
0.0
 11
-0.03322296217083931
 21
-1.4263288974761963
 31
0.0
  0
LINE
  8
0
 10
-0.03322296217083931
 20
-1.4263288974761963
 30
0.0
 11
-0.048647161573171616
 21
-1.4209694862365723
 31
0.0
  0
LINE
  8
0
 10
-0.048647161573171616
 20
-1.4209694862365723
 30
0.0
 11
-0.06308096647262573
 21
-1.4137247800827026
 31
0.0
  0
LINE
  8
0
 10
-0.06308096647262573
 20
-1.4137247800827026
 30
0.0
 11
-0.07637522369623184
 21
-1.404744029045105
 31
0.0
  0
LINE
  8
0
 10
-0.07637522369623184
 20
-1.404744029045105
 30
0.0
 11
-0.08838079869747162
 21
-1.3941762447357178
 31
0.0
  0
LINE
  8
0
 10
-0.08838079869747162
 20
-1.3941762447357178
 30
0.0
 11
-0.09894855320453644
 21
-1.3821706771850586
 31
0.0
  0
LINE
  8
0
 10
-0.09894855320453644
 20
-1.3821706771850586
 30
0.0
 11
-0.10792933404445648
 21
-1.3688764572143555
 31
0.0
  0
LINE
  8
0
 10
-0.10792933404445648
 20
-1.3688764572143555
 30
0.0
 11
-0.11517400294542313
 21
-1.3544425964355469
 31
0.0
  0
LINE
  8
0
 10
-0.11517400294542313
 20
-1.3544425964355469
 30
0.0
 11
-0.12053342163562775
 21
-1.3390183448791504
 31
0.0
  0
LINE
  8
0
 10
-0.12053342163562775
 20
-1.3390183448791504
 30
0.0
 11
-0.12385844439268112
 21
-1.3227529525756836
 31
0.0
  0
LINE
  8
0
 10
-0.12385844439268112
 20
-1.3227529525756836
 30
0.0
 11
-0.12499994039535522
 21
-1.3057953119277954
 31
0.0
  0
LINE
  8
0
 10
-0.12499994039535522
 20
-1.3057953119277954
 30
0.0
 11
-0.12385845929384232
 21
-1.2888377904891968
 31
0.0
  0
LINE
  8
0
 10
-0.12385845929384232
 20
-1.2888377904891968
 30
0.0
 11
-0.12053344398736954
 21
-1.2725722789764404
 31
0.0
  0
LINE
  8
0
 10
-0.12053344398736954
 20
-1.2725722789764404
 30
0.0
 11
-0.11517402529716492
 21
-1.257148027420044
 31
0.0
  0
LINE
  8
0
 10
-0.11517402529716492
 20
-1.257148027420044
 30
0.0
 11
-0.10792935639619827
 21
-1.2427141666412354
 31
0.0
  0
LINE
  8
0
 10
-0.10792935639619827
 20
-1.2427141666412354
 30
0.0
 11
-0.09894857555627823
 21
-1.2294199466705322
 31
0.0
  0
LINE
  8
0
 10
-0.09894857555627823
 20
-1.2294199466705322
 30
0.0
 11
-0.08838082104921341
 21
-1.217414379119873
 31
0.0
  0
LINE
  8
0
 10
-0.08838082104921341
 20
-1.217414379119873
 30
0.0
 11
-0.07637524604797363
 21
-1.2068465948104858
 31
0.0
  0
LINE
  8
0
 10
-0.07637524604797363
 20
-1.2068465948104858
 30
0.0
 11
-0.06308098137378693
 21
-1.1978658437728882
 31
0.0
  0
LINE
  8
0
 10
-0.06308098137378693
 20
-1.1978658437728882
 30
0.0
 11
-0.04864718019962311
 21
-1.1906211376190186
 31
0.0
  0
LINE
  8
0
 10
-0.04864718019962311
 20
-1.1906211376190186
 30
0.0
 11
-0.033222977072000504
 21
-1.1852617263793945
 31
0.0
  0
LINE
  8
0
 10
-0.033222977072000504
 20
-1.1852617263793945
 30
0.0
 11
-0.016957517713308334
 21
-1.1819367408752441
 31
0.0
  0
LINE
  8
0
 10
0.31199997663497925
 20
0.8326722383499146
 30
0.0
 11
0.3117261230945587
 21
0.8367430567741394
 31
0.0
  0
LINE
  8
0
 10
0.3117261230945587
 20
0.8367430567741394
 30
0.0
 11
0.3109283447265625
 21
0.8406473994255066
 31
0.0
  0
LINE
  8
0
 10
0.3109283447265625
 20
0.8406473994255066
 30
0.0
 11
0.3096424341201782
 21
0.8443495631217957
 31
0.0
  0
LINE
  8
0
 10
0.3096424341201782
 20
0.8443495631217957
 30
0.0
 11
0.30790409445762634
 21
0.8478137850761414
 31
0.0
  0
LINE
  8
0
 10
0.30790409445762634
 20
0.8478137850761414
 30
0.0
 11
0.3057490885257721
 21
0.8510043025016785
 31
0.0
  0
LINE
  8
0
 10
0.3057490885257721
 20
0.8510043025016785
 30
0.0
 11
0.3032131791114807
 21
0.8538854122161865
 31
0.0
  0
LINE
  8
0
 10
0.3032131791114807
 20
0.8538854122161865
 30
0.0
 11
0.30033206939697266
 21
0.8564213514328003
 31
0.0
  0
LINE
  8
0
 10
0.30033206939697266
 20
0.8564213514328003
 30
0.0
 11
0.29714155197143555
 21
0.8585763573646545
 31
0.0
  0
LINE
  8
0
 10
0.29714155197143555
 20
0.8585763573646545
 30
0.0
 11
0.29367733001708984
 21
0.860314667224884
 31
0.0
  0
LINE
  8
0
 10
0.29367733001708984
 20
0.860314667224884
 30
0.0
 11
0.2899751663208008
 21
0.8616005778312683
 31
0.0
  0
LINE
  8
0
 10
0.2899751663208008
 20
0.8616005778312683
 30
0.0
 11
0.2860707938671112
 21
0.8623983263969421
 31
0.0
  0
LINE
  8
0
 10
0.2860707938671112
 20
0.8623983263969421
 30
0.0
 11
0.28199997544288635
 21
0.8626722097396851
 31
0.0
  0
LINE
  8
0
 10
0.28199997544288635
 20
0.912672221660614
 30
0.0
 11
0.2860707938671112
 21
0.9129461050033569
 31
0.0
  0
LINE
  8
0
 10
0.2860707938671112
 20
0.9129461050033569
 30
0.0
 11
0.2899751663208008
 21
0.9137438535690308
 31
0.0
  0
LINE
  8
0
 10
0.2899751663208008
 20
0.9137438535690308
 30
0.0
 11
0.29367733001708984
 21
0.915029764175415
 31
0.0
  0
LINE
  8
0
 10
0.29367733001708984
 20
0.915029764175415
 30
0.0
 11
0.29714155197143555
 21
0.9167680740356445
 31
0.0
  0
LINE
  8
0
 10
0.29714155197143555
 20
0.9167680740356445
 30
0.0
 11
0.30033206939697266
 21
0.9189230799674988
 31
0.0
  0
LINE
  8
0
 10
0.30033206939697266
 20
0.9189230799674988
 30
0.0
 11
0.3032131791114807
 21
0.9214590191841125
 31
0.0
  0
LINE
  8
0
 10
0.3032131791114807
 20
0.9214590191841125
 30
0.0
 11
0.3057490885257721
 21
0.9243401288986206
 31
0.0
  0
LINE
  8
0
 10
0.3057490885257721
 20
0.9243401288986206
 30
0.0
 11
0.30790409445762634
 21
0.9275306463241577
 31
0.0
  0
LINE
  8
0
 10
0.30790409445762634
 20
0.9275306463241577
 30
0.0
 11
0.3096424341201782
 21
0.9309948682785034
 31
0.0
  0
LINE
  8
0
 10
0.3096424341201782
 20
0.9309948682785034
 30
0.0
 11
0.3109283447265625
 21
0.9346970319747925
 31
0.0
  0
LINE
  8
0
 10
0.3109283447265625
 20
0.9346970319747925
 30
0.0
 11
0.3117261230945587
 21
0.9386013746261597
 31
0.0
  0
LINE
  8
0
 10
0.3117261230945587
 20
0.9386013746261597
 30
0.0
 11
0.31199997663497925
 21
0.9426721930503845
 31
0.0
  0
LINE
  8
0
 10
0.31199997663497925
 20
1.0076721906661987
 30
0.0
 11
0.3117261230945587
 21
1.0117430686950684
 31
0.0
  0
LINE
  8
0
 10
0.3117261230945587
 20
1.0117430686950684
 30
0.0
 11
0.3109283447265625
 21
1.0156474113464355
 31
0.0
  0
LINE
  8
0
 10
0.3109283447265625
 20
1.0156474113464355
 30
0.0
 11
0.3096424341201782
 21
1.0193495750427246
 31
0.0
  0
LINE
  8
0
 10
0.3096424341201782
 20
1.0193495750427246
 30
0.0
 11
0.30790406465530396
 21
1.0228137969970703
 31
0.0
  0
LINE
  8
0
 10
0.30790406465530396
 20
1.0228137969970703
 30
0.0
 11
0.3057490587234497
 21
1.0260043144226074
 31
0.0
  0
LINE
  8
0
 10
0.3057490587234497
 20
1.0260043144226074
 30
0.0
 11
0.3032131493091583
 21
1.0288853645324707
 31
0.0
  0
LINE
  8
0
 10
0.3032131493091583
 20
1.0288853645324707
 30
0.0
 11
0.30033203959465027
 21
1.0314213037490845
 31
0.0
  0
LINE
  8
0
 10
0.30033203959465027
 20
1.0314213037490845
 30
0.0
 11
0.29714152216911316
 21
1.033576250076294
 31
0.0
  0
LINE
  8
0
 10
0.29714152216911316
 20
1.033576250076294
 30
0.0
 11
0.29367730021476746
 21
1.0353145599365234
 31
0.0
  0
LINE
  8
0
 10
0.29367730021476746
 20
1.0353145599365234
 30
0.0
 11
0.2899751365184784
 21
1.0366004705429077
 31
0.0
  0
LINE
  8
0
 10
0.2899751365184784
 20
1.0366004705429077
 30
0.0
 11
0.2860707640647888
 21
1.0373982191085815
 31
0.0
  0
LINE
  8
0
 10
0.2860707640647888
 20
1.0373982191085815
 30
0.0
 11
0.28199994564056396
 21
1.0376721620559692
 31
0.0
  0
LINE
  8
0
 10
-0.2820000648498535
 20
1.0376721620559692
 30
0.0
 11
-0.28607088327407837
 21
1.037398338317871
 31
0.0
  0
LINE
  8
0
 10
-0.28607088327407837
 20
1.037398338317871
 30
0.0
 11
-0.28997525572776794
 21
1.0366005897521973
 31
0.0
  0
LINE
  8
0
 10
-0.28997525572776794
 20
1.0366005897521973
 30
0.0
 11
-0.293677419424057
 21
1.035314679145813
 31
0.0
  0
LINE
  8
0
 10
-0.293677419424057
 20
1.035314679145813
 30
0.0
 11
-0.2971416413784027
 21
1.0335763692855835
 31
0.0
  0
LINE
  8
0
 10
-0.2971416413784027
 20
1.0335763692855835
 30
0.0
 11
-0.3003321588039398
 21
1.031421422958374
 31
0.0
  0
LINE
  8
0
 10
-0.3003321588039398
 20
1.031421422958374
 30
0.0
 11
-0.3032132685184479
 21
1.0288854837417603
 31
0.0
  0
LINE
  8
0
 10
-0.3032132685184479
 20
1.0288854837417603
 30
0.0
 11
-0.30574917793273926
 21
1.026004433631897
 31
0.0
  0
LINE
  8
0
 10
-0.30574917793273926
 20
1.026004433631897
 30
0.0
 11
-0.3079041838645935
 21
1.0228139162063599
 31
0.0
  0
LINE
  8
0
 10
-0.3079041838645935
 20
1.0228139162063599
 30
0.0
 11
-0.309642493724823
 21
1.0193496942520142
 31
0.0
  0
LINE
  8
0
 10
-0.309642493724823
 20
1.0193496942520142
 30
0.0
 11
-0.3109284043312073
 21
1.015647530555725
 31
0.0
  0
LINE
  8
0
 10
-0.3109284043312073
 20
1.015647530555725
 30
0.0
 11
-0.3117261826992035
 21
1.011743187904358
 31
0.0
  0
LINE
  8
0
 10
-0.3117261826992035
 20
1.011743187904358
 30
0.0
 11
-0.312000036239624
 21
1.0076721906661987
 31
0.0
  0
LINE
  8
0
 10
-0.312000036239624
 20
0.9426721930503845
 30
0.0
 11
-0.3117261826992035
 21
0.9386013746261597
 31
0.0
  0
LINE
  8
0
 10
-0.3117261826992035
 20
0.9386013746261597
 30
0.0
 11
-0.3109284043312073
 21
0.9346970319747925
 31
0.0
  0
LINE
  8
0
 10
-0.3109284043312073
 20
0.9346970319747925
 30
0.0
 11
-0.309642493724823
 21
0.9309948682785034
 31
0.0
  0
LINE
  8
0
 10
-0.309642493724823
 20
0.9309948682785034
 30
0.0
 11
-0.3079041540622711
 21
0.9275306463241577
 31
0.0
  0
LINE
  8
0
 10
-0.3079041540622711
 20
0.9275306463241577
 30
0.0
 11
-0.30574914813041687
 21
0.9243401288986206
 31
0.0
  0
LINE
  8
0
 10
-0.30574914813041687
 20
0.9243401288986206
 30
0.0
 11
-0.3032132387161255
 21
0.9214590191841125
 31
0.0
  0
LINE
  8
0
 10
-0.3032132387161255
 20
0.9214590191841125
 30
0.0
 11
-0.30033212900161743
 21
0.9189230799674988
 31
0.0
  0
LINE
  8
0
 10
-0.30033212900161743
 20
0.9189230799674988
 30
0.0
 11
-0.2971416115760803
 21
0.9167680740356445
 31
0.0
  0
LINE
  8
0
 10
-0.2971416115760803
 20
0.9167680740356445
 30
0.0
 11
-0.2936773896217346
 21
0.915029764175415
 31
0.0
  0
LINE
  8
0
 10
-0.2936773896217346
 20
0.915029764175415
 30
0.0
 11
-0.28997522592544556
 21
0.9137438535690308
 31
0.0
  0
LINE
  8
0
 10
-0.28997522592544556
 20
0.9137438535690308
 30
0.0
 11
-0.286070853471756
 21
0.9129461050033569
 31
0.0
  0
LINE
  8
0
 10
-0.286070853471756
 20
0.9129461050033569
 30
0.0
 11
-0.28200003504753113
 21
0.912672221660614
 31
0.0
  0
LINE
  8
0
 10
-0.28200003504753113
 20
0.8626722097396851
 30
0.0
 11
-0.286070853471756
 21
0.8623983263969421
 31
0.0
  0
LINE
  8
0
 10
-0.286070853471756
 20
0.8623983263969421
 30
0.0
 11
-0.28997522592544556
 21
0.8616005778312683
 31
0.0
  0
LINE
  8
0
 10
-0.28997522592544556
 20
0.8616005778312683
 30
0.0
 11
-0.2936773896217346
 21
0.860314667224884
 31
0.0
  0
LINE
  8
0
 10
-0.2936773896217346
 20
0.860314667224884
 30
0.0
 11
-0.2971416115760803
 21
0.8585763573646545
 31
0.0
  0
LINE
  8
0
 10
-0.2971416115760803
 20
0.8585763573646545
 30
0.0
 11
-0.30033212900161743
 21
0.8564213514328003
 31
0.0
  0
LINE
  8
0
 10
-0.30033212900161743
 20
0.8564213514328003
 30
0.0
 11
-0.3032132387161255
 21
0.8538854122161865
 31
0.0
  0
LINE
  8
0
 10
-0.3032132387161255
 20
0.8538854122161865
 30
0.0
 11
-0.30574914813041687
 21
0.8510043025016785
 31
0.0
  0
LINE
  8
0
 10
-0.30574914813041687
 20
0.8510043025016785
 30
0.0
 11
-0.3079041540622711
 21
0.8478137850761414
 31
0.0
  0
LINE
  8
0
 10
-0.3079041540622711
 20
0.8478137850761414
 30
0.0
 11
-0.309642493724823
 21
0.8443495631217957
 31
0.0
  0
LINE
  8
0
 10
-0.309642493724823
 20
0.8443495631217957
 30
0.0
 11
-0.3109284043312073
 21
0.8406473994255066
 31
0.0
  0
LINE
  8
0
 10
-0.3109284043312073
 20
0.8406473994255066
 30
0.0
 11
-0.3117261826992035
 21
0.8367430567741394
 31
0.0
  0
LINE
  8
0
 10
-0.3117261826992035
 20
0.8367430567741394
 30
0.0
 11
-0.312000036239624
 21
0.8326722383499146
 31
0.0
  0
LINE
  8
0
 10
0.31199997663497925
 20
0.6532210111618042
 30
0.0
 11
0.31199997663497925
 21
0.8326719999313354
 31
0.0
  0
LINE
  8
0
 10
-0.28200003504753113
 20
0.862671971321106
 30
0.0
 11
-0.26200002431869507
 21
0.862671971321106
 31
0.0
  0
LINE
  8
0
 10
-0.312000036239624
 20
0.6532210111618042
 30
0.0
 11
-0.312000036239624
 21
0.8326719999313354
 31
0.0
  0
LINE
  8
0
 10
-0.26200002431869507
 20
0.862671971321106
 30
0.0
 11
-0.26200002431869507
 21
0.9126719832420349
 31
0.0
  0
LINE
  8
0
 10
0.2619999647140503
 20
0.862671971321106
 30
0.0
 11
0.2619999647140503
 21
0.9126719832420349
 31
0.0
  0
LINE
  8
0
 10
-0.22764484584331512
 20
-3.470716953277588
 30
0.0
 11
-0.05410687252879143
 21
-2.890346050262451
 31
0.0
  0
LINE
  8
0
 10
-0.01499994844198227
 20
-1.1818053722381592
 30
0.0
 11
-0.014999988488852978
 21
-0.25056034326553345
 31
0.0
  0
LINE
  8
0
 10
0.015000050887465477
 20
-1.181804895401001
 30
0.0
 11
0.015000010840594769
 21
-0.25055992603302
 31
0.0
  0
LINE
  8
0
 10
0.2747650742530823
 20
-1.3907467126846313
 30
0.0
 11
0.2533262372016907
 21
-1.5418890714645386
 31
0.0
  0
LINE
  8
0
 10
0.2747650742530823
 20
-1.3907467126846313
 30
0.0
 11
0.27842506766319275
 21
-1.3745180368423462
 31
0.0
  0
LINE
  8
0
 10
-0.04199981689453125
 20
-4.181544780731201
 30
0.0
 11
0.0420001819729805
 21
-4.181544780731201
 31
0.0
  0
LINE
  8
0
 10
0.0420001819729805
 20
-4.181544780731201
 30
0.0
 11
0.0420001819729805
 21
-4.170100212097168
 31
0.0
  0
LINE
  8
0
 10
0.31199997663497925
 20
0.9426720142364502
 30
0.0
 11
0.31199997663497925
 21
1.0076719522476196
 31
0.0
  0
LINE
  8
0
 10
-0.312000036239624
 20
0.9426720142364502
 30
0.0
 11
-0.312000036239624
 21
1.0076719522476196
 31
0.0
  0
LINE
  8
0
 10
0.014999988488852978
 20
0.24899043142795563
 30
0.0
 11
0.014999954029917717
 21
1.0376713275909424
 31
0.0
  0
LINE
  8
0
 10
-0.015000010840594769
 20
0.2489902526140213
 30
0.0
 11
-0.01500004529953003
 21
1.0376710891723633
 31
0.0
  0
LINE
  8
0
 10
0.3588741421699524
 20
0.5555845499038696
 30
0.0
 11
0.36749541759490967
 21
0.5493267178535461
 31
0.0
  0
LINE
  8
0
 10
0.27842506766319275
 20
-1.3745180368423462
 30
0.0
 11
0.648652970790863
 21
-0.12673896551132202
 31
0.0
  0
LINE
  8
0
 10
-0.22907030582427979
 20
-3.476668119430542
 30
0.0
 11
-0.22764484584331512
 21
-3.470716953277588
 31
0.0
  0
LINE
  8
0
 10
-0.20846423506736755
 20
-3.528062105178833
 30
0.0
 11
-0.2033216953277588
 21
-3.5313796997070312
 31
0.0
  0
LINE
  8
0
 10
4.598606153649598e-07
 20
-3.7024078369140625
 30
0.0
 11
0.014997581019997597
 21
-3.6847081184387207
 31
0.0
  0
LINE
  8
0
 10
0.2033221423625946
 20
-3.5313796997070312
 30
0.0
 11
0.20846451818943024
 21
-3.528061866760254
 31
0.0
  0
LINE
  8
0
 10
-0.04776336997747421
 20
-2.868671178817749
 30
0.0
 11
-0.05410687252879143
 21
-2.890346050262451
 31
0.0
  0
LINE
  8
0
 10
2.3444113139703404e-07
 20
-2.636197328567505
 30
0.0
 11
0.003035563277080655
 21
-2.6585781574249268
 31
0.0
  0
LINE
  8
0
 10
0.22764483094215393
 20
-3.470716714859009
 30
0.0
 11
0.054107435047626495
 21
-2.8903462886810303
 31
0.0
  0
LINE
  8
0
 10
-0.3072299659252167
 20
-3.7138712406158447
 30
0.0
 11
-0.2665219306945801
 21
-3.739342212677002
 31
0.0
  0
LINE
  8
0
 10
0.04399261623620987
 20
-4.122121810913086
 30
0.0
 11
0.0420001819729805
 21
-4.170100212097168
 31
0.0
  0
LINE
  8
0
 10
0.34671416878700256
 20
-3.1358890533447266
 30
0.0
 11
0.4288431406021118
 21
-3.4105560779571533
 31
0.0
  0
LINE
  8
0
 10
-0.3467143476009369
 20
-3.135889768600464
 30
0.0
 11
-0.42884284257888794
 21
-3.4105560779571533
 31
0.0
  0
LINE
  8
0
 10
-0.04199981316924095
 20
-4.17009973526001
 30
0.0
 11
-0.04199981689453125
 21
-4.181544780731201
 31
0.0
  0
LINE
  8
0
 10
-0.278425395488739
 20
-1.3745181560516357
 30
0.0
 11
-0.6486524939537048
 21
-0.12673859298229218
 31
0.0
  0
LINE
  8
0
 10
0.28199997544288635
 20
0.9126719832420349
 30
0.0
 11
0.2619999647140503
 21
0.9126719832420349
 31
0.0
  0
LINE
  8
0
 10
0.03391512855887413
 20
0.24771703779697418
 30
0.0
 11
0.014999988488852978
 21
0.24899043142795563
 31
0.0
  0
LINE
  8
0
 10
-0.03391512855887413
 20
-0.24771703779697418
 30
0.0
 11
-0.014999988488852978
 21
-0.25056034326553345
 31
0.0
  0
LINE
  8
0
 10
0.014999954029917717
 20
1.0376713275909424
 30
0.0
 11
0.28199994564056396
 21
1.0376720428466797
 31
0.0
  0
LINE
  8
0
 10
-0.016957517713308334
 20
-1.1819367408752441
 30
0.0
 11
-0.01499994844198227
 21
-1.1818053722381592
 31
0.0
  0
LINE
  8
0
 10
0.01695762202143669
 20
-1.1819367408752441
 30
0.0
 11
0.015000050887465477
 21
-1.181804895401001
 31
0.0
  0
ENDSEC
  0
EOF
