  0
SECTION
  2
HEADER
  9
$ACADVER
  1
AC1009
  9
$INSBASE
 10
0.0
 20
0.0
 30
0.0
  9
$EXTMIN
 10
0.0
 20
0.0
 30
0.0
  9
$EXTMAX
 10
0.0
 20
0.0
 30
0.0
  0
ENDSEC
  0
SECTION
  2
TABLES
  0
TABLE
  2
VPORT
 70
1
  0
VPORT
  2
*ACTIVE
 70
0
 10
0.0
 20
0.0
 11
1.0
 21
1.0
 12
-5.0
 22
1.0
 13
0.0
 23
0.0
 14
0.1
 24
0.1
 15
0.1
 25
0.1
 16
0.0
 26
0.0
 36
1.0
 17
0.0
 27
0.0
 37
0.0
 40
10.0
 41
1.0
 42
50.0
 43
0.0
 44
0.0
 50
0.0
 51
0.0
 71
0
 72
100
 73
1
 74
1
 75
0
 76
0
 77
0
 78
0
  0
ENDTAB
  0
TABLE
  2
LTYPE
 70
8
  0
LTYPE
  2
CONTINUOUS
 70
0
  3
Solid line
 72
65
 73
0
 40
0.0
  0
LTYPE
  2
DOT
 70
0
  3
. . . . . . .
 72
65
 73
2
 40
0.25
 49
0.0
 49
-0.25
  0
LTYPE
  2
DASHED
 70
0
  3
__ __ __ __ __
 72
65
 73
2
 40
0.8
 49
0.5
 49
-0.3
  0
LTYPE
  2
DASHDOT
 70
0
  3
__ . __ . __ .
 72
65
 73
4
 40
1.0
 49
0.5
 49
-0.25
 49
0.0
 49
-0.25
  0
LTYPE
  2
DIVIDE
 70
0
  3
____ . . ____ . . 
 72
65
 73
6
 40
1.25
 49
0.5
 49
-0.25
 49
0.0
 49
-0.25
 49
0.0
 49
-0.25
  0
LTYPE
  2
BORDER
 70
0
  3
__ __ . __ __ . 
 72
65
 73
6
 40
1.75
 49
0.5
 49
-0.25
 49
0.5
 49
-0.25
 49
0.0
 49
-0.25
  0
LTYPE
  2
HIDDEN
 70
0
  3
__ __ __ __ __
 72
65
 73
2
 40
0.4
 49
0.25
 49
-0.25
  0
LTYPE
  2
CENTER
 70
0
  3
____ _ ____ _ __
 72
65
 73
4
 40
2.0
 49
1.25
 49
-0.25
 49
0.25
 49
-0.25
  0
ENDTAB
  0
TABLE
  2
LAYER
 70
1
  0
LAYER
  2
PYDXF
 70
64
 62
7
  6
continuous
  0
ENDTAB
  0
TABLE
  2
STYLE
 70
1
  0
STYLE
  2
STANDARD
 70
0
 40
0
 41
1.0
 50
0.0
 71
0
 42
1
 3
ARIAL.TTF
 4

  0
ENDTAB
  0
TABLE
  2
VIEW
 70
1
  0
VIEW
  2
BF_TOPVIEW
 70
0
 40
120.0
 10
0.0
 20
0.0
 41
200.0
 11
0.0
 21
0.0
 31
1.0
 12
0.0
 22
0.0
 32
0.0
 42
50.0
 43
0.0
 44
0.0
 50
0.0
 71
0
  0
ENDTAB
  0
ENDSEC
  0
SECTION
  2
BLOCKS
  0
ENDSEC
  0
SECTION
  2
ENTITIES
  0
LINE
  8
0
 10
-0.28997525572776794
 20
1.0366005897521973
 30
0.0
 11
-0.01500004529953003
 21
1.0376720428466797
 31
0.0
  0
LINE
  8
0
 10
-0.3117261826992035
 20
0.9386013746261597
 30
0.0
 11
-0.312000036239624
 21
1.0076719522476196
 31
0.0
  0
LINE
  8
0
 10
0.31199997663497925
 20
0.9426721930503845
 30
0.0
 11
0.31199997663497925
 21
1.0076719522476196
 31
0.0
  0
LINE
  8
0
 10
0.2899751365184784
 20
1.0366004705429077
 30
0.0
 11
0.014999954029917717
 21
1.0376720428466797
 31
0.0
  0
LINE
  8
0
 10
-0.3117261826992035
 20
0.8367430567741394
 30
0.0
 11
-0.312000036239624
 21
0.41247299313545227
 31
0.0
  0
LINE
  8
0
 10
-0.3157685101032257
 20
0.3808237612247467
 30
0.0
 11
-0.31294089555740356
 21
0.39625120162963867
 31
0.0
  0
LINE
  8
0
 10
0.4747484624385834
 20
-0.03563375771045685
 30
0.0
 11
0.47646409273147583
 21
0.0011792577570304275
 31
0.0
  0
LINE
  8
0
 10
0.47646409273147583
 20
0.0011792577570304275
 30
0.0
 11
0.47544804215431213
 21
0.037376247346401215
 31
0.0
  0
LINE
  8
0
 10
0.47544804215431213
 20
0.037376247346401215
 30
0.0
 11
0.4717167615890503
 21
0.07290414720773697
 31
0.0
  0
LINE
  8
0
 10
0.4717167615890503
 20
0.07290414720773697
 30
0.0
 11
0.4652867615222931
 21
0.10770988464355469
 31
0.0
  0
LINE
  8
0
 10
0.4652867615222931
 20
0.10770988464355469
 30
0.0
 11
0.4561745226383209
 21
0.14174039661884308
 31
0.0
  0
LINE
  8
0
 10
0.4561745226383209
 20
0.14174039661884308
 30
0.0
 11
0.4443965256214142
 21
0.17494262754917145
 31
0.0
  0
LINE
  8
0
 10
0.4443965256214142
 20
0.17494262754917145
 30
0.0
 11
0.42996928095817566
 21
0.2072634994983673
 31
0.0
  0
LINE
  8
0
 10
0.42996928095817566
 20
0.2072634994983673
 30
0.0
 11
0.41290926933288574
 21
0.23864994943141937
 31
0.0
  0
LINE
  8
0
 10
0.41290926933288574
 20
0.23864994943141937
 30
0.0
 11
0.39323294162750244
 21
0.26904892921447754
 31
0.0
  0
LINE
  8
0
 10
0.39323294162750244
 20
0.26904892921447754
 30
0.0
 11
0.3709568381309509
 21
0.29840734601020813
 31
0.0
  0
LINE
  8
0
 10
-0.30574914813041687
 20
0.8510043025016785
 30
0.0
 11
-0.3117261826992035
 21
0.8367430567741394
 31
0.0
  0
LINE
  8
0
 10
-0.32049039006233215
 20
0.3661711513996124
 30
0.0
 11
-0.3157685101032257
 21
0.3808237612247467
 31
0.0
  0
LINE
  8
0
 10
0.15559886395931244
 20
-2.228543281555176
 30
0.0
 11
0.13405083119869232
 21
-2.524301767349243
 31
0.0
  0
LINE
  8
0
 10
0.13405083119869232
 20
-2.524301767349243
 30
0.0
 11
0.1179930716753006
 21
-2.8150956630706787
 31
0.0
  0
LINE
  8
0
 10
0.1179930716753006
 20
-2.8150956630706787
 30
0.0
 11
0.10743969678878784
 21
-3.1021499633789062
 31
0.0
  0
LINE
  8
0
 10
0.10743969678878784
 20
-3.1021499633789062
 30
0.0
 11
0.10240488499403
 21
-3.386690139770508
 31
0.0
  0
LINE
  8
0
 10
0.10240488499403
 20
-3.386690139770508
 30
0.0
 11
0.10290277004241943
 21
-3.669940948486328
 31
0.0
  0
LINE
  8
0
 10
0.10290277004241943
 20
-3.669940948486328
 30
0.0
 11
0.1089475005865097
 21
-3.953127861022949
 31
0.0
  0
LINE
  8
0
 10
0.1089475005865097
 20
-3.953127861022949
 30
0.0
 11
0.12055323272943497
 21
-4.237475872039795
 31
0.0
  0
LINE
  8
0
 10
0.12055323272943497
 20
-4.237475872039795
 30
0.0
 11
0.13773410022258759
 21
-4.524209976196289
 31
0.0
  0
LINE
  8
0
 10
0.13773410022258759
 20
-4.524209976196289
 30
0.0
 11
0.1605042815208435
 21
-4.8145551681518555
 31
0.0
  0
LINE
  8
0
 10
0.1605042815208435
 20
-4.8145551681518555
 30
0.0
 11
0.1888778954744339
 21
-5.109736919403076
 31
0.0
  0
LINE
  8
0
 10
0.4747484624385834
 20
-0.03563375771045685
 30
0.0
 11
0.47028499841690063
 21
-0.07300997525453568
 31
0.0
  0
LINE
  8
0
 10
-0.32711413502693176
 20
0.3522743284702301
 30
0.0
 11
-0.32049039006233215
 21
0.3661711513996124
 31
0.0
  0
LINE
  8
0
 10
0.32635024189949036
 20
-6.523900032043457
 30
0.0
 11
0.35438066720962524
 21
-6.501436233520508
 31
0.0
  0
LINE
  8
0
 10
0.35438066720962524
 20
-6.501436233520508
 30
0.0
 11
0.3792934715747833
 21
-6.476406097412109
 31
0.0
  0
LINE
  8
0
 10
0.3792934715747833
 20
-6.476406097412109
 30
0.0
 11
0.4009758234024048
 21
-6.4490838050842285
 31
0.0
  0
LINE
  8
0
 10
0.4009758234024048
 20
-6.4490838050842285
 30
0.0
 11
0.41931480169296265
 21
-6.419743537902832
 31
0.0
  0
LINE
  8
0
 10
0.41931480169296265
 20
-6.419743537902832
 30
0.0
 11
0.43419748544692993
 21
-6.388659954071045
 31
0.0
  0
LINE
  8
0
 10
0.43419748544692993
 20
-6.388659954071045
 30
0.0
 11
0.44551095366477966
 21
-6.356106758117676
 31
0.0
  0
LINE
  8
0
 10
0.44551095366477966
 20
-6.356106758117676
 30
0.0
 11
0.45314231514930725
 21
-6.32235860824585
 31
0.0
  0
LINE
  8
0
 10
0.45314231514930725
 20
-6.32235860824585
 30
0.0
 11
0.4569786489009857
 21
-6.287689685821533
 31
0.0
  0
LINE
  8
0
 10
0.4569786489009857
 20
-6.287689685821533
 30
0.0
 11
0.4569070637226105
 21
-6.252374649047852
 31
0.0
  0
LINE
  8
0
 10
0.4569070637226105
 20
-6.252374649047852
 30
0.0
 11
0.45281463861465454
 21
-6.216687202453613
 31
0.0
  0
LINE
  8
0
 10
-0.335647314786911
 20
0.33911430835723877
 30
0.0
 11
-0.32711413502693176
 21
0.3522743284702301
 31
0.0
  0
LINE
  8
0
 10
0.29531505703926086
 20
-6.543523788452148
 30
0.0
 11
0.23215024173259735
 21
-6.5822434425354
 31
0.0
  0
LINE
  8
0
 10
0.23215024173259735
 20
-6.5822434425354
 30
0.0
 11
0.17374324798583984
 21
-6.625253200531006
 31
0.0
  0
LINE
  8
0
 10
0.17374324798583984
 20
-6.625253200531006
 30
0.0
 11
0.12022271007299423
 21
-6.672336101531982
 31
0.0
  0
LINE
  8
0
 10
0.12022271007299423
 20
-6.672336101531982
 30
0.0
 11
0.07171725481748581
 21
-6.723275661468506
 31
0.0
  0
LINE
  8
0
 10
0.07171725481748581
 20
-6.723275661468506
 30
0.0
 11
0.028355518355965614
 21
-6.777854919433594
 31
0.0
  0
LINE
  8
0
 10
0.028355518355965614
 20
-6.777854919433594
 30
0.0
 11
-0.009733865968883038
 21
-6.83585786819458
 31
0.0
  0
LINE
  8
0
 10
-0.009733865968883038
 20
-6.83585786819458
 30
0.0
 11
-0.04242226108908653
 21
-6.897067070007324
 31
0.0
  0
LINE
  8
0
 10
-0.04242226108908653
 20
-6.897067070007324
 30
0.0
 11
-0.0695810317993164
 21
-6.96126651763916
 31
0.0
  0
LINE
  8
0
 10
-0.0695810317993164
 20
-6.96126651763916
 30
0.0
 11
-0.09108154475688934
 21
-7.0282392501831055
 31
0.0
  0
LINE
  8
0
 10
-0.09108154475688934
 20
-7.0282392501831055
 30
0.0
 11
-0.10679514706134796
 21
-7.097768783569336
 31
0.0
  0
LINE
  8
0
 10
-0.10679514706134796
 20
-7.097768783569336
 30
0.0
 11
-0.11659322679042816
 21
-7.169638156890869
 31
0.0
  0
LINE
  8
0
 10
-0.346097469329834
 20
0.3266720175743103
 30
0.0
 11
-0.335647314786911
 21
0.33911430835723877
 31
0.0
  0
LINE
  8
0
 10
0.3356472849845886
 20
0.33911436796188354
 30
0.0
 11
0.3460974395275116
 21
0.32667210698127747
 31
0.0
  0
LINE
  8
0
 10
0.327114075422287
 20
0.3522743880748749
 30
0.0
 11
0.3356472849845886
 21
0.33911436796188354
 31
0.0
  0
LINE
  8
0
 10
-0.13121651113033295
 20
-7.097543716430664
 30
0.0
 11
-0.14564986526966095
 21
-7.027737617492676
 31
0.0
  0
LINE
  8
0
 10
-0.14564986526966095
 20
-7.027737617492676
 30
0.0
 11
-0.16591612994670868
 21
-6.960381031036377
 31
0.0
  0
LINE
  8
0
 10
-0.16591612994670868
 20
-6.960381031036377
 30
0.0
 11
-0.1918906569480896
 21
-6.895693302154541
 31
0.0
  0
LINE
  8
0
 10
-0.1918906569480896
 20
-6.895693302154541
 30
0.0
 11
-0.22344881296157837
 21
-6.833893775939941
 31
0.0
  0
LINE
  8
0
 10
-0.22344881296157837
 20
-6.833893775939941
 30
0.0
 11
-0.26046597957611084
 21
-6.775200843811035
 31
0.0
  0
LINE
  8
0
 10
-0.26046597957611084
 20
-6.775200843811035
 30
0.0
 11
-0.30281752347946167
 21
-6.719833850860596
 31
0.0
  0
LINE
  8
0
 10
-0.30281752347946167
 20
-6.719833850860596
 30
0.0
 11
-0.3503788113594055
 21
-6.668011665344238
 31
0.0
  0
LINE
  8
0
 10
-0.3503788113594055
 20
-6.668011665344238
 30
0.0
 11
-0.40302518010139465
 21
-6.619953155517578
 31
0.0
  0
LINE
  8
0
 10
-0.40302518010139465
 20
-6.619953155517578
 30
0.0
 11
-0.4606320261955261
 21
-6.575877666473389
 31
0.0
  0
LINE
  8
0
 10
0.3204903304576874
 20
0.3661711812019348
 30
0.0
 11
0.327114075422287
 21
0.3522743880748749
 31
0.0
  0
LINE
  8
0
 10
0.31576845049858093
 20
0.3808237910270691
 30
0.0
 11
0.3204903304576874
 21
0.3661711812019348
 31
0.0
  0
LINE
  8
0
 10
-0.6745419502258301
 20
-6.206328392028809
 30
0.0
 11
-0.6792894601821899
 21
-6.241934776306152
 31
0.0
  0
LINE
  8
0
 10
-0.6792894601821899
 20
-6.241934776306152
 30
0.0
 11
-0.6800099611282349
 21
-6.277242660522461
 31
0.0
  0
LINE
  8
0
 10
-0.6800099611282349
 20
-6.277242660522461
 30
0.0
 11
-0.6768113374710083
 21
-6.311975955963135
 31
0.0
  0
LINE
  8
0
 10
-0.6768113374710083
 20
-6.311975955963135
 30
0.0
 11
-0.6698014140129089
 21
-6.345858573913574
 31
0.0
  0
LINE
  8
0
 10
-0.6698014140129089
 20
-6.345858573913574
 30
0.0
 11
-0.6590880155563354
 21
-6.3786139488220215
 31
0.0
  0
LINE
  8
0
 10
-0.6590880155563354
 20
-6.3786139488220215
 30
0.0
 11
-0.6447790265083313
 21
-6.409965991973877
 31
0.0
  0
LINE
  8
0
 10
-0.6447790265083313
 20
-6.409965991973877
 30
0.0
 11
-0.6269822716712952
 21
-6.439638137817383
 31
0.0
  0
LINE
  8
0
 10
-0.6269822716712952
 20
-6.439638137817383
 30
0.0
 11
-0.6058056354522705
 21
-6.4673542976379395
 31
0.0
  0
LINE
  8
0
 10
-0.6058056354522705
 20
-6.4673542976379395
 30
0.0
 11
-0.581356942653656
 21
-6.492838382720947
 31
0.0
  0
LINE
  8
0
 10
-0.581356942653656
 20
-6.492838382720947
 30
0.0
 11
-0.5537440180778503
 21
-6.51581335067749
 31
0.0
  0
LINE
  8
0
 10
-0.5537440180778503
 20
-6.51581335067749
 30
0.0
 11
-0.5230746269226074
 21
-6.536004066467285
 31
0.0
  0
LINE
  8
0
 10
0.3129408359527588
 20
0.39625123143196106
 30
0.0
 11
0.31576845049858093
 21
0.3808237910270691
 31
0.0
  0
LINE
  8
0
 10
-0.38129082322120667
 20
-5.107274532318115
 30
0.0
 11
-0.3383772373199463
 21
-4.813521385192871
 31
0.0
  0
LINE
  8
0
 10
-0.3383772373199463
 20
-4.813521385192871
 30
0.0
 11
-0.301299124956131
 21
-4.52432918548584
 31
0.0
  0
LINE
  8
0
 10
-0.301299124956131
 20
-4.52432918548584
 30
0.0
 11
-0.26998186111450195
 21
-4.238472938537598
 31
0.0
  0
LINE
  8
0
 10
-0.26998186111450195
 20
-4.238472938537598
 30
0.0
 11
-0.24435076117515564
 21
-3.954728603363037
 31
0.0
  0
LINE
  8
0
 10
-0.24435076117515564
 20
-3.954728603363037
 30
0.0
 11
-0.22433121502399445
 21
-3.6718711853027344
 31
0.0
  0
LINE
  8
0
 10
-0.22433121502399445
 20
-3.6718711853027344
 30
0.0
 11
-0.2098485678434372
 21
-3.388676404953003
 31
0.0
  0
LINE
  8
0
 10
-0.2098485678434372
 20
-3.388676404953003
 30
0.0
 11
-0.2008281797170639
 21
-3.103919506072998
 31
0.0
  0
LINE
  8
0
 10
-0.2008281797170639
 20
-3.103919506072998
 30
0.0
 11
-0.1971954107284546
 21
-2.816375970840454
 31
0.0
  0
LINE
  8
0
 10
-0.1971954107284546
 20
-2.816375970840454
 30
0.0
 11
-0.19887562096118927
 21
-2.5248212814331055
 31
0.0
  0
LINE
  8
0
 10
-0.19887562096118927
 20
-2.5248212814331055
 30
0.0
 11
-0.20579414069652557
 21
-2.2280309200286865
 31
0.0
  0
LINE
  8
0
 10
-0.20579414069652557
 20
-2.2280309200286865
 30
0.0
 11
-0.2178763449192047
 21
-1.9247803688049316
 31
0.0
  0
LINE
  8
0
 10
-0.2936773896217346
 20
0.860314667224884
 30
0.0
 11
-0.30574914813041687
 21
0.8510043025016785
 31
0.0
  0
LINE
  8
0
 10
-0.37047743797302246
 20
0.29899680614471436
 30
0.0
 11
-0.3923723101615906
 21
0.2702828049659729
 31
0.0
  0
LINE
  8
0
 10
-0.3923723101615906
 20
0.2702828049659729
 30
0.0
 11
-0.41176795959472656
 21
0.24057385325431824
 31
0.0
  0
LINE
  8
0
 10
-0.41176795959472656
 20
0.24057385325431824
 30
0.0
 11
-0.4286503791809082
 21
0.2099137008190155
 31
0.0
  0
LINE
  8
0
 10
-0.4286503791809082
 20
0.2099137008190155
 30
0.0
 11
-0.4430055022239685
 21
0.17834614217281342
 31
0.0
  0
LINE
  8
0
 10
-0.4430055022239685
 20
0.17834614217281342
 30
0.0
 11
-0.4548192620277405
 21
0.1459149867296219
 31
0.0
  0
LINE
  8
0
 10
-0.4548192620277405
 20
0.1459149867296219
 30
0.0
 11
-0.4640776216983795
 21
0.11266399919986725
 31
0.0
  0
LINE
  8
0
 10
-0.4640776216983795
 20
0.11266399919986725
 30
0.0
 11
-0.470766544342041
 21
0.07863698154687881
 31
0.0
  0
LINE
  8
0
 10
-0.470766544342041
 20
0.07863698154687881
 30
0.0
 11
-0.474871963262558
 21
0.04387772083282471
 31
0.0
  0
LINE
  8
0
 10
-0.474871963262558
 20
0.04387772083282471
 30
0.0
 11
-0.4763798415660858
 21
0.008430002257227898
 31
0.0
  0
LINE
  8
0
 10
-0.4763798415660858
 20
0.008430002257227898
 30
0.0
 11
-0.4752761423587799
 21
-0.02766239084303379
 31
0.0
  0
LINE
  8
0
 10
-0.4752761423587799
 20
-0.02766239084303379
 30
0.0
 11
-0.47154682874679565
 21
-0.06435571610927582
 31
0.0
  0
LINE
  8
0
 10
0.01695762202143669
 20
-1.1819367408752441
 30
0.0
 11
0.03322307765483856
 21
-1.1852617263793945
 31
0.0
  0
LINE
  8
0
 10
0.03322307765483856
 20
-1.1852617263793945
 30
0.0
 11
0.04864727705717087
 21
-1.1906211376190186
 31
0.0
  0
LINE
  8
0
 10
0.04864727705717087
 20
-1.1906211376190186
 30
0.0
 11
0.06308107823133469
 21
-1.1978658437728882
 31
0.0
  0
LINE
  8
0
 10
0.06308107823133469
 20
-1.1978658437728882
 30
0.0
 11
0.0763753354549408
 21
-1.2068465948104858
 31
0.0
  0
LINE
  8
0
 10
0.0763753354549408
 20
-1.2068465948104858
 30
0.0
 11
0.08838091045618057
 21
-1.217414379119873
 31
0.0
  0
LINE
  8
0
 10
0.08838091045618057
 20
-1.217414379119873
 30
0.0
 11
0.09894866496324539
 21
-1.2294199466705322
 31
0.0
  0
LINE
  8
0
 10
0.09894866496324539
 20
-1.2294199466705322
 30
0.0
 11
0.10792944580316544
 21
-1.2427141666412354
 31
0.0
  0
LINE
  8
0
 10
0.10792944580316544
 20
-1.2427141666412354
 30
0.0
 11
0.11517411470413208
 21
-1.257148027420044
 31
0.0
  0
LINE
  8
0
 10
0.11517411470413208
 20
-1.257148027420044
 30
0.0
 11
0.1205335333943367
 21
-1.2725722789764404
 31
0.0
  0
LINE
  8
0
 10
0.1205335333943367
 20
-1.2725722789764404
 30
0.0
 11
0.12385856360197067
 21
-1.2888376712799072
 31
0.0
  0
LINE
  8
0
 10
0.12385856360197067
 20
-1.2888376712799072
 30
0.0
 11
0.12500005960464478
 21
-1.3057953119277954
 31
0.0
  0
LINE
  8
0
 10
0.12500005960464478
 20
-1.3057953119277954
 30
0.0
 11
0.12385857850313187
 21
-1.322752833366394
 31
0.0
  0
LINE
  8
0
 10
0.12385857850313187
 20
-1.322752833366394
 30
0.0
 11
0.12053355574607849
 21
-1.3390183448791504
 31
0.0
  0
LINE
  8
0
 10
0.12053355574607849
 20
-1.3390183448791504
 30
0.0
 11
0.11517413705587387
 21
-1.3544425964355469
 31
0.0
  0
LINE
  8
0
 10
0.11517413705587387
 20
-1.3544425964355469
 30
0.0
 11
0.10792946815490723
 21
-1.3688764572143555
 31
0.0
  0
LINE
  8
0
 10
0.10792946815490723
 20
-1.3688764572143555
 30
0.0
 11
0.09894868731498718
 21
-1.3821706771850586
 31
0.0
  0
LINE
  8
0
 10
0.09894868731498718
 20
-1.3821706771850586
 30
0.0
 11
0.08838093280792236
 21
-1.3941762447357178
 31
0.0
  0
LINE
  8
0
 10
0.08838093280792236
 20
-1.3941762447357178
 30
0.0
 11
0.07637535780668259
 21
-1.404744029045105
 31
0.0
  0
LINE
  8
0
 10
0.07637535780668259
 20
-1.404744029045105
 30
0.0
 11
0.06308109313249588
 21
-1.4137247800827026
 31
0.0
  0
LINE
  8
0
 10
0.06308109313249588
 20
-1.4137247800827026
 30
0.0
 11
0.04864729568362236
 21
-1.4209694862365723
 31
0.0
  0
LINE
  8
0
 10
0.04864729568362236
 20
-1.4209694862365723
 30
0.0
 11
0.033223092555999756
 21
-1.4263288974761963
 31
0.0
  0
LINE
  8
0
 10
0.033223092555999756
 20
-1.4263288974761963
 30
0.0
 11
0.016957633197307587
 21
-1.4296538829803467
 31
0.0
  0
LINE
  8
0
 10
0.016957633197307587
 20
-1.4296538829803467
 30
0.0
 11
6.254204976130495e-08
 21
-1.4307953119277954
 31
0.0
  0
LINE
  8
0
 10
6.254204976130495e-08
 20
-1.4307953119277954
 30
0.0
 11
-0.01695750653743744
 21
-1.4296538829803467
 31
0.0
  0
LINE
  8
0
 10
-0.01695750653743744
 20
-1.4296538829803467
 30
0.0
 11
-0.03322296217083931
 21
-1.4263288974761963
 31
0.0
  0
LINE
  8
0
 10
-0.03322296217083931
 20
-1.4263288974761963
 30
0.0
 11
-0.048647161573171616
 21
-1.4209694862365723
 31
0.0
  0
LINE
  8
0
 10
-0.048647161573171616
 20
-1.4209694862365723
 30
0.0
 11
-0.06308096647262573
 21
-1.4137247800827026
 31
0.0
  0
LINE
  8
0
 10
-0.06308096647262573
 20
-1.4137247800827026
 30
0.0
 11
-0.07637522369623184
 21
-1.404744029045105
 31
0.0
  0
LINE
  8
0
 10
-0.07637522369623184
 20
-1.404744029045105
 30
0.0
 11
-0.08838079869747162
 21
-1.3941762447357178
 31
0.0
  0
LINE
  8
0
 10
-0.08838079869747162
 20
-1.3941762447357178
 30
0.0
 11
-0.09894855320453644
 21
-1.3821706771850586
 31
0.0
  0
LINE
  8
0
 10
-0.09894855320453644
 20
-1.3821706771850586
 30
0.0
 11
-0.10792933404445648
 21
-1.3688764572143555
 31
0.0
  0
LINE
  8
0
 10
-0.10792933404445648
 20
-1.3688764572143555
 30
0.0
 11
-0.11517400294542313
 21
-1.3544425964355469
 31
0.0
  0
LINE
  8
0
 10
-0.11517400294542313
 20
-1.3544425964355469
 30
0.0
 11
-0.12053342163562775
 21
-1.3390183448791504
 31
0.0
  0
LINE
  8
0
 10
-0.12053342163562775
 20
-1.3390183448791504
 30
0.0
 11
-0.12385844439268112
 21
-1.3227529525756836
 31
0.0
  0
LINE
  8
0
 10
-0.12385844439268112
 20
-1.3227529525756836
 30
0.0
 11
-0.12499994039535522
 21
-1.3057953119277954
 31
0.0
  0
LINE
  8
0
 10
-0.12499994039535522
 20
-1.3057953119277954
 30
0.0
 11
-0.12385845929384232
 21
-1.2888377904891968
 31
0.0
  0
LINE
  8
0
 10
-0.12385845929384232
 20
-1.2888377904891968
 30
0.0
 11
-0.12053344398736954
 21
-1.2725722789764404
 31
0.0
  0
LINE
  8
0
 10
-0.12053344398736954
 20
-1.2725722789764404
 30
0.0
 11
-0.11517402529716492
 21
-1.257148027420044
 31
0.0
  0
LINE
  8
0
 10
-0.11517402529716492
 20
-1.257148027420044
 30
0.0
 11
-0.10792935639619827
 21
-1.2427141666412354
 31
0.0
  0
LINE
  8
0
 10
-0.10792935639619827
 20
-1.2427141666412354
 30
0.0
 11
-0.09894857555627823
 21
-1.2294199466705322
 31
0.0
  0
LINE
  8
0
 10
-0.09894857555627823
 20
-1.2294199466705322
 30
0.0
 11
-0.08838082104921341
 21
-1.217414379119873
 31
0.0
  0
LINE
  8
0
 10
-0.08838082104921341
 20
-1.217414379119873
 30
0.0
 11
-0.07637524604797363
 21
-1.2068465948104858
 31
0.0
  0
LINE
  8
0
 10
-0.07637524604797363
 20
-1.2068465948104858
 30
0.0
 11
-0.06308098137378693
 21
-1.1978658437728882
 31
0.0
  0
LINE
  8
0
 10
-0.06308098137378693
 20
-1.1978658437728882
 30
0.0
 11
-0.04864718019962311
 21
-1.1906211376190186
 31
0.0
  0
LINE
  8
0
 10
-0.04864718019962311
 20
-1.1906211376190186
 30
0.0
 11
-0.033222977072000504
 21
-1.1852617263793945
 31
0.0
  0
LINE
  8
0
 10
-0.033222977072000504
 20
-1.1852617263793945
 30
0.0
 11
-0.016957517713308334
 21
-1.1819367408752441
 31
0.0
  0
LINE
  8
0
 10
-0.2936773896217346
 20
0.860314667224884
 30
0.0
 11
-0.28200003504753113
 21
0.862671971321106
 31
0.0
  0
LINE
  8
0
 10
-0.2971416115760803
 20
0.9167680740356445
 30
0.0
 11
-0.28200003504753113
 21
0.9126719832420349
 31
0.0
  0
LINE
  8
0
 10
-0.3079041540622711
 20
0.9275306463241577
 30
0.0
 11
-0.2971416115760803
 21
0.9167680740356445
 31
0.0
  0
LINE
  8
0
 10
-0.3117261826992035
 20
0.9386013746261597
 30
0.0
 11
-0.3079041540622711
 21
0.9275306463241577
 31
0.0
  0
LINE
  8
0
 10
-0.3079041838645935
 20
1.0228139162063599
 30
0.0
 11
-0.312000036239624
 21
1.0076719522476196
 31
0.0
  0
LINE
  8
0
 10
-0.3003321588039398
 20
1.031421422958374
 30
0.0
 11
-0.3079041838645935
 21
1.0228139162063599
 31
0.0
  0
LINE
  8
0
 10
-0.28997525572776794
 20
1.0366005897521973
 30
0.0
 11
-0.3003321588039398
 21
1.031421422958374
 31
0.0
  0
LINE
  8
0
 10
0.3032131493091583
 20
1.0288853645324707
 30
0.0
 11
0.2899751365184784
 21
1.0366004705429077
 31
0.0
  0
LINE
  8
0
 10
0.3096424341201782
 20
1.0193495750427246
 30
0.0
 11
0.3032131493091583
 21
1.0288853645324707
 31
0.0
  0
LINE
  8
0
 10
0.3096424341201782
 20
1.0193495750427246
 30
0.0
 11
0.31199997663497925
 21
1.0076719522476196
 31
0.0
  0
LINE
  8
0
 10
0.3096424341201782
 20
0.9309948682785034
 30
0.0
 11
0.31199997663497925
 21
0.9426721930503845
 31
0.0
  0
LINE
  8
0
 10
0.30033206939697266
 20
0.9189230799674988
 30
0.0
 11
0.3096424341201782
 21
0.9309948682785034
 31
0.0
  0
LINE
  8
0
 10
-0.43636029958724976
 20
-6.241565227508545
 30
0.0
 11
-0.4384751319885254
 21
-6.2500481605529785
 31
0.0
  0
LINE
  8
0
 10
-0.4384751319885254
 20
-6.2500481605529785
 30
0.0
 11
-0.4396054744720459
 21
-6.258525848388672
 31
0.0
  0
LINE
  8
0
 10
-0.4396054744720459
 20
-6.258525848388672
 30
0.0
 11
-0.4397770166397095
 21
-6.266932487487793
 31
0.0
  0
LINE
  8
0
 10
-0.4397770166397095
 20
-6.266932487487793
 30
0.0
 11
-0.4390154182910919
 21
-6.27520227432251
 31
0.0
  0
LINE
  8
0
 10
-0.4390154182910919
 20
-6.27520227432251
 30
0.0
 11
-0.43734636902809143
 21
-6.28326940536499
 31
0.0
  0
LINE
  8
0
 10
-0.43734636902809143
 20
-6.28326940536499
 30
0.0
 11
-0.4347955584526062
 21
-6.2910685539245605
 31
0.0
  0
LINE
  8
0
 10
-0.4347955584526062
 20
-6.2910685539245605
 30
0.0
 11
-0.43138864636421204
 21
-6.2985334396362305
 31
0.0
  0
LINE
  8
0
 10
-0.43138864636421204
 20
-6.2985334396362305
 30
0.0
 11
-0.42715132236480713
 21
-6.305598258972168
 31
0.0
  0
LINE
  8
0
 10
-0.42715132236480713
 20
-6.305598258972168
 30
0.0
 11
-0.4221092462539673
 21
-6.312197208404541
 31
0.0
  0
LINE
  8
0
 10
-0.4221092462539673
 20
-6.312197208404541
 30
0.0
 11
-0.4162881374359131
 21
-6.318264961242676
 31
0.0
  0
LINE
  8
0
 10
-0.4162881374359131
 20
-6.318264961242676
 30
0.0
 11
-0.40971362590789795
 21
-6.323735237121582
 31
0.0
  0
LINE
  8
0
 10
-0.40971362590789795
 20
-6.323735237121582
 30
0.0
 11
-0.40241149067878723
 21
-6.328542232513428
 31
0.0
  0
LINE
  8
0
 10
-0.11420828849077225
 20
-6.575526237487793
 30
0.0
 11
-0.13540011644363403
 21
-6.550045490264893
 31
0.0
  0
LINE
  8
0
 10
-0.13540011644363403
 20
-6.550045490264893
 30
0.0
 11
-0.1568177491426468
 21
-6.525701999664307
 31
0.0
  0
LINE
  8
0
 10
-0.1568177491426468
 20
-6.525701999664307
 30
0.0
 11
-0.17854753136634827
 21
-6.502421855926514
 31
0.0
  0
LINE
  8
0
 10
-0.17854753136634827
 20
-6.502421855926514
 30
0.0
 11
-0.200675830245018
 21
-6.480131149291992
 31
0.0
  0
LINE
  8
0
 10
-0.200675830245018
 20
-6.480131149291992
 30
0.0
 11
-0.22328899800777435
 21
-6.458755970001221
 31
0.0
  0
LINE
  8
0
 10
-0.22328899800777435
 20
-6.458755970001221
 30
0.0
 11
-0.24647340178489685
 21
-6.4382219314575195
 31
0.0
  0
LINE
  8
0
 10
-0.24647340178489685
 20
-6.4382219314575195
 30
0.0
 11
-0.27031540870666504
 21
-6.418455123901367
 31
0.0
  0
LINE
  8
0
 10
-0.27031540870666504
 20
-6.418455123901367
 30
0.0
 11
-0.2949013411998749
 21
-6.399381637573242
 31
0.0
  0
LINE
  8
0
 10
-0.2949013411998749
 20
-6.399381637573242
 30
0.0
 11
-0.3203175663948059
 21
-6.380927562713623
 31
0.0
  0
LINE
  8
0
 10
-0.3203175663948059
 20
-6.380927562713623
 30
0.0
 11
-0.3466504216194153
 21
-6.363018989562988
 31
0.0
  0
LINE
  8
0
 10
-0.3466504216194153
 20
-6.363018989562988
 30
0.0
 11
-0.37398627400398254
 21
-6.345581531524658
 31
0.0
  0
LINE
  8
0
 10
0.17848436534404755
 20
-6.333879470825195
 30
0.0
 11
0.14975082874298096
 21
-6.350394248962402
 31
0.0
  0
LINE
  8
0
 10
0.14975082874298096
 20
-6.350394248962402
 30
0.0
 11
0.12209916859865189
 21
-6.367326259613037
 31
0.0
  0
LINE
  8
0
 10
0.12209916859865189
 20
-6.367326259613037
 30
0.0
 11
0.09544169157743454
 21
-6.3847479820251465
 31
0.0
  0
LINE
  8
0
 10
0.09544169157743454
 20
-6.3847479820251465
 30
0.0
 11
0.06969070434570312
 21
-6.402731895446777
 31
0.0
  0
LINE
  8
0
 10
0.06969070434570312
 20
-6.402731895446777
 30
0.0
 11
0.044758476316928864
 21
-6.421350479125977
 31
0.0
  0
LINE
  8
0
 10
0.044758476316928864
 20
-6.421350479125977
 30
0.0
 11
0.020557327196002007
 21
-6.440675735473633
 31
0.0
  0
LINE
  8
0
 10
0.020557327196002007
 20
-6.440675735473633
 30
0.0
 11
-0.0030004519503563643
 21
-6.460780143737793
 31
0.0
  0
LINE
  8
0
 10
-0.0030004519503563643
 20
-6.460780143737793
 30
0.0
 11
-0.026002561673521996
 21
-6.481736183166504
 31
0.0
  0
LINE
  8
0
 10
-0.026002561673521996
 20
-6.481736183166504
 30
0.0
 11
-0.04853670299053192
 21
-6.5036163330078125
 31
0.0
  0
LINE
  8
0
 10
-0.04853670299053192
 20
-6.5036163330078125
 30
0.0
 11
-0.0706905797123909
 21
-6.526493072509766
 31
0.0
  0
LINE
  8
0
 10
-0.0706905797123909
 20
-6.526493072509766
 30
0.0
 11
-0.09255189448595047
 21
-6.55043888092041
 31
0.0
  0
LINE
  8
0
 10
0.21402563154697418
 20
-6.2475409507751465
 30
0.0
 11
-0.026256563141942024
 21
-5.416197776794434
 31
0.0
  0
LINE
  8
0
 10
0.18587368726730347
 20
-6.329207420349121
 30
0.0
 11
0.19254758954048157
 21
-6.323858737945557
 31
0.0
  0
LINE
  8
0
 10
0.19254758954048157
 20
-6.323858737945557
 30
0.0
 11
0.19847922027111053
 21
-6.317899227142334
 31
0.0
  0
LINE
  8
0
 10
0.19847922027111053
 20
-6.317899227142334
 30
0.0
 11
0.20364168286323547
 21
-6.311393737792969
 31
0.0
  0
LINE
  8
0
 10
0.20364168286323547
 20
-6.311393737792969
 30
0.0
 11
0.20800809562206268
 21
-6.304408073425293
 31
0.0
  0
LINE
  8
0
 10
0.20800809562206268
 20
-6.304408073425293
 30
0.0
 11
0.21155159175395966
 21
-6.297007083892822
 31
0.0
  0
LINE
  8
0
 10
0.21155159175395966
 20
-6.297007083892822
 30
0.0
 11
0.2142452746629715
 21
-6.289256572723389
 31
0.0
  0
LINE
  8
0
 10
0.2142452746629715
 20
-6.289256572723389
 30
0.0
 11
0.2160622626543045
 21
-6.281221389770508
 31
0.0
  0
LINE
  8
0
 10
0.2160622626543045
 20
-6.281221389770508
 30
0.0
 11
0.21697567403316498
 21
-6.2729668617248535
 31
0.0
  0
LINE
  8
0
 10
0.21697567403316498
 20
-6.2729668617248535
 30
0.0
 11
0.21695862710475922
 21
-6.2645583152771
 31
0.0
  0
LINE
  8
0
 10
0.21695862710475922
 20
-6.2645583152771
 30
0.0
 11
0.21598424017429352
 21
-6.256061553955078
 31
0.0
  0
LINE
  8
0
 10
0.21598424017429352
 20
-6.256061553955078
 30
0.0
 11
0.21402563154697418
 21
-6.2475409507751465
 31
0.0
  0
LINE
  8
0
 10
-0.18084263801574707
 20
-5.414778232574463
 30
0.0
 11
-0.17149560153484344
 21
-5.383896827697754
 31
0.0
  0
LINE
  8
0
 10
-0.17149560153484344
 20
-5.383896827697754
 30
0.0
 11
-0.1627243608236313
 21
-5.353580474853516
 31
0.0
  0
LINE
  8
0
 10
-0.1627243608236313
 20
-5.353580474853516
 30
0.0
 11
-0.15449951589107513
 21
-5.323697090148926
 31
0.0
  0
LINE
  8
0
 10
-0.15449951589107513
 20
-5.323697090148926
 30
0.0
 11
-0.14679166674613953
 21
-5.294114589691162
 31
0.0
  0
LINE
  8
0
 10
-0.14679166674613953
 20
-5.294114589691162
 30
0.0
 11
-0.13957145810127258
 21
-5.264700889587402
 31
0.0
  0
LINE
  8
0
 10
-0.13957145810127258
 20
-5.264700889587402
 30
0.0
 11
-0.13280944526195526
 21
-5.235323905944824
 31
0.0
  0
LINE
  8
0
 10
-0.13280944526195526
 20
-5.235323905944824
 30
0.0
 11
-0.1264762580394745
 21
-5.2058515548706055
 31
0.0
  0
LINE
  8
0
 10
-0.1264762580394745
 20
-5.2058515548706055
 30
0.0
 11
-0.120542511343956
 21
-5.176151275634766
 31
0.0
  0
LINE
  8
0
 10
-0.120542511343956
 20
-5.176151275634766
 30
0.0
 11
-0.11497880518436432
 21
-5.146091461181641
 31
0.0
  0
LINE
  8
0
 10
-0.11497880518436432
 20
-5.146091461181641
 30
0.0
 11
-0.1097557470202446
 21
-5.115540027618408
 31
0.0
  0
LINE
  8
0
 10
-0.1097557470202446
 20
-5.115540027618408
 30
0.0
 11
-0.10484395176172256
 21
-5.084364891052246
 31
0.0
  0
LINE
  8
0
 10
-0.10021378099918365
 20
-5.052433490753174
 30
0.0
 11
-0.09617136418819427
 21
-5.084444046020508
 31
0.0
  0
LINE
  8
0
 10
-0.09617136418819427
 20
-5.084444046020508
 30
0.0
 11
-0.09183322638273239
 21
-5.11570405960083
 31
0.0
  0
LINE
  8
0
 10
-0.09183322638273239
 20
-5.11570405960083
 30
0.0
 11
-0.08717241138219833
 21
-5.146346092224121
 31
0.0
  0
LINE
  8
0
 10
-0.08717241138219833
 20
-5.146346092224121
 30
0.0
 11
-0.08216196298599243
 21
-5.176502704620361
 31
0.0
  0
LINE
  8
0
 10
-0.08216196298599243
 20
-5.176502704620361
 30
0.0
 11
-0.07677491754293442
 21
-5.2063069343566895
 31
0.0
  0
LINE
  8
0
 10
-0.07677491754293442
 20
-5.2063069343566895
 30
0.0
 11
-0.07098432630300522
 21
-5.235890865325928
 31
0.0
  0
LINE
  8
0
 10
-0.07098432630300522
 20
-5.235890865325928
 30
0.0
 11
-0.06476322561502457
 21
-5.265387535095215
 31
0.0
  0
LINE
  8
0
 10
-0.06476322561502457
 20
-5.265387535095215
 30
0.0
 11
-0.05808465927839279
 21
-5.294929027557373
 31
0.0
  0
LINE
  8
0
 10
-0.05808465927839279
 20
-5.294929027557373
 30
0.0
 11
-0.050921667367219925
 21
-5.324648380279541
 31
0.0
  0
LINE
  8
0
 10
-0.050921667367219925
 20
-5.324648380279541
 30
0.0
 11
-0.043247289955616
 21
-5.354677677154541
 31
0.0
  0
LINE
  8
0
 10
-0.043247289955616
 20
-5.354677677154541
 30
0.0
 11
-0.035034578293561935
 21
-5.385149955749512
 31
0.0
  0
LINE
  8
0
 10
-0.035034578293561935
 20
-5.385149955749512
 30
0.0
 11
-0.026256563141942024
 21
-5.416197776794434
 31
0.0
  0
LINE
  8
0
 10
-0.26200002431869507
 20
0.9126719832420349
 30
0.0
 11
-0.28200003504753113
 21
0.9126719832420349
 31
0.0
  0
LINE
  8
0
 10
0.016957564279437065
 20
0.12385851889848709
 30
0.0
 11
0.033223021775484085
 21
0.12053349614143372
 31
0.0
  0
LINE
  8
0
 10
0.033223021775484085
 20
0.12053349614143372
 30
0.0
 11
0.04864722117781639
 21
0.1151740774512291
 31
0.0
  0
LINE
  8
0
 10
0.04864722117781639
 20
0.1151740774512291
 30
0.0
 11
0.06308101862668991
 21
0.10792940855026245
 31
0.0
  0
LINE
  8
0
 10
0.06308101862668991
 20
0.10792940855026245
 30
0.0
 11
0.07637527585029602
 21
0.09894862771034241
 31
0.0
  0
LINE
  8
0
 10
0.07637527585029602
 20
0.09894862771034241
 30
0.0
 11
0.0883808508515358
 21
0.08838088065385818
 31
0.0
  0
LINE
  8
0
 10
0.0883808508515358
 20
0.08838088065385818
 30
0.0
 11
0.09894861280918121
 21
0.07637530565261841
 31
0.0
  0
LINE
  8
0
 10
0.09894861280918121
 20
0.07637530565261841
 30
0.0
 11
0.10792939364910126
 21
0.0630810409784317
 31
0.0
  0
LINE
  8
0
 10
0.10792939364910126
 20
0.0630810409784317
 30
0.0
 11
0.1151740625500679
 21
0.048647236078977585
 31
0.0
  0
LINE
  8
0
 10
0.1151740625500679
 20
0.048647236078977585
 30
0.0
 11
0.12053348124027252
 21
0.03322303295135498
 31
0.0
  0
LINE
  8
0
 10
0.12053348124027252
 20
0.03322303295135498
 30
0.0
 11
0.1238585039973259
 21
0.01695757545530796
 31
0.0
  0
LINE
  8
0
 10
0.1238585039973259
 20
0.01695757545530796
 30
0.0
 11
0.125
 21
5.463909324987526e-09
 31
0.0
  0
LINE
  8
0
 10
0.125
 20
5.463909324987526e-09
 30
0.0
 11
0.12385851889848709
 21
-0.016957564279437065
 31
0.0
  0
LINE
  8
0
 10
0.12385851889848709
 20
-0.016957564279437065
 30
0.0
 11
0.12053349614143372
 21
-0.033223021775484085
 31
0.0
  0
LINE
  8
0
 10
0.12053349614143372
 20
-0.033223021775484085
 30
0.0
 11
0.1151740774512291
 21
-0.04864722117781639
 31
0.0
  0
LINE
  8
0
 10
0.1151740774512291
 20
-0.04864722117781639
 30
0.0
 11
0.10792940855026245
 21
-0.06308101862668991
 31
0.0
  0
LINE
  8
0
 10
0.10792940855026245
 20
-0.06308101862668991
 30
0.0
 11
0.09894862771034241
 21
-0.07637527585029602
 31
0.0
  0
LINE
  8
0
 10
0.09894862771034241
 20
-0.07637527585029602
 30
0.0
 11
0.08838088065385818
 21
-0.0883808508515358
 31
0.0
  0
LINE
  8
0
 10
0.08838088065385818
 20
-0.0883808508515358
 30
0.0
 11
0.07637530565261841
 21
-0.09894861280918121
 31
0.0
  0
LINE
  8
0
 10
0.07637530565261841
 20
-0.09894861280918121
 30
0.0
 11
0.0630810409784317
 21
-0.10792939364910126
 31
0.0
  0
LINE
  8
0
 10
0.0630810409784317
 20
-0.10792939364910126
 30
0.0
 11
0.048647236078977585
 21
-0.1151740625500679
 31
0.0
  0
LINE
  8
0
 10
0.048647236078977585
 20
-0.1151740625500679
 30
0.0
 11
0.03322303295135498
 21
-0.12053348124027252
 31
0.0
  0
LINE
  8
0
 10
0.03322303295135498
 20
-0.12053348124027252
 30
0.0
 11
0.01695757545530796
 21
-0.1238585039973259
 31
0.0
  0
LINE
  8
0
 10
0.2899751663208008
 20
0.8616005778312683
 30
0.0
 11
0.2619999647140503
 21
0.862671971321106
 31
0.0
  0
LINE
  8
0
 10
-0.016957564279437065
 20
-0.12385851889848709
 30
0.0
 11
-0.033223021775484085
 21
-0.12053349614143372
 31
0.0
  0
LINE
  8
0
 10
-0.033223021775484085
 20
-0.12053349614143372
 30
0.0
 11
-0.04864722117781639
 21
-0.1151740774512291
 31
0.0
  0
LINE
  8
0
 10
-0.04864722117781639
 20
-0.1151740774512291
 30
0.0
 11
-0.06308101862668991
 21
-0.10792940855026245
 31
0.0
  0
LINE
  8
0
 10
-0.06308101862668991
 20
-0.10792940855026245
 30
0.0
 11
-0.07637527585029602
 21
-0.09894862771034241
 31
0.0
  0
LINE
  8
0
 10
-0.07637527585029602
 20
-0.09894862771034241
 30
0.0
 11
-0.0883808508515358
 21
-0.08838088065385818
 31
0.0
  0
LINE
  8
0
 10
-0.0883808508515358
 20
-0.08838088065385818
 30
0.0
 11
-0.09894861280918121
 21
-0.07637530565261841
 31
0.0
  0
LINE
  8
0
 10
-0.09894861280918121
 20
-0.07637530565261841
 30
0.0
 11
-0.10792939364910126
 21
-0.0630810409784317
 31
0.0
  0
LINE
  8
0
 10
-0.10792939364910126
 20
-0.0630810409784317
 30
0.0
 11
-0.1151740625500679
 21
-0.048647236078977585
 31
0.0
  0
LINE
  8
0
 10
-0.1151740625500679
 20
-0.048647236078977585
 30
0.0
 11
-0.12053348124027252
 21
-0.03322303295135498
 31
0.0
  0
LINE
  8
0
 10
-0.12053348124027252
 20
-0.03322303295135498
 30
0.0
 11
-0.1238585039973259
 21
-0.01695757545530796
 31
0.0
  0
LINE
  8
0
 10
-0.1238585039973259
 20
-0.01695757545530796
 30
0.0
 11
-0.125
 21
-5.463937746696956e-09
 31
0.0
  0
LINE
  8
0
 10
-0.125
 20
-5.463937746696956e-09
 30
0.0
 11
-0.12385851889848709
 21
0.016957564279437065
 31
0.0
  0
LINE
  8
0
 10
-0.12385851889848709
 20
0.016957564279437065
 30
0.0
 11
-0.12053349614143372
 21
0.033223021775484085
 31
0.0
  0
LINE
  8
0
 10
-0.12053349614143372
 20
0.033223021775484085
 30
0.0
 11
-0.1151740774512291
 21
0.04864722117781639
 31
0.0
  0
LINE
  8
0
 10
-0.1151740774512291
 20
0.04864722117781639
 30
0.0
 11
-0.10792940855026245
 21
0.06308101862668991
 31
0.0
  0
LINE
  8
0
 10
-0.10792940855026245
 20
0.06308101862668991
 30
0.0
 11
-0.09894862771034241
 21
0.07637527585029602
 31
0.0
  0
LINE
  8
0
 10
-0.09894862771034241
 20
0.07637527585029602
 30
0.0
 11
-0.08838088065385818
 21
0.0883808508515358
 31
0.0
  0
LINE
  8
0
 10
-0.08838088065385818
 20
0.0883808508515358
 30
0.0
 11
-0.07637530565261841
 21
0.09894861280918121
 31
0.0
  0
LINE
  8
0
 10
-0.07637530565261841
 20
0.09894861280918121
 30
0.0
 11
-0.0630810409784317
 21
0.10792939364910126
 31
0.0
  0
LINE
  8
0
 10
-0.0630810409784317
 20
0.10792939364910126
 30
0.0
 11
-0.048647236078977585
 21
0.1151740625500679
 31
0.0
  0
LINE
  8
0
 10
-0.048647236078977585
 20
0.1151740625500679
 30
0.0
 11
-0.03322303295135498
 21
0.12053348124027252
 31
0.0
  0
LINE
  8
0
 10
-0.03322303295135498
 20
0.12053348124027252
 30
0.0
 11
-0.01695757545530796
 21
0.1238585039973259
 31
0.0
  0
LINE
  8
0
 10
0.30033206939697266
 20
0.9189230799674988
 30
0.0
 11
0.28199997544288635
 21
0.9126719832420349
 31
0.0
  0
LINE
  8
0
 10
-0.26200002431869507
 20
0.862671971321106
 30
0.0
 11
-0.26200002431869507
 21
0.9126719832420349
 31
0.0
  0
LINE
  8
0
 10
0.2619999647140503
 20
0.862671971321106
 30
0.0
 11
0.2619999647140503
 21
0.9126719832420349
 31
0.0
  0
LINE
  8
0
 10
0.016957564279437065
 20
0.12385851889848709
 30
0.0
 11
0.014999954029917717
 21
1.0376720428466797
 31
0.0
  0
LINE
  8
0
 10
-0.016957517713308334
 20
-1.1819367408752441
 30
0.0
 11
-0.016957564279437065
 21
-0.12385851889848709
 31
0.0
  0
LINE
  8
0
 10
0.31199997663497925
 20
0.41247254610061646
 30
0.0
 11
0.3129408359527588
 21
0.39625123143196106
 31
0.0
  0
LINE
  8
0
 10
0.18305009603500366
 20
-1.9232089519500732
 30
0.0
 11
0.47028499841690063
 21
-0.07300997525453568
 31
0.0
  0
LINE
  8
0
 10
0.01695762202143669
 20
-1.1819367408752441
 30
0.0
 11
0.01695757545530796
 21
-0.1238585039973259
 31
0.0
  0
LINE
  8
0
 10
-0.6656597256660461
 20
-6.170701026916504
 30
0.0
 11
-0.4319297671318054
 21
-5.4144110679626465
 31
0.0
  0
LINE
  8
0
 10
0.4445882737636566
 20
-6.180902004241943
 30
0.0
 11
0.22479423880577087
 21
-5.420444965362549
 31
0.0
  0
LINE
  8
0
 10
0.17848436534404755
 20
-6.333879470825195
 30
0.0
 11
0.18587368726730347
 21
-6.329207420349121
 31
0.0
  0
LINE
  8
0
 10
-0.40241149067878723
 20
-6.328542232513428
 30
0.0
 11
-0.37398627400398254
 21
-6.345581531524658
 31
0.0
  0
LINE
  8
0
 10
-0.11420828849077225
 20
-6.575526237487793
 30
0.0
 11
-0.09255189448595047
 21
-6.55043888092041
 31
0.0
  0
LINE
  8
0
 10
-0.10484395176172256
 20
-5.084364891052246
 30
0.0
 11
-0.10021378099918365
 21
-5.052433490753174
 31
0.0
  0
LINE
  8
0
 10
-0.43636029958724976
 20
-6.241565227508545
 30
0.0
 11
-0.18084275722503662
 21
-5.414776802062988
 31
0.0
  0
LINE
  8
0
 10
0.1888778954744339
 20
-5.109736919403076
 30
0.0
 11
0.22479423880577087
 21
-5.420444965362549
 31
0.0
  0
LINE
  8
0
 10
0.15559886395931244
 20
-2.228543281555176
 30
0.0
 11
0.18305009603500366
 21
-1.9232089519500732
 31
0.0
  0
LINE
  8
0
 10
0.32635024189949036
 20
-6.523900032043457
 30
0.0
 11
0.29531505703926086
 21
-6.543523788452148
 31
0.0
  0
LINE
  8
0
 10
0.45281463861465454
 20
-6.216687202453613
 30
0.0
 11
0.4445882737636566
 21
-6.180902004241943
 31
0.0
  0
LINE
  8
0
 10
-0.11659322679042816
 20
-7.169638156890869
 30
0.0
 11
-0.12034706771373749
 21
-7.2436299324035645
 31
0.0
  0
LINE
  8
0
 10
-0.11659322679042816
 20
-7.169638156890869
 30
0.0
 11
-0.13121651113033295
 21
-7.097543716430664
 31
0.0
  0
LINE
  8
0
 10
-0.4606320261955261
 20
-6.575877666473389
 30
0.0
 11
-0.5230746269226074
 21
-6.536004066467285
 31
0.0
  0
LINE
  8
0
 10
-0.6745419502258301
 20
-6.206328392028809
 30
0.0
 11
-0.6656597256660461
 21
-6.170701026916504
 31
0.0
  0
LINE
  8
0
 10
-0.38129082322120667
 20
-5.107274532318115
 30
0.0
 11
-0.4319297671318054
 21
-5.4144110679626465
 31
0.0
  0
LINE
  8
0
 10
-0.2178763449192047
 20
-1.9247803688049316
 30
0.0
 11
-0.47154682874679565
 21
-0.06435571610927582
 31
0.0
  0
LINE
  8
0
 10
-0.31294089555740356
 20
0.39625120162963867
 30
0.0
 11
-0.312000036239624
 21
0.41247299313545227
 31
0.0
  0
LINE
  8
0
 10
0.3460974395275116
 20
0.32667210698127747
 30
0.0
 11
0.3709568381309509
 21
0.29840734601020813
 31
0.0
  0
LINE
  8
0
 10
-0.346097469329834
 20
0.3266720175743103
 30
0.0
 11
-0.37047743797302246
 21
0.29899680614471436
 31
0.0
  0
LINE
  8
0
 10
0.30790409445762634
 20
0.8478137850761414
 30
0.0
 11
0.31199997663497925
 21
0.8326719999313354
 31
0.0
  0
LINE
  8
0
 10
0.30790409445762634
 20
0.8478137850761414
 30
0.0
 11
0.30033206939697266
 21
0.8564213514328003
 31
0.0
  0
LINE
  8
0
 10
0.30033206939697266
 20
0.8564213514328003
 30
0.0
 11
0.2899751663208008
 21
0.8616005778312683
 31
0.0
  0
LINE
  8
0
 10
0.31199997663497925
 20
0.41247254610061646
 30
0.0
 11
0.31199997663497925
 21
0.8326719999313354
 31
0.0
  0
LINE
  8
0
 10
-0.01695757545530796
 20
0.1238585039973259
 30
0.0
 11
-0.01500004529953003
 21
1.0376720428466797
 31
0.0
  0
LINE
  8
0
 10
0.2619999647140503
 20
0.9126719832420349
 30
0.0
 11
0.28199997544288635
 21
0.9126719832420349
 31
0.0
  0
LINE
  8
0
 10
-0.26200002431869507
 20
0.862671971321106
 30
0.0
 11
-0.28200003504753113
 21
0.862671971321106
 31
0.0
  0
ENDSEC
  0
EOF
